G04 #@! TF.GenerationSoftware,KiCad,Pcbnew,8.0.4-rc2*
G04 #@! TF.CreationDate,2024-08-04T20:31:53-05:00*
G04 #@! TF.ProjectId,backplane_tracer_v5,6261636b-706c-4616-9e65-5f7472616365,rev?*
G04 #@! TF.SameCoordinates,Original*
G04 #@! TF.FileFunction,Copper,L4,Bot*
G04 #@! TF.FilePolarity,Positive*
%FSLAX46Y46*%
G04 Gerber Fmt 4.6, Leading zero omitted, Abs format (unit mm)*
G04 Created by KiCad (PCBNEW 8.0.4-rc2) date 2024-08-04 20:31:53*
%MOMM*%
%LPD*%
G01*
G04 APERTURE LIST*
G04 Aperture macros list*
%AMRoundRect*
0 Rectangle with rounded corners*
0 $1 Rounding radius*
0 $2 $3 $4 $5 $6 $7 $8 $9 X,Y pos of 4 corners*
0 Add a 4 corners polygon primitive as box body*
4,1,4,$2,$3,$4,$5,$6,$7,$8,$9,$2,$3,0*
0 Add four circle primitives for the rounded corners*
1,1,$1+$1,$2,$3*
1,1,$1+$1,$4,$5*
1,1,$1+$1,$6,$7*
1,1,$1+$1,$8,$9*
0 Add four rect primitives between the rounded corners*
20,1,$1+$1,$2,$3,$4,$5,0*
20,1,$1+$1,$4,$5,$6,$7,0*
20,1,$1+$1,$6,$7,$8,$9,0*
20,1,$1+$1,$8,$9,$2,$3,0*%
G04 Aperture macros list end*
G04 #@! TA.AperFunction,ComponentPad*
%ADD10C,0.800000*%
G04 #@! TD*
G04 #@! TA.AperFunction,ComponentPad*
%ADD11C,7.400000*%
G04 #@! TD*
G04 #@! TA.AperFunction,ComponentPad*
%ADD12R,1.700000X1.700000*%
G04 #@! TD*
G04 #@! TA.AperFunction,ComponentPad*
%ADD13O,1.700000X1.700000*%
G04 #@! TD*
G04 #@! TA.AperFunction,ConnectorPad*
%ADD14R,2.032000X13.208000*%
G04 #@! TD*
G04 #@! TA.AperFunction,ComponentPad*
%ADD15C,1.850000*%
G04 #@! TD*
G04 #@! TA.AperFunction,ComponentPad*
%ADD16RoundRect,0.250000X0.600000X-0.600000X0.600000X0.600000X-0.600000X0.600000X-0.600000X-0.600000X0*%
G04 #@! TD*
G04 #@! TA.AperFunction,ComponentPad*
%ADD17C,1.700000*%
G04 #@! TD*
G04 #@! TA.AperFunction,SMDPad,CuDef*
%ADD18C,1.000000*%
G04 #@! TD*
G04 #@! TA.AperFunction,ViaPad*
%ADD19C,0.600000*%
G04 #@! TD*
G04 #@! TA.AperFunction,Conductor*
%ADD20C,0.200000*%
G04 #@! TD*
G04 #@! TA.AperFunction,Conductor*
%ADD21C,0.431800*%
G04 #@! TD*
G04 APERTURE END LIST*
D10*
X150082200Y-141249400D03*
X150894979Y-139287179D03*
X150894979Y-143211621D03*
X152857200Y-138474400D03*
D11*
X152857200Y-141249400D03*
D10*
X152857200Y-144024400D03*
X154819421Y-139287179D03*
X154819421Y-143211621D03*
X155632200Y-141249400D03*
D12*
X153797000Y-206146400D03*
D13*
X153797000Y-208686400D03*
X151257000Y-206146400D03*
X151257000Y-208686400D03*
X148717000Y-206146400D03*
X148717000Y-208686400D03*
X146177000Y-206146400D03*
X146177000Y-208686400D03*
X143637000Y-206146400D03*
X143637000Y-208686400D03*
X141097000Y-206146400D03*
X141097000Y-208686400D03*
X138557000Y-206146400D03*
X138557000Y-208686400D03*
X136017000Y-206146400D03*
X136017000Y-208686400D03*
X133477000Y-206146400D03*
X133477000Y-208686400D03*
X130937000Y-206146400D03*
X130937000Y-208686400D03*
X128397000Y-206146400D03*
X128397000Y-208686400D03*
X125857000Y-206146400D03*
X125857000Y-208686400D03*
X123317000Y-206146400D03*
X123317000Y-208686400D03*
X120777000Y-206146400D03*
X120777000Y-208686400D03*
X118237000Y-206146400D03*
X118237000Y-208686400D03*
X115697000Y-206146400D03*
X115697000Y-208686400D03*
X113157000Y-206146400D03*
X113157000Y-208686400D03*
X110617000Y-206146400D03*
X110617000Y-208686400D03*
X108077000Y-206146400D03*
X108077000Y-208686400D03*
X105537000Y-206146400D03*
X105537000Y-208686400D03*
D14*
X224586800Y-220980000D03*
X221411800Y-220980000D03*
X218236800Y-220980000D03*
X215061800Y-220980000D03*
X211886800Y-220980000D03*
X208711800Y-220980000D03*
X205536800Y-220980000D03*
X202361800Y-220980000D03*
X199186800Y-220980000D03*
X196011800Y-220980000D03*
X192836800Y-220980000D03*
X189661800Y-220980000D03*
X186486800Y-220980000D03*
X183311800Y-220980000D03*
X180136800Y-220980000D03*
X176961800Y-220980000D03*
X173786800Y-220980000D03*
X170611800Y-220980000D03*
X154736800Y-220980000D03*
X151561800Y-220980000D03*
X148386800Y-220980000D03*
X145211800Y-220980000D03*
X142036800Y-220980000D03*
X138861800Y-220980000D03*
X135686800Y-220980000D03*
X132511800Y-220980000D03*
X129336800Y-220980000D03*
X126161800Y-220980000D03*
X122986800Y-220980000D03*
X119811800Y-220980000D03*
X116636800Y-220980000D03*
X113461800Y-220980000D03*
X110286800Y-220980000D03*
X107111800Y-220980000D03*
X103936800Y-220980000D03*
X100761800Y-220980000D03*
D10*
X158743600Y-208153000D03*
X159556379Y-206190779D03*
X159556379Y-210115221D03*
X161518600Y-205378000D03*
D11*
X161518600Y-208153000D03*
D10*
X161518600Y-210928000D03*
X163480821Y-206190779D03*
X163480821Y-210115221D03*
X164293600Y-208153000D03*
X99790200Y-141249400D03*
X100602979Y-139287179D03*
X100602979Y-143211621D03*
X102565200Y-138474400D03*
D11*
X102565200Y-141249400D03*
D10*
X102565200Y-144024400D03*
X104527421Y-139287179D03*
X104527421Y-143211621D03*
X105340200Y-141249400D03*
D12*
X219583000Y-206146400D03*
D13*
X219583000Y-208686400D03*
X217043000Y-206146400D03*
X217043000Y-208686400D03*
X214503000Y-206146400D03*
X214503000Y-208686400D03*
X211963000Y-206146400D03*
X211963000Y-208686400D03*
X209423000Y-206146400D03*
X209423000Y-208686400D03*
X206883000Y-206146400D03*
X206883000Y-208686400D03*
X204343000Y-206146400D03*
X204343000Y-208686400D03*
X201803000Y-206146400D03*
X201803000Y-208686400D03*
X199263000Y-206146400D03*
X199263000Y-208686400D03*
X196723000Y-206146400D03*
X196723000Y-208686400D03*
X194183000Y-206146400D03*
X194183000Y-208686400D03*
X191643000Y-206146400D03*
X191643000Y-208686400D03*
X189103000Y-206146400D03*
X189103000Y-208686400D03*
X186563000Y-206146400D03*
X186563000Y-208686400D03*
X184023000Y-206146400D03*
X184023000Y-208686400D03*
X181483000Y-206146400D03*
X181483000Y-208686400D03*
X178943000Y-206146400D03*
X178943000Y-208686400D03*
X176403000Y-206146400D03*
X176403000Y-208686400D03*
X173863000Y-206146400D03*
X173863000Y-208686400D03*
X171323000Y-206146400D03*
X171323000Y-208686400D03*
D15*
X136525000Y-148336000D03*
X135255000Y-150876000D03*
X133985000Y-148336000D03*
X132715000Y-150876000D03*
X131445000Y-148336000D03*
X130175000Y-150876000D03*
X128905000Y-148336000D03*
X127635000Y-150876000D03*
X126365000Y-148336000D03*
X125095000Y-150876000D03*
X123825000Y-148336000D03*
X122555000Y-150876000D03*
X121285000Y-148336000D03*
X120015000Y-150876000D03*
X118745000Y-148336000D03*
X117475000Y-150876000D03*
X116205000Y-148336000D03*
X114935000Y-150876000D03*
X113665000Y-148336000D03*
X112395000Y-150876000D03*
D16*
X197231000Y-149258300D03*
D17*
X197231000Y-146718300D03*
X199771000Y-149258300D03*
X199771000Y-146718300D03*
X202311000Y-149258300D03*
X202311000Y-146718300D03*
X204851000Y-149258300D03*
X204851000Y-146718300D03*
X207391000Y-149258300D03*
X207391000Y-146718300D03*
X209931000Y-149258300D03*
X209931000Y-146718300D03*
X212471000Y-149258300D03*
X212471000Y-146718300D03*
X215011000Y-149258300D03*
X215011000Y-146718300D03*
X217551000Y-149258300D03*
X217551000Y-146718300D03*
X220091000Y-149258300D03*
X220091000Y-146718300D03*
D18*
X119202200Y-172262800D03*
X133451600Y-171297600D03*
X101447600Y-171297600D03*
X183210200Y-172262800D03*
X167208200Y-172262800D03*
X199212200Y-172262800D03*
X197459600Y-171297600D03*
X215214200Y-172262800D03*
X149453600Y-171297600D03*
X181457600Y-171297600D03*
X135204200Y-172262800D03*
X151206200Y-172262800D03*
X103200200Y-172262800D03*
X165455600Y-171297600D03*
X213461600Y-171297600D03*
X117449600Y-171297600D03*
D19*
X162077400Y-158038800D03*
X109397800Y-181229000D03*
X192963800Y-196977000D03*
X175298296Y-172961989D03*
X205409800Y-181229000D03*
X175183800Y-189103000D03*
X212521800Y-189103000D03*
X121996200Y-166243000D03*
X198297800Y-196977000D03*
X152069800Y-181229000D03*
X154000200Y-166243000D03*
X225780600Y-158038800D03*
X191185800Y-189103000D03*
X121285000Y-163576000D03*
X132511800Y-189103000D03*
X120065800Y-181229000D03*
X105994200Y-166243000D03*
X203631800Y-196977000D03*
X150291800Y-196977000D03*
X146075400Y-157149800D03*
X172987200Y-151811000D03*
X223304296Y-172961989D03*
X159296296Y-172961989D03*
X146075400Y-158038800D03*
X191300296Y-172961989D03*
X137845800Y-189103000D03*
X207302296Y-172961989D03*
X180937400Y-150312400D03*
X201853800Y-189103000D03*
X137998200Y-166243000D03*
X202006200Y-166243000D03*
X130733800Y-181229000D03*
X210743800Y-181229000D03*
X179946800Y-150312400D03*
X187629800Y-196977000D03*
X114071400Y-157149800D03*
X134289800Y-196977000D03*
X208965800Y-196977000D03*
X148513800Y-189103000D03*
X104063800Y-181229000D03*
X177533800Y-146705600D03*
X162737800Y-181229000D03*
X127292296Y-172961989D03*
X155625800Y-196977000D03*
X169849800Y-189103000D03*
X184073800Y-181229000D03*
X200075800Y-181229000D03*
X116509800Y-189103000D03*
X128955800Y-196977000D03*
X217297000Y-163576000D03*
X207187800Y-189103000D03*
X107619800Y-196977000D03*
X221411800Y-181229000D03*
X144957800Y-196977000D03*
X178079400Y-157149800D03*
X139623800Y-196977000D03*
X194741800Y-181229000D03*
X164515800Y-189103000D03*
X98729800Y-181229000D03*
X137287000Y-163576000D03*
X127177800Y-189103000D03*
X123621800Y-196977000D03*
X162077400Y-157149800D03*
X111290296Y-172961989D03*
X172123600Y-151811000D03*
X153289000Y-163576000D03*
X189814300Y-151587200D03*
X118287800Y-196977000D03*
X114731800Y-181229000D03*
X153847800Y-189103000D03*
X143294296Y-172961989D03*
X121843800Y-189103000D03*
X219633800Y-196977000D03*
X136067800Y-181229000D03*
X102285800Y-196977000D03*
X166293800Y-196977000D03*
X194081400Y-157149800D03*
X224967800Y-196977000D03*
X178079400Y-158038800D03*
X189407800Y-181229000D03*
X100507800Y-189103000D03*
X171209200Y-151811000D03*
X157403800Y-181229000D03*
X216077800Y-181229000D03*
X185293000Y-163576000D03*
X196519800Y-189103000D03*
X105841800Y-189103000D03*
X125399800Y-181229000D03*
X141401800Y-181229000D03*
X114071400Y-158038800D03*
X173405800Y-181229000D03*
X130073400Y-157149800D03*
X210083400Y-157149800D03*
X186004200Y-166243000D03*
X159181800Y-189103000D03*
X105283000Y-163576000D03*
X223189800Y-189103000D03*
X175425600Y-146705600D03*
X201295000Y-163576000D03*
X214299800Y-196977000D03*
X182295800Y-196977000D03*
X170002200Y-166243000D03*
X130073400Y-158038800D03*
X185851800Y-189103000D03*
X169291000Y-163576000D03*
X176961800Y-196977000D03*
X181877200Y-150312400D03*
X176416200Y-146705600D03*
X194081400Y-158038800D03*
X112953800Y-196977000D03*
X146735800Y-181229000D03*
X218008200Y-166243000D03*
X210083400Y-158038800D03*
X143179800Y-189103000D03*
X178739800Y-181229000D03*
X168071800Y-181229000D03*
X217855800Y-189103000D03*
X225780600Y-157149800D03*
X171627800Y-196977000D03*
X160959800Y-196977000D03*
X111175800Y-189103000D03*
X180517800Y-189103000D03*
X161658300Y-161810700D03*
X178092600Y-151760200D03*
X130073400Y-153695400D03*
X195859400Y-151536400D03*
X209664300Y-161810700D03*
X193662300Y-161810700D03*
X210083400Y-153695400D03*
X225704400Y-153695400D03*
X129654300Y-161810700D03*
X145656300Y-161810700D03*
X106019600Y-167563800D03*
X161518600Y-151739600D03*
X170027600Y-167563800D03*
X202031600Y-167563800D03*
X138023600Y-167563800D03*
X177660300Y-161810700D03*
X175628800Y-151760200D03*
X218033600Y-167563800D03*
X113652300Y-161810700D03*
X162077400Y-153695400D03*
X114071400Y-153695400D03*
X176644800Y-151760200D03*
X225615500Y-161759900D03*
X178079400Y-153695400D03*
X122021600Y-167563800D03*
X146075400Y-153695400D03*
X154025600Y-167563800D03*
X194081400Y-153695400D03*
X186029600Y-167563800D03*
X174689000Y-151760200D03*
X170510100Y-149047200D03*
X170510100Y-148158200D03*
X170510100Y-146380200D03*
X170510100Y-147269200D03*
X170510100Y-145491200D03*
X185953400Y-185166000D03*
X196621400Y-185166000D03*
X116611400Y-185166000D03*
X209067400Y-193040000D03*
X159283400Y-185166000D03*
X152095200Y-177292000D03*
X191287400Y-185166000D03*
X214401400Y-193040000D03*
X221437200Y-177292000D03*
X137947400Y-185166000D03*
X171729400Y-193040000D03*
X123723400Y-193040000D03*
X153949400Y-185166000D03*
X198399400Y-193040000D03*
X203733400Y-193040000D03*
X184099200Y-177292000D03*
X194767200Y-177292000D03*
X109423200Y-177292000D03*
X216103200Y-177292000D03*
X111277400Y-185166000D03*
X225069400Y-193040000D03*
X120091200Y-177292000D03*
X114757200Y-177292000D03*
X207289400Y-185166000D03*
X157429200Y-177292000D03*
X223291400Y-185166000D03*
X200101200Y-177292000D03*
X173431200Y-177292000D03*
X187731400Y-193040000D03*
X201955400Y-185166000D03*
X217957400Y-185166000D03*
X148615400Y-185166000D03*
X161061400Y-193040000D03*
X113055400Y-193040000D03*
X134391400Y-193040000D03*
X132613400Y-185166000D03*
X210769200Y-177292000D03*
X150393400Y-193040000D03*
X145059400Y-193040000D03*
X127279400Y-185166000D03*
X219735400Y-193040000D03*
X143281400Y-185166000D03*
X130759200Y-177292000D03*
X105943400Y-185166000D03*
X100609400Y-185166000D03*
X212623400Y-185166000D03*
X168097200Y-177292000D03*
X98755200Y-177292000D03*
X155727400Y-193040000D03*
X193065400Y-193040000D03*
X178765200Y-177292000D03*
X107721400Y-193040000D03*
X182397400Y-193040000D03*
X129057400Y-193040000D03*
X118389400Y-193040000D03*
X189433200Y-177292000D03*
X104089200Y-177292000D03*
X205435200Y-177292000D03*
X175285400Y-185166000D03*
X121945400Y-185166000D03*
X146761200Y-177292000D03*
X166395400Y-193040000D03*
X180619400Y-185166000D03*
X164617400Y-185166000D03*
X169951400Y-185166000D03*
X162763200Y-177292000D03*
X141427200Y-177292000D03*
X177063400Y-193040000D03*
X139725400Y-193040000D03*
X125425200Y-177292000D03*
X102387400Y-193040000D03*
X136093200Y-177292000D03*
X217306699Y-170646899D03*
X220141800Y-153136600D03*
X184226200Y-146354800D03*
X201304699Y-170646899D03*
X181457500Y-140970000D03*
X197053200Y-156159200D03*
X178155500Y-140970000D03*
X180111400Y-157124400D03*
X183083200Y-149352000D03*
X185302699Y-170646899D03*
X166979600Y-151307800D03*
X163347400Y-162306000D03*
X174878900Y-140944500D03*
X169300699Y-170646899D03*
X147294600Y-162534600D03*
X153298699Y-170646899D03*
X171551500Y-140970000D03*
X152781000Y-151841200D03*
X131318000Y-164439600D03*
X146304000Y-151714200D03*
X137296699Y-170646899D03*
X168249500Y-140970000D03*
X144856200Y-150622000D03*
X164947500Y-140970000D03*
X121294699Y-170646899D03*
X119380000Y-153898600D03*
X165023700Y-142875000D03*
X105292699Y-170646899D03*
X216627000Y-168808400D03*
X216636753Y-169608343D03*
X112356900Y-167881300D03*
X128358900Y-167881300D03*
X176364900Y-167881300D03*
X224370900Y-167881300D03*
X208915000Y-168529000D03*
X112903000Y-168529000D03*
X160909000Y-168529000D03*
X192913000Y-168529000D03*
X224917000Y-168529000D03*
X176911000Y-168529000D03*
X208368900Y-167881300D03*
X128905000Y-168529000D03*
X160362900Y-167881300D03*
X192366900Y-167881300D03*
X144360900Y-167881300D03*
X144907000Y-168529000D03*
X216839800Y-172262800D03*
X184835800Y-172262800D03*
X105460800Y-169773600D03*
X104216565Y-171307200D03*
X121462800Y-169773600D03*
X120218565Y-171307200D03*
X201472800Y-169773600D03*
X200228565Y-171307200D03*
X168833800Y-172262800D03*
X136220565Y-171307200D03*
X137464800Y-169773600D03*
X120827800Y-172262800D03*
X136829800Y-172262800D03*
X152222565Y-171307200D03*
X153466800Y-169773600D03*
X104825800Y-172262800D03*
X200837800Y-172262800D03*
X152831800Y-172262800D03*
X184226565Y-171307200D03*
X185470800Y-169773600D03*
X217474800Y-169773600D03*
X216230565Y-171307200D03*
X169468800Y-169773600D03*
X168224565Y-171307200D03*
X157170572Y-174294800D03*
X109164572Y-174294800D03*
X205176572Y-174294800D03*
X189174572Y-174294800D03*
X141168572Y-174294800D03*
X140565188Y-173669366D03*
X188571188Y-173669366D03*
X220575188Y-173669366D03*
X172569188Y-173669366D03*
X156567188Y-173669366D03*
X173172572Y-174294800D03*
X124563188Y-173669366D03*
X125166572Y-174294800D03*
X108561188Y-173669366D03*
X204573188Y-173669366D03*
X221178572Y-174294800D03*
X202075707Y-172605788D03*
X201447400Y-173101000D03*
X170697600Y-173104044D03*
X203373188Y-173565869D03*
X170071707Y-172605788D03*
X217449400Y-173101000D03*
X187971188Y-174198515D03*
X222995229Y-173759755D03*
X186073707Y-172605788D03*
X171369188Y-173565869D03*
X171969188Y-174198515D03*
X186699600Y-173104044D03*
X218077707Y-172605788D03*
X169443400Y-173101000D03*
X189774572Y-173717432D03*
X218703600Y-173104044D03*
X221778572Y-173717432D03*
X202701600Y-173104044D03*
X205776572Y-173717432D03*
X187371188Y-173565869D03*
X185445400Y-173101000D03*
X173772572Y-173717432D03*
X174989229Y-173759755D03*
X190991229Y-173759755D03*
X219975188Y-174198515D03*
X219375188Y-173565869D03*
X206993229Y-173759755D03*
X203973188Y-174198515D03*
X123363188Y-173565869D03*
X106689600Y-173104044D03*
X138067707Y-172605788D03*
X142985229Y-173759755D03*
X107361188Y-173565869D03*
X155967188Y-174198515D03*
X105435400Y-173101000D03*
X107961188Y-174198515D03*
X125766572Y-173717432D03*
X154069707Y-172605788D03*
X154695600Y-173104044D03*
X139965188Y-174198515D03*
X158987229Y-173759755D03*
X106063707Y-172605788D03*
X126983229Y-173759755D03*
X155367188Y-173565869D03*
X122691600Y-173104044D03*
X141768572Y-173717432D03*
X109764572Y-173717432D03*
X110981229Y-173759755D03*
X157770572Y-173717432D03*
X122065707Y-172605788D03*
X123963188Y-174198515D03*
X137439400Y-173101000D03*
X153441400Y-173101000D03*
X121437400Y-173101000D03*
X139365188Y-173565869D03*
X138693600Y-173104044D03*
X222605600Y-166522400D03*
X222923100Y-164630100D03*
X209550000Y-170205400D03*
X208000600Y-164769800D03*
X206921100Y-164630100D03*
X206603600Y-166522400D03*
X193548000Y-170205400D03*
X191998600Y-164769800D03*
X190919100Y-164630100D03*
X190601600Y-166522400D03*
X177546000Y-170205400D03*
X175996600Y-164769800D03*
X174599600Y-166522400D03*
X174917100Y-164630100D03*
X209143600Y-172466000D03*
X225564700Y-173291500D03*
X161544000Y-170205400D03*
X159994600Y-164769800D03*
X225145600Y-172466000D03*
X113550700Y-173291500D03*
X145542000Y-170205400D03*
X143992600Y-164769800D03*
X142595600Y-166522400D03*
X142913100Y-164630100D03*
X127990600Y-164769800D03*
X129540000Y-170205400D03*
X126911100Y-164630100D03*
X126593600Y-166522400D03*
X200625000Y-168808400D03*
X110591600Y-166522400D03*
X110909100Y-164630100D03*
X158597600Y-166522400D03*
X158915100Y-164630100D03*
X209562700Y-173291500D03*
X193141600Y-172466000D03*
X200634753Y-169608343D03*
X184632753Y-169608343D03*
X193560700Y-173291500D03*
X177139600Y-172466000D03*
X184623000Y-168808400D03*
X177558700Y-173291500D03*
X161137600Y-172466000D03*
X168621000Y-168808400D03*
X168630753Y-169608343D03*
X152619000Y-168808400D03*
X161556700Y-173291500D03*
X145135600Y-172466000D03*
X152628753Y-169608343D03*
X145554700Y-173291500D03*
X129133600Y-172466000D03*
X136626753Y-169608343D03*
X136617000Y-168808400D03*
X120615000Y-168808400D03*
X113131600Y-172466000D03*
X129552700Y-173291500D03*
X225552000Y-170205400D03*
X224002600Y-164769800D03*
X220802200Y-152171400D03*
X113538000Y-170205400D03*
X111988600Y-164769800D03*
X221183200Y-165328600D03*
X218821000Y-167005000D03*
X202819000Y-167005000D03*
X205181200Y-165328600D03*
X189179200Y-165328600D03*
X186817000Y-167005000D03*
X173177200Y-165328600D03*
X170815000Y-167005000D03*
X157175200Y-165328600D03*
X154813000Y-167005000D03*
X138811000Y-167005000D03*
X141173200Y-165328600D03*
X122809000Y-167005000D03*
X125171200Y-165328600D03*
X106807000Y-167005000D03*
X109169200Y-165328600D03*
X120624753Y-169608343D03*
X104613000Y-168808400D03*
X104622753Y-169608343D03*
D20*
X217306699Y-170646899D02*
X218049301Y-170646899D01*
X221869000Y-163728400D02*
X221869000Y-164973000D01*
X220141800Y-162001200D02*
X221869000Y-163728400D01*
X220141800Y-153136600D02*
X220141800Y-162001200D01*
X218049301Y-170646899D02*
X221869000Y-166827200D01*
X221869000Y-166827200D02*
X221869000Y-164973000D01*
X184226200Y-143738700D02*
X181457500Y-140970000D01*
X205867000Y-166827200D02*
X205867000Y-164973000D01*
X202047301Y-170646899D02*
X205867000Y-166827200D01*
X201304699Y-170646899D02*
X202047301Y-170646899D01*
X184226200Y-146354800D02*
X184226200Y-143738700D01*
X205867000Y-164973000D02*
X197053200Y-156159200D01*
X183083200Y-145897700D02*
X178155500Y-140970000D01*
X189865000Y-166827200D02*
X189865000Y-164973000D01*
X183083200Y-149352000D02*
X183083200Y-145897700D01*
X189865000Y-164973000D02*
X182016400Y-157124400D01*
X185302699Y-170646899D02*
X186045301Y-170646899D01*
X182016400Y-157124400D02*
X180111400Y-157124400D01*
X186045301Y-170646899D02*
X189865000Y-166827200D01*
X166979600Y-147218400D02*
X173253500Y-140944500D01*
X163347400Y-162306000D02*
X171196000Y-162306000D01*
X173253500Y-140944500D02*
X174878900Y-140944500D01*
X171196000Y-162306000D02*
X173863000Y-164973000D01*
X169300699Y-170646899D02*
X170043301Y-170646899D01*
X166979600Y-151307800D02*
X166979600Y-147218400D01*
X173863000Y-166827200D02*
X173863000Y-164973000D01*
X170043301Y-170646899D02*
X173863000Y-166827200D01*
X152781000Y-151841200D02*
X155041600Y-149580600D01*
X157861000Y-164973000D02*
X155422600Y-162534600D01*
X155422600Y-162534600D02*
X147294600Y-162534600D01*
X153298699Y-170646899D02*
X154041301Y-170646899D01*
X171551500Y-141452700D02*
X171551500Y-140970000D01*
X163423600Y-149580600D02*
X171551500Y-141452700D01*
X157861000Y-166827200D02*
X157861000Y-164973000D01*
X154041301Y-170646899D02*
X157861000Y-166827200D01*
X155041600Y-149580600D02*
X163423600Y-149580600D01*
X137296699Y-170646899D02*
X138039301Y-170646899D01*
X163042600Y-148285200D02*
X168249500Y-143078300D01*
X146304000Y-151714200D02*
X149733000Y-148285200D01*
X141325600Y-164439600D02*
X131318000Y-164439600D01*
X138039301Y-170646899D02*
X141859000Y-166827200D01*
X149733000Y-148285200D02*
X163042600Y-148285200D01*
X141859000Y-164973000D02*
X141325600Y-164439600D01*
X168249500Y-143078300D02*
X168249500Y-140970000D01*
X141859000Y-166827200D02*
X141859000Y-164973000D01*
X121294699Y-170646899D02*
X122037301Y-170646899D01*
X119380000Y-158496000D02*
X119380000Y-153898600D01*
X162661600Y-147015200D02*
X165862000Y-143814800D01*
X144856200Y-150622000D02*
X148463000Y-147015200D01*
X148463000Y-147015200D02*
X162661600Y-147015200D01*
X125857000Y-164973000D02*
X119380000Y-158496000D01*
X122037301Y-170646899D02*
X125857000Y-166827200D01*
X125857000Y-166827200D02*
X125857000Y-164973000D01*
X165862000Y-141884500D02*
X164947500Y-140970000D01*
X165862000Y-143814800D02*
X165862000Y-141884500D01*
X109042200Y-147548600D02*
X110744000Y-145846800D01*
X110744000Y-145846800D02*
X162051900Y-145846800D01*
X109042200Y-152400000D02*
X109042200Y-147548600D01*
X106035301Y-170646899D02*
X109855000Y-166827200D01*
X109855000Y-153212800D02*
X109042200Y-152400000D01*
X109855000Y-166827200D02*
X109855000Y-164973000D01*
X105292699Y-170646899D02*
X106035301Y-170646899D01*
X109855000Y-164973000D02*
X109855000Y-153212800D01*
X162051900Y-145846800D02*
X165023700Y-142875000D01*
X216627000Y-168808400D02*
X216627000Y-165897000D01*
X218770200Y-152704800D02*
X221615000Y-149860000D01*
X221615000Y-148242300D02*
X220091000Y-146718300D01*
X218770200Y-163753800D02*
X218770200Y-152704800D01*
X216627000Y-165897000D02*
X218770200Y-163753800D01*
X221615000Y-149860000D02*
X221615000Y-148242300D01*
X202260200Y-152704800D02*
X199390000Y-152704800D01*
X211226400Y-165074600D02*
X211226400Y-161671000D01*
X215760143Y-169608343D02*
X211226400Y-165074600D01*
X216636753Y-169608343D02*
X215760143Y-169608343D01*
X211226400Y-161671000D02*
X202260200Y-152704800D01*
X199390000Y-152704800D02*
X197231000Y-150545800D01*
X197231000Y-150545800D02*
X197231000Y-149258300D01*
X117475000Y-162763200D02*
X117475000Y-150876000D01*
X112356900Y-167881300D02*
X117475000Y-162763200D01*
X128854200Y-164465000D02*
X128828800Y-164465000D01*
X128358900Y-167881300D02*
X128854200Y-167386000D01*
X128066800Y-163703000D02*
X125374400Y-163703000D01*
X125374400Y-163703000D02*
X120015000Y-158343600D01*
X120015000Y-158343600D02*
X120015000Y-150876000D01*
X128828800Y-164465000D02*
X128066800Y-163703000D01*
X128854200Y-167386000D02*
X128854200Y-164465000D01*
X127635000Y-156743400D02*
X127635000Y-150876000D01*
X130327400Y-159435800D02*
X127635000Y-156743400D01*
X176987200Y-167259000D02*
X176987200Y-164515800D01*
X176987200Y-164515800D02*
X171907200Y-159435800D01*
X171907200Y-159435800D02*
X130327400Y-159435800D01*
X176364900Y-167881300D02*
X176987200Y-167259000D01*
X224866200Y-163372800D02*
X224866200Y-167386000D01*
X222834200Y-161340800D02*
X224866200Y-163372800D01*
X137414000Y-153035000D02*
X184658000Y-153035000D01*
X220649800Y-144729200D02*
X222834200Y-146913600D01*
X224866200Y-167386000D02*
X224370900Y-167881300D01*
X184658000Y-153035000D02*
X192963800Y-144729200D01*
X222834200Y-146913600D02*
X222834200Y-161340800D01*
X192963800Y-144729200D02*
X220649800Y-144729200D01*
X135255000Y-150876000D02*
X137414000Y-153035000D01*
X200761600Y-154432000D02*
X136677400Y-154432000D01*
X136677400Y-154432000D02*
X133985000Y-151739600D01*
X209626200Y-167817800D02*
X209626200Y-163296600D01*
X133985000Y-151739600D02*
X133985000Y-148336000D01*
X209626200Y-163296600D02*
X200761600Y-154432000D01*
X208915000Y-168529000D02*
X209626200Y-167817800D01*
X118745000Y-162687000D02*
X118745000Y-148336000D01*
X112903000Y-168529000D02*
X118745000Y-162687000D01*
X161874200Y-163449000D02*
X158394400Y-159969200D01*
X160909000Y-168529000D02*
X161874200Y-167563800D01*
X126365000Y-156667200D02*
X126365000Y-148336000D01*
X158394400Y-159969200D02*
X129667000Y-159969200D01*
X161874200Y-167563800D02*
X161874200Y-163449000D01*
X129667000Y-159969200D02*
X126365000Y-156667200D01*
X193776600Y-163677600D02*
X185851800Y-155752800D01*
X185851800Y-155752800D02*
X134518400Y-155752800D01*
X192913000Y-168529000D02*
X193776600Y-167665400D01*
X131445000Y-152679400D02*
X131445000Y-148336000D01*
X193776600Y-167665400D02*
X193776600Y-163677600D01*
X134518400Y-155752800D02*
X131445000Y-152679400D01*
X140665200Y-148336000D02*
X136525000Y-148336000D01*
X225577400Y-163144200D02*
X223824800Y-161391600D01*
X221310200Y-144068800D02*
X191566800Y-144068800D01*
X224917000Y-168529000D02*
X225577400Y-167868600D01*
X144907000Y-152577800D02*
X140665200Y-148336000D01*
X223824800Y-161391600D02*
X223824800Y-146583400D01*
X191566800Y-144068800D02*
X183057800Y-152577800D01*
X183057800Y-152577800D02*
X144907000Y-152577800D01*
X225577400Y-167868600D02*
X225577400Y-163144200D01*
X223824800Y-146583400D02*
X221310200Y-144068800D01*
X177952400Y-167487600D02*
X177952400Y-163626800D01*
X176911000Y-168529000D02*
X177952400Y-167487600D01*
X128905000Y-153746200D02*
X128905000Y-148336000D01*
X177952400Y-163626800D02*
X173228000Y-158902400D01*
X173228000Y-158902400D02*
X134061200Y-158902400D01*
X134061200Y-158902400D02*
X128905000Y-153746200D01*
X208368900Y-167881300D02*
X208864200Y-167386000D01*
X208864200Y-163601400D02*
X200329800Y-155067000D01*
X208864200Y-167386000D02*
X208864200Y-163601400D01*
X135661400Y-155067000D02*
X132715000Y-152120600D01*
X132715000Y-152120600D02*
X132715000Y-150876000D01*
X200329800Y-155067000D02*
X135661400Y-155067000D01*
X126517400Y-163144200D02*
X121285000Y-157911800D01*
X128905000Y-168529000D02*
X129667000Y-167767000D01*
X129667000Y-167767000D02*
X129667000Y-164338000D01*
X128473200Y-163144200D02*
X126517400Y-163144200D01*
X121285000Y-157911800D02*
X121285000Y-148336000D01*
X129667000Y-164338000D02*
X128473200Y-163144200D01*
X125095000Y-156667200D02*
X125095000Y-150876000D01*
X128955800Y-160528000D02*
X125095000Y-156667200D01*
X157810200Y-160528000D02*
X128955800Y-160528000D01*
X160934400Y-163652200D02*
X157810200Y-160528000D01*
X160934400Y-167309800D02*
X160934400Y-163652200D01*
X160362900Y-167881300D02*
X160934400Y-167309800D01*
X192963800Y-167284400D02*
X192963800Y-164033200D01*
X185267600Y-156337000D02*
X133908800Y-156337000D01*
X192963800Y-164033200D02*
X185267600Y-156337000D01*
X130175000Y-152603200D02*
X130175000Y-150876000D01*
X192366900Y-167881300D02*
X192963800Y-167284400D01*
X133908800Y-156337000D02*
X130175000Y-152603200D01*
X127558800Y-162636200D02*
X122555000Y-157632400D01*
X143433800Y-162636200D02*
X127558800Y-162636200D01*
X122555000Y-157632400D02*
X122555000Y-150876000D01*
X145110200Y-164312600D02*
X143433800Y-162636200D01*
X145110200Y-167132000D02*
X145110200Y-164312600D01*
X144360900Y-167881300D02*
X145110200Y-167132000D01*
X146202400Y-167233600D02*
X146202400Y-163626800D01*
X143662400Y-161086800D02*
X128066800Y-161086800D01*
X128066800Y-161086800D02*
X123825000Y-156845000D01*
X146202400Y-163626800D02*
X143662400Y-161086800D01*
X123825000Y-156845000D02*
X123825000Y-148336000D01*
X144907000Y-168529000D02*
X146202400Y-167233600D01*
X216839800Y-172262800D02*
X215214200Y-172262800D01*
X184835800Y-172262800D02*
X183210200Y-172262800D01*
X104216565Y-171307200D02*
X104216565Y-170865435D01*
X104216565Y-170865435D02*
X105308400Y-169773600D01*
X104206965Y-171297600D02*
X101447600Y-171297600D01*
X104216565Y-171307200D02*
X104206965Y-171297600D01*
X105308400Y-169773600D02*
X105460800Y-169773600D01*
X120218565Y-171307200D02*
X120208965Y-171297600D01*
X120208965Y-171297600D02*
X117449600Y-171297600D01*
X120218565Y-171307200D02*
X120218565Y-170865435D01*
X120218565Y-170865435D02*
X121310400Y-169773600D01*
X121310400Y-169773600D02*
X121462800Y-169773600D01*
X201320400Y-169773600D02*
X201472800Y-169773600D01*
X200228565Y-171307200D02*
X200218965Y-171297600D01*
X200228565Y-170865435D02*
X201320400Y-169773600D01*
X200228565Y-171307200D02*
X200228565Y-170865435D01*
X200218965Y-171297600D02*
X197459600Y-171297600D01*
X168833800Y-172262800D02*
X167208200Y-172262800D01*
X136220565Y-171307200D02*
X136210965Y-171297600D01*
X136210965Y-171297600D02*
X133451600Y-171297600D01*
X137312400Y-169773600D02*
X137464800Y-169773600D01*
X136220565Y-170865435D02*
X137312400Y-169773600D01*
X136220565Y-171307200D02*
X136220565Y-170865435D01*
X120827800Y-172262800D02*
X119202200Y-172262800D01*
X136829800Y-172262800D02*
X135204200Y-172262800D01*
X152222565Y-171307200D02*
X152222565Y-170865435D01*
X153314400Y-169773600D02*
X153466800Y-169773600D01*
X152222565Y-171307200D02*
X152212965Y-171297600D01*
X152222565Y-170865435D02*
X153314400Y-169773600D01*
X152212965Y-171297600D02*
X149453600Y-171297600D01*
X104825800Y-172262800D02*
X103200200Y-172262800D01*
X200837800Y-172262800D02*
X199212200Y-172262800D01*
X152831800Y-172262800D02*
X151206200Y-172262800D01*
X185318400Y-169773600D02*
X185470800Y-169773600D01*
X184226565Y-171307200D02*
X184216965Y-171297600D01*
X184216965Y-171297600D02*
X181457600Y-171297600D01*
X184226565Y-170865435D02*
X185318400Y-169773600D01*
X184226565Y-171307200D02*
X184226565Y-170865435D01*
X216230565Y-170865435D02*
X217322400Y-169773600D01*
X216220965Y-171297600D02*
X213461600Y-171297600D01*
X216230565Y-171307200D02*
X216230565Y-170865435D01*
X217322400Y-169773600D02*
X217474800Y-169773600D01*
X216230565Y-171307200D02*
X216220965Y-171297600D01*
X168224565Y-171307200D02*
X168224565Y-170865435D01*
X169316400Y-169773600D02*
X169468800Y-169773600D01*
X168224565Y-170865435D02*
X169316400Y-169773600D01*
X168214965Y-171297600D02*
X165455600Y-171297600D01*
X168224565Y-171307200D02*
X168214965Y-171297600D01*
X156591000Y-176911000D02*
X157170572Y-176331428D01*
X151257000Y-208076800D02*
X151257000Y-208686400D01*
X156591000Y-198247000D02*
X156591000Y-176911000D01*
X152527000Y-206806800D02*
X151257000Y-208076800D01*
X152527000Y-202311000D02*
X156591000Y-198247000D01*
X152527000Y-206806800D02*
X152527000Y-202311000D01*
X157170572Y-176331428D02*
X157170572Y-174294800D01*
X113792000Y-197485000D02*
X113792000Y-183261000D01*
D21*
X110286800Y-211556600D02*
X111887000Y-209956400D01*
X111887000Y-207899000D02*
X113157000Y-206629000D01*
X111887000Y-209956400D02*
X111887000Y-207899000D01*
D20*
X113157000Y-206146400D02*
X113157000Y-198120000D01*
X110617000Y-180086000D02*
X110617000Y-176530000D01*
D21*
X110286800Y-215138000D02*
X110286800Y-211556600D01*
X113157000Y-206629000D02*
X113157000Y-206146400D01*
D20*
X109164572Y-175077572D02*
X109164572Y-174294800D01*
X113157000Y-198120000D02*
X113792000Y-197485000D01*
X113792000Y-183261000D02*
X110617000Y-180086000D01*
X110617000Y-176530000D02*
X109164572Y-175077572D01*
D21*
X206883000Y-206629000D02*
X206883000Y-206146400D01*
D20*
X206375000Y-175493228D02*
X206375000Y-190754000D01*
D21*
X205613000Y-210235800D02*
X205613000Y-207899000D01*
X205613000Y-207899000D02*
X206883000Y-206629000D01*
D20*
X206883000Y-191262000D02*
X206883000Y-206146400D01*
X205176572Y-174294800D02*
X206375000Y-175493228D01*
D21*
X208711800Y-215138000D02*
X208711800Y-213334600D01*
X208711800Y-213334600D02*
X205613000Y-210235800D01*
D20*
X206375000Y-190754000D02*
X206883000Y-191262000D01*
X190373000Y-175493228D02*
X190373000Y-206806800D01*
X190373000Y-206806800D02*
X189103000Y-208076800D01*
X189103000Y-208076800D02*
X189103000Y-208686400D01*
X189174572Y-174294800D02*
X190373000Y-175493228D01*
X141097000Y-206146400D02*
X141097000Y-199517000D01*
D21*
X139827000Y-209956400D02*
X139827000Y-207899000D01*
X141097000Y-206629000D02*
X141097000Y-206146400D01*
D20*
X142113000Y-175239228D02*
X141168572Y-174294800D01*
X142113000Y-181737000D02*
X142113000Y-175239228D01*
X141478000Y-199136000D02*
X141478000Y-182372000D01*
D21*
X139827000Y-207899000D02*
X141097000Y-206629000D01*
X138861800Y-215138000D02*
X138861800Y-210921600D01*
D20*
X141478000Y-182372000D02*
X142113000Y-181737000D01*
X141097000Y-199517000D02*
X141478000Y-199136000D01*
D21*
X138861800Y-210921600D02*
X139827000Y-209956400D01*
D20*
X138557000Y-208076800D02*
X138557000Y-208686400D01*
X139827000Y-206806800D02*
X139827000Y-198437500D01*
X140565188Y-197699312D02*
X140565188Y-173669366D01*
X139827000Y-198437500D02*
X140565188Y-197699312D01*
X139827000Y-206806800D02*
X138557000Y-208076800D01*
D21*
X189103000Y-206629000D02*
X189103000Y-206146400D01*
X192836800Y-215138000D02*
X192760600Y-215138000D01*
X187833000Y-210210400D02*
X187833000Y-207899000D01*
X187833000Y-207899000D02*
X189103000Y-206629000D01*
X192760600Y-215138000D02*
X187833000Y-210210400D01*
D20*
X189103000Y-184658000D02*
X189103000Y-206146400D01*
X188571188Y-184126188D02*
X189103000Y-184658000D01*
X188571188Y-173669366D02*
X188571188Y-184126188D01*
D21*
X221411800Y-215138000D02*
X215773000Y-209499200D01*
D20*
X220575188Y-173669366D02*
X220575188Y-176109312D01*
D21*
X215773000Y-209499200D02*
X215773000Y-207899000D01*
D20*
X218694000Y-192532000D02*
X218694000Y-198628000D01*
D21*
X217043000Y-206629000D02*
X217043000Y-206146400D01*
D20*
X219837000Y-176847500D02*
X219837000Y-191389000D01*
X217043000Y-200279000D02*
X217043000Y-206146400D01*
X220575188Y-176109312D02*
X219837000Y-176847500D01*
X218694000Y-198628000D02*
X217043000Y-200279000D01*
X219837000Y-191389000D02*
X218694000Y-192532000D01*
D21*
X215773000Y-207899000D02*
X217043000Y-206629000D01*
D20*
X177673000Y-197993000D02*
X177673000Y-206806800D01*
X176403000Y-208076800D02*
X176403000Y-208686400D01*
X178054000Y-197612000D02*
X177673000Y-197993000D01*
X178054000Y-183896000D02*
X178054000Y-197612000D01*
X172569188Y-178411188D02*
X178054000Y-183896000D01*
X177673000Y-206806800D02*
X176403000Y-208076800D01*
X172569188Y-173669366D02*
X172569188Y-178411188D01*
X151257000Y-206146400D02*
X151257000Y-201930000D01*
X154178000Y-190627000D02*
X155829000Y-188976000D01*
D21*
X151561800Y-212318600D02*
X149987000Y-210743800D01*
D20*
X155829000Y-176847500D02*
X156567188Y-176109312D01*
X155829000Y-188976000D02*
X155829000Y-176847500D01*
D21*
X149987000Y-207899000D02*
X151257000Y-206629000D01*
X149987000Y-210743800D02*
X149987000Y-207899000D01*
D20*
X151257000Y-201930000D02*
X154178000Y-199009000D01*
X154178000Y-199009000D02*
X154178000Y-190627000D01*
D21*
X151257000Y-206629000D02*
X151257000Y-206146400D01*
X151561800Y-215138000D02*
X151561800Y-212318600D01*
D20*
X156567188Y-176109312D02*
X156567188Y-173669366D01*
D21*
X180136800Y-215138000D02*
X180136800Y-212750400D01*
D20*
X173172572Y-175077572D02*
X174625000Y-176530000D01*
D21*
X178943000Y-206629000D02*
X178943000Y-206146400D01*
D20*
X173172572Y-174294800D02*
X173172572Y-175077572D01*
X174625000Y-178943000D02*
X178943000Y-183261000D01*
D21*
X180136800Y-212750400D02*
X177673000Y-210286600D01*
X177673000Y-210286600D02*
X177673000Y-207899000D01*
D20*
X178943000Y-183261000D02*
X178943000Y-206146400D01*
X174625000Y-176530000D02*
X174625000Y-178943000D01*
D21*
X177673000Y-207899000D02*
X178943000Y-206629000D01*
X122047000Y-207899000D02*
X123317000Y-206629000D01*
D20*
X123317000Y-198755000D02*
X124563188Y-197508812D01*
D21*
X122986800Y-211302600D02*
X122047000Y-210362800D01*
D20*
X124563188Y-197508812D02*
X124563188Y-173669366D01*
D21*
X123317000Y-206629000D02*
X123317000Y-206146400D01*
X122047000Y-210362800D02*
X122047000Y-207899000D01*
D20*
X123317000Y-206146400D02*
X123317000Y-198755000D01*
D21*
X122986800Y-215138000D02*
X122986800Y-211302600D01*
D20*
X124587000Y-206806800D02*
X123317000Y-208076800D01*
X124587000Y-206806800D02*
X124587000Y-199009000D01*
X124587000Y-199009000D02*
X126111000Y-197485000D01*
X126111000Y-197485000D02*
X126111000Y-175239228D01*
X123317000Y-208076800D02*
X123317000Y-208686400D01*
X126111000Y-175239228D02*
X125166572Y-174294800D01*
X111887000Y-206806800D02*
X110617000Y-208076800D01*
X111887000Y-206806800D02*
X111887000Y-182499000D01*
X111887000Y-182499000D02*
X108561188Y-179173188D01*
X110617000Y-208076800D02*
X110617000Y-208686400D01*
X108561188Y-179173188D02*
X108561188Y-173669366D01*
X205613000Y-206806800D02*
X204343000Y-208076800D01*
X204573188Y-173669366D02*
X204573188Y-190349188D01*
X204343000Y-208076800D02*
X204343000Y-208686400D01*
X205613000Y-191389000D02*
X205613000Y-206806800D01*
X204573188Y-190349188D02*
X205613000Y-191389000D01*
X221178572Y-174294800D02*
X221178572Y-176331428D01*
X220599000Y-176911000D02*
X220599000Y-198374000D01*
X218313000Y-200660000D02*
X218313000Y-206806800D01*
X221178572Y-176331428D02*
X220599000Y-176911000D01*
X217043000Y-208076800D02*
X217043000Y-208686400D01*
X220599000Y-198374000D02*
X218313000Y-200660000D01*
X218313000Y-206806800D02*
X217043000Y-208076800D01*
X199263000Y-208076800D02*
X199263000Y-208686400D01*
X202075707Y-183496293D02*
X200533000Y-185039000D01*
X202075707Y-172605788D02*
X202075707Y-183496293D01*
X200533000Y-206806800D02*
X199263000Y-208076800D01*
X200533000Y-185039000D02*
X200533000Y-206806800D01*
D21*
X197993000Y-212140800D02*
X197993000Y-207416400D01*
X199186800Y-215138000D02*
X199186800Y-213334600D01*
D20*
X199263000Y-184023000D02*
X199263000Y-206146400D01*
X201447400Y-181838600D02*
X199263000Y-184023000D01*
X201447400Y-173101000D02*
X201447400Y-181838600D01*
D21*
X199186800Y-213334600D02*
X197993000Y-212140800D01*
X197993000Y-207416400D02*
X199263000Y-206146400D01*
X173786800Y-211785200D02*
X172593000Y-210591400D01*
X172593000Y-210591400D02*
X172593000Y-207899000D01*
X173786800Y-215138000D02*
X173786800Y-211785200D01*
D20*
X173101000Y-184912000D02*
X173101000Y-191516000D01*
X173863000Y-192278000D02*
X173863000Y-206146400D01*
D21*
X172593000Y-207899000D02*
X173863000Y-206629000D01*
D20*
X170697600Y-182508600D02*
X173101000Y-184912000D01*
X173101000Y-191516000D02*
X173863000Y-192278000D01*
X170697600Y-173104044D02*
X170697600Y-182508600D01*
D21*
X173863000Y-206629000D02*
X173863000Y-206146400D01*
D20*
X202819000Y-198137865D02*
X203073000Y-198391865D01*
X203073000Y-198391865D02*
X203073000Y-206806800D01*
X203073000Y-206806800D02*
X201803000Y-208076800D01*
X201803000Y-208076800D02*
X201803000Y-208686400D01*
X203373188Y-191850812D02*
X202819000Y-192405000D01*
X203373188Y-173565869D02*
X203373188Y-191850812D01*
X202819000Y-192405000D02*
X202819000Y-198137865D01*
X170071707Y-183406707D02*
X172085000Y-185420000D01*
X170071707Y-172605788D02*
X170071707Y-183406707D01*
X172593000Y-206806800D02*
X171323000Y-208076800D01*
X172085000Y-185420000D02*
X172085000Y-191897000D01*
X172593000Y-192405000D02*
X172593000Y-206806800D01*
X172085000Y-191897000D02*
X172593000Y-192405000D01*
X171323000Y-208076800D02*
X171323000Y-208686400D01*
X211709000Y-178841400D02*
X211709000Y-197485000D01*
X210693000Y-206806800D02*
X209423000Y-208076800D01*
X209423000Y-208076800D02*
X209423000Y-208686400D01*
X210693000Y-198501000D02*
X210693000Y-206806800D01*
X211709000Y-197485000D02*
X210693000Y-198501000D01*
X217449400Y-173101000D02*
X211709000Y-178841400D01*
X188468000Y-197485000D02*
X187833000Y-198120000D01*
X187971188Y-189114188D02*
X188468000Y-189611000D01*
X188468000Y-189611000D02*
X188468000Y-197485000D01*
X187833000Y-198120000D02*
X187833000Y-206806800D01*
X187971188Y-174198515D02*
X187971188Y-189114188D01*
X186563000Y-208076800D02*
X186563000Y-208686400D01*
X187833000Y-206806800D02*
X186563000Y-208076800D01*
X222995229Y-173759755D02*
X222995229Y-183531771D01*
X222995229Y-183531771D02*
X222504000Y-184023000D01*
X222504000Y-184023000D02*
X222504000Y-205765400D01*
X222504000Y-205765400D02*
X219583000Y-208686400D01*
D21*
X184023000Y-206629000D02*
X184023000Y-206146400D01*
D20*
X186073707Y-172605788D02*
X186073707Y-183369293D01*
X186073707Y-183369293D02*
X184023000Y-185420000D01*
D21*
X186486800Y-215138000D02*
X186486800Y-213741000D01*
D20*
X184023000Y-185420000D02*
X184023000Y-206146400D01*
D21*
X186486800Y-213741000D02*
X182753000Y-210007200D01*
X182753000Y-207899000D02*
X184023000Y-206629000D01*
X182753000Y-210007200D02*
X182753000Y-207899000D01*
D20*
X171369188Y-181656188D02*
X174117000Y-184404000D01*
X174117000Y-184404000D02*
X174117000Y-190754000D01*
X175133000Y-206806800D02*
X173863000Y-208076800D01*
X171369188Y-173565869D02*
X171369188Y-181656188D01*
X173863000Y-208076800D02*
X173863000Y-208686400D01*
X174117000Y-190754000D02*
X175133000Y-191770000D01*
X175133000Y-191770000D02*
X175133000Y-206806800D01*
D21*
X175133000Y-210261200D02*
X175133000Y-207899000D01*
D20*
X176149000Y-191770000D02*
X176149000Y-197739000D01*
X176403000Y-185293000D02*
X176403000Y-191516000D01*
X176403000Y-197993000D02*
X176403000Y-206146400D01*
X171969188Y-174198515D02*
X171969188Y-180859188D01*
X176149000Y-197739000D02*
X176403000Y-197993000D01*
X171969188Y-180859188D02*
X176403000Y-185293000D01*
D21*
X175133000Y-207899000D02*
X176403000Y-206629000D01*
X176403000Y-206629000D02*
X176403000Y-206146400D01*
D20*
X176403000Y-191516000D02*
X176149000Y-191770000D01*
D21*
X176961800Y-212090000D02*
X175133000Y-210261200D01*
X176961800Y-215138000D02*
X176961800Y-212090000D01*
D20*
X185293000Y-206806800D02*
X184023000Y-208076800D01*
X184023000Y-208076800D02*
X184023000Y-208686400D01*
X185293000Y-191389000D02*
X185293000Y-206806800D01*
X186699600Y-173104044D02*
X186699600Y-189982400D01*
X186699600Y-189982400D02*
X185293000Y-191389000D01*
D21*
X215061800Y-213842600D02*
X210693000Y-209473800D01*
D20*
X213360000Y-178435000D02*
X213360000Y-197358000D01*
D21*
X210693000Y-209473800D02*
X210693000Y-207899000D01*
X215061800Y-215138000D02*
X215061800Y-213842600D01*
D20*
X213360000Y-197358000D02*
X211963000Y-198755000D01*
D21*
X210693000Y-207899000D02*
X211963000Y-206629000D01*
X211963000Y-206629000D02*
X211963000Y-206146400D01*
D20*
X218077707Y-172605788D02*
X218077707Y-173717293D01*
X211963000Y-198755000D02*
X211963000Y-206146400D01*
X218077707Y-173717293D02*
X213360000Y-178435000D01*
D21*
X171323000Y-206629000D02*
X171323000Y-206146400D01*
D20*
X171323000Y-198374000D02*
X171323000Y-206146400D01*
D21*
X170053000Y-207899000D02*
X171323000Y-206629000D01*
D20*
X169443400Y-173101000D02*
X169037000Y-173507400D01*
X169037000Y-196088000D02*
X171323000Y-198374000D01*
X169037000Y-173507400D02*
X169037000Y-196088000D01*
D21*
X170611800Y-210540600D02*
X170053000Y-209981800D01*
X170611800Y-215138000D02*
X170611800Y-210540600D01*
X170053000Y-209981800D02*
X170053000Y-207899000D01*
D20*
X192405000Y-191053636D02*
X191643000Y-191815636D01*
D21*
X191643000Y-206629000D02*
X191643000Y-206146400D01*
D20*
X189774572Y-173717432D02*
X192405000Y-176347860D01*
D21*
X190373000Y-209499200D02*
X190373000Y-207899000D01*
X190373000Y-207899000D02*
X191643000Y-206629000D01*
D20*
X191643000Y-191815636D02*
X191643000Y-206146400D01*
X192405000Y-176347860D02*
X192405000Y-191053636D01*
D21*
X196011800Y-215138000D02*
X190373000Y-209499200D01*
D20*
X213233000Y-206806800D02*
X211963000Y-208076800D01*
X215392000Y-197231000D02*
X213233000Y-199390000D01*
X211963000Y-208076800D02*
X211963000Y-208686400D01*
X217170000Y-178054000D02*
X215392000Y-179832000D01*
X218703600Y-174361400D02*
X217170000Y-175895000D01*
X218703600Y-173104044D02*
X218703600Y-174361400D01*
X217170000Y-175895000D02*
X217170000Y-178054000D01*
X215392000Y-179832000D02*
X215392000Y-197231000D01*
X213233000Y-199390000D02*
X213233000Y-206806800D01*
D21*
X218313000Y-207899000D02*
X219583000Y-206629000D01*
D20*
X221615000Y-182753000D02*
X221615000Y-198755000D01*
X221778572Y-173717432D02*
X221778572Y-176312572D01*
X221615000Y-198755000D02*
X219583000Y-200787000D01*
D21*
X220548200Y-211099400D02*
X219456000Y-211099400D01*
D20*
X221778572Y-176312572D02*
X222123000Y-176657000D01*
D21*
X219456000Y-211099400D02*
X218313000Y-209956400D01*
X224586800Y-215138000D02*
X220548200Y-211099400D01*
X218313000Y-209956400D02*
X218313000Y-207899000D01*
D20*
X222123000Y-176657000D02*
X222123000Y-182245000D01*
X222123000Y-182245000D02*
X221615000Y-182753000D01*
X219583000Y-200787000D02*
X219583000Y-206146400D01*
D21*
X219583000Y-206629000D02*
X219583000Y-206146400D01*
X202361800Y-212775800D02*
X200533000Y-210947000D01*
D20*
X201803000Y-191897000D02*
X201803000Y-206146400D01*
D21*
X200533000Y-210947000D02*
X200533000Y-207899000D01*
X200533000Y-207899000D02*
X201803000Y-206629000D01*
D20*
X202701600Y-190998400D02*
X201803000Y-191897000D01*
D21*
X202361800Y-215138000D02*
X202361800Y-212775800D01*
D20*
X202701600Y-173104044D02*
X202701600Y-190998400D01*
D21*
X201803000Y-206629000D02*
X201803000Y-206146400D01*
D20*
X208153000Y-206806800D02*
X206883000Y-208076800D01*
X208153000Y-176093860D02*
X208153000Y-206806800D01*
X206883000Y-208076800D02*
X206883000Y-208686400D01*
X205776572Y-173717432D02*
X208153000Y-176093860D01*
D21*
X189661800Y-215138000D02*
X189661800Y-213995000D01*
D20*
X187371188Y-191596812D02*
X186563000Y-192405000D01*
D21*
X189661800Y-213995000D02*
X185293000Y-209626200D01*
X185293000Y-207899000D02*
X186563000Y-206629000D01*
X186563000Y-206629000D02*
X186563000Y-206146400D01*
X185293000Y-209626200D02*
X185293000Y-207899000D01*
D20*
X187371188Y-173565869D02*
X187371188Y-191596812D01*
X186563000Y-192405000D02*
X186563000Y-206146400D01*
X185445400Y-173101000D02*
X185445400Y-181711600D01*
X185445400Y-181711600D02*
X183007000Y-184150000D01*
X181483000Y-208076800D02*
X181483000Y-208686400D01*
X182753000Y-206806800D02*
X181483000Y-208076800D01*
X182753000Y-197866000D02*
X182753000Y-206806800D01*
X183007000Y-184150000D02*
X183007000Y-197612000D01*
X183007000Y-197612000D02*
X182753000Y-197866000D01*
X178943000Y-208076800D02*
X178943000Y-208686400D01*
X179705000Y-189992000D02*
X180213000Y-190500000D01*
X180213000Y-190500000D02*
X180213000Y-206806800D01*
X173772572Y-174534572D02*
X179705000Y-180467000D01*
X180213000Y-206806800D02*
X178943000Y-208076800D01*
X173772572Y-173717432D02*
X173772572Y-174534572D01*
X179705000Y-180467000D02*
X179705000Y-189992000D01*
D21*
X180213000Y-210464400D02*
X180213000Y-207899000D01*
D20*
X174989229Y-173759755D02*
X174989229Y-174735229D01*
D21*
X183311800Y-213563200D02*
X180213000Y-210464400D01*
D20*
X174989229Y-174735229D02*
X181483000Y-181229000D01*
D21*
X183311800Y-215138000D02*
X183311800Y-213563200D01*
D20*
X181483000Y-181229000D02*
X181483000Y-206146400D01*
D21*
X181483000Y-206629000D02*
X181483000Y-206146400D01*
X180213000Y-207899000D02*
X181483000Y-206629000D01*
D20*
X190991229Y-173759755D02*
X193802000Y-176570526D01*
X193802000Y-176570526D02*
X193802000Y-197358000D01*
X192913000Y-207416400D02*
X191643000Y-208686400D01*
X192913000Y-198247000D02*
X192913000Y-207416400D01*
X193802000Y-197358000D02*
X192913000Y-198247000D01*
X217805000Y-197866000D02*
X215773000Y-199898000D01*
X217805000Y-191135000D02*
X217805000Y-197866000D01*
X219075000Y-176657000D02*
X219075000Y-189865000D01*
X215773000Y-206806800D02*
X214503000Y-208076800D01*
X214503000Y-208076800D02*
X214503000Y-208686400D01*
X219075000Y-189865000D02*
X217805000Y-191135000D01*
X215773000Y-199898000D02*
X215773000Y-206806800D01*
X219975188Y-175756812D02*
X219075000Y-176657000D01*
X219975188Y-174198515D02*
X219975188Y-175756812D01*
X214503000Y-199644000D02*
X214503000Y-206146400D01*
D21*
X213233000Y-207899000D02*
X214503000Y-206629000D01*
D20*
X219375188Y-173565869D02*
X219375188Y-174959812D01*
D21*
X213233000Y-210159600D02*
X213233000Y-207899000D01*
X214503000Y-206629000D02*
X214503000Y-206146400D01*
D20*
X219375188Y-174959812D02*
X218059000Y-176276000D01*
D21*
X218236800Y-215138000D02*
X218211400Y-215138000D01*
D20*
X218059000Y-181229000D02*
X216789000Y-182499000D01*
X216789000Y-182499000D02*
X216789000Y-197358000D01*
D21*
X218211400Y-215138000D02*
X213233000Y-210159600D01*
D20*
X218059000Y-176276000D02*
X218059000Y-181229000D01*
X216789000Y-197358000D02*
X214503000Y-199644000D01*
D21*
X211886800Y-215138000D02*
X211886800Y-213741000D01*
X209423000Y-206629000D02*
X209423000Y-206146400D01*
D20*
X206993229Y-173759755D02*
X209931000Y-176697526D01*
D21*
X208153000Y-207899000D02*
X209423000Y-206629000D01*
D20*
X209931000Y-176697526D02*
X209931000Y-197612000D01*
D21*
X208153000Y-210007200D02*
X208153000Y-207899000D01*
X211886800Y-213741000D02*
X208153000Y-210007200D01*
D20*
X209931000Y-197612000D02*
X209423000Y-198120000D01*
X209423000Y-198120000D02*
X209423000Y-206146400D01*
X203973188Y-191654188D02*
X204343000Y-192024000D01*
D21*
X205536800Y-213106000D02*
X203073000Y-210642200D01*
X203073000Y-207899000D02*
X204343000Y-206629000D01*
X204343000Y-206629000D02*
X204343000Y-206146400D01*
X205536800Y-215138000D02*
X205536800Y-213106000D01*
D20*
X204343000Y-192024000D02*
X204343000Y-206146400D01*
X203973188Y-174198515D02*
X203973188Y-191654188D01*
D21*
X203073000Y-210642200D02*
X203073000Y-207899000D01*
D20*
X120777000Y-184277000D02*
X123363188Y-181690812D01*
X120777000Y-206146400D02*
X120777000Y-184277000D01*
D21*
X120777000Y-206629000D02*
X120777000Y-206146400D01*
D20*
X123363188Y-181690812D02*
X123363188Y-173565869D01*
D21*
X119507000Y-207899000D02*
X120777000Y-206629000D01*
X119811800Y-215138000D02*
X119507000Y-214833200D01*
X119507000Y-214833200D02*
X119507000Y-207899000D01*
X106807000Y-207899000D02*
X108077000Y-206629000D01*
D20*
X106689600Y-173104044D02*
X106689600Y-182508600D01*
D21*
X103936800Y-212826600D02*
X106807000Y-209956400D01*
X108077000Y-206629000D02*
X108077000Y-206146400D01*
D20*
X108585000Y-184404000D02*
X108585000Y-197485000D01*
D21*
X103936800Y-215138000D02*
X103936800Y-212826600D01*
D20*
X108585000Y-197485000D02*
X108077000Y-197993000D01*
X106689600Y-182508600D02*
X108585000Y-184404000D01*
D21*
X106807000Y-209956400D02*
X106807000Y-207899000D01*
D20*
X108077000Y-197993000D02*
X108077000Y-206146400D01*
X134747000Y-198374000D02*
X134747000Y-206806800D01*
X138067707Y-183496293D02*
X135382000Y-186182000D01*
X138067707Y-172605788D02*
X138067707Y-183496293D01*
X133477000Y-208076800D02*
X133477000Y-208686400D01*
X135382000Y-197739000D02*
X134747000Y-198374000D01*
X134747000Y-206806800D02*
X133477000Y-208076800D01*
X135382000Y-186182000D02*
X135382000Y-197739000D01*
X143637000Y-206146400D02*
X143637000Y-191008000D01*
X144145000Y-174919526D02*
X142985229Y-173759755D01*
D21*
X142367000Y-207899000D02*
X143637000Y-206629000D01*
D20*
X144145000Y-190500000D02*
X144145000Y-174919526D01*
D21*
X143637000Y-206629000D02*
X143637000Y-206146400D01*
X142367000Y-214807800D02*
X142367000Y-207899000D01*
X142036800Y-215138000D02*
X142367000Y-214807800D01*
D20*
X143637000Y-191008000D02*
X144145000Y-190500000D01*
X109347000Y-206806800D02*
X108077000Y-208076800D01*
X109347000Y-206806800D02*
X109347000Y-183642000D01*
X108077000Y-208076800D02*
X108077000Y-208686400D01*
X107361188Y-181656188D02*
X107361188Y-173565869D01*
X109347000Y-183642000D02*
X107361188Y-181656188D01*
X149987000Y-206806800D02*
X148717000Y-208076800D01*
X148717000Y-208076800D02*
X148717000Y-208686400D01*
X149987000Y-201168000D02*
X149987000Y-206806800D01*
X155067000Y-176657000D02*
X155067000Y-181991000D01*
X152527000Y-198628000D02*
X149987000Y-201168000D01*
X155067000Y-181991000D02*
X152527000Y-184531000D01*
X155967188Y-174198515D02*
X155967188Y-175756812D01*
X155967188Y-175756812D02*
X155067000Y-176657000D01*
X152527000Y-184531000D02*
X152527000Y-198628000D01*
X105029000Y-173507400D02*
X105029000Y-189484000D01*
D21*
X100761800Y-210921600D02*
X105537000Y-206146400D01*
D20*
X105029000Y-189484000D02*
X105537000Y-189992000D01*
D21*
X100761800Y-215138000D02*
X100761800Y-210921600D01*
D20*
X105537000Y-189992000D02*
X105537000Y-206146400D01*
X105435400Y-173101000D02*
X105029000Y-173507400D01*
X110617000Y-206146400D02*
X110617000Y-189992000D01*
X110617000Y-189992000D02*
X110236000Y-189611000D01*
X110236000Y-189611000D02*
X110236000Y-183134000D01*
X110236000Y-183134000D02*
X107961188Y-180859188D01*
D21*
X110617000Y-206629000D02*
X110617000Y-206146400D01*
X109347000Y-207899000D02*
X110617000Y-206629000D01*
X107111800Y-215138000D02*
X107111800Y-212191600D01*
X107111800Y-212191600D02*
X109347000Y-209956400D01*
D20*
X107961188Y-180859188D02*
X107961188Y-174198515D01*
D21*
X109347000Y-209956400D02*
X109347000Y-207899000D01*
D20*
X127000000Y-190500000D02*
X128016000Y-189484000D01*
D21*
X124587000Y-210566000D02*
X124587000Y-207899000D01*
X124587000Y-207899000D02*
X125857000Y-206629000D01*
D20*
X125857000Y-199136000D02*
X127000000Y-197993000D01*
X125857000Y-206146400D02*
X125857000Y-199136000D01*
D21*
X126161800Y-215138000D02*
X126161800Y-212140800D01*
D20*
X128016000Y-175966860D02*
X125766572Y-173717432D01*
D21*
X125857000Y-206629000D02*
X125857000Y-206146400D01*
D20*
X127000000Y-197993000D02*
X127000000Y-190500000D01*
D21*
X126161800Y-212140800D02*
X124587000Y-210566000D01*
D20*
X128016000Y-189484000D02*
X128016000Y-175966860D01*
D21*
X145211800Y-215138000D02*
X144907000Y-214833200D01*
D20*
X146177000Y-206146400D02*
X146177000Y-198755000D01*
X147574000Y-197358000D02*
X147574000Y-180213000D01*
D21*
X144907000Y-214833200D02*
X144907000Y-207899000D01*
X144907000Y-207899000D02*
X146177000Y-206629000D01*
X146177000Y-206629000D02*
X146177000Y-206146400D01*
D20*
X154069707Y-173717293D02*
X154069707Y-172605788D01*
X147574000Y-180213000D02*
X154069707Y-173717293D01*
X146177000Y-198755000D02*
X147574000Y-197358000D01*
X147447000Y-206806800D02*
X147447000Y-198843527D01*
X153162000Y-177673000D02*
X153162000Y-175895000D01*
X149479000Y-196811527D02*
X149479000Y-181356000D01*
X147447000Y-198843527D02*
X149479000Y-196811527D01*
X153162000Y-175895000D02*
X154695600Y-174361400D01*
X147447000Y-206806800D02*
X146177000Y-208076800D01*
X154695600Y-174361400D02*
X154695600Y-173104044D01*
X149479000Y-181356000D02*
X153162000Y-177673000D01*
X146177000Y-208076800D02*
X146177000Y-208686400D01*
D21*
X137287000Y-209956400D02*
X137287000Y-207899000D01*
X137287000Y-207899000D02*
X138557000Y-206629000D01*
D20*
X138557000Y-206146400D02*
X138557000Y-193062376D01*
D21*
X135686800Y-211556600D02*
X137287000Y-209956400D01*
X138557000Y-206629000D02*
X138557000Y-206146400D01*
X135686800Y-215138000D02*
X135686800Y-211556600D01*
D20*
X138557000Y-193062376D02*
X139965188Y-191654188D01*
X139965188Y-191654188D02*
X139965188Y-174198515D01*
X158987229Y-173759755D02*
X158987229Y-183531771D01*
X158496000Y-184023000D02*
X158496000Y-200533000D01*
X158496000Y-200533000D02*
X155702000Y-203327000D01*
X155702000Y-206781400D02*
X153797000Y-208686400D01*
X158987229Y-183531771D02*
X158496000Y-184023000D01*
X155702000Y-203327000D02*
X155702000Y-206781400D01*
X106063707Y-172605788D02*
X106063707Y-183406707D01*
X105537000Y-208076800D02*
X105537000Y-208686400D01*
X106807000Y-206806800D02*
X105537000Y-208076800D01*
X106063707Y-183406707D02*
X106807000Y-184150000D01*
X106807000Y-184150000D02*
X106807000Y-206806800D01*
X125857000Y-208686400D02*
X127127000Y-207416400D01*
X127127000Y-199136000D02*
X127889000Y-198374000D01*
X127127000Y-207416400D02*
X127127000Y-199136000D01*
X128778000Y-191104435D02*
X128778000Y-175554526D01*
X128778000Y-175554526D02*
X126983229Y-173759755D01*
X127889000Y-198374000D02*
X127889000Y-191993435D01*
X127889000Y-191993435D02*
X128778000Y-191104435D01*
D21*
X147447000Y-207899000D02*
X148717000Y-206629000D01*
X148717000Y-206629000D02*
X148717000Y-206146400D01*
D20*
X155367188Y-173565869D02*
X155367188Y-174959812D01*
X154051000Y-176276000D02*
X154051000Y-181102000D01*
D21*
X148386800Y-215138000D02*
X148386800Y-211632800D01*
D20*
X148717000Y-200279000D02*
X148717000Y-206146400D01*
D21*
X148386800Y-211632800D02*
X147447000Y-210693000D01*
D20*
X151511000Y-197485000D02*
X148717000Y-200279000D01*
X151511000Y-183642000D02*
X151511000Y-197485000D01*
X155367188Y-174959812D02*
X154051000Y-176276000D01*
D21*
X147447000Y-210693000D02*
X147447000Y-207899000D01*
D20*
X154051000Y-181102000D02*
X151511000Y-183642000D01*
X120015000Y-198247000D02*
X120015000Y-183388000D01*
X122691600Y-180711400D02*
X122691600Y-173104044D01*
X119507000Y-198755000D02*
X120015000Y-198247000D01*
X119507000Y-206806800D02*
X118237000Y-208076800D01*
X120015000Y-183388000D02*
X122691600Y-180711400D01*
X118237000Y-208076800D02*
X118237000Y-208686400D01*
X119507000Y-206806800D02*
X119507000Y-198755000D01*
X141097000Y-208076800D02*
X141097000Y-208686400D01*
X142367000Y-206806800D02*
X142367000Y-183052636D01*
X142621000Y-174569860D02*
X141768572Y-173717432D01*
X142621000Y-182798636D02*
X142621000Y-174569860D01*
X142367000Y-183052636D02*
X142621000Y-182798636D01*
X142367000Y-206806800D02*
X141097000Y-208076800D01*
X111887000Y-176784000D02*
X111887000Y-179959000D01*
X111887000Y-179959000D02*
X114427000Y-182499000D01*
X109764572Y-174661572D02*
X111887000Y-176784000D01*
X114427000Y-206806800D02*
X113157000Y-208076800D01*
X114427000Y-182499000D02*
X114427000Y-206806800D01*
X109764572Y-173717432D02*
X109764572Y-174661572D01*
X113157000Y-208076800D02*
X113157000Y-208686400D01*
D21*
X113461800Y-210921600D02*
X114427000Y-209956400D01*
X113461800Y-215138000D02*
X113461800Y-210921600D01*
D20*
X110981229Y-174735229D02*
X110981229Y-173759755D01*
D21*
X114427000Y-207899000D02*
X115697000Y-206629000D01*
D20*
X115697000Y-206146400D02*
X115697000Y-179451000D01*
D21*
X115697000Y-206629000D02*
X115697000Y-206146400D01*
D20*
X115697000Y-179451000D02*
X110981229Y-174735229D01*
D21*
X114427000Y-209956400D02*
X114427000Y-207899000D01*
D20*
X157607000Y-182753000D02*
X157607000Y-199390000D01*
D21*
X154736800Y-212572600D02*
X152527000Y-210362800D01*
X153797000Y-206629000D02*
X153797000Y-206146400D01*
X154736800Y-215138000D02*
X154736800Y-212572600D01*
D20*
X153797000Y-203200000D02*
X153797000Y-206146400D01*
D21*
X152527000Y-210362800D02*
X152527000Y-207899000D01*
D20*
X157770572Y-173717432D02*
X157770572Y-176312572D01*
X158115000Y-176657000D02*
X158115000Y-182245000D01*
X157607000Y-199390000D02*
X153797000Y-203200000D01*
X158115000Y-182245000D02*
X157607000Y-182753000D01*
D21*
X152527000Y-207899000D02*
X153797000Y-206629000D01*
D20*
X157770572Y-176312572D02*
X158115000Y-176657000D01*
X122065707Y-173844293D02*
X122065707Y-172605788D01*
X118237000Y-206146400D02*
X118237000Y-198374000D01*
X119126000Y-176784000D02*
X122065707Y-173844293D01*
X118237000Y-198374000D02*
X119126000Y-197485000D01*
D21*
X118237000Y-206629000D02*
X118237000Y-206146400D01*
X116967000Y-214807800D02*
X116967000Y-207899000D01*
X116636800Y-215138000D02*
X116967000Y-214807800D01*
X116967000Y-207899000D02*
X118237000Y-206629000D01*
D20*
X119126000Y-197485000D02*
X119126000Y-176784000D01*
X122047000Y-206806800D02*
X122047000Y-191389000D01*
X123963188Y-189472812D02*
X123963188Y-174198515D01*
X122047000Y-206806800D02*
X120777000Y-208076800D01*
X122047000Y-191389000D02*
X123963188Y-189472812D01*
X120777000Y-208076800D02*
X120777000Y-208686400D01*
X137439400Y-182283100D02*
X133477000Y-186245500D01*
D21*
X129336800Y-215138000D02*
X129336800Y-212826600D01*
D20*
X133477000Y-186245500D02*
X133477000Y-206146400D01*
D21*
X132207000Y-209956400D02*
X132207000Y-207416400D01*
D20*
X137439400Y-173101000D02*
X137439400Y-182283100D01*
D21*
X132207000Y-207416400D02*
X133477000Y-206146400D01*
X129336800Y-212826600D02*
X132207000Y-209956400D01*
D20*
X145923000Y-180619400D02*
X153441400Y-173101000D01*
X144907000Y-206806800D02*
X143637000Y-208076800D01*
X144907000Y-206806800D02*
X144907000Y-198755000D01*
X144907000Y-198755000D02*
X145923000Y-197739000D01*
X145923000Y-197739000D02*
X145923000Y-180619400D01*
X143637000Y-208076800D02*
X143637000Y-208686400D01*
X115697000Y-208076800D02*
X115697000Y-208686400D01*
X117475000Y-177063400D02*
X121437400Y-173101000D01*
X117475000Y-190500000D02*
X117475000Y-177063400D01*
X116967000Y-206806800D02*
X116967000Y-191008000D01*
X116967000Y-191008000D02*
X117475000Y-190500000D01*
X116967000Y-206806800D02*
X115697000Y-208076800D01*
X137287000Y-206806800D02*
X137287000Y-192659000D01*
X139365188Y-190580812D02*
X139365188Y-173565869D01*
X137287000Y-206806800D02*
X136017000Y-208076800D01*
X136017000Y-208076800D02*
X136017000Y-208686400D01*
X137287000Y-192659000D02*
X139365188Y-190580812D01*
D21*
X132511800Y-215138000D02*
X132511800Y-212191600D01*
X134747000Y-207899000D02*
X136017000Y-206629000D01*
X136017000Y-206629000D02*
X136017000Y-206146400D01*
D20*
X136017000Y-192659000D02*
X136017000Y-206146400D01*
X138693600Y-173104044D02*
X138693600Y-189982400D01*
D21*
X134747000Y-209956400D02*
X134747000Y-207899000D01*
D20*
X138693600Y-189982400D02*
X136017000Y-192659000D01*
D21*
X132511800Y-212191600D02*
X134747000Y-209956400D01*
D20*
X222923100Y-166204900D02*
X222923100Y-164630100D01*
X222605600Y-166522400D02*
X222923100Y-166204900D01*
X208635600Y-170205400D02*
X207289400Y-168859200D01*
X207289400Y-168859200D02*
X207289400Y-167005000D01*
X209550000Y-170205400D02*
X208635600Y-170205400D01*
X208000600Y-166293800D02*
X208000600Y-164769800D01*
X207289400Y-167005000D02*
X208000600Y-166293800D01*
X206921100Y-166204900D02*
X206921100Y-164630100D01*
X206603600Y-166522400D02*
X206921100Y-166204900D01*
X191287400Y-167005000D02*
X191998600Y-166293800D01*
X191287400Y-168859200D02*
X191287400Y-167005000D01*
X192633600Y-170205400D02*
X191287400Y-168859200D01*
X191998600Y-166293800D02*
X191998600Y-164769800D01*
X193548000Y-170205400D02*
X192633600Y-170205400D01*
X190601600Y-166522400D02*
X190919100Y-166204900D01*
X190919100Y-166204900D02*
X190919100Y-164630100D01*
X176631600Y-170205400D02*
X175285400Y-168859200D01*
X177546000Y-170205400D02*
X176631600Y-170205400D01*
X175285400Y-168859200D02*
X175285400Y-167005000D01*
X175996600Y-166293800D02*
X175996600Y-164769800D01*
X175285400Y-167005000D02*
X175996600Y-166293800D01*
X174917100Y-166204900D02*
X174917100Y-164630100D01*
X174599600Y-166522400D02*
X174917100Y-166204900D01*
X159283400Y-168859200D02*
X159283400Y-167005000D01*
X159283400Y-167005000D02*
X159994600Y-166293800D01*
X161544000Y-170205400D02*
X160629600Y-170205400D01*
X160629600Y-170205400D02*
X159283400Y-168859200D01*
X159994600Y-166293800D02*
X159994600Y-164769800D01*
X143992600Y-166293800D02*
X143992600Y-164769800D01*
X143281400Y-167005000D02*
X143992600Y-166293800D01*
X145542000Y-170205400D02*
X144627600Y-170205400D01*
X143281400Y-168859200D02*
X143281400Y-167005000D01*
X144627600Y-170205400D02*
X143281400Y-168859200D01*
X142913100Y-166204900D02*
X142913100Y-164630100D01*
X142595600Y-166522400D02*
X142913100Y-166204900D01*
X127279400Y-167005000D02*
X127990600Y-166293800D01*
X127990600Y-166293800D02*
X127990600Y-164769800D01*
X128625600Y-170205400D02*
X127279400Y-168859200D01*
X127279400Y-168859200D02*
X127279400Y-167005000D01*
X129540000Y-170205400D02*
X128625600Y-170205400D01*
X126911100Y-166204900D02*
X126911100Y-164630100D01*
X126593600Y-166522400D02*
X126911100Y-166204900D01*
X110591600Y-166522400D02*
X110909100Y-166204900D01*
X110909100Y-166204900D02*
X110909100Y-164630100D01*
X158915100Y-166204900D02*
X158915100Y-164630100D01*
X158597600Y-166522400D02*
X158915100Y-166204900D01*
X225552000Y-170205400D02*
X224637600Y-170205400D01*
X224002600Y-164058600D02*
X224002600Y-164769800D01*
X221970600Y-153339800D02*
X221970600Y-162026600D01*
X220802200Y-152171400D02*
X221970600Y-153339800D01*
X223291400Y-167005000D02*
X224002600Y-166293800D01*
X221970600Y-162026600D02*
X224002600Y-164058600D01*
X223291400Y-168859200D02*
X223291400Y-167005000D01*
X224002600Y-166293800D02*
X224002600Y-164769800D01*
X224637600Y-170205400D02*
X223291400Y-168859200D01*
X112623600Y-170205400D02*
X111277400Y-168859200D01*
X111277400Y-168859200D02*
X111277400Y-167005000D01*
X113538000Y-170205400D02*
X112623600Y-170205400D01*
X111988600Y-166293800D02*
X111988600Y-164769800D01*
X111277400Y-167005000D02*
X111988600Y-166293800D01*
X221183200Y-165328600D02*
X219506800Y-167005000D01*
X219506800Y-167005000D02*
X218821000Y-167005000D01*
X205181200Y-165328600D02*
X203504800Y-167005000D01*
X203504800Y-167005000D02*
X202819000Y-167005000D01*
X187502800Y-167005000D02*
X186817000Y-167005000D01*
X189179200Y-165328600D02*
X187502800Y-167005000D01*
X173177200Y-165328600D02*
X171500800Y-167005000D01*
X171500800Y-167005000D02*
X170815000Y-167005000D01*
X155498800Y-167005000D02*
X154813000Y-167005000D01*
X157175200Y-165328600D02*
X155498800Y-167005000D01*
X141173200Y-165328600D02*
X139496800Y-167005000D01*
X139496800Y-167005000D02*
X138811000Y-167005000D01*
X123494800Y-167005000D02*
X122809000Y-167005000D01*
X125171200Y-165328600D02*
X123494800Y-167005000D01*
X109169200Y-165328600D02*
X107492800Y-167005000D01*
X107492800Y-167005000D02*
X106807000Y-167005000D01*
M02*
