G04 #@! TF.GenerationSoftware,KiCad,Pcbnew,8.0.4-rc2*
G04 #@! TF.CreationDate,2024-08-04T20:31:53-05:00*
G04 #@! TF.ProjectId,backplane_tracer_v5,6261636b-706c-4616-9e65-5f7472616365,rev?*
G04 #@! TF.SameCoordinates,Original*
G04 #@! TF.FileFunction,Soldermask,Top*
G04 #@! TF.FilePolarity,Negative*
%FSLAX46Y46*%
G04 Gerber Fmt 4.6, Leading zero omitted, Abs format (unit mm)*
G04 Created by KiCad (PCBNEW 8.0.4-rc2) date 2024-08-04 20:31:53*
%MOMM*%
%LPD*%
G01*
G04 APERTURE LIST*
G04 Aperture macros list*
%AMRoundRect*
0 Rectangle with rounded corners*
0 $1 Rounding radius*
0 $2 $3 $4 $5 $6 $7 $8 $9 X,Y pos of 4 corners*
0 Add a 4 corners polygon primitive as box body*
4,1,4,$2,$3,$4,$5,$6,$7,$8,$9,$2,$3,0*
0 Add four circle primitives for the rounded corners*
1,1,$1+$1,$2,$3*
1,1,$1+$1,$4,$5*
1,1,$1+$1,$6,$7*
1,1,$1+$1,$8,$9*
0 Add four rect primitives between the rounded corners*
20,1,$1+$1,$2,$3,$4,$5,0*
20,1,$1+$1,$4,$5,$6,$7,0*
20,1,$1+$1,$6,$7,$8,$9,0*
20,1,$1+$1,$8,$9,$2,$3,0*%
%AMFreePoly0*
4,1,9,3.862500,-0.866500,0.737500,-0.866500,0.737500,-0.450000,-0.737500,-0.450000,-0.737500,0.450000,0.737500,0.450000,0.737500,0.866500,3.862500,0.866500,3.862500,-0.866500,3.862500,-0.866500,$1*%
G04 Aperture macros list end*
%ADD10RoundRect,0.150000X-0.150000X0.587500X-0.150000X-0.587500X0.150000X-0.587500X0.150000X0.587500X0*%
%ADD11RoundRect,0.225000X0.250000X-0.225000X0.250000X0.225000X-0.250000X0.225000X-0.250000X-0.225000X0*%
%ADD12RoundRect,0.150000X-0.850000X-0.150000X0.850000X-0.150000X0.850000X0.150000X-0.850000X0.150000X0*%
%ADD13C,0.800000*%
%ADD14C,7.400000*%
%ADD15C,1.300000*%
%ADD16RoundRect,0.225000X0.225000X0.250000X-0.225000X0.250000X-0.225000X-0.250000X0.225000X-0.250000X0*%
%ADD17RoundRect,0.218750X-0.218750X-0.256250X0.218750X-0.256250X0.218750X0.256250X-0.218750X0.256250X0*%
%ADD18R,0.500000X0.800000*%
%ADD19R,0.400000X0.800000*%
%ADD20RoundRect,0.062500X-0.337500X-0.062500X0.337500X-0.062500X0.337500X0.062500X-0.337500X0.062500X0*%
%ADD21RoundRect,0.062500X-0.062500X-0.337500X0.062500X-0.337500X0.062500X0.337500X-0.062500X0.337500X0*%
%ADD22R,3.600000X3.600000*%
%ADD23RoundRect,0.225000X-0.250000X0.225000X-0.250000X-0.225000X0.250000X-0.225000X0.250000X0.225000X0*%
%ADD24R,1.700000X1.700000*%
%ADD25O,1.700000X1.700000*%
%ADD26R,2.032000X13.208000*%
%ADD27RoundRect,0.225000X0.225000X-0.425000X0.225000X0.425000X-0.225000X0.425000X-0.225000X-0.425000X0*%
%ADD28FreePoly0,90.000000*%
%ADD29C,2.400000*%
%ADD30C,2.800000*%
%ADD31C,1.850000*%
%ADD32RoundRect,0.225000X-0.225000X-0.250000X0.225000X-0.250000X0.225000X0.250000X-0.225000X0.250000X0*%
%ADD33RoundRect,0.250000X0.600000X-0.600000X0.600000X0.600000X-0.600000X0.600000X-0.600000X-0.600000X0*%
%ADD34C,1.700000*%
G04 APERTURE END LIST*
D10*
X127315000Y-178538900D03*
X125415000Y-178538900D03*
X126365000Y-180413900D03*
X120203000Y-194286900D03*
X118303000Y-194286900D03*
X119253000Y-196161900D03*
X201991000Y-182475900D03*
X200091000Y-182475900D03*
X201041000Y-184350900D03*
D11*
X194081400Y-160541000D03*
X194081400Y-158991000D03*
D12*
X154929200Y-154686000D03*
X154929200Y-155956000D03*
X154929200Y-157226000D03*
X154929200Y-158496000D03*
X154929200Y-159766000D03*
X154929200Y-161036000D03*
X154929200Y-162306000D03*
X154929200Y-163576000D03*
X159929200Y-163576000D03*
X159929200Y-162306000D03*
X159929200Y-161036000D03*
X159929200Y-159766000D03*
X159929200Y-158496000D03*
X159929200Y-157226000D03*
X159929200Y-155956000D03*
X159929200Y-154686000D03*
D13*
X150082200Y-141249400D03*
X150894979Y-139287179D03*
X150894979Y-143211621D03*
X152857200Y-138474400D03*
D14*
X152857200Y-141249400D03*
D13*
X152857200Y-144024400D03*
X154819421Y-139287179D03*
X154819421Y-143211621D03*
X155632200Y-141249400D03*
D10*
X194879000Y-194286900D03*
X192979000Y-194286900D03*
X193929000Y-196161900D03*
X139761000Y-186412900D03*
X137861000Y-186412900D03*
X138811000Y-188287900D03*
X107757000Y-186412900D03*
X105857000Y-186412900D03*
X106807000Y-188287900D03*
X113091000Y-186412900D03*
X111191000Y-186412900D03*
X112141000Y-188287900D03*
D15*
X226110800Y-207492600D03*
D10*
X145095000Y-190349900D03*
X143195000Y-190349900D03*
X144145000Y-192224900D03*
X164653000Y-182475900D03*
X162753000Y-182475900D03*
X163703000Y-184350900D03*
D16*
X170511000Y-150312400D03*
X168961000Y-150312400D03*
D10*
X155763000Y-190349900D03*
X153863000Y-190349900D03*
X154813000Y-192224900D03*
X185989000Y-178538900D03*
X184089000Y-178538900D03*
X185039000Y-180413900D03*
D17*
X182346400Y-141859000D03*
X183921400Y-141859000D03*
D11*
X178079400Y-160541000D03*
X178079400Y-158991000D03*
D17*
X179044400Y-141859000D03*
X180619400Y-141859000D03*
D18*
X179470100Y-147051600D03*
D19*
X180270100Y-147051600D03*
X181070100Y-147051600D03*
D18*
X181870100Y-147051600D03*
X181870100Y-145251600D03*
D19*
X181070100Y-145251600D03*
X180270100Y-145251600D03*
D18*
X179470100Y-145251600D03*
D20*
X154598200Y-168176000D03*
X154598200Y-168676000D03*
X154598200Y-169176000D03*
X154598200Y-169676000D03*
X154598200Y-170176000D03*
X154598200Y-170676000D03*
X154598200Y-171176000D03*
X154598200Y-171676000D03*
D21*
X155298200Y-172376000D03*
X155798200Y-172376000D03*
X156298200Y-172376000D03*
X156798200Y-172376000D03*
X157298200Y-172376000D03*
X157798200Y-172376000D03*
X158298200Y-172376000D03*
X158798200Y-172376000D03*
D20*
X159498200Y-171676000D03*
X159498200Y-171176000D03*
X159498200Y-170676000D03*
X159498200Y-170176000D03*
X159498200Y-169676000D03*
X159498200Y-169176000D03*
X159498200Y-168676000D03*
X159498200Y-168176000D03*
D21*
X158798200Y-167476000D03*
X158298200Y-167476000D03*
X157798200Y-167476000D03*
X157298200Y-167476000D03*
X156798200Y-167476000D03*
X156298200Y-167476000D03*
X155798200Y-167476000D03*
X155298200Y-167476000D03*
D22*
X157048200Y-169926000D03*
D17*
X172440400Y-140081000D03*
X174015400Y-140081000D03*
D20*
X106592200Y-168176000D03*
X106592200Y-168676000D03*
X106592200Y-169176000D03*
X106592200Y-169676000D03*
X106592200Y-170176000D03*
X106592200Y-170676000D03*
X106592200Y-171176000D03*
X106592200Y-171676000D03*
D21*
X107292200Y-172376000D03*
X107792200Y-172376000D03*
X108292200Y-172376000D03*
X108792200Y-172376000D03*
X109292200Y-172376000D03*
X109792200Y-172376000D03*
X110292200Y-172376000D03*
X110792200Y-172376000D03*
D20*
X111492200Y-171676000D03*
X111492200Y-171176000D03*
X111492200Y-170676000D03*
X111492200Y-170176000D03*
X111492200Y-169676000D03*
X111492200Y-169176000D03*
X111492200Y-168676000D03*
X111492200Y-168176000D03*
D21*
X110792200Y-167476000D03*
X110292200Y-167476000D03*
X109792200Y-167476000D03*
X109292200Y-167476000D03*
X108792200Y-167476000D03*
X108292200Y-167476000D03*
X107792200Y-167476000D03*
X107292200Y-167476000D03*
D22*
X109042200Y-169926000D03*
D23*
X146075400Y-154647600D03*
X146075400Y-156197600D03*
D10*
X209103000Y-186412900D03*
X207203000Y-186412900D03*
X208153000Y-188287900D03*
X102423000Y-190349900D03*
X100523000Y-190349900D03*
X101473000Y-192224900D03*
X221549000Y-194286900D03*
X219649000Y-194286900D03*
X220599000Y-196161900D03*
X193101000Y-190349900D03*
X191201000Y-190349900D03*
X192151000Y-192224900D03*
X123759000Y-186412900D03*
X121859000Y-186412900D03*
X122809000Y-188287900D03*
X114869000Y-194286900D03*
X112969000Y-194286900D03*
X113919000Y-196161900D03*
X161097000Y-190349900D03*
X159197000Y-190349900D03*
X160147000Y-192224900D03*
X137983000Y-178538900D03*
X136083000Y-178538900D03*
X137033000Y-180413900D03*
X127315000Y-182475900D03*
X125415000Y-182475900D03*
X126365000Y-184350900D03*
X191323000Y-182475900D03*
X189423000Y-182475900D03*
X190373000Y-184350900D03*
X173543000Y-198223900D03*
X171643000Y-198223900D03*
X172593000Y-200098900D03*
D17*
X169138400Y-141859000D03*
X170713400Y-141859000D03*
D10*
X180655000Y-182475900D03*
X178755000Y-182475900D03*
X179705000Y-184350900D03*
D23*
X162077400Y-154647600D03*
X162077400Y-156197600D03*
D12*
X202935200Y-154686000D03*
X202935200Y-155956000D03*
X202935200Y-157226000D03*
X202935200Y-158496000D03*
X202935200Y-159766000D03*
X202935200Y-161036000D03*
X202935200Y-162306000D03*
X202935200Y-163576000D03*
X207935200Y-163576000D03*
X207935200Y-162306000D03*
X207935200Y-161036000D03*
X207935200Y-159766000D03*
X207935200Y-158496000D03*
X207935200Y-157226000D03*
X207935200Y-155956000D03*
X207935200Y-154686000D03*
D17*
X169138400Y-140081000D03*
X170713400Y-140081000D03*
D10*
X148651000Y-178538900D03*
X146751000Y-178538900D03*
X147701000Y-180413900D03*
X134427000Y-190349900D03*
X132527000Y-190349900D03*
X133477000Y-192224900D03*
X178877000Y-198223900D03*
X176977000Y-198223900D03*
X177927000Y-200098900D03*
X150429000Y-186412900D03*
X148529000Y-186412900D03*
X149479000Y-188287900D03*
X178877000Y-194286900D03*
X176977000Y-194286900D03*
X177927000Y-196161900D03*
D17*
X182346400Y-140081000D03*
X183921400Y-140081000D03*
D10*
X109535000Y-194286900D03*
X107635000Y-194286900D03*
X108585000Y-196161900D03*
D11*
X217093800Y-167805400D03*
X217093800Y-166255400D03*
D24*
X153797000Y-206146400D03*
D25*
X153797000Y-208686400D03*
X151257000Y-206146400D03*
X151257000Y-208686400D03*
X148717000Y-206146400D03*
X148717000Y-208686400D03*
X146177000Y-206146400D03*
X146177000Y-208686400D03*
X143637000Y-206146400D03*
X143637000Y-208686400D03*
X141097000Y-206146400D03*
X141097000Y-208686400D03*
X138557000Y-206146400D03*
X138557000Y-208686400D03*
X136017000Y-206146400D03*
X136017000Y-208686400D03*
X133477000Y-206146400D03*
X133477000Y-208686400D03*
X130937000Y-206146400D03*
X130937000Y-208686400D03*
X128397000Y-206146400D03*
X128397000Y-208686400D03*
X125857000Y-206146400D03*
X125857000Y-208686400D03*
X123317000Y-206146400D03*
X123317000Y-208686400D03*
X120777000Y-206146400D03*
X120777000Y-208686400D03*
X118237000Y-206146400D03*
X118237000Y-208686400D03*
X115697000Y-206146400D03*
X115697000Y-208686400D03*
X113157000Y-206146400D03*
X113157000Y-208686400D03*
X110617000Y-206146400D03*
X110617000Y-208686400D03*
X108077000Y-206146400D03*
X108077000Y-208686400D03*
X105537000Y-206146400D03*
X105537000Y-208686400D03*
D10*
X102423000Y-186412900D03*
X100523000Y-186412900D03*
X101473000Y-188287900D03*
X155763000Y-186412900D03*
X153863000Y-186412900D03*
X154813000Y-188287900D03*
X157541000Y-198223900D03*
X155641000Y-198223900D03*
X156591000Y-200098900D03*
X198435000Y-186412900D03*
X196535000Y-186412900D03*
X197485000Y-188287900D03*
D11*
X162077400Y-160541000D03*
X162077400Y-158991000D03*
D10*
X177099000Y-186412900D03*
X175199000Y-186412900D03*
X176149000Y-188287900D03*
D26*
X224586800Y-220980000D03*
X221411800Y-220980000D03*
X218236800Y-220980000D03*
X215061800Y-220980000D03*
X211886800Y-220980000D03*
X208711800Y-220980000D03*
X205536800Y-220980000D03*
X202361800Y-220980000D03*
X199186800Y-220980000D03*
X196011800Y-220980000D03*
X192836800Y-220980000D03*
X189661800Y-220980000D03*
X186486800Y-220980000D03*
X183311800Y-220980000D03*
X180136800Y-220980000D03*
X176961800Y-220980000D03*
X173786800Y-220980000D03*
X170611800Y-220980000D03*
X154736800Y-220980000D03*
X151561800Y-220980000D03*
X148386800Y-220980000D03*
X145211800Y-220980000D03*
X142036800Y-220980000D03*
X138861800Y-220980000D03*
X135686800Y-220980000D03*
X132511800Y-220980000D03*
X129336800Y-220980000D03*
X126161800Y-220980000D03*
X122986800Y-220980000D03*
X119811800Y-220980000D03*
X116636800Y-220980000D03*
X113461800Y-220980000D03*
X110286800Y-220980000D03*
X107111800Y-220980000D03*
X103936800Y-220980000D03*
X100761800Y-220980000D03*
D10*
X212659000Y-182475900D03*
X210759000Y-182475900D03*
X211709000Y-184350900D03*
X226883000Y-194286900D03*
X224983000Y-194286900D03*
X225933000Y-196161900D03*
X205547000Y-198223900D03*
X203647000Y-198223900D03*
X204597000Y-200098900D03*
D17*
X185648400Y-140081000D03*
X187223400Y-140081000D03*
D10*
X123759000Y-190349900D03*
X121859000Y-190349900D03*
X122809000Y-192224900D03*
D11*
X121081800Y-167805400D03*
X121081800Y-166255400D03*
D10*
X120203000Y-198223900D03*
X118303000Y-198223900D03*
X119253000Y-200098900D03*
X104201000Y-194286900D03*
X102301000Y-194286900D03*
X103251000Y-196161900D03*
X185989000Y-182475900D03*
X184089000Y-182475900D03*
X185039000Y-184350900D03*
X169987000Y-182475900D03*
X168087000Y-182475900D03*
X169037000Y-184350900D03*
X196657000Y-182475900D03*
X194757000Y-182475900D03*
X195707000Y-184350900D03*
X173543000Y-194286900D03*
X171643000Y-194286900D03*
X172593000Y-196161900D03*
X152207000Y-198223900D03*
X150307000Y-198223900D03*
X151257000Y-200098900D03*
X193101000Y-186412900D03*
X191201000Y-186412900D03*
X192151000Y-188287900D03*
D23*
X226085400Y-154647600D03*
X226085400Y-156197600D03*
X210083400Y-154647600D03*
X210083400Y-156197600D03*
D10*
X223327000Y-178538900D03*
X221427000Y-178538900D03*
X222377000Y-180413900D03*
D11*
X146075400Y-160541000D03*
X146075400Y-158991000D03*
D10*
X125537000Y-198223900D03*
X123637000Y-198223900D03*
X124587000Y-200098900D03*
D17*
X162534400Y-141859000D03*
X164109400Y-141859000D03*
D18*
X166262100Y-147051600D03*
D19*
X167062100Y-147051600D03*
X167862100Y-147051600D03*
D18*
X168662100Y-147051600D03*
X168662100Y-145251600D03*
D19*
X167862100Y-145251600D03*
X167062100Y-145251600D03*
D18*
X166262100Y-145251600D03*
D17*
X162534400Y-140081000D03*
X164109400Y-140081000D03*
D10*
X216215000Y-198223900D03*
X214315000Y-198223900D03*
X215265000Y-200098900D03*
X100645000Y-178538900D03*
X98745000Y-178538900D03*
X99695000Y-180413900D03*
X153985000Y-182475900D03*
X152085000Y-182475900D03*
X153035000Y-184350900D03*
X113091000Y-190349900D03*
X111191000Y-190349900D03*
X112141000Y-192224900D03*
X168209000Y-194286900D03*
X166309000Y-194286900D03*
X167259000Y-196161900D03*
X132649000Y-182475900D03*
X130749000Y-182475900D03*
X131699000Y-184350900D03*
D17*
X175742400Y-141859000D03*
X177317400Y-141859000D03*
D10*
X111313000Y-182475900D03*
X109413000Y-182475900D03*
X110363000Y-184350900D03*
X225105000Y-186412900D03*
X223205000Y-186412900D03*
X224155000Y-188287900D03*
X217993000Y-182475900D03*
X216093000Y-182475900D03*
X217043000Y-184350900D03*
D18*
X159124700Y-147051600D03*
D19*
X159924700Y-147051600D03*
X160724700Y-147051600D03*
D18*
X161524700Y-147051600D03*
X161524700Y-145251600D03*
D19*
X160724700Y-145251600D03*
X159924700Y-145251600D03*
D18*
X159124700Y-145251600D03*
D11*
X201091800Y-167805400D03*
X201091800Y-166255400D03*
D10*
X187767000Y-190349900D03*
X185867000Y-190349900D03*
X186817000Y-192224900D03*
X191323000Y-178538900D03*
X189423000Y-178538900D03*
X190373000Y-180413900D03*
D17*
X179044400Y-140081000D03*
X180619400Y-140081000D03*
D27*
X172362900Y-150438400D03*
D28*
X173862900Y-150350900D03*
D27*
X175362900Y-150438400D03*
D10*
X146873000Y-198223900D03*
X144973000Y-198223900D03*
X145923000Y-200098900D03*
X111313000Y-178538900D03*
X109413000Y-178538900D03*
X110363000Y-180413900D03*
X219771000Y-186412900D03*
X217871000Y-186412900D03*
X218821000Y-188287900D03*
X105979000Y-182475900D03*
X104079000Y-182475900D03*
X105029000Y-184350900D03*
X100645000Y-182475900D03*
X98745000Y-182475900D03*
X99695000Y-184350900D03*
X214437000Y-190349900D03*
X212537000Y-190349900D03*
X213487000Y-192224900D03*
X130871000Y-198223900D03*
X128971000Y-198223900D03*
X129921000Y-200098900D03*
X184211000Y-194286900D03*
X182311000Y-194286900D03*
X183261000Y-196161900D03*
X139761000Y-190349900D03*
X137861000Y-190349900D03*
X138811000Y-192224900D03*
X187767000Y-186412900D03*
X185867000Y-186412900D03*
X186817000Y-188287900D03*
X130871000Y-194286900D03*
X128971000Y-194286900D03*
X129921000Y-196161900D03*
X201991000Y-178538900D03*
X200091000Y-178538900D03*
X201041000Y-180413900D03*
X210881000Y-198223900D03*
X208981000Y-198223900D03*
X209931000Y-200098900D03*
X177099000Y-190349900D03*
X175199000Y-190349900D03*
X176149000Y-192224900D03*
X171765000Y-190349900D03*
X169865000Y-190349900D03*
X170815000Y-192224900D03*
X182433000Y-186412900D03*
X180533000Y-186412900D03*
X181483000Y-188287900D03*
D15*
X99847400Y-150266400D03*
D13*
X158743600Y-208153000D03*
X159556379Y-206190779D03*
X159556379Y-210115221D03*
X161518600Y-205378000D03*
D14*
X161518600Y-208153000D03*
D13*
X161518600Y-210928000D03*
X163480821Y-206190779D03*
X163480821Y-210115221D03*
X164293600Y-208153000D03*
D11*
X210083400Y-160541000D03*
X210083400Y-158991000D03*
D10*
X134427000Y-186412900D03*
X132527000Y-186412900D03*
X133477000Y-188287900D03*
D12*
X186933200Y-154686000D03*
X186933200Y-155956000D03*
X186933200Y-157226000D03*
X186933200Y-158496000D03*
X186933200Y-159766000D03*
X186933200Y-161036000D03*
X186933200Y-162306000D03*
X186933200Y-163576000D03*
X191933200Y-163576000D03*
X191933200Y-162306000D03*
X191933200Y-161036000D03*
X191933200Y-159766000D03*
X191933200Y-158496000D03*
X191933200Y-157226000D03*
X191933200Y-155956000D03*
X191933200Y-154686000D03*
X170931200Y-154686000D03*
X170931200Y-155956000D03*
X170931200Y-157226000D03*
X170931200Y-158496000D03*
X170931200Y-159766000D03*
X170931200Y-161036000D03*
X170931200Y-162306000D03*
X170931200Y-163576000D03*
X175931200Y-163576000D03*
X175931200Y-162306000D03*
X175931200Y-161036000D03*
X175931200Y-159766000D03*
X175931200Y-158496000D03*
X175931200Y-157226000D03*
X175931200Y-155956000D03*
X175931200Y-154686000D03*
D11*
X114071400Y-160541000D03*
X114071400Y-158991000D03*
D20*
X138596200Y-168176000D03*
X138596200Y-168676000D03*
X138596200Y-169176000D03*
X138596200Y-169676000D03*
X138596200Y-170176000D03*
X138596200Y-170676000D03*
X138596200Y-171176000D03*
X138596200Y-171676000D03*
D21*
X139296200Y-172376000D03*
X139796200Y-172376000D03*
X140296200Y-172376000D03*
X140796200Y-172376000D03*
X141296200Y-172376000D03*
X141796200Y-172376000D03*
X142296200Y-172376000D03*
X142796200Y-172376000D03*
D20*
X143496200Y-171676000D03*
X143496200Y-171176000D03*
X143496200Y-170676000D03*
X143496200Y-170176000D03*
X143496200Y-169676000D03*
X143496200Y-169176000D03*
X143496200Y-168676000D03*
X143496200Y-168176000D03*
D21*
X142796200Y-167476000D03*
X142296200Y-167476000D03*
X141796200Y-167476000D03*
X141296200Y-167476000D03*
X140796200Y-167476000D03*
X140296200Y-167476000D03*
X139796200Y-167476000D03*
X139296200Y-167476000D03*
D22*
X141046200Y-169926000D03*
D10*
X182433000Y-190349900D03*
X180533000Y-190349900D03*
X181483000Y-192224900D03*
D13*
X99790200Y-141249400D03*
X100602979Y-139287179D03*
X100602979Y-143211621D03*
X102565200Y-138474400D03*
D14*
X102565200Y-141249400D03*
D13*
X102565200Y-144024400D03*
X104527421Y-139287179D03*
X104527421Y-143211621D03*
X105340200Y-141249400D03*
D10*
X207325000Y-178538900D03*
X205425000Y-178538900D03*
X206375000Y-180413900D03*
D23*
X130073400Y-154647600D03*
X130073400Y-156197600D03*
D10*
X116647000Y-182475900D03*
X114747000Y-182475900D03*
X115697000Y-184350900D03*
X207325000Y-182475900D03*
X205425000Y-182475900D03*
X206375000Y-184350900D03*
X223327000Y-182475900D03*
X221427000Y-182475900D03*
X222377000Y-184350900D03*
X157541000Y-194286900D03*
X155641000Y-194286900D03*
X156591000Y-196161900D03*
X219771000Y-190349900D03*
X217871000Y-190349900D03*
X218821000Y-192224900D03*
D12*
X138927200Y-154686000D03*
X138927200Y-155956000D03*
X138927200Y-157226000D03*
X138927200Y-158496000D03*
X138927200Y-159766000D03*
X138927200Y-161036000D03*
X138927200Y-162306000D03*
X138927200Y-163576000D03*
X143927200Y-163576000D03*
X143927200Y-162306000D03*
X143927200Y-161036000D03*
X143927200Y-159766000D03*
X143927200Y-158496000D03*
X143927200Y-157226000D03*
X143927200Y-155956000D03*
X143927200Y-154686000D03*
D10*
X200213000Y-194286900D03*
X198313000Y-194286900D03*
X199263000Y-196161900D03*
X143317000Y-178538900D03*
X141417000Y-178538900D03*
X142367000Y-180413900D03*
X226883000Y-198223900D03*
X224983000Y-198223900D03*
X225933000Y-200098900D03*
X194879000Y-198223900D03*
X192979000Y-198223900D03*
X193929000Y-200098900D03*
D24*
X219583000Y-206146400D03*
D25*
X219583000Y-208686400D03*
X217043000Y-206146400D03*
X217043000Y-208686400D03*
X214503000Y-206146400D03*
X214503000Y-208686400D03*
X211963000Y-206146400D03*
X211963000Y-208686400D03*
X209423000Y-206146400D03*
X209423000Y-208686400D03*
X206883000Y-206146400D03*
X206883000Y-208686400D03*
X204343000Y-206146400D03*
X204343000Y-208686400D03*
X201803000Y-206146400D03*
X201803000Y-208686400D03*
X199263000Y-206146400D03*
X199263000Y-208686400D03*
X196723000Y-206146400D03*
X196723000Y-208686400D03*
X194183000Y-206146400D03*
X194183000Y-208686400D03*
X191643000Y-206146400D03*
X191643000Y-208686400D03*
X189103000Y-206146400D03*
X189103000Y-208686400D03*
X186563000Y-206146400D03*
X186563000Y-208686400D03*
X184023000Y-206146400D03*
X184023000Y-208686400D03*
X181483000Y-206146400D03*
X181483000Y-208686400D03*
X178943000Y-206146400D03*
X178943000Y-208686400D03*
X176403000Y-206146400D03*
X176403000Y-208686400D03*
X173863000Y-206146400D03*
X173863000Y-208686400D03*
X171323000Y-206146400D03*
X171323000Y-208686400D03*
D10*
X145095000Y-186412900D03*
X143195000Y-186412900D03*
X144145000Y-188287900D03*
X148651000Y-182475900D03*
X146751000Y-182475900D03*
X147701000Y-184350900D03*
X171765000Y-186412900D03*
X169865000Y-186412900D03*
X170815000Y-188287900D03*
X118425000Y-186412900D03*
X116525000Y-186412900D03*
X117475000Y-188287900D03*
D18*
X190455400Y-148452000D03*
D19*
X189655400Y-148452000D03*
X188855400Y-148452000D03*
D18*
X188055400Y-148452000D03*
X188055400Y-150252000D03*
D19*
X188855400Y-150252000D03*
X189655400Y-150252000D03*
D18*
X190455400Y-150252000D03*
D10*
X105979000Y-178538900D03*
X104079000Y-178538900D03*
X105029000Y-180413900D03*
D17*
X185648400Y-141859000D03*
X187223400Y-141859000D03*
D10*
X214437000Y-186412900D03*
X212537000Y-186412900D03*
X213487000Y-188287900D03*
X109535000Y-198223900D03*
X107635000Y-198223900D03*
X108585000Y-200098900D03*
D11*
X105079800Y-167805400D03*
X105079800Y-166255400D03*
X169087800Y-167805400D03*
X169087800Y-166255400D03*
D20*
X218606200Y-168176000D03*
X218606200Y-168676000D03*
X218606200Y-169176000D03*
X218606200Y-169676000D03*
X218606200Y-170176000D03*
X218606200Y-170676000D03*
X218606200Y-171176000D03*
X218606200Y-171676000D03*
D21*
X219306200Y-172376000D03*
X219806200Y-172376000D03*
X220306200Y-172376000D03*
X220806200Y-172376000D03*
X221306200Y-172376000D03*
X221806200Y-172376000D03*
X222306200Y-172376000D03*
X222806200Y-172376000D03*
D20*
X223506200Y-171676000D03*
X223506200Y-171176000D03*
X223506200Y-170676000D03*
X223506200Y-170176000D03*
X223506200Y-169676000D03*
X223506200Y-169176000D03*
X223506200Y-168676000D03*
X223506200Y-168176000D03*
D21*
X222806200Y-167476000D03*
X222306200Y-167476000D03*
X221806200Y-167476000D03*
X221306200Y-167476000D03*
X220806200Y-167476000D03*
X220306200Y-167476000D03*
X219806200Y-167476000D03*
X219306200Y-167476000D03*
D22*
X221056200Y-169926000D03*
D10*
X162875000Y-194286900D03*
X160975000Y-194286900D03*
X161925000Y-196161900D03*
D12*
X218937200Y-154686000D03*
X218937200Y-155956000D03*
X218937200Y-157226000D03*
X218937200Y-158496000D03*
X218937200Y-159766000D03*
X218937200Y-161036000D03*
X218937200Y-162306000D03*
X218937200Y-163576000D03*
X223937200Y-163576000D03*
X223937200Y-162306000D03*
X223937200Y-161036000D03*
X223937200Y-159766000D03*
X223937200Y-158496000D03*
X223937200Y-157226000D03*
X223937200Y-155956000D03*
X223937200Y-154686000D03*
D10*
X141539000Y-198223900D03*
X139639000Y-198223900D03*
X140589000Y-200098900D03*
X212659000Y-178538900D03*
X210759000Y-178538900D03*
X211709000Y-180413900D03*
D17*
X165836400Y-140081000D03*
X167411400Y-140081000D03*
D10*
X210881000Y-194286900D03*
X208981000Y-194286900D03*
X209931000Y-196161900D03*
X136205000Y-194286900D03*
X134305000Y-194286900D03*
X135255000Y-196161900D03*
D17*
X175742400Y-140081000D03*
X177317400Y-140081000D03*
D11*
X226085400Y-160541000D03*
X226085400Y-158991000D03*
D10*
X189545000Y-198223900D03*
X187645000Y-198223900D03*
X188595000Y-200098900D03*
X203769000Y-186412900D03*
X201869000Y-186412900D03*
X202819000Y-188287900D03*
D29*
X111165000Y-148336000D03*
D30*
X137755000Y-150876000D03*
D31*
X136525000Y-148336000D03*
X135255000Y-150876000D03*
X133985000Y-148336000D03*
X132715000Y-150876000D03*
X131445000Y-148336000D03*
X130175000Y-150876000D03*
X128905000Y-148336000D03*
X127635000Y-150876000D03*
X126365000Y-148336000D03*
X125095000Y-150876000D03*
X123825000Y-148336000D03*
X122555000Y-150876000D03*
X121285000Y-148336000D03*
X120015000Y-150876000D03*
X118745000Y-148336000D03*
X117475000Y-150876000D03*
X116205000Y-148336000D03*
X114935000Y-150876000D03*
X113665000Y-148336000D03*
X112395000Y-150876000D03*
D32*
X177190600Y-150312400D03*
X178740600Y-150312400D03*
D10*
X141539000Y-194286900D03*
X139639000Y-194286900D03*
X140589000Y-196161900D03*
X166431000Y-190349900D03*
X164531000Y-190349900D03*
X165481000Y-192224900D03*
D23*
X178079400Y-154647600D03*
X178079400Y-156197600D03*
D10*
X152207000Y-194286900D03*
X150307000Y-194286900D03*
X151257000Y-196161900D03*
X221549000Y-198223900D03*
X219649000Y-198223900D03*
X220599000Y-200098900D03*
X107757000Y-190349900D03*
X105857000Y-190349900D03*
X106807000Y-192224900D03*
X200213000Y-198223900D03*
X198313000Y-198223900D03*
X199263000Y-200098900D03*
X136205000Y-198223900D03*
X134305000Y-198223900D03*
X135255000Y-200098900D03*
D20*
X170600200Y-168176000D03*
X170600200Y-168676000D03*
X170600200Y-169176000D03*
X170600200Y-169676000D03*
X170600200Y-170176000D03*
X170600200Y-170676000D03*
X170600200Y-171176000D03*
X170600200Y-171676000D03*
D21*
X171300200Y-172376000D03*
X171800200Y-172376000D03*
X172300200Y-172376000D03*
X172800200Y-172376000D03*
X173300200Y-172376000D03*
X173800200Y-172376000D03*
X174300200Y-172376000D03*
X174800200Y-172376000D03*
D20*
X175500200Y-171676000D03*
X175500200Y-171176000D03*
X175500200Y-170676000D03*
X175500200Y-170176000D03*
X175500200Y-169676000D03*
X175500200Y-169176000D03*
X175500200Y-168676000D03*
X175500200Y-168176000D03*
D21*
X174800200Y-167476000D03*
X174300200Y-167476000D03*
X173800200Y-167476000D03*
X173300200Y-167476000D03*
X172800200Y-167476000D03*
X172300200Y-167476000D03*
X171800200Y-167476000D03*
X171300200Y-167476000D03*
D22*
X173050200Y-169926000D03*
D10*
X175321000Y-178538900D03*
X173421000Y-178538900D03*
X174371000Y-180413900D03*
X121981000Y-182475900D03*
X120081000Y-182475900D03*
X121031000Y-184350900D03*
X198435000Y-190349900D03*
X196535000Y-190349900D03*
X197485000Y-192224900D03*
X164653000Y-178538900D03*
X162753000Y-178538900D03*
X163703000Y-180413900D03*
D11*
X153085800Y-167805400D03*
X153085800Y-166255400D03*
D12*
X122925200Y-154686000D03*
X122925200Y-155956000D03*
X122925200Y-157226000D03*
X122925200Y-158496000D03*
X122925200Y-159766000D03*
X122925200Y-161036000D03*
X122925200Y-162306000D03*
X122925200Y-163576000D03*
X127925200Y-163576000D03*
X127925200Y-162306000D03*
X127925200Y-161036000D03*
X127925200Y-159766000D03*
X127925200Y-158496000D03*
X127925200Y-157226000D03*
X127925200Y-155956000D03*
X127925200Y-154686000D03*
D10*
X180655000Y-178538900D03*
X178755000Y-178538900D03*
X179705000Y-180413900D03*
X189545000Y-194286900D03*
X187645000Y-194286900D03*
X188595000Y-196161900D03*
X168209000Y-198223900D03*
X166309000Y-198223900D03*
X167259000Y-200098900D03*
X162875000Y-198223900D03*
X160975000Y-198223900D03*
X161925000Y-200098900D03*
X104201000Y-198223900D03*
X102301000Y-198223900D03*
X103251000Y-200098900D03*
D11*
X185089800Y-167805400D03*
X185089800Y-166255400D03*
D10*
X132649000Y-178538900D03*
X130749000Y-178538900D03*
X131699000Y-180413900D03*
X203769000Y-190349900D03*
X201869000Y-190349900D03*
X202819000Y-192224900D03*
D33*
X197231000Y-149258300D03*
D34*
X197231000Y-146718300D03*
X199771000Y-149258300D03*
X199771000Y-146718300D03*
X202311000Y-149258300D03*
X202311000Y-146718300D03*
X204851000Y-149258300D03*
X204851000Y-146718300D03*
X207391000Y-149258300D03*
X207391000Y-146718300D03*
X209931000Y-149258300D03*
X209931000Y-146718300D03*
X212471000Y-149258300D03*
X212471000Y-146718300D03*
X215011000Y-149258300D03*
X215011000Y-146718300D03*
X217551000Y-149258300D03*
X217551000Y-146718300D03*
X220091000Y-149258300D03*
X220091000Y-146718300D03*
D10*
X216215000Y-194286900D03*
X214315000Y-194286900D03*
X215265000Y-196161900D03*
D15*
X225399600Y-151841200D03*
D10*
X129093000Y-190349900D03*
X127193000Y-190349900D03*
X128143000Y-192224900D03*
D11*
X137083800Y-167805400D03*
X137083800Y-166255400D03*
D10*
X166431000Y-186412900D03*
X164531000Y-186412900D03*
X165481000Y-188287900D03*
D18*
X188055300Y-147051600D03*
D19*
X188855300Y-147051600D03*
X189655300Y-147051600D03*
D18*
X190455300Y-147051600D03*
X190455300Y-145251600D03*
D19*
X189655300Y-145251600D03*
X188855300Y-145251600D03*
D18*
X188055300Y-145251600D03*
D10*
X146873000Y-194286900D03*
X144973000Y-194286900D03*
X145923000Y-196161900D03*
X217993000Y-178538900D03*
X216093000Y-178538900D03*
X217043000Y-180413900D03*
D20*
X186602200Y-168176000D03*
X186602200Y-168676000D03*
X186602200Y-169176000D03*
X186602200Y-169676000D03*
X186602200Y-170176000D03*
X186602200Y-170676000D03*
X186602200Y-171176000D03*
X186602200Y-171676000D03*
D21*
X187302200Y-172376000D03*
X187802200Y-172376000D03*
X188302200Y-172376000D03*
X188802200Y-172376000D03*
X189302200Y-172376000D03*
X189802200Y-172376000D03*
X190302200Y-172376000D03*
X190802200Y-172376000D03*
D20*
X191502200Y-171676000D03*
X191502200Y-171176000D03*
X191502200Y-170676000D03*
X191502200Y-170176000D03*
X191502200Y-169676000D03*
X191502200Y-169176000D03*
X191502200Y-168676000D03*
X191502200Y-168176000D03*
D21*
X190802200Y-167476000D03*
X190302200Y-167476000D03*
X189802200Y-167476000D03*
X189302200Y-167476000D03*
X188802200Y-167476000D03*
X188302200Y-167476000D03*
X187802200Y-167476000D03*
X187302200Y-167476000D03*
D22*
X189052200Y-169926000D03*
D10*
X225105000Y-190349900D03*
X223205000Y-190349900D03*
X224155000Y-192224900D03*
X125537000Y-194286900D03*
X123637000Y-194286900D03*
X124587000Y-196161900D03*
X150429000Y-190349900D03*
X148529000Y-190349900D03*
X149479000Y-192224900D03*
X196657000Y-178538900D03*
X194757000Y-178538900D03*
X195707000Y-180413900D03*
X137983000Y-182475900D03*
X136083000Y-182475900D03*
X137033000Y-184350900D03*
X159319000Y-182475900D03*
X157419000Y-182475900D03*
X158369000Y-184350900D03*
D20*
X122594200Y-168176000D03*
X122594200Y-168676000D03*
X122594200Y-169176000D03*
X122594200Y-169676000D03*
X122594200Y-170176000D03*
X122594200Y-170676000D03*
X122594200Y-171176000D03*
X122594200Y-171676000D03*
D21*
X123294200Y-172376000D03*
X123794200Y-172376000D03*
X124294200Y-172376000D03*
X124794200Y-172376000D03*
X125294200Y-172376000D03*
X125794200Y-172376000D03*
X126294200Y-172376000D03*
X126794200Y-172376000D03*
D20*
X127494200Y-171676000D03*
X127494200Y-171176000D03*
X127494200Y-170676000D03*
X127494200Y-170176000D03*
X127494200Y-169676000D03*
X127494200Y-169176000D03*
X127494200Y-168676000D03*
X127494200Y-168176000D03*
D21*
X126794200Y-167476000D03*
X126294200Y-167476000D03*
X125794200Y-167476000D03*
X125294200Y-167476000D03*
X124794200Y-167476000D03*
X124294200Y-167476000D03*
X123794200Y-167476000D03*
X123294200Y-167476000D03*
D22*
X125044200Y-169926000D03*
D17*
X165836400Y-141859000D03*
X167411400Y-141859000D03*
D10*
X118425000Y-190349900D03*
X116525000Y-190349900D03*
X117475000Y-192224900D03*
X169987000Y-178538900D03*
X168087000Y-178538900D03*
X169037000Y-180413900D03*
X114869000Y-198223900D03*
X112969000Y-198223900D03*
X113919000Y-200098900D03*
D11*
X130073400Y-160541000D03*
X130073400Y-158991000D03*
D10*
X159319000Y-178538900D03*
X157419000Y-178538900D03*
X158369000Y-180413900D03*
D17*
X172440400Y-141859000D03*
X174015400Y-141859000D03*
D10*
X205547000Y-194286900D03*
X203647000Y-194286900D03*
X204597000Y-196161900D03*
D12*
X106923200Y-154686000D03*
X106923200Y-155956000D03*
X106923200Y-157226000D03*
X106923200Y-158496000D03*
X106923200Y-159766000D03*
X106923200Y-161036000D03*
X106923200Y-162306000D03*
X106923200Y-163576000D03*
X111923200Y-163576000D03*
X111923200Y-162306000D03*
X111923200Y-161036000D03*
X111923200Y-159766000D03*
X111923200Y-158496000D03*
X111923200Y-157226000D03*
X111923200Y-155956000D03*
X111923200Y-154686000D03*
D10*
X143317000Y-182475900D03*
X141417000Y-182475900D03*
X142367000Y-184350900D03*
D23*
X194081400Y-154647600D03*
X194081400Y-156197600D03*
X114071400Y-154647600D03*
X114071400Y-156197600D03*
D10*
X116647000Y-178538900D03*
X114747000Y-178538900D03*
X115697000Y-180413900D03*
X153985000Y-178538900D03*
X152085000Y-178538900D03*
X153035000Y-180413900D03*
D20*
X202604200Y-168176000D03*
X202604200Y-168676000D03*
X202604200Y-169176000D03*
X202604200Y-169676000D03*
X202604200Y-170176000D03*
X202604200Y-170676000D03*
X202604200Y-171176000D03*
X202604200Y-171676000D03*
D21*
X203304200Y-172376000D03*
X203804200Y-172376000D03*
X204304200Y-172376000D03*
X204804200Y-172376000D03*
X205304200Y-172376000D03*
X205804200Y-172376000D03*
X206304200Y-172376000D03*
X206804200Y-172376000D03*
D20*
X207504200Y-171676000D03*
X207504200Y-171176000D03*
X207504200Y-170676000D03*
X207504200Y-170176000D03*
X207504200Y-169676000D03*
X207504200Y-169176000D03*
X207504200Y-168676000D03*
X207504200Y-168176000D03*
D21*
X206804200Y-167476000D03*
X206304200Y-167476000D03*
X205804200Y-167476000D03*
X205304200Y-167476000D03*
X204804200Y-167476000D03*
X204304200Y-167476000D03*
X203804200Y-167476000D03*
X203304200Y-167476000D03*
D22*
X205054200Y-169926000D03*
D10*
X161097000Y-186412900D03*
X159197000Y-186412900D03*
X160147000Y-188287900D03*
X175321000Y-182475900D03*
X173421000Y-182475900D03*
X174371000Y-184350900D03*
X184211000Y-198223900D03*
X182311000Y-198223900D03*
X183261000Y-200098900D03*
X209103000Y-190349900D03*
X207203000Y-190349900D03*
X208153000Y-192224900D03*
X129093000Y-186412900D03*
X127193000Y-186412900D03*
X128143000Y-188287900D03*
X121981000Y-178538900D03*
X120081000Y-178538900D03*
X121031000Y-180413900D03*
M02*
