%TF.GenerationSoftware,KiCad,Pcbnew,8.0.4-rc2*%
%TF.CreationDate,2024-08-04T20:32:00-05:00*%
%TF.ProjectId,backplane_tracer_v5,6261636b-706c-4616-9e65-5f7472616365,rev?*%
%TF.SameCoordinates,Original*%
%TF.FileFunction,Drillmap*%
%TF.FilePolarity,Positive*%
%FSLAX45Y45*%
G04 Gerber Fmt 4.5, Leading zero omitted, Abs format (unit mm)*
G04 Created by KiCad (PCBNEW 8.0.4-rc2) date 2024-08-04 20:32:00*
%MOMM*%
%LPD*%
G01*
G04 APERTURE LIST*
%ADD10C,0.127000*%
%ADD11C,0.200000*%
%ADD12C,0.100000*%
%ADD13C,0.150000*%
%ADD14C,0.370000*%
G04 APERTURE END LIST*
D10*
X22860000Y-13632180D02*
X22860000Y-21272500D01*
X22529800Y-22860000D02*
X22606000Y-22783800D01*
X16916400Y-22783800D02*
X16992600Y-22860000D01*
X16560800Y-21272500D02*
X16560800Y-21018500D01*
X9685020Y-13632180D02*
X9685020Y-21018500D01*
X22606000Y-21272500D02*
X22606000Y-22783800D01*
X22860000Y-13632180D02*
X9685020Y-13632180D01*
X15621000Y-21272500D02*
X15621000Y-22783800D01*
X22860000Y-21272500D02*
X22606000Y-21272500D01*
X9931400Y-21018500D02*
X9931400Y-22783800D01*
X15544800Y-22860000D02*
X15621000Y-22783800D01*
X9931400Y-21018500D02*
X9685020Y-21018500D01*
X16916400Y-21018500D02*
X16560800Y-21018500D01*
X16560800Y-21272500D02*
X15621000Y-21272500D01*
X15544800Y-22860000D02*
X10007600Y-22860000D01*
X16916400Y-21018500D02*
X16916400Y-22783800D01*
X9931400Y-22783800D02*
X10007600Y-22860000D01*
X22529800Y-22860000D02*
X16992600Y-22860000D01*
D11*
D12*
X9857980Y-18107900D02*
X9887980Y-18137900D01*
X9887980Y-18107900D02*
X9857980Y-18137900D01*
X9860520Y-17714200D02*
X9890520Y-17744200D01*
X9890520Y-17714200D02*
X9860520Y-17744200D01*
X10035780Y-18895300D02*
X10065780Y-18925300D01*
X10065780Y-18895300D02*
X10035780Y-18925300D01*
X10045940Y-18501600D02*
X10075940Y-18531600D01*
X10075940Y-18501600D02*
X10045940Y-18531600D01*
X10213580Y-19682700D02*
X10243580Y-19712700D01*
X10243580Y-19682700D02*
X10213580Y-19712700D01*
X10223740Y-19289000D02*
X10253740Y-19319000D01*
X10253740Y-19289000D02*
X10223740Y-19319000D01*
X10391380Y-18107900D02*
X10421380Y-18137900D01*
X10421380Y-18107900D02*
X10391380Y-18137900D01*
X10393920Y-17714200D02*
X10423920Y-17744200D01*
X10423920Y-17714200D02*
X10393920Y-17744200D01*
X10406657Y-17115720D02*
X10436657Y-17145720D01*
X10436657Y-17115720D02*
X10406657Y-17145720D01*
X10446300Y-16865840D02*
X10476300Y-16895840D01*
X10476300Y-16865840D02*
X10446300Y-16895840D01*
X10447275Y-16945834D02*
X10477275Y-16975834D01*
X10477275Y-16945834D02*
X10447275Y-16975834D01*
X10467580Y-17211280D02*
X10497580Y-17241280D01*
X10497580Y-17211280D02*
X10467580Y-17241280D01*
X10513300Y-16342600D02*
X10543300Y-16372600D01*
X10543300Y-16342600D02*
X10513300Y-16372600D01*
X10514270Y-17049690D02*
X10544270Y-17079690D01*
X10544270Y-17049690D02*
X10514270Y-17079690D01*
X10528540Y-17295100D02*
X10558540Y-17325100D01*
X10558540Y-17295100D02*
X10528540Y-17325100D01*
X10531080Y-16962360D02*
X10561080Y-16992360D01*
X10561080Y-16962360D02*
X10531080Y-16992360D01*
X10569180Y-18895300D02*
X10599180Y-18925300D01*
X10599180Y-18895300D02*
X10569180Y-18925300D01*
X10579340Y-18501600D02*
X10609340Y-18531600D01*
X10609340Y-18501600D02*
X10579340Y-18531600D01*
X10584420Y-16609300D02*
X10614420Y-16639300D01*
X10614420Y-16609300D02*
X10584420Y-16639300D01*
X10586960Y-16741380D02*
X10616960Y-16771380D01*
X10616960Y-16741380D02*
X10586960Y-16771380D01*
X10591371Y-17245579D02*
X10621371Y-17275579D01*
X10621371Y-17245579D02*
X10591371Y-17275579D01*
X10653960Y-17295404D02*
X10683960Y-17325404D01*
X10683960Y-17295404D02*
X10653960Y-17325404D01*
X10665700Y-16685500D02*
X10695700Y-16715500D01*
X10695700Y-16685500D02*
X10665700Y-16715500D01*
X10721119Y-17341587D02*
X10751119Y-17371587D01*
X10751119Y-17341587D02*
X10721119Y-17371587D01*
X10746980Y-19682700D02*
X10776980Y-19712700D01*
X10776980Y-19682700D02*
X10746980Y-19712700D01*
X10757140Y-19289000D02*
X10787140Y-19319000D01*
X10787140Y-19289000D02*
X10757140Y-19319000D01*
X10781119Y-17404852D02*
X10811119Y-17434852D01*
X10811119Y-17404852D02*
X10781119Y-17434852D01*
X10841119Y-17351937D02*
X10871119Y-17381937D01*
X10871119Y-17351937D02*
X10841119Y-17381937D01*
X10901457Y-17414480D02*
X10931457Y-17444480D01*
X10931457Y-17414480D02*
X10901457Y-17444480D01*
X10901920Y-16517860D02*
X10931920Y-16547860D01*
X10931920Y-16517860D02*
X10901920Y-16547860D01*
X10924780Y-18107900D02*
X10954780Y-18137900D01*
X10954780Y-18107900D02*
X10924780Y-18137900D01*
X10927320Y-17714200D02*
X10957320Y-17744200D01*
X10957320Y-17714200D02*
X10927320Y-17744200D01*
X10961457Y-17356743D02*
X10991457Y-17386743D01*
X10991457Y-17356743D02*
X10961457Y-17386743D01*
X11044160Y-16637240D02*
X11074160Y-16667240D01*
X11074160Y-16637240D02*
X11044160Y-16667240D01*
X11075910Y-16448010D02*
X11105910Y-16478010D01*
X11105910Y-16448010D02*
X11075910Y-16478010D01*
X11083123Y-17360976D02*
X11113123Y-17390976D01*
X11113123Y-17360976D02*
X11083123Y-17390976D01*
X11102580Y-18895300D02*
X11132580Y-18925300D01*
X11132580Y-18895300D02*
X11102580Y-18925300D01*
X11112740Y-18501600D02*
X11142740Y-18531600D01*
X11142740Y-18501600D02*
X11112740Y-18531600D01*
X11114030Y-17281199D02*
X11144030Y-17311199D01*
X11144030Y-17281199D02*
X11114030Y-17311199D01*
X11183860Y-16461980D02*
X11213860Y-16491980D01*
X11213860Y-16461980D02*
X11183860Y-16491980D01*
X11220690Y-16773130D02*
X11250690Y-16803130D01*
X11250690Y-16773130D02*
X11220690Y-16803130D01*
X11275300Y-16837900D02*
X11305300Y-16867900D01*
X11305300Y-16837900D02*
X11275300Y-16867900D01*
X11280380Y-19682700D02*
X11310380Y-19712700D01*
X11310380Y-19682700D02*
X11280380Y-19712700D01*
X11290540Y-19289000D02*
X11320540Y-19319000D01*
X11320540Y-19289000D02*
X11290540Y-19319000D01*
X11298160Y-17231600D02*
X11328160Y-17261600D01*
X11328160Y-17231600D02*
X11298160Y-17261600D01*
X11338800Y-17005540D02*
X11368800Y-17035540D01*
X11368800Y-17005540D02*
X11338800Y-17035540D01*
X11340070Y-17314150D02*
X11370070Y-17344150D01*
X11370070Y-17314150D02*
X11340070Y-17344150D01*
X11350230Y-16166070D02*
X11380230Y-16196070D01*
X11380230Y-16166070D02*
X11350230Y-16196070D01*
X11392140Y-15354540D02*
X11422140Y-15384540D01*
X11422140Y-15354540D02*
X11392140Y-15384540D01*
X11392140Y-15699980D02*
X11422140Y-15729980D01*
X11422140Y-15699980D02*
X11392140Y-15729980D01*
X11392140Y-15788880D02*
X11422140Y-15818880D01*
X11422140Y-15788880D02*
X11392140Y-15818880D01*
X11458180Y-18107900D02*
X11488180Y-18137900D01*
X11488180Y-18107900D02*
X11458180Y-18137900D01*
X11460720Y-17714200D02*
X11490720Y-17744200D01*
X11490720Y-17714200D02*
X11460720Y-17744200D01*
X11635980Y-18895300D02*
X11665980Y-18925300D01*
X11665980Y-18895300D02*
X11635980Y-18925300D01*
X11646140Y-18501600D02*
X11676140Y-18531600D01*
X11676140Y-18501600D02*
X11646140Y-18531600D01*
X11813780Y-19682700D02*
X11843780Y-19712700D01*
X11843780Y-19682700D02*
X11813780Y-19712700D01*
X11823940Y-19289000D02*
X11853940Y-19319000D01*
X11853940Y-19289000D02*
X11823940Y-19319000D01*
X11923000Y-15374860D02*
X11953000Y-15404860D01*
X11953000Y-15374860D02*
X11923000Y-15404860D01*
X11991580Y-18107900D02*
X12021580Y-18137900D01*
X12021580Y-18107900D02*
X11991580Y-18137900D01*
X11994120Y-17714200D02*
X12024120Y-17744200D01*
X12024120Y-17714200D02*
X11994120Y-17744200D01*
X12006856Y-17115720D02*
X12036856Y-17145720D01*
X12036856Y-17115720D02*
X12006856Y-17145720D01*
X12046500Y-16865840D02*
X12076500Y-16895840D01*
X12076500Y-16865840D02*
X12046500Y-16895840D01*
X12047475Y-16945834D02*
X12077475Y-16975834D01*
X12077475Y-16945834D02*
X12047475Y-16975834D01*
X12067780Y-17211280D02*
X12097780Y-17241280D01*
X12097780Y-17211280D02*
X12067780Y-17241280D01*
X12113500Y-16342600D02*
X12143500Y-16372600D01*
X12143500Y-16342600D02*
X12113500Y-16372600D01*
X12114470Y-17049690D02*
X12144470Y-17079690D01*
X12144470Y-17049690D02*
X12114470Y-17079690D01*
X12128740Y-17295100D02*
X12158740Y-17325100D01*
X12158740Y-17295100D02*
X12128740Y-17325100D01*
X12131280Y-16962360D02*
X12161280Y-16992360D01*
X12161280Y-16962360D02*
X12131280Y-16992360D01*
X12169380Y-18895300D02*
X12199380Y-18925300D01*
X12199380Y-18895300D02*
X12169380Y-18925300D01*
X12179540Y-18501600D02*
X12209540Y-18531600D01*
X12209540Y-18501600D02*
X12179540Y-18531600D01*
X12184620Y-16609300D02*
X12214620Y-16639300D01*
X12214620Y-16609300D02*
X12184620Y-16639300D01*
X12187160Y-16741380D02*
X12217160Y-16771380D01*
X12217160Y-16741380D02*
X12187160Y-16771380D01*
X12191571Y-17245579D02*
X12221571Y-17275579D01*
X12221571Y-17245579D02*
X12191571Y-17275579D01*
X12254160Y-17295404D02*
X12284160Y-17325404D01*
X12284160Y-17295404D02*
X12254160Y-17325404D01*
X12265900Y-16685500D02*
X12295900Y-16715500D01*
X12295900Y-16685500D02*
X12265900Y-16715500D01*
X12321319Y-17341587D02*
X12351319Y-17371587D01*
X12351319Y-17341587D02*
X12321319Y-17371587D01*
X12347180Y-19682700D02*
X12377180Y-19712700D01*
X12377180Y-19682700D02*
X12347180Y-19712700D01*
X12357340Y-19289000D02*
X12387340Y-19319000D01*
X12387340Y-19289000D02*
X12357340Y-19319000D01*
X12381319Y-17404852D02*
X12411319Y-17434852D01*
X12411319Y-17404852D02*
X12381319Y-17434852D01*
X12441319Y-17351937D02*
X12471319Y-17381937D01*
X12471319Y-17351937D02*
X12441319Y-17381937D01*
X12501657Y-17414480D02*
X12531657Y-17444480D01*
X12531657Y-17414480D02*
X12501657Y-17444480D01*
X12502120Y-16517860D02*
X12532120Y-16547860D01*
X12532120Y-16517860D02*
X12502120Y-16547860D01*
X12524980Y-18107900D02*
X12554980Y-18137900D01*
X12554980Y-18107900D02*
X12524980Y-18137900D01*
X12527520Y-17714200D02*
X12557520Y-17744200D01*
X12557520Y-17714200D02*
X12527520Y-17744200D01*
X12561657Y-17356743D02*
X12591657Y-17386743D01*
X12591657Y-17356743D02*
X12561657Y-17386743D01*
X12644360Y-16637240D02*
X12674360Y-16667240D01*
X12674360Y-16637240D02*
X12644360Y-16667240D01*
X12676110Y-16448010D02*
X12706110Y-16478010D01*
X12706110Y-16448010D02*
X12676110Y-16478010D01*
X12683323Y-17360976D02*
X12713323Y-17390976D01*
X12713323Y-17360976D02*
X12683323Y-17390976D01*
X12702780Y-18895300D02*
X12732780Y-18925300D01*
X12732780Y-18895300D02*
X12702780Y-18925300D01*
X12712940Y-18501600D02*
X12742940Y-18531600D01*
X12742940Y-18501600D02*
X12712940Y-18531600D01*
X12714230Y-17281199D02*
X12744230Y-17311199D01*
X12744230Y-17281199D02*
X12714230Y-17311199D01*
X12784060Y-16461980D02*
X12814060Y-16491980D01*
X12814060Y-16461980D02*
X12784060Y-16491980D01*
X12820890Y-16773130D02*
X12850890Y-16803130D01*
X12850890Y-16773130D02*
X12820890Y-16803130D01*
X12875500Y-16837900D02*
X12905500Y-16867900D01*
X12905500Y-16837900D02*
X12875500Y-16867900D01*
X12880580Y-19682700D02*
X12910580Y-19712700D01*
X12910580Y-19682700D02*
X12880580Y-19712700D01*
X12890740Y-19289000D02*
X12920740Y-19319000D01*
X12920740Y-19289000D02*
X12890740Y-19319000D01*
X12898360Y-17231600D02*
X12928360Y-17261600D01*
X12928360Y-17231600D02*
X12898360Y-17261600D01*
X12939000Y-17005540D02*
X12969000Y-17035540D01*
X12969000Y-17005540D02*
X12939000Y-17035540D01*
X12940270Y-17314150D02*
X12970270Y-17344150D01*
X12970270Y-17314150D02*
X12940270Y-17344150D01*
X12950430Y-16166070D02*
X12980430Y-16196070D01*
X12980430Y-16166070D02*
X12950430Y-16196070D01*
X12992340Y-15354540D02*
X13022340Y-15384540D01*
X13022340Y-15354540D02*
X12992340Y-15384540D01*
X12992340Y-15699980D02*
X13022340Y-15729980D01*
X13022340Y-15699980D02*
X12992340Y-15729980D01*
X12992340Y-15788880D02*
X13022340Y-15818880D01*
X13022340Y-15788880D02*
X12992340Y-15818880D01*
X13058380Y-18107900D02*
X13088380Y-18137900D01*
X13088380Y-18107900D02*
X13058380Y-18137900D01*
X13060920Y-17714200D02*
X13090920Y-17744200D01*
X13090920Y-17714200D02*
X13060920Y-17744200D01*
X13116800Y-16428960D02*
X13146800Y-16458960D01*
X13146800Y-16428960D02*
X13116800Y-16458960D01*
X13236180Y-18895300D02*
X13266180Y-18925300D01*
X13266180Y-18895300D02*
X13236180Y-18925300D01*
X13246340Y-18501600D02*
X13276340Y-18531600D01*
X13276340Y-18501600D02*
X13246340Y-18531600D01*
X13413980Y-19682700D02*
X13443980Y-19712700D01*
X13443980Y-19682700D02*
X13413980Y-19712700D01*
X13424140Y-19289000D02*
X13454140Y-19319000D01*
X13454140Y-19289000D02*
X13424140Y-19319000D01*
X13591780Y-18107900D02*
X13621780Y-18137900D01*
X13621780Y-18107900D02*
X13591780Y-18137900D01*
X13594320Y-17714200D02*
X13624320Y-17744200D01*
X13624320Y-17714200D02*
X13594320Y-17744200D01*
X13607056Y-17115720D02*
X13637056Y-17145720D01*
X13637056Y-17115720D02*
X13607056Y-17145720D01*
X13646700Y-16865840D02*
X13676700Y-16895840D01*
X13676700Y-16865840D02*
X13646700Y-16895840D01*
X13647675Y-16945834D02*
X13677675Y-16975834D01*
X13677675Y-16945834D02*
X13647675Y-16975834D01*
X13667980Y-17211280D02*
X13697980Y-17241280D01*
X13697980Y-17211280D02*
X13667980Y-17241280D01*
X13713700Y-16342600D02*
X13743700Y-16372600D01*
X13743700Y-16342600D02*
X13713700Y-16372600D01*
X13714670Y-17049690D02*
X13744670Y-17079690D01*
X13744670Y-17049690D02*
X13714670Y-17079690D01*
X13728940Y-17295100D02*
X13758940Y-17325100D01*
X13758940Y-17295100D02*
X13728940Y-17325100D01*
X13731480Y-16962360D02*
X13761480Y-16992360D01*
X13761480Y-16962360D02*
X13731480Y-16992360D01*
X13769580Y-18895300D02*
X13799580Y-18925300D01*
X13799580Y-18895300D02*
X13769580Y-18925300D01*
X13779740Y-18501600D02*
X13809740Y-18531600D01*
X13809740Y-18501600D02*
X13779740Y-18531600D01*
X13784820Y-16609300D02*
X13814820Y-16639300D01*
X13814820Y-16609300D02*
X13784820Y-16639300D01*
X13787360Y-16741380D02*
X13817360Y-16771380D01*
X13817360Y-16741380D02*
X13787360Y-16771380D01*
X13791771Y-17245579D02*
X13821771Y-17275579D01*
X13821771Y-17245579D02*
X13791771Y-17275579D01*
X13854360Y-17295404D02*
X13884360Y-17325404D01*
X13884360Y-17295404D02*
X13854360Y-17325404D01*
X13866100Y-16685500D02*
X13896100Y-16715500D01*
X13896100Y-16685500D02*
X13866100Y-16715500D01*
X13921519Y-17341587D02*
X13951519Y-17371587D01*
X13951519Y-17341587D02*
X13921519Y-17371587D01*
X13947380Y-19682700D02*
X13977380Y-19712700D01*
X13977380Y-19682700D02*
X13947380Y-19712700D01*
X13957540Y-19289000D02*
X13987540Y-19319000D01*
X13987540Y-19289000D02*
X13957540Y-19319000D01*
X13981519Y-17404852D02*
X14011519Y-17434852D01*
X14011519Y-17404852D02*
X13981519Y-17434852D01*
X14041519Y-17351937D02*
X14071519Y-17381937D01*
X14071519Y-17351937D02*
X14041519Y-17381937D01*
X14101857Y-17414480D02*
X14131857Y-17444480D01*
X14131857Y-17414480D02*
X14101857Y-17444480D01*
X14102320Y-16517860D02*
X14132320Y-16547860D01*
X14132320Y-16517860D02*
X14102320Y-16547860D01*
X14125180Y-18107900D02*
X14155180Y-18137900D01*
X14155180Y-18107900D02*
X14125180Y-18137900D01*
X14127720Y-17714200D02*
X14157720Y-17744200D01*
X14157720Y-17714200D02*
X14127720Y-17744200D01*
X14161857Y-17356743D02*
X14191857Y-17386743D01*
X14191857Y-17356743D02*
X14161857Y-17386743D01*
X14244560Y-16637240D02*
X14274560Y-16667240D01*
X14274560Y-16637240D02*
X14244560Y-16667240D01*
X14276310Y-16448010D02*
X14306310Y-16478010D01*
X14306310Y-16448010D02*
X14276310Y-16478010D01*
X14283523Y-17360976D02*
X14313523Y-17390976D01*
X14313523Y-17360976D02*
X14283523Y-17390976D01*
X14302980Y-18895300D02*
X14332980Y-18925300D01*
X14332980Y-18895300D02*
X14302980Y-18925300D01*
X14313140Y-18501600D02*
X14343140Y-18531600D01*
X14343140Y-18501600D02*
X14313140Y-18531600D01*
X14314430Y-17281199D02*
X14344430Y-17311199D01*
X14344430Y-17281199D02*
X14314430Y-17311199D01*
X14384260Y-16461980D02*
X14414260Y-16491980D01*
X14414260Y-16461980D02*
X14384260Y-16491980D01*
X14421090Y-16773130D02*
X14451090Y-16803130D01*
X14451090Y-16773130D02*
X14421090Y-16803130D01*
X14470620Y-15047200D02*
X14500620Y-15077200D01*
X14500620Y-15047200D02*
X14470620Y-15077200D01*
X14475700Y-16837900D02*
X14505700Y-16867900D01*
X14505700Y-16837900D02*
X14475700Y-16867900D01*
X14480780Y-19682700D02*
X14510780Y-19712700D01*
X14510780Y-19682700D02*
X14480780Y-19712700D01*
X14490940Y-19289000D02*
X14520940Y-19319000D01*
X14520940Y-19289000D02*
X14490940Y-19319000D01*
X14498560Y-17231600D02*
X14528560Y-17261600D01*
X14528560Y-17231600D02*
X14498560Y-17261600D01*
X14539200Y-17005540D02*
X14569200Y-17035540D01*
X14569200Y-17005540D02*
X14539200Y-17035540D01*
X14540470Y-17314150D02*
X14570470Y-17344150D01*
X14570470Y-17314150D02*
X14540470Y-17344150D01*
X14550630Y-16166070D02*
X14580630Y-16196070D01*
X14580630Y-16166070D02*
X14550630Y-16196070D01*
X14592540Y-15354540D02*
X14622540Y-15384540D01*
X14622540Y-15354540D02*
X14592540Y-15384540D01*
X14592540Y-15699980D02*
X14622540Y-15729980D01*
X14622540Y-15699980D02*
X14592540Y-15729980D01*
X14592540Y-15788880D02*
X14622540Y-15818880D01*
X14622540Y-15788880D02*
X14592540Y-15818880D01*
X14615400Y-15156420D02*
X14645400Y-15186420D01*
X14645400Y-15156420D02*
X14615400Y-15186420D01*
X14658580Y-18107900D02*
X14688580Y-18137900D01*
X14688580Y-18107900D02*
X14658580Y-18137900D01*
X14661120Y-17714200D02*
X14691120Y-17744200D01*
X14691120Y-17714200D02*
X14661120Y-17744200D01*
X14714460Y-16238460D02*
X14744460Y-16268460D01*
X14744460Y-16238460D02*
X14714460Y-16268460D01*
X14836380Y-18895300D02*
X14866380Y-18925300D01*
X14866380Y-18895300D02*
X14836380Y-18925300D01*
X14846540Y-18501600D02*
X14876540Y-18531600D01*
X14876540Y-18501600D02*
X14846540Y-18531600D01*
X15014180Y-19682700D02*
X15044180Y-19712700D01*
X15044180Y-19682700D02*
X15014180Y-19712700D01*
X15024340Y-19289000D02*
X15054340Y-19319000D01*
X15054340Y-19289000D02*
X15024340Y-19319000D01*
X15191980Y-18107900D02*
X15221980Y-18137900D01*
X15221980Y-18107900D02*
X15191980Y-18137900D01*
X15194520Y-17714200D02*
X15224520Y-17744200D01*
X15224520Y-17714200D02*
X15194520Y-17744200D01*
X15207256Y-17115720D02*
X15237256Y-17145720D01*
X15237256Y-17115720D02*
X15207256Y-17145720D01*
X15246900Y-16865840D02*
X15276900Y-16895840D01*
X15276900Y-16865840D02*
X15246900Y-16895840D01*
X15247875Y-16945834D02*
X15277875Y-16975834D01*
X15277875Y-16945834D02*
X15247875Y-16975834D01*
X15263100Y-15169120D02*
X15293100Y-15199120D01*
X15293100Y-15169120D02*
X15263100Y-15199120D01*
X15268180Y-17211280D02*
X15298180Y-17241280D01*
X15298180Y-17211280D02*
X15268180Y-17241280D01*
X15313900Y-16342600D02*
X15343900Y-16372600D01*
X15343900Y-16342600D02*
X15313900Y-16372600D01*
X15314870Y-17049690D02*
X15344870Y-17079690D01*
X15344870Y-17049690D02*
X15314870Y-17079690D01*
X15329140Y-17295100D02*
X15359140Y-17325100D01*
X15359140Y-17295100D02*
X15329140Y-17325100D01*
X15331680Y-16962360D02*
X15361680Y-16992360D01*
X15361680Y-16962360D02*
X15331680Y-16992360D01*
X15369780Y-18895300D02*
X15399780Y-18925300D01*
X15399780Y-18895300D02*
X15369780Y-18925300D01*
X15379940Y-18501600D02*
X15409940Y-18531600D01*
X15409940Y-18501600D02*
X15379940Y-18531600D01*
X15385020Y-16609300D02*
X15415020Y-16639300D01*
X15415020Y-16609300D02*
X15385020Y-16639300D01*
X15387560Y-16741380D02*
X15417560Y-16771380D01*
X15417560Y-16741380D02*
X15387560Y-16771380D01*
X15391971Y-17245579D02*
X15421971Y-17275579D01*
X15421971Y-17245579D02*
X15391971Y-17275579D01*
X15454560Y-17295404D02*
X15484560Y-17325404D01*
X15484560Y-17295404D02*
X15454560Y-17325404D01*
X15466300Y-16685500D02*
X15496300Y-16715500D01*
X15496300Y-16685500D02*
X15466300Y-16715500D01*
X15521719Y-17341587D02*
X15551719Y-17371587D01*
X15551719Y-17341587D02*
X15521719Y-17371587D01*
X15547580Y-19682700D02*
X15577580Y-19712700D01*
X15577580Y-19682700D02*
X15547580Y-19712700D01*
X15557740Y-19289000D02*
X15587740Y-19319000D01*
X15587740Y-19289000D02*
X15557740Y-19319000D01*
X15581719Y-17404852D02*
X15611719Y-17434852D01*
X15611719Y-17404852D02*
X15581719Y-17434852D01*
X15641719Y-17351937D02*
X15671719Y-17381937D01*
X15671719Y-17351937D02*
X15641719Y-17381937D01*
X15702057Y-17414480D02*
X15732057Y-17444480D01*
X15732057Y-17414480D02*
X15702057Y-17444480D01*
X15702520Y-16517860D02*
X15732520Y-16547860D01*
X15732520Y-16517860D02*
X15702520Y-16547860D01*
X15725380Y-18107900D02*
X15755380Y-18137900D01*
X15755380Y-18107900D02*
X15725380Y-18137900D01*
X15727920Y-17714200D02*
X15757920Y-17744200D01*
X15757920Y-17714200D02*
X15727920Y-17744200D01*
X15762057Y-17356743D02*
X15792057Y-17386743D01*
X15792057Y-17356743D02*
X15762057Y-17386743D01*
X15844760Y-16637240D02*
X15874760Y-16667240D01*
X15874760Y-16637240D02*
X15844760Y-16667240D01*
X15876510Y-16448010D02*
X15906510Y-16478010D01*
X15906510Y-16448010D02*
X15876510Y-16478010D01*
X15883723Y-17360976D02*
X15913723Y-17390976D01*
X15913723Y-17360976D02*
X15883723Y-17390976D01*
X15903180Y-18895300D02*
X15933180Y-18925300D01*
X15933180Y-18895300D02*
X15903180Y-18925300D01*
X15913340Y-18501600D02*
X15943340Y-18531600D01*
X15943340Y-18501600D02*
X15913340Y-18531600D01*
X15914630Y-17281199D02*
X15944630Y-17311199D01*
X15944630Y-17281199D02*
X15914630Y-17311199D01*
X15984460Y-16461980D02*
X16014460Y-16491980D01*
X16014460Y-16461980D02*
X15984460Y-16491980D01*
X16021290Y-16773130D02*
X16051290Y-16803130D01*
X16051290Y-16773130D02*
X16021290Y-16803130D01*
X16075900Y-16837900D02*
X16105900Y-16867900D01*
X16105900Y-16837900D02*
X16075900Y-16867900D01*
X16080980Y-19682700D02*
X16110980Y-19712700D01*
X16110980Y-19682700D02*
X16080980Y-19712700D01*
X16091140Y-19289000D02*
X16121140Y-19319000D01*
X16121140Y-19289000D02*
X16091140Y-19319000D01*
X16098760Y-17231600D02*
X16128760Y-17261600D01*
X16128760Y-17231600D02*
X16098760Y-17261600D01*
X16136860Y-15158960D02*
X16166860Y-15188960D01*
X16166860Y-15158960D02*
X16136860Y-15188960D01*
X16139400Y-17005540D02*
X16169400Y-17035540D01*
X16169400Y-17005540D02*
X16139400Y-17035540D01*
X16140670Y-17314150D02*
X16170670Y-17344150D01*
X16170670Y-17314150D02*
X16140670Y-17344150D01*
X16150830Y-16166070D02*
X16180830Y-16196070D01*
X16180830Y-16166070D02*
X16150830Y-16196070D01*
X16192740Y-15354540D02*
X16222740Y-15384540D01*
X16222740Y-15354540D02*
X16192740Y-15384540D01*
X16192740Y-15699980D02*
X16222740Y-15729980D01*
X16222740Y-15699980D02*
X16192740Y-15729980D01*
X16192740Y-15788880D02*
X16222740Y-15818880D01*
X16222740Y-15788880D02*
X16192740Y-15818880D01*
X16258780Y-18107900D02*
X16288780Y-18137900D01*
X16288780Y-18107900D02*
X16258780Y-18137900D01*
X16261320Y-17714200D02*
X16291320Y-17744200D01*
X16291320Y-17714200D02*
X16261320Y-17744200D01*
X16319740Y-16215600D02*
X16349740Y-16245600D01*
X16349740Y-16215600D02*
X16319740Y-16245600D01*
X16436580Y-18895300D02*
X16466580Y-18925300D01*
X16466580Y-18895300D02*
X16436580Y-18925300D01*
X16446740Y-18501600D02*
X16476740Y-18531600D01*
X16476740Y-18501600D02*
X16446740Y-18531600D01*
X16479750Y-14082000D02*
X16509750Y-14112000D01*
X16509750Y-14082000D02*
X16479750Y-14112000D01*
X16487370Y-14272500D02*
X16517370Y-14302500D01*
X16517370Y-14272500D02*
X16487370Y-14302500D01*
X16614380Y-19682700D02*
X16644380Y-19712700D01*
X16644380Y-19682700D02*
X16614380Y-19712700D01*
X16624540Y-19289000D02*
X16654540Y-19319000D01*
X16654540Y-19289000D02*
X16624540Y-19319000D01*
X16682960Y-15115780D02*
X16712960Y-15145780D01*
X16712960Y-15115780D02*
X16682960Y-15145780D01*
X16792180Y-18107900D02*
X16822180Y-18137900D01*
X16822180Y-18107900D02*
X16792180Y-18137900D01*
X16794720Y-17714200D02*
X16824720Y-17744200D01*
X16824720Y-17714200D02*
X16794720Y-17744200D01*
X16807457Y-17115720D02*
X16837457Y-17145720D01*
X16837457Y-17115720D02*
X16807457Y-17145720D01*
X16809950Y-14082000D02*
X16839950Y-14112000D01*
X16839950Y-14082000D02*
X16809950Y-14112000D01*
X16847100Y-16865840D02*
X16877100Y-16895840D01*
X16877100Y-16865840D02*
X16847100Y-16895840D01*
X16848075Y-16945834D02*
X16878075Y-16975834D01*
X16878075Y-16945834D02*
X16848075Y-16975834D01*
X16868380Y-17211280D02*
X16898380Y-17241280D01*
X16898380Y-17211280D02*
X16868380Y-17241280D01*
X16914100Y-16342600D02*
X16944100Y-16372600D01*
X16944100Y-16342600D02*
X16914100Y-16372600D01*
X16915070Y-17049690D02*
X16945070Y-17079690D01*
X16945070Y-17049690D02*
X16915070Y-17079690D01*
X16929340Y-17295100D02*
X16959340Y-17325100D01*
X16959340Y-17295100D02*
X16929340Y-17325100D01*
X16931880Y-16962360D02*
X16961880Y-16992360D01*
X16961880Y-16962360D02*
X16931880Y-16992360D01*
X16969980Y-18895300D02*
X16999980Y-18925300D01*
X16999980Y-18895300D02*
X16969980Y-18925300D01*
X16980140Y-18501600D02*
X17010140Y-18531600D01*
X17010140Y-18501600D02*
X16980140Y-18531600D01*
X16985220Y-16609300D02*
X17015220Y-16639300D01*
X17015220Y-16609300D02*
X16985220Y-16639300D01*
X16987760Y-16741380D02*
X17017760Y-16771380D01*
X17017760Y-16741380D02*
X16987760Y-16771380D01*
X16992171Y-17245579D02*
X17022171Y-17275579D01*
X17022171Y-17245579D02*
X16992171Y-17275579D01*
X17036010Y-14534120D02*
X17066010Y-14564120D01*
X17066010Y-14534120D02*
X17036010Y-14564120D01*
X17036010Y-14623020D02*
X17066010Y-14653020D01*
X17066010Y-14623020D02*
X17036010Y-14653020D01*
X17036010Y-14711920D02*
X17066010Y-14741920D01*
X17066010Y-14711920D02*
X17036010Y-14741920D01*
X17036010Y-14800820D02*
X17066010Y-14830820D01*
X17066010Y-14800820D02*
X17036010Y-14830820D01*
X17036010Y-14889720D02*
X17066010Y-14919720D01*
X17066010Y-14889720D02*
X17036010Y-14919720D01*
X17054760Y-17295404D02*
X17084760Y-17325404D01*
X17084760Y-17295404D02*
X17054760Y-17325404D01*
X17066500Y-16685500D02*
X17096500Y-16715500D01*
X17096500Y-16685500D02*
X17066500Y-16715500D01*
X17105920Y-15166100D02*
X17135920Y-15196100D01*
X17135920Y-15166100D02*
X17105920Y-15196100D01*
X17121919Y-17341587D02*
X17151919Y-17371587D01*
X17151919Y-17341587D02*
X17121919Y-17371587D01*
X17140150Y-14082000D02*
X17170150Y-14112000D01*
X17170150Y-14082000D02*
X17140150Y-14112000D01*
X17147780Y-19682700D02*
X17177780Y-19712700D01*
X17177780Y-19682700D02*
X17147780Y-19712700D01*
X17157940Y-19289000D02*
X17187940Y-19319000D01*
X17187940Y-19289000D02*
X17157940Y-19319000D01*
X17181919Y-17404852D02*
X17211919Y-17434852D01*
X17211919Y-17404852D02*
X17181919Y-17434852D01*
X17197360Y-15166100D02*
X17227360Y-15196100D01*
X17227360Y-15166100D02*
X17197360Y-15196100D01*
X17241919Y-17351937D02*
X17271919Y-17381937D01*
X17271919Y-17351937D02*
X17241919Y-17381937D01*
X17283720Y-15166100D02*
X17313720Y-15196100D01*
X17313720Y-15166100D02*
X17283720Y-15196100D01*
X17302257Y-17414480D02*
X17332257Y-17444480D01*
X17332257Y-17414480D02*
X17302257Y-17444480D01*
X17302720Y-16517860D02*
X17332720Y-16547860D01*
X17332720Y-16517860D02*
X17302720Y-16547860D01*
X17325580Y-18107900D02*
X17355580Y-18137900D01*
X17355580Y-18107900D02*
X17325580Y-18137900D01*
X17328120Y-17714200D02*
X17358120Y-17744200D01*
X17358120Y-17714200D02*
X17328120Y-17744200D01*
X17362257Y-17356743D02*
X17392257Y-17386743D01*
X17392257Y-17356743D02*
X17362257Y-17386743D01*
X17444960Y-16637240D02*
X17474960Y-16667240D01*
X17474960Y-16637240D02*
X17444960Y-16667240D01*
X17453900Y-15161020D02*
X17483900Y-15191020D01*
X17483900Y-15161020D02*
X17453900Y-15191020D01*
X17472890Y-14079450D02*
X17502890Y-14109450D01*
X17502890Y-14079450D02*
X17472890Y-14109450D01*
X17476710Y-16448010D02*
X17506710Y-16478010D01*
X17506710Y-16448010D02*
X17476710Y-16478010D01*
X17483923Y-17360976D02*
X17513923Y-17390976D01*
X17513923Y-17360976D02*
X17483923Y-17390976D01*
X17503380Y-18895300D02*
X17533380Y-18925300D01*
X17533380Y-18895300D02*
X17503380Y-18925300D01*
X17513540Y-18501600D02*
X17543540Y-18531600D01*
X17543540Y-18501600D02*
X17513540Y-18531600D01*
X17514830Y-17281199D02*
X17544830Y-17311199D01*
X17544830Y-17281199D02*
X17514830Y-17311199D01*
X17527560Y-14655560D02*
X17557560Y-14685560D01*
X17557560Y-14655560D02*
X17527560Y-14685560D01*
X17547880Y-15161020D02*
X17577880Y-15191020D01*
X17577880Y-15161020D02*
X17547880Y-15191020D01*
X17584660Y-16461980D02*
X17614660Y-16491980D01*
X17614660Y-16461980D02*
X17584660Y-16491980D01*
X17621490Y-16773130D02*
X17651490Y-16803130D01*
X17651490Y-16773130D02*
X17621490Y-16803130D01*
X17626620Y-14655560D02*
X17656620Y-14685560D01*
X17656620Y-14655560D02*
X17626620Y-14685560D01*
X17649480Y-15161020D02*
X17679480Y-15191020D01*
X17679480Y-15161020D02*
X17649480Y-15191020D01*
X17676100Y-16837900D02*
X17706100Y-16867900D01*
X17706100Y-16837900D02*
X17676100Y-16867900D01*
X17681180Y-19682700D02*
X17711180Y-19712700D01*
X17711180Y-19682700D02*
X17681180Y-19712700D01*
X17691340Y-19289000D02*
X17721340Y-19319000D01*
X17721340Y-19289000D02*
X17691340Y-19319000D01*
X17698960Y-17231600D02*
X17728960Y-17261600D01*
X17728960Y-17231600D02*
X17698960Y-17261600D01*
X17738380Y-14655560D02*
X17768380Y-14685560D01*
X17768380Y-14655560D02*
X17738380Y-14685560D01*
X17739600Y-17005540D02*
X17769600Y-17035540D01*
X17769600Y-17005540D02*
X17739600Y-17035540D01*
X17740870Y-17314150D02*
X17770870Y-17344150D01*
X17770870Y-17314150D02*
X17740870Y-17344150D01*
X17751030Y-16166070D02*
X17781030Y-16196070D01*
X17781030Y-16166070D02*
X17751030Y-16196070D01*
X17792940Y-15354540D02*
X17822940Y-15384540D01*
X17822940Y-15354540D02*
X17792940Y-15384540D01*
X17792940Y-15699980D02*
X17822940Y-15729980D01*
X17822940Y-15699980D02*
X17792940Y-15729980D01*
X17792940Y-15788880D02*
X17822940Y-15818880D01*
X17822940Y-15788880D02*
X17792940Y-15818880D01*
X17794260Y-15161020D02*
X17824260Y-15191020D01*
X17824260Y-15161020D02*
X17794260Y-15191020D01*
X17800550Y-14082000D02*
X17830550Y-14112000D01*
X17830550Y-14082000D02*
X17800550Y-14112000D01*
X17858980Y-18107900D02*
X17888980Y-18137900D01*
X17888980Y-18107900D02*
X17858980Y-18137900D01*
X17861520Y-17714200D02*
X17891520Y-17744200D01*
X17891520Y-17714200D02*
X17861520Y-17744200D01*
X17979680Y-15016240D02*
X18009680Y-15046240D01*
X18009680Y-15016240D02*
X17979680Y-15046240D01*
X17996140Y-15697440D02*
X18026140Y-15727440D01*
X18026140Y-15697440D02*
X17996140Y-15727440D01*
X18036780Y-18895300D02*
X18066780Y-18925300D01*
X18066780Y-18895300D02*
X18036780Y-18925300D01*
X18046940Y-18501600D02*
X18076940Y-18531600D01*
X18076940Y-18501600D02*
X18046940Y-18531600D01*
X18078740Y-15016240D02*
X18108740Y-15046240D01*
X18108740Y-15016240D02*
X18078740Y-15046240D01*
X18130750Y-14082000D02*
X18160750Y-14112000D01*
X18160750Y-14082000D02*
X18130750Y-14112000D01*
X18172720Y-15016240D02*
X18202720Y-15046240D01*
X18202720Y-15016240D02*
X18172720Y-15046240D01*
X18214580Y-19682700D02*
X18244580Y-19712700D01*
X18244580Y-19682700D02*
X18214580Y-19712700D01*
X18224740Y-19289000D02*
X18254740Y-19319000D01*
X18254740Y-19289000D02*
X18224740Y-19319000D01*
X18293320Y-14920200D02*
X18323320Y-14950200D01*
X18323320Y-14920200D02*
X18293320Y-14950200D01*
X18392380Y-18107900D02*
X18422380Y-18137900D01*
X18422380Y-18107900D02*
X18392380Y-18137900D01*
X18394920Y-17714200D02*
X18424920Y-17744200D01*
X18424920Y-17714200D02*
X18394920Y-17744200D01*
X18407620Y-14620480D02*
X18437620Y-14650480D01*
X18437620Y-14620480D02*
X18407620Y-14650480D01*
X18407657Y-17115720D02*
X18437657Y-17145720D01*
X18437657Y-17115720D02*
X18407657Y-17145720D01*
X18447300Y-16865840D02*
X18477300Y-16895840D01*
X18477300Y-16865840D02*
X18447300Y-16895840D01*
X18448275Y-16945834D02*
X18478275Y-16975834D01*
X18478275Y-16945834D02*
X18448275Y-16975834D01*
X18468580Y-17211280D02*
X18498580Y-17241280D01*
X18498580Y-17211280D02*
X18468580Y-17241280D01*
X18514300Y-16342600D02*
X18544300Y-16372600D01*
X18544300Y-16342600D02*
X18514300Y-16372600D01*
X18515270Y-17049690D02*
X18545270Y-17079690D01*
X18545270Y-17049690D02*
X18515270Y-17079690D01*
X18529540Y-17295100D02*
X18559540Y-17325100D01*
X18559540Y-17295100D02*
X18529540Y-17325100D01*
X18532080Y-16962360D02*
X18562080Y-16992360D01*
X18562080Y-16962360D02*
X18532080Y-16992360D01*
X18570180Y-18895300D02*
X18600180Y-18925300D01*
X18600180Y-18895300D02*
X18570180Y-18925300D01*
X18580340Y-18501600D02*
X18610340Y-18531600D01*
X18610340Y-18501600D02*
X18580340Y-18531600D01*
X18585420Y-16609300D02*
X18615420Y-16639300D01*
X18615420Y-16609300D02*
X18585420Y-16639300D01*
X18587960Y-16741380D02*
X18617960Y-16771380D01*
X18617960Y-16741380D02*
X18587960Y-16771380D01*
X18592371Y-17245579D02*
X18622371Y-17275579D01*
X18622371Y-17245579D02*
X18592371Y-17275579D01*
X18654960Y-17295404D02*
X18684960Y-17325404D01*
X18684960Y-17295404D02*
X18654960Y-17325404D01*
X18666700Y-16685500D02*
X18696700Y-16715500D01*
X18696700Y-16685500D02*
X18666700Y-16715500D01*
X18722119Y-17341587D02*
X18752119Y-17371587D01*
X18752119Y-17341587D02*
X18722119Y-17371587D01*
X18747980Y-19682700D02*
X18777980Y-19712700D01*
X18777980Y-19682700D02*
X18747980Y-19712700D01*
X18758140Y-19289000D02*
X18788140Y-19319000D01*
X18788140Y-19289000D02*
X18758140Y-19319000D01*
X18782119Y-17404852D02*
X18812119Y-17434852D01*
X18812119Y-17404852D02*
X18782119Y-17434852D01*
X18842119Y-17351937D02*
X18872119Y-17381937D01*
X18872119Y-17351937D02*
X18842119Y-17381937D01*
X18902457Y-17414480D02*
X18932457Y-17444480D01*
X18932457Y-17414480D02*
X18902457Y-17444480D01*
X18902920Y-16517860D02*
X18932920Y-16547860D01*
X18932920Y-16517860D02*
X18902920Y-16547860D01*
X18925780Y-18107900D02*
X18955780Y-18137900D01*
X18955780Y-18107900D02*
X18925780Y-18137900D01*
X18928320Y-17714200D02*
X18958320Y-17744200D01*
X18958320Y-17714200D02*
X18928320Y-17744200D01*
X18962457Y-17356743D02*
X18992457Y-17386743D01*
X18992457Y-17356743D02*
X18962457Y-17386743D01*
X18966430Y-15143720D02*
X18996430Y-15173720D01*
X18996430Y-15143720D02*
X18966430Y-15173720D01*
X19045160Y-16637240D02*
X19075160Y-16667240D01*
X19075160Y-16637240D02*
X19045160Y-16667240D01*
X19076910Y-16448010D02*
X19106910Y-16478010D01*
X19106910Y-16448010D02*
X19076910Y-16478010D01*
X19084123Y-17360976D02*
X19114123Y-17390976D01*
X19114123Y-17360976D02*
X19084123Y-17390976D01*
X19103580Y-18895300D02*
X19133580Y-18925300D01*
X19133580Y-18895300D02*
X19103580Y-18925300D01*
X19113740Y-18501600D02*
X19143740Y-18531600D01*
X19143740Y-18501600D02*
X19113740Y-18531600D01*
X19115030Y-17281199D02*
X19145030Y-17311199D01*
X19145030Y-17281199D02*
X19115030Y-17311199D01*
X19184860Y-16461980D02*
X19214860Y-16491980D01*
X19214860Y-16461980D02*
X19184860Y-16491980D01*
X19221690Y-16773130D02*
X19251690Y-16803130D01*
X19251690Y-16773130D02*
X19221690Y-16803130D01*
X19276300Y-16837900D02*
X19306300Y-16867900D01*
X19306300Y-16837900D02*
X19276300Y-16867900D01*
X19281380Y-19682700D02*
X19311380Y-19712700D01*
X19311380Y-19682700D02*
X19281380Y-19712700D01*
X19291540Y-19289000D02*
X19321540Y-19319000D01*
X19321540Y-19289000D02*
X19291540Y-19319000D01*
X19299160Y-17231600D02*
X19329160Y-17261600D01*
X19329160Y-17231600D02*
X19299160Y-17261600D01*
X19339800Y-17005540D02*
X19369800Y-17035540D01*
X19369800Y-17005540D02*
X19339800Y-17035540D01*
X19341070Y-17314150D02*
X19371070Y-17344150D01*
X19371070Y-17314150D02*
X19341070Y-17344150D01*
X19351230Y-16166070D02*
X19381230Y-16196070D01*
X19381230Y-16166070D02*
X19351230Y-16196070D01*
X19393140Y-15354540D02*
X19423140Y-15384540D01*
X19423140Y-15354540D02*
X19393140Y-15384540D01*
X19393140Y-15699980D02*
X19423140Y-15729980D01*
X19423140Y-15699980D02*
X19393140Y-15729980D01*
X19393140Y-15788880D02*
X19423140Y-15818880D01*
X19423140Y-15788880D02*
X19393140Y-15818880D01*
X19459180Y-18107900D02*
X19489180Y-18137900D01*
X19489180Y-18107900D02*
X19459180Y-18137900D01*
X19461720Y-17714200D02*
X19491720Y-17744200D01*
X19491720Y-17714200D02*
X19461720Y-17744200D01*
X19570940Y-15138640D02*
X19600940Y-15168640D01*
X19600940Y-15138640D02*
X19570940Y-15168640D01*
X19636980Y-18895300D02*
X19666980Y-18925300D01*
X19666980Y-18895300D02*
X19636980Y-18925300D01*
X19647140Y-18501600D02*
X19677140Y-18531600D01*
X19677140Y-18501600D02*
X19647140Y-18531600D01*
X19690320Y-15600920D02*
X19720320Y-15630920D01*
X19720320Y-15600920D02*
X19690320Y-15630920D01*
X19814780Y-19682700D02*
X19844780Y-19712700D01*
X19844780Y-19682700D02*
X19814780Y-19712700D01*
X19824940Y-19289000D02*
X19854940Y-19319000D01*
X19854940Y-19289000D02*
X19824940Y-19319000D01*
X19992580Y-18107900D02*
X20022580Y-18137900D01*
X20022580Y-18107900D02*
X19992580Y-18137900D01*
X19995120Y-17714200D02*
X20025120Y-17744200D01*
X20025120Y-17714200D02*
X19995120Y-17744200D01*
X20007857Y-17115720D02*
X20037857Y-17145720D01*
X20037857Y-17115720D02*
X20007857Y-17145720D01*
X20047500Y-16865840D02*
X20077500Y-16895840D01*
X20077500Y-16865840D02*
X20047500Y-16895840D01*
X20048475Y-16945834D02*
X20078475Y-16975834D01*
X20078475Y-16945834D02*
X20048475Y-16975834D01*
X20068780Y-17211280D02*
X20098780Y-17241280D01*
X20098780Y-17211280D02*
X20068780Y-17241280D01*
X20114500Y-16342600D02*
X20144500Y-16372600D01*
X20144500Y-16342600D02*
X20114500Y-16372600D01*
X20115470Y-17049690D02*
X20145470Y-17079690D01*
X20145470Y-17049690D02*
X20115470Y-17079690D01*
X20129740Y-17295100D02*
X20159740Y-17325100D01*
X20159740Y-17295100D02*
X20129740Y-17325100D01*
X20132280Y-16962360D02*
X20162280Y-16992360D01*
X20162280Y-16962360D02*
X20132280Y-16992360D01*
X20170380Y-18895300D02*
X20200380Y-18925300D01*
X20200380Y-18895300D02*
X20170380Y-18925300D01*
X20180540Y-18501600D02*
X20210540Y-18531600D01*
X20210540Y-18501600D02*
X20180540Y-18531600D01*
X20185620Y-16609300D02*
X20215620Y-16639300D01*
X20215620Y-16609300D02*
X20185620Y-16639300D01*
X20188160Y-16741380D02*
X20218160Y-16771380D01*
X20218160Y-16741380D02*
X20188160Y-16771380D01*
X20192571Y-17245579D02*
X20222571Y-17275579D01*
X20222571Y-17245579D02*
X20192571Y-17275579D01*
X20255160Y-17295404D02*
X20285160Y-17325404D01*
X20285160Y-17295404D02*
X20255160Y-17325404D01*
X20266900Y-16685500D02*
X20296900Y-16715500D01*
X20296900Y-16685500D02*
X20266900Y-16715500D01*
X20322319Y-17341587D02*
X20352319Y-17371587D01*
X20352319Y-17341587D02*
X20322319Y-17371587D01*
X20348180Y-19682700D02*
X20378180Y-19712700D01*
X20378180Y-19682700D02*
X20348180Y-19712700D01*
X20358340Y-19289000D02*
X20388340Y-19319000D01*
X20388340Y-19289000D02*
X20358340Y-19319000D01*
X20382319Y-17404852D02*
X20412319Y-17434852D01*
X20412319Y-17404852D02*
X20382319Y-17434852D01*
X20442319Y-17351937D02*
X20472319Y-17381937D01*
X20472319Y-17351937D02*
X20442319Y-17381937D01*
X20502657Y-17414480D02*
X20532657Y-17444480D01*
X20532657Y-17414480D02*
X20502657Y-17444480D01*
X20503120Y-16517860D02*
X20533120Y-16547860D01*
X20533120Y-16517860D02*
X20503120Y-16547860D01*
X20525980Y-18107900D02*
X20555980Y-18137900D01*
X20555980Y-18107900D02*
X20525980Y-18137900D01*
X20528520Y-17714200D02*
X20558520Y-17744200D01*
X20558520Y-17714200D02*
X20528520Y-17744200D01*
X20562657Y-17356743D02*
X20592657Y-17386743D01*
X20592657Y-17356743D02*
X20562657Y-17386743D01*
X20645360Y-16637240D02*
X20675360Y-16667240D01*
X20675360Y-16637240D02*
X20645360Y-16667240D01*
X20677110Y-16448010D02*
X20707110Y-16478010D01*
X20707110Y-16448010D02*
X20677110Y-16478010D01*
X20684323Y-17360976D02*
X20714323Y-17390976D01*
X20714323Y-17360976D02*
X20684323Y-17390976D01*
X20703780Y-18895300D02*
X20733780Y-18925300D01*
X20733780Y-18895300D02*
X20703780Y-18925300D01*
X20713940Y-18501600D02*
X20743940Y-18531600D01*
X20743940Y-18501600D02*
X20713940Y-18531600D01*
X20715230Y-17281199D02*
X20745230Y-17311199D01*
X20745230Y-17281199D02*
X20715230Y-17311199D01*
X20785060Y-16461980D02*
X20815060Y-16491980D01*
X20815060Y-16461980D02*
X20785060Y-16491980D01*
X20821890Y-16773130D02*
X20851890Y-16803130D01*
X20851890Y-16773130D02*
X20821890Y-16803130D01*
X20876500Y-16837900D02*
X20906500Y-16867900D01*
X20906500Y-16837900D02*
X20876500Y-16867900D01*
X20881580Y-19682700D02*
X20911580Y-19712700D01*
X20911580Y-19682700D02*
X20881580Y-19712700D01*
X20891740Y-19289000D02*
X20921740Y-19319000D01*
X20921740Y-19289000D02*
X20891740Y-19319000D01*
X20899360Y-17231600D02*
X20929360Y-17261600D01*
X20929360Y-17231600D02*
X20899360Y-17261600D01*
X20940000Y-17005540D02*
X20970000Y-17035540D01*
X20970000Y-17005540D02*
X20940000Y-17035540D01*
X20941270Y-17314150D02*
X20971270Y-17344150D01*
X20971270Y-17314150D02*
X20941270Y-17344150D01*
X20951430Y-16166070D02*
X20981430Y-16196070D01*
X20981430Y-16166070D02*
X20951430Y-16196070D01*
X20993340Y-15354540D02*
X21023340Y-15384540D01*
X21023340Y-15354540D02*
X20993340Y-15384540D01*
X20993340Y-15699980D02*
X21023340Y-15729980D01*
X21023340Y-15699980D02*
X20993340Y-15729980D01*
X20993340Y-15788880D02*
X21023340Y-15818880D01*
X21023340Y-15788880D02*
X20993340Y-15818880D01*
X21059380Y-18107900D02*
X21089380Y-18137900D01*
X21089380Y-18107900D02*
X21059380Y-18137900D01*
X21061920Y-17714200D02*
X21091920Y-17744200D01*
X21091920Y-17714200D02*
X21061920Y-17744200D01*
X21237180Y-18895300D02*
X21267180Y-18925300D01*
X21267180Y-18895300D02*
X21237180Y-18925300D01*
X21247340Y-18501600D02*
X21277340Y-18531600D01*
X21277340Y-18501600D02*
X21247340Y-18531600D01*
X21414980Y-19682700D02*
X21444980Y-19712700D01*
X21444980Y-19682700D02*
X21414980Y-19712700D01*
X21425140Y-19289000D02*
X21455140Y-19319000D01*
X21455140Y-19289000D02*
X21425140Y-19319000D01*
X21592780Y-18107900D02*
X21622780Y-18137900D01*
X21622780Y-18107900D02*
X21592780Y-18137900D01*
X21595320Y-17714200D02*
X21625320Y-17744200D01*
X21625320Y-17714200D02*
X21595320Y-17744200D01*
X21608057Y-17115720D02*
X21638057Y-17145720D01*
X21638057Y-17115720D02*
X21608057Y-17145720D01*
X21647700Y-16865840D02*
X21677700Y-16895840D01*
X21677700Y-16865840D02*
X21647700Y-16895840D01*
X21648675Y-16945834D02*
X21678675Y-16975834D01*
X21678675Y-16945834D02*
X21648675Y-16975834D01*
X21668980Y-17211280D02*
X21698980Y-17241280D01*
X21698980Y-17211280D02*
X21668980Y-17241280D01*
X21714700Y-16342600D02*
X21744700Y-16372600D01*
X21744700Y-16342600D02*
X21714700Y-16372600D01*
X21715670Y-17049690D02*
X21745670Y-17079690D01*
X21745670Y-17049690D02*
X21715670Y-17079690D01*
X21729940Y-17295100D02*
X21759940Y-17325100D01*
X21759940Y-17295100D02*
X21729940Y-17325100D01*
X21732480Y-16962360D02*
X21762480Y-16992360D01*
X21762480Y-16962360D02*
X21732480Y-16992360D01*
X21770580Y-18895300D02*
X21800580Y-18925300D01*
X21800580Y-18895300D02*
X21770580Y-18925300D01*
X21780740Y-18501600D02*
X21810740Y-18531600D01*
X21810740Y-18501600D02*
X21780740Y-18531600D01*
X21785820Y-16609300D02*
X21815820Y-16639300D01*
X21815820Y-16609300D02*
X21785820Y-16639300D01*
X21788360Y-16741380D02*
X21818360Y-16771380D01*
X21818360Y-16741380D02*
X21788360Y-16771380D01*
X21792771Y-17245579D02*
X21822771Y-17275579D01*
X21822771Y-17245579D02*
X21792771Y-17275579D01*
X21855360Y-17295404D02*
X21885360Y-17325404D01*
X21885360Y-17295404D02*
X21855360Y-17325404D01*
X21867100Y-16685500D02*
X21897100Y-16715500D01*
X21897100Y-16685500D02*
X21867100Y-16715500D01*
X21922519Y-17341587D02*
X21952519Y-17371587D01*
X21952519Y-17341587D02*
X21922519Y-17371587D01*
X21948380Y-19682700D02*
X21978380Y-19712700D01*
X21978380Y-19682700D02*
X21948380Y-19712700D01*
X21958540Y-19289000D02*
X21988540Y-19319000D01*
X21988540Y-19289000D02*
X21958540Y-19319000D01*
X21982519Y-17404852D02*
X22012519Y-17434852D01*
X22012519Y-17404852D02*
X21982519Y-17434852D01*
X21999180Y-15298660D02*
X22029180Y-15328660D01*
X22029180Y-15298660D02*
X21999180Y-15328660D01*
X22042519Y-17351937D02*
X22072519Y-17381937D01*
X22072519Y-17351937D02*
X22042519Y-17381937D01*
X22065220Y-15202140D02*
X22095220Y-15232140D01*
X22095220Y-15202140D02*
X22065220Y-15232140D01*
X22102857Y-17414480D02*
X22132857Y-17444480D01*
X22132857Y-17414480D02*
X22102857Y-17444480D01*
X22103320Y-16517860D02*
X22133320Y-16547860D01*
X22133320Y-16517860D02*
X22103320Y-16547860D01*
X22126180Y-18107900D02*
X22156180Y-18137900D01*
X22156180Y-18107900D02*
X22126180Y-18137900D01*
X22128720Y-17714200D02*
X22158720Y-17744200D01*
X22158720Y-17714200D02*
X22128720Y-17744200D01*
X22162857Y-17356743D02*
X22192857Y-17386743D01*
X22192857Y-17356743D02*
X22162857Y-17386743D01*
X22245560Y-16637240D02*
X22275560Y-16667240D01*
X22275560Y-16637240D02*
X22245560Y-16667240D01*
X22277310Y-16448010D02*
X22307310Y-16478010D01*
X22307310Y-16448010D02*
X22277310Y-16478010D01*
X22284523Y-17360976D02*
X22314523Y-17390976D01*
X22314523Y-17360976D02*
X22284523Y-17390976D01*
X22303980Y-18895300D02*
X22333980Y-18925300D01*
X22333980Y-18895300D02*
X22303980Y-18925300D01*
X22314140Y-18501600D02*
X22344140Y-18531600D01*
X22344140Y-18501600D02*
X22314140Y-18531600D01*
X22315430Y-17281199D02*
X22345430Y-17311199D01*
X22345430Y-17281199D02*
X22315430Y-17311199D01*
X22385260Y-16461980D02*
X22415260Y-16491980D01*
X22415260Y-16461980D02*
X22385260Y-16491980D01*
X22422090Y-16773130D02*
X22452090Y-16803130D01*
X22452090Y-16773130D02*
X22422090Y-16803130D01*
X22476700Y-16837900D02*
X22506700Y-16867900D01*
X22506700Y-16837900D02*
X22476700Y-16867900D01*
X22481780Y-19682700D02*
X22511780Y-19712700D01*
X22511780Y-19682700D02*
X22481780Y-19712700D01*
X22491940Y-19289000D02*
X22521940Y-19319000D01*
X22521940Y-19289000D02*
X22491940Y-19319000D01*
X22499560Y-17231600D02*
X22529560Y-17261600D01*
X22529560Y-17231600D02*
X22499560Y-17261600D01*
X22540200Y-17005540D02*
X22570200Y-17035540D01*
X22570200Y-17005540D02*
X22540200Y-17035540D01*
X22541470Y-17314150D02*
X22571470Y-17344150D01*
X22571470Y-17314150D02*
X22541470Y-17344150D01*
X22546550Y-16160990D02*
X22576550Y-16190990D01*
X22576550Y-16160990D02*
X22546550Y-16190990D01*
X22555440Y-15354540D02*
X22585440Y-15384540D01*
X22585440Y-15354540D02*
X22555440Y-15384540D01*
X22563060Y-15699980D02*
X22593060Y-15729980D01*
X22593060Y-15699980D02*
X22563060Y-15729980D01*
X22563060Y-15788880D02*
X22593060Y-15818880D01*
X22593060Y-15788880D02*
X22563060Y-15818880D01*
X10004020Y-14124940D02*
G75*
G02*
X9954020Y-14124940I-25000J0D01*
G01*
X9954020Y-14124940D02*
G75*
G02*
X10004020Y-14124940I25000J0D01*
G01*
X10085298Y-13928718D02*
G75*
G02*
X10035298Y-13928718I-25000J0D01*
G01*
X10035298Y-13928718D02*
G75*
G02*
X10085298Y-13928718I25000J0D01*
G01*
X10085298Y-14321162D02*
G75*
G02*
X10035298Y-14321162I-25000J0D01*
G01*
X10035298Y-14321162D02*
G75*
G02*
X10085298Y-14321162I25000J0D01*
G01*
X10281520Y-13847440D02*
G75*
G02*
X10231520Y-13847440I-25000J0D01*
G01*
X10231520Y-13847440D02*
G75*
G02*
X10281520Y-13847440I25000J0D01*
G01*
X10281520Y-14402440D02*
G75*
G02*
X10231520Y-14402440I-25000J0D01*
G01*
X10231520Y-14402440D02*
G75*
G02*
X10281520Y-14402440I25000J0D01*
G01*
X10477742Y-13928718D02*
G75*
G02*
X10427742Y-13928718I-25000J0D01*
G01*
X10427742Y-13928718D02*
G75*
G02*
X10477742Y-13928718I25000J0D01*
G01*
X10477742Y-14321162D02*
G75*
G02*
X10427742Y-14321162I-25000J0D01*
G01*
X10427742Y-14321162D02*
G75*
G02*
X10477742Y-14321162I25000J0D01*
G01*
X10559020Y-14124940D02*
G75*
G02*
X10509020Y-14124940I-25000J0D01*
G01*
X10509020Y-14124940D02*
G75*
G02*
X10559020Y-14124940I25000J0D01*
G01*
X15033220Y-14124940D02*
G75*
G02*
X14983220Y-14124940I-25000J0D01*
G01*
X14983220Y-14124940D02*
G75*
G02*
X15033220Y-14124940I25000J0D01*
G01*
X15114498Y-13928718D02*
G75*
G02*
X15064498Y-13928718I-25000J0D01*
G01*
X15064498Y-13928718D02*
G75*
G02*
X15114498Y-13928718I25000J0D01*
G01*
X15114498Y-14321162D02*
G75*
G02*
X15064498Y-14321162I-25000J0D01*
G01*
X15064498Y-14321162D02*
G75*
G02*
X15114498Y-14321162I25000J0D01*
G01*
X15310720Y-13847440D02*
G75*
G02*
X15260720Y-13847440I-25000J0D01*
G01*
X15260720Y-13847440D02*
G75*
G02*
X15310720Y-13847440I25000J0D01*
G01*
X15310720Y-14402440D02*
G75*
G02*
X15260720Y-14402440I-25000J0D01*
G01*
X15260720Y-14402440D02*
G75*
G02*
X15310720Y-14402440I25000J0D01*
G01*
X15506942Y-13928718D02*
G75*
G02*
X15456942Y-13928718I-25000J0D01*
G01*
X15456942Y-13928718D02*
G75*
G02*
X15506942Y-13928718I25000J0D01*
G01*
X15506942Y-14321162D02*
G75*
G02*
X15456942Y-14321162I-25000J0D01*
G01*
X15456942Y-14321162D02*
G75*
G02*
X15506942Y-14321162I25000J0D01*
G01*
X15588220Y-14124940D02*
G75*
G02*
X15538220Y-14124940I-25000J0D01*
G01*
X15538220Y-14124940D02*
G75*
G02*
X15588220Y-14124940I25000J0D01*
G01*
X15899360Y-20815300D02*
G75*
G02*
X15849360Y-20815300I-25000J0D01*
G01*
X15849360Y-20815300D02*
G75*
G02*
X15899360Y-20815300I25000J0D01*
G01*
X15980638Y-20619078D02*
G75*
G02*
X15930638Y-20619078I-25000J0D01*
G01*
X15930638Y-20619078D02*
G75*
G02*
X15980638Y-20619078I25000J0D01*
G01*
X15980638Y-21011522D02*
G75*
G02*
X15930638Y-21011522I-25000J0D01*
G01*
X15930638Y-21011522D02*
G75*
G02*
X15980638Y-21011522I25000J0D01*
G01*
X16176860Y-20537800D02*
G75*
G02*
X16126860Y-20537800I-25000J0D01*
G01*
X16126860Y-20537800D02*
G75*
G02*
X16176860Y-20537800I25000J0D01*
G01*
X16176860Y-21092800D02*
G75*
G02*
X16126860Y-21092800I-25000J0D01*
G01*
X16126860Y-21092800D02*
G75*
G02*
X16176860Y-21092800I25000J0D01*
G01*
X16373082Y-20619078D02*
G75*
G02*
X16323082Y-20619078I-25000J0D01*
G01*
X16323082Y-20619078D02*
G75*
G02*
X16373082Y-20619078I25000J0D01*
G01*
X16373082Y-21011522D02*
G75*
G02*
X16323082Y-21011522I-25000J0D01*
G01*
X16323082Y-21011522D02*
G75*
G02*
X16373082Y-21011522I25000J0D01*
G01*
X16454360Y-20815300D02*
G75*
G02*
X16404360Y-20815300I-25000J0D01*
G01*
X16404360Y-20815300D02*
G75*
G02*
X16454360Y-20815300I25000J0D01*
G01*
X10553700Y-20564640D02*
X10553700Y-20664640D01*
X10503700Y-20614640D02*
X10603700Y-20614640D01*
X10553700Y-20818640D02*
X10553700Y-20918640D01*
X10503700Y-20868640D02*
X10603700Y-20868640D01*
X10807700Y-20564640D02*
X10807700Y-20664640D01*
X10757700Y-20614640D02*
X10857700Y-20614640D01*
X10807700Y-20818640D02*
X10807700Y-20918640D01*
X10757700Y-20868640D02*
X10857700Y-20868640D01*
X11061700Y-20564640D02*
X11061700Y-20664640D01*
X11011700Y-20614640D02*
X11111700Y-20614640D01*
X11061700Y-20818640D02*
X11061700Y-20918640D01*
X11011700Y-20868640D02*
X11111700Y-20868640D01*
X11315700Y-20564640D02*
X11315700Y-20664640D01*
X11265700Y-20614640D02*
X11365700Y-20614640D01*
X11315700Y-20818640D02*
X11315700Y-20918640D01*
X11265700Y-20868640D02*
X11365700Y-20868640D01*
X11569700Y-20564640D02*
X11569700Y-20664640D01*
X11519700Y-20614640D02*
X11619700Y-20614640D01*
X11569700Y-20818640D02*
X11569700Y-20918640D01*
X11519700Y-20868640D02*
X11619700Y-20868640D01*
X11823700Y-20564640D02*
X11823700Y-20664640D01*
X11773700Y-20614640D02*
X11873700Y-20614640D01*
X11823700Y-20818640D02*
X11823700Y-20918640D01*
X11773700Y-20868640D02*
X11873700Y-20868640D01*
X12077700Y-20564640D02*
X12077700Y-20664640D01*
X12027700Y-20614640D02*
X12127700Y-20614640D01*
X12077700Y-20818640D02*
X12077700Y-20918640D01*
X12027700Y-20868640D02*
X12127700Y-20868640D01*
X12331700Y-20564640D02*
X12331700Y-20664640D01*
X12281700Y-20614640D02*
X12381700Y-20614640D01*
X12331700Y-20818640D02*
X12331700Y-20918640D01*
X12281700Y-20868640D02*
X12381700Y-20868640D01*
X12585700Y-20564640D02*
X12585700Y-20664640D01*
X12535700Y-20614640D02*
X12635700Y-20614640D01*
X12585700Y-20818640D02*
X12585700Y-20918640D01*
X12535700Y-20868640D02*
X12635700Y-20868640D01*
X12839700Y-20564640D02*
X12839700Y-20664640D01*
X12789700Y-20614640D02*
X12889700Y-20614640D01*
X12839700Y-20818640D02*
X12839700Y-20918640D01*
X12789700Y-20868640D02*
X12889700Y-20868640D01*
X13093700Y-20564640D02*
X13093700Y-20664640D01*
X13043700Y-20614640D02*
X13143700Y-20614640D01*
X13093700Y-20818640D02*
X13093700Y-20918640D01*
X13043700Y-20868640D02*
X13143700Y-20868640D01*
X13347700Y-20564640D02*
X13347700Y-20664640D01*
X13297700Y-20614640D02*
X13397700Y-20614640D01*
X13347700Y-20818640D02*
X13347700Y-20918640D01*
X13297700Y-20868640D02*
X13397700Y-20868640D01*
X13601700Y-20564640D02*
X13601700Y-20664640D01*
X13551700Y-20614640D02*
X13651700Y-20614640D01*
X13601700Y-20818640D02*
X13601700Y-20918640D01*
X13551700Y-20868640D02*
X13651700Y-20868640D01*
X13855700Y-20564640D02*
X13855700Y-20664640D01*
X13805700Y-20614640D02*
X13905700Y-20614640D01*
X13855700Y-20818640D02*
X13855700Y-20918640D01*
X13805700Y-20868640D02*
X13905700Y-20868640D01*
X14109700Y-20564640D02*
X14109700Y-20664640D01*
X14059700Y-20614640D02*
X14159700Y-20614640D01*
X14109700Y-20818640D02*
X14109700Y-20918640D01*
X14059700Y-20868640D02*
X14159700Y-20868640D01*
X14363700Y-20564640D02*
X14363700Y-20664640D01*
X14313700Y-20614640D02*
X14413700Y-20614640D01*
X14363700Y-20818640D02*
X14363700Y-20918640D01*
X14313700Y-20868640D02*
X14413700Y-20868640D01*
X14617700Y-20564640D02*
X14617700Y-20664640D01*
X14567700Y-20614640D02*
X14667700Y-20614640D01*
X14617700Y-20818640D02*
X14617700Y-20918640D01*
X14567700Y-20868640D02*
X14667700Y-20868640D01*
X14871700Y-20564640D02*
X14871700Y-20664640D01*
X14821700Y-20614640D02*
X14921700Y-20614640D01*
X14871700Y-20818640D02*
X14871700Y-20918640D01*
X14821700Y-20868640D02*
X14921700Y-20868640D01*
X15125700Y-20564640D02*
X15125700Y-20664640D01*
X15075700Y-20614640D02*
X15175700Y-20614640D01*
X15125700Y-20818640D02*
X15125700Y-20918640D01*
X15075700Y-20868640D02*
X15175700Y-20868640D01*
X15379700Y-20564640D02*
X15379700Y-20664640D01*
X15329700Y-20614640D02*
X15429700Y-20614640D01*
X15379700Y-20818640D02*
X15379700Y-20918640D01*
X15329700Y-20868640D02*
X15429700Y-20868640D01*
X17132300Y-20564640D02*
X17132300Y-20664640D01*
X17082300Y-20614640D02*
X17182300Y-20614640D01*
X17132300Y-20818640D02*
X17132300Y-20918640D01*
X17082300Y-20868640D02*
X17182300Y-20868640D01*
X17386300Y-20564640D02*
X17386300Y-20664640D01*
X17336300Y-20614640D02*
X17436300Y-20614640D01*
X17386300Y-20818640D02*
X17386300Y-20918640D01*
X17336300Y-20868640D02*
X17436300Y-20868640D01*
X17640300Y-20564640D02*
X17640300Y-20664640D01*
X17590300Y-20614640D02*
X17690300Y-20614640D01*
X17640300Y-20818640D02*
X17640300Y-20918640D01*
X17590300Y-20868640D02*
X17690300Y-20868640D01*
X17894300Y-20564640D02*
X17894300Y-20664640D01*
X17844300Y-20614640D02*
X17944300Y-20614640D01*
X17894300Y-20818640D02*
X17894300Y-20918640D01*
X17844300Y-20868640D02*
X17944300Y-20868640D01*
X18148300Y-20564640D02*
X18148300Y-20664640D01*
X18098300Y-20614640D02*
X18198300Y-20614640D01*
X18148300Y-20818640D02*
X18148300Y-20918640D01*
X18098300Y-20868640D02*
X18198300Y-20868640D01*
X18402300Y-20564640D02*
X18402300Y-20664640D01*
X18352300Y-20614640D02*
X18452300Y-20614640D01*
X18402300Y-20818640D02*
X18402300Y-20918640D01*
X18352300Y-20868640D02*
X18452300Y-20868640D01*
X18656300Y-20564640D02*
X18656300Y-20664640D01*
X18606300Y-20614640D02*
X18706300Y-20614640D01*
X18656300Y-20818640D02*
X18656300Y-20918640D01*
X18606300Y-20868640D02*
X18706300Y-20868640D01*
X18910300Y-20564640D02*
X18910300Y-20664640D01*
X18860300Y-20614640D02*
X18960300Y-20614640D01*
X18910300Y-20818640D02*
X18910300Y-20918640D01*
X18860300Y-20868640D02*
X18960300Y-20868640D01*
X19164300Y-20564640D02*
X19164300Y-20664640D01*
X19114300Y-20614640D02*
X19214300Y-20614640D01*
X19164300Y-20818640D02*
X19164300Y-20918640D01*
X19114300Y-20868640D02*
X19214300Y-20868640D01*
X19418300Y-20564640D02*
X19418300Y-20664640D01*
X19368300Y-20614640D02*
X19468300Y-20614640D01*
X19418300Y-20818640D02*
X19418300Y-20918640D01*
X19368300Y-20868640D02*
X19468300Y-20868640D01*
X19672300Y-20564640D02*
X19672300Y-20664640D01*
X19622300Y-20614640D02*
X19722300Y-20614640D01*
X19672300Y-20818640D02*
X19672300Y-20918640D01*
X19622300Y-20868640D02*
X19722300Y-20868640D01*
X19723100Y-14621830D02*
X19723100Y-14721830D01*
X19673100Y-14671830D02*
X19773100Y-14671830D01*
X19723100Y-14875830D02*
X19723100Y-14975830D01*
X19673100Y-14925830D02*
X19773100Y-14925830D01*
X19926300Y-20564640D02*
X19926300Y-20664640D01*
X19876300Y-20614640D02*
X19976300Y-20614640D01*
X19926300Y-20818640D02*
X19926300Y-20918640D01*
X19876300Y-20868640D02*
X19976300Y-20868640D01*
X19977100Y-14621830D02*
X19977100Y-14721830D01*
X19927100Y-14671830D02*
X20027100Y-14671830D01*
X19977100Y-14875830D02*
X19977100Y-14975830D01*
X19927100Y-14925830D02*
X20027100Y-14925830D01*
X20180300Y-20564640D02*
X20180300Y-20664640D01*
X20130300Y-20614640D02*
X20230300Y-20614640D01*
X20180300Y-20818640D02*
X20180300Y-20918640D01*
X20130300Y-20868640D02*
X20230300Y-20868640D01*
X20231100Y-14621830D02*
X20231100Y-14721830D01*
X20181100Y-14671830D02*
X20281100Y-14671830D01*
X20231100Y-14875830D02*
X20231100Y-14975830D01*
X20181100Y-14925830D02*
X20281100Y-14925830D01*
X20434300Y-20564640D02*
X20434300Y-20664640D01*
X20384300Y-20614640D02*
X20484300Y-20614640D01*
X20434300Y-20818640D02*
X20434300Y-20918640D01*
X20384300Y-20868640D02*
X20484300Y-20868640D01*
X20485100Y-14621830D02*
X20485100Y-14721830D01*
X20435100Y-14671830D02*
X20535100Y-14671830D01*
X20485100Y-14875830D02*
X20485100Y-14975830D01*
X20435100Y-14925830D02*
X20535100Y-14925830D01*
X20688300Y-20564640D02*
X20688300Y-20664640D01*
X20638300Y-20614640D02*
X20738300Y-20614640D01*
X20688300Y-20818640D02*
X20688300Y-20918640D01*
X20638300Y-20868640D02*
X20738300Y-20868640D01*
X20739100Y-14621830D02*
X20739100Y-14721830D01*
X20689100Y-14671830D02*
X20789100Y-14671830D01*
X20739100Y-14875830D02*
X20739100Y-14975830D01*
X20689100Y-14925830D02*
X20789100Y-14925830D01*
X20942300Y-20564640D02*
X20942300Y-20664640D01*
X20892300Y-20614640D02*
X20992300Y-20614640D01*
X20942300Y-20818640D02*
X20942300Y-20918640D01*
X20892300Y-20868640D02*
X20992300Y-20868640D01*
X20993100Y-14621830D02*
X20993100Y-14721830D01*
X20943100Y-14671830D02*
X21043100Y-14671830D01*
X20993100Y-14875830D02*
X20993100Y-14975830D01*
X20943100Y-14925830D02*
X21043100Y-14925830D01*
X21196300Y-20564640D02*
X21196300Y-20664640D01*
X21146300Y-20614640D02*
X21246300Y-20614640D01*
X21196300Y-20818640D02*
X21196300Y-20918640D01*
X21146300Y-20868640D02*
X21246300Y-20868640D01*
X21247100Y-14621830D02*
X21247100Y-14721830D01*
X21197100Y-14671830D02*
X21297100Y-14671830D01*
X21247100Y-14875830D02*
X21247100Y-14975830D01*
X21197100Y-14925830D02*
X21297100Y-14925830D01*
X21450300Y-20564640D02*
X21450300Y-20664640D01*
X21400300Y-20614640D02*
X21500300Y-20614640D01*
X21450300Y-20818640D02*
X21450300Y-20918640D01*
X21400300Y-20868640D02*
X21500300Y-20868640D01*
X21501100Y-14621830D02*
X21501100Y-14721830D01*
X21451100Y-14671830D02*
X21551100Y-14671830D01*
X21501100Y-14875830D02*
X21501100Y-14975830D01*
X21451100Y-14925830D02*
X21551100Y-14925830D01*
X21704300Y-20564640D02*
X21704300Y-20664640D01*
X21654300Y-20614640D02*
X21754300Y-20614640D01*
X21704300Y-20818640D02*
X21704300Y-20918640D01*
X21654300Y-20868640D02*
X21754300Y-20868640D01*
X21755100Y-14621830D02*
X21755100Y-14721830D01*
X21705100Y-14671830D02*
X21805100Y-14671830D01*
X21755100Y-14875830D02*
X21755100Y-14975830D01*
X21705100Y-14925830D02*
X21805100Y-14925830D01*
X21958300Y-20564640D02*
X21958300Y-20664640D01*
X21908300Y-20614640D02*
X22008300Y-20614640D01*
X21958300Y-20818640D02*
X21958300Y-20918640D01*
X21908300Y-20868640D02*
X22008300Y-20868640D01*
X22009100Y-14621830D02*
X22009100Y-14721830D01*
X21959100Y-14671830D02*
X22059100Y-14671830D01*
X22009100Y-14875830D02*
X22009100Y-14975830D01*
X21959100Y-14925830D02*
X22059100Y-14925830D01*
D13*
X11292533Y-15140633D02*
X11292533Y-15034566D01*
X11186466Y-15034566D01*
X11186466Y-15140633D01*
X11292533Y-15140633D01*
X11419533Y-14886633D02*
X11419533Y-14780566D01*
X11313466Y-14780566D01*
X11313466Y-14886633D01*
X11419533Y-14886633D01*
X11546533Y-15140633D02*
X11546533Y-15034566D01*
X11440466Y-15034566D01*
X11440466Y-15140633D01*
X11546533Y-15140633D01*
X11673533Y-14886633D02*
X11673533Y-14780566D01*
X11567466Y-14780566D01*
X11567466Y-14886633D01*
X11673533Y-14886633D01*
X11800533Y-15140633D02*
X11800533Y-15034566D01*
X11694466Y-15034566D01*
X11694466Y-15140633D01*
X11800533Y-15140633D01*
X11927533Y-14886633D02*
X11927533Y-14780566D01*
X11821466Y-14780566D01*
X11821466Y-14886633D01*
X11927533Y-14886633D01*
X12054533Y-15140633D02*
X12054533Y-15034566D01*
X11948466Y-15034566D01*
X11948466Y-15140633D01*
X12054533Y-15140633D01*
X12181533Y-14886633D02*
X12181533Y-14780566D01*
X12075466Y-14780566D01*
X12075466Y-14886633D01*
X12181533Y-14886633D01*
X12308533Y-15140633D02*
X12308533Y-15034566D01*
X12202466Y-15034566D01*
X12202466Y-15140633D01*
X12308533Y-15140633D01*
X12435533Y-14886633D02*
X12435533Y-14780566D01*
X12329466Y-14780566D01*
X12329466Y-14886633D01*
X12435533Y-14886633D01*
X12562533Y-15140633D02*
X12562533Y-15034566D01*
X12456466Y-15034566D01*
X12456466Y-15140633D01*
X12562533Y-15140633D01*
X12689533Y-14886633D02*
X12689533Y-14780566D01*
X12583466Y-14780566D01*
X12583466Y-14886633D01*
X12689533Y-14886633D01*
X12816533Y-15140633D02*
X12816533Y-15034566D01*
X12710466Y-15034566D01*
X12710466Y-15140633D01*
X12816533Y-15140633D01*
X12943533Y-14886633D02*
X12943533Y-14780566D01*
X12837466Y-14780566D01*
X12837466Y-14886633D01*
X12943533Y-14886633D01*
X13070533Y-15140633D02*
X13070533Y-15034566D01*
X12964466Y-15034566D01*
X12964466Y-15140633D01*
X13070533Y-15140633D01*
X13197533Y-14886633D02*
X13197533Y-14780566D01*
X13091466Y-14780566D01*
X13091466Y-14886633D01*
X13197533Y-14886633D01*
X13324533Y-15140633D02*
X13324533Y-15034566D01*
X13218466Y-15034566D01*
X13218466Y-15140633D01*
X13324533Y-15140633D01*
X13451533Y-14886633D02*
X13451533Y-14780566D01*
X13345466Y-14780566D01*
X13345466Y-14886633D01*
X13451533Y-14886633D01*
X13578533Y-15140633D02*
X13578533Y-15034566D01*
X13472466Y-15034566D01*
X13472466Y-15140633D01*
X13578533Y-15140633D01*
X13705533Y-14886633D02*
X13705533Y-14780566D01*
X13599466Y-14780566D01*
X13599466Y-14886633D01*
X13705533Y-14886633D01*
D14*
X10256520Y-14309940D02*
X10441520Y-14124940D01*
X10256520Y-13939940D01*
X10071520Y-14124940D01*
X10256520Y-14309940D01*
X15285720Y-14309940D02*
X15470720Y-14124940D01*
X15285720Y-13939940D01*
X15100720Y-14124940D01*
X15285720Y-14309940D01*
X16151860Y-21000300D02*
X16336860Y-20815300D01*
X16151860Y-20630300D01*
X15966860Y-20815300D01*
X16151860Y-21000300D01*
D11*
X9939447Y-23177834D02*
X9939447Y-22977834D01*
X9939447Y-22977834D02*
X9987066Y-22977834D01*
X9987066Y-22977834D02*
X10015637Y-22987358D01*
X10015637Y-22987358D02*
X10034685Y-23006405D01*
X10034685Y-23006405D02*
X10044209Y-23025453D01*
X10044209Y-23025453D02*
X10053733Y-23063548D01*
X10053733Y-23063548D02*
X10053733Y-23092119D01*
X10053733Y-23092119D02*
X10044209Y-23130215D01*
X10044209Y-23130215D02*
X10034685Y-23149262D01*
X10034685Y-23149262D02*
X10015637Y-23168310D01*
X10015637Y-23168310D02*
X9987066Y-23177834D01*
X9987066Y-23177834D02*
X9939447Y-23177834D01*
X10139447Y-23177834D02*
X10139447Y-23044500D01*
X10139447Y-23082596D02*
X10148971Y-23063548D01*
X10148971Y-23063548D02*
X10158494Y-23054024D01*
X10158494Y-23054024D02*
X10177542Y-23044500D01*
X10177542Y-23044500D02*
X10196590Y-23044500D01*
X10263256Y-23177834D02*
X10263256Y-23044500D01*
X10263256Y-22977834D02*
X10253733Y-22987358D01*
X10253733Y-22987358D02*
X10263256Y-22996881D01*
X10263256Y-22996881D02*
X10272780Y-22987358D01*
X10272780Y-22987358D02*
X10263256Y-22977834D01*
X10263256Y-22977834D02*
X10263256Y-22996881D01*
X10387066Y-23177834D02*
X10368018Y-23168310D01*
X10368018Y-23168310D02*
X10358494Y-23149262D01*
X10358494Y-23149262D02*
X10358494Y-22977834D01*
X10491828Y-23177834D02*
X10472780Y-23168310D01*
X10472780Y-23168310D02*
X10463256Y-23149262D01*
X10463256Y-23149262D02*
X10463256Y-22977834D01*
X10720399Y-23177834D02*
X10720399Y-22977834D01*
X10720399Y-22977834D02*
X10787066Y-23120691D01*
X10787066Y-23120691D02*
X10853733Y-22977834D01*
X10853733Y-22977834D02*
X10853733Y-23177834D01*
X11034685Y-23177834D02*
X11034685Y-23073072D01*
X11034685Y-23073072D02*
X11025161Y-23054024D01*
X11025161Y-23054024D02*
X11006114Y-23044500D01*
X11006114Y-23044500D02*
X10968018Y-23044500D01*
X10968018Y-23044500D02*
X10948971Y-23054024D01*
X11034685Y-23168310D02*
X11015637Y-23177834D01*
X11015637Y-23177834D02*
X10968018Y-23177834D01*
X10968018Y-23177834D02*
X10948971Y-23168310D01*
X10948971Y-23168310D02*
X10939447Y-23149262D01*
X10939447Y-23149262D02*
X10939447Y-23130215D01*
X10939447Y-23130215D02*
X10948971Y-23111167D01*
X10948971Y-23111167D02*
X10968018Y-23101643D01*
X10968018Y-23101643D02*
X11015637Y-23101643D01*
X11015637Y-23101643D02*
X11034685Y-23092119D01*
X11129923Y-23044500D02*
X11129923Y-23244500D01*
X11129923Y-23054024D02*
X11148971Y-23044500D01*
X11148971Y-23044500D02*
X11187066Y-23044500D01*
X11187066Y-23044500D02*
X11206113Y-23054024D01*
X11206113Y-23054024D02*
X11215637Y-23063548D01*
X11215637Y-23063548D02*
X11225161Y-23082596D01*
X11225161Y-23082596D02*
X11225161Y-23139738D01*
X11225161Y-23139738D02*
X11215637Y-23158786D01*
X11215637Y-23158786D02*
X11206113Y-23168310D01*
X11206113Y-23168310D02*
X11187066Y-23177834D01*
X11187066Y-23177834D02*
X11148971Y-23177834D01*
X11148971Y-23177834D02*
X11129923Y-23168310D01*
X11310875Y-23158786D02*
X11320399Y-23168310D01*
X11320399Y-23168310D02*
X11310875Y-23177834D01*
X11310875Y-23177834D02*
X11301352Y-23168310D01*
X11301352Y-23168310D02*
X11310875Y-23158786D01*
X11310875Y-23158786D02*
X11310875Y-23177834D01*
X11310875Y-23054024D02*
X11320399Y-23063548D01*
X11320399Y-23063548D02*
X11310875Y-23073072D01*
X11310875Y-23073072D02*
X11301352Y-23063548D01*
X11301352Y-23063548D02*
X11310875Y-23054024D01*
X11310875Y-23054024D02*
X11310875Y-23073072D01*
D12*
X9648670Y-23491350D02*
X9678670Y-23521350D01*
X9678670Y-23491350D02*
X9648670Y-23521350D01*
D11*
X9977542Y-23397834D02*
X9996590Y-23397834D01*
X9996590Y-23397834D02*
X10015637Y-23407358D01*
X10015637Y-23407358D02*
X10025161Y-23416881D01*
X10025161Y-23416881D02*
X10034685Y-23435929D01*
X10034685Y-23435929D02*
X10044209Y-23474024D01*
X10044209Y-23474024D02*
X10044209Y-23521643D01*
X10044209Y-23521643D02*
X10034685Y-23559738D01*
X10034685Y-23559738D02*
X10025161Y-23578786D01*
X10025161Y-23578786D02*
X10015637Y-23588310D01*
X10015637Y-23588310D02*
X9996590Y-23597834D01*
X9996590Y-23597834D02*
X9977542Y-23597834D01*
X9977542Y-23597834D02*
X9958494Y-23588310D01*
X9958494Y-23588310D02*
X9948971Y-23578786D01*
X9948971Y-23578786D02*
X9939447Y-23559738D01*
X9939447Y-23559738D02*
X9929923Y-23521643D01*
X9929923Y-23521643D02*
X9929923Y-23474024D01*
X9929923Y-23474024D02*
X9939447Y-23435929D01*
X9939447Y-23435929D02*
X9948971Y-23416881D01*
X9948971Y-23416881D02*
X9958494Y-23407358D01*
X9958494Y-23407358D02*
X9977542Y-23397834D01*
X10129923Y-23578786D02*
X10139447Y-23588310D01*
X10139447Y-23588310D02*
X10129923Y-23597834D01*
X10129923Y-23597834D02*
X10120399Y-23588310D01*
X10120399Y-23588310D02*
X10129923Y-23578786D01*
X10129923Y-23578786D02*
X10129923Y-23597834D01*
X10206114Y-23397834D02*
X10329923Y-23397834D01*
X10329923Y-23397834D02*
X10263256Y-23474024D01*
X10263256Y-23474024D02*
X10291828Y-23474024D01*
X10291828Y-23474024D02*
X10310875Y-23483548D01*
X10310875Y-23483548D02*
X10320399Y-23493072D01*
X10320399Y-23493072D02*
X10329923Y-23512119D01*
X10329923Y-23512119D02*
X10329923Y-23559738D01*
X10329923Y-23559738D02*
X10320399Y-23578786D01*
X10320399Y-23578786D02*
X10310875Y-23588310D01*
X10310875Y-23588310D02*
X10291828Y-23597834D01*
X10291828Y-23597834D02*
X10234685Y-23597834D01*
X10234685Y-23597834D02*
X10215637Y-23588310D01*
X10215637Y-23588310D02*
X10206114Y-23578786D01*
X10453733Y-23397834D02*
X10472780Y-23397834D01*
X10472780Y-23397834D02*
X10491828Y-23407358D01*
X10491828Y-23407358D02*
X10501352Y-23416881D01*
X10501352Y-23416881D02*
X10510875Y-23435929D01*
X10510875Y-23435929D02*
X10520399Y-23474024D01*
X10520399Y-23474024D02*
X10520399Y-23521643D01*
X10520399Y-23521643D02*
X10510875Y-23559738D01*
X10510875Y-23559738D02*
X10501352Y-23578786D01*
X10501352Y-23578786D02*
X10491828Y-23588310D01*
X10491828Y-23588310D02*
X10472780Y-23597834D01*
X10472780Y-23597834D02*
X10453733Y-23597834D01*
X10453733Y-23597834D02*
X10434685Y-23588310D01*
X10434685Y-23588310D02*
X10425161Y-23578786D01*
X10425161Y-23578786D02*
X10415637Y-23559738D01*
X10415637Y-23559738D02*
X10406114Y-23521643D01*
X10406114Y-23521643D02*
X10406114Y-23474024D01*
X10406114Y-23474024D02*
X10415637Y-23435929D01*
X10415637Y-23435929D02*
X10425161Y-23416881D01*
X10425161Y-23416881D02*
X10434685Y-23407358D01*
X10434685Y-23407358D02*
X10453733Y-23397834D01*
X10644209Y-23397834D02*
X10663256Y-23397834D01*
X10663256Y-23397834D02*
X10682304Y-23407358D01*
X10682304Y-23407358D02*
X10691828Y-23416881D01*
X10691828Y-23416881D02*
X10701352Y-23435929D01*
X10701352Y-23435929D02*
X10710875Y-23474024D01*
X10710875Y-23474024D02*
X10710875Y-23521643D01*
X10710875Y-23521643D02*
X10701352Y-23559738D01*
X10701352Y-23559738D02*
X10691828Y-23578786D01*
X10691828Y-23578786D02*
X10682304Y-23588310D01*
X10682304Y-23588310D02*
X10663256Y-23597834D01*
X10663256Y-23597834D02*
X10644209Y-23597834D01*
X10644209Y-23597834D02*
X10625161Y-23588310D01*
X10625161Y-23588310D02*
X10615637Y-23578786D01*
X10615637Y-23578786D02*
X10606114Y-23559738D01*
X10606114Y-23559738D02*
X10596590Y-23521643D01*
X10596590Y-23521643D02*
X10596590Y-23474024D01*
X10596590Y-23474024D02*
X10606114Y-23435929D01*
X10606114Y-23435929D02*
X10615637Y-23416881D01*
X10615637Y-23416881D02*
X10625161Y-23407358D01*
X10625161Y-23407358D02*
X10644209Y-23397834D01*
X10796590Y-23597834D02*
X10796590Y-23464500D01*
X10796590Y-23483548D02*
X10806114Y-23474024D01*
X10806114Y-23474024D02*
X10825161Y-23464500D01*
X10825161Y-23464500D02*
X10853733Y-23464500D01*
X10853733Y-23464500D02*
X10872780Y-23474024D01*
X10872780Y-23474024D02*
X10882304Y-23493072D01*
X10882304Y-23493072D02*
X10882304Y-23597834D01*
X10882304Y-23493072D02*
X10891828Y-23474024D01*
X10891828Y-23474024D02*
X10910875Y-23464500D01*
X10910875Y-23464500D02*
X10939447Y-23464500D01*
X10939447Y-23464500D02*
X10958495Y-23474024D01*
X10958495Y-23474024D02*
X10968018Y-23493072D01*
X10968018Y-23493072D02*
X10968018Y-23597834D01*
X11063256Y-23597834D02*
X11063256Y-23464500D01*
X11063256Y-23483548D02*
X11072780Y-23474024D01*
X11072780Y-23474024D02*
X11091828Y-23464500D01*
X11091828Y-23464500D02*
X11120399Y-23464500D01*
X11120399Y-23464500D02*
X11139447Y-23474024D01*
X11139447Y-23474024D02*
X11148971Y-23493072D01*
X11148971Y-23493072D02*
X11148971Y-23597834D01*
X11148971Y-23493072D02*
X11158495Y-23474024D01*
X11158495Y-23474024D02*
X11177542Y-23464500D01*
X11177542Y-23464500D02*
X11206113Y-23464500D01*
X11206113Y-23464500D02*
X11225161Y-23474024D01*
X11225161Y-23474024D02*
X11234685Y-23493072D01*
X11234685Y-23493072D02*
X11234685Y-23597834D01*
X11625161Y-23388310D02*
X11453733Y-23645453D01*
X11882304Y-23397834D02*
X11901352Y-23397834D01*
X11901352Y-23397834D02*
X11920399Y-23407358D01*
X11920399Y-23407358D02*
X11929923Y-23416881D01*
X11929923Y-23416881D02*
X11939447Y-23435929D01*
X11939447Y-23435929D02*
X11948971Y-23474024D01*
X11948971Y-23474024D02*
X11948971Y-23521643D01*
X11948971Y-23521643D02*
X11939447Y-23559738D01*
X11939447Y-23559738D02*
X11929923Y-23578786D01*
X11929923Y-23578786D02*
X11920399Y-23588310D01*
X11920399Y-23588310D02*
X11901352Y-23597834D01*
X11901352Y-23597834D02*
X11882304Y-23597834D01*
X11882304Y-23597834D02*
X11863256Y-23588310D01*
X11863256Y-23588310D02*
X11853733Y-23578786D01*
X11853733Y-23578786D02*
X11844209Y-23559738D01*
X11844209Y-23559738D02*
X11834685Y-23521643D01*
X11834685Y-23521643D02*
X11834685Y-23474024D01*
X11834685Y-23474024D02*
X11844209Y-23435929D01*
X11844209Y-23435929D02*
X11853733Y-23416881D01*
X11853733Y-23416881D02*
X11863256Y-23407358D01*
X11863256Y-23407358D02*
X11882304Y-23397834D01*
X12034685Y-23578786D02*
X12044209Y-23588310D01*
X12044209Y-23588310D02*
X12034685Y-23597834D01*
X12034685Y-23597834D02*
X12025161Y-23588310D01*
X12025161Y-23588310D02*
X12034685Y-23578786D01*
X12034685Y-23578786D02*
X12034685Y-23597834D01*
X12168018Y-23397834D02*
X12187066Y-23397834D01*
X12187066Y-23397834D02*
X12206114Y-23407358D01*
X12206114Y-23407358D02*
X12215637Y-23416881D01*
X12215637Y-23416881D02*
X12225161Y-23435929D01*
X12225161Y-23435929D02*
X12234685Y-23474024D01*
X12234685Y-23474024D02*
X12234685Y-23521643D01*
X12234685Y-23521643D02*
X12225161Y-23559738D01*
X12225161Y-23559738D02*
X12215637Y-23578786D01*
X12215637Y-23578786D02*
X12206114Y-23588310D01*
X12206114Y-23588310D02*
X12187066Y-23597834D01*
X12187066Y-23597834D02*
X12168018Y-23597834D01*
X12168018Y-23597834D02*
X12148971Y-23588310D01*
X12148971Y-23588310D02*
X12139447Y-23578786D01*
X12139447Y-23578786D02*
X12129923Y-23559738D01*
X12129923Y-23559738D02*
X12120399Y-23521643D01*
X12120399Y-23521643D02*
X12120399Y-23474024D01*
X12120399Y-23474024D02*
X12129923Y-23435929D01*
X12129923Y-23435929D02*
X12139447Y-23416881D01*
X12139447Y-23416881D02*
X12148971Y-23407358D01*
X12148971Y-23407358D02*
X12168018Y-23397834D01*
X12425161Y-23597834D02*
X12310876Y-23597834D01*
X12368018Y-23597834D02*
X12368018Y-23397834D01*
X12368018Y-23397834D02*
X12348971Y-23426405D01*
X12348971Y-23426405D02*
X12329923Y-23445453D01*
X12329923Y-23445453D02*
X12310876Y-23454977D01*
X12615637Y-23597834D02*
X12501352Y-23597834D01*
X12558495Y-23597834D02*
X12558495Y-23397834D01*
X12558495Y-23397834D02*
X12539447Y-23426405D01*
X12539447Y-23426405D02*
X12520399Y-23445453D01*
X12520399Y-23445453D02*
X12501352Y-23454977D01*
X12729923Y-23483548D02*
X12710876Y-23474024D01*
X12710876Y-23474024D02*
X12701352Y-23464500D01*
X12701352Y-23464500D02*
X12691828Y-23445453D01*
X12691828Y-23445453D02*
X12691828Y-23435929D01*
X12691828Y-23435929D02*
X12701352Y-23416881D01*
X12701352Y-23416881D02*
X12710876Y-23407358D01*
X12710876Y-23407358D02*
X12729923Y-23397834D01*
X12729923Y-23397834D02*
X12768018Y-23397834D01*
X12768018Y-23397834D02*
X12787066Y-23407358D01*
X12787066Y-23407358D02*
X12796590Y-23416881D01*
X12796590Y-23416881D02*
X12806114Y-23435929D01*
X12806114Y-23435929D02*
X12806114Y-23445453D01*
X12806114Y-23445453D02*
X12796590Y-23464500D01*
X12796590Y-23464500D02*
X12787066Y-23474024D01*
X12787066Y-23474024D02*
X12768018Y-23483548D01*
X12768018Y-23483548D02*
X12729923Y-23483548D01*
X12729923Y-23483548D02*
X12710876Y-23493072D01*
X12710876Y-23493072D02*
X12701352Y-23502596D01*
X12701352Y-23502596D02*
X12691828Y-23521643D01*
X12691828Y-23521643D02*
X12691828Y-23559738D01*
X12691828Y-23559738D02*
X12701352Y-23578786D01*
X12701352Y-23578786D02*
X12710876Y-23588310D01*
X12710876Y-23588310D02*
X12729923Y-23597834D01*
X12729923Y-23597834D02*
X12768018Y-23597834D01*
X12768018Y-23597834D02*
X12787066Y-23588310D01*
X12787066Y-23588310D02*
X12796590Y-23578786D01*
X12796590Y-23578786D02*
X12806114Y-23559738D01*
X12806114Y-23559738D02*
X12806114Y-23521643D01*
X12806114Y-23521643D02*
X12796590Y-23502596D01*
X12796590Y-23502596D02*
X12787066Y-23493072D01*
X12787066Y-23493072D02*
X12768018Y-23483548D01*
X12882304Y-23397834D02*
X12882304Y-23435929D01*
X12958495Y-23397834D02*
X12958495Y-23435929D01*
X13253733Y-23674024D02*
X13244209Y-23664500D01*
X13244209Y-23664500D02*
X13225161Y-23635929D01*
X13225161Y-23635929D02*
X13215638Y-23616881D01*
X13215638Y-23616881D02*
X13206114Y-23588310D01*
X13206114Y-23588310D02*
X13196590Y-23540691D01*
X13196590Y-23540691D02*
X13196590Y-23502596D01*
X13196590Y-23502596D02*
X13206114Y-23454977D01*
X13206114Y-23454977D02*
X13215638Y-23426405D01*
X13215638Y-23426405D02*
X13225161Y-23407358D01*
X13225161Y-23407358D02*
X13244209Y-23378786D01*
X13244209Y-23378786D02*
X13253733Y-23369262D01*
X13415638Y-23464500D02*
X13415638Y-23597834D01*
X13368018Y-23388310D02*
X13320399Y-23531167D01*
X13320399Y-23531167D02*
X13444209Y-23531167D01*
X13615638Y-23397834D02*
X13520399Y-23397834D01*
X13520399Y-23397834D02*
X13510876Y-23493072D01*
X13510876Y-23493072D02*
X13520399Y-23483548D01*
X13520399Y-23483548D02*
X13539447Y-23474024D01*
X13539447Y-23474024D02*
X13587066Y-23474024D01*
X13587066Y-23474024D02*
X13606114Y-23483548D01*
X13606114Y-23483548D02*
X13615638Y-23493072D01*
X13615638Y-23493072D02*
X13625161Y-23512119D01*
X13625161Y-23512119D02*
X13625161Y-23559738D01*
X13625161Y-23559738D02*
X13615638Y-23578786D01*
X13615638Y-23578786D02*
X13606114Y-23588310D01*
X13606114Y-23588310D02*
X13587066Y-23597834D01*
X13587066Y-23597834D02*
X13539447Y-23597834D01*
X13539447Y-23597834D02*
X13520399Y-23588310D01*
X13520399Y-23588310D02*
X13510876Y-23578786D01*
X13748971Y-23397834D02*
X13768019Y-23397834D01*
X13768019Y-23397834D02*
X13787066Y-23407358D01*
X13787066Y-23407358D02*
X13796590Y-23416881D01*
X13796590Y-23416881D02*
X13806114Y-23435929D01*
X13806114Y-23435929D02*
X13815638Y-23474024D01*
X13815638Y-23474024D02*
X13815638Y-23521643D01*
X13815638Y-23521643D02*
X13806114Y-23559738D01*
X13806114Y-23559738D02*
X13796590Y-23578786D01*
X13796590Y-23578786D02*
X13787066Y-23588310D01*
X13787066Y-23588310D02*
X13768019Y-23597834D01*
X13768019Y-23597834D02*
X13748971Y-23597834D01*
X13748971Y-23597834D02*
X13729923Y-23588310D01*
X13729923Y-23588310D02*
X13720399Y-23578786D01*
X13720399Y-23578786D02*
X13710876Y-23559738D01*
X13710876Y-23559738D02*
X13701352Y-23521643D01*
X13701352Y-23521643D02*
X13701352Y-23474024D01*
X13701352Y-23474024D02*
X13710876Y-23435929D01*
X13710876Y-23435929D02*
X13720399Y-23416881D01*
X13720399Y-23416881D02*
X13729923Y-23407358D01*
X13729923Y-23407358D02*
X13748971Y-23397834D01*
X14053733Y-23597834D02*
X14053733Y-23397834D01*
X14139447Y-23597834D02*
X14139447Y-23493072D01*
X14139447Y-23493072D02*
X14129923Y-23474024D01*
X14129923Y-23474024D02*
X14110876Y-23464500D01*
X14110876Y-23464500D02*
X14082304Y-23464500D01*
X14082304Y-23464500D02*
X14063257Y-23474024D01*
X14063257Y-23474024D02*
X14053733Y-23483548D01*
X14263257Y-23597834D02*
X14244209Y-23588310D01*
X14244209Y-23588310D02*
X14234685Y-23578786D01*
X14234685Y-23578786D02*
X14225161Y-23559738D01*
X14225161Y-23559738D02*
X14225161Y-23502596D01*
X14225161Y-23502596D02*
X14234685Y-23483548D01*
X14234685Y-23483548D02*
X14244209Y-23474024D01*
X14244209Y-23474024D02*
X14263257Y-23464500D01*
X14263257Y-23464500D02*
X14291828Y-23464500D01*
X14291828Y-23464500D02*
X14310876Y-23474024D01*
X14310876Y-23474024D02*
X14320400Y-23483548D01*
X14320400Y-23483548D02*
X14329923Y-23502596D01*
X14329923Y-23502596D02*
X14329923Y-23559738D01*
X14329923Y-23559738D02*
X14320400Y-23578786D01*
X14320400Y-23578786D02*
X14310876Y-23588310D01*
X14310876Y-23588310D02*
X14291828Y-23597834D01*
X14291828Y-23597834D02*
X14263257Y-23597834D01*
X14444209Y-23597834D02*
X14425161Y-23588310D01*
X14425161Y-23588310D02*
X14415638Y-23569262D01*
X14415638Y-23569262D02*
X14415638Y-23397834D01*
X14596590Y-23588310D02*
X14577542Y-23597834D01*
X14577542Y-23597834D02*
X14539447Y-23597834D01*
X14539447Y-23597834D02*
X14520400Y-23588310D01*
X14520400Y-23588310D02*
X14510876Y-23569262D01*
X14510876Y-23569262D02*
X14510876Y-23493072D01*
X14510876Y-23493072D02*
X14520400Y-23474024D01*
X14520400Y-23474024D02*
X14539447Y-23464500D01*
X14539447Y-23464500D02*
X14577542Y-23464500D01*
X14577542Y-23464500D02*
X14596590Y-23474024D01*
X14596590Y-23474024D02*
X14606114Y-23493072D01*
X14606114Y-23493072D02*
X14606114Y-23512119D01*
X14606114Y-23512119D02*
X14510876Y-23531167D01*
X14682304Y-23588310D02*
X14701352Y-23597834D01*
X14701352Y-23597834D02*
X14739447Y-23597834D01*
X14739447Y-23597834D02*
X14758495Y-23588310D01*
X14758495Y-23588310D02*
X14768019Y-23569262D01*
X14768019Y-23569262D02*
X14768019Y-23559738D01*
X14768019Y-23559738D02*
X14758495Y-23540691D01*
X14758495Y-23540691D02*
X14739447Y-23531167D01*
X14739447Y-23531167D02*
X14710876Y-23531167D01*
X14710876Y-23531167D02*
X14691828Y-23521643D01*
X14691828Y-23521643D02*
X14682304Y-23502596D01*
X14682304Y-23502596D02*
X14682304Y-23493072D01*
X14682304Y-23493072D02*
X14691828Y-23474024D01*
X14691828Y-23474024D02*
X14710876Y-23464500D01*
X14710876Y-23464500D02*
X14739447Y-23464500D01*
X14739447Y-23464500D02*
X14758495Y-23474024D01*
X14834685Y-23674024D02*
X14844209Y-23664500D01*
X14844209Y-23664500D02*
X14863257Y-23635929D01*
X14863257Y-23635929D02*
X14872781Y-23616881D01*
X14872781Y-23616881D02*
X14882304Y-23588310D01*
X14882304Y-23588310D02*
X14891828Y-23540691D01*
X14891828Y-23540691D02*
X14891828Y-23502596D01*
X14891828Y-23502596D02*
X14882304Y-23454977D01*
X14882304Y-23454977D02*
X14872781Y-23426405D01*
X14872781Y-23426405D02*
X14863257Y-23407358D01*
X14863257Y-23407358D02*
X14844209Y-23378786D01*
X14844209Y-23378786D02*
X14834685Y-23369262D01*
D12*
X9678670Y-23770350D02*
G75*
G02*
X9628670Y-23770350I-25000J0D01*
G01*
X9628670Y-23770350D02*
G75*
G02*
X9678670Y-23770350I25000J0D01*
G01*
D11*
X9977542Y-23661834D02*
X9996590Y-23661834D01*
X9996590Y-23661834D02*
X10015637Y-23671358D01*
X10015637Y-23671358D02*
X10025161Y-23680881D01*
X10025161Y-23680881D02*
X10034685Y-23699929D01*
X10034685Y-23699929D02*
X10044209Y-23738024D01*
X10044209Y-23738024D02*
X10044209Y-23785643D01*
X10044209Y-23785643D02*
X10034685Y-23823738D01*
X10034685Y-23823738D02*
X10025161Y-23842786D01*
X10025161Y-23842786D02*
X10015637Y-23852310D01*
X10015637Y-23852310D02*
X9996590Y-23861834D01*
X9996590Y-23861834D02*
X9977542Y-23861834D01*
X9977542Y-23861834D02*
X9958494Y-23852310D01*
X9958494Y-23852310D02*
X9948971Y-23842786D01*
X9948971Y-23842786D02*
X9939447Y-23823738D01*
X9939447Y-23823738D02*
X9929923Y-23785643D01*
X9929923Y-23785643D02*
X9929923Y-23738024D01*
X9929923Y-23738024D02*
X9939447Y-23699929D01*
X9939447Y-23699929D02*
X9948971Y-23680881D01*
X9948971Y-23680881D02*
X9958494Y-23671358D01*
X9958494Y-23671358D02*
X9977542Y-23661834D01*
X10129923Y-23842786D02*
X10139447Y-23852310D01*
X10139447Y-23852310D02*
X10129923Y-23861834D01*
X10129923Y-23861834D02*
X10120399Y-23852310D01*
X10120399Y-23852310D02*
X10129923Y-23842786D01*
X10129923Y-23842786D02*
X10129923Y-23861834D01*
X10320399Y-23661834D02*
X10225161Y-23661834D01*
X10225161Y-23661834D02*
X10215637Y-23757072D01*
X10215637Y-23757072D02*
X10225161Y-23747548D01*
X10225161Y-23747548D02*
X10244209Y-23738024D01*
X10244209Y-23738024D02*
X10291828Y-23738024D01*
X10291828Y-23738024D02*
X10310875Y-23747548D01*
X10310875Y-23747548D02*
X10320399Y-23757072D01*
X10320399Y-23757072D02*
X10329923Y-23776119D01*
X10329923Y-23776119D02*
X10329923Y-23823738D01*
X10329923Y-23823738D02*
X10320399Y-23842786D01*
X10320399Y-23842786D02*
X10310875Y-23852310D01*
X10310875Y-23852310D02*
X10291828Y-23861834D01*
X10291828Y-23861834D02*
X10244209Y-23861834D01*
X10244209Y-23861834D02*
X10225161Y-23852310D01*
X10225161Y-23852310D02*
X10215637Y-23842786D01*
X10453733Y-23661834D02*
X10472780Y-23661834D01*
X10472780Y-23661834D02*
X10491828Y-23671358D01*
X10491828Y-23671358D02*
X10501352Y-23680881D01*
X10501352Y-23680881D02*
X10510875Y-23699929D01*
X10510875Y-23699929D02*
X10520399Y-23738024D01*
X10520399Y-23738024D02*
X10520399Y-23785643D01*
X10520399Y-23785643D02*
X10510875Y-23823738D01*
X10510875Y-23823738D02*
X10501352Y-23842786D01*
X10501352Y-23842786D02*
X10491828Y-23852310D01*
X10491828Y-23852310D02*
X10472780Y-23861834D01*
X10472780Y-23861834D02*
X10453733Y-23861834D01*
X10453733Y-23861834D02*
X10434685Y-23852310D01*
X10434685Y-23852310D02*
X10425161Y-23842786D01*
X10425161Y-23842786D02*
X10415637Y-23823738D01*
X10415637Y-23823738D02*
X10406114Y-23785643D01*
X10406114Y-23785643D02*
X10406114Y-23738024D01*
X10406114Y-23738024D02*
X10415637Y-23699929D01*
X10415637Y-23699929D02*
X10425161Y-23680881D01*
X10425161Y-23680881D02*
X10434685Y-23671358D01*
X10434685Y-23671358D02*
X10453733Y-23661834D01*
X10644209Y-23661834D02*
X10663256Y-23661834D01*
X10663256Y-23661834D02*
X10682304Y-23671358D01*
X10682304Y-23671358D02*
X10691828Y-23680881D01*
X10691828Y-23680881D02*
X10701352Y-23699929D01*
X10701352Y-23699929D02*
X10710875Y-23738024D01*
X10710875Y-23738024D02*
X10710875Y-23785643D01*
X10710875Y-23785643D02*
X10701352Y-23823738D01*
X10701352Y-23823738D02*
X10691828Y-23842786D01*
X10691828Y-23842786D02*
X10682304Y-23852310D01*
X10682304Y-23852310D02*
X10663256Y-23861834D01*
X10663256Y-23861834D02*
X10644209Y-23861834D01*
X10644209Y-23861834D02*
X10625161Y-23852310D01*
X10625161Y-23852310D02*
X10615637Y-23842786D01*
X10615637Y-23842786D02*
X10606114Y-23823738D01*
X10606114Y-23823738D02*
X10596590Y-23785643D01*
X10596590Y-23785643D02*
X10596590Y-23738024D01*
X10596590Y-23738024D02*
X10606114Y-23699929D01*
X10606114Y-23699929D02*
X10615637Y-23680881D01*
X10615637Y-23680881D02*
X10625161Y-23671358D01*
X10625161Y-23671358D02*
X10644209Y-23661834D01*
X10796590Y-23861834D02*
X10796590Y-23728500D01*
X10796590Y-23747548D02*
X10806114Y-23738024D01*
X10806114Y-23738024D02*
X10825161Y-23728500D01*
X10825161Y-23728500D02*
X10853733Y-23728500D01*
X10853733Y-23728500D02*
X10872780Y-23738024D01*
X10872780Y-23738024D02*
X10882304Y-23757072D01*
X10882304Y-23757072D02*
X10882304Y-23861834D01*
X10882304Y-23757072D02*
X10891828Y-23738024D01*
X10891828Y-23738024D02*
X10910875Y-23728500D01*
X10910875Y-23728500D02*
X10939447Y-23728500D01*
X10939447Y-23728500D02*
X10958495Y-23738024D01*
X10958495Y-23738024D02*
X10968018Y-23757072D01*
X10968018Y-23757072D02*
X10968018Y-23861834D01*
X11063256Y-23861834D02*
X11063256Y-23728500D01*
X11063256Y-23747548D02*
X11072780Y-23738024D01*
X11072780Y-23738024D02*
X11091828Y-23728500D01*
X11091828Y-23728500D02*
X11120399Y-23728500D01*
X11120399Y-23728500D02*
X11139447Y-23738024D01*
X11139447Y-23738024D02*
X11148971Y-23757072D01*
X11148971Y-23757072D02*
X11148971Y-23861834D01*
X11148971Y-23757072D02*
X11158495Y-23738024D01*
X11158495Y-23738024D02*
X11177542Y-23728500D01*
X11177542Y-23728500D02*
X11206113Y-23728500D01*
X11206113Y-23728500D02*
X11225161Y-23738024D01*
X11225161Y-23738024D02*
X11234685Y-23757072D01*
X11234685Y-23757072D02*
X11234685Y-23861834D01*
X11625161Y-23652310D02*
X11453733Y-23909453D01*
X11882304Y-23661834D02*
X11901352Y-23661834D01*
X11901352Y-23661834D02*
X11920399Y-23671358D01*
X11920399Y-23671358D02*
X11929923Y-23680881D01*
X11929923Y-23680881D02*
X11939447Y-23699929D01*
X11939447Y-23699929D02*
X11948971Y-23738024D01*
X11948971Y-23738024D02*
X11948971Y-23785643D01*
X11948971Y-23785643D02*
X11939447Y-23823738D01*
X11939447Y-23823738D02*
X11929923Y-23842786D01*
X11929923Y-23842786D02*
X11920399Y-23852310D01*
X11920399Y-23852310D02*
X11901352Y-23861834D01*
X11901352Y-23861834D02*
X11882304Y-23861834D01*
X11882304Y-23861834D02*
X11863256Y-23852310D01*
X11863256Y-23852310D02*
X11853733Y-23842786D01*
X11853733Y-23842786D02*
X11844209Y-23823738D01*
X11844209Y-23823738D02*
X11834685Y-23785643D01*
X11834685Y-23785643D02*
X11834685Y-23738024D01*
X11834685Y-23738024D02*
X11844209Y-23699929D01*
X11844209Y-23699929D02*
X11853733Y-23680881D01*
X11853733Y-23680881D02*
X11863256Y-23671358D01*
X11863256Y-23671358D02*
X11882304Y-23661834D01*
X12034685Y-23842786D02*
X12044209Y-23852310D01*
X12044209Y-23852310D02*
X12034685Y-23861834D01*
X12034685Y-23861834D02*
X12025161Y-23852310D01*
X12025161Y-23852310D02*
X12034685Y-23842786D01*
X12034685Y-23842786D02*
X12034685Y-23861834D01*
X12168018Y-23661834D02*
X12187066Y-23661834D01*
X12187066Y-23661834D02*
X12206114Y-23671358D01*
X12206114Y-23671358D02*
X12215637Y-23680881D01*
X12215637Y-23680881D02*
X12225161Y-23699929D01*
X12225161Y-23699929D02*
X12234685Y-23738024D01*
X12234685Y-23738024D02*
X12234685Y-23785643D01*
X12234685Y-23785643D02*
X12225161Y-23823738D01*
X12225161Y-23823738D02*
X12215637Y-23842786D01*
X12215637Y-23842786D02*
X12206114Y-23852310D01*
X12206114Y-23852310D02*
X12187066Y-23861834D01*
X12187066Y-23861834D02*
X12168018Y-23861834D01*
X12168018Y-23861834D02*
X12148971Y-23852310D01*
X12148971Y-23852310D02*
X12139447Y-23842786D01*
X12139447Y-23842786D02*
X12129923Y-23823738D01*
X12129923Y-23823738D02*
X12120399Y-23785643D01*
X12120399Y-23785643D02*
X12120399Y-23738024D01*
X12120399Y-23738024D02*
X12129923Y-23699929D01*
X12129923Y-23699929D02*
X12139447Y-23680881D01*
X12139447Y-23680881D02*
X12148971Y-23671358D01*
X12148971Y-23671358D02*
X12168018Y-23661834D01*
X12425161Y-23861834D02*
X12310876Y-23861834D01*
X12368018Y-23861834D02*
X12368018Y-23661834D01*
X12368018Y-23661834D02*
X12348971Y-23690405D01*
X12348971Y-23690405D02*
X12329923Y-23709453D01*
X12329923Y-23709453D02*
X12310876Y-23718977D01*
X12520399Y-23861834D02*
X12558495Y-23861834D01*
X12558495Y-23861834D02*
X12577542Y-23852310D01*
X12577542Y-23852310D02*
X12587066Y-23842786D01*
X12587066Y-23842786D02*
X12606114Y-23814215D01*
X12606114Y-23814215D02*
X12615637Y-23776119D01*
X12615637Y-23776119D02*
X12615637Y-23699929D01*
X12615637Y-23699929D02*
X12606114Y-23680881D01*
X12606114Y-23680881D02*
X12596590Y-23671358D01*
X12596590Y-23671358D02*
X12577542Y-23661834D01*
X12577542Y-23661834D02*
X12539447Y-23661834D01*
X12539447Y-23661834D02*
X12520399Y-23671358D01*
X12520399Y-23671358D02*
X12510876Y-23680881D01*
X12510876Y-23680881D02*
X12501352Y-23699929D01*
X12501352Y-23699929D02*
X12501352Y-23747548D01*
X12501352Y-23747548D02*
X12510876Y-23766596D01*
X12510876Y-23766596D02*
X12520399Y-23776119D01*
X12520399Y-23776119D02*
X12539447Y-23785643D01*
X12539447Y-23785643D02*
X12577542Y-23785643D01*
X12577542Y-23785643D02*
X12596590Y-23776119D01*
X12596590Y-23776119D02*
X12606114Y-23766596D01*
X12606114Y-23766596D02*
X12615637Y-23747548D01*
X12682304Y-23661834D02*
X12815637Y-23661834D01*
X12815637Y-23661834D02*
X12729923Y-23861834D01*
X12882304Y-23661834D02*
X12882304Y-23699929D01*
X12958495Y-23661834D02*
X12958495Y-23699929D01*
X13253733Y-23938024D02*
X13244209Y-23928500D01*
X13244209Y-23928500D02*
X13225161Y-23899929D01*
X13225161Y-23899929D02*
X13215638Y-23880881D01*
X13215638Y-23880881D02*
X13206114Y-23852310D01*
X13206114Y-23852310D02*
X13196590Y-23804691D01*
X13196590Y-23804691D02*
X13196590Y-23766596D01*
X13196590Y-23766596D02*
X13206114Y-23718977D01*
X13206114Y-23718977D02*
X13215638Y-23690405D01*
X13215638Y-23690405D02*
X13225161Y-23671358D01*
X13225161Y-23671358D02*
X13244209Y-23642786D01*
X13244209Y-23642786D02*
X13253733Y-23633262D01*
X13320399Y-23680881D02*
X13329923Y-23671358D01*
X13329923Y-23671358D02*
X13348971Y-23661834D01*
X13348971Y-23661834D02*
X13396590Y-23661834D01*
X13396590Y-23661834D02*
X13415638Y-23671358D01*
X13415638Y-23671358D02*
X13425161Y-23680881D01*
X13425161Y-23680881D02*
X13434685Y-23699929D01*
X13434685Y-23699929D02*
X13434685Y-23718977D01*
X13434685Y-23718977D02*
X13425161Y-23747548D01*
X13425161Y-23747548D02*
X13310876Y-23861834D01*
X13310876Y-23861834D02*
X13434685Y-23861834D01*
X13606114Y-23728500D02*
X13606114Y-23861834D01*
X13558495Y-23652310D02*
X13510876Y-23795167D01*
X13510876Y-23795167D02*
X13634685Y-23795167D01*
X13863257Y-23861834D02*
X13863257Y-23661834D01*
X13948971Y-23861834D02*
X13948971Y-23757072D01*
X13948971Y-23757072D02*
X13939447Y-23738024D01*
X13939447Y-23738024D02*
X13920400Y-23728500D01*
X13920400Y-23728500D02*
X13891828Y-23728500D01*
X13891828Y-23728500D02*
X13872780Y-23738024D01*
X13872780Y-23738024D02*
X13863257Y-23747548D01*
X14072780Y-23861834D02*
X14053733Y-23852310D01*
X14053733Y-23852310D02*
X14044209Y-23842786D01*
X14044209Y-23842786D02*
X14034685Y-23823738D01*
X14034685Y-23823738D02*
X14034685Y-23766596D01*
X14034685Y-23766596D02*
X14044209Y-23747548D01*
X14044209Y-23747548D02*
X14053733Y-23738024D01*
X14053733Y-23738024D02*
X14072780Y-23728500D01*
X14072780Y-23728500D02*
X14101352Y-23728500D01*
X14101352Y-23728500D02*
X14120400Y-23738024D01*
X14120400Y-23738024D02*
X14129923Y-23747548D01*
X14129923Y-23747548D02*
X14139447Y-23766596D01*
X14139447Y-23766596D02*
X14139447Y-23823738D01*
X14139447Y-23823738D02*
X14129923Y-23842786D01*
X14129923Y-23842786D02*
X14120400Y-23852310D01*
X14120400Y-23852310D02*
X14101352Y-23861834D01*
X14101352Y-23861834D02*
X14072780Y-23861834D01*
X14253733Y-23861834D02*
X14234685Y-23852310D01*
X14234685Y-23852310D02*
X14225161Y-23833262D01*
X14225161Y-23833262D02*
X14225161Y-23661834D01*
X14406114Y-23852310D02*
X14387066Y-23861834D01*
X14387066Y-23861834D02*
X14348971Y-23861834D01*
X14348971Y-23861834D02*
X14329923Y-23852310D01*
X14329923Y-23852310D02*
X14320400Y-23833262D01*
X14320400Y-23833262D02*
X14320400Y-23757072D01*
X14320400Y-23757072D02*
X14329923Y-23738024D01*
X14329923Y-23738024D02*
X14348971Y-23728500D01*
X14348971Y-23728500D02*
X14387066Y-23728500D01*
X14387066Y-23728500D02*
X14406114Y-23738024D01*
X14406114Y-23738024D02*
X14415638Y-23757072D01*
X14415638Y-23757072D02*
X14415638Y-23776119D01*
X14415638Y-23776119D02*
X14320400Y-23795167D01*
X14491828Y-23852310D02*
X14510876Y-23861834D01*
X14510876Y-23861834D02*
X14548971Y-23861834D01*
X14548971Y-23861834D02*
X14568019Y-23852310D01*
X14568019Y-23852310D02*
X14577542Y-23833262D01*
X14577542Y-23833262D02*
X14577542Y-23823738D01*
X14577542Y-23823738D02*
X14568019Y-23804691D01*
X14568019Y-23804691D02*
X14548971Y-23795167D01*
X14548971Y-23795167D02*
X14520400Y-23795167D01*
X14520400Y-23795167D02*
X14501352Y-23785643D01*
X14501352Y-23785643D02*
X14491828Y-23766596D01*
X14491828Y-23766596D02*
X14491828Y-23757072D01*
X14491828Y-23757072D02*
X14501352Y-23738024D01*
X14501352Y-23738024D02*
X14520400Y-23728500D01*
X14520400Y-23728500D02*
X14548971Y-23728500D01*
X14548971Y-23728500D02*
X14568019Y-23738024D01*
X14644209Y-23938024D02*
X14653733Y-23928500D01*
X14653733Y-23928500D02*
X14672781Y-23899929D01*
X14672781Y-23899929D02*
X14682304Y-23880881D01*
X14682304Y-23880881D02*
X14691828Y-23852310D01*
X14691828Y-23852310D02*
X14701352Y-23804691D01*
X14701352Y-23804691D02*
X14701352Y-23766596D01*
X14701352Y-23766596D02*
X14691828Y-23718977D01*
X14691828Y-23718977D02*
X14682304Y-23690405D01*
X14682304Y-23690405D02*
X14672781Y-23671358D01*
X14672781Y-23671358D02*
X14653733Y-23642786D01*
X14653733Y-23642786D02*
X14644209Y-23633262D01*
D12*
X9628670Y-23984350D02*
X9628670Y-24084350D01*
X9578670Y-24034350D02*
X9678670Y-24034350D01*
D11*
X10044209Y-24125834D02*
X9929923Y-24125834D01*
X9987066Y-24125834D02*
X9987066Y-23925834D01*
X9987066Y-23925834D02*
X9968018Y-23954405D01*
X9968018Y-23954405D02*
X9948971Y-23973453D01*
X9948971Y-23973453D02*
X9929923Y-23982977D01*
X10129923Y-24106786D02*
X10139447Y-24116310D01*
X10139447Y-24116310D02*
X10129923Y-24125834D01*
X10129923Y-24125834D02*
X10120399Y-24116310D01*
X10120399Y-24116310D02*
X10129923Y-24106786D01*
X10129923Y-24106786D02*
X10129923Y-24125834D01*
X10263256Y-23925834D02*
X10282304Y-23925834D01*
X10282304Y-23925834D02*
X10301352Y-23935358D01*
X10301352Y-23935358D02*
X10310875Y-23944881D01*
X10310875Y-23944881D02*
X10320399Y-23963929D01*
X10320399Y-23963929D02*
X10329923Y-24002024D01*
X10329923Y-24002024D02*
X10329923Y-24049643D01*
X10329923Y-24049643D02*
X10320399Y-24087738D01*
X10320399Y-24087738D02*
X10310875Y-24106786D01*
X10310875Y-24106786D02*
X10301352Y-24116310D01*
X10301352Y-24116310D02*
X10282304Y-24125834D01*
X10282304Y-24125834D02*
X10263256Y-24125834D01*
X10263256Y-24125834D02*
X10244209Y-24116310D01*
X10244209Y-24116310D02*
X10234685Y-24106786D01*
X10234685Y-24106786D02*
X10225161Y-24087738D01*
X10225161Y-24087738D02*
X10215637Y-24049643D01*
X10215637Y-24049643D02*
X10215637Y-24002024D01*
X10215637Y-24002024D02*
X10225161Y-23963929D01*
X10225161Y-23963929D02*
X10234685Y-23944881D01*
X10234685Y-23944881D02*
X10244209Y-23935358D01*
X10244209Y-23935358D02*
X10263256Y-23925834D01*
X10453733Y-23925834D02*
X10472780Y-23925834D01*
X10472780Y-23925834D02*
X10491828Y-23935358D01*
X10491828Y-23935358D02*
X10501352Y-23944881D01*
X10501352Y-23944881D02*
X10510875Y-23963929D01*
X10510875Y-23963929D02*
X10520399Y-24002024D01*
X10520399Y-24002024D02*
X10520399Y-24049643D01*
X10520399Y-24049643D02*
X10510875Y-24087738D01*
X10510875Y-24087738D02*
X10501352Y-24106786D01*
X10501352Y-24106786D02*
X10491828Y-24116310D01*
X10491828Y-24116310D02*
X10472780Y-24125834D01*
X10472780Y-24125834D02*
X10453733Y-24125834D01*
X10453733Y-24125834D02*
X10434685Y-24116310D01*
X10434685Y-24116310D02*
X10425161Y-24106786D01*
X10425161Y-24106786D02*
X10415637Y-24087738D01*
X10415637Y-24087738D02*
X10406114Y-24049643D01*
X10406114Y-24049643D02*
X10406114Y-24002024D01*
X10406114Y-24002024D02*
X10415637Y-23963929D01*
X10415637Y-23963929D02*
X10425161Y-23944881D01*
X10425161Y-23944881D02*
X10434685Y-23935358D01*
X10434685Y-23935358D02*
X10453733Y-23925834D01*
X10644209Y-23925834D02*
X10663256Y-23925834D01*
X10663256Y-23925834D02*
X10682304Y-23935358D01*
X10682304Y-23935358D02*
X10691828Y-23944881D01*
X10691828Y-23944881D02*
X10701352Y-23963929D01*
X10701352Y-23963929D02*
X10710875Y-24002024D01*
X10710875Y-24002024D02*
X10710875Y-24049643D01*
X10710875Y-24049643D02*
X10701352Y-24087738D01*
X10701352Y-24087738D02*
X10691828Y-24106786D01*
X10691828Y-24106786D02*
X10682304Y-24116310D01*
X10682304Y-24116310D02*
X10663256Y-24125834D01*
X10663256Y-24125834D02*
X10644209Y-24125834D01*
X10644209Y-24125834D02*
X10625161Y-24116310D01*
X10625161Y-24116310D02*
X10615637Y-24106786D01*
X10615637Y-24106786D02*
X10606114Y-24087738D01*
X10606114Y-24087738D02*
X10596590Y-24049643D01*
X10596590Y-24049643D02*
X10596590Y-24002024D01*
X10596590Y-24002024D02*
X10606114Y-23963929D01*
X10606114Y-23963929D02*
X10615637Y-23944881D01*
X10615637Y-23944881D02*
X10625161Y-23935358D01*
X10625161Y-23935358D02*
X10644209Y-23925834D01*
X10796590Y-24125834D02*
X10796590Y-23992500D01*
X10796590Y-24011548D02*
X10806114Y-24002024D01*
X10806114Y-24002024D02*
X10825161Y-23992500D01*
X10825161Y-23992500D02*
X10853733Y-23992500D01*
X10853733Y-23992500D02*
X10872780Y-24002024D01*
X10872780Y-24002024D02*
X10882304Y-24021072D01*
X10882304Y-24021072D02*
X10882304Y-24125834D01*
X10882304Y-24021072D02*
X10891828Y-24002024D01*
X10891828Y-24002024D02*
X10910875Y-23992500D01*
X10910875Y-23992500D02*
X10939447Y-23992500D01*
X10939447Y-23992500D02*
X10958495Y-24002024D01*
X10958495Y-24002024D02*
X10968018Y-24021072D01*
X10968018Y-24021072D02*
X10968018Y-24125834D01*
X11063256Y-24125834D02*
X11063256Y-23992500D01*
X11063256Y-24011548D02*
X11072780Y-24002024D01*
X11072780Y-24002024D02*
X11091828Y-23992500D01*
X11091828Y-23992500D02*
X11120399Y-23992500D01*
X11120399Y-23992500D02*
X11139447Y-24002024D01*
X11139447Y-24002024D02*
X11148971Y-24021072D01*
X11148971Y-24021072D02*
X11148971Y-24125834D01*
X11148971Y-24021072D02*
X11158495Y-24002024D01*
X11158495Y-24002024D02*
X11177542Y-23992500D01*
X11177542Y-23992500D02*
X11206113Y-23992500D01*
X11206113Y-23992500D02*
X11225161Y-24002024D01*
X11225161Y-24002024D02*
X11234685Y-24021072D01*
X11234685Y-24021072D02*
X11234685Y-24125834D01*
X11625161Y-23916310D02*
X11453733Y-24173453D01*
X11882304Y-23925834D02*
X11901352Y-23925834D01*
X11901352Y-23925834D02*
X11920399Y-23935358D01*
X11920399Y-23935358D02*
X11929923Y-23944881D01*
X11929923Y-23944881D02*
X11939447Y-23963929D01*
X11939447Y-23963929D02*
X11948971Y-24002024D01*
X11948971Y-24002024D02*
X11948971Y-24049643D01*
X11948971Y-24049643D02*
X11939447Y-24087738D01*
X11939447Y-24087738D02*
X11929923Y-24106786D01*
X11929923Y-24106786D02*
X11920399Y-24116310D01*
X11920399Y-24116310D02*
X11901352Y-24125834D01*
X11901352Y-24125834D02*
X11882304Y-24125834D01*
X11882304Y-24125834D02*
X11863256Y-24116310D01*
X11863256Y-24116310D02*
X11853733Y-24106786D01*
X11853733Y-24106786D02*
X11844209Y-24087738D01*
X11844209Y-24087738D02*
X11834685Y-24049643D01*
X11834685Y-24049643D02*
X11834685Y-24002024D01*
X11834685Y-24002024D02*
X11844209Y-23963929D01*
X11844209Y-23963929D02*
X11853733Y-23944881D01*
X11853733Y-23944881D02*
X11863256Y-23935358D01*
X11863256Y-23935358D02*
X11882304Y-23925834D01*
X12034685Y-24106786D02*
X12044209Y-24116310D01*
X12044209Y-24116310D02*
X12034685Y-24125834D01*
X12034685Y-24125834D02*
X12025161Y-24116310D01*
X12025161Y-24116310D02*
X12034685Y-24106786D01*
X12034685Y-24106786D02*
X12034685Y-24125834D01*
X12168018Y-23925834D02*
X12187066Y-23925834D01*
X12187066Y-23925834D02*
X12206114Y-23935358D01*
X12206114Y-23935358D02*
X12215637Y-23944881D01*
X12215637Y-23944881D02*
X12225161Y-23963929D01*
X12225161Y-23963929D02*
X12234685Y-24002024D01*
X12234685Y-24002024D02*
X12234685Y-24049643D01*
X12234685Y-24049643D02*
X12225161Y-24087738D01*
X12225161Y-24087738D02*
X12215637Y-24106786D01*
X12215637Y-24106786D02*
X12206114Y-24116310D01*
X12206114Y-24116310D02*
X12187066Y-24125834D01*
X12187066Y-24125834D02*
X12168018Y-24125834D01*
X12168018Y-24125834D02*
X12148971Y-24116310D01*
X12148971Y-24116310D02*
X12139447Y-24106786D01*
X12139447Y-24106786D02*
X12129923Y-24087738D01*
X12129923Y-24087738D02*
X12120399Y-24049643D01*
X12120399Y-24049643D02*
X12120399Y-24002024D01*
X12120399Y-24002024D02*
X12129923Y-23963929D01*
X12129923Y-23963929D02*
X12139447Y-23944881D01*
X12139447Y-23944881D02*
X12148971Y-23935358D01*
X12148971Y-23935358D02*
X12168018Y-23925834D01*
X12301352Y-23925834D02*
X12425161Y-23925834D01*
X12425161Y-23925834D02*
X12358495Y-24002024D01*
X12358495Y-24002024D02*
X12387066Y-24002024D01*
X12387066Y-24002024D02*
X12406114Y-24011548D01*
X12406114Y-24011548D02*
X12415637Y-24021072D01*
X12415637Y-24021072D02*
X12425161Y-24040119D01*
X12425161Y-24040119D02*
X12425161Y-24087738D01*
X12425161Y-24087738D02*
X12415637Y-24106786D01*
X12415637Y-24106786D02*
X12406114Y-24116310D01*
X12406114Y-24116310D02*
X12387066Y-24125834D01*
X12387066Y-24125834D02*
X12329923Y-24125834D01*
X12329923Y-24125834D02*
X12310876Y-24116310D01*
X12310876Y-24116310D02*
X12301352Y-24106786D01*
X12520399Y-24125834D02*
X12558495Y-24125834D01*
X12558495Y-24125834D02*
X12577542Y-24116310D01*
X12577542Y-24116310D02*
X12587066Y-24106786D01*
X12587066Y-24106786D02*
X12606114Y-24078215D01*
X12606114Y-24078215D02*
X12615637Y-24040119D01*
X12615637Y-24040119D02*
X12615637Y-23963929D01*
X12615637Y-23963929D02*
X12606114Y-23944881D01*
X12606114Y-23944881D02*
X12596590Y-23935358D01*
X12596590Y-23935358D02*
X12577542Y-23925834D01*
X12577542Y-23925834D02*
X12539447Y-23925834D01*
X12539447Y-23925834D02*
X12520399Y-23935358D01*
X12520399Y-23935358D02*
X12510876Y-23944881D01*
X12510876Y-23944881D02*
X12501352Y-23963929D01*
X12501352Y-23963929D02*
X12501352Y-24011548D01*
X12501352Y-24011548D02*
X12510876Y-24030596D01*
X12510876Y-24030596D02*
X12520399Y-24040119D01*
X12520399Y-24040119D02*
X12539447Y-24049643D01*
X12539447Y-24049643D02*
X12577542Y-24049643D01*
X12577542Y-24049643D02*
X12596590Y-24040119D01*
X12596590Y-24040119D02*
X12606114Y-24030596D01*
X12606114Y-24030596D02*
X12615637Y-24011548D01*
X12787066Y-23992500D02*
X12787066Y-24125834D01*
X12739447Y-23916310D02*
X12691828Y-24059167D01*
X12691828Y-24059167D02*
X12815637Y-24059167D01*
X12882304Y-23925834D02*
X12882304Y-23963929D01*
X12958495Y-23925834D02*
X12958495Y-23963929D01*
X13253733Y-24202024D02*
X13244209Y-24192500D01*
X13244209Y-24192500D02*
X13225161Y-24163929D01*
X13225161Y-24163929D02*
X13215638Y-24144881D01*
X13215638Y-24144881D02*
X13206114Y-24116310D01*
X13206114Y-24116310D02*
X13196590Y-24068691D01*
X13196590Y-24068691D02*
X13196590Y-24030596D01*
X13196590Y-24030596D02*
X13206114Y-23982977D01*
X13206114Y-23982977D02*
X13215638Y-23954405D01*
X13215638Y-23954405D02*
X13225161Y-23935358D01*
X13225161Y-23935358D02*
X13244209Y-23906786D01*
X13244209Y-23906786D02*
X13253733Y-23897262D01*
X13434685Y-24125834D02*
X13320399Y-24125834D01*
X13377542Y-24125834D02*
X13377542Y-23925834D01*
X13377542Y-23925834D02*
X13358495Y-23954405D01*
X13358495Y-23954405D02*
X13339447Y-23973453D01*
X13339447Y-23973453D02*
X13320399Y-23982977D01*
X13558495Y-23925834D02*
X13577542Y-23925834D01*
X13577542Y-23925834D02*
X13596590Y-23935358D01*
X13596590Y-23935358D02*
X13606114Y-23944881D01*
X13606114Y-23944881D02*
X13615638Y-23963929D01*
X13615638Y-23963929D02*
X13625161Y-24002024D01*
X13625161Y-24002024D02*
X13625161Y-24049643D01*
X13625161Y-24049643D02*
X13615638Y-24087738D01*
X13615638Y-24087738D02*
X13606114Y-24106786D01*
X13606114Y-24106786D02*
X13596590Y-24116310D01*
X13596590Y-24116310D02*
X13577542Y-24125834D01*
X13577542Y-24125834D02*
X13558495Y-24125834D01*
X13558495Y-24125834D02*
X13539447Y-24116310D01*
X13539447Y-24116310D02*
X13529923Y-24106786D01*
X13529923Y-24106786D02*
X13520399Y-24087738D01*
X13520399Y-24087738D02*
X13510876Y-24049643D01*
X13510876Y-24049643D02*
X13510876Y-24002024D01*
X13510876Y-24002024D02*
X13520399Y-23963929D01*
X13520399Y-23963929D02*
X13529923Y-23944881D01*
X13529923Y-23944881D02*
X13539447Y-23935358D01*
X13539447Y-23935358D02*
X13558495Y-23925834D01*
X13748971Y-23925834D02*
X13768019Y-23925834D01*
X13768019Y-23925834D02*
X13787066Y-23935358D01*
X13787066Y-23935358D02*
X13796590Y-23944881D01*
X13796590Y-23944881D02*
X13806114Y-23963929D01*
X13806114Y-23963929D02*
X13815638Y-24002024D01*
X13815638Y-24002024D02*
X13815638Y-24049643D01*
X13815638Y-24049643D02*
X13806114Y-24087738D01*
X13806114Y-24087738D02*
X13796590Y-24106786D01*
X13796590Y-24106786D02*
X13787066Y-24116310D01*
X13787066Y-24116310D02*
X13768019Y-24125834D01*
X13768019Y-24125834D02*
X13748971Y-24125834D01*
X13748971Y-24125834D02*
X13729923Y-24116310D01*
X13729923Y-24116310D02*
X13720399Y-24106786D01*
X13720399Y-24106786D02*
X13710876Y-24087738D01*
X13710876Y-24087738D02*
X13701352Y-24049643D01*
X13701352Y-24049643D02*
X13701352Y-24002024D01*
X13701352Y-24002024D02*
X13710876Y-23963929D01*
X13710876Y-23963929D02*
X13720399Y-23944881D01*
X13720399Y-23944881D02*
X13729923Y-23935358D01*
X13729923Y-23935358D02*
X13748971Y-23925834D01*
X14053733Y-24125834D02*
X14053733Y-23925834D01*
X14139447Y-24125834D02*
X14139447Y-24021072D01*
X14139447Y-24021072D02*
X14129923Y-24002024D01*
X14129923Y-24002024D02*
X14110876Y-23992500D01*
X14110876Y-23992500D02*
X14082304Y-23992500D01*
X14082304Y-23992500D02*
X14063257Y-24002024D01*
X14063257Y-24002024D02*
X14053733Y-24011548D01*
X14263257Y-24125834D02*
X14244209Y-24116310D01*
X14244209Y-24116310D02*
X14234685Y-24106786D01*
X14234685Y-24106786D02*
X14225161Y-24087738D01*
X14225161Y-24087738D02*
X14225161Y-24030596D01*
X14225161Y-24030596D02*
X14234685Y-24011548D01*
X14234685Y-24011548D02*
X14244209Y-24002024D01*
X14244209Y-24002024D02*
X14263257Y-23992500D01*
X14263257Y-23992500D02*
X14291828Y-23992500D01*
X14291828Y-23992500D02*
X14310876Y-24002024D01*
X14310876Y-24002024D02*
X14320400Y-24011548D01*
X14320400Y-24011548D02*
X14329923Y-24030596D01*
X14329923Y-24030596D02*
X14329923Y-24087738D01*
X14329923Y-24087738D02*
X14320400Y-24106786D01*
X14320400Y-24106786D02*
X14310876Y-24116310D01*
X14310876Y-24116310D02*
X14291828Y-24125834D01*
X14291828Y-24125834D02*
X14263257Y-24125834D01*
X14444209Y-24125834D02*
X14425161Y-24116310D01*
X14425161Y-24116310D02*
X14415638Y-24097262D01*
X14415638Y-24097262D02*
X14415638Y-23925834D01*
X14596590Y-24116310D02*
X14577542Y-24125834D01*
X14577542Y-24125834D02*
X14539447Y-24125834D01*
X14539447Y-24125834D02*
X14520400Y-24116310D01*
X14520400Y-24116310D02*
X14510876Y-24097262D01*
X14510876Y-24097262D02*
X14510876Y-24021072D01*
X14510876Y-24021072D02*
X14520400Y-24002024D01*
X14520400Y-24002024D02*
X14539447Y-23992500D01*
X14539447Y-23992500D02*
X14577542Y-23992500D01*
X14577542Y-23992500D02*
X14596590Y-24002024D01*
X14596590Y-24002024D02*
X14606114Y-24021072D01*
X14606114Y-24021072D02*
X14606114Y-24040119D01*
X14606114Y-24040119D02*
X14510876Y-24059167D01*
X14682304Y-24116310D02*
X14701352Y-24125834D01*
X14701352Y-24125834D02*
X14739447Y-24125834D01*
X14739447Y-24125834D02*
X14758495Y-24116310D01*
X14758495Y-24116310D02*
X14768019Y-24097262D01*
X14768019Y-24097262D02*
X14768019Y-24087738D01*
X14768019Y-24087738D02*
X14758495Y-24068691D01*
X14758495Y-24068691D02*
X14739447Y-24059167D01*
X14739447Y-24059167D02*
X14710876Y-24059167D01*
X14710876Y-24059167D02*
X14691828Y-24049643D01*
X14691828Y-24049643D02*
X14682304Y-24030596D01*
X14682304Y-24030596D02*
X14682304Y-24021072D01*
X14682304Y-24021072D02*
X14691828Y-24002024D01*
X14691828Y-24002024D02*
X14710876Y-23992500D01*
X14710876Y-23992500D02*
X14739447Y-23992500D01*
X14739447Y-23992500D02*
X14758495Y-24002024D01*
X14834685Y-24202024D02*
X14844209Y-24192500D01*
X14844209Y-24192500D02*
X14863257Y-24163929D01*
X14863257Y-24163929D02*
X14872781Y-24144881D01*
X14872781Y-24144881D02*
X14882304Y-24116310D01*
X14882304Y-24116310D02*
X14891828Y-24068691D01*
X14891828Y-24068691D02*
X14891828Y-24030596D01*
X14891828Y-24030596D02*
X14882304Y-23982977D01*
X14882304Y-23982977D02*
X14872781Y-23954405D01*
X14872781Y-23954405D02*
X14863257Y-23935358D01*
X14863257Y-23935358D02*
X14844209Y-23906786D01*
X14844209Y-23906786D02*
X14834685Y-23897262D01*
D13*
X9656704Y-24351383D02*
X9656704Y-24245316D01*
X9550637Y-24245316D01*
X9550637Y-24351383D01*
X9656704Y-24351383D01*
D11*
X10044209Y-24389834D02*
X9929923Y-24389834D01*
X9987066Y-24389834D02*
X9987066Y-24189834D01*
X9987066Y-24189834D02*
X9968018Y-24218405D01*
X9968018Y-24218405D02*
X9948971Y-24237453D01*
X9948971Y-24237453D02*
X9929923Y-24246977D01*
X10129923Y-24370786D02*
X10139447Y-24380310D01*
X10139447Y-24380310D02*
X10129923Y-24389834D01*
X10129923Y-24389834D02*
X10120399Y-24380310D01*
X10120399Y-24380310D02*
X10129923Y-24370786D01*
X10129923Y-24370786D02*
X10129923Y-24389834D01*
X10320399Y-24189834D02*
X10225161Y-24189834D01*
X10225161Y-24189834D02*
X10215637Y-24285072D01*
X10215637Y-24285072D02*
X10225161Y-24275548D01*
X10225161Y-24275548D02*
X10244209Y-24266024D01*
X10244209Y-24266024D02*
X10291828Y-24266024D01*
X10291828Y-24266024D02*
X10310875Y-24275548D01*
X10310875Y-24275548D02*
X10320399Y-24285072D01*
X10320399Y-24285072D02*
X10329923Y-24304119D01*
X10329923Y-24304119D02*
X10329923Y-24351738D01*
X10329923Y-24351738D02*
X10320399Y-24370786D01*
X10320399Y-24370786D02*
X10310875Y-24380310D01*
X10310875Y-24380310D02*
X10291828Y-24389834D01*
X10291828Y-24389834D02*
X10244209Y-24389834D01*
X10244209Y-24389834D02*
X10225161Y-24380310D01*
X10225161Y-24380310D02*
X10215637Y-24370786D01*
X10453733Y-24189834D02*
X10472780Y-24189834D01*
X10472780Y-24189834D02*
X10491828Y-24199358D01*
X10491828Y-24199358D02*
X10501352Y-24208881D01*
X10501352Y-24208881D02*
X10510875Y-24227929D01*
X10510875Y-24227929D02*
X10520399Y-24266024D01*
X10520399Y-24266024D02*
X10520399Y-24313643D01*
X10520399Y-24313643D02*
X10510875Y-24351738D01*
X10510875Y-24351738D02*
X10501352Y-24370786D01*
X10501352Y-24370786D02*
X10491828Y-24380310D01*
X10491828Y-24380310D02*
X10472780Y-24389834D01*
X10472780Y-24389834D02*
X10453733Y-24389834D01*
X10453733Y-24389834D02*
X10434685Y-24380310D01*
X10434685Y-24380310D02*
X10425161Y-24370786D01*
X10425161Y-24370786D02*
X10415637Y-24351738D01*
X10415637Y-24351738D02*
X10406114Y-24313643D01*
X10406114Y-24313643D02*
X10406114Y-24266024D01*
X10406114Y-24266024D02*
X10415637Y-24227929D01*
X10415637Y-24227929D02*
X10425161Y-24208881D01*
X10425161Y-24208881D02*
X10434685Y-24199358D01*
X10434685Y-24199358D02*
X10453733Y-24189834D01*
X10644209Y-24189834D02*
X10663256Y-24189834D01*
X10663256Y-24189834D02*
X10682304Y-24199358D01*
X10682304Y-24199358D02*
X10691828Y-24208881D01*
X10691828Y-24208881D02*
X10701352Y-24227929D01*
X10701352Y-24227929D02*
X10710875Y-24266024D01*
X10710875Y-24266024D02*
X10710875Y-24313643D01*
X10710875Y-24313643D02*
X10701352Y-24351738D01*
X10701352Y-24351738D02*
X10691828Y-24370786D01*
X10691828Y-24370786D02*
X10682304Y-24380310D01*
X10682304Y-24380310D02*
X10663256Y-24389834D01*
X10663256Y-24389834D02*
X10644209Y-24389834D01*
X10644209Y-24389834D02*
X10625161Y-24380310D01*
X10625161Y-24380310D02*
X10615637Y-24370786D01*
X10615637Y-24370786D02*
X10606114Y-24351738D01*
X10606114Y-24351738D02*
X10596590Y-24313643D01*
X10596590Y-24313643D02*
X10596590Y-24266024D01*
X10596590Y-24266024D02*
X10606114Y-24227929D01*
X10606114Y-24227929D02*
X10615637Y-24208881D01*
X10615637Y-24208881D02*
X10625161Y-24199358D01*
X10625161Y-24199358D02*
X10644209Y-24189834D01*
X10796590Y-24389834D02*
X10796590Y-24256500D01*
X10796590Y-24275548D02*
X10806114Y-24266024D01*
X10806114Y-24266024D02*
X10825161Y-24256500D01*
X10825161Y-24256500D02*
X10853733Y-24256500D01*
X10853733Y-24256500D02*
X10872780Y-24266024D01*
X10872780Y-24266024D02*
X10882304Y-24285072D01*
X10882304Y-24285072D02*
X10882304Y-24389834D01*
X10882304Y-24285072D02*
X10891828Y-24266024D01*
X10891828Y-24266024D02*
X10910875Y-24256500D01*
X10910875Y-24256500D02*
X10939447Y-24256500D01*
X10939447Y-24256500D02*
X10958495Y-24266024D01*
X10958495Y-24266024D02*
X10968018Y-24285072D01*
X10968018Y-24285072D02*
X10968018Y-24389834D01*
X11063256Y-24389834D02*
X11063256Y-24256500D01*
X11063256Y-24275548D02*
X11072780Y-24266024D01*
X11072780Y-24266024D02*
X11091828Y-24256500D01*
X11091828Y-24256500D02*
X11120399Y-24256500D01*
X11120399Y-24256500D02*
X11139447Y-24266024D01*
X11139447Y-24266024D02*
X11148971Y-24285072D01*
X11148971Y-24285072D02*
X11148971Y-24389834D01*
X11148971Y-24285072D02*
X11158495Y-24266024D01*
X11158495Y-24266024D02*
X11177542Y-24256500D01*
X11177542Y-24256500D02*
X11206113Y-24256500D01*
X11206113Y-24256500D02*
X11225161Y-24266024D01*
X11225161Y-24266024D02*
X11234685Y-24285072D01*
X11234685Y-24285072D02*
X11234685Y-24389834D01*
X11625161Y-24180310D02*
X11453733Y-24437453D01*
X11882304Y-24189834D02*
X11901352Y-24189834D01*
X11901352Y-24189834D02*
X11920399Y-24199358D01*
X11920399Y-24199358D02*
X11929923Y-24208881D01*
X11929923Y-24208881D02*
X11939447Y-24227929D01*
X11939447Y-24227929D02*
X11948971Y-24266024D01*
X11948971Y-24266024D02*
X11948971Y-24313643D01*
X11948971Y-24313643D02*
X11939447Y-24351738D01*
X11939447Y-24351738D02*
X11929923Y-24370786D01*
X11929923Y-24370786D02*
X11920399Y-24380310D01*
X11920399Y-24380310D02*
X11901352Y-24389834D01*
X11901352Y-24389834D02*
X11882304Y-24389834D01*
X11882304Y-24389834D02*
X11863256Y-24380310D01*
X11863256Y-24380310D02*
X11853733Y-24370786D01*
X11853733Y-24370786D02*
X11844209Y-24351738D01*
X11844209Y-24351738D02*
X11834685Y-24313643D01*
X11834685Y-24313643D02*
X11834685Y-24266024D01*
X11834685Y-24266024D02*
X11844209Y-24227929D01*
X11844209Y-24227929D02*
X11853733Y-24208881D01*
X11853733Y-24208881D02*
X11863256Y-24199358D01*
X11863256Y-24199358D02*
X11882304Y-24189834D01*
X12034685Y-24370786D02*
X12044209Y-24380310D01*
X12044209Y-24380310D02*
X12034685Y-24389834D01*
X12034685Y-24389834D02*
X12025161Y-24380310D01*
X12025161Y-24380310D02*
X12034685Y-24370786D01*
X12034685Y-24370786D02*
X12034685Y-24389834D01*
X12168018Y-24189834D02*
X12187066Y-24189834D01*
X12187066Y-24189834D02*
X12206114Y-24199358D01*
X12206114Y-24199358D02*
X12215637Y-24208881D01*
X12215637Y-24208881D02*
X12225161Y-24227929D01*
X12225161Y-24227929D02*
X12234685Y-24266024D01*
X12234685Y-24266024D02*
X12234685Y-24313643D01*
X12234685Y-24313643D02*
X12225161Y-24351738D01*
X12225161Y-24351738D02*
X12215637Y-24370786D01*
X12215637Y-24370786D02*
X12206114Y-24380310D01*
X12206114Y-24380310D02*
X12187066Y-24389834D01*
X12187066Y-24389834D02*
X12168018Y-24389834D01*
X12168018Y-24389834D02*
X12148971Y-24380310D01*
X12148971Y-24380310D02*
X12139447Y-24370786D01*
X12139447Y-24370786D02*
X12129923Y-24351738D01*
X12129923Y-24351738D02*
X12120399Y-24313643D01*
X12120399Y-24313643D02*
X12120399Y-24266024D01*
X12120399Y-24266024D02*
X12129923Y-24227929D01*
X12129923Y-24227929D02*
X12139447Y-24208881D01*
X12139447Y-24208881D02*
X12148971Y-24199358D01*
X12148971Y-24199358D02*
X12168018Y-24189834D01*
X12415637Y-24189834D02*
X12320399Y-24189834D01*
X12320399Y-24189834D02*
X12310876Y-24285072D01*
X12310876Y-24285072D02*
X12320399Y-24275548D01*
X12320399Y-24275548D02*
X12339447Y-24266024D01*
X12339447Y-24266024D02*
X12387066Y-24266024D01*
X12387066Y-24266024D02*
X12406114Y-24275548D01*
X12406114Y-24275548D02*
X12415637Y-24285072D01*
X12415637Y-24285072D02*
X12425161Y-24304119D01*
X12425161Y-24304119D02*
X12425161Y-24351738D01*
X12425161Y-24351738D02*
X12415637Y-24370786D01*
X12415637Y-24370786D02*
X12406114Y-24380310D01*
X12406114Y-24380310D02*
X12387066Y-24389834D01*
X12387066Y-24389834D02*
X12339447Y-24389834D01*
X12339447Y-24389834D02*
X12320399Y-24380310D01*
X12320399Y-24380310D02*
X12310876Y-24370786D01*
X12520399Y-24389834D02*
X12558495Y-24389834D01*
X12558495Y-24389834D02*
X12577542Y-24380310D01*
X12577542Y-24380310D02*
X12587066Y-24370786D01*
X12587066Y-24370786D02*
X12606114Y-24342215D01*
X12606114Y-24342215D02*
X12615637Y-24304119D01*
X12615637Y-24304119D02*
X12615637Y-24227929D01*
X12615637Y-24227929D02*
X12606114Y-24208881D01*
X12606114Y-24208881D02*
X12596590Y-24199358D01*
X12596590Y-24199358D02*
X12577542Y-24189834D01*
X12577542Y-24189834D02*
X12539447Y-24189834D01*
X12539447Y-24189834D02*
X12520399Y-24199358D01*
X12520399Y-24199358D02*
X12510876Y-24208881D01*
X12510876Y-24208881D02*
X12501352Y-24227929D01*
X12501352Y-24227929D02*
X12501352Y-24275548D01*
X12501352Y-24275548D02*
X12510876Y-24294596D01*
X12510876Y-24294596D02*
X12520399Y-24304119D01*
X12520399Y-24304119D02*
X12539447Y-24313643D01*
X12539447Y-24313643D02*
X12577542Y-24313643D01*
X12577542Y-24313643D02*
X12596590Y-24304119D01*
X12596590Y-24304119D02*
X12606114Y-24294596D01*
X12606114Y-24294596D02*
X12615637Y-24275548D01*
X12806114Y-24389834D02*
X12691828Y-24389834D01*
X12748971Y-24389834D02*
X12748971Y-24189834D01*
X12748971Y-24189834D02*
X12729923Y-24218405D01*
X12729923Y-24218405D02*
X12710876Y-24237453D01*
X12710876Y-24237453D02*
X12691828Y-24246977D01*
X12882304Y-24189834D02*
X12882304Y-24227929D01*
X12958495Y-24189834D02*
X12958495Y-24227929D01*
X13253733Y-24466024D02*
X13244209Y-24456500D01*
X13244209Y-24456500D02*
X13225161Y-24427929D01*
X13225161Y-24427929D02*
X13215638Y-24408881D01*
X13215638Y-24408881D02*
X13206114Y-24380310D01*
X13206114Y-24380310D02*
X13196590Y-24332691D01*
X13196590Y-24332691D02*
X13196590Y-24294596D01*
X13196590Y-24294596D02*
X13206114Y-24246977D01*
X13206114Y-24246977D02*
X13215638Y-24218405D01*
X13215638Y-24218405D02*
X13225161Y-24199358D01*
X13225161Y-24199358D02*
X13244209Y-24170786D01*
X13244209Y-24170786D02*
X13253733Y-24161262D01*
X13320399Y-24208881D02*
X13329923Y-24199358D01*
X13329923Y-24199358D02*
X13348971Y-24189834D01*
X13348971Y-24189834D02*
X13396590Y-24189834D01*
X13396590Y-24189834D02*
X13415638Y-24199358D01*
X13415638Y-24199358D02*
X13425161Y-24208881D01*
X13425161Y-24208881D02*
X13434685Y-24227929D01*
X13434685Y-24227929D02*
X13434685Y-24246977D01*
X13434685Y-24246977D02*
X13425161Y-24275548D01*
X13425161Y-24275548D02*
X13310876Y-24389834D01*
X13310876Y-24389834D02*
X13434685Y-24389834D01*
X13558495Y-24189834D02*
X13577542Y-24189834D01*
X13577542Y-24189834D02*
X13596590Y-24199358D01*
X13596590Y-24199358D02*
X13606114Y-24208881D01*
X13606114Y-24208881D02*
X13615638Y-24227929D01*
X13615638Y-24227929D02*
X13625161Y-24266024D01*
X13625161Y-24266024D02*
X13625161Y-24313643D01*
X13625161Y-24313643D02*
X13615638Y-24351738D01*
X13615638Y-24351738D02*
X13606114Y-24370786D01*
X13606114Y-24370786D02*
X13596590Y-24380310D01*
X13596590Y-24380310D02*
X13577542Y-24389834D01*
X13577542Y-24389834D02*
X13558495Y-24389834D01*
X13558495Y-24389834D02*
X13539447Y-24380310D01*
X13539447Y-24380310D02*
X13529923Y-24370786D01*
X13529923Y-24370786D02*
X13520399Y-24351738D01*
X13520399Y-24351738D02*
X13510876Y-24313643D01*
X13510876Y-24313643D02*
X13510876Y-24266024D01*
X13510876Y-24266024D02*
X13520399Y-24227929D01*
X13520399Y-24227929D02*
X13529923Y-24208881D01*
X13529923Y-24208881D02*
X13539447Y-24199358D01*
X13539447Y-24199358D02*
X13558495Y-24189834D01*
X13863257Y-24389834D02*
X13863257Y-24189834D01*
X13948971Y-24389834D02*
X13948971Y-24285072D01*
X13948971Y-24285072D02*
X13939447Y-24266024D01*
X13939447Y-24266024D02*
X13920400Y-24256500D01*
X13920400Y-24256500D02*
X13891828Y-24256500D01*
X13891828Y-24256500D02*
X13872780Y-24266024D01*
X13872780Y-24266024D02*
X13863257Y-24275548D01*
X14072780Y-24389834D02*
X14053733Y-24380310D01*
X14053733Y-24380310D02*
X14044209Y-24370786D01*
X14044209Y-24370786D02*
X14034685Y-24351738D01*
X14034685Y-24351738D02*
X14034685Y-24294596D01*
X14034685Y-24294596D02*
X14044209Y-24275548D01*
X14044209Y-24275548D02*
X14053733Y-24266024D01*
X14053733Y-24266024D02*
X14072780Y-24256500D01*
X14072780Y-24256500D02*
X14101352Y-24256500D01*
X14101352Y-24256500D02*
X14120400Y-24266024D01*
X14120400Y-24266024D02*
X14129923Y-24275548D01*
X14129923Y-24275548D02*
X14139447Y-24294596D01*
X14139447Y-24294596D02*
X14139447Y-24351738D01*
X14139447Y-24351738D02*
X14129923Y-24370786D01*
X14129923Y-24370786D02*
X14120400Y-24380310D01*
X14120400Y-24380310D02*
X14101352Y-24389834D01*
X14101352Y-24389834D02*
X14072780Y-24389834D01*
X14253733Y-24389834D02*
X14234685Y-24380310D01*
X14234685Y-24380310D02*
X14225161Y-24361262D01*
X14225161Y-24361262D02*
X14225161Y-24189834D01*
X14406114Y-24380310D02*
X14387066Y-24389834D01*
X14387066Y-24389834D02*
X14348971Y-24389834D01*
X14348971Y-24389834D02*
X14329923Y-24380310D01*
X14329923Y-24380310D02*
X14320400Y-24361262D01*
X14320400Y-24361262D02*
X14320400Y-24285072D01*
X14320400Y-24285072D02*
X14329923Y-24266024D01*
X14329923Y-24266024D02*
X14348971Y-24256500D01*
X14348971Y-24256500D02*
X14387066Y-24256500D01*
X14387066Y-24256500D02*
X14406114Y-24266024D01*
X14406114Y-24266024D02*
X14415638Y-24285072D01*
X14415638Y-24285072D02*
X14415638Y-24304119D01*
X14415638Y-24304119D02*
X14320400Y-24323167D01*
X14491828Y-24380310D02*
X14510876Y-24389834D01*
X14510876Y-24389834D02*
X14548971Y-24389834D01*
X14548971Y-24389834D02*
X14568019Y-24380310D01*
X14568019Y-24380310D02*
X14577542Y-24361262D01*
X14577542Y-24361262D02*
X14577542Y-24351738D01*
X14577542Y-24351738D02*
X14568019Y-24332691D01*
X14568019Y-24332691D02*
X14548971Y-24323167D01*
X14548971Y-24323167D02*
X14520400Y-24323167D01*
X14520400Y-24323167D02*
X14501352Y-24313643D01*
X14501352Y-24313643D02*
X14491828Y-24294596D01*
X14491828Y-24294596D02*
X14491828Y-24285072D01*
X14491828Y-24285072D02*
X14501352Y-24266024D01*
X14501352Y-24266024D02*
X14520400Y-24256500D01*
X14520400Y-24256500D02*
X14548971Y-24256500D01*
X14548971Y-24256500D02*
X14568019Y-24266024D01*
X14644209Y-24466024D02*
X14653733Y-24456500D01*
X14653733Y-24456500D02*
X14672781Y-24427929D01*
X14672781Y-24427929D02*
X14682304Y-24408881D01*
X14682304Y-24408881D02*
X14691828Y-24380310D01*
X14691828Y-24380310D02*
X14701352Y-24332691D01*
X14701352Y-24332691D02*
X14701352Y-24294596D01*
X14701352Y-24294596D02*
X14691828Y-24246977D01*
X14691828Y-24246977D02*
X14682304Y-24218405D01*
X14682304Y-24218405D02*
X14672781Y-24199358D01*
X14672781Y-24199358D02*
X14653733Y-24170786D01*
X14653733Y-24170786D02*
X14644209Y-24161262D01*
X9578670Y-24668350D02*
X9678670Y-24568350D01*
X9578670Y-24468350D01*
X9478670Y-24568350D01*
X9578670Y-24668350D01*
X9920399Y-24459834D02*
X10044209Y-24459834D01*
X10044209Y-24459834D02*
X9977542Y-24536024D01*
X9977542Y-24536024D02*
X10006114Y-24536024D01*
X10006114Y-24536024D02*
X10025161Y-24545548D01*
X10025161Y-24545548D02*
X10034685Y-24555072D01*
X10034685Y-24555072D02*
X10044209Y-24574119D01*
X10044209Y-24574119D02*
X10044209Y-24621738D01*
X10044209Y-24621738D02*
X10034685Y-24640786D01*
X10034685Y-24640786D02*
X10025161Y-24650310D01*
X10025161Y-24650310D02*
X10006114Y-24659834D01*
X10006114Y-24659834D02*
X9948971Y-24659834D01*
X9948971Y-24659834D02*
X9929923Y-24650310D01*
X9929923Y-24650310D02*
X9920399Y-24640786D01*
X10129923Y-24640786D02*
X10139447Y-24650310D01*
X10139447Y-24650310D02*
X10129923Y-24659834D01*
X10129923Y-24659834D02*
X10120399Y-24650310D01*
X10120399Y-24650310D02*
X10129923Y-24640786D01*
X10129923Y-24640786D02*
X10129923Y-24659834D01*
X10206114Y-24459834D02*
X10339447Y-24459834D01*
X10339447Y-24459834D02*
X10253733Y-24659834D01*
X10453733Y-24459834D02*
X10472780Y-24459834D01*
X10472780Y-24459834D02*
X10491828Y-24469358D01*
X10491828Y-24469358D02*
X10501352Y-24478881D01*
X10501352Y-24478881D02*
X10510875Y-24497929D01*
X10510875Y-24497929D02*
X10520399Y-24536024D01*
X10520399Y-24536024D02*
X10520399Y-24583643D01*
X10520399Y-24583643D02*
X10510875Y-24621738D01*
X10510875Y-24621738D02*
X10501352Y-24640786D01*
X10501352Y-24640786D02*
X10491828Y-24650310D01*
X10491828Y-24650310D02*
X10472780Y-24659834D01*
X10472780Y-24659834D02*
X10453733Y-24659834D01*
X10453733Y-24659834D02*
X10434685Y-24650310D01*
X10434685Y-24650310D02*
X10425161Y-24640786D01*
X10425161Y-24640786D02*
X10415637Y-24621738D01*
X10415637Y-24621738D02*
X10406114Y-24583643D01*
X10406114Y-24583643D02*
X10406114Y-24536024D01*
X10406114Y-24536024D02*
X10415637Y-24497929D01*
X10415637Y-24497929D02*
X10425161Y-24478881D01*
X10425161Y-24478881D02*
X10434685Y-24469358D01*
X10434685Y-24469358D02*
X10453733Y-24459834D01*
X10644209Y-24459834D02*
X10663256Y-24459834D01*
X10663256Y-24459834D02*
X10682304Y-24469358D01*
X10682304Y-24469358D02*
X10691828Y-24478881D01*
X10691828Y-24478881D02*
X10701352Y-24497929D01*
X10701352Y-24497929D02*
X10710875Y-24536024D01*
X10710875Y-24536024D02*
X10710875Y-24583643D01*
X10710875Y-24583643D02*
X10701352Y-24621738D01*
X10701352Y-24621738D02*
X10691828Y-24640786D01*
X10691828Y-24640786D02*
X10682304Y-24650310D01*
X10682304Y-24650310D02*
X10663256Y-24659834D01*
X10663256Y-24659834D02*
X10644209Y-24659834D01*
X10644209Y-24659834D02*
X10625161Y-24650310D01*
X10625161Y-24650310D02*
X10615637Y-24640786D01*
X10615637Y-24640786D02*
X10606114Y-24621738D01*
X10606114Y-24621738D02*
X10596590Y-24583643D01*
X10596590Y-24583643D02*
X10596590Y-24536024D01*
X10596590Y-24536024D02*
X10606114Y-24497929D01*
X10606114Y-24497929D02*
X10615637Y-24478881D01*
X10615637Y-24478881D02*
X10625161Y-24469358D01*
X10625161Y-24469358D02*
X10644209Y-24459834D01*
X10796590Y-24659834D02*
X10796590Y-24526500D01*
X10796590Y-24545548D02*
X10806114Y-24536024D01*
X10806114Y-24536024D02*
X10825161Y-24526500D01*
X10825161Y-24526500D02*
X10853733Y-24526500D01*
X10853733Y-24526500D02*
X10872780Y-24536024D01*
X10872780Y-24536024D02*
X10882304Y-24555072D01*
X10882304Y-24555072D02*
X10882304Y-24659834D01*
X10882304Y-24555072D02*
X10891828Y-24536024D01*
X10891828Y-24536024D02*
X10910875Y-24526500D01*
X10910875Y-24526500D02*
X10939447Y-24526500D01*
X10939447Y-24526500D02*
X10958495Y-24536024D01*
X10958495Y-24536024D02*
X10968018Y-24555072D01*
X10968018Y-24555072D02*
X10968018Y-24659834D01*
X11063256Y-24659834D02*
X11063256Y-24526500D01*
X11063256Y-24545548D02*
X11072780Y-24536024D01*
X11072780Y-24536024D02*
X11091828Y-24526500D01*
X11091828Y-24526500D02*
X11120399Y-24526500D01*
X11120399Y-24526500D02*
X11139447Y-24536024D01*
X11139447Y-24536024D02*
X11148971Y-24555072D01*
X11148971Y-24555072D02*
X11148971Y-24659834D01*
X11148971Y-24555072D02*
X11158495Y-24536024D01*
X11158495Y-24536024D02*
X11177542Y-24526500D01*
X11177542Y-24526500D02*
X11206113Y-24526500D01*
X11206113Y-24526500D02*
X11225161Y-24536024D01*
X11225161Y-24536024D02*
X11234685Y-24555072D01*
X11234685Y-24555072D02*
X11234685Y-24659834D01*
X11625161Y-24450310D02*
X11453733Y-24707453D01*
X11882304Y-24459834D02*
X11901352Y-24459834D01*
X11901352Y-24459834D02*
X11920399Y-24469358D01*
X11920399Y-24469358D02*
X11929923Y-24478881D01*
X11929923Y-24478881D02*
X11939447Y-24497929D01*
X11939447Y-24497929D02*
X11948971Y-24536024D01*
X11948971Y-24536024D02*
X11948971Y-24583643D01*
X11948971Y-24583643D02*
X11939447Y-24621738D01*
X11939447Y-24621738D02*
X11929923Y-24640786D01*
X11929923Y-24640786D02*
X11920399Y-24650310D01*
X11920399Y-24650310D02*
X11901352Y-24659834D01*
X11901352Y-24659834D02*
X11882304Y-24659834D01*
X11882304Y-24659834D02*
X11863256Y-24650310D01*
X11863256Y-24650310D02*
X11853733Y-24640786D01*
X11853733Y-24640786D02*
X11844209Y-24621738D01*
X11844209Y-24621738D02*
X11834685Y-24583643D01*
X11834685Y-24583643D02*
X11834685Y-24536024D01*
X11834685Y-24536024D02*
X11844209Y-24497929D01*
X11844209Y-24497929D02*
X11853733Y-24478881D01*
X11853733Y-24478881D02*
X11863256Y-24469358D01*
X11863256Y-24469358D02*
X11882304Y-24459834D01*
X12034685Y-24640786D02*
X12044209Y-24650310D01*
X12044209Y-24650310D02*
X12034685Y-24659834D01*
X12034685Y-24659834D02*
X12025161Y-24650310D01*
X12025161Y-24650310D02*
X12034685Y-24640786D01*
X12034685Y-24640786D02*
X12034685Y-24659834D01*
X12234685Y-24659834D02*
X12120399Y-24659834D01*
X12177542Y-24659834D02*
X12177542Y-24459834D01*
X12177542Y-24459834D02*
X12158495Y-24488405D01*
X12158495Y-24488405D02*
X12139447Y-24507453D01*
X12139447Y-24507453D02*
X12120399Y-24516977D01*
X12406114Y-24526500D02*
X12406114Y-24659834D01*
X12358495Y-24450310D02*
X12310876Y-24593167D01*
X12310876Y-24593167D02*
X12434685Y-24593167D01*
X12606114Y-24459834D02*
X12510876Y-24459834D01*
X12510876Y-24459834D02*
X12501352Y-24555072D01*
X12501352Y-24555072D02*
X12510876Y-24545548D01*
X12510876Y-24545548D02*
X12529923Y-24536024D01*
X12529923Y-24536024D02*
X12577542Y-24536024D01*
X12577542Y-24536024D02*
X12596590Y-24545548D01*
X12596590Y-24545548D02*
X12606114Y-24555072D01*
X12606114Y-24555072D02*
X12615637Y-24574119D01*
X12615637Y-24574119D02*
X12615637Y-24621738D01*
X12615637Y-24621738D02*
X12606114Y-24640786D01*
X12606114Y-24640786D02*
X12596590Y-24650310D01*
X12596590Y-24650310D02*
X12577542Y-24659834D01*
X12577542Y-24659834D02*
X12529923Y-24659834D01*
X12529923Y-24659834D02*
X12510876Y-24650310D01*
X12510876Y-24650310D02*
X12501352Y-24640786D01*
X12682304Y-24459834D02*
X12815637Y-24459834D01*
X12815637Y-24459834D02*
X12729923Y-24659834D01*
X12882304Y-24459834D02*
X12882304Y-24497929D01*
X12958495Y-24459834D02*
X12958495Y-24497929D01*
X13253733Y-24736024D02*
X13244209Y-24726500D01*
X13244209Y-24726500D02*
X13225161Y-24697929D01*
X13225161Y-24697929D02*
X13215638Y-24678881D01*
X13215638Y-24678881D02*
X13206114Y-24650310D01*
X13206114Y-24650310D02*
X13196590Y-24602691D01*
X13196590Y-24602691D02*
X13196590Y-24564596D01*
X13196590Y-24564596D02*
X13206114Y-24516977D01*
X13206114Y-24516977D02*
X13215638Y-24488405D01*
X13215638Y-24488405D02*
X13225161Y-24469358D01*
X13225161Y-24469358D02*
X13244209Y-24440786D01*
X13244209Y-24440786D02*
X13253733Y-24431262D01*
X13310876Y-24459834D02*
X13434685Y-24459834D01*
X13434685Y-24459834D02*
X13368018Y-24536024D01*
X13368018Y-24536024D02*
X13396590Y-24536024D01*
X13396590Y-24536024D02*
X13415638Y-24545548D01*
X13415638Y-24545548D02*
X13425161Y-24555072D01*
X13425161Y-24555072D02*
X13434685Y-24574119D01*
X13434685Y-24574119D02*
X13434685Y-24621738D01*
X13434685Y-24621738D02*
X13425161Y-24640786D01*
X13425161Y-24640786D02*
X13415638Y-24650310D01*
X13415638Y-24650310D02*
X13396590Y-24659834D01*
X13396590Y-24659834D02*
X13339447Y-24659834D01*
X13339447Y-24659834D02*
X13320399Y-24650310D01*
X13320399Y-24650310D02*
X13310876Y-24640786D01*
X13672780Y-24659834D02*
X13672780Y-24459834D01*
X13758495Y-24659834D02*
X13758495Y-24555072D01*
X13758495Y-24555072D02*
X13748971Y-24536024D01*
X13748971Y-24536024D02*
X13729923Y-24526500D01*
X13729923Y-24526500D02*
X13701352Y-24526500D01*
X13701352Y-24526500D02*
X13682304Y-24536024D01*
X13682304Y-24536024D02*
X13672780Y-24545548D01*
X13882304Y-24659834D02*
X13863257Y-24650310D01*
X13863257Y-24650310D02*
X13853733Y-24640786D01*
X13853733Y-24640786D02*
X13844209Y-24621738D01*
X13844209Y-24621738D02*
X13844209Y-24564596D01*
X13844209Y-24564596D02*
X13853733Y-24545548D01*
X13853733Y-24545548D02*
X13863257Y-24536024D01*
X13863257Y-24536024D02*
X13882304Y-24526500D01*
X13882304Y-24526500D02*
X13910876Y-24526500D01*
X13910876Y-24526500D02*
X13929923Y-24536024D01*
X13929923Y-24536024D02*
X13939447Y-24545548D01*
X13939447Y-24545548D02*
X13948971Y-24564596D01*
X13948971Y-24564596D02*
X13948971Y-24621738D01*
X13948971Y-24621738D02*
X13939447Y-24640786D01*
X13939447Y-24640786D02*
X13929923Y-24650310D01*
X13929923Y-24650310D02*
X13910876Y-24659834D01*
X13910876Y-24659834D02*
X13882304Y-24659834D01*
X14063257Y-24659834D02*
X14044209Y-24650310D01*
X14044209Y-24650310D02*
X14034685Y-24631262D01*
X14034685Y-24631262D02*
X14034685Y-24459834D01*
X14215638Y-24650310D02*
X14196590Y-24659834D01*
X14196590Y-24659834D02*
X14158495Y-24659834D01*
X14158495Y-24659834D02*
X14139447Y-24650310D01*
X14139447Y-24650310D02*
X14129923Y-24631262D01*
X14129923Y-24631262D02*
X14129923Y-24555072D01*
X14129923Y-24555072D02*
X14139447Y-24536024D01*
X14139447Y-24536024D02*
X14158495Y-24526500D01*
X14158495Y-24526500D02*
X14196590Y-24526500D01*
X14196590Y-24526500D02*
X14215638Y-24536024D01*
X14215638Y-24536024D02*
X14225161Y-24555072D01*
X14225161Y-24555072D02*
X14225161Y-24574119D01*
X14225161Y-24574119D02*
X14129923Y-24593167D01*
X14301352Y-24650310D02*
X14320400Y-24659834D01*
X14320400Y-24659834D02*
X14358495Y-24659834D01*
X14358495Y-24659834D02*
X14377542Y-24650310D01*
X14377542Y-24650310D02*
X14387066Y-24631262D01*
X14387066Y-24631262D02*
X14387066Y-24621738D01*
X14387066Y-24621738D02*
X14377542Y-24602691D01*
X14377542Y-24602691D02*
X14358495Y-24593167D01*
X14358495Y-24593167D02*
X14329923Y-24593167D01*
X14329923Y-24593167D02*
X14310876Y-24583643D01*
X14310876Y-24583643D02*
X14301352Y-24564596D01*
X14301352Y-24564596D02*
X14301352Y-24555072D01*
X14301352Y-24555072D02*
X14310876Y-24536024D01*
X14310876Y-24536024D02*
X14329923Y-24526500D01*
X14329923Y-24526500D02*
X14358495Y-24526500D01*
X14358495Y-24526500D02*
X14377542Y-24536024D01*
X14453733Y-24736024D02*
X14463257Y-24726500D01*
X14463257Y-24726500D02*
X14482304Y-24697929D01*
X14482304Y-24697929D02*
X14491828Y-24678881D01*
X14491828Y-24678881D02*
X14501352Y-24650310D01*
X14501352Y-24650310D02*
X14510876Y-24602691D01*
X14510876Y-24602691D02*
X14510876Y-24564596D01*
X14510876Y-24564596D02*
X14501352Y-24516977D01*
X14501352Y-24516977D02*
X14491828Y-24488405D01*
X14491828Y-24488405D02*
X14482304Y-24469358D01*
X14482304Y-24469358D02*
X14463257Y-24440786D01*
X14463257Y-24440786D02*
X14453733Y-24431262D01*
M02*
