M48
; DRILL file {KiCad 8.0.4-rc2} date 2024-08-04T20:31:59-0500
; FORMAT={-:-/ absolute / metric / decimal}
; #@! TF.CreationDate,2024-08-04T20:31:59-05:00
; #@! TF.GenerationSoftware,Kicad,Pcbnew,8.0.4-rc2
; #@! TF.FileFunction,Plated,1,4,PTH
FMAT,2
METRIC
; #@! TA.AperFunction,Plated,PTH,ViaDrill
T1C0.300
; #@! TA.AperFunction,Plated,PTH,ComponentDrill
T2C0.500
; #@! TA.AperFunction,Plated,PTH,ComponentDrill
T3C1.000
; #@! TA.AperFunction,Plated,PTH,ComponentDrill
T4C1.500
; #@! TA.AperFunction,Plated,PTH,ComponentDrill
T5C3.700
%
G90
G05
T1
X98.73Y-181.229
X98.755Y-177.292
X100.508Y-189.103
X100.609Y-185.166
X102.286Y-196.977
X102.387Y-193.04
X104.064Y-181.229
X104.089Y-177.292
X104.217Y-171.307
X104.613Y-168.808
X104.623Y-169.608
X104.826Y-172.263
X105.283Y-163.576
X105.293Y-170.647
X105.435Y-173.101
X105.461Y-169.774
X105.842Y-189.103
X105.943Y-185.166
X105.994Y-166.243
X106.02Y-167.564
X106.064Y-172.606
X106.69Y-173.104
X106.807Y-167.005
X107.361Y-173.566
X107.62Y-196.977
X107.721Y-193.04
X107.961Y-174.199
X108.561Y-173.669
X109.165Y-174.295
X109.169Y-165.329
X109.398Y-181.229
X109.423Y-177.292
X109.765Y-173.717
X110.592Y-166.522
X110.909Y-164.63
X110.981Y-173.76
X111.176Y-189.103
X111.277Y-185.166
X111.29Y-172.962
X111.989Y-164.77
X112.357Y-167.881
X112.903Y-168.529
X112.954Y-196.977
X113.055Y-193.04
X113.132Y-172.466
X113.538Y-170.205
X113.551Y-173.291
X113.652Y-161.811
X114.071Y-153.695
X114.071Y-157.15
X114.071Y-158.039
X114.732Y-181.229
X114.757Y-177.292
X116.51Y-189.103
X116.611Y-185.166
X118.288Y-196.977
X118.389Y-193.04
X119.38Y-153.899
X120.066Y-181.229
X120.091Y-177.292
X120.219Y-171.307
X120.615Y-168.808
X120.625Y-169.608
X120.828Y-172.263
X121.285Y-163.576
X121.295Y-170.647
X121.437Y-173.101
X121.463Y-169.774
X121.844Y-189.103
X121.945Y-185.166
X121.996Y-166.243
X122.022Y-167.564
X122.066Y-172.606
X122.692Y-173.104
X122.809Y-167.005
X123.363Y-173.566
X123.622Y-196.977
X123.723Y-193.04
X123.963Y-174.199
X124.563Y-173.669
X125.167Y-174.295
X125.171Y-165.329
X125.4Y-181.229
X125.425Y-177.292
X125.767Y-173.717
X126.594Y-166.522
X126.911Y-164.63
X126.983Y-173.76
X127.178Y-189.103
X127.279Y-185.166
X127.292Y-172.962
X127.991Y-164.77
X128.359Y-167.881
X128.905Y-168.529
X128.956Y-196.977
X129.057Y-193.04
X129.134Y-172.466
X129.54Y-170.205
X129.553Y-173.291
X129.654Y-161.811
X130.073Y-153.695
X130.073Y-157.15
X130.073Y-158.039
X130.734Y-181.229
X130.759Y-177.292
X131.318Y-164.44
X132.512Y-189.103
X132.613Y-185.166
X134.29Y-196.977
X134.391Y-193.04
X136.068Y-181.229
X136.093Y-177.292
X136.221Y-171.307
X136.617Y-168.808
X136.627Y-169.608
X136.83Y-172.263
X137.287Y-163.576
X137.297Y-170.647
X137.439Y-173.101
X137.465Y-169.774
X137.846Y-189.103
X137.947Y-185.166
X137.998Y-166.243
X138.024Y-167.564
X138.068Y-172.606
X138.694Y-173.104
X138.811Y-167.005
X139.365Y-173.566
X139.624Y-196.977
X139.725Y-193.04
X139.965Y-174.199
X140.565Y-173.669
X141.169Y-174.295
X141.173Y-165.329
X141.402Y-181.229
X141.427Y-177.292
X141.769Y-173.717
X142.596Y-166.522
X142.913Y-164.63
X142.985Y-173.76
X143.18Y-189.103
X143.281Y-185.166
X143.294Y-172.962
X143.993Y-164.77
X144.361Y-167.881
X144.856Y-150.622
X144.907Y-168.529
X144.958Y-196.977
X145.059Y-193.04
X145.136Y-172.466
X145.542Y-170.205
X145.555Y-173.291
X145.656Y-161.811
X146.075Y-153.695
X146.075Y-157.15
X146.075Y-158.039
X146.304Y-151.714
X146.736Y-181.229
X146.761Y-177.292
X147.295Y-162.535
X148.514Y-189.103
X148.615Y-185.166
X150.292Y-196.977
X150.393Y-193.04
X152.07Y-181.229
X152.095Y-177.292
X152.223Y-171.307
X152.619Y-168.808
X152.629Y-169.608
X152.781Y-151.841
X152.832Y-172.263
X153.289Y-163.576
X153.299Y-170.647
X153.441Y-173.101
X153.467Y-169.774
X153.848Y-189.103
X153.949Y-185.166
X154.0Y-166.243
X154.026Y-167.564
X154.07Y-172.606
X154.696Y-173.104
X154.813Y-167.005
X155.367Y-173.566
X155.626Y-196.977
X155.727Y-193.04
X155.967Y-174.199
X156.567Y-173.669
X157.171Y-174.295
X157.175Y-165.329
X157.404Y-181.229
X157.429Y-177.292
X157.771Y-173.717
X158.598Y-166.522
X158.915Y-164.63
X158.987Y-173.76
X159.182Y-189.103
X159.283Y-185.166
X159.296Y-172.962
X159.995Y-164.77
X160.363Y-167.881
X160.909Y-168.529
X160.96Y-196.977
X161.061Y-193.04
X161.138Y-172.466
X161.519Y-151.74
X161.544Y-170.205
X161.557Y-173.291
X161.658Y-161.811
X162.077Y-153.695
X162.077Y-157.15
X162.077Y-158.039
X162.738Y-181.229
X162.763Y-177.292
X163.347Y-162.306
X164.516Y-189.103
X164.617Y-185.166
X164.947Y-140.97
X165.024Y-142.875
X166.294Y-196.977
X166.395Y-193.04
X166.98Y-151.308
X168.072Y-181.229
X168.097Y-177.292
X168.225Y-171.307
X168.249Y-140.97
X168.621Y-168.808
X168.631Y-169.608
X168.834Y-172.263
X169.291Y-163.576
X169.301Y-170.647
X169.443Y-173.101
X169.469Y-169.774
X169.85Y-189.103
X169.951Y-185.166
X170.002Y-166.243
X170.028Y-167.564
X170.072Y-172.606
X170.51Y-145.491
X170.51Y-146.38
X170.51Y-147.269
X170.51Y-148.158
X170.51Y-149.047
X170.698Y-173.104
X170.815Y-167.005
X171.209Y-151.811
X171.369Y-173.566
X171.552Y-140.97
X171.628Y-196.977
X171.729Y-193.04
X171.969Y-174.199
X172.124Y-151.811
X172.569Y-173.669
X172.987Y-151.811
X173.173Y-174.295
X173.177Y-165.329
X173.406Y-181.229
X173.431Y-177.292
X173.773Y-173.717
X174.6Y-166.522
X174.689Y-151.76
X174.879Y-140.945
X174.917Y-164.63
X174.989Y-173.76
X175.184Y-189.103
X175.285Y-185.166
X175.298Y-172.962
X175.426Y-146.706
X175.629Y-151.76
X175.997Y-164.77
X176.365Y-167.881
X176.416Y-146.706
X176.645Y-151.76
X176.911Y-168.529
X176.962Y-196.977
X177.063Y-193.04
X177.14Y-172.466
X177.534Y-146.706
X177.546Y-170.205
X177.559Y-173.291
X177.66Y-161.811
X178.079Y-153.695
X178.079Y-157.15
X178.079Y-158.039
X178.093Y-151.76
X178.155Y-140.97
X178.74Y-181.229
X178.765Y-177.292
X179.947Y-150.312
X180.111Y-157.124
X180.518Y-189.103
X180.619Y-185.166
X180.937Y-150.312
X181.457Y-140.97
X181.877Y-150.312
X182.296Y-196.977
X182.397Y-193.04
X183.083Y-149.352
X184.074Y-181.229
X184.099Y-177.292
X184.226Y-146.355
X184.227Y-171.307
X184.623Y-168.808
X184.633Y-169.608
X184.836Y-172.263
X185.293Y-163.576
X185.303Y-170.647
X185.445Y-173.101
X185.471Y-169.774
X185.852Y-189.103
X185.953Y-185.166
X186.004Y-166.243
X186.03Y-167.564
X186.074Y-172.606
X186.7Y-173.104
X186.817Y-167.005
X187.371Y-173.566
X187.63Y-196.977
X187.731Y-193.04
X187.971Y-174.199
X188.571Y-173.669
X189.175Y-174.295
X189.179Y-165.329
X189.408Y-181.229
X189.433Y-177.292
X189.775Y-173.717
X189.814Y-151.587
X190.602Y-166.522
X190.919Y-164.63
X190.991Y-173.76
X191.186Y-189.103
X191.287Y-185.166
X191.3Y-172.962
X191.999Y-164.77
X192.367Y-167.881
X192.913Y-168.529
X192.964Y-196.977
X193.065Y-193.04
X193.142Y-172.466
X193.548Y-170.205
X193.561Y-173.291
X193.662Y-161.811
X194.081Y-153.695
X194.081Y-157.15
X194.081Y-158.039
X194.742Y-181.229
X194.767Y-177.292
X195.859Y-151.536
X196.52Y-189.103
X196.621Y-185.166
X197.053Y-156.159
X198.298Y-196.977
X198.399Y-193.04
X200.076Y-181.229
X200.101Y-177.292
X200.229Y-171.307
X200.625Y-168.808
X200.635Y-169.608
X200.838Y-172.263
X201.295Y-163.576
X201.305Y-170.647
X201.447Y-173.101
X201.473Y-169.774
X201.854Y-189.103
X201.955Y-185.166
X202.006Y-166.243
X202.032Y-167.564
X202.076Y-172.606
X202.702Y-173.104
X202.819Y-167.005
X203.373Y-173.566
X203.632Y-196.977
X203.733Y-193.04
X203.973Y-174.199
X204.573Y-173.669
X205.177Y-174.295
X205.181Y-165.329
X205.41Y-181.229
X205.435Y-177.292
X205.777Y-173.717
X206.604Y-166.522
X206.921Y-164.63
X206.993Y-173.76
X207.188Y-189.103
X207.289Y-185.166
X207.302Y-172.962
X208.001Y-164.77
X208.369Y-167.881
X208.915Y-168.529
X208.966Y-196.977
X209.067Y-193.04
X209.144Y-172.466
X209.55Y-170.205
X209.563Y-173.291
X209.664Y-161.811
X210.083Y-153.695
X210.083Y-157.15
X210.083Y-158.039
X210.744Y-181.229
X210.769Y-177.292
X212.522Y-189.103
X212.623Y-185.166
X214.3Y-196.977
X214.401Y-193.04
X216.078Y-181.229
X216.103Y-177.292
X216.231Y-171.307
X216.627Y-168.808
X216.637Y-169.608
X216.84Y-172.263
X217.297Y-163.576
X217.307Y-170.647
X217.449Y-173.101
X217.475Y-169.774
X217.856Y-189.103
X217.957Y-185.166
X218.008Y-166.243
X218.034Y-167.564
X218.078Y-172.606
X218.704Y-173.104
X218.821Y-167.005
X219.375Y-173.566
X219.634Y-196.977
X219.735Y-193.04
X219.975Y-174.199
X220.142Y-153.137
X220.575Y-173.669
X220.802Y-152.171
X221.179Y-174.295
X221.183Y-165.329
X221.412Y-181.229
X221.437Y-177.292
X221.779Y-173.717
X222.606Y-166.522
X222.923Y-164.63
X222.995Y-173.76
X223.19Y-189.103
X223.291Y-185.166
X223.304Y-172.962
X224.003Y-164.77
X224.371Y-167.881
X224.917Y-168.529
X224.968Y-196.977
X225.069Y-193.04
X225.146Y-172.466
X225.552Y-170.205
X225.565Y-173.291
X225.615Y-161.76
X225.704Y-153.695
X225.781Y-157.15
X225.781Y-158.039
T2
X99.79Y-141.249
X100.603Y-139.287
X100.603Y-143.212
X102.565Y-138.474
X102.565Y-144.024
X104.527Y-139.287
X104.527Y-143.212
X105.34Y-141.249
X150.082Y-141.249
X150.895Y-139.287
X150.895Y-143.212
X152.857Y-138.474
X152.857Y-144.024
X154.819Y-139.287
X154.819Y-143.212
X155.632Y-141.249
X158.744Y-208.153
X159.556Y-206.191
X159.556Y-210.115
X161.519Y-205.378
X161.519Y-210.928
X163.481Y-206.191
X163.481Y-210.115
X164.294Y-208.153
T3
X105.537Y-206.146
X105.537Y-208.686
X108.077Y-206.146
X108.077Y-208.686
X110.617Y-206.146
X110.617Y-208.686
X113.157Y-206.146
X113.157Y-208.686
X115.697Y-206.146
X115.697Y-208.686
X118.237Y-206.146
X118.237Y-208.686
X120.777Y-206.146
X120.777Y-208.686
X123.317Y-206.146
X123.317Y-208.686
X125.857Y-206.146
X125.857Y-208.686
X128.397Y-206.146
X128.397Y-208.686
X130.937Y-206.146
X130.937Y-208.686
X133.477Y-206.146
X133.477Y-208.686
X136.017Y-206.146
X136.017Y-208.686
X138.557Y-206.146
X138.557Y-208.686
X141.097Y-206.146
X141.097Y-208.686
X143.637Y-206.146
X143.637Y-208.686
X146.177Y-206.146
X146.177Y-208.686
X148.717Y-206.146
X148.717Y-208.686
X151.257Y-206.146
X151.257Y-208.686
X153.797Y-206.146
X153.797Y-208.686
X171.323Y-206.146
X171.323Y-208.686
X173.863Y-206.146
X173.863Y-208.686
X176.403Y-206.146
X176.403Y-208.686
X178.943Y-206.146
X178.943Y-208.686
X181.483Y-206.146
X181.483Y-208.686
X184.023Y-206.146
X184.023Y-208.686
X186.563Y-206.146
X186.563Y-208.686
X189.103Y-206.146
X189.103Y-208.686
X191.643Y-206.146
X191.643Y-208.686
X194.183Y-206.146
X194.183Y-208.686
X196.723Y-206.146
X196.723Y-208.686
X197.231Y-146.718
X197.231Y-149.258
X199.263Y-206.146
X199.263Y-208.686
X199.771Y-146.718
X199.771Y-149.258
X201.803Y-206.146
X201.803Y-208.686
X202.311Y-146.718
X202.311Y-149.258
X204.343Y-206.146
X204.343Y-208.686
X204.851Y-146.718
X204.851Y-149.258
X206.883Y-206.146
X206.883Y-208.686
X207.391Y-146.718
X207.391Y-149.258
X209.423Y-206.146
X209.423Y-208.686
X209.931Y-146.718
X209.931Y-149.258
X211.963Y-206.146
X211.963Y-208.686
X212.471Y-146.718
X212.471Y-149.258
X214.503Y-206.146
X214.503Y-208.686
X215.011Y-146.718
X215.011Y-149.258
X217.043Y-206.146
X217.043Y-208.686
X217.551Y-146.718
X217.551Y-149.258
X219.583Y-206.146
X219.583Y-208.686
X220.091Y-146.718
X220.091Y-149.258
T4
X112.395Y-150.876
X113.665Y-148.336
X114.935Y-150.876
X116.205Y-148.336
X117.475Y-150.876
X118.745Y-148.336
X120.015Y-150.876
X121.285Y-148.336
X122.555Y-150.876
X123.825Y-148.336
X125.095Y-150.876
X126.365Y-148.336
X127.635Y-150.876
X128.905Y-148.336
X130.175Y-150.876
X131.445Y-148.336
X132.715Y-150.876
X133.985Y-148.336
X135.255Y-150.876
X136.525Y-148.336
T5
X102.565Y-141.249
X152.857Y-141.249
X161.519Y-208.153
M30
