G04 #@! TF.GenerationSoftware,KiCad,Pcbnew,8.0.4-rc2*
G04 #@! TF.CreationDate,2024-08-04T20:31:53-05:00*
G04 #@! TF.ProjectId,backplane_tracer_v5,6261636b-706c-4616-9e65-5f7472616365,rev?*
G04 #@! TF.SameCoordinates,Original*
G04 #@! TF.FileFunction,Soldermask,Bot*
G04 #@! TF.FilePolarity,Negative*
%FSLAX46Y46*%
G04 Gerber Fmt 4.6, Leading zero omitted, Abs format (unit mm)*
G04 Created by KiCad (PCBNEW 8.0.4-rc2) date 2024-08-04 20:31:53*
%MOMM*%
%LPD*%
G01*
G04 APERTURE LIST*
G04 Aperture macros list*
%AMRoundRect*
0 Rectangle with rounded corners*
0 $1 Rounding radius*
0 $2 $3 $4 $5 $6 $7 $8 $9 X,Y pos of 4 corners*
0 Add a 4 corners polygon primitive as box body*
4,1,4,$2,$3,$4,$5,$6,$7,$8,$9,$2,$3,0*
0 Add four circle primitives for the rounded corners*
1,1,$1+$1,$2,$3*
1,1,$1+$1,$4,$5*
1,1,$1+$1,$6,$7*
1,1,$1+$1,$8,$9*
0 Add four rect primitives between the rounded corners*
20,1,$1+$1,$2,$3,$4,$5,0*
20,1,$1+$1,$4,$5,$6,$7,0*
20,1,$1+$1,$6,$7,$8,$9,0*
20,1,$1+$1,$8,$9,$2,$3,0*%
G04 Aperture macros list end*
%ADD10C,0.800000*%
%ADD11C,7.400000*%
%ADD12C,1.300000*%
%ADD13R,1.700000X1.700000*%
%ADD14O,1.700000X1.700000*%
%ADD15R,2.032000X13.208000*%
%ADD16C,2.400000*%
%ADD17C,2.800000*%
%ADD18C,1.850000*%
%ADD19RoundRect,0.250000X0.600000X-0.600000X0.600000X0.600000X-0.600000X0.600000X-0.600000X-0.600000X0*%
%ADD20C,1.700000*%
%ADD21C,1.000000*%
G04 APERTURE END LIST*
D10*
X150082200Y-141249400D03*
X150894979Y-139287179D03*
X150894979Y-143211621D03*
X152857200Y-138474400D03*
D11*
X152857200Y-141249400D03*
D10*
X152857200Y-144024400D03*
X154819421Y-139287179D03*
X154819421Y-143211621D03*
X155632200Y-141249400D03*
D12*
X226110800Y-207492600D03*
D13*
X153797000Y-206146400D03*
D14*
X153797000Y-208686400D03*
X151257000Y-206146400D03*
X151257000Y-208686400D03*
X148717000Y-206146400D03*
X148717000Y-208686400D03*
X146177000Y-206146400D03*
X146177000Y-208686400D03*
X143637000Y-206146400D03*
X143637000Y-208686400D03*
X141097000Y-206146400D03*
X141097000Y-208686400D03*
X138557000Y-206146400D03*
X138557000Y-208686400D03*
X136017000Y-206146400D03*
X136017000Y-208686400D03*
X133477000Y-206146400D03*
X133477000Y-208686400D03*
X130937000Y-206146400D03*
X130937000Y-208686400D03*
X128397000Y-206146400D03*
X128397000Y-208686400D03*
X125857000Y-206146400D03*
X125857000Y-208686400D03*
X123317000Y-206146400D03*
X123317000Y-208686400D03*
X120777000Y-206146400D03*
X120777000Y-208686400D03*
X118237000Y-206146400D03*
X118237000Y-208686400D03*
X115697000Y-206146400D03*
X115697000Y-208686400D03*
X113157000Y-206146400D03*
X113157000Y-208686400D03*
X110617000Y-206146400D03*
X110617000Y-208686400D03*
X108077000Y-206146400D03*
X108077000Y-208686400D03*
X105537000Y-206146400D03*
X105537000Y-208686400D03*
D15*
X224586800Y-220980000D03*
X221411800Y-220980000D03*
X218236800Y-220980000D03*
X215061800Y-220980000D03*
X211886800Y-220980000D03*
X208711800Y-220980000D03*
X205536800Y-220980000D03*
X202361800Y-220980000D03*
X199186800Y-220980000D03*
X196011800Y-220980000D03*
X192836800Y-220980000D03*
X189661800Y-220980000D03*
X186486800Y-220980000D03*
X183311800Y-220980000D03*
X180136800Y-220980000D03*
X176961800Y-220980000D03*
X173786800Y-220980000D03*
X170611800Y-220980000D03*
X154736800Y-220980000D03*
X151561800Y-220980000D03*
X148386800Y-220980000D03*
X145211800Y-220980000D03*
X142036800Y-220980000D03*
X138861800Y-220980000D03*
X135686800Y-220980000D03*
X132511800Y-220980000D03*
X129336800Y-220980000D03*
X126161800Y-220980000D03*
X122986800Y-220980000D03*
X119811800Y-220980000D03*
X116636800Y-220980000D03*
X113461800Y-220980000D03*
X110286800Y-220980000D03*
X107111800Y-220980000D03*
X103936800Y-220980000D03*
X100761800Y-220980000D03*
D12*
X99847400Y-150266400D03*
D10*
X158743600Y-208153000D03*
X159556379Y-206190779D03*
X159556379Y-210115221D03*
X161518600Y-205378000D03*
D11*
X161518600Y-208153000D03*
D10*
X161518600Y-210928000D03*
X163480821Y-206190779D03*
X163480821Y-210115221D03*
X164293600Y-208153000D03*
X99790200Y-141249400D03*
X100602979Y-139287179D03*
X100602979Y-143211621D03*
X102565200Y-138474400D03*
D11*
X102565200Y-141249400D03*
D10*
X102565200Y-144024400D03*
X104527421Y-139287179D03*
X104527421Y-143211621D03*
X105340200Y-141249400D03*
D13*
X219583000Y-206146400D03*
D14*
X219583000Y-208686400D03*
X217043000Y-206146400D03*
X217043000Y-208686400D03*
X214503000Y-206146400D03*
X214503000Y-208686400D03*
X211963000Y-206146400D03*
X211963000Y-208686400D03*
X209423000Y-206146400D03*
X209423000Y-208686400D03*
X206883000Y-206146400D03*
X206883000Y-208686400D03*
X204343000Y-206146400D03*
X204343000Y-208686400D03*
X201803000Y-206146400D03*
X201803000Y-208686400D03*
X199263000Y-206146400D03*
X199263000Y-208686400D03*
X196723000Y-206146400D03*
X196723000Y-208686400D03*
X194183000Y-206146400D03*
X194183000Y-208686400D03*
X191643000Y-206146400D03*
X191643000Y-208686400D03*
X189103000Y-206146400D03*
X189103000Y-208686400D03*
X186563000Y-206146400D03*
X186563000Y-208686400D03*
X184023000Y-206146400D03*
X184023000Y-208686400D03*
X181483000Y-206146400D03*
X181483000Y-208686400D03*
X178943000Y-206146400D03*
X178943000Y-208686400D03*
X176403000Y-206146400D03*
X176403000Y-208686400D03*
X173863000Y-206146400D03*
X173863000Y-208686400D03*
X171323000Y-206146400D03*
X171323000Y-208686400D03*
D16*
X111165000Y-148336000D03*
D17*
X137755000Y-150876000D03*
D18*
X136525000Y-148336000D03*
X135255000Y-150876000D03*
X133985000Y-148336000D03*
X132715000Y-150876000D03*
X131445000Y-148336000D03*
X130175000Y-150876000D03*
X128905000Y-148336000D03*
X127635000Y-150876000D03*
X126365000Y-148336000D03*
X125095000Y-150876000D03*
X123825000Y-148336000D03*
X122555000Y-150876000D03*
X121285000Y-148336000D03*
X120015000Y-150876000D03*
X118745000Y-148336000D03*
X117475000Y-150876000D03*
X116205000Y-148336000D03*
X114935000Y-150876000D03*
X113665000Y-148336000D03*
X112395000Y-150876000D03*
D19*
X197231000Y-149258300D03*
D20*
X197231000Y-146718300D03*
X199771000Y-149258300D03*
X199771000Y-146718300D03*
X202311000Y-149258300D03*
X202311000Y-146718300D03*
X204851000Y-149258300D03*
X204851000Y-146718300D03*
X207391000Y-149258300D03*
X207391000Y-146718300D03*
X209931000Y-149258300D03*
X209931000Y-146718300D03*
X212471000Y-149258300D03*
X212471000Y-146718300D03*
X215011000Y-149258300D03*
X215011000Y-146718300D03*
X217551000Y-149258300D03*
X217551000Y-146718300D03*
X220091000Y-149258300D03*
X220091000Y-146718300D03*
D12*
X225399600Y-151841200D03*
D21*
X119202200Y-172262800D03*
X133451600Y-171297600D03*
X101447600Y-171297600D03*
X183210200Y-172262800D03*
X167208200Y-172262800D03*
X199212200Y-172262800D03*
X197459600Y-171297600D03*
X215214200Y-172262800D03*
X149453600Y-171297600D03*
X181457600Y-171297600D03*
X135204200Y-172262800D03*
X151206200Y-172262800D03*
X103200200Y-172262800D03*
X165455600Y-171297600D03*
X213461600Y-171297600D03*
X117449600Y-171297600D03*
M02*
