G04 #@! TF.GenerationSoftware,KiCad,Pcbnew,8.0.4-rc2*
G04 #@! TF.CreationDate,2024-08-04T20:31:53-05:00*
G04 #@! TF.ProjectId,backplane_tracer_v5,6261636b-706c-4616-9e65-5f7472616365,rev?*
G04 #@! TF.SameCoordinates,Original*
G04 #@! TF.FileFunction,Legend,Bot*
G04 #@! TF.FilePolarity,Positive*
%FSLAX46Y46*%
G04 Gerber Fmt 4.6, Leading zero omitted, Abs format (unit mm)*
G04 Created by KiCad (PCBNEW 8.0.4-rc2) date 2024-08-04 20:31:53*
%MOMM*%
%LPD*%
G01*
G04 APERTURE LIST*
G04 Aperture macros list*
%AMRoundRect*
0 Rectangle with rounded corners*
0 $1 Rounding radius*
0 $2 $3 $4 $5 $6 $7 $8 $9 X,Y pos of 4 corners*
0 Add a 4 corners polygon primitive as box body*
4,1,4,$2,$3,$4,$5,$6,$7,$8,$9,$2,$3,0*
0 Add four circle primitives for the rounded corners*
1,1,$1+$1,$2,$3*
1,1,$1+$1,$4,$5*
1,1,$1+$1,$6,$7*
1,1,$1+$1,$8,$9*
0 Add four rect primitives between the rounded corners*
20,1,$1+$1,$2,$3,$4,$5,0*
20,1,$1+$1,$4,$5,$6,$7,0*
20,1,$1+$1,$6,$7,$8,$9,0*
20,1,$1+$1,$8,$9,$2,$3,0*%
G04 Aperture macros list end*
%ADD10C,0.152400*%
%ADD11C,0.100000*%
%ADD12C,0.165100*%
%ADD13C,0.203200*%
%ADD14C,0.120000*%
%ADD15C,0.800000*%
%ADD16C,7.400000*%
%ADD17C,1.300000*%
%ADD18R,1.700000X1.700000*%
%ADD19O,1.700000X1.700000*%
%ADD20R,2.032000X13.208000*%
%ADD21C,2.400000*%
%ADD22C,2.800000*%
%ADD23C,1.850000*%
%ADD24RoundRect,0.250000X0.600000X-0.600000X0.600000X0.600000X-0.600000X0.600000X-0.600000X-0.600000X0*%
%ADD25C,1.700000*%
%ADD26C,1.000000*%
G04 APERTURE END LIST*
D10*
X127635000Y-152450800D02*
X127635000Y-153619200D01*
D11*
X211201000Y-152984200D02*
X211201000Y-150571200D01*
X203581000Y-145491200D02*
X203581000Y-143078200D01*
X197993000Y-205155800D02*
X197993000Y-201345800D01*
X203581000Y-152984200D02*
X203581000Y-150571200D01*
D10*
X123825000Y-152450800D02*
X123825000Y-155041600D01*
D11*
X198501000Y-152984200D02*
X198501000Y-150571200D01*
X218821000Y-152984200D02*
X218821000Y-150571200D01*
X127127000Y-205155800D02*
X127127000Y-201345800D01*
X195961000Y-145491200D02*
X195961000Y-143078200D01*
D10*
X130175000Y-152450800D02*
X130175000Y-153619200D01*
X136525000Y-152450800D02*
X136525000Y-155041600D01*
X118745000Y-152450800D02*
X118745000Y-155041600D01*
D11*
X216281000Y-152984200D02*
X216281000Y-150571200D01*
D10*
X117475000Y-152450800D02*
X117475000Y-153619200D01*
D11*
X132207000Y-205155800D02*
X132207000Y-201345800D01*
D10*
X128905000Y-152450800D02*
X128905000Y-155041600D01*
D11*
X192913000Y-205155800D02*
X192913000Y-201345800D01*
X213741000Y-152984200D02*
X213741000Y-150571200D01*
D10*
X125095000Y-152450800D02*
X125095000Y-153619200D01*
X131445000Y-152450800D02*
X131445000Y-155041600D01*
X132715000Y-152450800D02*
X132715000Y-153619200D01*
D11*
X213741000Y-145491200D02*
X213741000Y-143078200D01*
X218821000Y-145491200D02*
X218821000Y-143078200D01*
D10*
X120015000Y-152450800D02*
X120015000Y-153619200D01*
D11*
X221361000Y-152984200D02*
X221361000Y-150571200D01*
D10*
X122555000Y-152450800D02*
X122555000Y-153619200D01*
X133985000Y-152450800D02*
X133985000Y-155041600D01*
X121285000Y-152450800D02*
X121285000Y-155041600D01*
X126365000Y-152450800D02*
X126365000Y-155041600D01*
D11*
X208661000Y-145491200D02*
X208661000Y-143078200D01*
D10*
X135255000Y-152450800D02*
X135255000Y-153619200D01*
X126123095Y-145884534D02*
X126123095Y-146731201D01*
X126425476Y-145400725D02*
X126727857Y-146307867D01*
X126727857Y-146307867D02*
X125941666Y-146307867D01*
X219486477Y-151762581D02*
X219426001Y-151641628D01*
X219426001Y-151641628D02*
X219426001Y-151460200D01*
X219426001Y-151460200D02*
X219486477Y-151278771D01*
X219486477Y-151278771D02*
X219607429Y-151157819D01*
X219607429Y-151157819D02*
X219728382Y-151097342D01*
X219728382Y-151097342D02*
X219970286Y-151036866D01*
X219970286Y-151036866D02*
X220151715Y-151036866D01*
X220151715Y-151036866D02*
X220393620Y-151097342D01*
X220393620Y-151097342D02*
X220514572Y-151157819D01*
X220514572Y-151157819D02*
X220635525Y-151278771D01*
X220635525Y-151278771D02*
X220696001Y-151460200D01*
X220696001Y-151460200D02*
X220696001Y-151581152D01*
X220696001Y-151581152D02*
X220635525Y-151762581D01*
X220635525Y-151762581D02*
X220575048Y-151823057D01*
X220575048Y-151823057D02*
X220151715Y-151823057D01*
X220151715Y-151823057D02*
X220151715Y-151581152D01*
X220696001Y-152367342D02*
X219426001Y-152367342D01*
X219426001Y-152367342D02*
X220696001Y-153093057D01*
X220696001Y-153093057D02*
X219426001Y-153093057D01*
X220696001Y-153697818D02*
X219426001Y-153697818D01*
X219426001Y-153697818D02*
X219426001Y-154000199D01*
X219426001Y-154000199D02*
X219486477Y-154181628D01*
X219486477Y-154181628D02*
X219607429Y-154302580D01*
X219607429Y-154302580D02*
X219728382Y-154363057D01*
X219728382Y-154363057D02*
X219970286Y-154423533D01*
X219970286Y-154423533D02*
X220151715Y-154423533D01*
X220151715Y-154423533D02*
X220393620Y-154363057D01*
X220393620Y-154363057D02*
X220514572Y-154302580D01*
X220514572Y-154302580D02*
X220635525Y-154181628D01*
X220635525Y-154181628D02*
X220696001Y-154000199D01*
X220696001Y-154000199D02*
X220696001Y-153697818D01*
X120914886Y-169252534D02*
X120914886Y-170099201D01*
X120914886Y-169373486D02*
X120854409Y-169313010D01*
X120854409Y-169313010D02*
X120733457Y-169252534D01*
X120733457Y-169252534D02*
X120552028Y-169252534D01*
X120552028Y-169252534D02*
X120431076Y-169313010D01*
X120431076Y-169313010D02*
X120370600Y-169433963D01*
X120370600Y-169433963D02*
X120370600Y-170099201D01*
X119040123Y-170099201D02*
X119463457Y-169494439D01*
X119765838Y-170099201D02*
X119765838Y-168829201D01*
X119765838Y-168829201D02*
X119282028Y-168829201D01*
X119282028Y-168829201D02*
X119161076Y-168889677D01*
X119161076Y-168889677D02*
X119100599Y-168950153D01*
X119100599Y-168950153D02*
X119040123Y-169071105D01*
X119040123Y-169071105D02*
X119040123Y-169252534D01*
X119040123Y-169252534D02*
X119100599Y-169373486D01*
X119100599Y-169373486D02*
X119161076Y-169433963D01*
X119161076Y-169433963D02*
X119282028Y-169494439D01*
X119282028Y-169494439D02*
X119765838Y-169494439D01*
X118556314Y-170038725D02*
X118374885Y-170099201D01*
X118374885Y-170099201D02*
X118072504Y-170099201D01*
X118072504Y-170099201D02*
X117951552Y-170038725D01*
X117951552Y-170038725D02*
X117891076Y-169978248D01*
X117891076Y-169978248D02*
X117830599Y-169857296D01*
X117830599Y-169857296D02*
X117830599Y-169736344D01*
X117830599Y-169736344D02*
X117891076Y-169615391D01*
X117891076Y-169615391D02*
X117951552Y-169554915D01*
X117951552Y-169554915D02*
X118072504Y-169494439D01*
X118072504Y-169494439D02*
X118314409Y-169433963D01*
X118314409Y-169433963D02*
X118435361Y-169373486D01*
X118435361Y-169373486D02*
X118495838Y-169313010D01*
X118495838Y-169313010D02*
X118556314Y-169192058D01*
X118556314Y-169192058D02*
X118556314Y-169071105D01*
X118556314Y-169071105D02*
X118495838Y-168950153D01*
X118495838Y-168950153D02*
X118435361Y-168889677D01*
X118435361Y-168889677D02*
X118314409Y-168829201D01*
X118314409Y-168829201D02*
X118012028Y-168829201D01*
X118012028Y-168829201D02*
X117830599Y-168889677D01*
X117467742Y-168829201D02*
X116742028Y-168829201D01*
X117104885Y-170099201D02*
X117104885Y-168829201D01*
X116621076Y-170220153D02*
X115653456Y-170220153D01*
X114806790Y-168829201D02*
X115048695Y-168829201D01*
X115048695Y-168829201D02*
X115169647Y-168889677D01*
X115169647Y-168889677D02*
X115230123Y-168950153D01*
X115230123Y-168950153D02*
X115351076Y-169131582D01*
X115351076Y-169131582D02*
X115411552Y-169373486D01*
X115411552Y-169373486D02*
X115411552Y-169857296D01*
X115411552Y-169857296D02*
X115351076Y-169978248D01*
X115351076Y-169978248D02*
X115290599Y-170038725D01*
X115290599Y-170038725D02*
X115169647Y-170099201D01*
X115169647Y-170099201D02*
X114927742Y-170099201D01*
X114927742Y-170099201D02*
X114806790Y-170038725D01*
X114806790Y-170038725D02*
X114746314Y-169978248D01*
X114746314Y-169978248D02*
X114685837Y-169857296D01*
X114685837Y-169857296D02*
X114685837Y-169554915D01*
X114685837Y-169554915D02*
X114746314Y-169433963D01*
X114746314Y-169433963D02*
X114806790Y-169373486D01*
X114806790Y-169373486D02*
X114927742Y-169313010D01*
X114927742Y-169313010D02*
X115169647Y-169313010D01*
X115169647Y-169313010D02*
X115290599Y-169373486D01*
X115290599Y-169373486D02*
X115351076Y-169433963D01*
X115351076Y-169433963D02*
X115411552Y-169554915D01*
X207511951Y-143784801D02*
X207088618Y-145054801D01*
X207088618Y-145054801D02*
X206665284Y-143784801D01*
X206241952Y-145054801D02*
X206241952Y-143784801D01*
X205637190Y-145054801D02*
X205637190Y-143784801D01*
X205637190Y-143784801D02*
X204911475Y-145054801D01*
X204911475Y-145054801D02*
X204911475Y-143784801D01*
D12*
X103814877Y-145689383D02*
X103972115Y-145610764D01*
X103972115Y-145610764D02*
X104207972Y-145610764D01*
X104207972Y-145610764D02*
X104443829Y-145689383D01*
X104443829Y-145689383D02*
X104601067Y-145846621D01*
X104601067Y-145846621D02*
X104679686Y-146003859D01*
X104679686Y-146003859D02*
X104758305Y-146318335D01*
X104758305Y-146318335D02*
X104758305Y-146554192D01*
X104758305Y-146554192D02*
X104679686Y-146868668D01*
X104679686Y-146868668D02*
X104601067Y-147025906D01*
X104601067Y-147025906D02*
X104443829Y-147183145D01*
X104443829Y-147183145D02*
X104207972Y-147261764D01*
X104207972Y-147261764D02*
X104050734Y-147261764D01*
X104050734Y-147261764D02*
X103814877Y-147183145D01*
X103814877Y-147183145D02*
X103736258Y-147104525D01*
X103736258Y-147104525D02*
X103736258Y-146554192D01*
X103736258Y-146554192D02*
X104050734Y-146554192D01*
X103028686Y-147261764D02*
X103028686Y-145610764D01*
X103028686Y-145610764D02*
X102085258Y-147261764D01*
X102085258Y-147261764D02*
X102085258Y-145610764D01*
X101299067Y-147261764D02*
X101299067Y-145610764D01*
X101299067Y-145610764D02*
X100905972Y-145610764D01*
X100905972Y-145610764D02*
X100670115Y-145689383D01*
X100670115Y-145689383D02*
X100512877Y-145846621D01*
X100512877Y-145846621D02*
X100434258Y-146003859D01*
X100434258Y-146003859D02*
X100355639Y-146318335D01*
X100355639Y-146318335D02*
X100355639Y-146554192D01*
X100355639Y-146554192D02*
X100434258Y-146868668D01*
X100434258Y-146868668D02*
X100512877Y-147025906D01*
X100512877Y-147025906D02*
X100670115Y-147183145D01*
X100670115Y-147183145D02*
X100905972Y-147261764D01*
X100905972Y-147261764D02*
X101299067Y-147261764D01*
D10*
X115575077Y-144171482D02*
X115514601Y-144050529D01*
X115514601Y-144050529D02*
X115514601Y-143869101D01*
X115514601Y-143869101D02*
X115575077Y-143687672D01*
X115575077Y-143687672D02*
X115696029Y-143566720D01*
X115696029Y-143566720D02*
X115816982Y-143506243D01*
X115816982Y-143506243D02*
X116058886Y-143445767D01*
X116058886Y-143445767D02*
X116240315Y-143445767D01*
X116240315Y-143445767D02*
X116482220Y-143506243D01*
X116482220Y-143506243D02*
X116603172Y-143566720D01*
X116603172Y-143566720D02*
X116724125Y-143687672D01*
X116724125Y-143687672D02*
X116784601Y-143869101D01*
X116784601Y-143869101D02*
X116784601Y-143990053D01*
X116784601Y-143990053D02*
X116724125Y-144171482D01*
X116724125Y-144171482D02*
X116663648Y-144231958D01*
X116663648Y-144231958D02*
X116240315Y-144231958D01*
X116240315Y-144231958D02*
X116240315Y-143990053D01*
X116784601Y-144776243D02*
X115514601Y-144776243D01*
X115514601Y-144776243D02*
X116784601Y-145501958D01*
X116784601Y-145501958D02*
X115514601Y-145501958D01*
X116784601Y-146106719D02*
X115514601Y-146106719D01*
X115514601Y-146106719D02*
X115514601Y-146409100D01*
X115514601Y-146409100D02*
X115575077Y-146590529D01*
X115575077Y-146590529D02*
X115696029Y-146711481D01*
X115696029Y-146711481D02*
X115816982Y-146771958D01*
X115816982Y-146771958D02*
X116058886Y-146832434D01*
X116058886Y-146832434D02*
X116240315Y-146832434D01*
X116240315Y-146832434D02*
X116482220Y-146771958D01*
X116482220Y-146771958D02*
X116603172Y-146711481D01*
X116603172Y-146711481D02*
X116724125Y-146590529D01*
X116724125Y-146590529D02*
X116784601Y-146409100D01*
X116784601Y-146409100D02*
X116784601Y-146106719D01*
X217970704Y-173980563D02*
X217789276Y-174041039D01*
X217789276Y-174041039D02*
X217728799Y-174101515D01*
X217728799Y-174101515D02*
X217668323Y-174222467D01*
X217668323Y-174222467D02*
X217668323Y-174403896D01*
X217668323Y-174403896D02*
X217728799Y-174524848D01*
X217728799Y-174524848D02*
X217789276Y-174585325D01*
X217789276Y-174585325D02*
X217910228Y-174645801D01*
X217910228Y-174645801D02*
X218394038Y-174645801D01*
X218394038Y-174645801D02*
X218394038Y-173375801D01*
X218394038Y-173375801D02*
X217970704Y-173375801D01*
X217970704Y-173375801D02*
X217849752Y-173436277D01*
X217849752Y-173436277D02*
X217789276Y-173496753D01*
X217789276Y-173496753D02*
X217728799Y-173617705D01*
X217728799Y-173617705D02*
X217728799Y-173738658D01*
X217728799Y-173738658D02*
X217789276Y-173859610D01*
X217789276Y-173859610D02*
X217849752Y-173920086D01*
X217849752Y-173920086D02*
X217970704Y-173980563D01*
X217970704Y-173980563D02*
X218394038Y-173980563D01*
X216882133Y-173375801D02*
X216640228Y-173375801D01*
X216640228Y-173375801D02*
X216519276Y-173436277D01*
X216519276Y-173436277D02*
X216398323Y-173557229D01*
X216398323Y-173557229D02*
X216337847Y-173799134D01*
X216337847Y-173799134D02*
X216337847Y-174222467D01*
X216337847Y-174222467D02*
X216398323Y-174464372D01*
X216398323Y-174464372D02*
X216519276Y-174585325D01*
X216519276Y-174585325D02*
X216640228Y-174645801D01*
X216640228Y-174645801D02*
X216882133Y-174645801D01*
X216882133Y-174645801D02*
X217003085Y-174585325D01*
X217003085Y-174585325D02*
X217124038Y-174464372D01*
X217124038Y-174464372D02*
X217184514Y-174222467D01*
X217184514Y-174222467D02*
X217184514Y-173799134D01*
X217184514Y-173799134D02*
X217124038Y-173557229D01*
X217124038Y-173557229D02*
X217003085Y-173436277D01*
X217003085Y-173436277D02*
X216882133Y-173375801D01*
X215551657Y-173375801D02*
X215309752Y-173375801D01*
X215309752Y-173375801D02*
X215188800Y-173436277D01*
X215188800Y-173436277D02*
X215067847Y-173557229D01*
X215067847Y-173557229D02*
X215007371Y-173799134D01*
X215007371Y-173799134D02*
X215007371Y-174222467D01*
X215007371Y-174222467D02*
X215067847Y-174464372D01*
X215067847Y-174464372D02*
X215188800Y-174585325D01*
X215188800Y-174585325D02*
X215309752Y-174645801D01*
X215309752Y-174645801D02*
X215551657Y-174645801D01*
X215551657Y-174645801D02*
X215672609Y-174585325D01*
X215672609Y-174585325D02*
X215793562Y-174464372D01*
X215793562Y-174464372D02*
X215854038Y-174222467D01*
X215854038Y-174222467D02*
X215854038Y-173799134D01*
X215854038Y-173799134D02*
X215793562Y-173557229D01*
X215793562Y-173557229D02*
X215672609Y-173436277D01*
X215672609Y-173436277D02*
X215551657Y-173375801D01*
X214644514Y-173375801D02*
X213918800Y-173375801D01*
X214281657Y-174645801D02*
X214281657Y-173375801D01*
X213253562Y-173375801D02*
X213132609Y-173375801D01*
X213132609Y-173375801D02*
X213011657Y-173436277D01*
X213011657Y-173436277D02*
X212951181Y-173496753D01*
X212951181Y-173496753D02*
X212890705Y-173617705D01*
X212890705Y-173617705D02*
X212830228Y-173859610D01*
X212830228Y-173859610D02*
X212830228Y-174161991D01*
X212830228Y-174161991D02*
X212890705Y-174403896D01*
X212890705Y-174403896D02*
X212951181Y-174524848D01*
X212951181Y-174524848D02*
X213011657Y-174585325D01*
X213011657Y-174585325D02*
X213132609Y-174645801D01*
X213132609Y-174645801D02*
X213253562Y-174645801D01*
X213253562Y-174645801D02*
X213374514Y-174585325D01*
X213374514Y-174585325D02*
X213434990Y-174524848D01*
X213434990Y-174524848D02*
X213495467Y-174403896D01*
X213495467Y-174403896D02*
X213555943Y-174161991D01*
X213555943Y-174161991D02*
X213555943Y-173859610D01*
X213555943Y-173859610D02*
X213495467Y-173617705D01*
X213495467Y-173617705D02*
X213434990Y-173496753D01*
X213434990Y-173496753D02*
X213374514Y-173436277D01*
X213374514Y-173436277D02*
X213253562Y-173375801D01*
X212588324Y-174766753D02*
X211620704Y-174766753D01*
X211076419Y-173375801D02*
X210955466Y-173375801D01*
X210955466Y-173375801D02*
X210834514Y-173436277D01*
X210834514Y-173436277D02*
X210774038Y-173496753D01*
X210774038Y-173496753D02*
X210713562Y-173617705D01*
X210713562Y-173617705D02*
X210653085Y-173859610D01*
X210653085Y-173859610D02*
X210653085Y-174161991D01*
X210653085Y-174161991D02*
X210713562Y-174403896D01*
X210713562Y-174403896D02*
X210774038Y-174524848D01*
X210774038Y-174524848D02*
X210834514Y-174585325D01*
X210834514Y-174585325D02*
X210955466Y-174645801D01*
X210955466Y-174645801D02*
X211076419Y-174645801D01*
X211076419Y-174645801D02*
X211197371Y-174585325D01*
X211197371Y-174585325D02*
X211257847Y-174524848D01*
X211257847Y-174524848D02*
X211318324Y-174403896D01*
X211318324Y-174403896D02*
X211378800Y-174161991D01*
X211378800Y-174161991D02*
X211378800Y-173859610D01*
X211378800Y-173859610D02*
X211318324Y-173617705D01*
X211318324Y-173617705D02*
X211257847Y-173496753D01*
X211257847Y-173496753D02*
X211197371Y-173436277D01*
X211197371Y-173436277D02*
X211076419Y-173375801D01*
X142866406Y-153630325D02*
X142684977Y-153690801D01*
X142684977Y-153690801D02*
X142382596Y-153690801D01*
X142382596Y-153690801D02*
X142261644Y-153630325D01*
X142261644Y-153630325D02*
X142201168Y-153569848D01*
X142201168Y-153569848D02*
X142140691Y-153448896D01*
X142140691Y-153448896D02*
X142140691Y-153327944D01*
X142140691Y-153327944D02*
X142201168Y-153206991D01*
X142201168Y-153206991D02*
X142261644Y-153146515D01*
X142261644Y-153146515D02*
X142382596Y-153086039D01*
X142382596Y-153086039D02*
X142624501Y-153025563D01*
X142624501Y-153025563D02*
X142745453Y-152965086D01*
X142745453Y-152965086D02*
X142805930Y-152904610D01*
X142805930Y-152904610D02*
X142866406Y-152783658D01*
X142866406Y-152783658D02*
X142866406Y-152662705D01*
X142866406Y-152662705D02*
X142805930Y-152541753D01*
X142805930Y-152541753D02*
X142745453Y-152481277D01*
X142745453Y-152481277D02*
X142624501Y-152420801D01*
X142624501Y-152420801D02*
X142322120Y-152420801D01*
X142322120Y-152420801D02*
X142140691Y-152481277D01*
X141717358Y-152420801D02*
X141414977Y-153690801D01*
X141414977Y-153690801D02*
X141173072Y-152783658D01*
X141173072Y-152783658D02*
X140931167Y-153690801D01*
X140931167Y-153690801D02*
X140628787Y-152420801D01*
X139419262Y-153569848D02*
X139479738Y-153630325D01*
X139479738Y-153630325D02*
X139661167Y-153690801D01*
X139661167Y-153690801D02*
X139782119Y-153690801D01*
X139782119Y-153690801D02*
X139963548Y-153630325D01*
X139963548Y-153630325D02*
X140084500Y-153509372D01*
X140084500Y-153509372D02*
X140144977Y-153388420D01*
X140144977Y-153388420D02*
X140205453Y-153146515D01*
X140205453Y-153146515D02*
X140205453Y-152965086D01*
X140205453Y-152965086D02*
X140144977Y-152723182D01*
X140144977Y-152723182D02*
X140084500Y-152602229D01*
X140084500Y-152602229D02*
X139963548Y-152481277D01*
X139963548Y-152481277D02*
X139782119Y-152420801D01*
X139782119Y-152420801D02*
X139661167Y-152420801D01*
X139661167Y-152420801D02*
X139479738Y-152481277D01*
X139479738Y-152481277D02*
X139419262Y-152541753D01*
X138270215Y-153690801D02*
X138874977Y-153690801D01*
X138874977Y-153690801D02*
X138874977Y-152420801D01*
X137846882Y-153690801D02*
X137846882Y-152420801D01*
X137121167Y-153690801D02*
X137665453Y-152965086D01*
X137121167Y-152420801D02*
X137846882Y-153146515D01*
X196843951Y-203500201D02*
X196420618Y-204770201D01*
X196420618Y-204770201D02*
X195997284Y-203500201D01*
X195573952Y-204770201D02*
X195573952Y-203500201D01*
X194969190Y-204770201D02*
X194969190Y-203500201D01*
X194969190Y-203500201D02*
X194243475Y-204770201D01*
X194243475Y-204770201D02*
X194243475Y-203500201D01*
X200738618Y-143845277D02*
X200859571Y-143784801D01*
X200859571Y-143784801D02*
X201040999Y-143784801D01*
X201040999Y-143784801D02*
X201222428Y-143845277D01*
X201222428Y-143845277D02*
X201343380Y-143966229D01*
X201343380Y-143966229D02*
X201403857Y-144087182D01*
X201403857Y-144087182D02*
X201464333Y-144329086D01*
X201464333Y-144329086D02*
X201464333Y-144510515D01*
X201464333Y-144510515D02*
X201403857Y-144752420D01*
X201403857Y-144752420D02*
X201343380Y-144873372D01*
X201343380Y-144873372D02*
X201222428Y-144994325D01*
X201222428Y-144994325D02*
X201040999Y-145054801D01*
X201040999Y-145054801D02*
X200920047Y-145054801D01*
X200920047Y-145054801D02*
X200738618Y-144994325D01*
X200738618Y-144994325D02*
X200678142Y-144933848D01*
X200678142Y-144933848D02*
X200678142Y-144510515D01*
X200678142Y-144510515D02*
X200920047Y-144510515D01*
X200133857Y-145054801D02*
X200133857Y-143784801D01*
X200133857Y-143784801D02*
X199408142Y-145054801D01*
X199408142Y-145054801D02*
X199408142Y-143784801D01*
X198803381Y-145054801D02*
X198803381Y-143784801D01*
X198803381Y-143784801D02*
X198501000Y-143784801D01*
X198501000Y-143784801D02*
X198319571Y-143845277D01*
X198319571Y-143845277D02*
X198198619Y-143966229D01*
X198198619Y-143966229D02*
X198138142Y-144087182D01*
X198138142Y-144087182D02*
X198077666Y-144329086D01*
X198077666Y-144329086D02*
X198077666Y-144510515D01*
X198077666Y-144510515D02*
X198138142Y-144752420D01*
X198138142Y-144752420D02*
X198198619Y-144873372D01*
X198198619Y-144873372D02*
X198319571Y-144994325D01*
X198319571Y-144994325D02*
X198501000Y-145054801D01*
X198501000Y-145054801D02*
X198803381Y-145054801D01*
X217248618Y-143845277D02*
X217369571Y-143784801D01*
X217369571Y-143784801D02*
X217550999Y-143784801D01*
X217550999Y-143784801D02*
X217732428Y-143845277D01*
X217732428Y-143845277D02*
X217853380Y-143966229D01*
X217853380Y-143966229D02*
X217913857Y-144087182D01*
X217913857Y-144087182D02*
X217974333Y-144329086D01*
X217974333Y-144329086D02*
X217974333Y-144510515D01*
X217974333Y-144510515D02*
X217913857Y-144752420D01*
X217913857Y-144752420D02*
X217853380Y-144873372D01*
X217853380Y-144873372D02*
X217732428Y-144994325D01*
X217732428Y-144994325D02*
X217550999Y-145054801D01*
X217550999Y-145054801D02*
X217430047Y-145054801D01*
X217430047Y-145054801D02*
X217248618Y-144994325D01*
X217248618Y-144994325D02*
X217188142Y-144933848D01*
X217188142Y-144933848D02*
X217188142Y-144510515D01*
X217188142Y-144510515D02*
X217430047Y-144510515D01*
X216643857Y-145054801D02*
X216643857Y-143784801D01*
X216643857Y-143784801D02*
X215918142Y-145054801D01*
X215918142Y-145054801D02*
X215918142Y-143784801D01*
X215313381Y-145054801D02*
X215313381Y-143784801D01*
X215313381Y-143784801D02*
X215011000Y-143784801D01*
X215011000Y-143784801D02*
X214829571Y-143845277D01*
X214829571Y-143845277D02*
X214708619Y-143966229D01*
X214708619Y-143966229D02*
X214648142Y-144087182D01*
X214648142Y-144087182D02*
X214587666Y-144329086D01*
X214587666Y-144329086D02*
X214587666Y-144510515D01*
X214587666Y-144510515D02*
X214648142Y-144752420D01*
X214648142Y-144752420D02*
X214708619Y-144873372D01*
X214708619Y-144873372D02*
X214829571Y-144994325D01*
X214829571Y-144994325D02*
X215011000Y-145054801D01*
X215011000Y-145054801D02*
X215313381Y-145054801D01*
X201968704Y-173980563D02*
X201787276Y-174041039D01*
X201787276Y-174041039D02*
X201726799Y-174101515D01*
X201726799Y-174101515D02*
X201666323Y-174222467D01*
X201666323Y-174222467D02*
X201666323Y-174403896D01*
X201666323Y-174403896D02*
X201726799Y-174524848D01*
X201726799Y-174524848D02*
X201787276Y-174585325D01*
X201787276Y-174585325D02*
X201908228Y-174645801D01*
X201908228Y-174645801D02*
X202392038Y-174645801D01*
X202392038Y-174645801D02*
X202392038Y-173375801D01*
X202392038Y-173375801D02*
X201968704Y-173375801D01*
X201968704Y-173375801D02*
X201847752Y-173436277D01*
X201847752Y-173436277D02*
X201787276Y-173496753D01*
X201787276Y-173496753D02*
X201726799Y-173617705D01*
X201726799Y-173617705D02*
X201726799Y-173738658D01*
X201726799Y-173738658D02*
X201787276Y-173859610D01*
X201787276Y-173859610D02*
X201847752Y-173920086D01*
X201847752Y-173920086D02*
X201968704Y-173980563D01*
X201968704Y-173980563D02*
X202392038Y-173980563D01*
X200880133Y-173375801D02*
X200638228Y-173375801D01*
X200638228Y-173375801D02*
X200517276Y-173436277D01*
X200517276Y-173436277D02*
X200396323Y-173557229D01*
X200396323Y-173557229D02*
X200335847Y-173799134D01*
X200335847Y-173799134D02*
X200335847Y-174222467D01*
X200335847Y-174222467D02*
X200396323Y-174464372D01*
X200396323Y-174464372D02*
X200517276Y-174585325D01*
X200517276Y-174585325D02*
X200638228Y-174645801D01*
X200638228Y-174645801D02*
X200880133Y-174645801D01*
X200880133Y-174645801D02*
X201001085Y-174585325D01*
X201001085Y-174585325D02*
X201122038Y-174464372D01*
X201122038Y-174464372D02*
X201182514Y-174222467D01*
X201182514Y-174222467D02*
X201182514Y-173799134D01*
X201182514Y-173799134D02*
X201122038Y-173557229D01*
X201122038Y-173557229D02*
X201001085Y-173436277D01*
X201001085Y-173436277D02*
X200880133Y-173375801D01*
X199549657Y-173375801D02*
X199307752Y-173375801D01*
X199307752Y-173375801D02*
X199186800Y-173436277D01*
X199186800Y-173436277D02*
X199065847Y-173557229D01*
X199065847Y-173557229D02*
X199005371Y-173799134D01*
X199005371Y-173799134D02*
X199005371Y-174222467D01*
X199005371Y-174222467D02*
X199065847Y-174464372D01*
X199065847Y-174464372D02*
X199186800Y-174585325D01*
X199186800Y-174585325D02*
X199307752Y-174645801D01*
X199307752Y-174645801D02*
X199549657Y-174645801D01*
X199549657Y-174645801D02*
X199670609Y-174585325D01*
X199670609Y-174585325D02*
X199791562Y-174464372D01*
X199791562Y-174464372D02*
X199852038Y-174222467D01*
X199852038Y-174222467D02*
X199852038Y-173799134D01*
X199852038Y-173799134D02*
X199791562Y-173557229D01*
X199791562Y-173557229D02*
X199670609Y-173436277D01*
X199670609Y-173436277D02*
X199549657Y-173375801D01*
X198642514Y-173375801D02*
X197916800Y-173375801D01*
X198279657Y-174645801D02*
X198279657Y-173375801D01*
X197251562Y-173375801D02*
X197130609Y-173375801D01*
X197130609Y-173375801D02*
X197009657Y-173436277D01*
X197009657Y-173436277D02*
X196949181Y-173496753D01*
X196949181Y-173496753D02*
X196888705Y-173617705D01*
X196888705Y-173617705D02*
X196828228Y-173859610D01*
X196828228Y-173859610D02*
X196828228Y-174161991D01*
X196828228Y-174161991D02*
X196888705Y-174403896D01*
X196888705Y-174403896D02*
X196949181Y-174524848D01*
X196949181Y-174524848D02*
X197009657Y-174585325D01*
X197009657Y-174585325D02*
X197130609Y-174645801D01*
X197130609Y-174645801D02*
X197251562Y-174645801D01*
X197251562Y-174645801D02*
X197372514Y-174585325D01*
X197372514Y-174585325D02*
X197432990Y-174524848D01*
X197432990Y-174524848D02*
X197493467Y-174403896D01*
X197493467Y-174403896D02*
X197553943Y-174161991D01*
X197553943Y-174161991D02*
X197553943Y-173859610D01*
X197553943Y-173859610D02*
X197493467Y-173617705D01*
X197493467Y-173617705D02*
X197432990Y-173496753D01*
X197432990Y-173496753D02*
X197372514Y-173436277D01*
X197372514Y-173436277D02*
X197251562Y-173375801D01*
X196586324Y-174766753D02*
X195618704Y-174766753D01*
X194651085Y-174645801D02*
X195376800Y-174645801D01*
X195013943Y-174645801D02*
X195013943Y-173375801D01*
X195013943Y-173375801D02*
X195134895Y-173557229D01*
X195134895Y-173557229D02*
X195255847Y-173678182D01*
X195255847Y-173678182D02*
X195376800Y-173738658D01*
X111704601Y-152468815D02*
X112974601Y-152892148D01*
X112974601Y-152892148D02*
X111704601Y-153315482D01*
X112974601Y-153738814D02*
X111704601Y-153738814D01*
X111704601Y-153738814D02*
X111704601Y-154041195D01*
X111704601Y-154041195D02*
X111765077Y-154222624D01*
X111765077Y-154222624D02*
X111886029Y-154343576D01*
X111886029Y-154343576D02*
X112006982Y-154404053D01*
X112006982Y-154404053D02*
X112248886Y-154464529D01*
X112248886Y-154464529D02*
X112430315Y-154464529D01*
X112430315Y-154464529D02*
X112672220Y-154404053D01*
X112672220Y-154404053D02*
X112793172Y-154343576D01*
X112793172Y-154343576D02*
X112914125Y-154222624D01*
X112914125Y-154222624D02*
X112974601Y-154041195D01*
X112974601Y-154041195D02*
X112974601Y-153738814D01*
X112974601Y-155008814D02*
X111704601Y-155008814D01*
X111704601Y-155008814D02*
X111704601Y-155311195D01*
X111704601Y-155311195D02*
X111765077Y-155492624D01*
X111765077Y-155492624D02*
X111886029Y-155613576D01*
X111886029Y-155613576D02*
X112006982Y-155674053D01*
X112006982Y-155674053D02*
X112248886Y-155734529D01*
X112248886Y-155734529D02*
X112430315Y-155734529D01*
X112430315Y-155734529D02*
X112672220Y-155674053D01*
X112672220Y-155674053D02*
X112793172Y-155613576D01*
X112793172Y-155613576D02*
X112914125Y-155492624D01*
X112914125Y-155492624D02*
X112974601Y-155311195D01*
X112974601Y-155311195D02*
X112974601Y-155008814D01*
X169964704Y-173980563D02*
X169783276Y-174041039D01*
X169783276Y-174041039D02*
X169722799Y-174101515D01*
X169722799Y-174101515D02*
X169662323Y-174222467D01*
X169662323Y-174222467D02*
X169662323Y-174403896D01*
X169662323Y-174403896D02*
X169722799Y-174524848D01*
X169722799Y-174524848D02*
X169783276Y-174585325D01*
X169783276Y-174585325D02*
X169904228Y-174645801D01*
X169904228Y-174645801D02*
X170388038Y-174645801D01*
X170388038Y-174645801D02*
X170388038Y-173375801D01*
X170388038Y-173375801D02*
X169964704Y-173375801D01*
X169964704Y-173375801D02*
X169843752Y-173436277D01*
X169843752Y-173436277D02*
X169783276Y-173496753D01*
X169783276Y-173496753D02*
X169722799Y-173617705D01*
X169722799Y-173617705D02*
X169722799Y-173738658D01*
X169722799Y-173738658D02*
X169783276Y-173859610D01*
X169783276Y-173859610D02*
X169843752Y-173920086D01*
X169843752Y-173920086D02*
X169964704Y-173980563D01*
X169964704Y-173980563D02*
X170388038Y-173980563D01*
X168876133Y-173375801D02*
X168634228Y-173375801D01*
X168634228Y-173375801D02*
X168513276Y-173436277D01*
X168513276Y-173436277D02*
X168392323Y-173557229D01*
X168392323Y-173557229D02*
X168331847Y-173799134D01*
X168331847Y-173799134D02*
X168331847Y-174222467D01*
X168331847Y-174222467D02*
X168392323Y-174464372D01*
X168392323Y-174464372D02*
X168513276Y-174585325D01*
X168513276Y-174585325D02*
X168634228Y-174645801D01*
X168634228Y-174645801D02*
X168876133Y-174645801D01*
X168876133Y-174645801D02*
X168997085Y-174585325D01*
X168997085Y-174585325D02*
X169118038Y-174464372D01*
X169118038Y-174464372D02*
X169178514Y-174222467D01*
X169178514Y-174222467D02*
X169178514Y-173799134D01*
X169178514Y-173799134D02*
X169118038Y-173557229D01*
X169118038Y-173557229D02*
X168997085Y-173436277D01*
X168997085Y-173436277D02*
X168876133Y-173375801D01*
X167545657Y-173375801D02*
X167303752Y-173375801D01*
X167303752Y-173375801D02*
X167182800Y-173436277D01*
X167182800Y-173436277D02*
X167061847Y-173557229D01*
X167061847Y-173557229D02*
X167001371Y-173799134D01*
X167001371Y-173799134D02*
X167001371Y-174222467D01*
X167001371Y-174222467D02*
X167061847Y-174464372D01*
X167061847Y-174464372D02*
X167182800Y-174585325D01*
X167182800Y-174585325D02*
X167303752Y-174645801D01*
X167303752Y-174645801D02*
X167545657Y-174645801D01*
X167545657Y-174645801D02*
X167666609Y-174585325D01*
X167666609Y-174585325D02*
X167787562Y-174464372D01*
X167787562Y-174464372D02*
X167848038Y-174222467D01*
X167848038Y-174222467D02*
X167848038Y-173799134D01*
X167848038Y-173799134D02*
X167787562Y-173557229D01*
X167787562Y-173557229D02*
X167666609Y-173436277D01*
X167666609Y-173436277D02*
X167545657Y-173375801D01*
X166638514Y-173375801D02*
X165912800Y-173375801D01*
X166275657Y-174645801D02*
X166275657Y-173375801D01*
X165247562Y-173375801D02*
X165126609Y-173375801D01*
X165126609Y-173375801D02*
X165005657Y-173436277D01*
X165005657Y-173436277D02*
X164945181Y-173496753D01*
X164945181Y-173496753D02*
X164884705Y-173617705D01*
X164884705Y-173617705D02*
X164824228Y-173859610D01*
X164824228Y-173859610D02*
X164824228Y-174161991D01*
X164824228Y-174161991D02*
X164884705Y-174403896D01*
X164884705Y-174403896D02*
X164945181Y-174524848D01*
X164945181Y-174524848D02*
X165005657Y-174585325D01*
X165005657Y-174585325D02*
X165126609Y-174645801D01*
X165126609Y-174645801D02*
X165247562Y-174645801D01*
X165247562Y-174645801D02*
X165368514Y-174585325D01*
X165368514Y-174585325D02*
X165428990Y-174524848D01*
X165428990Y-174524848D02*
X165489467Y-174403896D01*
X165489467Y-174403896D02*
X165549943Y-174161991D01*
X165549943Y-174161991D02*
X165549943Y-173859610D01*
X165549943Y-173859610D02*
X165489467Y-173617705D01*
X165489467Y-173617705D02*
X165428990Y-173496753D01*
X165428990Y-173496753D02*
X165368514Y-173436277D01*
X165368514Y-173436277D02*
X165247562Y-173375801D01*
X164582324Y-174766753D02*
X163614704Y-174766753D01*
X163433276Y-173375801D02*
X162647085Y-173375801D01*
X162647085Y-173375801D02*
X163070419Y-173859610D01*
X163070419Y-173859610D02*
X162888990Y-173859610D01*
X162888990Y-173859610D02*
X162768038Y-173920086D01*
X162768038Y-173920086D02*
X162707562Y-173980563D01*
X162707562Y-173980563D02*
X162647085Y-174101515D01*
X162647085Y-174101515D02*
X162647085Y-174403896D01*
X162647085Y-174403896D02*
X162707562Y-174524848D01*
X162707562Y-174524848D02*
X162768038Y-174585325D01*
X162768038Y-174585325D02*
X162888990Y-174645801D01*
X162888990Y-174645801D02*
X163251847Y-174645801D01*
X163251847Y-174645801D02*
X163372800Y-174585325D01*
X163372800Y-174585325D02*
X163433276Y-174524848D01*
X121043095Y-145461201D02*
X121285000Y-145461201D01*
X121285000Y-145461201D02*
X121405952Y-145521677D01*
X121405952Y-145521677D02*
X121466428Y-145582153D01*
X121466428Y-145582153D02*
X121587381Y-145763582D01*
X121587381Y-145763582D02*
X121647857Y-146005486D01*
X121647857Y-146005486D02*
X121647857Y-146489296D01*
X121647857Y-146489296D02*
X121587381Y-146610248D01*
X121587381Y-146610248D02*
X121526904Y-146670725D01*
X121526904Y-146670725D02*
X121405952Y-146731201D01*
X121405952Y-146731201D02*
X121164047Y-146731201D01*
X121164047Y-146731201D02*
X121043095Y-146670725D01*
X121043095Y-146670725D02*
X120982619Y-146610248D01*
X120982619Y-146610248D02*
X120922142Y-146489296D01*
X120922142Y-146489296D02*
X120922142Y-146186915D01*
X120922142Y-146186915D02*
X120982619Y-146065963D01*
X120982619Y-146065963D02*
X121043095Y-146005486D01*
X121043095Y-146005486D02*
X121164047Y-145945010D01*
X121164047Y-145945010D02*
X121405952Y-145945010D01*
X121405952Y-145945010D02*
X121526904Y-146005486D01*
X121526904Y-146005486D02*
X121587381Y-146065963D01*
X121587381Y-146065963D02*
X121647857Y-146186915D01*
X168920886Y-169252534D02*
X168920886Y-170099201D01*
X168920886Y-169373486D02*
X168860409Y-169313010D01*
X168860409Y-169313010D02*
X168739457Y-169252534D01*
X168739457Y-169252534D02*
X168558028Y-169252534D01*
X168558028Y-169252534D02*
X168437076Y-169313010D01*
X168437076Y-169313010D02*
X168376600Y-169433963D01*
X168376600Y-169433963D02*
X168376600Y-170099201D01*
X167046123Y-170099201D02*
X167469457Y-169494439D01*
X167771838Y-170099201D02*
X167771838Y-168829201D01*
X167771838Y-168829201D02*
X167288028Y-168829201D01*
X167288028Y-168829201D02*
X167167076Y-168889677D01*
X167167076Y-168889677D02*
X167106599Y-168950153D01*
X167106599Y-168950153D02*
X167046123Y-169071105D01*
X167046123Y-169071105D02*
X167046123Y-169252534D01*
X167046123Y-169252534D02*
X167106599Y-169373486D01*
X167106599Y-169373486D02*
X167167076Y-169433963D01*
X167167076Y-169433963D02*
X167288028Y-169494439D01*
X167288028Y-169494439D02*
X167771838Y-169494439D01*
X166562314Y-170038725D02*
X166380885Y-170099201D01*
X166380885Y-170099201D02*
X166078504Y-170099201D01*
X166078504Y-170099201D02*
X165957552Y-170038725D01*
X165957552Y-170038725D02*
X165897076Y-169978248D01*
X165897076Y-169978248D02*
X165836599Y-169857296D01*
X165836599Y-169857296D02*
X165836599Y-169736344D01*
X165836599Y-169736344D02*
X165897076Y-169615391D01*
X165897076Y-169615391D02*
X165957552Y-169554915D01*
X165957552Y-169554915D02*
X166078504Y-169494439D01*
X166078504Y-169494439D02*
X166320409Y-169433963D01*
X166320409Y-169433963D02*
X166441361Y-169373486D01*
X166441361Y-169373486D02*
X166501838Y-169313010D01*
X166501838Y-169313010D02*
X166562314Y-169192058D01*
X166562314Y-169192058D02*
X166562314Y-169071105D01*
X166562314Y-169071105D02*
X166501838Y-168950153D01*
X166501838Y-168950153D02*
X166441361Y-168889677D01*
X166441361Y-168889677D02*
X166320409Y-168829201D01*
X166320409Y-168829201D02*
X166018028Y-168829201D01*
X166018028Y-168829201D02*
X165836599Y-168889677D01*
X165473742Y-168829201D02*
X164748028Y-168829201D01*
X165110885Y-170099201D02*
X165110885Y-168829201D01*
X164627076Y-170220153D02*
X163659456Y-170220153D01*
X163478028Y-168829201D02*
X162691837Y-168829201D01*
X162691837Y-168829201D02*
X163115171Y-169313010D01*
X163115171Y-169313010D02*
X162933742Y-169313010D01*
X162933742Y-169313010D02*
X162812790Y-169373486D01*
X162812790Y-169373486D02*
X162752314Y-169433963D01*
X162752314Y-169433963D02*
X162691837Y-169554915D01*
X162691837Y-169554915D02*
X162691837Y-169857296D01*
X162691837Y-169857296D02*
X162752314Y-169978248D01*
X162752314Y-169978248D02*
X162812790Y-170038725D01*
X162812790Y-170038725D02*
X162933742Y-170099201D01*
X162933742Y-170099201D02*
X163296599Y-170099201D01*
X163296599Y-170099201D02*
X163417552Y-170038725D01*
X163417552Y-170038725D02*
X163478028Y-169978248D01*
X142503549Y-155179725D02*
X142322120Y-155240201D01*
X142322120Y-155240201D02*
X142019739Y-155240201D01*
X142019739Y-155240201D02*
X141898787Y-155179725D01*
X141898787Y-155179725D02*
X141838311Y-155119248D01*
X141838311Y-155119248D02*
X141777834Y-154998296D01*
X141777834Y-154998296D02*
X141777834Y-154877344D01*
X141777834Y-154877344D02*
X141838311Y-154756391D01*
X141838311Y-154756391D02*
X141898787Y-154695915D01*
X141898787Y-154695915D02*
X142019739Y-154635439D01*
X142019739Y-154635439D02*
X142261644Y-154574963D01*
X142261644Y-154574963D02*
X142382596Y-154514486D01*
X142382596Y-154514486D02*
X142443073Y-154454010D01*
X142443073Y-154454010D02*
X142503549Y-154333058D01*
X142503549Y-154333058D02*
X142503549Y-154212105D01*
X142503549Y-154212105D02*
X142443073Y-154091153D01*
X142443073Y-154091153D02*
X142382596Y-154030677D01*
X142382596Y-154030677D02*
X142261644Y-153970201D01*
X142261644Y-153970201D02*
X141959263Y-153970201D01*
X141959263Y-153970201D02*
X141777834Y-154030677D01*
X141354501Y-153970201D02*
X141052120Y-155240201D01*
X141052120Y-155240201D02*
X140810215Y-154333058D01*
X140810215Y-154333058D02*
X140568310Y-155240201D01*
X140568310Y-155240201D02*
X140265930Y-153970201D01*
X139782120Y-155240201D02*
X139782120Y-153970201D01*
X139782120Y-153970201D02*
X139479739Y-153970201D01*
X139479739Y-153970201D02*
X139298310Y-154030677D01*
X139298310Y-154030677D02*
X139177358Y-154151629D01*
X139177358Y-154151629D02*
X139116881Y-154272582D01*
X139116881Y-154272582D02*
X139056405Y-154514486D01*
X139056405Y-154514486D02*
X139056405Y-154695915D01*
X139056405Y-154695915D02*
X139116881Y-154937820D01*
X139116881Y-154937820D02*
X139177358Y-155058772D01*
X139177358Y-155058772D02*
X139298310Y-155179725D01*
X139298310Y-155179725D02*
X139479739Y-155240201D01*
X139479739Y-155240201D02*
X139782120Y-155240201D01*
X138512120Y-155240201D02*
X138512120Y-153970201D01*
X137665453Y-153970201D02*
X137423548Y-153970201D01*
X137423548Y-153970201D02*
X137302596Y-154030677D01*
X137302596Y-154030677D02*
X137181643Y-154151629D01*
X137181643Y-154151629D02*
X137121167Y-154393534D01*
X137121167Y-154393534D02*
X137121167Y-154816867D01*
X137121167Y-154816867D02*
X137181643Y-155058772D01*
X137181643Y-155058772D02*
X137302596Y-155179725D01*
X137302596Y-155179725D02*
X137423548Y-155240201D01*
X137423548Y-155240201D02*
X137665453Y-155240201D01*
X137665453Y-155240201D02*
X137786405Y-155179725D01*
X137786405Y-155179725D02*
X137907358Y-155058772D01*
X137907358Y-155058772D02*
X137967834Y-154816867D01*
X137967834Y-154816867D02*
X137967834Y-154393534D01*
X137967834Y-154393534D02*
X137907358Y-154151629D01*
X137907358Y-154151629D02*
X137786405Y-154030677D01*
X137786405Y-154030677D02*
X137665453Y-153970201D01*
X104912886Y-169252534D02*
X104912886Y-170099201D01*
X104912886Y-169373486D02*
X104852409Y-169313010D01*
X104852409Y-169313010D02*
X104731457Y-169252534D01*
X104731457Y-169252534D02*
X104550028Y-169252534D01*
X104550028Y-169252534D02*
X104429076Y-169313010D01*
X104429076Y-169313010D02*
X104368600Y-169433963D01*
X104368600Y-169433963D02*
X104368600Y-170099201D01*
X103038123Y-170099201D02*
X103461457Y-169494439D01*
X103763838Y-170099201D02*
X103763838Y-168829201D01*
X103763838Y-168829201D02*
X103280028Y-168829201D01*
X103280028Y-168829201D02*
X103159076Y-168889677D01*
X103159076Y-168889677D02*
X103098599Y-168950153D01*
X103098599Y-168950153D02*
X103038123Y-169071105D01*
X103038123Y-169071105D02*
X103038123Y-169252534D01*
X103038123Y-169252534D02*
X103098599Y-169373486D01*
X103098599Y-169373486D02*
X103159076Y-169433963D01*
X103159076Y-169433963D02*
X103280028Y-169494439D01*
X103280028Y-169494439D02*
X103763838Y-169494439D01*
X102554314Y-170038725D02*
X102372885Y-170099201D01*
X102372885Y-170099201D02*
X102070504Y-170099201D01*
X102070504Y-170099201D02*
X101949552Y-170038725D01*
X101949552Y-170038725D02*
X101889076Y-169978248D01*
X101889076Y-169978248D02*
X101828599Y-169857296D01*
X101828599Y-169857296D02*
X101828599Y-169736344D01*
X101828599Y-169736344D02*
X101889076Y-169615391D01*
X101889076Y-169615391D02*
X101949552Y-169554915D01*
X101949552Y-169554915D02*
X102070504Y-169494439D01*
X102070504Y-169494439D02*
X102312409Y-169433963D01*
X102312409Y-169433963D02*
X102433361Y-169373486D01*
X102433361Y-169373486D02*
X102493838Y-169313010D01*
X102493838Y-169313010D02*
X102554314Y-169192058D01*
X102554314Y-169192058D02*
X102554314Y-169071105D01*
X102554314Y-169071105D02*
X102493838Y-168950153D01*
X102493838Y-168950153D02*
X102433361Y-168889677D01*
X102433361Y-168889677D02*
X102312409Y-168829201D01*
X102312409Y-168829201D02*
X102010028Y-168829201D01*
X102010028Y-168829201D02*
X101828599Y-168889677D01*
X101465742Y-168829201D02*
X100740028Y-168829201D01*
X101102885Y-170099201D02*
X101102885Y-168829201D01*
X100619076Y-170220153D02*
X99651456Y-170220153D01*
X99470028Y-168829201D02*
X98623361Y-168829201D01*
X98623361Y-168829201D02*
X99167647Y-170099201D01*
X218130601Y-151097342D02*
X216860601Y-151097342D01*
X216860601Y-151097342D02*
X218130601Y-151823057D01*
X218130601Y-151823057D02*
X216860601Y-151823057D01*
X218009648Y-153153533D02*
X218070125Y-153093057D01*
X218070125Y-153093057D02*
X218130601Y-152911628D01*
X218130601Y-152911628D02*
X218130601Y-152790676D01*
X218130601Y-152790676D02*
X218070125Y-152609247D01*
X218070125Y-152609247D02*
X217949172Y-152488295D01*
X217949172Y-152488295D02*
X217828220Y-152427818D01*
X217828220Y-152427818D02*
X217586315Y-152367342D01*
X217586315Y-152367342D02*
X217404886Y-152367342D01*
X217404886Y-152367342D02*
X217162982Y-152427818D01*
X217162982Y-152427818D02*
X217042029Y-152488295D01*
X217042029Y-152488295D02*
X216921077Y-152609247D01*
X216921077Y-152609247D02*
X216860601Y-152790676D01*
X216860601Y-152790676D02*
X216860601Y-152911628D01*
X216860601Y-152911628D02*
X216921077Y-153093057D01*
X216921077Y-153093057D02*
X216981553Y-153153533D01*
X226440999Y-145054801D02*
X226864333Y-144450039D01*
X227166714Y-145054801D02*
X227166714Y-143784801D01*
X227166714Y-143784801D02*
X226682904Y-143784801D01*
X226682904Y-143784801D02*
X226561952Y-143845277D01*
X226561952Y-143845277D02*
X226501475Y-143905753D01*
X226501475Y-143905753D02*
X226440999Y-144026705D01*
X226440999Y-144026705D02*
X226440999Y-144208134D01*
X226440999Y-144208134D02*
X226501475Y-144329086D01*
X226501475Y-144329086D02*
X226561952Y-144389563D01*
X226561952Y-144389563D02*
X226682904Y-144450039D01*
X226682904Y-144450039D02*
X227166714Y-144450039D01*
X226017666Y-143784801D02*
X225170999Y-145054801D01*
X225170999Y-143784801D02*
X226017666Y-145054801D01*
X224021951Y-145054801D02*
X224747666Y-145054801D01*
X224384809Y-145054801D02*
X224384809Y-143784801D01*
X224384809Y-143784801D02*
X224505761Y-143966229D01*
X224505761Y-143966229D02*
X224626713Y-144087182D01*
X224626713Y-144087182D02*
X224747666Y-144147658D01*
X222570523Y-143724325D02*
X223659094Y-145357182D01*
X222328618Y-143784801D02*
X221602904Y-143784801D01*
X221965761Y-145054801D02*
X221965761Y-143784801D01*
X221300523Y-143784801D02*
X220453856Y-145054801D01*
X220453856Y-143784801D02*
X221300523Y-145054801D01*
X220030523Y-143905753D02*
X219970047Y-143845277D01*
X219970047Y-143845277D02*
X219849094Y-143784801D01*
X219849094Y-143784801D02*
X219546713Y-143784801D01*
X219546713Y-143784801D02*
X219425761Y-143845277D01*
X219425761Y-143845277D02*
X219365285Y-143905753D01*
X219365285Y-143905753D02*
X219304808Y-144026705D01*
X219304808Y-144026705D02*
X219304808Y-144147658D01*
X219304808Y-144147658D02*
X219365285Y-144329086D01*
X219365285Y-144329086D02*
X220090999Y-145054801D01*
X220090999Y-145054801D02*
X219304808Y-145054801D01*
X153962704Y-173980563D02*
X153781276Y-174041039D01*
X153781276Y-174041039D02*
X153720799Y-174101515D01*
X153720799Y-174101515D02*
X153660323Y-174222467D01*
X153660323Y-174222467D02*
X153660323Y-174403896D01*
X153660323Y-174403896D02*
X153720799Y-174524848D01*
X153720799Y-174524848D02*
X153781276Y-174585325D01*
X153781276Y-174585325D02*
X153902228Y-174645801D01*
X153902228Y-174645801D02*
X154386038Y-174645801D01*
X154386038Y-174645801D02*
X154386038Y-173375801D01*
X154386038Y-173375801D02*
X153962704Y-173375801D01*
X153962704Y-173375801D02*
X153841752Y-173436277D01*
X153841752Y-173436277D02*
X153781276Y-173496753D01*
X153781276Y-173496753D02*
X153720799Y-173617705D01*
X153720799Y-173617705D02*
X153720799Y-173738658D01*
X153720799Y-173738658D02*
X153781276Y-173859610D01*
X153781276Y-173859610D02*
X153841752Y-173920086D01*
X153841752Y-173920086D02*
X153962704Y-173980563D01*
X153962704Y-173980563D02*
X154386038Y-173980563D01*
X152874133Y-173375801D02*
X152632228Y-173375801D01*
X152632228Y-173375801D02*
X152511276Y-173436277D01*
X152511276Y-173436277D02*
X152390323Y-173557229D01*
X152390323Y-173557229D02*
X152329847Y-173799134D01*
X152329847Y-173799134D02*
X152329847Y-174222467D01*
X152329847Y-174222467D02*
X152390323Y-174464372D01*
X152390323Y-174464372D02*
X152511276Y-174585325D01*
X152511276Y-174585325D02*
X152632228Y-174645801D01*
X152632228Y-174645801D02*
X152874133Y-174645801D01*
X152874133Y-174645801D02*
X152995085Y-174585325D01*
X152995085Y-174585325D02*
X153116038Y-174464372D01*
X153116038Y-174464372D02*
X153176514Y-174222467D01*
X153176514Y-174222467D02*
X153176514Y-173799134D01*
X153176514Y-173799134D02*
X153116038Y-173557229D01*
X153116038Y-173557229D02*
X152995085Y-173436277D01*
X152995085Y-173436277D02*
X152874133Y-173375801D01*
X151543657Y-173375801D02*
X151301752Y-173375801D01*
X151301752Y-173375801D02*
X151180800Y-173436277D01*
X151180800Y-173436277D02*
X151059847Y-173557229D01*
X151059847Y-173557229D02*
X150999371Y-173799134D01*
X150999371Y-173799134D02*
X150999371Y-174222467D01*
X150999371Y-174222467D02*
X151059847Y-174464372D01*
X151059847Y-174464372D02*
X151180800Y-174585325D01*
X151180800Y-174585325D02*
X151301752Y-174645801D01*
X151301752Y-174645801D02*
X151543657Y-174645801D01*
X151543657Y-174645801D02*
X151664609Y-174585325D01*
X151664609Y-174585325D02*
X151785562Y-174464372D01*
X151785562Y-174464372D02*
X151846038Y-174222467D01*
X151846038Y-174222467D02*
X151846038Y-173799134D01*
X151846038Y-173799134D02*
X151785562Y-173557229D01*
X151785562Y-173557229D02*
X151664609Y-173436277D01*
X151664609Y-173436277D02*
X151543657Y-173375801D01*
X150636514Y-173375801D02*
X149910800Y-173375801D01*
X150273657Y-174645801D02*
X150273657Y-173375801D01*
X149245562Y-173375801D02*
X149124609Y-173375801D01*
X149124609Y-173375801D02*
X149003657Y-173436277D01*
X149003657Y-173436277D02*
X148943181Y-173496753D01*
X148943181Y-173496753D02*
X148882705Y-173617705D01*
X148882705Y-173617705D02*
X148822228Y-173859610D01*
X148822228Y-173859610D02*
X148822228Y-174161991D01*
X148822228Y-174161991D02*
X148882705Y-174403896D01*
X148882705Y-174403896D02*
X148943181Y-174524848D01*
X148943181Y-174524848D02*
X149003657Y-174585325D01*
X149003657Y-174585325D02*
X149124609Y-174645801D01*
X149124609Y-174645801D02*
X149245562Y-174645801D01*
X149245562Y-174645801D02*
X149366514Y-174585325D01*
X149366514Y-174585325D02*
X149426990Y-174524848D01*
X149426990Y-174524848D02*
X149487467Y-174403896D01*
X149487467Y-174403896D02*
X149547943Y-174161991D01*
X149547943Y-174161991D02*
X149547943Y-173859610D01*
X149547943Y-173859610D02*
X149487467Y-173617705D01*
X149487467Y-173617705D02*
X149426990Y-173496753D01*
X149426990Y-173496753D02*
X149366514Y-173436277D01*
X149366514Y-173436277D02*
X149245562Y-173375801D01*
X148580324Y-174766753D02*
X147612704Y-174766753D01*
X146766038Y-173799134D02*
X146766038Y-174645801D01*
X147068419Y-173315325D02*
X147370800Y-174222467D01*
X147370800Y-174222467D02*
X146584609Y-174222467D01*
X131807857Y-145582153D02*
X131747381Y-145521677D01*
X131747381Y-145521677D02*
X131626428Y-145461201D01*
X131626428Y-145461201D02*
X131324047Y-145461201D01*
X131324047Y-145461201D02*
X131203095Y-145521677D01*
X131203095Y-145521677D02*
X131142619Y-145582153D01*
X131142619Y-145582153D02*
X131082142Y-145703105D01*
X131082142Y-145703105D02*
X131082142Y-145824058D01*
X131082142Y-145824058D02*
X131142619Y-146005486D01*
X131142619Y-146005486D02*
X131868333Y-146731201D01*
X131868333Y-146731201D02*
X131082142Y-146731201D01*
X129328333Y-145461201D02*
X128542142Y-145461201D01*
X128542142Y-145461201D02*
X128965476Y-145945010D01*
X128965476Y-145945010D02*
X128784047Y-145945010D01*
X128784047Y-145945010D02*
X128663095Y-146005486D01*
X128663095Y-146005486D02*
X128602619Y-146065963D01*
X128602619Y-146065963D02*
X128542142Y-146186915D01*
X128542142Y-146186915D02*
X128542142Y-146489296D01*
X128542142Y-146489296D02*
X128602619Y-146610248D01*
X128602619Y-146610248D02*
X128663095Y-146670725D01*
X128663095Y-146670725D02*
X128784047Y-146731201D01*
X128784047Y-146731201D02*
X129146904Y-146731201D01*
X129146904Y-146731201D02*
X129267857Y-146670725D01*
X129267857Y-146670725D02*
X129328333Y-146610248D01*
X184922886Y-169252534D02*
X184922886Y-170099201D01*
X184922886Y-169373486D02*
X184862409Y-169313010D01*
X184862409Y-169313010D02*
X184741457Y-169252534D01*
X184741457Y-169252534D02*
X184560028Y-169252534D01*
X184560028Y-169252534D02*
X184439076Y-169313010D01*
X184439076Y-169313010D02*
X184378600Y-169433963D01*
X184378600Y-169433963D02*
X184378600Y-170099201D01*
X183048123Y-170099201D02*
X183471457Y-169494439D01*
X183773838Y-170099201D02*
X183773838Y-168829201D01*
X183773838Y-168829201D02*
X183290028Y-168829201D01*
X183290028Y-168829201D02*
X183169076Y-168889677D01*
X183169076Y-168889677D02*
X183108599Y-168950153D01*
X183108599Y-168950153D02*
X183048123Y-169071105D01*
X183048123Y-169071105D02*
X183048123Y-169252534D01*
X183048123Y-169252534D02*
X183108599Y-169373486D01*
X183108599Y-169373486D02*
X183169076Y-169433963D01*
X183169076Y-169433963D02*
X183290028Y-169494439D01*
X183290028Y-169494439D02*
X183773838Y-169494439D01*
X182564314Y-170038725D02*
X182382885Y-170099201D01*
X182382885Y-170099201D02*
X182080504Y-170099201D01*
X182080504Y-170099201D02*
X181959552Y-170038725D01*
X181959552Y-170038725D02*
X181899076Y-169978248D01*
X181899076Y-169978248D02*
X181838599Y-169857296D01*
X181838599Y-169857296D02*
X181838599Y-169736344D01*
X181838599Y-169736344D02*
X181899076Y-169615391D01*
X181899076Y-169615391D02*
X181959552Y-169554915D01*
X181959552Y-169554915D02*
X182080504Y-169494439D01*
X182080504Y-169494439D02*
X182322409Y-169433963D01*
X182322409Y-169433963D02*
X182443361Y-169373486D01*
X182443361Y-169373486D02*
X182503838Y-169313010D01*
X182503838Y-169313010D02*
X182564314Y-169192058D01*
X182564314Y-169192058D02*
X182564314Y-169071105D01*
X182564314Y-169071105D02*
X182503838Y-168950153D01*
X182503838Y-168950153D02*
X182443361Y-168889677D01*
X182443361Y-168889677D02*
X182322409Y-168829201D01*
X182322409Y-168829201D02*
X182020028Y-168829201D01*
X182020028Y-168829201D02*
X181838599Y-168889677D01*
X181475742Y-168829201D02*
X180750028Y-168829201D01*
X181112885Y-170099201D02*
X181112885Y-168829201D01*
X180629076Y-170220153D02*
X179661456Y-170220153D01*
X179419552Y-168950153D02*
X179359076Y-168889677D01*
X179359076Y-168889677D02*
X179238123Y-168829201D01*
X179238123Y-168829201D02*
X178935742Y-168829201D01*
X178935742Y-168829201D02*
X178814790Y-168889677D01*
X178814790Y-168889677D02*
X178754314Y-168950153D01*
X178754314Y-168950153D02*
X178693837Y-169071105D01*
X178693837Y-169071105D02*
X178693837Y-169192058D01*
X178693837Y-169192058D02*
X178754314Y-169373486D01*
X178754314Y-169373486D02*
X179480028Y-170099201D01*
X179480028Y-170099201D02*
X178693837Y-170099201D01*
X105956704Y-173980563D02*
X105775276Y-174041039D01*
X105775276Y-174041039D02*
X105714799Y-174101515D01*
X105714799Y-174101515D02*
X105654323Y-174222467D01*
X105654323Y-174222467D02*
X105654323Y-174403896D01*
X105654323Y-174403896D02*
X105714799Y-174524848D01*
X105714799Y-174524848D02*
X105775276Y-174585325D01*
X105775276Y-174585325D02*
X105896228Y-174645801D01*
X105896228Y-174645801D02*
X106380038Y-174645801D01*
X106380038Y-174645801D02*
X106380038Y-173375801D01*
X106380038Y-173375801D02*
X105956704Y-173375801D01*
X105956704Y-173375801D02*
X105835752Y-173436277D01*
X105835752Y-173436277D02*
X105775276Y-173496753D01*
X105775276Y-173496753D02*
X105714799Y-173617705D01*
X105714799Y-173617705D02*
X105714799Y-173738658D01*
X105714799Y-173738658D02*
X105775276Y-173859610D01*
X105775276Y-173859610D02*
X105835752Y-173920086D01*
X105835752Y-173920086D02*
X105956704Y-173980563D01*
X105956704Y-173980563D02*
X106380038Y-173980563D01*
X104868133Y-173375801D02*
X104626228Y-173375801D01*
X104626228Y-173375801D02*
X104505276Y-173436277D01*
X104505276Y-173436277D02*
X104384323Y-173557229D01*
X104384323Y-173557229D02*
X104323847Y-173799134D01*
X104323847Y-173799134D02*
X104323847Y-174222467D01*
X104323847Y-174222467D02*
X104384323Y-174464372D01*
X104384323Y-174464372D02*
X104505276Y-174585325D01*
X104505276Y-174585325D02*
X104626228Y-174645801D01*
X104626228Y-174645801D02*
X104868133Y-174645801D01*
X104868133Y-174645801D02*
X104989085Y-174585325D01*
X104989085Y-174585325D02*
X105110038Y-174464372D01*
X105110038Y-174464372D02*
X105170514Y-174222467D01*
X105170514Y-174222467D02*
X105170514Y-173799134D01*
X105170514Y-173799134D02*
X105110038Y-173557229D01*
X105110038Y-173557229D02*
X104989085Y-173436277D01*
X104989085Y-173436277D02*
X104868133Y-173375801D01*
X103537657Y-173375801D02*
X103295752Y-173375801D01*
X103295752Y-173375801D02*
X103174800Y-173436277D01*
X103174800Y-173436277D02*
X103053847Y-173557229D01*
X103053847Y-173557229D02*
X102993371Y-173799134D01*
X102993371Y-173799134D02*
X102993371Y-174222467D01*
X102993371Y-174222467D02*
X103053847Y-174464372D01*
X103053847Y-174464372D02*
X103174800Y-174585325D01*
X103174800Y-174585325D02*
X103295752Y-174645801D01*
X103295752Y-174645801D02*
X103537657Y-174645801D01*
X103537657Y-174645801D02*
X103658609Y-174585325D01*
X103658609Y-174585325D02*
X103779562Y-174464372D01*
X103779562Y-174464372D02*
X103840038Y-174222467D01*
X103840038Y-174222467D02*
X103840038Y-173799134D01*
X103840038Y-173799134D02*
X103779562Y-173557229D01*
X103779562Y-173557229D02*
X103658609Y-173436277D01*
X103658609Y-173436277D02*
X103537657Y-173375801D01*
X102630514Y-173375801D02*
X101904800Y-173375801D01*
X102267657Y-174645801D02*
X102267657Y-173375801D01*
X101239562Y-173375801D02*
X101118609Y-173375801D01*
X101118609Y-173375801D02*
X100997657Y-173436277D01*
X100997657Y-173436277D02*
X100937181Y-173496753D01*
X100937181Y-173496753D02*
X100876705Y-173617705D01*
X100876705Y-173617705D02*
X100816228Y-173859610D01*
X100816228Y-173859610D02*
X100816228Y-174161991D01*
X100816228Y-174161991D02*
X100876705Y-174403896D01*
X100876705Y-174403896D02*
X100937181Y-174524848D01*
X100937181Y-174524848D02*
X100997657Y-174585325D01*
X100997657Y-174585325D02*
X101118609Y-174645801D01*
X101118609Y-174645801D02*
X101239562Y-174645801D01*
X101239562Y-174645801D02*
X101360514Y-174585325D01*
X101360514Y-174585325D02*
X101420990Y-174524848D01*
X101420990Y-174524848D02*
X101481467Y-174403896D01*
X101481467Y-174403896D02*
X101541943Y-174161991D01*
X101541943Y-174161991D02*
X101541943Y-173859610D01*
X101541943Y-173859610D02*
X101481467Y-173617705D01*
X101481467Y-173617705D02*
X101420990Y-173496753D01*
X101420990Y-173496753D02*
X101360514Y-173436277D01*
X101360514Y-173436277D02*
X101239562Y-173375801D01*
X100574324Y-174766753D02*
X99606704Y-174766753D01*
X99425276Y-173375801D02*
X98578609Y-173375801D01*
X98578609Y-173375801D02*
X99122895Y-174645801D01*
X119168333Y-145461201D02*
X118321666Y-145461201D01*
X118321666Y-145461201D02*
X118865952Y-146731201D01*
X114244601Y-152468815D02*
X115514601Y-152892148D01*
X115514601Y-152892148D02*
X114244601Y-153315482D01*
X115393648Y-154464529D02*
X115454125Y-154404053D01*
X115454125Y-154404053D02*
X115514601Y-154222624D01*
X115514601Y-154222624D02*
X115514601Y-154101672D01*
X115514601Y-154101672D02*
X115454125Y-153920243D01*
X115454125Y-153920243D02*
X115333172Y-153799291D01*
X115333172Y-153799291D02*
X115212220Y-153738814D01*
X115212220Y-153738814D02*
X114970315Y-153678338D01*
X114970315Y-153678338D02*
X114788886Y-153678338D01*
X114788886Y-153678338D02*
X114546982Y-153738814D01*
X114546982Y-153738814D02*
X114426029Y-153799291D01*
X114426029Y-153799291D02*
X114305077Y-153920243D01*
X114305077Y-153920243D02*
X114244601Y-154101672D01*
X114244601Y-154101672D02*
X114244601Y-154222624D01*
X114244601Y-154222624D02*
X114305077Y-154404053D01*
X114305077Y-154404053D02*
X114365553Y-154464529D01*
X115393648Y-155734529D02*
X115454125Y-155674053D01*
X115454125Y-155674053D02*
X115514601Y-155492624D01*
X115514601Y-155492624D02*
X115514601Y-155371672D01*
X115514601Y-155371672D02*
X115454125Y-155190243D01*
X115454125Y-155190243D02*
X115333172Y-155069291D01*
X115333172Y-155069291D02*
X115212220Y-155008814D01*
X115212220Y-155008814D02*
X114970315Y-154948338D01*
X114970315Y-154948338D02*
X114788886Y-154948338D01*
X114788886Y-154948338D02*
X114546982Y-155008814D01*
X114546982Y-155008814D02*
X114426029Y-155069291D01*
X114426029Y-155069291D02*
X114305077Y-155190243D01*
X114305077Y-155190243D02*
X114244601Y-155371672D01*
X114244601Y-155371672D02*
X114244601Y-155492624D01*
X114244601Y-155492624D02*
X114305077Y-155674053D01*
X114305077Y-155674053D02*
X114365553Y-155734529D01*
D12*
X154106877Y-145689383D02*
X154264115Y-145610764D01*
X154264115Y-145610764D02*
X154499972Y-145610764D01*
X154499972Y-145610764D02*
X154735829Y-145689383D01*
X154735829Y-145689383D02*
X154893067Y-145846621D01*
X154893067Y-145846621D02*
X154971686Y-146003859D01*
X154971686Y-146003859D02*
X155050305Y-146318335D01*
X155050305Y-146318335D02*
X155050305Y-146554192D01*
X155050305Y-146554192D02*
X154971686Y-146868668D01*
X154971686Y-146868668D02*
X154893067Y-147025906D01*
X154893067Y-147025906D02*
X154735829Y-147183145D01*
X154735829Y-147183145D02*
X154499972Y-147261764D01*
X154499972Y-147261764D02*
X154342734Y-147261764D01*
X154342734Y-147261764D02*
X154106877Y-147183145D01*
X154106877Y-147183145D02*
X154028258Y-147104525D01*
X154028258Y-147104525D02*
X154028258Y-146554192D01*
X154028258Y-146554192D02*
X154342734Y-146554192D01*
X153320686Y-147261764D02*
X153320686Y-145610764D01*
X153320686Y-145610764D02*
X152377258Y-147261764D01*
X152377258Y-147261764D02*
X152377258Y-145610764D01*
X151591067Y-147261764D02*
X151591067Y-145610764D01*
X151591067Y-145610764D02*
X151197972Y-145610764D01*
X151197972Y-145610764D02*
X150962115Y-145689383D01*
X150962115Y-145689383D02*
X150804877Y-145846621D01*
X150804877Y-145846621D02*
X150726258Y-146003859D01*
X150726258Y-146003859D02*
X150647639Y-146318335D01*
X150647639Y-146318335D02*
X150647639Y-146554192D01*
X150647639Y-146554192D02*
X150726258Y-146868668D01*
X150726258Y-146868668D02*
X150804877Y-147025906D01*
X150804877Y-147025906D02*
X150962115Y-147183145D01*
X150962115Y-147183145D02*
X151197972Y-147261764D01*
X151197972Y-147261764D02*
X151591067Y-147261764D01*
D10*
X185966704Y-173980563D02*
X185785276Y-174041039D01*
X185785276Y-174041039D02*
X185724799Y-174101515D01*
X185724799Y-174101515D02*
X185664323Y-174222467D01*
X185664323Y-174222467D02*
X185664323Y-174403896D01*
X185664323Y-174403896D02*
X185724799Y-174524848D01*
X185724799Y-174524848D02*
X185785276Y-174585325D01*
X185785276Y-174585325D02*
X185906228Y-174645801D01*
X185906228Y-174645801D02*
X186390038Y-174645801D01*
X186390038Y-174645801D02*
X186390038Y-173375801D01*
X186390038Y-173375801D02*
X185966704Y-173375801D01*
X185966704Y-173375801D02*
X185845752Y-173436277D01*
X185845752Y-173436277D02*
X185785276Y-173496753D01*
X185785276Y-173496753D02*
X185724799Y-173617705D01*
X185724799Y-173617705D02*
X185724799Y-173738658D01*
X185724799Y-173738658D02*
X185785276Y-173859610D01*
X185785276Y-173859610D02*
X185845752Y-173920086D01*
X185845752Y-173920086D02*
X185966704Y-173980563D01*
X185966704Y-173980563D02*
X186390038Y-173980563D01*
X184878133Y-173375801D02*
X184636228Y-173375801D01*
X184636228Y-173375801D02*
X184515276Y-173436277D01*
X184515276Y-173436277D02*
X184394323Y-173557229D01*
X184394323Y-173557229D02*
X184333847Y-173799134D01*
X184333847Y-173799134D02*
X184333847Y-174222467D01*
X184333847Y-174222467D02*
X184394323Y-174464372D01*
X184394323Y-174464372D02*
X184515276Y-174585325D01*
X184515276Y-174585325D02*
X184636228Y-174645801D01*
X184636228Y-174645801D02*
X184878133Y-174645801D01*
X184878133Y-174645801D02*
X184999085Y-174585325D01*
X184999085Y-174585325D02*
X185120038Y-174464372D01*
X185120038Y-174464372D02*
X185180514Y-174222467D01*
X185180514Y-174222467D02*
X185180514Y-173799134D01*
X185180514Y-173799134D02*
X185120038Y-173557229D01*
X185120038Y-173557229D02*
X184999085Y-173436277D01*
X184999085Y-173436277D02*
X184878133Y-173375801D01*
X183547657Y-173375801D02*
X183305752Y-173375801D01*
X183305752Y-173375801D02*
X183184800Y-173436277D01*
X183184800Y-173436277D02*
X183063847Y-173557229D01*
X183063847Y-173557229D02*
X183003371Y-173799134D01*
X183003371Y-173799134D02*
X183003371Y-174222467D01*
X183003371Y-174222467D02*
X183063847Y-174464372D01*
X183063847Y-174464372D02*
X183184800Y-174585325D01*
X183184800Y-174585325D02*
X183305752Y-174645801D01*
X183305752Y-174645801D02*
X183547657Y-174645801D01*
X183547657Y-174645801D02*
X183668609Y-174585325D01*
X183668609Y-174585325D02*
X183789562Y-174464372D01*
X183789562Y-174464372D02*
X183850038Y-174222467D01*
X183850038Y-174222467D02*
X183850038Y-173799134D01*
X183850038Y-173799134D02*
X183789562Y-173557229D01*
X183789562Y-173557229D02*
X183668609Y-173436277D01*
X183668609Y-173436277D02*
X183547657Y-173375801D01*
X182640514Y-173375801D02*
X181914800Y-173375801D01*
X182277657Y-174645801D02*
X182277657Y-173375801D01*
X181249562Y-173375801D02*
X181128609Y-173375801D01*
X181128609Y-173375801D02*
X181007657Y-173436277D01*
X181007657Y-173436277D02*
X180947181Y-173496753D01*
X180947181Y-173496753D02*
X180886705Y-173617705D01*
X180886705Y-173617705D02*
X180826228Y-173859610D01*
X180826228Y-173859610D02*
X180826228Y-174161991D01*
X180826228Y-174161991D02*
X180886705Y-174403896D01*
X180886705Y-174403896D02*
X180947181Y-174524848D01*
X180947181Y-174524848D02*
X181007657Y-174585325D01*
X181007657Y-174585325D02*
X181128609Y-174645801D01*
X181128609Y-174645801D02*
X181249562Y-174645801D01*
X181249562Y-174645801D02*
X181370514Y-174585325D01*
X181370514Y-174585325D02*
X181430990Y-174524848D01*
X181430990Y-174524848D02*
X181491467Y-174403896D01*
X181491467Y-174403896D02*
X181551943Y-174161991D01*
X181551943Y-174161991D02*
X181551943Y-173859610D01*
X181551943Y-173859610D02*
X181491467Y-173617705D01*
X181491467Y-173617705D02*
X181430990Y-173496753D01*
X181430990Y-173496753D02*
X181370514Y-173436277D01*
X181370514Y-173436277D02*
X181249562Y-173375801D01*
X180584324Y-174766753D02*
X179616704Y-174766753D01*
X179374800Y-173496753D02*
X179314324Y-173436277D01*
X179314324Y-173436277D02*
X179193371Y-173375801D01*
X179193371Y-173375801D02*
X178890990Y-173375801D01*
X178890990Y-173375801D02*
X178770038Y-173436277D01*
X178770038Y-173436277D02*
X178709562Y-173496753D01*
X178709562Y-173496753D02*
X178649085Y-173617705D01*
X178649085Y-173617705D02*
X178649085Y-173738658D01*
X178649085Y-173738658D02*
X178709562Y-173920086D01*
X178709562Y-173920086D02*
X179435276Y-174645801D01*
X179435276Y-174645801D02*
X178649085Y-174645801D01*
X200924886Y-169252534D02*
X200924886Y-170099201D01*
X200924886Y-169373486D02*
X200864409Y-169313010D01*
X200864409Y-169313010D02*
X200743457Y-169252534D01*
X200743457Y-169252534D02*
X200562028Y-169252534D01*
X200562028Y-169252534D02*
X200441076Y-169313010D01*
X200441076Y-169313010D02*
X200380600Y-169433963D01*
X200380600Y-169433963D02*
X200380600Y-170099201D01*
X199050123Y-170099201D02*
X199473457Y-169494439D01*
X199775838Y-170099201D02*
X199775838Y-168829201D01*
X199775838Y-168829201D02*
X199292028Y-168829201D01*
X199292028Y-168829201D02*
X199171076Y-168889677D01*
X199171076Y-168889677D02*
X199110599Y-168950153D01*
X199110599Y-168950153D02*
X199050123Y-169071105D01*
X199050123Y-169071105D02*
X199050123Y-169252534D01*
X199050123Y-169252534D02*
X199110599Y-169373486D01*
X199110599Y-169373486D02*
X199171076Y-169433963D01*
X199171076Y-169433963D02*
X199292028Y-169494439D01*
X199292028Y-169494439D02*
X199775838Y-169494439D01*
X198566314Y-170038725D02*
X198384885Y-170099201D01*
X198384885Y-170099201D02*
X198082504Y-170099201D01*
X198082504Y-170099201D02*
X197961552Y-170038725D01*
X197961552Y-170038725D02*
X197901076Y-169978248D01*
X197901076Y-169978248D02*
X197840599Y-169857296D01*
X197840599Y-169857296D02*
X197840599Y-169736344D01*
X197840599Y-169736344D02*
X197901076Y-169615391D01*
X197901076Y-169615391D02*
X197961552Y-169554915D01*
X197961552Y-169554915D02*
X198082504Y-169494439D01*
X198082504Y-169494439D02*
X198324409Y-169433963D01*
X198324409Y-169433963D02*
X198445361Y-169373486D01*
X198445361Y-169373486D02*
X198505838Y-169313010D01*
X198505838Y-169313010D02*
X198566314Y-169192058D01*
X198566314Y-169192058D02*
X198566314Y-169071105D01*
X198566314Y-169071105D02*
X198505838Y-168950153D01*
X198505838Y-168950153D02*
X198445361Y-168889677D01*
X198445361Y-168889677D02*
X198324409Y-168829201D01*
X198324409Y-168829201D02*
X198022028Y-168829201D01*
X198022028Y-168829201D02*
X197840599Y-168889677D01*
X197477742Y-168829201D02*
X196752028Y-168829201D01*
X197114885Y-170099201D02*
X197114885Y-168829201D01*
X196631076Y-170220153D02*
X195663456Y-170220153D01*
X194695837Y-170099201D02*
X195421552Y-170099201D01*
X195058695Y-170099201D02*
X195058695Y-168829201D01*
X195058695Y-168829201D02*
X195179647Y-169010629D01*
X195179647Y-169010629D02*
X195300599Y-169131582D01*
X195300599Y-169131582D02*
X195421552Y-169192058D01*
X133622142Y-146731201D02*
X134347857Y-146731201D01*
X133985000Y-146731201D02*
X133985000Y-145461201D01*
X133985000Y-145461201D02*
X134105952Y-145642629D01*
X134105952Y-145642629D02*
X134226904Y-145763582D01*
X134226904Y-145763582D02*
X134347857Y-145824058D01*
X121958704Y-173980563D02*
X121777276Y-174041039D01*
X121777276Y-174041039D02*
X121716799Y-174101515D01*
X121716799Y-174101515D02*
X121656323Y-174222467D01*
X121656323Y-174222467D02*
X121656323Y-174403896D01*
X121656323Y-174403896D02*
X121716799Y-174524848D01*
X121716799Y-174524848D02*
X121777276Y-174585325D01*
X121777276Y-174585325D02*
X121898228Y-174645801D01*
X121898228Y-174645801D02*
X122382038Y-174645801D01*
X122382038Y-174645801D02*
X122382038Y-173375801D01*
X122382038Y-173375801D02*
X121958704Y-173375801D01*
X121958704Y-173375801D02*
X121837752Y-173436277D01*
X121837752Y-173436277D02*
X121777276Y-173496753D01*
X121777276Y-173496753D02*
X121716799Y-173617705D01*
X121716799Y-173617705D02*
X121716799Y-173738658D01*
X121716799Y-173738658D02*
X121777276Y-173859610D01*
X121777276Y-173859610D02*
X121837752Y-173920086D01*
X121837752Y-173920086D02*
X121958704Y-173980563D01*
X121958704Y-173980563D02*
X122382038Y-173980563D01*
X120870133Y-173375801D02*
X120628228Y-173375801D01*
X120628228Y-173375801D02*
X120507276Y-173436277D01*
X120507276Y-173436277D02*
X120386323Y-173557229D01*
X120386323Y-173557229D02*
X120325847Y-173799134D01*
X120325847Y-173799134D02*
X120325847Y-174222467D01*
X120325847Y-174222467D02*
X120386323Y-174464372D01*
X120386323Y-174464372D02*
X120507276Y-174585325D01*
X120507276Y-174585325D02*
X120628228Y-174645801D01*
X120628228Y-174645801D02*
X120870133Y-174645801D01*
X120870133Y-174645801D02*
X120991085Y-174585325D01*
X120991085Y-174585325D02*
X121112038Y-174464372D01*
X121112038Y-174464372D02*
X121172514Y-174222467D01*
X121172514Y-174222467D02*
X121172514Y-173799134D01*
X121172514Y-173799134D02*
X121112038Y-173557229D01*
X121112038Y-173557229D02*
X120991085Y-173436277D01*
X120991085Y-173436277D02*
X120870133Y-173375801D01*
X119539657Y-173375801D02*
X119297752Y-173375801D01*
X119297752Y-173375801D02*
X119176800Y-173436277D01*
X119176800Y-173436277D02*
X119055847Y-173557229D01*
X119055847Y-173557229D02*
X118995371Y-173799134D01*
X118995371Y-173799134D02*
X118995371Y-174222467D01*
X118995371Y-174222467D02*
X119055847Y-174464372D01*
X119055847Y-174464372D02*
X119176800Y-174585325D01*
X119176800Y-174585325D02*
X119297752Y-174645801D01*
X119297752Y-174645801D02*
X119539657Y-174645801D01*
X119539657Y-174645801D02*
X119660609Y-174585325D01*
X119660609Y-174585325D02*
X119781562Y-174464372D01*
X119781562Y-174464372D02*
X119842038Y-174222467D01*
X119842038Y-174222467D02*
X119842038Y-173799134D01*
X119842038Y-173799134D02*
X119781562Y-173557229D01*
X119781562Y-173557229D02*
X119660609Y-173436277D01*
X119660609Y-173436277D02*
X119539657Y-173375801D01*
X118632514Y-173375801D02*
X117906800Y-173375801D01*
X118269657Y-174645801D02*
X118269657Y-173375801D01*
X117241562Y-173375801D02*
X117120609Y-173375801D01*
X117120609Y-173375801D02*
X116999657Y-173436277D01*
X116999657Y-173436277D02*
X116939181Y-173496753D01*
X116939181Y-173496753D02*
X116878705Y-173617705D01*
X116878705Y-173617705D02*
X116818228Y-173859610D01*
X116818228Y-173859610D02*
X116818228Y-174161991D01*
X116818228Y-174161991D02*
X116878705Y-174403896D01*
X116878705Y-174403896D02*
X116939181Y-174524848D01*
X116939181Y-174524848D02*
X116999657Y-174585325D01*
X116999657Y-174585325D02*
X117120609Y-174645801D01*
X117120609Y-174645801D02*
X117241562Y-174645801D01*
X117241562Y-174645801D02*
X117362514Y-174585325D01*
X117362514Y-174585325D02*
X117422990Y-174524848D01*
X117422990Y-174524848D02*
X117483467Y-174403896D01*
X117483467Y-174403896D02*
X117543943Y-174161991D01*
X117543943Y-174161991D02*
X117543943Y-173859610D01*
X117543943Y-173859610D02*
X117483467Y-173617705D01*
X117483467Y-173617705D02*
X117422990Y-173496753D01*
X117422990Y-173496753D02*
X117362514Y-173436277D01*
X117362514Y-173436277D02*
X117241562Y-173375801D01*
X116576324Y-174766753D02*
X115608704Y-174766753D01*
X114762038Y-173375801D02*
X115003943Y-173375801D01*
X115003943Y-173375801D02*
X115124895Y-173436277D01*
X115124895Y-173436277D02*
X115185371Y-173496753D01*
X115185371Y-173496753D02*
X115306324Y-173678182D01*
X115306324Y-173678182D02*
X115366800Y-173920086D01*
X115366800Y-173920086D02*
X115366800Y-174403896D01*
X115366800Y-174403896D02*
X115306324Y-174524848D01*
X115306324Y-174524848D02*
X115245847Y-174585325D01*
X115245847Y-174585325D02*
X115124895Y-174645801D01*
X115124895Y-174645801D02*
X114882990Y-174645801D01*
X114882990Y-174645801D02*
X114762038Y-174585325D01*
X114762038Y-174585325D02*
X114701562Y-174524848D01*
X114701562Y-174524848D02*
X114641085Y-174403896D01*
X114641085Y-174403896D02*
X114641085Y-174101515D01*
X114641085Y-174101515D02*
X114701562Y-173980563D01*
X114701562Y-173980563D02*
X114762038Y-173920086D01*
X114762038Y-173920086D02*
X114882990Y-173859610D01*
X114882990Y-173859610D02*
X115124895Y-173859610D01*
X115124895Y-173859610D02*
X115245847Y-173920086D01*
X115245847Y-173920086D02*
X115306324Y-173980563D01*
X115306324Y-173980563D02*
X115366800Y-174101515D01*
X208756551Y-151023801D02*
X208333218Y-152293801D01*
X208333218Y-152293801D02*
X207909884Y-151023801D01*
X207486552Y-152293801D02*
X207486552Y-151023801D01*
X206881790Y-152293801D02*
X206881790Y-151023801D01*
X206881790Y-151023801D02*
X206156075Y-152293801D01*
X206156075Y-152293801D02*
X206156075Y-151023801D01*
X130634618Y-201782677D02*
X130755571Y-201722201D01*
X130755571Y-201722201D02*
X130936999Y-201722201D01*
X130936999Y-201722201D02*
X131118428Y-201782677D01*
X131118428Y-201782677D02*
X131239380Y-201903629D01*
X131239380Y-201903629D02*
X131299857Y-202024582D01*
X131299857Y-202024582D02*
X131360333Y-202266486D01*
X131360333Y-202266486D02*
X131360333Y-202447915D01*
X131360333Y-202447915D02*
X131299857Y-202689820D01*
X131299857Y-202689820D02*
X131239380Y-202810772D01*
X131239380Y-202810772D02*
X131118428Y-202931725D01*
X131118428Y-202931725D02*
X130936999Y-202992201D01*
X130936999Y-202992201D02*
X130816047Y-202992201D01*
X130816047Y-202992201D02*
X130634618Y-202931725D01*
X130634618Y-202931725D02*
X130574142Y-202871248D01*
X130574142Y-202871248D02*
X130574142Y-202447915D01*
X130574142Y-202447915D02*
X130816047Y-202447915D01*
X130029857Y-202992201D02*
X130029857Y-201722201D01*
X130029857Y-201722201D02*
X129304142Y-202992201D01*
X129304142Y-202992201D02*
X129304142Y-201722201D01*
X128699381Y-202992201D02*
X128699381Y-201722201D01*
X128699381Y-201722201D02*
X128397000Y-201722201D01*
X128397000Y-201722201D02*
X128215571Y-201782677D01*
X128215571Y-201782677D02*
X128094619Y-201903629D01*
X128094619Y-201903629D02*
X128034142Y-202024582D01*
X128034142Y-202024582D02*
X127973666Y-202266486D01*
X127973666Y-202266486D02*
X127973666Y-202447915D01*
X127973666Y-202447915D02*
X128034142Y-202689820D01*
X128034142Y-202689820D02*
X128094619Y-202810772D01*
X128094619Y-202810772D02*
X128215571Y-202931725D01*
X128215571Y-202931725D02*
X128397000Y-202992201D01*
X128397000Y-202992201D02*
X128699381Y-202992201D01*
X202008618Y-151084277D02*
X202129571Y-151023801D01*
X202129571Y-151023801D02*
X202310999Y-151023801D01*
X202310999Y-151023801D02*
X202492428Y-151084277D01*
X202492428Y-151084277D02*
X202613380Y-151205229D01*
X202613380Y-151205229D02*
X202673857Y-151326182D01*
X202673857Y-151326182D02*
X202734333Y-151568086D01*
X202734333Y-151568086D02*
X202734333Y-151749515D01*
X202734333Y-151749515D02*
X202673857Y-151991420D01*
X202673857Y-151991420D02*
X202613380Y-152112372D01*
X202613380Y-152112372D02*
X202492428Y-152233325D01*
X202492428Y-152233325D02*
X202310999Y-152293801D01*
X202310999Y-152293801D02*
X202190047Y-152293801D01*
X202190047Y-152293801D02*
X202008618Y-152233325D01*
X202008618Y-152233325D02*
X201948142Y-152172848D01*
X201948142Y-152172848D02*
X201948142Y-151749515D01*
X201948142Y-151749515D02*
X202190047Y-151749515D01*
X201403857Y-152293801D02*
X201403857Y-151023801D01*
X201403857Y-151023801D02*
X200678142Y-152293801D01*
X200678142Y-152293801D02*
X200678142Y-151023801D01*
X200073381Y-152293801D02*
X200073381Y-151023801D01*
X200073381Y-151023801D02*
X199771000Y-151023801D01*
X199771000Y-151023801D02*
X199589571Y-151084277D01*
X199589571Y-151084277D02*
X199468619Y-151205229D01*
X199468619Y-151205229D02*
X199408142Y-151326182D01*
X199408142Y-151326182D02*
X199347666Y-151568086D01*
X199347666Y-151568086D02*
X199347666Y-151749515D01*
X199347666Y-151749515D02*
X199408142Y-151991420D01*
X199408142Y-151991420D02*
X199468619Y-152112372D01*
X199468619Y-152112372D02*
X199589571Y-152233325D01*
X199589571Y-152233325D02*
X199771000Y-152293801D01*
X199771000Y-152293801D02*
X200073381Y-152293801D01*
X152918886Y-169252534D02*
X152918886Y-170099201D01*
X152918886Y-169373486D02*
X152858409Y-169313010D01*
X152858409Y-169313010D02*
X152737457Y-169252534D01*
X152737457Y-169252534D02*
X152556028Y-169252534D01*
X152556028Y-169252534D02*
X152435076Y-169313010D01*
X152435076Y-169313010D02*
X152374600Y-169433963D01*
X152374600Y-169433963D02*
X152374600Y-170099201D01*
X151044123Y-170099201D02*
X151467457Y-169494439D01*
X151769838Y-170099201D02*
X151769838Y-168829201D01*
X151769838Y-168829201D02*
X151286028Y-168829201D01*
X151286028Y-168829201D02*
X151165076Y-168889677D01*
X151165076Y-168889677D02*
X151104599Y-168950153D01*
X151104599Y-168950153D02*
X151044123Y-169071105D01*
X151044123Y-169071105D02*
X151044123Y-169252534D01*
X151044123Y-169252534D02*
X151104599Y-169373486D01*
X151104599Y-169373486D02*
X151165076Y-169433963D01*
X151165076Y-169433963D02*
X151286028Y-169494439D01*
X151286028Y-169494439D02*
X151769838Y-169494439D01*
X150560314Y-170038725D02*
X150378885Y-170099201D01*
X150378885Y-170099201D02*
X150076504Y-170099201D01*
X150076504Y-170099201D02*
X149955552Y-170038725D01*
X149955552Y-170038725D02*
X149895076Y-169978248D01*
X149895076Y-169978248D02*
X149834599Y-169857296D01*
X149834599Y-169857296D02*
X149834599Y-169736344D01*
X149834599Y-169736344D02*
X149895076Y-169615391D01*
X149895076Y-169615391D02*
X149955552Y-169554915D01*
X149955552Y-169554915D02*
X150076504Y-169494439D01*
X150076504Y-169494439D02*
X150318409Y-169433963D01*
X150318409Y-169433963D02*
X150439361Y-169373486D01*
X150439361Y-169373486D02*
X150499838Y-169313010D01*
X150499838Y-169313010D02*
X150560314Y-169192058D01*
X150560314Y-169192058D02*
X150560314Y-169071105D01*
X150560314Y-169071105D02*
X150499838Y-168950153D01*
X150499838Y-168950153D02*
X150439361Y-168889677D01*
X150439361Y-168889677D02*
X150318409Y-168829201D01*
X150318409Y-168829201D02*
X150016028Y-168829201D01*
X150016028Y-168829201D02*
X149834599Y-168889677D01*
X149471742Y-168829201D02*
X148746028Y-168829201D01*
X149108885Y-170099201D02*
X149108885Y-168829201D01*
X148625076Y-170220153D02*
X147657456Y-170220153D01*
X146810790Y-169252534D02*
X146810790Y-170099201D01*
X147113171Y-168768725D02*
X147415552Y-169675867D01*
X147415552Y-169675867D02*
X146629361Y-169675867D01*
D12*
X163437143Y-201465364D02*
X162886810Y-203116364D01*
X162886810Y-203116364D02*
X162336477Y-201465364D01*
X161786143Y-203116364D02*
X161786143Y-201465364D01*
X160999953Y-203116364D02*
X160999953Y-201465364D01*
X160999953Y-201465364D02*
X160056525Y-203116364D01*
X160056525Y-203116364D02*
X160056525Y-201465364D01*
D10*
X212894332Y-143784801D02*
X212470999Y-145054801D01*
X212470999Y-145054801D02*
X212047665Y-143784801D01*
X211624333Y-145054801D02*
X211624333Y-143784801D01*
X211624333Y-143784801D02*
X211321952Y-143784801D01*
X211321952Y-143784801D02*
X211140523Y-143845277D01*
X211140523Y-143845277D02*
X211019571Y-143966229D01*
X211019571Y-143966229D02*
X210959094Y-144087182D01*
X210959094Y-144087182D02*
X210898618Y-144329086D01*
X210898618Y-144329086D02*
X210898618Y-144510515D01*
X210898618Y-144510515D02*
X210959094Y-144752420D01*
X210959094Y-144752420D02*
X211019571Y-144873372D01*
X211019571Y-144873372D02*
X211140523Y-144994325D01*
X211140523Y-144994325D02*
X211321952Y-145054801D01*
X211321952Y-145054801D02*
X211624333Y-145054801D01*
X210354333Y-145054801D02*
X210354333Y-143784801D01*
X210354333Y-143784801D02*
X210051952Y-143784801D01*
X210051952Y-143784801D02*
X209870523Y-143845277D01*
X209870523Y-143845277D02*
X209749571Y-143966229D01*
X209749571Y-143966229D02*
X209689094Y-144087182D01*
X209689094Y-144087182D02*
X209628618Y-144329086D01*
X209628618Y-144329086D02*
X209628618Y-144510515D01*
X209628618Y-144510515D02*
X209689094Y-144752420D01*
X209689094Y-144752420D02*
X209749571Y-144873372D01*
X209749571Y-144873372D02*
X209870523Y-144994325D01*
X209870523Y-144994325D02*
X210051952Y-145054801D01*
X210051952Y-145054801D02*
X210354333Y-145054801D01*
X123522619Y-145461201D02*
X124127381Y-145461201D01*
X124127381Y-145461201D02*
X124187857Y-146065963D01*
X124187857Y-146065963D02*
X124127381Y-146005486D01*
X124127381Y-146005486D02*
X124006428Y-145945010D01*
X124006428Y-145945010D02*
X123704047Y-145945010D01*
X123704047Y-145945010D02*
X123583095Y-146005486D01*
X123583095Y-146005486D02*
X123522619Y-146065963D01*
X123522619Y-146065963D02*
X123462142Y-146186915D01*
X123462142Y-146186915D02*
X123462142Y-146489296D01*
X123462142Y-146489296D02*
X123522619Y-146610248D01*
X123522619Y-146610248D02*
X123583095Y-146670725D01*
X123583095Y-146670725D02*
X123704047Y-146731201D01*
X123704047Y-146731201D02*
X124006428Y-146731201D01*
X124006428Y-146731201D02*
X124127381Y-146670725D01*
X124127381Y-146670725D02*
X124187857Y-146610248D01*
X136916886Y-169252534D02*
X136916886Y-170099201D01*
X136916886Y-169373486D02*
X136856409Y-169313010D01*
X136856409Y-169313010D02*
X136735457Y-169252534D01*
X136735457Y-169252534D02*
X136554028Y-169252534D01*
X136554028Y-169252534D02*
X136433076Y-169313010D01*
X136433076Y-169313010D02*
X136372600Y-169433963D01*
X136372600Y-169433963D02*
X136372600Y-170099201D01*
X135042123Y-170099201D02*
X135465457Y-169494439D01*
X135767838Y-170099201D02*
X135767838Y-168829201D01*
X135767838Y-168829201D02*
X135284028Y-168829201D01*
X135284028Y-168829201D02*
X135163076Y-168889677D01*
X135163076Y-168889677D02*
X135102599Y-168950153D01*
X135102599Y-168950153D02*
X135042123Y-169071105D01*
X135042123Y-169071105D02*
X135042123Y-169252534D01*
X135042123Y-169252534D02*
X135102599Y-169373486D01*
X135102599Y-169373486D02*
X135163076Y-169433963D01*
X135163076Y-169433963D02*
X135284028Y-169494439D01*
X135284028Y-169494439D02*
X135767838Y-169494439D01*
X134558314Y-170038725D02*
X134376885Y-170099201D01*
X134376885Y-170099201D02*
X134074504Y-170099201D01*
X134074504Y-170099201D02*
X133953552Y-170038725D01*
X133953552Y-170038725D02*
X133893076Y-169978248D01*
X133893076Y-169978248D02*
X133832599Y-169857296D01*
X133832599Y-169857296D02*
X133832599Y-169736344D01*
X133832599Y-169736344D02*
X133893076Y-169615391D01*
X133893076Y-169615391D02*
X133953552Y-169554915D01*
X133953552Y-169554915D02*
X134074504Y-169494439D01*
X134074504Y-169494439D02*
X134316409Y-169433963D01*
X134316409Y-169433963D02*
X134437361Y-169373486D01*
X134437361Y-169373486D02*
X134497838Y-169313010D01*
X134497838Y-169313010D02*
X134558314Y-169192058D01*
X134558314Y-169192058D02*
X134558314Y-169071105D01*
X134558314Y-169071105D02*
X134497838Y-168950153D01*
X134497838Y-168950153D02*
X134437361Y-168889677D01*
X134437361Y-168889677D02*
X134316409Y-168829201D01*
X134316409Y-168829201D02*
X134014028Y-168829201D01*
X134014028Y-168829201D02*
X133832599Y-168889677D01*
X133469742Y-168829201D02*
X132744028Y-168829201D01*
X133106885Y-170099201D02*
X133106885Y-168829201D01*
X132623076Y-170220153D02*
X131655456Y-170220153D01*
X130748314Y-168829201D02*
X131353076Y-168829201D01*
X131353076Y-168829201D02*
X131413552Y-169433963D01*
X131413552Y-169433963D02*
X131353076Y-169373486D01*
X131353076Y-169373486D02*
X131232123Y-169313010D01*
X131232123Y-169313010D02*
X130929742Y-169313010D01*
X130929742Y-169313010D02*
X130808790Y-169373486D01*
X130808790Y-169373486D02*
X130748314Y-169433963D01*
X130748314Y-169433963D02*
X130687837Y-169554915D01*
X130687837Y-169554915D02*
X130687837Y-169857296D01*
X130687837Y-169857296D02*
X130748314Y-169978248D01*
X130748314Y-169978248D02*
X130808790Y-170038725D01*
X130808790Y-170038725D02*
X130929742Y-170099201D01*
X130929742Y-170099201D02*
X131232123Y-170099201D01*
X131232123Y-170099201D02*
X131353076Y-170038725D01*
X131353076Y-170038725D02*
X131413552Y-169978248D01*
X216926886Y-169252534D02*
X216926886Y-170099201D01*
X216926886Y-169373486D02*
X216866409Y-169313010D01*
X216866409Y-169313010D02*
X216745457Y-169252534D01*
X216745457Y-169252534D02*
X216564028Y-169252534D01*
X216564028Y-169252534D02*
X216443076Y-169313010D01*
X216443076Y-169313010D02*
X216382600Y-169433963D01*
X216382600Y-169433963D02*
X216382600Y-170099201D01*
X215052123Y-170099201D02*
X215475457Y-169494439D01*
X215777838Y-170099201D02*
X215777838Y-168829201D01*
X215777838Y-168829201D02*
X215294028Y-168829201D01*
X215294028Y-168829201D02*
X215173076Y-168889677D01*
X215173076Y-168889677D02*
X215112599Y-168950153D01*
X215112599Y-168950153D02*
X215052123Y-169071105D01*
X215052123Y-169071105D02*
X215052123Y-169252534D01*
X215052123Y-169252534D02*
X215112599Y-169373486D01*
X215112599Y-169373486D02*
X215173076Y-169433963D01*
X215173076Y-169433963D02*
X215294028Y-169494439D01*
X215294028Y-169494439D02*
X215777838Y-169494439D01*
X214568314Y-170038725D02*
X214386885Y-170099201D01*
X214386885Y-170099201D02*
X214084504Y-170099201D01*
X214084504Y-170099201D02*
X213963552Y-170038725D01*
X213963552Y-170038725D02*
X213903076Y-169978248D01*
X213903076Y-169978248D02*
X213842599Y-169857296D01*
X213842599Y-169857296D02*
X213842599Y-169736344D01*
X213842599Y-169736344D02*
X213903076Y-169615391D01*
X213903076Y-169615391D02*
X213963552Y-169554915D01*
X213963552Y-169554915D02*
X214084504Y-169494439D01*
X214084504Y-169494439D02*
X214326409Y-169433963D01*
X214326409Y-169433963D02*
X214447361Y-169373486D01*
X214447361Y-169373486D02*
X214507838Y-169313010D01*
X214507838Y-169313010D02*
X214568314Y-169192058D01*
X214568314Y-169192058D02*
X214568314Y-169071105D01*
X214568314Y-169071105D02*
X214507838Y-168950153D01*
X214507838Y-168950153D02*
X214447361Y-168889677D01*
X214447361Y-168889677D02*
X214326409Y-168829201D01*
X214326409Y-168829201D02*
X214024028Y-168829201D01*
X214024028Y-168829201D02*
X213842599Y-168889677D01*
X213479742Y-168829201D02*
X212754028Y-168829201D01*
X213116885Y-170099201D02*
X213116885Y-168829201D01*
X212633076Y-170220153D02*
X211665456Y-170220153D01*
X211121171Y-168829201D02*
X211000218Y-168829201D01*
X211000218Y-168829201D02*
X210879266Y-168889677D01*
X210879266Y-168889677D02*
X210818790Y-168950153D01*
X210818790Y-168950153D02*
X210758314Y-169071105D01*
X210758314Y-169071105D02*
X210697837Y-169313010D01*
X210697837Y-169313010D02*
X210697837Y-169615391D01*
X210697837Y-169615391D02*
X210758314Y-169857296D01*
X210758314Y-169857296D02*
X210818790Y-169978248D01*
X210818790Y-169978248D02*
X210879266Y-170038725D01*
X210879266Y-170038725D02*
X211000218Y-170099201D01*
X211000218Y-170099201D02*
X211121171Y-170099201D01*
X211121171Y-170099201D02*
X211242123Y-170038725D01*
X211242123Y-170038725D02*
X211302599Y-169978248D01*
X211302599Y-169978248D02*
X211363076Y-169857296D01*
X211363076Y-169857296D02*
X211423552Y-169615391D01*
X211423552Y-169615391D02*
X211423552Y-169313010D01*
X211423552Y-169313010D02*
X211363076Y-169071105D01*
X211363076Y-169071105D02*
X211302599Y-168950153D01*
X211302599Y-168950153D02*
X211242123Y-168889677D01*
X211242123Y-168889677D02*
X211121171Y-168829201D01*
X131057951Y-203500201D02*
X130634618Y-204770201D01*
X130634618Y-204770201D02*
X130211284Y-203500201D01*
X129787952Y-204770201D02*
X129787952Y-203500201D01*
X129183190Y-204770201D02*
X129183190Y-203500201D01*
X129183190Y-203500201D02*
X128457475Y-204770201D01*
X128457475Y-204770201D02*
X128457475Y-203500201D01*
X197757142Y-151023801D02*
X197031428Y-151023801D01*
X197394285Y-152293801D02*
X197394285Y-151023801D01*
X196729047Y-151023801D02*
X195882380Y-152293801D01*
X195882380Y-151023801D02*
X196729047Y-152293801D01*
X194733332Y-152293801D02*
X195459047Y-152293801D01*
X195096190Y-152293801D02*
X195096190Y-151023801D01*
X195096190Y-151023801D02*
X195217142Y-151205229D01*
X195217142Y-151205229D02*
X195338094Y-151326182D01*
X195338094Y-151326182D02*
X195459047Y-151386658D01*
X193281904Y-150963325D02*
X194370475Y-152596182D01*
X192132856Y-152293801D02*
X192556190Y-151689039D01*
X192858571Y-152293801D02*
X192858571Y-151023801D01*
X192858571Y-151023801D02*
X192374761Y-151023801D01*
X192374761Y-151023801D02*
X192253809Y-151084277D01*
X192253809Y-151084277D02*
X192193332Y-151144753D01*
X192193332Y-151144753D02*
X192132856Y-151265705D01*
X192132856Y-151265705D02*
X192132856Y-151447134D01*
X192132856Y-151447134D02*
X192193332Y-151568086D01*
X192193332Y-151568086D02*
X192253809Y-151628563D01*
X192253809Y-151628563D02*
X192374761Y-151689039D01*
X192374761Y-151689039D02*
X192858571Y-151689039D01*
X191709523Y-151023801D02*
X190862856Y-152293801D01*
X190862856Y-151023801D02*
X191709523Y-152293801D01*
X190439523Y-151144753D02*
X190379047Y-151084277D01*
X190379047Y-151084277D02*
X190258094Y-151023801D01*
X190258094Y-151023801D02*
X189955713Y-151023801D01*
X189955713Y-151023801D02*
X189834761Y-151084277D01*
X189834761Y-151084277D02*
X189774285Y-151144753D01*
X189774285Y-151144753D02*
X189713808Y-151265705D01*
X189713808Y-151265705D02*
X189713808Y-151386658D01*
X189713808Y-151386658D02*
X189774285Y-151568086D01*
X189774285Y-151568086D02*
X190499999Y-152293801D01*
X190499999Y-152293801D02*
X189713808Y-152293801D01*
X137960704Y-173980563D02*
X137779276Y-174041039D01*
X137779276Y-174041039D02*
X137718799Y-174101515D01*
X137718799Y-174101515D02*
X137658323Y-174222467D01*
X137658323Y-174222467D02*
X137658323Y-174403896D01*
X137658323Y-174403896D02*
X137718799Y-174524848D01*
X137718799Y-174524848D02*
X137779276Y-174585325D01*
X137779276Y-174585325D02*
X137900228Y-174645801D01*
X137900228Y-174645801D02*
X138384038Y-174645801D01*
X138384038Y-174645801D02*
X138384038Y-173375801D01*
X138384038Y-173375801D02*
X137960704Y-173375801D01*
X137960704Y-173375801D02*
X137839752Y-173436277D01*
X137839752Y-173436277D02*
X137779276Y-173496753D01*
X137779276Y-173496753D02*
X137718799Y-173617705D01*
X137718799Y-173617705D02*
X137718799Y-173738658D01*
X137718799Y-173738658D02*
X137779276Y-173859610D01*
X137779276Y-173859610D02*
X137839752Y-173920086D01*
X137839752Y-173920086D02*
X137960704Y-173980563D01*
X137960704Y-173980563D02*
X138384038Y-173980563D01*
X136872133Y-173375801D02*
X136630228Y-173375801D01*
X136630228Y-173375801D02*
X136509276Y-173436277D01*
X136509276Y-173436277D02*
X136388323Y-173557229D01*
X136388323Y-173557229D02*
X136327847Y-173799134D01*
X136327847Y-173799134D02*
X136327847Y-174222467D01*
X136327847Y-174222467D02*
X136388323Y-174464372D01*
X136388323Y-174464372D02*
X136509276Y-174585325D01*
X136509276Y-174585325D02*
X136630228Y-174645801D01*
X136630228Y-174645801D02*
X136872133Y-174645801D01*
X136872133Y-174645801D02*
X136993085Y-174585325D01*
X136993085Y-174585325D02*
X137114038Y-174464372D01*
X137114038Y-174464372D02*
X137174514Y-174222467D01*
X137174514Y-174222467D02*
X137174514Y-173799134D01*
X137174514Y-173799134D02*
X137114038Y-173557229D01*
X137114038Y-173557229D02*
X136993085Y-173436277D01*
X136993085Y-173436277D02*
X136872133Y-173375801D01*
X135541657Y-173375801D02*
X135299752Y-173375801D01*
X135299752Y-173375801D02*
X135178800Y-173436277D01*
X135178800Y-173436277D02*
X135057847Y-173557229D01*
X135057847Y-173557229D02*
X134997371Y-173799134D01*
X134997371Y-173799134D02*
X134997371Y-174222467D01*
X134997371Y-174222467D02*
X135057847Y-174464372D01*
X135057847Y-174464372D02*
X135178800Y-174585325D01*
X135178800Y-174585325D02*
X135299752Y-174645801D01*
X135299752Y-174645801D02*
X135541657Y-174645801D01*
X135541657Y-174645801D02*
X135662609Y-174585325D01*
X135662609Y-174585325D02*
X135783562Y-174464372D01*
X135783562Y-174464372D02*
X135844038Y-174222467D01*
X135844038Y-174222467D02*
X135844038Y-173799134D01*
X135844038Y-173799134D02*
X135783562Y-173557229D01*
X135783562Y-173557229D02*
X135662609Y-173436277D01*
X135662609Y-173436277D02*
X135541657Y-173375801D01*
X134634514Y-173375801D02*
X133908800Y-173375801D01*
X134271657Y-174645801D02*
X134271657Y-173375801D01*
X133243562Y-173375801D02*
X133122609Y-173375801D01*
X133122609Y-173375801D02*
X133001657Y-173436277D01*
X133001657Y-173436277D02*
X132941181Y-173496753D01*
X132941181Y-173496753D02*
X132880705Y-173617705D01*
X132880705Y-173617705D02*
X132820228Y-173859610D01*
X132820228Y-173859610D02*
X132820228Y-174161991D01*
X132820228Y-174161991D02*
X132880705Y-174403896D01*
X132880705Y-174403896D02*
X132941181Y-174524848D01*
X132941181Y-174524848D02*
X133001657Y-174585325D01*
X133001657Y-174585325D02*
X133122609Y-174645801D01*
X133122609Y-174645801D02*
X133243562Y-174645801D01*
X133243562Y-174645801D02*
X133364514Y-174585325D01*
X133364514Y-174585325D02*
X133424990Y-174524848D01*
X133424990Y-174524848D02*
X133485467Y-174403896D01*
X133485467Y-174403896D02*
X133545943Y-174161991D01*
X133545943Y-174161991D02*
X133545943Y-173859610D01*
X133545943Y-173859610D02*
X133485467Y-173617705D01*
X133485467Y-173617705D02*
X133424990Y-173496753D01*
X133424990Y-173496753D02*
X133364514Y-173436277D01*
X133364514Y-173436277D02*
X133243562Y-173375801D01*
X132578324Y-174766753D02*
X131610704Y-174766753D01*
X130703562Y-173375801D02*
X131308324Y-173375801D01*
X131308324Y-173375801D02*
X131368800Y-173980563D01*
X131368800Y-173980563D02*
X131308324Y-173920086D01*
X131308324Y-173920086D02*
X131187371Y-173859610D01*
X131187371Y-173859610D02*
X130884990Y-173859610D01*
X130884990Y-173859610D02*
X130764038Y-173920086D01*
X130764038Y-173920086D02*
X130703562Y-173980563D01*
X130703562Y-173980563D02*
X130643085Y-174101515D01*
X130643085Y-174101515D02*
X130643085Y-174403896D01*
X130643085Y-174403896D02*
X130703562Y-174524848D01*
X130703562Y-174524848D02*
X130764038Y-174585325D01*
X130764038Y-174585325D02*
X130884990Y-174645801D01*
X130884990Y-174645801D02*
X131187371Y-174645801D01*
X131187371Y-174645801D02*
X131308324Y-174585325D01*
X131308324Y-174585325D02*
X131368800Y-174524848D01*
X196420618Y-201782677D02*
X196541571Y-201722201D01*
X196541571Y-201722201D02*
X196722999Y-201722201D01*
X196722999Y-201722201D02*
X196904428Y-201782677D01*
X196904428Y-201782677D02*
X197025380Y-201903629D01*
X197025380Y-201903629D02*
X197085857Y-202024582D01*
X197085857Y-202024582D02*
X197146333Y-202266486D01*
X197146333Y-202266486D02*
X197146333Y-202447915D01*
X197146333Y-202447915D02*
X197085857Y-202689820D01*
X197085857Y-202689820D02*
X197025380Y-202810772D01*
X197025380Y-202810772D02*
X196904428Y-202931725D01*
X196904428Y-202931725D02*
X196722999Y-202992201D01*
X196722999Y-202992201D02*
X196602047Y-202992201D01*
X196602047Y-202992201D02*
X196420618Y-202931725D01*
X196420618Y-202931725D02*
X196360142Y-202871248D01*
X196360142Y-202871248D02*
X196360142Y-202447915D01*
X196360142Y-202447915D02*
X196602047Y-202447915D01*
X195815857Y-202992201D02*
X195815857Y-201722201D01*
X195815857Y-201722201D02*
X195090142Y-202992201D01*
X195090142Y-202992201D02*
X195090142Y-201722201D01*
X194485381Y-202992201D02*
X194485381Y-201722201D01*
X194485381Y-201722201D02*
X194183000Y-201722201D01*
X194183000Y-201722201D02*
X194001571Y-201782677D01*
X194001571Y-201782677D02*
X193880619Y-201903629D01*
X193880619Y-201903629D02*
X193820142Y-202024582D01*
X193820142Y-202024582D02*
X193759666Y-202266486D01*
X193759666Y-202266486D02*
X193759666Y-202447915D01*
X193759666Y-202447915D02*
X193820142Y-202689820D01*
X193820142Y-202689820D02*
X193880619Y-202810772D01*
X193880619Y-202810772D02*
X194001571Y-202931725D01*
X194001571Y-202931725D02*
X194183000Y-202992201D01*
X194183000Y-202992201D02*
X194485381Y-202992201D01*
X113101601Y-144086815D02*
X114371601Y-144510148D01*
X114371601Y-144510148D02*
X113101601Y-144933482D01*
X114371601Y-145356814D02*
X113101601Y-145356814D01*
X114371601Y-145961576D02*
X113101601Y-145961576D01*
X113101601Y-145961576D02*
X114371601Y-146687291D01*
X114371601Y-146687291D02*
X113101601Y-146687291D01*
X214406477Y-151762581D02*
X214346001Y-151641628D01*
X214346001Y-151641628D02*
X214346001Y-151460200D01*
X214346001Y-151460200D02*
X214406477Y-151278771D01*
X214406477Y-151278771D02*
X214527429Y-151157819D01*
X214527429Y-151157819D02*
X214648382Y-151097342D01*
X214648382Y-151097342D02*
X214890286Y-151036866D01*
X214890286Y-151036866D02*
X215071715Y-151036866D01*
X215071715Y-151036866D02*
X215313620Y-151097342D01*
X215313620Y-151097342D02*
X215434572Y-151157819D01*
X215434572Y-151157819D02*
X215555525Y-151278771D01*
X215555525Y-151278771D02*
X215616001Y-151460200D01*
X215616001Y-151460200D02*
X215616001Y-151581152D01*
X215616001Y-151581152D02*
X215555525Y-151762581D01*
X215555525Y-151762581D02*
X215495048Y-151823057D01*
X215495048Y-151823057D02*
X215071715Y-151823057D01*
X215071715Y-151823057D02*
X215071715Y-151581152D01*
X215616001Y-152367342D02*
X214346001Y-152367342D01*
X214346001Y-152367342D02*
X215616001Y-153093057D01*
X215616001Y-153093057D02*
X214346001Y-153093057D01*
X215616001Y-153697818D02*
X214346001Y-153697818D01*
X214346001Y-153697818D02*
X214346001Y-154000199D01*
X214346001Y-154000199D02*
X214406477Y-154181628D01*
X214406477Y-154181628D02*
X214527429Y-154302580D01*
X214527429Y-154302580D02*
X214648382Y-154363057D01*
X214648382Y-154363057D02*
X214890286Y-154423533D01*
X214890286Y-154423533D02*
X215071715Y-154423533D01*
X215071715Y-154423533D02*
X215313620Y-154363057D01*
X215313620Y-154363057D02*
X215434572Y-154302580D01*
X215434572Y-154302580D02*
X215555525Y-154181628D01*
X215555525Y-154181628D02*
X215616001Y-154000199D01*
X215616001Y-154000199D02*
X215616001Y-153697818D01*
X136585476Y-145461201D02*
X136464523Y-145461201D01*
X136464523Y-145461201D02*
X136343571Y-145521677D01*
X136343571Y-145521677D02*
X136283095Y-145582153D01*
X136283095Y-145582153D02*
X136222619Y-145703105D01*
X136222619Y-145703105D02*
X136162142Y-145945010D01*
X136162142Y-145945010D02*
X136162142Y-146247391D01*
X136162142Y-146247391D02*
X136222619Y-146489296D01*
X136222619Y-146489296D02*
X136283095Y-146610248D01*
X136283095Y-146610248D02*
X136343571Y-146670725D01*
X136343571Y-146670725D02*
X136464523Y-146731201D01*
X136464523Y-146731201D02*
X136585476Y-146731201D01*
X136585476Y-146731201D02*
X136706428Y-146670725D01*
X136706428Y-146670725D02*
X136766904Y-146610248D01*
X136766904Y-146610248D02*
X136827381Y-146489296D01*
X136827381Y-146489296D02*
X136887857Y-146247391D01*
X136887857Y-146247391D02*
X136887857Y-145945010D01*
X136887857Y-145945010D02*
X136827381Y-145703105D01*
X136827381Y-145703105D02*
X136766904Y-145582153D01*
X136766904Y-145582153D02*
X136706428Y-145521677D01*
X136706428Y-145521677D02*
X136585476Y-145461201D01*
X216997641Y-139544007D02*
X216997641Y-138147007D01*
X216997641Y-138147007D02*
X216665022Y-138147007D01*
X216665022Y-138147007D02*
X216465451Y-138213531D01*
X216465451Y-138213531D02*
X216332403Y-138346579D01*
X216332403Y-138346579D02*
X216265880Y-138479626D01*
X216265880Y-138479626D02*
X216199356Y-138745722D01*
X216199356Y-138745722D02*
X216199356Y-138945293D01*
X216199356Y-138945293D02*
X216265880Y-139211388D01*
X216265880Y-139211388D02*
X216332403Y-139344436D01*
X216332403Y-139344436D02*
X216465451Y-139477484D01*
X216465451Y-139477484D02*
X216665022Y-139544007D01*
X216665022Y-139544007D02*
X216997641Y-139544007D01*
X215600641Y-138812245D02*
X215134975Y-138812245D01*
X214935403Y-139544007D02*
X215600641Y-139544007D01*
X215600641Y-139544007D02*
X215600641Y-138147007D01*
X215600641Y-138147007D02*
X214935403Y-138147007D01*
X213538404Y-139410960D02*
X213604928Y-139477484D01*
X213604928Y-139477484D02*
X213804499Y-139544007D01*
X213804499Y-139544007D02*
X213937547Y-139544007D01*
X213937547Y-139544007D02*
X214137118Y-139477484D01*
X214137118Y-139477484D02*
X214270166Y-139344436D01*
X214270166Y-139344436D02*
X214336689Y-139211388D01*
X214336689Y-139211388D02*
X214403213Y-138945293D01*
X214403213Y-138945293D02*
X214403213Y-138745722D01*
X214403213Y-138745722D02*
X214336689Y-138479626D01*
X214336689Y-138479626D02*
X214270166Y-138346579D01*
X214270166Y-138346579D02*
X214137118Y-138213531D01*
X214137118Y-138213531D02*
X213937547Y-138147007D01*
X213937547Y-138147007D02*
X213804499Y-138147007D01*
X213804499Y-138147007D02*
X213604928Y-138213531D01*
X213604928Y-138213531D02*
X213538404Y-138280055D01*
X211409642Y-138812245D02*
X211210070Y-138878769D01*
X211210070Y-138878769D02*
X211143547Y-138945293D01*
X211143547Y-138945293D02*
X211077023Y-139078341D01*
X211077023Y-139078341D02*
X211077023Y-139277912D01*
X211077023Y-139277912D02*
X211143547Y-139410960D01*
X211143547Y-139410960D02*
X211210070Y-139477484D01*
X211210070Y-139477484D02*
X211343118Y-139544007D01*
X211343118Y-139544007D02*
X211875308Y-139544007D01*
X211875308Y-139544007D02*
X211875308Y-138147007D01*
X211875308Y-138147007D02*
X211409642Y-138147007D01*
X211409642Y-138147007D02*
X211276594Y-138213531D01*
X211276594Y-138213531D02*
X211210070Y-138280055D01*
X211210070Y-138280055D02*
X211143547Y-138413103D01*
X211143547Y-138413103D02*
X211143547Y-138546150D01*
X211143547Y-138546150D02*
X211210070Y-138679198D01*
X211210070Y-138679198D02*
X211276594Y-138745722D01*
X211276594Y-138745722D02*
X211409642Y-138812245D01*
X211409642Y-138812245D02*
X211875308Y-138812245D01*
X209879594Y-139544007D02*
X209879594Y-138812245D01*
X209879594Y-138812245D02*
X209946118Y-138679198D01*
X209946118Y-138679198D02*
X210079166Y-138612674D01*
X210079166Y-138612674D02*
X210345261Y-138612674D01*
X210345261Y-138612674D02*
X210478308Y-138679198D01*
X209879594Y-139477484D02*
X210012642Y-139544007D01*
X210012642Y-139544007D02*
X210345261Y-139544007D01*
X210345261Y-139544007D02*
X210478308Y-139477484D01*
X210478308Y-139477484D02*
X210544832Y-139344436D01*
X210544832Y-139344436D02*
X210544832Y-139211388D01*
X210544832Y-139211388D02*
X210478308Y-139078341D01*
X210478308Y-139078341D02*
X210345261Y-139011817D01*
X210345261Y-139011817D02*
X210012642Y-139011817D01*
X210012642Y-139011817D02*
X209879594Y-138945293D01*
X208615642Y-139477484D02*
X208748690Y-139544007D01*
X208748690Y-139544007D02*
X209014785Y-139544007D01*
X209014785Y-139544007D02*
X209147833Y-139477484D01*
X209147833Y-139477484D02*
X209214356Y-139410960D01*
X209214356Y-139410960D02*
X209280880Y-139277912D01*
X209280880Y-139277912D02*
X209280880Y-138878769D01*
X209280880Y-138878769D02*
X209214356Y-138745722D01*
X209214356Y-138745722D02*
X209147833Y-138679198D01*
X209147833Y-138679198D02*
X209014785Y-138612674D01*
X209014785Y-138612674D02*
X208748690Y-138612674D01*
X208748690Y-138612674D02*
X208615642Y-138679198D01*
X208016927Y-139544007D02*
X208016927Y-138147007D01*
X207883880Y-139011817D02*
X207484737Y-139544007D01*
X207484737Y-138612674D02*
X208016927Y-139144864D01*
X206886022Y-138612674D02*
X206886022Y-140009674D01*
X206886022Y-138679198D02*
X206752975Y-138612674D01*
X206752975Y-138612674D02*
X206486880Y-138612674D01*
X206486880Y-138612674D02*
X206353832Y-138679198D01*
X206353832Y-138679198D02*
X206287308Y-138745722D01*
X206287308Y-138745722D02*
X206220784Y-138878769D01*
X206220784Y-138878769D02*
X206220784Y-139277912D01*
X206220784Y-139277912D02*
X206287308Y-139410960D01*
X206287308Y-139410960D02*
X206353832Y-139477484D01*
X206353832Y-139477484D02*
X206486880Y-139544007D01*
X206486880Y-139544007D02*
X206752975Y-139544007D01*
X206752975Y-139544007D02*
X206886022Y-139477484D01*
X205422499Y-139544007D02*
X205555547Y-139477484D01*
X205555547Y-139477484D02*
X205622070Y-139344436D01*
X205622070Y-139344436D02*
X205622070Y-138147007D01*
X204291594Y-139544007D02*
X204291594Y-138812245D01*
X204291594Y-138812245D02*
X204358118Y-138679198D01*
X204358118Y-138679198D02*
X204491166Y-138612674D01*
X204491166Y-138612674D02*
X204757261Y-138612674D01*
X204757261Y-138612674D02*
X204890308Y-138679198D01*
X204291594Y-139477484D02*
X204424642Y-139544007D01*
X204424642Y-139544007D02*
X204757261Y-139544007D01*
X204757261Y-139544007D02*
X204890308Y-139477484D01*
X204890308Y-139477484D02*
X204956832Y-139344436D01*
X204956832Y-139344436D02*
X204956832Y-139211388D01*
X204956832Y-139211388D02*
X204890308Y-139078341D01*
X204890308Y-139078341D02*
X204757261Y-139011817D01*
X204757261Y-139011817D02*
X204424642Y-139011817D01*
X204424642Y-139011817D02*
X204291594Y-138945293D01*
X203626356Y-138612674D02*
X203626356Y-139544007D01*
X203626356Y-138745722D02*
X203559833Y-138679198D01*
X203559833Y-138679198D02*
X203426785Y-138612674D01*
X203426785Y-138612674D02*
X203227214Y-138612674D01*
X203227214Y-138612674D02*
X203094166Y-138679198D01*
X203094166Y-138679198D02*
X203027642Y-138812245D01*
X203027642Y-138812245D02*
X203027642Y-139544007D01*
X201830214Y-139477484D02*
X201963262Y-139544007D01*
X201963262Y-139544007D02*
X202229357Y-139544007D01*
X202229357Y-139544007D02*
X202362404Y-139477484D01*
X202362404Y-139477484D02*
X202428928Y-139344436D01*
X202428928Y-139344436D02*
X202428928Y-138812245D01*
X202428928Y-138812245D02*
X202362404Y-138679198D01*
X202362404Y-138679198D02*
X202229357Y-138612674D01*
X202229357Y-138612674D02*
X201963262Y-138612674D01*
X201963262Y-138612674D02*
X201830214Y-138679198D01*
X201830214Y-138679198D02*
X201763690Y-138812245D01*
X201763690Y-138812245D02*
X201763690Y-138945293D01*
X201763690Y-138945293D02*
X202428928Y-139078341D01*
X200300166Y-138147007D02*
X199501880Y-138147007D01*
X199901023Y-139544007D02*
X199901023Y-138147007D01*
X199036213Y-139544007D02*
X199036213Y-138612674D01*
X199036213Y-138878769D02*
X198969690Y-138745722D01*
X198969690Y-138745722D02*
X198903166Y-138679198D01*
X198903166Y-138679198D02*
X198770118Y-138612674D01*
X198770118Y-138612674D02*
X198637071Y-138612674D01*
X197572689Y-139544007D02*
X197572689Y-138812245D01*
X197572689Y-138812245D02*
X197639213Y-138679198D01*
X197639213Y-138679198D02*
X197772261Y-138612674D01*
X197772261Y-138612674D02*
X198038356Y-138612674D01*
X198038356Y-138612674D02*
X198171403Y-138679198D01*
X197572689Y-139477484D02*
X197705737Y-139544007D01*
X197705737Y-139544007D02*
X198038356Y-139544007D01*
X198038356Y-139544007D02*
X198171403Y-139477484D01*
X198171403Y-139477484D02*
X198237927Y-139344436D01*
X198237927Y-139344436D02*
X198237927Y-139211388D01*
X198237927Y-139211388D02*
X198171403Y-139078341D01*
X198171403Y-139078341D02*
X198038356Y-139011817D01*
X198038356Y-139011817D02*
X197705737Y-139011817D01*
X197705737Y-139011817D02*
X197572689Y-138945293D01*
X196308737Y-139477484D02*
X196441785Y-139544007D01*
X196441785Y-139544007D02*
X196707880Y-139544007D01*
X196707880Y-139544007D02*
X196840928Y-139477484D01*
X196840928Y-139477484D02*
X196907451Y-139410960D01*
X196907451Y-139410960D02*
X196973975Y-139277912D01*
X196973975Y-139277912D02*
X196973975Y-138878769D01*
X196973975Y-138878769D02*
X196907451Y-138745722D01*
X196907451Y-138745722D02*
X196840928Y-138679198D01*
X196840928Y-138679198D02*
X196707880Y-138612674D01*
X196707880Y-138612674D02*
X196441785Y-138612674D01*
X196441785Y-138612674D02*
X196308737Y-138679198D01*
X195710022Y-139544007D02*
X195710022Y-138612674D01*
X195710022Y-138147007D02*
X195776546Y-138213531D01*
X195776546Y-138213531D02*
X195710022Y-138280055D01*
X195710022Y-138280055D02*
X195643499Y-138213531D01*
X195643499Y-138213531D02*
X195710022Y-138147007D01*
X195710022Y-138147007D02*
X195710022Y-138280055D01*
X195044784Y-138612674D02*
X195044784Y-139544007D01*
X195044784Y-138745722D02*
X194978261Y-138679198D01*
X194978261Y-138679198D02*
X194845213Y-138612674D01*
X194845213Y-138612674D02*
X194645642Y-138612674D01*
X194645642Y-138612674D02*
X194512594Y-138679198D01*
X194512594Y-138679198D02*
X194446070Y-138812245D01*
X194446070Y-138812245D02*
X194446070Y-139544007D01*
X193182118Y-138612674D02*
X193182118Y-139743579D01*
X193182118Y-139743579D02*
X193248642Y-139876626D01*
X193248642Y-139876626D02*
X193315166Y-139943150D01*
X193315166Y-139943150D02*
X193448213Y-140009674D01*
X193448213Y-140009674D02*
X193647785Y-140009674D01*
X193647785Y-140009674D02*
X193780832Y-139943150D01*
X193182118Y-139477484D02*
X193315166Y-139544007D01*
X193315166Y-139544007D02*
X193581261Y-139544007D01*
X193581261Y-139544007D02*
X193714309Y-139477484D01*
X193714309Y-139477484D02*
X193780832Y-139410960D01*
X193780832Y-139410960D02*
X193847356Y-139277912D01*
X193847356Y-139277912D02*
X193847356Y-138878769D01*
X193847356Y-138878769D02*
X193780832Y-138745722D01*
X193780832Y-138745722D02*
X193714309Y-138679198D01*
X193714309Y-138679198D02*
X193581261Y-138612674D01*
X193581261Y-138612674D02*
X193315166Y-138612674D01*
X193315166Y-138612674D02*
X193182118Y-138679198D01*
X190654214Y-139410960D02*
X190720738Y-139477484D01*
X190720738Y-139477484D02*
X190920309Y-139544007D01*
X190920309Y-139544007D02*
X191053357Y-139544007D01*
X191053357Y-139544007D02*
X191252928Y-139477484D01*
X191252928Y-139477484D02*
X191385976Y-139344436D01*
X191385976Y-139344436D02*
X191452499Y-139211388D01*
X191452499Y-139211388D02*
X191519023Y-138945293D01*
X191519023Y-138945293D02*
X191519023Y-138745722D01*
X191519023Y-138745722D02*
X191452499Y-138479626D01*
X191452499Y-138479626D02*
X191385976Y-138346579D01*
X191385976Y-138346579D02*
X191252928Y-138213531D01*
X191252928Y-138213531D02*
X191053357Y-138147007D01*
X191053357Y-138147007D02*
X190920309Y-138147007D01*
X190920309Y-138147007D02*
X190720738Y-138213531D01*
X190720738Y-138213531D02*
X190654214Y-138280055D01*
X189456785Y-139544007D02*
X189456785Y-138812245D01*
X189456785Y-138812245D02*
X189523309Y-138679198D01*
X189523309Y-138679198D02*
X189656357Y-138612674D01*
X189656357Y-138612674D02*
X189922452Y-138612674D01*
X189922452Y-138612674D02*
X190055499Y-138679198D01*
X189456785Y-139477484D02*
X189589833Y-139544007D01*
X189589833Y-139544007D02*
X189922452Y-139544007D01*
X189922452Y-139544007D02*
X190055499Y-139477484D01*
X190055499Y-139477484D02*
X190122023Y-139344436D01*
X190122023Y-139344436D02*
X190122023Y-139211388D01*
X190122023Y-139211388D02*
X190055499Y-139078341D01*
X190055499Y-139078341D02*
X189922452Y-139011817D01*
X189922452Y-139011817D02*
X189589833Y-139011817D01*
X189589833Y-139011817D02*
X189456785Y-138945293D01*
X188791547Y-139544007D02*
X188791547Y-138612674D01*
X188791547Y-138878769D02*
X188725024Y-138745722D01*
X188725024Y-138745722D02*
X188658500Y-138679198D01*
X188658500Y-138679198D02*
X188525452Y-138612674D01*
X188525452Y-138612674D02*
X188392405Y-138612674D01*
X187328023Y-139544007D02*
X187328023Y-138147007D01*
X187328023Y-139477484D02*
X187461071Y-139544007D01*
X187461071Y-139544007D02*
X187727166Y-139544007D01*
X187727166Y-139544007D02*
X187860214Y-139477484D01*
X187860214Y-139477484D02*
X187926737Y-139410960D01*
X187926737Y-139410960D02*
X187993261Y-139277912D01*
X187993261Y-139277912D02*
X187993261Y-138878769D01*
X187993261Y-138878769D02*
X187926737Y-138745722D01*
X187926737Y-138745722D02*
X187860214Y-138679198D01*
X187860214Y-138679198D02*
X187727166Y-138612674D01*
X187727166Y-138612674D02*
X187461071Y-138612674D01*
X187461071Y-138612674D02*
X187328023Y-138679198D01*
X186596262Y-139477484D02*
X186596262Y-139544007D01*
X186596262Y-139544007D02*
X186662785Y-139677055D01*
X186662785Y-139677055D02*
X186729309Y-139743579D01*
X184134881Y-139544007D02*
X184600547Y-138878769D01*
X184933166Y-139544007D02*
X184933166Y-138147007D01*
X184933166Y-138147007D02*
X184400976Y-138147007D01*
X184400976Y-138147007D02*
X184267928Y-138213531D01*
X184267928Y-138213531D02*
X184201405Y-138280055D01*
X184201405Y-138280055D02*
X184134881Y-138413103D01*
X184134881Y-138413103D02*
X184134881Y-138612674D01*
X184134881Y-138612674D02*
X184201405Y-138745722D01*
X184201405Y-138745722D02*
X184267928Y-138812245D01*
X184267928Y-138812245D02*
X184400976Y-138878769D01*
X184400976Y-138878769D02*
X184933166Y-138878769D01*
X183003976Y-139477484D02*
X183137024Y-139544007D01*
X183137024Y-139544007D02*
X183403119Y-139544007D01*
X183403119Y-139544007D02*
X183536166Y-139477484D01*
X183536166Y-139477484D02*
X183602690Y-139344436D01*
X183602690Y-139344436D02*
X183602690Y-138812245D01*
X183602690Y-138812245D02*
X183536166Y-138679198D01*
X183536166Y-138679198D02*
X183403119Y-138612674D01*
X183403119Y-138612674D02*
X183137024Y-138612674D01*
X183137024Y-138612674D02*
X183003976Y-138679198D01*
X183003976Y-138679198D02*
X182937452Y-138812245D01*
X182937452Y-138812245D02*
X182937452Y-138945293D01*
X182937452Y-138945293D02*
X183602690Y-139078341D01*
X182471785Y-138612674D02*
X182139166Y-139544007D01*
X182139166Y-139544007D02*
X181806547Y-138612674D01*
X181274356Y-139410960D02*
X181207833Y-139477484D01*
X181207833Y-139477484D02*
X181274356Y-139544007D01*
X181274356Y-139544007D02*
X181340880Y-139477484D01*
X181340880Y-139477484D02*
X181274356Y-139410960D01*
X181274356Y-139410960D02*
X181274356Y-139544007D01*
X179544737Y-139011817D02*
X178480357Y-139011817D01*
X211409642Y-141793099D02*
X211409642Y-140396099D01*
X210611357Y-141793099D02*
X211210071Y-140994814D01*
X210611357Y-140396099D02*
X211409642Y-141194385D01*
X210145690Y-140861766D02*
X209813071Y-141793099D01*
X209480452Y-140861766D02*
X209813071Y-141793099D01*
X209813071Y-141793099D02*
X209946119Y-142125718D01*
X209946119Y-142125718D02*
X210012642Y-142192242D01*
X210012642Y-142192242D02*
X210145690Y-142258766D01*
X208748690Y-141793099D02*
X208881738Y-141726576D01*
X208881738Y-141726576D02*
X208948261Y-141593528D01*
X208948261Y-141593528D02*
X208948261Y-140396099D01*
X207684309Y-141726576D02*
X207817357Y-141793099D01*
X207817357Y-141793099D02*
X208083452Y-141793099D01*
X208083452Y-141793099D02*
X208216499Y-141726576D01*
X208216499Y-141726576D02*
X208283023Y-141593528D01*
X208283023Y-141593528D02*
X208283023Y-141061337D01*
X208283023Y-141061337D02*
X208216499Y-140928290D01*
X208216499Y-140928290D02*
X208083452Y-140861766D01*
X208083452Y-140861766D02*
X207817357Y-140861766D01*
X207817357Y-140861766D02*
X207684309Y-140928290D01*
X207684309Y-140928290D02*
X207617785Y-141061337D01*
X207617785Y-141061337D02*
X207617785Y-141194385D01*
X207617785Y-141194385D02*
X208283023Y-141327433D01*
X205688594Y-140396099D02*
X205422499Y-140396099D01*
X205422499Y-140396099D02*
X205289451Y-140462623D01*
X205289451Y-140462623D02*
X205156404Y-140595671D01*
X205156404Y-140595671D02*
X205089880Y-140861766D01*
X205089880Y-140861766D02*
X205089880Y-141327433D01*
X205089880Y-141327433D02*
X205156404Y-141593528D01*
X205156404Y-141593528D02*
X205289451Y-141726576D01*
X205289451Y-141726576D02*
X205422499Y-141793099D01*
X205422499Y-141793099D02*
X205688594Y-141793099D01*
X205688594Y-141793099D02*
X205821642Y-141726576D01*
X205821642Y-141726576D02*
X205954689Y-141593528D01*
X205954689Y-141593528D02*
X206021213Y-141327433D01*
X206021213Y-141327433D02*
X206021213Y-140861766D01*
X206021213Y-140861766D02*
X205954689Y-140595671D01*
X205954689Y-140595671D02*
X205821642Y-140462623D01*
X205821642Y-140462623D02*
X205688594Y-140396099D01*
X204624213Y-140861766D02*
X204358118Y-141793099D01*
X204358118Y-141793099D02*
X204092023Y-141127861D01*
X204092023Y-141127861D02*
X203825927Y-141793099D01*
X203825927Y-141793099D02*
X203559832Y-140861766D01*
X202495451Y-141726576D02*
X202628499Y-141793099D01*
X202628499Y-141793099D02*
X202894594Y-141793099D01*
X202894594Y-141793099D02*
X203027641Y-141726576D01*
X203027641Y-141726576D02*
X203094165Y-141593528D01*
X203094165Y-141593528D02*
X203094165Y-141061337D01*
X203094165Y-141061337D02*
X203027641Y-140928290D01*
X203027641Y-140928290D02*
X202894594Y-140861766D01*
X202894594Y-140861766D02*
X202628499Y-140861766D01*
X202628499Y-140861766D02*
X202495451Y-140928290D01*
X202495451Y-140928290D02*
X202428927Y-141061337D01*
X202428927Y-141061337D02*
X202428927Y-141194385D01*
X202428927Y-141194385D02*
X203094165Y-141327433D01*
X201830212Y-140861766D02*
X201830212Y-141793099D01*
X201830212Y-140994814D02*
X201763689Y-140928290D01*
X201763689Y-140928290D02*
X201630641Y-140861766D01*
X201630641Y-140861766D02*
X201431070Y-140861766D01*
X201431070Y-140861766D02*
X201298022Y-140928290D01*
X201298022Y-140928290D02*
X201231498Y-141061337D01*
X201231498Y-141061337D02*
X201231498Y-141793099D01*
X199501879Y-141260909D02*
X198437499Y-141260909D01*
X196774403Y-141393956D02*
X196109165Y-141393956D01*
X196907451Y-141793099D02*
X196441784Y-140396099D01*
X196441784Y-140396099D02*
X195976118Y-141793099D01*
X194911736Y-140861766D02*
X194911736Y-141793099D01*
X195510450Y-140861766D02*
X195510450Y-141593528D01*
X195510450Y-141593528D02*
X195443927Y-141726576D01*
X195443927Y-141726576D02*
X195310879Y-141793099D01*
X195310879Y-141793099D02*
X195111308Y-141793099D01*
X195111308Y-141793099D02*
X194978260Y-141726576D01*
X194978260Y-141726576D02*
X194911736Y-141660052D01*
X193647784Y-140861766D02*
X193647784Y-141992671D01*
X193647784Y-141992671D02*
X193714308Y-142125718D01*
X193714308Y-142125718D02*
X193780832Y-142192242D01*
X193780832Y-142192242D02*
X193913879Y-142258766D01*
X193913879Y-142258766D02*
X194113451Y-142258766D01*
X194113451Y-142258766D02*
X194246498Y-142192242D01*
X193647784Y-141726576D02*
X193780832Y-141793099D01*
X193780832Y-141793099D02*
X194046927Y-141793099D01*
X194046927Y-141793099D02*
X194179975Y-141726576D01*
X194179975Y-141726576D02*
X194246498Y-141660052D01*
X194246498Y-141660052D02*
X194313022Y-141527004D01*
X194313022Y-141527004D02*
X194313022Y-141127861D01*
X194313022Y-141127861D02*
X194246498Y-140994814D01*
X194246498Y-140994814D02*
X194179975Y-140928290D01*
X194179975Y-140928290D02*
X194046927Y-140861766D01*
X194046927Y-140861766D02*
X193780832Y-140861766D01*
X193780832Y-140861766D02*
X193647784Y-140928290D01*
X192383832Y-140861766D02*
X192383832Y-141793099D01*
X192982546Y-140861766D02*
X192982546Y-141593528D01*
X192982546Y-141593528D02*
X192916023Y-141726576D01*
X192916023Y-141726576D02*
X192782975Y-141793099D01*
X192782975Y-141793099D02*
X192583404Y-141793099D01*
X192583404Y-141793099D02*
X192450356Y-141726576D01*
X192450356Y-141726576D02*
X192383832Y-141660052D01*
X191785118Y-141726576D02*
X191652071Y-141793099D01*
X191652071Y-141793099D02*
X191385975Y-141793099D01*
X191385975Y-141793099D02*
X191252928Y-141726576D01*
X191252928Y-141726576D02*
X191186404Y-141593528D01*
X191186404Y-141593528D02*
X191186404Y-141527004D01*
X191186404Y-141527004D02*
X191252928Y-141393956D01*
X191252928Y-141393956D02*
X191385975Y-141327433D01*
X191385975Y-141327433D02*
X191585547Y-141327433D01*
X191585547Y-141327433D02*
X191718594Y-141260909D01*
X191718594Y-141260909D02*
X191785118Y-141127861D01*
X191785118Y-141127861D02*
X191785118Y-141061337D01*
X191785118Y-141061337D02*
X191718594Y-140928290D01*
X191718594Y-140928290D02*
X191585547Y-140861766D01*
X191585547Y-140861766D02*
X191385975Y-140861766D01*
X191385975Y-140861766D02*
X191252928Y-140928290D01*
X190787261Y-140861766D02*
X190255070Y-140861766D01*
X190587689Y-140396099D02*
X190587689Y-141593528D01*
X190587689Y-141593528D02*
X190521166Y-141726576D01*
X190521166Y-141726576D02*
X190388118Y-141793099D01*
X190388118Y-141793099D02*
X190255070Y-141793099D01*
X188791546Y-140529147D02*
X188725022Y-140462623D01*
X188725022Y-140462623D02*
X188591975Y-140396099D01*
X188591975Y-140396099D02*
X188259356Y-140396099D01*
X188259356Y-140396099D02*
X188126308Y-140462623D01*
X188126308Y-140462623D02*
X188059784Y-140529147D01*
X188059784Y-140529147D02*
X187993261Y-140662195D01*
X187993261Y-140662195D02*
X187993261Y-140795242D01*
X187993261Y-140795242D02*
X188059784Y-140994814D01*
X188059784Y-140994814D02*
X188858070Y-141793099D01*
X188858070Y-141793099D02*
X187993261Y-141793099D01*
X187128451Y-140396099D02*
X186995404Y-140396099D01*
X186995404Y-140396099D02*
X186862356Y-140462623D01*
X186862356Y-140462623D02*
X186795832Y-140529147D01*
X186795832Y-140529147D02*
X186729308Y-140662195D01*
X186729308Y-140662195D02*
X186662785Y-140928290D01*
X186662785Y-140928290D02*
X186662785Y-141260909D01*
X186662785Y-141260909D02*
X186729308Y-141527004D01*
X186729308Y-141527004D02*
X186795832Y-141660052D01*
X186795832Y-141660052D02*
X186862356Y-141726576D01*
X186862356Y-141726576D02*
X186995404Y-141793099D01*
X186995404Y-141793099D02*
X187128451Y-141793099D01*
X187128451Y-141793099D02*
X187261499Y-141726576D01*
X187261499Y-141726576D02*
X187328023Y-141660052D01*
X187328023Y-141660052D02*
X187394546Y-141527004D01*
X187394546Y-141527004D02*
X187461070Y-141260909D01*
X187461070Y-141260909D02*
X187461070Y-140928290D01*
X187461070Y-140928290D02*
X187394546Y-140662195D01*
X187394546Y-140662195D02*
X187328023Y-140529147D01*
X187328023Y-140529147D02*
X187261499Y-140462623D01*
X187261499Y-140462623D02*
X187128451Y-140396099D01*
X186130594Y-140529147D02*
X186064070Y-140462623D01*
X186064070Y-140462623D02*
X185931023Y-140396099D01*
X185931023Y-140396099D02*
X185598404Y-140396099D01*
X185598404Y-140396099D02*
X185465356Y-140462623D01*
X185465356Y-140462623D02*
X185398832Y-140529147D01*
X185398832Y-140529147D02*
X185332309Y-140662195D01*
X185332309Y-140662195D02*
X185332309Y-140795242D01*
X185332309Y-140795242D02*
X185398832Y-140994814D01*
X185398832Y-140994814D02*
X186197118Y-141793099D01*
X186197118Y-141793099D02*
X185332309Y-141793099D01*
X184134880Y-140861766D02*
X184134880Y-141793099D01*
X184467499Y-140329576D02*
X184800118Y-141327433D01*
X184800118Y-141327433D02*
X183935309Y-141327433D01*
X211729801Y-151036867D02*
X212999801Y-151460200D01*
X212999801Y-151460200D02*
X211729801Y-151883534D01*
X212999801Y-152306866D02*
X211729801Y-152306866D01*
X211729801Y-152306866D02*
X211729801Y-152609247D01*
X211729801Y-152609247D02*
X211790277Y-152790676D01*
X211790277Y-152790676D02*
X211911229Y-152911628D01*
X211911229Y-152911628D02*
X212032182Y-152972105D01*
X212032182Y-152972105D02*
X212274086Y-153032581D01*
X212274086Y-153032581D02*
X212455515Y-153032581D01*
X212455515Y-153032581D02*
X212697420Y-152972105D01*
X212697420Y-152972105D02*
X212818372Y-152911628D01*
X212818372Y-152911628D02*
X212939325Y-152790676D01*
X212939325Y-152790676D02*
X212999801Y-152609247D01*
X212999801Y-152609247D02*
X212999801Y-152306866D01*
X212999801Y-153576866D02*
X211729801Y-153576866D01*
X211729801Y-153576866D02*
X211729801Y-153879247D01*
X211729801Y-153879247D02*
X211790277Y-154060676D01*
X211790277Y-154060676D02*
X211911229Y-154181628D01*
X211911229Y-154181628D02*
X212032182Y-154242105D01*
X212032182Y-154242105D02*
X212274086Y-154302581D01*
X212274086Y-154302581D02*
X212455515Y-154302581D01*
X212455515Y-154302581D02*
X212697420Y-154242105D01*
X212697420Y-154242105D02*
X212818372Y-154181628D01*
X212818372Y-154181628D02*
X212939325Y-154060676D01*
X212939325Y-154060676D02*
X212999801Y-153879247D01*
X212999801Y-153879247D02*
X212999801Y-153576866D01*
D13*
X180350902Y-210578095D02*
X180350902Y-211182857D01*
X180713759Y-210457143D02*
X179443759Y-210880476D01*
X179443759Y-210880476D02*
X180713759Y-211303810D01*
X180653283Y-211666666D02*
X180713759Y-211848095D01*
X180713759Y-211848095D02*
X180713759Y-212150476D01*
X180713759Y-212150476D02*
X180653283Y-212271428D01*
X180653283Y-212271428D02*
X180592806Y-212331904D01*
X180592806Y-212331904D02*
X180471854Y-212392381D01*
X180471854Y-212392381D02*
X180350902Y-212392381D01*
X180350902Y-212392381D02*
X180229949Y-212331904D01*
X180229949Y-212331904D02*
X180169473Y-212271428D01*
X180169473Y-212271428D02*
X180108997Y-212150476D01*
X180108997Y-212150476D02*
X180048521Y-211908571D01*
X180048521Y-211908571D02*
X179988044Y-211787619D01*
X179988044Y-211787619D02*
X179927568Y-211727142D01*
X179927568Y-211727142D02*
X179806616Y-211666666D01*
X179806616Y-211666666D02*
X179685663Y-211666666D01*
X179685663Y-211666666D02*
X179564711Y-211727142D01*
X179564711Y-211727142D02*
X179504235Y-211787619D01*
X179504235Y-211787619D02*
X179443759Y-211908571D01*
X179443759Y-211908571D02*
X179443759Y-212210952D01*
X179443759Y-212210952D02*
X179504235Y-212392381D01*
X179564711Y-212876190D02*
X179504235Y-212936666D01*
X179504235Y-212936666D02*
X179443759Y-213057619D01*
X179443759Y-213057619D02*
X179443759Y-213360000D01*
X179443759Y-213360000D02*
X179504235Y-213480952D01*
X179504235Y-213480952D02*
X179564711Y-213541428D01*
X179564711Y-213541428D02*
X179685663Y-213601905D01*
X179685663Y-213601905D02*
X179806616Y-213601905D01*
X179806616Y-213601905D02*
X179988044Y-213541428D01*
X179988044Y-213541428D02*
X180713759Y-212815714D01*
X180713759Y-212815714D02*
X180713759Y-213601905D01*
X145123521Y-210940952D02*
X145183997Y-211122380D01*
X145183997Y-211122380D02*
X145244473Y-211182857D01*
X145244473Y-211182857D02*
X145365425Y-211243333D01*
X145365425Y-211243333D02*
X145546854Y-211243333D01*
X145546854Y-211243333D02*
X145667806Y-211182857D01*
X145667806Y-211182857D02*
X145728283Y-211122380D01*
X145728283Y-211122380D02*
X145788759Y-211001428D01*
X145788759Y-211001428D02*
X145788759Y-210517618D01*
X145788759Y-210517618D02*
X144518759Y-210517618D01*
X144518759Y-210517618D02*
X144518759Y-210940952D01*
X144518759Y-210940952D02*
X144579235Y-211061904D01*
X144579235Y-211061904D02*
X144639711Y-211122380D01*
X144639711Y-211122380D02*
X144760663Y-211182857D01*
X144760663Y-211182857D02*
X144881616Y-211182857D01*
X144881616Y-211182857D02*
X145002568Y-211122380D01*
X145002568Y-211122380D02*
X145063044Y-211061904D01*
X145063044Y-211061904D02*
X145123521Y-210940952D01*
X145123521Y-210940952D02*
X145123521Y-210517618D01*
X145788759Y-211787618D02*
X144518759Y-211787618D01*
X144518759Y-211787618D02*
X144518759Y-212089999D01*
X144518759Y-212089999D02*
X144579235Y-212271428D01*
X144579235Y-212271428D02*
X144700187Y-212392380D01*
X144700187Y-212392380D02*
X144821140Y-212452857D01*
X144821140Y-212452857D02*
X145063044Y-212513333D01*
X145063044Y-212513333D02*
X145244473Y-212513333D01*
X145244473Y-212513333D02*
X145486378Y-212452857D01*
X145486378Y-212452857D02*
X145607330Y-212392380D01*
X145607330Y-212392380D02*
X145728283Y-212271428D01*
X145728283Y-212271428D02*
X145788759Y-212089999D01*
X145788759Y-212089999D02*
X145788759Y-211787618D01*
X144639711Y-212997142D02*
X144579235Y-213057618D01*
X144579235Y-213057618D02*
X144518759Y-213178571D01*
X144518759Y-213178571D02*
X144518759Y-213480952D01*
X144518759Y-213480952D02*
X144579235Y-213601904D01*
X144579235Y-213601904D02*
X144639711Y-213662380D01*
X144639711Y-213662380D02*
X144760663Y-213722857D01*
X144760663Y-213722857D02*
X144881616Y-213722857D01*
X144881616Y-213722857D02*
X145063044Y-213662380D01*
X145063044Y-213662380D02*
X145788759Y-212936666D01*
X145788759Y-212936666D02*
X145788759Y-213722857D01*
X129248521Y-210940952D02*
X129308997Y-211122380D01*
X129308997Y-211122380D02*
X129369473Y-211182857D01*
X129369473Y-211182857D02*
X129490425Y-211243333D01*
X129490425Y-211243333D02*
X129671854Y-211243333D01*
X129671854Y-211243333D02*
X129792806Y-211182857D01*
X129792806Y-211182857D02*
X129853283Y-211122380D01*
X129853283Y-211122380D02*
X129913759Y-211001428D01*
X129913759Y-211001428D02*
X129913759Y-210517618D01*
X129913759Y-210517618D02*
X128643759Y-210517618D01*
X128643759Y-210517618D02*
X128643759Y-210940952D01*
X128643759Y-210940952D02*
X128704235Y-211061904D01*
X128704235Y-211061904D02*
X128764711Y-211122380D01*
X128764711Y-211122380D02*
X128885663Y-211182857D01*
X128885663Y-211182857D02*
X129006616Y-211182857D01*
X129006616Y-211182857D02*
X129127568Y-211122380D01*
X129127568Y-211122380D02*
X129188044Y-211061904D01*
X129188044Y-211061904D02*
X129248521Y-210940952D01*
X129248521Y-210940952D02*
X129248521Y-210517618D01*
X129913759Y-211787618D02*
X128643759Y-211787618D01*
X129913759Y-212513333D02*
X129188044Y-211969047D01*
X128643759Y-212513333D02*
X129369473Y-211787618D01*
X128764711Y-212997142D02*
X128704235Y-213057618D01*
X128704235Y-213057618D02*
X128643759Y-213178571D01*
X128643759Y-213178571D02*
X128643759Y-213480952D01*
X128643759Y-213480952D02*
X128704235Y-213601904D01*
X128704235Y-213601904D02*
X128764711Y-213662380D01*
X128764711Y-213662380D02*
X128885663Y-213722857D01*
X128885663Y-213722857D02*
X129006616Y-213722857D01*
X129006616Y-213722857D02*
X129188044Y-213662380D01*
X129188044Y-213662380D02*
X129913759Y-212936666D01*
X129913759Y-212936666D02*
X129913759Y-213722857D01*
X126073521Y-211061905D02*
X126133997Y-211243333D01*
X126133997Y-211243333D02*
X126194473Y-211303810D01*
X126194473Y-211303810D02*
X126315425Y-211364286D01*
X126315425Y-211364286D02*
X126496854Y-211364286D01*
X126496854Y-211364286D02*
X126617806Y-211303810D01*
X126617806Y-211303810D02*
X126678283Y-211243333D01*
X126678283Y-211243333D02*
X126738759Y-211122381D01*
X126738759Y-211122381D02*
X126738759Y-210638571D01*
X126738759Y-210638571D02*
X125468759Y-210638571D01*
X125468759Y-210638571D02*
X125468759Y-211061905D01*
X125468759Y-211061905D02*
X125529235Y-211182857D01*
X125529235Y-211182857D02*
X125589711Y-211243333D01*
X125589711Y-211243333D02*
X125710663Y-211303810D01*
X125710663Y-211303810D02*
X125831616Y-211303810D01*
X125831616Y-211303810D02*
X125952568Y-211243333D01*
X125952568Y-211243333D02*
X126013044Y-211182857D01*
X126013044Y-211182857D02*
X126073521Y-211061905D01*
X126073521Y-211061905D02*
X126073521Y-210638571D01*
X126738759Y-212513333D02*
X126738759Y-211908571D01*
X126738759Y-211908571D02*
X125468759Y-211908571D01*
X125589711Y-212876190D02*
X125529235Y-212936666D01*
X125529235Y-212936666D02*
X125468759Y-213057619D01*
X125468759Y-213057619D02*
X125468759Y-213360000D01*
X125468759Y-213360000D02*
X125529235Y-213480952D01*
X125529235Y-213480952D02*
X125589711Y-213541428D01*
X125589711Y-213541428D02*
X125710663Y-213601905D01*
X125710663Y-213601905D02*
X125831616Y-213601905D01*
X125831616Y-213601905D02*
X126013044Y-213541428D01*
X126013044Y-213541428D02*
X126738759Y-212815714D01*
X126738759Y-212815714D02*
X126738759Y-213601905D01*
X202575902Y-210699047D02*
X202575902Y-211303809D01*
X202938759Y-210578095D02*
X201668759Y-211001428D01*
X201668759Y-211001428D02*
X202938759Y-211424762D01*
X201668759Y-212210952D02*
X202575902Y-212210952D01*
X202575902Y-212210952D02*
X202757330Y-212150475D01*
X202757330Y-212150475D02*
X202878283Y-212029523D01*
X202878283Y-212029523D02*
X202938759Y-211848094D01*
X202938759Y-211848094D02*
X202938759Y-211727142D01*
X201789711Y-212755237D02*
X201729235Y-212815713D01*
X201729235Y-212815713D02*
X201668759Y-212936666D01*
X201668759Y-212936666D02*
X201668759Y-213239047D01*
X201668759Y-213239047D02*
X201729235Y-213359999D01*
X201729235Y-213359999D02*
X201789711Y-213420475D01*
X201789711Y-213420475D02*
X201910663Y-213480952D01*
X201910663Y-213480952D02*
X202031616Y-213480952D01*
X202031616Y-213480952D02*
X202213044Y-213420475D01*
X202213044Y-213420475D02*
X202938759Y-212694761D01*
X202938759Y-212694761D02*
X202938759Y-213480952D01*
X208925902Y-210638571D02*
X208925902Y-211243333D01*
X209288759Y-210517619D02*
X208018759Y-210940952D01*
X208018759Y-210940952D02*
X209288759Y-211364286D01*
X208623521Y-212210952D02*
X208623521Y-211787618D01*
X209288759Y-211787618D02*
X208018759Y-211787618D01*
X208018759Y-211787618D02*
X208018759Y-212392380D01*
X208139711Y-212815713D02*
X208079235Y-212876189D01*
X208079235Y-212876189D02*
X208018759Y-212997142D01*
X208018759Y-212997142D02*
X208018759Y-213299523D01*
X208018759Y-213299523D02*
X208079235Y-213420475D01*
X208079235Y-213420475D02*
X208139711Y-213480951D01*
X208139711Y-213480951D02*
X208260663Y-213541428D01*
X208260663Y-213541428D02*
X208381616Y-213541428D01*
X208381616Y-213541428D02*
X208563044Y-213480951D01*
X208563044Y-213480951D02*
X209288759Y-212755237D01*
X209288759Y-212755237D02*
X209288759Y-213541428D01*
X113373521Y-210940952D02*
X113433997Y-211122380D01*
X113433997Y-211122380D02*
X113494473Y-211182857D01*
X113494473Y-211182857D02*
X113615425Y-211243333D01*
X113615425Y-211243333D02*
X113796854Y-211243333D01*
X113796854Y-211243333D02*
X113917806Y-211182857D01*
X113917806Y-211182857D02*
X113978283Y-211122380D01*
X113978283Y-211122380D02*
X114038759Y-211001428D01*
X114038759Y-211001428D02*
X114038759Y-210517618D01*
X114038759Y-210517618D02*
X112768759Y-210517618D01*
X112768759Y-210517618D02*
X112768759Y-210940952D01*
X112768759Y-210940952D02*
X112829235Y-211061904D01*
X112829235Y-211061904D02*
X112889711Y-211122380D01*
X112889711Y-211122380D02*
X113010663Y-211182857D01*
X113010663Y-211182857D02*
X113131616Y-211182857D01*
X113131616Y-211182857D02*
X113252568Y-211122380D01*
X113252568Y-211122380D02*
X113313044Y-211061904D01*
X113313044Y-211061904D02*
X113373521Y-210940952D01*
X113373521Y-210940952D02*
X113373521Y-210517618D01*
X114038759Y-212513333D02*
X113433997Y-212089999D01*
X114038759Y-211787618D02*
X112768759Y-211787618D01*
X112768759Y-211787618D02*
X112768759Y-212271428D01*
X112768759Y-212271428D02*
X112829235Y-212392380D01*
X112829235Y-212392380D02*
X112889711Y-212452857D01*
X112889711Y-212452857D02*
X113010663Y-212513333D01*
X113010663Y-212513333D02*
X113192092Y-212513333D01*
X113192092Y-212513333D02*
X113313044Y-212452857D01*
X113313044Y-212452857D02*
X113373521Y-212392380D01*
X113373521Y-212392380D02*
X113433997Y-212271428D01*
X113433997Y-212271428D02*
X113433997Y-211787618D01*
X112889711Y-212997142D02*
X112829235Y-213057618D01*
X112829235Y-213057618D02*
X112768759Y-213178571D01*
X112768759Y-213178571D02*
X112768759Y-213480952D01*
X112768759Y-213480952D02*
X112829235Y-213601904D01*
X112829235Y-213601904D02*
X112889711Y-213662380D01*
X112889711Y-213662380D02*
X113010663Y-213722857D01*
X113010663Y-213722857D02*
X113131616Y-213722857D01*
X113131616Y-213722857D02*
X113313044Y-213662380D01*
X113313044Y-213662380D02*
X114038759Y-212936666D01*
X114038759Y-212936666D02*
X114038759Y-213722857D01*
X183525902Y-210547857D02*
X183525902Y-211152619D01*
X183888759Y-210426905D02*
X182618759Y-210850238D01*
X182618759Y-210850238D02*
X183888759Y-211273572D01*
X183888759Y-212422619D02*
X183283997Y-211999285D01*
X183888759Y-211696904D02*
X182618759Y-211696904D01*
X182618759Y-211696904D02*
X182618759Y-212180714D01*
X182618759Y-212180714D02*
X182679235Y-212301666D01*
X182679235Y-212301666D02*
X182739711Y-212362143D01*
X182739711Y-212362143D02*
X182860663Y-212422619D01*
X182860663Y-212422619D02*
X183042092Y-212422619D01*
X183042092Y-212422619D02*
X183163044Y-212362143D01*
X183163044Y-212362143D02*
X183223521Y-212301666D01*
X183223521Y-212301666D02*
X183283997Y-212180714D01*
X183283997Y-212180714D02*
X183283997Y-211696904D01*
X182739711Y-212906428D02*
X182679235Y-212966904D01*
X182679235Y-212966904D02*
X182618759Y-213087857D01*
X182618759Y-213087857D02*
X182618759Y-213390238D01*
X182618759Y-213390238D02*
X182679235Y-213511190D01*
X182679235Y-213511190D02*
X182739711Y-213571666D01*
X182739711Y-213571666D02*
X182860663Y-213632143D01*
X182860663Y-213632143D02*
X182981616Y-213632143D01*
X182981616Y-213632143D02*
X183163044Y-213571666D01*
X183163044Y-213571666D02*
X183888759Y-212845952D01*
X183888759Y-212845952D02*
X183888759Y-213632143D01*
X151473521Y-210940952D02*
X151533997Y-211122380D01*
X151533997Y-211122380D02*
X151594473Y-211182857D01*
X151594473Y-211182857D02*
X151715425Y-211243333D01*
X151715425Y-211243333D02*
X151896854Y-211243333D01*
X151896854Y-211243333D02*
X152017806Y-211182857D01*
X152017806Y-211182857D02*
X152078283Y-211122380D01*
X152078283Y-211122380D02*
X152138759Y-211001428D01*
X152138759Y-211001428D02*
X152138759Y-210517618D01*
X152138759Y-210517618D02*
X150868759Y-210517618D01*
X150868759Y-210517618D02*
X150868759Y-210940952D01*
X150868759Y-210940952D02*
X150929235Y-211061904D01*
X150929235Y-211061904D02*
X150989711Y-211122380D01*
X150989711Y-211122380D02*
X151110663Y-211182857D01*
X151110663Y-211182857D02*
X151231616Y-211182857D01*
X151231616Y-211182857D02*
X151352568Y-211122380D01*
X151352568Y-211122380D02*
X151413044Y-211061904D01*
X151413044Y-211061904D02*
X151473521Y-210940952D01*
X151473521Y-210940952D02*
X151473521Y-210517618D01*
X151473521Y-212210952D02*
X151533997Y-212392380D01*
X151533997Y-212392380D02*
X151594473Y-212452857D01*
X151594473Y-212452857D02*
X151715425Y-212513333D01*
X151715425Y-212513333D02*
X151896854Y-212513333D01*
X151896854Y-212513333D02*
X152017806Y-212452857D01*
X152017806Y-212452857D02*
X152078283Y-212392380D01*
X152078283Y-212392380D02*
X152138759Y-212271428D01*
X152138759Y-212271428D02*
X152138759Y-211787618D01*
X152138759Y-211787618D02*
X150868759Y-211787618D01*
X150868759Y-211787618D02*
X150868759Y-212210952D01*
X150868759Y-212210952D02*
X150929235Y-212331904D01*
X150929235Y-212331904D02*
X150989711Y-212392380D01*
X150989711Y-212392380D02*
X151110663Y-212452857D01*
X151110663Y-212452857D02*
X151231616Y-212452857D01*
X151231616Y-212452857D02*
X151352568Y-212392380D01*
X151352568Y-212392380D02*
X151413044Y-212331904D01*
X151413044Y-212331904D02*
X151473521Y-212210952D01*
X151473521Y-212210952D02*
X151473521Y-211787618D01*
X150989711Y-212997142D02*
X150929235Y-213057618D01*
X150929235Y-213057618D02*
X150868759Y-213178571D01*
X150868759Y-213178571D02*
X150868759Y-213480952D01*
X150868759Y-213480952D02*
X150929235Y-213601904D01*
X150929235Y-213601904D02*
X150989711Y-213662380D01*
X150989711Y-213662380D02*
X151110663Y-213722857D01*
X151110663Y-213722857D02*
X151231616Y-213722857D01*
X151231616Y-213722857D02*
X151413044Y-213662380D01*
X151413044Y-213662380D02*
X152138759Y-212936666D01*
X152138759Y-212936666D02*
X152138759Y-213722857D01*
X103848521Y-210910714D02*
X103908997Y-211092142D01*
X103908997Y-211092142D02*
X103969473Y-211152619D01*
X103969473Y-211152619D02*
X104090425Y-211213095D01*
X104090425Y-211213095D02*
X104271854Y-211213095D01*
X104271854Y-211213095D02*
X104392806Y-211152619D01*
X104392806Y-211152619D02*
X104453283Y-211092142D01*
X104453283Y-211092142D02*
X104513759Y-210971190D01*
X104513759Y-210971190D02*
X104513759Y-210487380D01*
X104513759Y-210487380D02*
X103243759Y-210487380D01*
X103243759Y-210487380D02*
X103243759Y-210910714D01*
X103243759Y-210910714D02*
X103304235Y-211031666D01*
X103304235Y-211031666D02*
X103364711Y-211092142D01*
X103364711Y-211092142D02*
X103485663Y-211152619D01*
X103485663Y-211152619D02*
X103606616Y-211152619D01*
X103606616Y-211152619D02*
X103727568Y-211092142D01*
X103727568Y-211092142D02*
X103788044Y-211031666D01*
X103788044Y-211031666D02*
X103848521Y-210910714D01*
X103848521Y-210910714D02*
X103848521Y-210487380D01*
X103243759Y-211757380D02*
X104271854Y-211757380D01*
X104271854Y-211757380D02*
X104392806Y-211817857D01*
X104392806Y-211817857D02*
X104453283Y-211878333D01*
X104453283Y-211878333D02*
X104513759Y-211999285D01*
X104513759Y-211999285D02*
X104513759Y-212241190D01*
X104513759Y-212241190D02*
X104453283Y-212362142D01*
X104453283Y-212362142D02*
X104392806Y-212422619D01*
X104392806Y-212422619D02*
X104271854Y-212483095D01*
X104271854Y-212483095D02*
X103243759Y-212483095D01*
X103364711Y-213027380D02*
X103304235Y-213087856D01*
X103304235Y-213087856D02*
X103243759Y-213208809D01*
X103243759Y-213208809D02*
X103243759Y-213511190D01*
X103243759Y-213511190D02*
X103304235Y-213632142D01*
X103304235Y-213632142D02*
X103364711Y-213692618D01*
X103364711Y-213692618D02*
X103485663Y-213753095D01*
X103485663Y-213753095D02*
X103606616Y-213753095D01*
X103606616Y-213753095D02*
X103788044Y-213692618D01*
X103788044Y-213692618D02*
X104513759Y-212966904D01*
X104513759Y-212966904D02*
X104513759Y-213753095D01*
X122898521Y-210850238D02*
X122958997Y-211031666D01*
X122958997Y-211031666D02*
X123019473Y-211092143D01*
X123019473Y-211092143D02*
X123140425Y-211152619D01*
X123140425Y-211152619D02*
X123321854Y-211152619D01*
X123321854Y-211152619D02*
X123442806Y-211092143D01*
X123442806Y-211092143D02*
X123503283Y-211031666D01*
X123503283Y-211031666D02*
X123563759Y-210910714D01*
X123563759Y-210910714D02*
X123563759Y-210426904D01*
X123563759Y-210426904D02*
X122293759Y-210426904D01*
X122293759Y-210426904D02*
X122293759Y-210850238D01*
X122293759Y-210850238D02*
X122354235Y-210971190D01*
X122354235Y-210971190D02*
X122414711Y-211031666D01*
X122414711Y-211031666D02*
X122535663Y-211092143D01*
X122535663Y-211092143D02*
X122656616Y-211092143D01*
X122656616Y-211092143D02*
X122777568Y-211031666D01*
X122777568Y-211031666D02*
X122838044Y-210971190D01*
X122838044Y-210971190D02*
X122898521Y-210850238D01*
X122898521Y-210850238D02*
X122898521Y-210426904D01*
X123563759Y-211696904D02*
X122293759Y-211696904D01*
X122293759Y-211696904D02*
X123200902Y-212120238D01*
X123200902Y-212120238D02*
X122293759Y-212543571D01*
X122293759Y-212543571D02*
X123563759Y-212543571D01*
X122414711Y-213087857D02*
X122354235Y-213148333D01*
X122354235Y-213148333D02*
X122293759Y-213269286D01*
X122293759Y-213269286D02*
X122293759Y-213571667D01*
X122293759Y-213571667D02*
X122354235Y-213692619D01*
X122354235Y-213692619D02*
X122414711Y-213753095D01*
X122414711Y-213753095D02*
X122535663Y-213813572D01*
X122535663Y-213813572D02*
X122656616Y-213813572D01*
X122656616Y-213813572D02*
X122838044Y-213753095D01*
X122838044Y-213753095D02*
X123563759Y-213027381D01*
X123563759Y-213027381D02*
X123563759Y-213813572D01*
X212100902Y-210608333D02*
X212100902Y-211213095D01*
X212463759Y-210487381D02*
X211193759Y-210910714D01*
X211193759Y-210910714D02*
X212463759Y-211334048D01*
X211798521Y-211757380D02*
X211798521Y-212180714D01*
X212463759Y-212362142D02*
X212463759Y-211757380D01*
X212463759Y-211757380D02*
X211193759Y-211757380D01*
X211193759Y-211757380D02*
X211193759Y-212362142D01*
X211314711Y-212845952D02*
X211254235Y-212906428D01*
X211254235Y-212906428D02*
X211193759Y-213027381D01*
X211193759Y-213027381D02*
X211193759Y-213329762D01*
X211193759Y-213329762D02*
X211254235Y-213450714D01*
X211254235Y-213450714D02*
X211314711Y-213511190D01*
X211314711Y-213511190D02*
X211435663Y-213571667D01*
X211435663Y-213571667D02*
X211556616Y-213571667D01*
X211556616Y-213571667D02*
X211738044Y-213511190D01*
X211738044Y-213511190D02*
X212463759Y-212785476D01*
X212463759Y-212785476D02*
X212463759Y-213571667D01*
X100673521Y-211031667D02*
X100733997Y-211213095D01*
X100733997Y-211213095D02*
X100794473Y-211273572D01*
X100794473Y-211273572D02*
X100915425Y-211334048D01*
X100915425Y-211334048D02*
X101096854Y-211334048D01*
X101096854Y-211334048D02*
X101217806Y-211273572D01*
X101217806Y-211273572D02*
X101278283Y-211213095D01*
X101278283Y-211213095D02*
X101338759Y-211092143D01*
X101338759Y-211092143D02*
X101338759Y-210608333D01*
X101338759Y-210608333D02*
X100068759Y-210608333D01*
X100068759Y-210608333D02*
X100068759Y-211031667D01*
X100068759Y-211031667D02*
X100129235Y-211152619D01*
X100129235Y-211152619D02*
X100189711Y-211213095D01*
X100189711Y-211213095D02*
X100310663Y-211273572D01*
X100310663Y-211273572D02*
X100431616Y-211273572D01*
X100431616Y-211273572D02*
X100552568Y-211213095D01*
X100552568Y-211213095D02*
X100613044Y-211152619D01*
X100613044Y-211152619D02*
X100673521Y-211031667D01*
X100673521Y-211031667D02*
X100673521Y-210608333D01*
X100068759Y-211696905D02*
X101338759Y-212120238D01*
X101338759Y-212120238D02*
X100068759Y-212543572D01*
X100189711Y-212906428D02*
X100129235Y-212966904D01*
X100129235Y-212966904D02*
X100068759Y-213087857D01*
X100068759Y-213087857D02*
X100068759Y-213390238D01*
X100068759Y-213390238D02*
X100129235Y-213511190D01*
X100129235Y-213511190D02*
X100189711Y-213571666D01*
X100189711Y-213571666D02*
X100310663Y-213632143D01*
X100310663Y-213632143D02*
X100431616Y-213632143D01*
X100431616Y-213632143D02*
X100613044Y-213571666D01*
X100613044Y-213571666D02*
X101338759Y-212845952D01*
X101338759Y-212845952D02*
X101338759Y-213632143D01*
X193050902Y-210457142D02*
X193050902Y-211061904D01*
X193413759Y-210336190D02*
X192143759Y-210759523D01*
X192143759Y-210759523D02*
X193413759Y-211182857D01*
X193413759Y-211606189D02*
X192143759Y-211606189D01*
X192143759Y-211606189D02*
X193050902Y-212029523D01*
X193050902Y-212029523D02*
X192143759Y-212452856D01*
X192143759Y-212452856D02*
X193413759Y-212452856D01*
X192264711Y-212997142D02*
X192204235Y-213057618D01*
X192204235Y-213057618D02*
X192143759Y-213178571D01*
X192143759Y-213178571D02*
X192143759Y-213480952D01*
X192143759Y-213480952D02*
X192204235Y-213601904D01*
X192204235Y-213601904D02*
X192264711Y-213662380D01*
X192264711Y-213662380D02*
X192385663Y-213722857D01*
X192385663Y-213722857D02*
X192506616Y-213722857D01*
X192506616Y-213722857D02*
X192688044Y-213662380D01*
X192688044Y-213662380D02*
X193413759Y-212936666D01*
X193413759Y-212936666D02*
X193413759Y-213722857D01*
X141948521Y-211001428D02*
X142008997Y-211182856D01*
X142008997Y-211182856D02*
X142069473Y-211243333D01*
X142069473Y-211243333D02*
X142190425Y-211303809D01*
X142190425Y-211303809D02*
X142371854Y-211303809D01*
X142371854Y-211303809D02*
X142492806Y-211243333D01*
X142492806Y-211243333D02*
X142553283Y-211182856D01*
X142553283Y-211182856D02*
X142613759Y-211061904D01*
X142613759Y-211061904D02*
X142613759Y-210578094D01*
X142613759Y-210578094D02*
X141343759Y-210578094D01*
X141343759Y-210578094D02*
X141343759Y-211001428D01*
X141343759Y-211001428D02*
X141404235Y-211122380D01*
X141404235Y-211122380D02*
X141464711Y-211182856D01*
X141464711Y-211182856D02*
X141585663Y-211243333D01*
X141585663Y-211243333D02*
X141706616Y-211243333D01*
X141706616Y-211243333D02*
X141827568Y-211182856D01*
X141827568Y-211182856D02*
X141888044Y-211122380D01*
X141888044Y-211122380D02*
X141948521Y-211001428D01*
X141948521Y-211001428D02*
X141948521Y-210578094D01*
X141948521Y-211848094D02*
X141948521Y-212271428D01*
X142613759Y-212452856D02*
X142613759Y-211848094D01*
X142613759Y-211848094D02*
X141343759Y-211848094D01*
X141343759Y-211848094D02*
X141343759Y-212452856D01*
X141464711Y-212936666D02*
X141404235Y-212997142D01*
X141404235Y-212997142D02*
X141343759Y-213118095D01*
X141343759Y-213118095D02*
X141343759Y-213420476D01*
X141343759Y-213420476D02*
X141404235Y-213541428D01*
X141404235Y-213541428D02*
X141464711Y-213601904D01*
X141464711Y-213601904D02*
X141585663Y-213662381D01*
X141585663Y-213662381D02*
X141706616Y-213662381D01*
X141706616Y-213662381D02*
X141888044Y-213601904D01*
X141888044Y-213601904D02*
X142613759Y-212876190D01*
X142613759Y-212876190D02*
X142613759Y-213662381D01*
X177175902Y-210699047D02*
X177175902Y-211303809D01*
X177538759Y-210578095D02*
X176268759Y-211001428D01*
X176268759Y-211001428D02*
X177538759Y-211424762D01*
X176268759Y-211666666D02*
X176268759Y-212392380D01*
X177538759Y-212029523D02*
X176268759Y-212029523D01*
X176389711Y-212755237D02*
X176329235Y-212815713D01*
X176329235Y-212815713D02*
X176268759Y-212936666D01*
X176268759Y-212936666D02*
X176268759Y-213239047D01*
X176268759Y-213239047D02*
X176329235Y-213359999D01*
X176329235Y-213359999D02*
X176389711Y-213420475D01*
X176389711Y-213420475D02*
X176510663Y-213480952D01*
X176510663Y-213480952D02*
X176631616Y-213480952D01*
X176631616Y-213480952D02*
X176813044Y-213420475D01*
X176813044Y-213420475D02*
X177538759Y-212694761D01*
X177538759Y-212694761D02*
X177538759Y-213480952D01*
X110198521Y-210971190D02*
X110258997Y-211152618D01*
X110258997Y-211152618D02*
X110319473Y-211213095D01*
X110319473Y-211213095D02*
X110440425Y-211273571D01*
X110440425Y-211273571D02*
X110621854Y-211273571D01*
X110621854Y-211273571D02*
X110742806Y-211213095D01*
X110742806Y-211213095D02*
X110803283Y-211152618D01*
X110803283Y-211152618D02*
X110863759Y-211031666D01*
X110863759Y-211031666D02*
X110863759Y-210547856D01*
X110863759Y-210547856D02*
X109593759Y-210547856D01*
X109593759Y-210547856D02*
X109593759Y-210971190D01*
X109593759Y-210971190D02*
X109654235Y-211092142D01*
X109654235Y-211092142D02*
X109714711Y-211152618D01*
X109714711Y-211152618D02*
X109835663Y-211213095D01*
X109835663Y-211213095D02*
X109956616Y-211213095D01*
X109956616Y-211213095D02*
X110077568Y-211152618D01*
X110077568Y-211152618D02*
X110138044Y-211092142D01*
X110138044Y-211092142D02*
X110198521Y-210971190D01*
X110198521Y-210971190D02*
X110198521Y-210547856D01*
X110803283Y-211757380D02*
X110863759Y-211938809D01*
X110863759Y-211938809D02*
X110863759Y-212241190D01*
X110863759Y-212241190D02*
X110803283Y-212362142D01*
X110803283Y-212362142D02*
X110742806Y-212422618D01*
X110742806Y-212422618D02*
X110621854Y-212483095D01*
X110621854Y-212483095D02*
X110500902Y-212483095D01*
X110500902Y-212483095D02*
X110379949Y-212422618D01*
X110379949Y-212422618D02*
X110319473Y-212362142D01*
X110319473Y-212362142D02*
X110258997Y-212241190D01*
X110258997Y-212241190D02*
X110198521Y-211999285D01*
X110198521Y-211999285D02*
X110138044Y-211878333D01*
X110138044Y-211878333D02*
X110077568Y-211817856D01*
X110077568Y-211817856D02*
X109956616Y-211757380D01*
X109956616Y-211757380D02*
X109835663Y-211757380D01*
X109835663Y-211757380D02*
X109714711Y-211817856D01*
X109714711Y-211817856D02*
X109654235Y-211878333D01*
X109654235Y-211878333D02*
X109593759Y-211999285D01*
X109593759Y-211999285D02*
X109593759Y-212301666D01*
X109593759Y-212301666D02*
X109654235Y-212483095D01*
X109714711Y-212966904D02*
X109654235Y-213027380D01*
X109654235Y-213027380D02*
X109593759Y-213148333D01*
X109593759Y-213148333D02*
X109593759Y-213450714D01*
X109593759Y-213450714D02*
X109654235Y-213571666D01*
X109654235Y-213571666D02*
X109714711Y-213632142D01*
X109714711Y-213632142D02*
X109835663Y-213692619D01*
X109835663Y-213692619D02*
X109956616Y-213692619D01*
X109956616Y-213692619D02*
X110138044Y-213632142D01*
X110138044Y-213632142D02*
X110863759Y-212906428D01*
X110863759Y-212906428D02*
X110863759Y-213692619D01*
X107023521Y-211092143D02*
X107083997Y-211273571D01*
X107083997Y-211273571D02*
X107144473Y-211334048D01*
X107144473Y-211334048D02*
X107265425Y-211394524D01*
X107265425Y-211394524D02*
X107446854Y-211394524D01*
X107446854Y-211394524D02*
X107567806Y-211334048D01*
X107567806Y-211334048D02*
X107628283Y-211273571D01*
X107628283Y-211273571D02*
X107688759Y-211152619D01*
X107688759Y-211152619D02*
X107688759Y-210668809D01*
X107688759Y-210668809D02*
X106418759Y-210668809D01*
X106418759Y-210668809D02*
X106418759Y-211092143D01*
X106418759Y-211092143D02*
X106479235Y-211213095D01*
X106479235Y-211213095D02*
X106539711Y-211273571D01*
X106539711Y-211273571D02*
X106660663Y-211334048D01*
X106660663Y-211334048D02*
X106781616Y-211334048D01*
X106781616Y-211334048D02*
X106902568Y-211273571D01*
X106902568Y-211273571D02*
X106963044Y-211213095D01*
X106963044Y-211213095D02*
X107023521Y-211092143D01*
X107023521Y-211092143D02*
X107023521Y-210668809D01*
X106418759Y-211757381D02*
X106418759Y-212483095D01*
X107688759Y-212120238D02*
X106418759Y-212120238D01*
X106539711Y-212845952D02*
X106479235Y-212906428D01*
X106479235Y-212906428D02*
X106418759Y-213027381D01*
X106418759Y-213027381D02*
X106418759Y-213329762D01*
X106418759Y-213329762D02*
X106479235Y-213450714D01*
X106479235Y-213450714D02*
X106539711Y-213511190D01*
X106539711Y-213511190D02*
X106660663Y-213571667D01*
X106660663Y-213571667D02*
X106781616Y-213571667D01*
X106781616Y-213571667D02*
X106963044Y-213511190D01*
X106963044Y-213511190D02*
X107688759Y-212785476D01*
X107688759Y-212785476D02*
X107688759Y-213571667D01*
X199400902Y-210547857D02*
X199400902Y-211152619D01*
X199763759Y-210426905D02*
X198493759Y-210850238D01*
X198493759Y-210850238D02*
X199763759Y-211273572D01*
X199763759Y-211696904D02*
X198493759Y-211696904D01*
X199763759Y-212422619D02*
X199038044Y-211878333D01*
X198493759Y-212422619D02*
X199219473Y-211696904D01*
X198614711Y-212906428D02*
X198554235Y-212966904D01*
X198554235Y-212966904D02*
X198493759Y-213087857D01*
X198493759Y-213087857D02*
X198493759Y-213390238D01*
X198493759Y-213390238D02*
X198554235Y-213511190D01*
X198554235Y-213511190D02*
X198614711Y-213571666D01*
X198614711Y-213571666D02*
X198735663Y-213632143D01*
X198735663Y-213632143D02*
X198856616Y-213632143D01*
X198856616Y-213632143D02*
X199038044Y-213571666D01*
X199038044Y-213571666D02*
X199763759Y-212845952D01*
X199763759Y-212845952D02*
X199763759Y-213632143D01*
X135598521Y-210910714D02*
X135658997Y-211092142D01*
X135658997Y-211092142D02*
X135719473Y-211152619D01*
X135719473Y-211152619D02*
X135840425Y-211213095D01*
X135840425Y-211213095D02*
X136021854Y-211213095D01*
X136021854Y-211213095D02*
X136142806Y-211152619D01*
X136142806Y-211152619D02*
X136203283Y-211092142D01*
X136203283Y-211092142D02*
X136263759Y-210971190D01*
X136263759Y-210971190D02*
X136263759Y-210487380D01*
X136263759Y-210487380D02*
X134993759Y-210487380D01*
X134993759Y-210487380D02*
X134993759Y-210910714D01*
X134993759Y-210910714D02*
X135054235Y-211031666D01*
X135054235Y-211031666D02*
X135114711Y-211092142D01*
X135114711Y-211092142D02*
X135235663Y-211152619D01*
X135235663Y-211152619D02*
X135356616Y-211152619D01*
X135356616Y-211152619D02*
X135477568Y-211092142D01*
X135477568Y-211092142D02*
X135538044Y-211031666D01*
X135538044Y-211031666D02*
X135598521Y-210910714D01*
X135598521Y-210910714D02*
X135598521Y-210487380D01*
X136263759Y-211757380D02*
X134993759Y-211757380D01*
X135598521Y-211757380D02*
X135598521Y-212483095D01*
X136263759Y-212483095D02*
X134993759Y-212483095D01*
X135114711Y-213027380D02*
X135054235Y-213087856D01*
X135054235Y-213087856D02*
X134993759Y-213208809D01*
X134993759Y-213208809D02*
X134993759Y-213511190D01*
X134993759Y-213511190D02*
X135054235Y-213632142D01*
X135054235Y-213632142D02*
X135114711Y-213692618D01*
X135114711Y-213692618D02*
X135235663Y-213753095D01*
X135235663Y-213753095D02*
X135356616Y-213753095D01*
X135356616Y-213753095D02*
X135538044Y-213692618D01*
X135538044Y-213692618D02*
X136263759Y-212966904D01*
X136263759Y-212966904D02*
X136263759Y-213753095D01*
X186700902Y-210547857D02*
X186700902Y-211152619D01*
X187063759Y-210426905D02*
X185793759Y-210850238D01*
X185793759Y-210850238D02*
X187063759Y-211273572D01*
X187063759Y-211696904D02*
X185793759Y-211696904D01*
X185793759Y-211696904D02*
X185793759Y-212180714D01*
X185793759Y-212180714D02*
X185854235Y-212301666D01*
X185854235Y-212301666D02*
X185914711Y-212362143D01*
X185914711Y-212362143D02*
X186035663Y-212422619D01*
X186035663Y-212422619D02*
X186217092Y-212422619D01*
X186217092Y-212422619D02*
X186338044Y-212362143D01*
X186338044Y-212362143D02*
X186398521Y-212301666D01*
X186398521Y-212301666D02*
X186458997Y-212180714D01*
X186458997Y-212180714D02*
X186458997Y-211696904D01*
X185914711Y-212906428D02*
X185854235Y-212966904D01*
X185854235Y-212966904D02*
X185793759Y-213087857D01*
X185793759Y-213087857D02*
X185793759Y-213390238D01*
X185793759Y-213390238D02*
X185854235Y-213511190D01*
X185854235Y-213511190D02*
X185914711Y-213571666D01*
X185914711Y-213571666D02*
X186035663Y-213632143D01*
X186035663Y-213632143D02*
X186156616Y-213632143D01*
X186156616Y-213632143D02*
X186338044Y-213571666D01*
X186338044Y-213571666D02*
X187063759Y-212845952D01*
X187063759Y-212845952D02*
X187063759Y-213632143D01*
X119723521Y-210910714D02*
X119783997Y-211092142D01*
X119783997Y-211092142D02*
X119844473Y-211152619D01*
X119844473Y-211152619D02*
X119965425Y-211213095D01*
X119965425Y-211213095D02*
X120146854Y-211213095D01*
X120146854Y-211213095D02*
X120267806Y-211152619D01*
X120267806Y-211152619D02*
X120328283Y-211092142D01*
X120328283Y-211092142D02*
X120388759Y-210971190D01*
X120388759Y-210971190D02*
X120388759Y-210487380D01*
X120388759Y-210487380D02*
X119118759Y-210487380D01*
X119118759Y-210487380D02*
X119118759Y-210910714D01*
X119118759Y-210910714D02*
X119179235Y-211031666D01*
X119179235Y-211031666D02*
X119239711Y-211092142D01*
X119239711Y-211092142D02*
X119360663Y-211152619D01*
X119360663Y-211152619D02*
X119481616Y-211152619D01*
X119481616Y-211152619D02*
X119602568Y-211092142D01*
X119602568Y-211092142D02*
X119663044Y-211031666D01*
X119663044Y-211031666D02*
X119723521Y-210910714D01*
X119723521Y-210910714D02*
X119723521Y-210487380D01*
X120388759Y-211757380D02*
X119118759Y-211757380D01*
X119118759Y-211757380D02*
X120388759Y-212483095D01*
X120388759Y-212483095D02*
X119118759Y-212483095D01*
X119239711Y-213027380D02*
X119179235Y-213087856D01*
X119179235Y-213087856D02*
X119118759Y-213208809D01*
X119118759Y-213208809D02*
X119118759Y-213511190D01*
X119118759Y-213511190D02*
X119179235Y-213632142D01*
X119179235Y-213632142D02*
X119239711Y-213692618D01*
X119239711Y-213692618D02*
X119360663Y-213753095D01*
X119360663Y-213753095D02*
X119481616Y-213753095D01*
X119481616Y-213753095D02*
X119663044Y-213692618D01*
X119663044Y-213692618D02*
X120388759Y-212966904D01*
X120388759Y-212966904D02*
X120388759Y-213753095D01*
X132423521Y-211092143D02*
X132483997Y-211273571D01*
X132483997Y-211273571D02*
X132544473Y-211334048D01*
X132544473Y-211334048D02*
X132665425Y-211394524D01*
X132665425Y-211394524D02*
X132846854Y-211394524D01*
X132846854Y-211394524D02*
X132967806Y-211334048D01*
X132967806Y-211334048D02*
X133028283Y-211273571D01*
X133028283Y-211273571D02*
X133088759Y-211152619D01*
X133088759Y-211152619D02*
X133088759Y-210668809D01*
X133088759Y-210668809D02*
X131818759Y-210668809D01*
X131818759Y-210668809D02*
X131818759Y-211092143D01*
X131818759Y-211092143D02*
X131879235Y-211213095D01*
X131879235Y-211213095D02*
X131939711Y-211273571D01*
X131939711Y-211273571D02*
X132060663Y-211334048D01*
X132060663Y-211334048D02*
X132181616Y-211334048D01*
X132181616Y-211334048D02*
X132302568Y-211273571D01*
X132302568Y-211273571D02*
X132363044Y-211213095D01*
X132363044Y-211213095D02*
X132423521Y-211092143D01*
X132423521Y-211092143D02*
X132423521Y-210668809D01*
X131818759Y-212301667D02*
X132725902Y-212301667D01*
X132725902Y-212301667D02*
X132907330Y-212241190D01*
X132907330Y-212241190D02*
X133028283Y-212120238D01*
X133028283Y-212120238D02*
X133088759Y-211938809D01*
X133088759Y-211938809D02*
X133088759Y-211817857D01*
X131939711Y-212845952D02*
X131879235Y-212906428D01*
X131879235Y-212906428D02*
X131818759Y-213027381D01*
X131818759Y-213027381D02*
X131818759Y-213329762D01*
X131818759Y-213329762D02*
X131879235Y-213450714D01*
X131879235Y-213450714D02*
X131939711Y-213511190D01*
X131939711Y-213511190D02*
X132060663Y-213571667D01*
X132060663Y-213571667D02*
X132181616Y-213571667D01*
X132181616Y-213571667D02*
X132363044Y-213511190D01*
X132363044Y-213511190D02*
X133088759Y-212785476D01*
X133088759Y-212785476D02*
X133088759Y-213571667D01*
X221625902Y-210547857D02*
X221625902Y-211152619D01*
X221988759Y-210426905D02*
X220718759Y-210850238D01*
X220718759Y-210850238D02*
X221988759Y-211273572D01*
X221323521Y-212120238D02*
X221383997Y-212301666D01*
X221383997Y-212301666D02*
X221444473Y-212362143D01*
X221444473Y-212362143D02*
X221565425Y-212422619D01*
X221565425Y-212422619D02*
X221746854Y-212422619D01*
X221746854Y-212422619D02*
X221867806Y-212362143D01*
X221867806Y-212362143D02*
X221928283Y-212301666D01*
X221928283Y-212301666D02*
X221988759Y-212180714D01*
X221988759Y-212180714D02*
X221988759Y-211696904D01*
X221988759Y-211696904D02*
X220718759Y-211696904D01*
X220718759Y-211696904D02*
X220718759Y-212120238D01*
X220718759Y-212120238D02*
X220779235Y-212241190D01*
X220779235Y-212241190D02*
X220839711Y-212301666D01*
X220839711Y-212301666D02*
X220960663Y-212362143D01*
X220960663Y-212362143D02*
X221081616Y-212362143D01*
X221081616Y-212362143D02*
X221202568Y-212301666D01*
X221202568Y-212301666D02*
X221263044Y-212241190D01*
X221263044Y-212241190D02*
X221323521Y-212120238D01*
X221323521Y-212120238D02*
X221323521Y-211696904D01*
X220839711Y-212906428D02*
X220779235Y-212966904D01*
X220779235Y-212966904D02*
X220718759Y-213087857D01*
X220718759Y-213087857D02*
X220718759Y-213390238D01*
X220718759Y-213390238D02*
X220779235Y-213511190D01*
X220779235Y-213511190D02*
X220839711Y-213571666D01*
X220839711Y-213571666D02*
X220960663Y-213632143D01*
X220960663Y-213632143D02*
X221081616Y-213632143D01*
X221081616Y-213632143D02*
X221263044Y-213571666D01*
X221263044Y-213571666D02*
X221988759Y-212845952D01*
X221988759Y-212845952D02*
X221988759Y-213632143D01*
X116548521Y-210940952D02*
X116608997Y-211122380D01*
X116608997Y-211122380D02*
X116669473Y-211182857D01*
X116669473Y-211182857D02*
X116790425Y-211243333D01*
X116790425Y-211243333D02*
X116971854Y-211243333D01*
X116971854Y-211243333D02*
X117092806Y-211182857D01*
X117092806Y-211182857D02*
X117153283Y-211122380D01*
X117153283Y-211122380D02*
X117213759Y-211001428D01*
X117213759Y-211001428D02*
X117213759Y-210517618D01*
X117213759Y-210517618D02*
X115943759Y-210517618D01*
X115943759Y-210517618D02*
X115943759Y-210940952D01*
X115943759Y-210940952D02*
X116004235Y-211061904D01*
X116004235Y-211061904D02*
X116064711Y-211122380D01*
X116064711Y-211122380D02*
X116185663Y-211182857D01*
X116185663Y-211182857D02*
X116306616Y-211182857D01*
X116306616Y-211182857D02*
X116427568Y-211122380D01*
X116427568Y-211122380D02*
X116488044Y-211061904D01*
X116488044Y-211061904D02*
X116548521Y-210940952D01*
X116548521Y-210940952D02*
X116548521Y-210517618D01*
X117213759Y-211787618D02*
X115943759Y-211787618D01*
X115943759Y-211787618D02*
X115943759Y-212271428D01*
X115943759Y-212271428D02*
X116004235Y-212392380D01*
X116004235Y-212392380D02*
X116064711Y-212452857D01*
X116064711Y-212452857D02*
X116185663Y-212513333D01*
X116185663Y-212513333D02*
X116367092Y-212513333D01*
X116367092Y-212513333D02*
X116488044Y-212452857D01*
X116488044Y-212452857D02*
X116548521Y-212392380D01*
X116548521Y-212392380D02*
X116608997Y-212271428D01*
X116608997Y-212271428D02*
X116608997Y-211787618D01*
X116064711Y-212997142D02*
X116004235Y-213057618D01*
X116004235Y-213057618D02*
X115943759Y-213178571D01*
X115943759Y-213178571D02*
X115943759Y-213480952D01*
X115943759Y-213480952D02*
X116004235Y-213601904D01*
X116004235Y-213601904D02*
X116064711Y-213662380D01*
X116064711Y-213662380D02*
X116185663Y-213722857D01*
X116185663Y-213722857D02*
X116306616Y-213722857D01*
X116306616Y-213722857D02*
X116488044Y-213662380D01*
X116488044Y-213662380D02*
X117213759Y-212936666D01*
X117213759Y-212936666D02*
X117213759Y-213722857D01*
X196225902Y-210668809D02*
X196225902Y-211273571D01*
X196588759Y-210547857D02*
X195318759Y-210971190D01*
X195318759Y-210971190D02*
X196588759Y-211394524D01*
X196588759Y-212422618D02*
X196588759Y-211817856D01*
X196588759Y-211817856D02*
X195318759Y-211817856D01*
X195439711Y-212785475D02*
X195379235Y-212845951D01*
X195379235Y-212845951D02*
X195318759Y-212966904D01*
X195318759Y-212966904D02*
X195318759Y-213269285D01*
X195318759Y-213269285D02*
X195379235Y-213390237D01*
X195379235Y-213390237D02*
X195439711Y-213450713D01*
X195439711Y-213450713D02*
X195560663Y-213511190D01*
X195560663Y-213511190D02*
X195681616Y-213511190D01*
X195681616Y-213511190D02*
X195863044Y-213450713D01*
X195863044Y-213450713D02*
X196588759Y-212724999D01*
X196588759Y-212724999D02*
X196588759Y-213511190D01*
X224800902Y-210638571D02*
X224800902Y-211243333D01*
X225163759Y-210517619D02*
X223893759Y-210940952D01*
X223893759Y-210940952D02*
X225163759Y-211364286D01*
X224800902Y-211727142D02*
X224800902Y-212331904D01*
X225163759Y-211606190D02*
X223893759Y-212029523D01*
X223893759Y-212029523D02*
X225163759Y-212452857D01*
X224014711Y-212815713D02*
X223954235Y-212876189D01*
X223954235Y-212876189D02*
X223893759Y-212997142D01*
X223893759Y-212997142D02*
X223893759Y-213299523D01*
X223893759Y-213299523D02*
X223954235Y-213420475D01*
X223954235Y-213420475D02*
X224014711Y-213480951D01*
X224014711Y-213480951D02*
X224135663Y-213541428D01*
X224135663Y-213541428D02*
X224256616Y-213541428D01*
X224256616Y-213541428D02*
X224438044Y-213480951D01*
X224438044Y-213480951D02*
X225163759Y-212755237D01*
X225163759Y-212755237D02*
X225163759Y-213541428D01*
X215275902Y-210547857D02*
X215275902Y-211152619D01*
X215638759Y-210426905D02*
X214368759Y-210850238D01*
X214368759Y-210850238D02*
X215638759Y-211273572D01*
X215638759Y-211696904D02*
X214368759Y-211696904D01*
X214368759Y-211696904D02*
X214368759Y-211999285D01*
X214368759Y-211999285D02*
X214429235Y-212180714D01*
X214429235Y-212180714D02*
X214550187Y-212301666D01*
X214550187Y-212301666D02*
X214671140Y-212362143D01*
X214671140Y-212362143D02*
X214913044Y-212422619D01*
X214913044Y-212422619D02*
X215094473Y-212422619D01*
X215094473Y-212422619D02*
X215336378Y-212362143D01*
X215336378Y-212362143D02*
X215457330Y-212301666D01*
X215457330Y-212301666D02*
X215578283Y-212180714D01*
X215578283Y-212180714D02*
X215638759Y-211999285D01*
X215638759Y-211999285D02*
X215638759Y-211696904D01*
X214489711Y-212906428D02*
X214429235Y-212966904D01*
X214429235Y-212966904D02*
X214368759Y-213087857D01*
X214368759Y-213087857D02*
X214368759Y-213390238D01*
X214368759Y-213390238D02*
X214429235Y-213511190D01*
X214429235Y-213511190D02*
X214489711Y-213571666D01*
X214489711Y-213571666D02*
X214610663Y-213632143D01*
X214610663Y-213632143D02*
X214731616Y-213632143D01*
X214731616Y-213632143D02*
X214913044Y-213571666D01*
X214913044Y-213571666D02*
X215638759Y-212845952D01*
X215638759Y-212845952D02*
X215638759Y-213632143D01*
X148298521Y-210940952D02*
X148358997Y-211122380D01*
X148358997Y-211122380D02*
X148419473Y-211182857D01*
X148419473Y-211182857D02*
X148540425Y-211243333D01*
X148540425Y-211243333D02*
X148721854Y-211243333D01*
X148721854Y-211243333D02*
X148842806Y-211182857D01*
X148842806Y-211182857D02*
X148903283Y-211122380D01*
X148903283Y-211122380D02*
X148963759Y-211001428D01*
X148963759Y-211001428D02*
X148963759Y-210517618D01*
X148963759Y-210517618D02*
X147693759Y-210517618D01*
X147693759Y-210517618D02*
X147693759Y-210940952D01*
X147693759Y-210940952D02*
X147754235Y-211061904D01*
X147754235Y-211061904D02*
X147814711Y-211122380D01*
X147814711Y-211122380D02*
X147935663Y-211182857D01*
X147935663Y-211182857D02*
X148056616Y-211182857D01*
X148056616Y-211182857D02*
X148177568Y-211122380D01*
X148177568Y-211122380D02*
X148238044Y-211061904D01*
X148238044Y-211061904D02*
X148298521Y-210940952D01*
X148298521Y-210940952D02*
X148298521Y-210517618D01*
X148842806Y-212513333D02*
X148903283Y-212452857D01*
X148903283Y-212452857D02*
X148963759Y-212271428D01*
X148963759Y-212271428D02*
X148963759Y-212150476D01*
X148963759Y-212150476D02*
X148903283Y-211969047D01*
X148903283Y-211969047D02*
X148782330Y-211848095D01*
X148782330Y-211848095D02*
X148661378Y-211787618D01*
X148661378Y-211787618D02*
X148419473Y-211727142D01*
X148419473Y-211727142D02*
X148238044Y-211727142D01*
X148238044Y-211727142D02*
X147996140Y-211787618D01*
X147996140Y-211787618D02*
X147875187Y-211848095D01*
X147875187Y-211848095D02*
X147754235Y-211969047D01*
X147754235Y-211969047D02*
X147693759Y-212150476D01*
X147693759Y-212150476D02*
X147693759Y-212271428D01*
X147693759Y-212271428D02*
X147754235Y-212452857D01*
X147754235Y-212452857D02*
X147814711Y-212513333D01*
X147814711Y-212997142D02*
X147754235Y-213057618D01*
X147754235Y-213057618D02*
X147693759Y-213178571D01*
X147693759Y-213178571D02*
X147693759Y-213480952D01*
X147693759Y-213480952D02*
X147754235Y-213601904D01*
X147754235Y-213601904D02*
X147814711Y-213662380D01*
X147814711Y-213662380D02*
X147935663Y-213722857D01*
X147935663Y-213722857D02*
X148056616Y-213722857D01*
X148056616Y-213722857D02*
X148238044Y-213662380D01*
X148238044Y-213662380D02*
X148963759Y-212936666D01*
X148963759Y-212936666D02*
X148963759Y-213722857D01*
X138773521Y-211031667D02*
X138833997Y-211213095D01*
X138833997Y-211213095D02*
X138894473Y-211273572D01*
X138894473Y-211273572D02*
X139015425Y-211334048D01*
X139015425Y-211334048D02*
X139196854Y-211334048D01*
X139196854Y-211334048D02*
X139317806Y-211273572D01*
X139317806Y-211273572D02*
X139378283Y-211213095D01*
X139378283Y-211213095D02*
X139438759Y-211092143D01*
X139438759Y-211092143D02*
X139438759Y-210608333D01*
X139438759Y-210608333D02*
X138168759Y-210608333D01*
X138168759Y-210608333D02*
X138168759Y-211031667D01*
X138168759Y-211031667D02*
X138229235Y-211152619D01*
X138229235Y-211152619D02*
X138289711Y-211213095D01*
X138289711Y-211213095D02*
X138410663Y-211273572D01*
X138410663Y-211273572D02*
X138531616Y-211273572D01*
X138531616Y-211273572D02*
X138652568Y-211213095D01*
X138652568Y-211213095D02*
X138713044Y-211152619D01*
X138713044Y-211152619D02*
X138773521Y-211031667D01*
X138773521Y-211031667D02*
X138773521Y-210608333D01*
X138773521Y-212301667D02*
X138773521Y-211878333D01*
X139438759Y-211878333D02*
X138168759Y-211878333D01*
X138168759Y-211878333D02*
X138168759Y-212483095D01*
X138289711Y-212906428D02*
X138229235Y-212966904D01*
X138229235Y-212966904D02*
X138168759Y-213087857D01*
X138168759Y-213087857D02*
X138168759Y-213390238D01*
X138168759Y-213390238D02*
X138229235Y-213511190D01*
X138229235Y-213511190D02*
X138289711Y-213571666D01*
X138289711Y-213571666D02*
X138410663Y-213632143D01*
X138410663Y-213632143D02*
X138531616Y-213632143D01*
X138531616Y-213632143D02*
X138713044Y-213571666D01*
X138713044Y-213571666D02*
X139438759Y-212845952D01*
X139438759Y-212845952D02*
X139438759Y-213632143D01*
X218450902Y-210547857D02*
X218450902Y-211152619D01*
X218813759Y-210426905D02*
X217543759Y-210850238D01*
X217543759Y-210850238D02*
X218813759Y-211273572D01*
X218692806Y-212422619D02*
X218753283Y-212362143D01*
X218753283Y-212362143D02*
X218813759Y-212180714D01*
X218813759Y-212180714D02*
X218813759Y-212059762D01*
X218813759Y-212059762D02*
X218753283Y-211878333D01*
X218753283Y-211878333D02*
X218632330Y-211757381D01*
X218632330Y-211757381D02*
X218511378Y-211696904D01*
X218511378Y-211696904D02*
X218269473Y-211636428D01*
X218269473Y-211636428D02*
X218088044Y-211636428D01*
X218088044Y-211636428D02*
X217846140Y-211696904D01*
X217846140Y-211696904D02*
X217725187Y-211757381D01*
X217725187Y-211757381D02*
X217604235Y-211878333D01*
X217604235Y-211878333D02*
X217543759Y-212059762D01*
X217543759Y-212059762D02*
X217543759Y-212180714D01*
X217543759Y-212180714D02*
X217604235Y-212362143D01*
X217604235Y-212362143D02*
X217664711Y-212422619D01*
X217664711Y-212906428D02*
X217604235Y-212966904D01*
X217604235Y-212966904D02*
X217543759Y-213087857D01*
X217543759Y-213087857D02*
X217543759Y-213390238D01*
X217543759Y-213390238D02*
X217604235Y-213511190D01*
X217604235Y-213511190D02*
X217664711Y-213571666D01*
X217664711Y-213571666D02*
X217785663Y-213632143D01*
X217785663Y-213632143D02*
X217906616Y-213632143D01*
X217906616Y-213632143D02*
X218088044Y-213571666D01*
X218088044Y-213571666D02*
X218813759Y-212845952D01*
X218813759Y-212845952D02*
X218813759Y-213632143D01*
X170825902Y-210638571D02*
X170825902Y-211243333D01*
X171188759Y-210517619D02*
X169918759Y-210940952D01*
X169918759Y-210940952D02*
X171188759Y-211364286D01*
X169918759Y-211606190D02*
X171188759Y-212029523D01*
X171188759Y-212029523D02*
X169918759Y-212452857D01*
X170039711Y-212815713D02*
X169979235Y-212876189D01*
X169979235Y-212876189D02*
X169918759Y-212997142D01*
X169918759Y-212997142D02*
X169918759Y-213299523D01*
X169918759Y-213299523D02*
X169979235Y-213420475D01*
X169979235Y-213420475D02*
X170039711Y-213480951D01*
X170039711Y-213480951D02*
X170160663Y-213541428D01*
X170160663Y-213541428D02*
X170281616Y-213541428D01*
X170281616Y-213541428D02*
X170463044Y-213480951D01*
X170463044Y-213480951D02*
X171188759Y-212755237D01*
X171188759Y-212755237D02*
X171188759Y-213541428D01*
X205750902Y-210517619D02*
X205750902Y-211122381D01*
X206113759Y-210396667D02*
X204843759Y-210820000D01*
X204843759Y-210820000D02*
X206113759Y-211243334D01*
X206113759Y-211666666D02*
X204843759Y-211666666D01*
X205448521Y-211666666D02*
X205448521Y-212392381D01*
X206113759Y-212392381D02*
X204843759Y-212392381D01*
X204964711Y-212936666D02*
X204904235Y-212997142D01*
X204904235Y-212997142D02*
X204843759Y-213118095D01*
X204843759Y-213118095D02*
X204843759Y-213420476D01*
X204843759Y-213420476D02*
X204904235Y-213541428D01*
X204904235Y-213541428D02*
X204964711Y-213601904D01*
X204964711Y-213601904D02*
X205085663Y-213662381D01*
X205085663Y-213662381D02*
X205206616Y-213662381D01*
X205206616Y-213662381D02*
X205388044Y-213601904D01*
X205388044Y-213601904D02*
X206113759Y-212876190D01*
X206113759Y-212876190D02*
X206113759Y-213662381D01*
X189875902Y-210517619D02*
X189875902Y-211122381D01*
X190238759Y-210396667D02*
X188968759Y-210820000D01*
X188968759Y-210820000D02*
X190238759Y-211243334D01*
X190238759Y-211666666D02*
X188968759Y-211666666D01*
X188968759Y-211666666D02*
X190238759Y-212392381D01*
X190238759Y-212392381D02*
X188968759Y-212392381D01*
X189089711Y-212936666D02*
X189029235Y-212997142D01*
X189029235Y-212997142D02*
X188968759Y-213118095D01*
X188968759Y-213118095D02*
X188968759Y-213420476D01*
X188968759Y-213420476D02*
X189029235Y-213541428D01*
X189029235Y-213541428D02*
X189089711Y-213601904D01*
X189089711Y-213601904D02*
X189210663Y-213662381D01*
X189210663Y-213662381D02*
X189331616Y-213662381D01*
X189331616Y-213662381D02*
X189513044Y-213601904D01*
X189513044Y-213601904D02*
X190238759Y-212876190D01*
X190238759Y-212876190D02*
X190238759Y-213662381D01*
X174000902Y-210517619D02*
X174000902Y-211122381D01*
X174363759Y-210396667D02*
X173093759Y-210820000D01*
X173093759Y-210820000D02*
X174363759Y-211243334D01*
X173093759Y-211666666D02*
X174121854Y-211666666D01*
X174121854Y-211666666D02*
X174242806Y-211727143D01*
X174242806Y-211727143D02*
X174303283Y-211787619D01*
X174303283Y-211787619D02*
X174363759Y-211908571D01*
X174363759Y-211908571D02*
X174363759Y-212150476D01*
X174363759Y-212150476D02*
X174303283Y-212271428D01*
X174303283Y-212271428D02*
X174242806Y-212331905D01*
X174242806Y-212331905D02*
X174121854Y-212392381D01*
X174121854Y-212392381D02*
X173093759Y-212392381D01*
X173214711Y-212936666D02*
X173154235Y-212997142D01*
X173154235Y-212997142D02*
X173093759Y-213118095D01*
X173093759Y-213118095D02*
X173093759Y-213420476D01*
X173093759Y-213420476D02*
X173154235Y-213541428D01*
X173154235Y-213541428D02*
X173214711Y-213601904D01*
X173214711Y-213601904D02*
X173335663Y-213662381D01*
X173335663Y-213662381D02*
X173456616Y-213662381D01*
X173456616Y-213662381D02*
X173638044Y-213601904D01*
X173638044Y-213601904D02*
X174363759Y-212876190D01*
X174363759Y-212876190D02*
X174363759Y-213662381D01*
X154648521Y-211031667D02*
X154708997Y-211213095D01*
X154708997Y-211213095D02*
X154769473Y-211273572D01*
X154769473Y-211273572D02*
X154890425Y-211334048D01*
X154890425Y-211334048D02*
X155071854Y-211334048D01*
X155071854Y-211334048D02*
X155192806Y-211273572D01*
X155192806Y-211273572D02*
X155253283Y-211213095D01*
X155253283Y-211213095D02*
X155313759Y-211092143D01*
X155313759Y-211092143D02*
X155313759Y-210608333D01*
X155313759Y-210608333D02*
X154043759Y-210608333D01*
X154043759Y-210608333D02*
X154043759Y-211031667D01*
X154043759Y-211031667D02*
X154104235Y-211152619D01*
X154104235Y-211152619D02*
X154164711Y-211213095D01*
X154164711Y-211213095D02*
X154285663Y-211273572D01*
X154285663Y-211273572D02*
X154406616Y-211273572D01*
X154406616Y-211273572D02*
X154527568Y-211213095D01*
X154527568Y-211213095D02*
X154588044Y-211152619D01*
X154588044Y-211152619D02*
X154648521Y-211031667D01*
X154648521Y-211031667D02*
X154648521Y-210608333D01*
X154950902Y-211817857D02*
X154950902Y-212422619D01*
X155313759Y-211696905D02*
X154043759Y-212120238D01*
X154043759Y-212120238D02*
X155313759Y-212543572D01*
X154164711Y-212906428D02*
X154104235Y-212966904D01*
X154104235Y-212966904D02*
X154043759Y-213087857D01*
X154043759Y-213087857D02*
X154043759Y-213390238D01*
X154043759Y-213390238D02*
X154104235Y-213511190D01*
X154104235Y-213511190D02*
X154164711Y-213571666D01*
X154164711Y-213571666D02*
X154285663Y-213632143D01*
X154285663Y-213632143D02*
X154406616Y-213632143D01*
X154406616Y-213632143D02*
X154588044Y-213571666D01*
X154588044Y-213571666D02*
X155313759Y-212845952D01*
X155313759Y-212845952D02*
X155313759Y-213632143D01*
D14*
X119902200Y-172262800D02*
G75*
G02*
X118502200Y-172262800I-700000J0D01*
G01*
X118502200Y-172262800D02*
G75*
G02*
X119902200Y-172262800I700000J0D01*
G01*
X134151600Y-171297600D02*
G75*
G02*
X132751600Y-171297600I-700000J0D01*
G01*
X132751600Y-171297600D02*
G75*
G02*
X134151600Y-171297600I700000J0D01*
G01*
X102147600Y-171297600D02*
G75*
G02*
X100747600Y-171297600I-700000J0D01*
G01*
X100747600Y-171297600D02*
G75*
G02*
X102147600Y-171297600I700000J0D01*
G01*
X183910200Y-172262800D02*
G75*
G02*
X182510200Y-172262800I-700000J0D01*
G01*
X182510200Y-172262800D02*
G75*
G02*
X183910200Y-172262800I700000J0D01*
G01*
X167908200Y-172262800D02*
G75*
G02*
X166508200Y-172262800I-700000J0D01*
G01*
X166508200Y-172262800D02*
G75*
G02*
X167908200Y-172262800I700000J0D01*
G01*
X199912200Y-172262800D02*
G75*
G02*
X198512200Y-172262800I-700000J0D01*
G01*
X198512200Y-172262800D02*
G75*
G02*
X199912200Y-172262800I700000J0D01*
G01*
X198159600Y-171297600D02*
G75*
G02*
X196759600Y-171297600I-700000J0D01*
G01*
X196759600Y-171297600D02*
G75*
G02*
X198159600Y-171297600I700000J0D01*
G01*
X215914200Y-172262800D02*
G75*
G02*
X214514200Y-172262800I-700000J0D01*
G01*
X214514200Y-172262800D02*
G75*
G02*
X215914200Y-172262800I700000J0D01*
G01*
X150153600Y-171297600D02*
G75*
G02*
X148753600Y-171297600I-700000J0D01*
G01*
X148753600Y-171297600D02*
G75*
G02*
X150153600Y-171297600I700000J0D01*
G01*
X182157600Y-171297600D02*
G75*
G02*
X180757600Y-171297600I-700000J0D01*
G01*
X180757600Y-171297600D02*
G75*
G02*
X182157600Y-171297600I700000J0D01*
G01*
X135904200Y-172262800D02*
G75*
G02*
X134504200Y-172262800I-700000J0D01*
G01*
X134504200Y-172262800D02*
G75*
G02*
X135904200Y-172262800I700000J0D01*
G01*
X151906200Y-172262800D02*
G75*
G02*
X150506200Y-172262800I-700000J0D01*
G01*
X150506200Y-172262800D02*
G75*
G02*
X151906200Y-172262800I700000J0D01*
G01*
X103900200Y-172262800D02*
G75*
G02*
X102500200Y-172262800I-700000J0D01*
G01*
X102500200Y-172262800D02*
G75*
G02*
X103900200Y-172262800I700000J0D01*
G01*
X166155600Y-171297600D02*
G75*
G02*
X164755600Y-171297600I-700000J0D01*
G01*
X164755600Y-171297600D02*
G75*
G02*
X166155600Y-171297600I700000J0D01*
G01*
X214161600Y-171297600D02*
G75*
G02*
X212761600Y-171297600I-700000J0D01*
G01*
X212761600Y-171297600D02*
G75*
G02*
X214161600Y-171297600I700000J0D01*
G01*
X118149600Y-171297600D02*
G75*
G02*
X116749600Y-171297600I-700000J0D01*
G01*
X116749600Y-171297600D02*
G75*
G02*
X118149600Y-171297600I700000J0D01*
G01*
%LPC*%
D15*
X150082200Y-141249400D03*
X150894979Y-139287179D03*
X150894979Y-143211621D03*
X152857200Y-138474400D03*
D16*
X152857200Y-141249400D03*
D15*
X152857200Y-144024400D03*
X154819421Y-139287179D03*
X154819421Y-143211621D03*
X155632200Y-141249400D03*
D17*
X226110800Y-207492600D03*
D18*
X153797000Y-206146400D03*
D19*
X153797000Y-208686400D03*
X151257000Y-206146400D03*
X151257000Y-208686400D03*
X148717000Y-206146400D03*
X148717000Y-208686400D03*
X146177000Y-206146400D03*
X146177000Y-208686400D03*
X143637000Y-206146400D03*
X143637000Y-208686400D03*
X141097000Y-206146400D03*
X141097000Y-208686400D03*
X138557000Y-206146400D03*
X138557000Y-208686400D03*
X136017000Y-206146400D03*
X136017000Y-208686400D03*
X133477000Y-206146400D03*
X133477000Y-208686400D03*
X130937000Y-206146400D03*
X130937000Y-208686400D03*
X128397000Y-206146400D03*
X128397000Y-208686400D03*
X125857000Y-206146400D03*
X125857000Y-208686400D03*
X123317000Y-206146400D03*
X123317000Y-208686400D03*
X120777000Y-206146400D03*
X120777000Y-208686400D03*
X118237000Y-206146400D03*
X118237000Y-208686400D03*
X115697000Y-206146400D03*
X115697000Y-208686400D03*
X113157000Y-206146400D03*
X113157000Y-208686400D03*
X110617000Y-206146400D03*
X110617000Y-208686400D03*
X108077000Y-206146400D03*
X108077000Y-208686400D03*
X105537000Y-206146400D03*
X105537000Y-208686400D03*
D20*
X224586800Y-220980000D03*
X221411800Y-220980000D03*
X218236800Y-220980000D03*
X215061800Y-220980000D03*
X211886800Y-220980000D03*
X208711800Y-220980000D03*
X205536800Y-220980000D03*
X202361800Y-220980000D03*
X199186800Y-220980000D03*
X196011800Y-220980000D03*
X192836800Y-220980000D03*
X189661800Y-220980000D03*
X186486800Y-220980000D03*
X183311800Y-220980000D03*
X180136800Y-220980000D03*
X176961800Y-220980000D03*
X173786800Y-220980000D03*
X170611800Y-220980000D03*
X154736800Y-220980000D03*
X151561800Y-220980000D03*
X148386800Y-220980000D03*
X145211800Y-220980000D03*
X142036800Y-220980000D03*
X138861800Y-220980000D03*
X135686800Y-220980000D03*
X132511800Y-220980000D03*
X129336800Y-220980000D03*
X126161800Y-220980000D03*
X122986800Y-220980000D03*
X119811800Y-220980000D03*
X116636800Y-220980000D03*
X113461800Y-220980000D03*
X110286800Y-220980000D03*
X107111800Y-220980000D03*
X103936800Y-220980000D03*
X100761800Y-220980000D03*
D17*
X99847400Y-150266400D03*
D15*
X158743600Y-208153000D03*
X159556379Y-206190779D03*
X159556379Y-210115221D03*
X161518600Y-205378000D03*
D16*
X161518600Y-208153000D03*
D15*
X161518600Y-210928000D03*
X163480821Y-206190779D03*
X163480821Y-210115221D03*
X164293600Y-208153000D03*
X99790200Y-141249400D03*
X100602979Y-139287179D03*
X100602979Y-143211621D03*
X102565200Y-138474400D03*
D16*
X102565200Y-141249400D03*
D15*
X102565200Y-144024400D03*
X104527421Y-139287179D03*
X104527421Y-143211621D03*
X105340200Y-141249400D03*
D18*
X219583000Y-206146400D03*
D19*
X219583000Y-208686400D03*
X217043000Y-206146400D03*
X217043000Y-208686400D03*
X214503000Y-206146400D03*
X214503000Y-208686400D03*
X211963000Y-206146400D03*
X211963000Y-208686400D03*
X209423000Y-206146400D03*
X209423000Y-208686400D03*
X206883000Y-206146400D03*
X206883000Y-208686400D03*
X204343000Y-206146400D03*
X204343000Y-208686400D03*
X201803000Y-206146400D03*
X201803000Y-208686400D03*
X199263000Y-206146400D03*
X199263000Y-208686400D03*
X196723000Y-206146400D03*
X196723000Y-208686400D03*
X194183000Y-206146400D03*
X194183000Y-208686400D03*
X191643000Y-206146400D03*
X191643000Y-208686400D03*
X189103000Y-206146400D03*
X189103000Y-208686400D03*
X186563000Y-206146400D03*
X186563000Y-208686400D03*
X184023000Y-206146400D03*
X184023000Y-208686400D03*
X181483000Y-206146400D03*
X181483000Y-208686400D03*
X178943000Y-206146400D03*
X178943000Y-208686400D03*
X176403000Y-206146400D03*
X176403000Y-208686400D03*
X173863000Y-206146400D03*
X173863000Y-208686400D03*
X171323000Y-206146400D03*
X171323000Y-208686400D03*
D21*
X111165000Y-148336000D03*
D22*
X137755000Y-150876000D03*
D23*
X136525000Y-148336000D03*
X135255000Y-150876000D03*
X133985000Y-148336000D03*
X132715000Y-150876000D03*
X131445000Y-148336000D03*
X130175000Y-150876000D03*
X128905000Y-148336000D03*
X127635000Y-150876000D03*
X126365000Y-148336000D03*
X125095000Y-150876000D03*
X123825000Y-148336000D03*
X122555000Y-150876000D03*
X121285000Y-148336000D03*
X120015000Y-150876000D03*
X118745000Y-148336000D03*
X117475000Y-150876000D03*
X116205000Y-148336000D03*
X114935000Y-150876000D03*
X113665000Y-148336000D03*
X112395000Y-150876000D03*
D24*
X197231000Y-149258300D03*
D25*
X197231000Y-146718300D03*
X199771000Y-149258300D03*
X199771000Y-146718300D03*
X202311000Y-149258300D03*
X202311000Y-146718300D03*
X204851000Y-149258300D03*
X204851000Y-146718300D03*
X207391000Y-149258300D03*
X207391000Y-146718300D03*
X209931000Y-149258300D03*
X209931000Y-146718300D03*
X212471000Y-149258300D03*
X212471000Y-146718300D03*
X215011000Y-149258300D03*
X215011000Y-146718300D03*
X217551000Y-149258300D03*
X217551000Y-146718300D03*
X220091000Y-149258300D03*
X220091000Y-146718300D03*
D17*
X225399600Y-151841200D03*
D26*
X119202200Y-172262800D03*
X133451600Y-171297600D03*
X101447600Y-171297600D03*
X183210200Y-172262800D03*
X167208200Y-172262800D03*
X199212200Y-172262800D03*
X197459600Y-171297600D03*
X215214200Y-172262800D03*
X149453600Y-171297600D03*
X181457600Y-171297600D03*
X135204200Y-172262800D03*
X151206200Y-172262800D03*
X103200200Y-172262800D03*
X165455600Y-171297600D03*
X213461600Y-171297600D03*
X117449600Y-171297600D03*
%LPD*%
M02*
