%TF.GenerationSoftware,KiCad,Pcbnew,8.0.4-rc2*%
%TF.CreationDate,2024-08-04T20:32:00-05:00*%
%TF.ProjectId,backplane_tracer_v5,6261636b-706c-4616-9e65-5f7472616365,rev?*%
%TF.SameCoordinates,Original*%
%TF.FileFunction,Drillmap*%
%TF.FilePolarity,Positive*%
%FSLAX45Y45*%
G04 Gerber Fmt 4.5, Leading zero omitted, Abs format (unit mm)*
G04 Created by KiCad (PCBNEW 8.0.4-rc2) date 2024-08-04 20:32:00*
%MOMM*%
%LPD*%
G01*
G04 APERTURE LIST*
%ADD10C,0.127000*%
%ADD11C,0.200000*%
%ADD12C,0.115200*%
%ADD13C,0.220000*%
%ADD14C,0.260000*%
G04 APERTURE END LIST*
D10*
X22860000Y-13632180D02*
X22860000Y-21272500D01*
X22529800Y-22860000D02*
X22606000Y-22783800D01*
X16916400Y-22783800D02*
X16992600Y-22860000D01*
X16560800Y-21272500D02*
X16560800Y-21018500D01*
X9685020Y-13632180D02*
X9685020Y-21018500D01*
X22606000Y-21272500D02*
X22606000Y-22783800D01*
X22860000Y-13632180D02*
X9685020Y-13632180D01*
X15621000Y-21272500D02*
X15621000Y-22783800D01*
X22860000Y-21272500D02*
X22606000Y-21272500D01*
X9931400Y-21018500D02*
X9931400Y-22783800D01*
X15544800Y-22860000D02*
X15621000Y-22783800D01*
X9931400Y-21018500D02*
X9685020Y-21018500D01*
X16916400Y-21018500D02*
X16560800Y-21018500D01*
X16560800Y-21272500D02*
X15621000Y-21272500D01*
X15544800Y-22860000D02*
X10007600Y-22860000D01*
X16916400Y-21018500D02*
X16916400Y-22783800D01*
X9931400Y-22783800D02*
X10007600Y-22860000D01*
X22529800Y-22860000D02*
X16992600Y-22860000D01*
D11*
D12*
X9927140Y-14969040D02*
X10042340Y-15084240D01*
X10042340Y-14969040D02*
X9927140Y-15084240D01*
X22482360Y-15126520D02*
X22597560Y-15241720D01*
X22597560Y-15126520D02*
X22482360Y-15241720D01*
X22553480Y-20691660D02*
X22668680Y-20806860D01*
X22668680Y-20691660D02*
X22553480Y-20806860D01*
D13*
X11226500Y-14833600D02*
G75*
G02*
X11006500Y-14833600I-110000J0D01*
G01*
X11006500Y-14833600D02*
G75*
G02*
X11226500Y-14833600I110000J0D01*
G01*
D14*
X13775500Y-14957600D02*
X13775500Y-15217600D01*
X13645500Y-15087600D02*
X13905500Y-15087600D01*
D11*
X9939447Y-23177834D02*
X9939447Y-22977834D01*
X9939447Y-22977834D02*
X9987066Y-22977834D01*
X9987066Y-22977834D02*
X10015637Y-22987358D01*
X10015637Y-22987358D02*
X10034685Y-23006405D01*
X10034685Y-23006405D02*
X10044209Y-23025453D01*
X10044209Y-23025453D02*
X10053733Y-23063548D01*
X10053733Y-23063548D02*
X10053733Y-23092119D01*
X10053733Y-23092119D02*
X10044209Y-23130215D01*
X10044209Y-23130215D02*
X10034685Y-23149262D01*
X10034685Y-23149262D02*
X10015637Y-23168310D01*
X10015637Y-23168310D02*
X9987066Y-23177834D01*
X9987066Y-23177834D02*
X9939447Y-23177834D01*
X10139447Y-23177834D02*
X10139447Y-23044500D01*
X10139447Y-23082596D02*
X10148971Y-23063548D01*
X10148971Y-23063548D02*
X10158494Y-23054024D01*
X10158494Y-23054024D02*
X10177542Y-23044500D01*
X10177542Y-23044500D02*
X10196590Y-23044500D01*
X10263256Y-23177834D02*
X10263256Y-23044500D01*
X10263256Y-22977834D02*
X10253733Y-22987358D01*
X10253733Y-22987358D02*
X10263256Y-22996881D01*
X10263256Y-22996881D02*
X10272780Y-22987358D01*
X10272780Y-22987358D02*
X10263256Y-22977834D01*
X10263256Y-22977834D02*
X10263256Y-22996881D01*
X10387066Y-23177834D02*
X10368018Y-23168310D01*
X10368018Y-23168310D02*
X10358494Y-23149262D01*
X10358494Y-23149262D02*
X10358494Y-22977834D01*
X10491828Y-23177834D02*
X10472780Y-23168310D01*
X10472780Y-23168310D02*
X10463256Y-23149262D01*
X10463256Y-23149262D02*
X10463256Y-22977834D01*
X10720399Y-23177834D02*
X10720399Y-22977834D01*
X10720399Y-22977834D02*
X10787066Y-23120691D01*
X10787066Y-23120691D02*
X10853733Y-22977834D01*
X10853733Y-22977834D02*
X10853733Y-23177834D01*
X11034685Y-23177834D02*
X11034685Y-23073072D01*
X11034685Y-23073072D02*
X11025161Y-23054024D01*
X11025161Y-23054024D02*
X11006114Y-23044500D01*
X11006114Y-23044500D02*
X10968018Y-23044500D01*
X10968018Y-23044500D02*
X10948971Y-23054024D01*
X11034685Y-23168310D02*
X11015637Y-23177834D01*
X11015637Y-23177834D02*
X10968018Y-23177834D01*
X10968018Y-23177834D02*
X10948971Y-23168310D01*
X10948971Y-23168310D02*
X10939447Y-23149262D01*
X10939447Y-23149262D02*
X10939447Y-23130215D01*
X10939447Y-23130215D02*
X10948971Y-23111167D01*
X10948971Y-23111167D02*
X10968018Y-23101643D01*
X10968018Y-23101643D02*
X11015637Y-23101643D01*
X11015637Y-23101643D02*
X11034685Y-23092119D01*
X11129923Y-23044500D02*
X11129923Y-23244500D01*
X11129923Y-23054024D02*
X11148971Y-23044500D01*
X11148971Y-23044500D02*
X11187066Y-23044500D01*
X11187066Y-23044500D02*
X11206113Y-23054024D01*
X11206113Y-23054024D02*
X11215637Y-23063548D01*
X11215637Y-23063548D02*
X11225161Y-23082596D01*
X11225161Y-23082596D02*
X11225161Y-23139738D01*
X11225161Y-23139738D02*
X11215637Y-23158786D01*
X11215637Y-23158786D02*
X11206113Y-23168310D01*
X11206113Y-23168310D02*
X11187066Y-23177834D01*
X11187066Y-23177834D02*
X11148971Y-23177834D01*
X11148971Y-23177834D02*
X11129923Y-23168310D01*
X11310875Y-23158786D02*
X11320399Y-23168310D01*
X11320399Y-23168310D02*
X11310875Y-23177834D01*
X11310875Y-23177834D02*
X11301352Y-23168310D01*
X11301352Y-23168310D02*
X11310875Y-23158786D01*
X11310875Y-23158786D02*
X11310875Y-23177834D01*
X11310875Y-23054024D02*
X11320399Y-23063548D01*
X11320399Y-23063548D02*
X11310875Y-23073072D01*
X11310875Y-23073072D02*
X11301352Y-23063548D01*
X11301352Y-23063548D02*
X11310875Y-23054024D01*
X11310875Y-23054024D02*
X11310875Y-23073072D01*
D12*
X9563470Y-23448750D02*
X9678670Y-23563950D01*
X9678670Y-23448750D02*
X9563470Y-23563950D01*
D11*
X10044209Y-23597834D02*
X9929923Y-23597834D01*
X9987066Y-23597834D02*
X9987066Y-23397834D01*
X9987066Y-23397834D02*
X9968018Y-23426405D01*
X9968018Y-23426405D02*
X9948971Y-23445453D01*
X9948971Y-23445453D02*
X9929923Y-23454977D01*
X10129923Y-23578786D02*
X10139447Y-23588310D01*
X10139447Y-23588310D02*
X10129923Y-23597834D01*
X10129923Y-23597834D02*
X10120399Y-23588310D01*
X10120399Y-23588310D02*
X10129923Y-23578786D01*
X10129923Y-23578786D02*
X10129923Y-23597834D01*
X10329923Y-23597834D02*
X10215637Y-23597834D01*
X10272780Y-23597834D02*
X10272780Y-23397834D01*
X10272780Y-23397834D02*
X10253733Y-23426405D01*
X10253733Y-23426405D02*
X10234685Y-23445453D01*
X10234685Y-23445453D02*
X10215637Y-23454977D01*
X10510875Y-23397834D02*
X10415637Y-23397834D01*
X10415637Y-23397834D02*
X10406114Y-23493072D01*
X10406114Y-23493072D02*
X10415637Y-23483548D01*
X10415637Y-23483548D02*
X10434685Y-23474024D01*
X10434685Y-23474024D02*
X10482304Y-23474024D01*
X10482304Y-23474024D02*
X10501352Y-23483548D01*
X10501352Y-23483548D02*
X10510875Y-23493072D01*
X10510875Y-23493072D02*
X10520399Y-23512119D01*
X10520399Y-23512119D02*
X10520399Y-23559738D01*
X10520399Y-23559738D02*
X10510875Y-23578786D01*
X10510875Y-23578786D02*
X10501352Y-23588310D01*
X10501352Y-23588310D02*
X10482304Y-23597834D01*
X10482304Y-23597834D02*
X10434685Y-23597834D01*
X10434685Y-23597834D02*
X10415637Y-23588310D01*
X10415637Y-23588310D02*
X10406114Y-23578786D01*
X10596590Y-23416881D02*
X10606114Y-23407358D01*
X10606114Y-23407358D02*
X10625161Y-23397834D01*
X10625161Y-23397834D02*
X10672780Y-23397834D01*
X10672780Y-23397834D02*
X10691828Y-23407358D01*
X10691828Y-23407358D02*
X10701352Y-23416881D01*
X10701352Y-23416881D02*
X10710875Y-23435929D01*
X10710875Y-23435929D02*
X10710875Y-23454977D01*
X10710875Y-23454977D02*
X10701352Y-23483548D01*
X10701352Y-23483548D02*
X10587066Y-23597834D01*
X10587066Y-23597834D02*
X10710875Y-23597834D01*
X10796590Y-23597834D02*
X10796590Y-23464500D01*
X10796590Y-23483548D02*
X10806114Y-23474024D01*
X10806114Y-23474024D02*
X10825161Y-23464500D01*
X10825161Y-23464500D02*
X10853733Y-23464500D01*
X10853733Y-23464500D02*
X10872780Y-23474024D01*
X10872780Y-23474024D02*
X10882304Y-23493072D01*
X10882304Y-23493072D02*
X10882304Y-23597834D01*
X10882304Y-23493072D02*
X10891828Y-23474024D01*
X10891828Y-23474024D02*
X10910875Y-23464500D01*
X10910875Y-23464500D02*
X10939447Y-23464500D01*
X10939447Y-23464500D02*
X10958495Y-23474024D01*
X10958495Y-23474024D02*
X10968018Y-23493072D01*
X10968018Y-23493072D02*
X10968018Y-23597834D01*
X11063256Y-23597834D02*
X11063256Y-23464500D01*
X11063256Y-23483548D02*
X11072780Y-23474024D01*
X11072780Y-23474024D02*
X11091828Y-23464500D01*
X11091828Y-23464500D02*
X11120399Y-23464500D01*
X11120399Y-23464500D02*
X11139447Y-23474024D01*
X11139447Y-23474024D02*
X11148971Y-23493072D01*
X11148971Y-23493072D02*
X11148971Y-23597834D01*
X11148971Y-23493072D02*
X11158495Y-23474024D01*
X11158495Y-23474024D02*
X11177542Y-23464500D01*
X11177542Y-23464500D02*
X11206113Y-23464500D01*
X11206113Y-23464500D02*
X11225161Y-23474024D01*
X11225161Y-23474024D02*
X11234685Y-23493072D01*
X11234685Y-23493072D02*
X11234685Y-23597834D01*
X11625161Y-23388310D02*
X11453733Y-23645453D01*
X11882304Y-23397834D02*
X11901352Y-23397834D01*
X11901352Y-23397834D02*
X11920399Y-23407358D01*
X11920399Y-23407358D02*
X11929923Y-23416881D01*
X11929923Y-23416881D02*
X11939447Y-23435929D01*
X11939447Y-23435929D02*
X11948971Y-23474024D01*
X11948971Y-23474024D02*
X11948971Y-23521643D01*
X11948971Y-23521643D02*
X11939447Y-23559738D01*
X11939447Y-23559738D02*
X11929923Y-23578786D01*
X11929923Y-23578786D02*
X11920399Y-23588310D01*
X11920399Y-23588310D02*
X11901352Y-23597834D01*
X11901352Y-23597834D02*
X11882304Y-23597834D01*
X11882304Y-23597834D02*
X11863256Y-23588310D01*
X11863256Y-23588310D02*
X11853733Y-23578786D01*
X11853733Y-23578786D02*
X11844209Y-23559738D01*
X11844209Y-23559738D02*
X11834685Y-23521643D01*
X11834685Y-23521643D02*
X11834685Y-23474024D01*
X11834685Y-23474024D02*
X11844209Y-23435929D01*
X11844209Y-23435929D02*
X11853733Y-23416881D01*
X11853733Y-23416881D02*
X11863256Y-23407358D01*
X11863256Y-23407358D02*
X11882304Y-23397834D01*
X12034685Y-23578786D02*
X12044209Y-23588310D01*
X12044209Y-23588310D02*
X12034685Y-23597834D01*
X12034685Y-23597834D02*
X12025161Y-23588310D01*
X12025161Y-23588310D02*
X12034685Y-23578786D01*
X12034685Y-23578786D02*
X12034685Y-23597834D01*
X12168018Y-23397834D02*
X12187066Y-23397834D01*
X12187066Y-23397834D02*
X12206114Y-23407358D01*
X12206114Y-23407358D02*
X12215637Y-23416881D01*
X12215637Y-23416881D02*
X12225161Y-23435929D01*
X12225161Y-23435929D02*
X12234685Y-23474024D01*
X12234685Y-23474024D02*
X12234685Y-23521643D01*
X12234685Y-23521643D02*
X12225161Y-23559738D01*
X12225161Y-23559738D02*
X12215637Y-23578786D01*
X12215637Y-23578786D02*
X12206114Y-23588310D01*
X12206114Y-23588310D02*
X12187066Y-23597834D01*
X12187066Y-23597834D02*
X12168018Y-23597834D01*
X12168018Y-23597834D02*
X12148971Y-23588310D01*
X12148971Y-23588310D02*
X12139447Y-23578786D01*
X12139447Y-23578786D02*
X12129923Y-23559738D01*
X12129923Y-23559738D02*
X12120399Y-23521643D01*
X12120399Y-23521643D02*
X12120399Y-23474024D01*
X12120399Y-23474024D02*
X12129923Y-23435929D01*
X12129923Y-23435929D02*
X12139447Y-23416881D01*
X12139447Y-23416881D02*
X12148971Y-23407358D01*
X12148971Y-23407358D02*
X12168018Y-23397834D01*
X12406114Y-23464500D02*
X12406114Y-23597834D01*
X12358495Y-23388310D02*
X12310876Y-23531167D01*
X12310876Y-23531167D02*
X12434685Y-23531167D01*
X12606114Y-23397834D02*
X12510876Y-23397834D01*
X12510876Y-23397834D02*
X12501352Y-23493072D01*
X12501352Y-23493072D02*
X12510876Y-23483548D01*
X12510876Y-23483548D02*
X12529923Y-23474024D01*
X12529923Y-23474024D02*
X12577542Y-23474024D01*
X12577542Y-23474024D02*
X12596590Y-23483548D01*
X12596590Y-23483548D02*
X12606114Y-23493072D01*
X12606114Y-23493072D02*
X12615637Y-23512119D01*
X12615637Y-23512119D02*
X12615637Y-23559738D01*
X12615637Y-23559738D02*
X12606114Y-23578786D01*
X12606114Y-23578786D02*
X12596590Y-23588310D01*
X12596590Y-23588310D02*
X12577542Y-23597834D01*
X12577542Y-23597834D02*
X12529923Y-23597834D01*
X12529923Y-23597834D02*
X12510876Y-23588310D01*
X12510876Y-23588310D02*
X12501352Y-23578786D01*
X12787066Y-23464500D02*
X12787066Y-23597834D01*
X12739447Y-23388310D02*
X12691828Y-23531167D01*
X12691828Y-23531167D02*
X12815637Y-23531167D01*
X12882304Y-23397834D02*
X12882304Y-23435929D01*
X12958495Y-23397834D02*
X12958495Y-23435929D01*
X13253733Y-23674024D02*
X13244209Y-23664500D01*
X13244209Y-23664500D02*
X13225161Y-23635929D01*
X13225161Y-23635929D02*
X13215638Y-23616881D01*
X13215638Y-23616881D02*
X13206114Y-23588310D01*
X13206114Y-23588310D02*
X13196590Y-23540691D01*
X13196590Y-23540691D02*
X13196590Y-23502596D01*
X13196590Y-23502596D02*
X13206114Y-23454977D01*
X13206114Y-23454977D02*
X13215638Y-23426405D01*
X13215638Y-23426405D02*
X13225161Y-23407358D01*
X13225161Y-23407358D02*
X13244209Y-23378786D01*
X13244209Y-23378786D02*
X13253733Y-23369262D01*
X13310876Y-23397834D02*
X13434685Y-23397834D01*
X13434685Y-23397834D02*
X13368018Y-23474024D01*
X13368018Y-23474024D02*
X13396590Y-23474024D01*
X13396590Y-23474024D02*
X13415638Y-23483548D01*
X13415638Y-23483548D02*
X13425161Y-23493072D01*
X13425161Y-23493072D02*
X13434685Y-23512119D01*
X13434685Y-23512119D02*
X13434685Y-23559738D01*
X13434685Y-23559738D02*
X13425161Y-23578786D01*
X13425161Y-23578786D02*
X13415638Y-23588310D01*
X13415638Y-23588310D02*
X13396590Y-23597834D01*
X13396590Y-23597834D02*
X13339447Y-23597834D01*
X13339447Y-23597834D02*
X13320399Y-23588310D01*
X13320399Y-23588310D02*
X13310876Y-23578786D01*
X13672780Y-23597834D02*
X13672780Y-23397834D01*
X13758495Y-23597834D02*
X13758495Y-23493072D01*
X13758495Y-23493072D02*
X13748971Y-23474024D01*
X13748971Y-23474024D02*
X13729923Y-23464500D01*
X13729923Y-23464500D02*
X13701352Y-23464500D01*
X13701352Y-23464500D02*
X13682304Y-23474024D01*
X13682304Y-23474024D02*
X13672780Y-23483548D01*
X13882304Y-23597834D02*
X13863257Y-23588310D01*
X13863257Y-23588310D02*
X13853733Y-23578786D01*
X13853733Y-23578786D02*
X13844209Y-23559738D01*
X13844209Y-23559738D02*
X13844209Y-23502596D01*
X13844209Y-23502596D02*
X13853733Y-23483548D01*
X13853733Y-23483548D02*
X13863257Y-23474024D01*
X13863257Y-23474024D02*
X13882304Y-23464500D01*
X13882304Y-23464500D02*
X13910876Y-23464500D01*
X13910876Y-23464500D02*
X13929923Y-23474024D01*
X13929923Y-23474024D02*
X13939447Y-23483548D01*
X13939447Y-23483548D02*
X13948971Y-23502596D01*
X13948971Y-23502596D02*
X13948971Y-23559738D01*
X13948971Y-23559738D02*
X13939447Y-23578786D01*
X13939447Y-23578786D02*
X13929923Y-23588310D01*
X13929923Y-23588310D02*
X13910876Y-23597834D01*
X13910876Y-23597834D02*
X13882304Y-23597834D01*
X14063257Y-23597834D02*
X14044209Y-23588310D01*
X14044209Y-23588310D02*
X14034685Y-23569262D01*
X14034685Y-23569262D02*
X14034685Y-23397834D01*
X14215638Y-23588310D02*
X14196590Y-23597834D01*
X14196590Y-23597834D02*
X14158495Y-23597834D01*
X14158495Y-23597834D02*
X14139447Y-23588310D01*
X14139447Y-23588310D02*
X14129923Y-23569262D01*
X14129923Y-23569262D02*
X14129923Y-23493072D01*
X14129923Y-23493072D02*
X14139447Y-23474024D01*
X14139447Y-23474024D02*
X14158495Y-23464500D01*
X14158495Y-23464500D02*
X14196590Y-23464500D01*
X14196590Y-23464500D02*
X14215638Y-23474024D01*
X14215638Y-23474024D02*
X14225161Y-23493072D01*
X14225161Y-23493072D02*
X14225161Y-23512119D01*
X14225161Y-23512119D02*
X14129923Y-23531167D01*
X14301352Y-23588310D02*
X14320400Y-23597834D01*
X14320400Y-23597834D02*
X14358495Y-23597834D01*
X14358495Y-23597834D02*
X14377542Y-23588310D01*
X14377542Y-23588310D02*
X14387066Y-23569262D01*
X14387066Y-23569262D02*
X14387066Y-23559738D01*
X14387066Y-23559738D02*
X14377542Y-23540691D01*
X14377542Y-23540691D02*
X14358495Y-23531167D01*
X14358495Y-23531167D02*
X14329923Y-23531167D01*
X14329923Y-23531167D02*
X14310876Y-23521643D01*
X14310876Y-23521643D02*
X14301352Y-23502596D01*
X14301352Y-23502596D02*
X14301352Y-23493072D01*
X14301352Y-23493072D02*
X14310876Y-23474024D01*
X14310876Y-23474024D02*
X14329923Y-23464500D01*
X14329923Y-23464500D02*
X14358495Y-23464500D01*
X14358495Y-23464500D02*
X14377542Y-23474024D01*
X14453733Y-23674024D02*
X14463257Y-23664500D01*
X14463257Y-23664500D02*
X14482304Y-23635929D01*
X14482304Y-23635929D02*
X14491828Y-23616881D01*
X14491828Y-23616881D02*
X14501352Y-23588310D01*
X14501352Y-23588310D02*
X14510876Y-23540691D01*
X14510876Y-23540691D02*
X14510876Y-23502596D01*
X14510876Y-23502596D02*
X14501352Y-23454977D01*
X14501352Y-23454977D02*
X14491828Y-23426405D01*
X14491828Y-23426405D02*
X14482304Y-23407358D01*
X14482304Y-23407358D02*
X14463257Y-23378786D01*
X14463257Y-23378786D02*
X14453733Y-23369262D01*
X14815638Y-23674024D02*
X14806114Y-23664500D01*
X14806114Y-23664500D02*
X14787066Y-23635929D01*
X14787066Y-23635929D02*
X14777542Y-23616881D01*
X14777542Y-23616881D02*
X14768019Y-23588310D01*
X14768019Y-23588310D02*
X14758495Y-23540691D01*
X14758495Y-23540691D02*
X14758495Y-23502596D01*
X14758495Y-23502596D02*
X14768019Y-23454977D01*
X14768019Y-23454977D02*
X14777542Y-23426405D01*
X14777542Y-23426405D02*
X14787066Y-23407358D01*
X14787066Y-23407358D02*
X14806114Y-23378786D01*
X14806114Y-23378786D02*
X14815638Y-23369262D01*
X14891828Y-23464500D02*
X14891828Y-23597834D01*
X14891828Y-23483548D02*
X14901352Y-23474024D01*
X14901352Y-23474024D02*
X14920400Y-23464500D01*
X14920400Y-23464500D02*
X14948971Y-23464500D01*
X14948971Y-23464500D02*
X14968019Y-23474024D01*
X14968019Y-23474024D02*
X14977542Y-23493072D01*
X14977542Y-23493072D02*
X14977542Y-23597834D01*
X15101352Y-23597834D02*
X15082304Y-23588310D01*
X15082304Y-23588310D02*
X15072781Y-23578786D01*
X15072781Y-23578786D02*
X15063257Y-23559738D01*
X15063257Y-23559738D02*
X15063257Y-23502596D01*
X15063257Y-23502596D02*
X15072781Y-23483548D01*
X15072781Y-23483548D02*
X15082304Y-23474024D01*
X15082304Y-23474024D02*
X15101352Y-23464500D01*
X15101352Y-23464500D02*
X15129923Y-23464500D01*
X15129923Y-23464500D02*
X15148971Y-23474024D01*
X15148971Y-23474024D02*
X15158495Y-23483548D01*
X15158495Y-23483548D02*
X15168019Y-23502596D01*
X15168019Y-23502596D02*
X15168019Y-23559738D01*
X15168019Y-23559738D02*
X15158495Y-23578786D01*
X15158495Y-23578786D02*
X15148971Y-23588310D01*
X15148971Y-23588310D02*
X15129923Y-23597834D01*
X15129923Y-23597834D02*
X15101352Y-23597834D01*
X15225162Y-23464500D02*
X15301352Y-23464500D01*
X15253733Y-23397834D02*
X15253733Y-23569262D01*
X15253733Y-23569262D02*
X15263257Y-23588310D01*
X15263257Y-23588310D02*
X15282304Y-23597834D01*
X15282304Y-23597834D02*
X15301352Y-23597834D01*
X15520400Y-23464500D02*
X15520400Y-23664500D01*
X15520400Y-23474024D02*
X15539447Y-23464500D01*
X15539447Y-23464500D02*
X15577543Y-23464500D01*
X15577543Y-23464500D02*
X15596590Y-23474024D01*
X15596590Y-23474024D02*
X15606114Y-23483548D01*
X15606114Y-23483548D02*
X15615638Y-23502596D01*
X15615638Y-23502596D02*
X15615638Y-23559738D01*
X15615638Y-23559738D02*
X15606114Y-23578786D01*
X15606114Y-23578786D02*
X15596590Y-23588310D01*
X15596590Y-23588310D02*
X15577543Y-23597834D01*
X15577543Y-23597834D02*
X15539447Y-23597834D01*
X15539447Y-23597834D02*
X15520400Y-23588310D01*
X15729923Y-23597834D02*
X15710876Y-23588310D01*
X15710876Y-23588310D02*
X15701352Y-23569262D01*
X15701352Y-23569262D02*
X15701352Y-23397834D01*
X15891828Y-23597834D02*
X15891828Y-23493072D01*
X15891828Y-23493072D02*
X15882304Y-23474024D01*
X15882304Y-23474024D02*
X15863257Y-23464500D01*
X15863257Y-23464500D02*
X15825162Y-23464500D01*
X15825162Y-23464500D02*
X15806114Y-23474024D01*
X15891828Y-23588310D02*
X15872781Y-23597834D01*
X15872781Y-23597834D02*
X15825162Y-23597834D01*
X15825162Y-23597834D02*
X15806114Y-23588310D01*
X15806114Y-23588310D02*
X15796590Y-23569262D01*
X15796590Y-23569262D02*
X15796590Y-23550215D01*
X15796590Y-23550215D02*
X15806114Y-23531167D01*
X15806114Y-23531167D02*
X15825162Y-23521643D01*
X15825162Y-23521643D02*
X15872781Y-23521643D01*
X15872781Y-23521643D02*
X15891828Y-23512119D01*
X15958495Y-23464500D02*
X16034685Y-23464500D01*
X15987066Y-23397834D02*
X15987066Y-23569262D01*
X15987066Y-23569262D02*
X15996590Y-23588310D01*
X15996590Y-23588310D02*
X16015638Y-23597834D01*
X16015638Y-23597834D02*
X16034685Y-23597834D01*
X16177543Y-23588310D02*
X16158495Y-23597834D01*
X16158495Y-23597834D02*
X16120400Y-23597834D01*
X16120400Y-23597834D02*
X16101352Y-23588310D01*
X16101352Y-23588310D02*
X16091828Y-23569262D01*
X16091828Y-23569262D02*
X16091828Y-23493072D01*
X16091828Y-23493072D02*
X16101352Y-23474024D01*
X16101352Y-23474024D02*
X16120400Y-23464500D01*
X16120400Y-23464500D02*
X16158495Y-23464500D01*
X16158495Y-23464500D02*
X16177543Y-23474024D01*
X16177543Y-23474024D02*
X16187066Y-23493072D01*
X16187066Y-23493072D02*
X16187066Y-23512119D01*
X16187066Y-23512119D02*
X16091828Y-23531167D01*
X16358495Y-23597834D02*
X16358495Y-23397834D01*
X16358495Y-23588310D02*
X16339447Y-23597834D01*
X16339447Y-23597834D02*
X16301352Y-23597834D01*
X16301352Y-23597834D02*
X16282304Y-23588310D01*
X16282304Y-23588310D02*
X16272781Y-23578786D01*
X16272781Y-23578786D02*
X16263257Y-23559738D01*
X16263257Y-23559738D02*
X16263257Y-23502596D01*
X16263257Y-23502596D02*
X16272781Y-23483548D01*
X16272781Y-23483548D02*
X16282304Y-23474024D01*
X16282304Y-23474024D02*
X16301352Y-23464500D01*
X16301352Y-23464500D02*
X16339447Y-23464500D01*
X16339447Y-23464500D02*
X16358495Y-23474024D01*
X16434685Y-23674024D02*
X16444209Y-23664500D01*
X16444209Y-23664500D02*
X16463257Y-23635929D01*
X16463257Y-23635929D02*
X16472781Y-23616881D01*
X16472781Y-23616881D02*
X16482304Y-23588310D01*
X16482304Y-23588310D02*
X16491828Y-23540691D01*
X16491828Y-23540691D02*
X16491828Y-23502596D01*
X16491828Y-23502596D02*
X16482304Y-23454977D01*
X16482304Y-23454977D02*
X16472781Y-23426405D01*
X16472781Y-23426405D02*
X16463257Y-23407358D01*
X16463257Y-23407358D02*
X16444209Y-23378786D01*
X16444209Y-23378786D02*
X16434685Y-23369262D01*
X9678670Y-23770350D02*
G75*
G02*
X9478670Y-23770350I-100000J0D01*
G01*
X9478670Y-23770350D02*
G75*
G02*
X9678670Y-23770350I100000J0D01*
G01*
X9929923Y-23680881D02*
X9939447Y-23671358D01*
X9939447Y-23671358D02*
X9958494Y-23661834D01*
X9958494Y-23661834D02*
X10006114Y-23661834D01*
X10006114Y-23661834D02*
X10025161Y-23671358D01*
X10025161Y-23671358D02*
X10034685Y-23680881D01*
X10034685Y-23680881D02*
X10044209Y-23699929D01*
X10044209Y-23699929D02*
X10044209Y-23718977D01*
X10044209Y-23718977D02*
X10034685Y-23747548D01*
X10034685Y-23747548D02*
X9920399Y-23861834D01*
X9920399Y-23861834D02*
X10044209Y-23861834D01*
X10129923Y-23842786D02*
X10139447Y-23852310D01*
X10139447Y-23852310D02*
X10129923Y-23861834D01*
X10129923Y-23861834D02*
X10120399Y-23852310D01*
X10120399Y-23852310D02*
X10129923Y-23842786D01*
X10129923Y-23842786D02*
X10129923Y-23861834D01*
X10215637Y-23680881D02*
X10225161Y-23671358D01*
X10225161Y-23671358D02*
X10244209Y-23661834D01*
X10244209Y-23661834D02*
X10291828Y-23661834D01*
X10291828Y-23661834D02*
X10310875Y-23671358D01*
X10310875Y-23671358D02*
X10320399Y-23680881D01*
X10320399Y-23680881D02*
X10329923Y-23699929D01*
X10329923Y-23699929D02*
X10329923Y-23718977D01*
X10329923Y-23718977D02*
X10320399Y-23747548D01*
X10320399Y-23747548D02*
X10206114Y-23861834D01*
X10206114Y-23861834D02*
X10329923Y-23861834D01*
X10453733Y-23661834D02*
X10472780Y-23661834D01*
X10472780Y-23661834D02*
X10491828Y-23671358D01*
X10491828Y-23671358D02*
X10501352Y-23680881D01*
X10501352Y-23680881D02*
X10510875Y-23699929D01*
X10510875Y-23699929D02*
X10520399Y-23738024D01*
X10520399Y-23738024D02*
X10520399Y-23785643D01*
X10520399Y-23785643D02*
X10510875Y-23823738D01*
X10510875Y-23823738D02*
X10501352Y-23842786D01*
X10501352Y-23842786D02*
X10491828Y-23852310D01*
X10491828Y-23852310D02*
X10472780Y-23861834D01*
X10472780Y-23861834D02*
X10453733Y-23861834D01*
X10453733Y-23861834D02*
X10434685Y-23852310D01*
X10434685Y-23852310D02*
X10425161Y-23842786D01*
X10425161Y-23842786D02*
X10415637Y-23823738D01*
X10415637Y-23823738D02*
X10406114Y-23785643D01*
X10406114Y-23785643D02*
X10406114Y-23738024D01*
X10406114Y-23738024D02*
X10415637Y-23699929D01*
X10415637Y-23699929D02*
X10425161Y-23680881D01*
X10425161Y-23680881D02*
X10434685Y-23671358D01*
X10434685Y-23671358D02*
X10453733Y-23661834D01*
X10644209Y-23661834D02*
X10663256Y-23661834D01*
X10663256Y-23661834D02*
X10682304Y-23671358D01*
X10682304Y-23671358D02*
X10691828Y-23680881D01*
X10691828Y-23680881D02*
X10701352Y-23699929D01*
X10701352Y-23699929D02*
X10710875Y-23738024D01*
X10710875Y-23738024D02*
X10710875Y-23785643D01*
X10710875Y-23785643D02*
X10701352Y-23823738D01*
X10701352Y-23823738D02*
X10691828Y-23842786D01*
X10691828Y-23842786D02*
X10682304Y-23852310D01*
X10682304Y-23852310D02*
X10663256Y-23861834D01*
X10663256Y-23861834D02*
X10644209Y-23861834D01*
X10644209Y-23861834D02*
X10625161Y-23852310D01*
X10625161Y-23852310D02*
X10615637Y-23842786D01*
X10615637Y-23842786D02*
X10606114Y-23823738D01*
X10606114Y-23823738D02*
X10596590Y-23785643D01*
X10596590Y-23785643D02*
X10596590Y-23738024D01*
X10596590Y-23738024D02*
X10606114Y-23699929D01*
X10606114Y-23699929D02*
X10615637Y-23680881D01*
X10615637Y-23680881D02*
X10625161Y-23671358D01*
X10625161Y-23671358D02*
X10644209Y-23661834D01*
X10796590Y-23861834D02*
X10796590Y-23728500D01*
X10796590Y-23747548D02*
X10806114Y-23738024D01*
X10806114Y-23738024D02*
X10825161Y-23728500D01*
X10825161Y-23728500D02*
X10853733Y-23728500D01*
X10853733Y-23728500D02*
X10872780Y-23738024D01*
X10872780Y-23738024D02*
X10882304Y-23757072D01*
X10882304Y-23757072D02*
X10882304Y-23861834D01*
X10882304Y-23757072D02*
X10891828Y-23738024D01*
X10891828Y-23738024D02*
X10910875Y-23728500D01*
X10910875Y-23728500D02*
X10939447Y-23728500D01*
X10939447Y-23728500D02*
X10958495Y-23738024D01*
X10958495Y-23738024D02*
X10968018Y-23757072D01*
X10968018Y-23757072D02*
X10968018Y-23861834D01*
X11063256Y-23861834D02*
X11063256Y-23728500D01*
X11063256Y-23747548D02*
X11072780Y-23738024D01*
X11072780Y-23738024D02*
X11091828Y-23728500D01*
X11091828Y-23728500D02*
X11120399Y-23728500D01*
X11120399Y-23728500D02*
X11139447Y-23738024D01*
X11139447Y-23738024D02*
X11148971Y-23757072D01*
X11148971Y-23757072D02*
X11148971Y-23861834D01*
X11148971Y-23757072D02*
X11158495Y-23738024D01*
X11158495Y-23738024D02*
X11177542Y-23728500D01*
X11177542Y-23728500D02*
X11206113Y-23728500D01*
X11206113Y-23728500D02*
X11225161Y-23738024D01*
X11225161Y-23738024D02*
X11234685Y-23757072D01*
X11234685Y-23757072D02*
X11234685Y-23861834D01*
X11625161Y-23652310D02*
X11453733Y-23909453D01*
X11882304Y-23661834D02*
X11901352Y-23661834D01*
X11901352Y-23661834D02*
X11920399Y-23671358D01*
X11920399Y-23671358D02*
X11929923Y-23680881D01*
X11929923Y-23680881D02*
X11939447Y-23699929D01*
X11939447Y-23699929D02*
X11948971Y-23738024D01*
X11948971Y-23738024D02*
X11948971Y-23785643D01*
X11948971Y-23785643D02*
X11939447Y-23823738D01*
X11939447Y-23823738D02*
X11929923Y-23842786D01*
X11929923Y-23842786D02*
X11920399Y-23852310D01*
X11920399Y-23852310D02*
X11901352Y-23861834D01*
X11901352Y-23861834D02*
X11882304Y-23861834D01*
X11882304Y-23861834D02*
X11863256Y-23852310D01*
X11863256Y-23852310D02*
X11853733Y-23842786D01*
X11853733Y-23842786D02*
X11844209Y-23823738D01*
X11844209Y-23823738D02*
X11834685Y-23785643D01*
X11834685Y-23785643D02*
X11834685Y-23738024D01*
X11834685Y-23738024D02*
X11844209Y-23699929D01*
X11844209Y-23699929D02*
X11853733Y-23680881D01*
X11853733Y-23680881D02*
X11863256Y-23671358D01*
X11863256Y-23671358D02*
X11882304Y-23661834D01*
X12034685Y-23842786D02*
X12044209Y-23852310D01*
X12044209Y-23852310D02*
X12034685Y-23861834D01*
X12034685Y-23861834D02*
X12025161Y-23852310D01*
X12025161Y-23852310D02*
X12034685Y-23842786D01*
X12034685Y-23842786D02*
X12034685Y-23861834D01*
X12168018Y-23661834D02*
X12187066Y-23661834D01*
X12187066Y-23661834D02*
X12206114Y-23671358D01*
X12206114Y-23671358D02*
X12215637Y-23680881D01*
X12215637Y-23680881D02*
X12225161Y-23699929D01*
X12225161Y-23699929D02*
X12234685Y-23738024D01*
X12234685Y-23738024D02*
X12234685Y-23785643D01*
X12234685Y-23785643D02*
X12225161Y-23823738D01*
X12225161Y-23823738D02*
X12215637Y-23842786D01*
X12215637Y-23842786D02*
X12206114Y-23852310D01*
X12206114Y-23852310D02*
X12187066Y-23861834D01*
X12187066Y-23861834D02*
X12168018Y-23861834D01*
X12168018Y-23861834D02*
X12148971Y-23852310D01*
X12148971Y-23852310D02*
X12139447Y-23842786D01*
X12139447Y-23842786D02*
X12129923Y-23823738D01*
X12129923Y-23823738D02*
X12120399Y-23785643D01*
X12120399Y-23785643D02*
X12120399Y-23738024D01*
X12120399Y-23738024D02*
X12129923Y-23699929D01*
X12129923Y-23699929D02*
X12139447Y-23680881D01*
X12139447Y-23680881D02*
X12148971Y-23671358D01*
X12148971Y-23671358D02*
X12168018Y-23661834D01*
X12348971Y-23747548D02*
X12329923Y-23738024D01*
X12329923Y-23738024D02*
X12320399Y-23728500D01*
X12320399Y-23728500D02*
X12310876Y-23709453D01*
X12310876Y-23709453D02*
X12310876Y-23699929D01*
X12310876Y-23699929D02*
X12320399Y-23680881D01*
X12320399Y-23680881D02*
X12329923Y-23671358D01*
X12329923Y-23671358D02*
X12348971Y-23661834D01*
X12348971Y-23661834D02*
X12387066Y-23661834D01*
X12387066Y-23661834D02*
X12406114Y-23671358D01*
X12406114Y-23671358D02*
X12415637Y-23680881D01*
X12415637Y-23680881D02*
X12425161Y-23699929D01*
X12425161Y-23699929D02*
X12425161Y-23709453D01*
X12425161Y-23709453D02*
X12415637Y-23728500D01*
X12415637Y-23728500D02*
X12406114Y-23738024D01*
X12406114Y-23738024D02*
X12387066Y-23747548D01*
X12387066Y-23747548D02*
X12348971Y-23747548D01*
X12348971Y-23747548D02*
X12329923Y-23757072D01*
X12329923Y-23757072D02*
X12320399Y-23766596D01*
X12320399Y-23766596D02*
X12310876Y-23785643D01*
X12310876Y-23785643D02*
X12310876Y-23823738D01*
X12310876Y-23823738D02*
X12320399Y-23842786D01*
X12320399Y-23842786D02*
X12329923Y-23852310D01*
X12329923Y-23852310D02*
X12348971Y-23861834D01*
X12348971Y-23861834D02*
X12387066Y-23861834D01*
X12387066Y-23861834D02*
X12406114Y-23852310D01*
X12406114Y-23852310D02*
X12415637Y-23842786D01*
X12415637Y-23842786D02*
X12425161Y-23823738D01*
X12425161Y-23823738D02*
X12425161Y-23785643D01*
X12425161Y-23785643D02*
X12415637Y-23766596D01*
X12415637Y-23766596D02*
X12406114Y-23757072D01*
X12406114Y-23757072D02*
X12387066Y-23747548D01*
X12596590Y-23661834D02*
X12558495Y-23661834D01*
X12558495Y-23661834D02*
X12539447Y-23671358D01*
X12539447Y-23671358D02*
X12529923Y-23680881D01*
X12529923Y-23680881D02*
X12510876Y-23709453D01*
X12510876Y-23709453D02*
X12501352Y-23747548D01*
X12501352Y-23747548D02*
X12501352Y-23823738D01*
X12501352Y-23823738D02*
X12510876Y-23842786D01*
X12510876Y-23842786D02*
X12520399Y-23852310D01*
X12520399Y-23852310D02*
X12539447Y-23861834D01*
X12539447Y-23861834D02*
X12577542Y-23861834D01*
X12577542Y-23861834D02*
X12596590Y-23852310D01*
X12596590Y-23852310D02*
X12606114Y-23842786D01*
X12606114Y-23842786D02*
X12615637Y-23823738D01*
X12615637Y-23823738D02*
X12615637Y-23776119D01*
X12615637Y-23776119D02*
X12606114Y-23757072D01*
X12606114Y-23757072D02*
X12596590Y-23747548D01*
X12596590Y-23747548D02*
X12577542Y-23738024D01*
X12577542Y-23738024D02*
X12539447Y-23738024D01*
X12539447Y-23738024D02*
X12520399Y-23747548D01*
X12520399Y-23747548D02*
X12510876Y-23757072D01*
X12510876Y-23757072D02*
X12501352Y-23776119D01*
X12787066Y-23661834D02*
X12748971Y-23661834D01*
X12748971Y-23661834D02*
X12729923Y-23671358D01*
X12729923Y-23671358D02*
X12720399Y-23680881D01*
X12720399Y-23680881D02*
X12701352Y-23709453D01*
X12701352Y-23709453D02*
X12691828Y-23747548D01*
X12691828Y-23747548D02*
X12691828Y-23823738D01*
X12691828Y-23823738D02*
X12701352Y-23842786D01*
X12701352Y-23842786D02*
X12710876Y-23852310D01*
X12710876Y-23852310D02*
X12729923Y-23861834D01*
X12729923Y-23861834D02*
X12768018Y-23861834D01*
X12768018Y-23861834D02*
X12787066Y-23852310D01*
X12787066Y-23852310D02*
X12796590Y-23842786D01*
X12796590Y-23842786D02*
X12806114Y-23823738D01*
X12806114Y-23823738D02*
X12806114Y-23776119D01*
X12806114Y-23776119D02*
X12796590Y-23757072D01*
X12796590Y-23757072D02*
X12787066Y-23747548D01*
X12787066Y-23747548D02*
X12768018Y-23738024D01*
X12768018Y-23738024D02*
X12729923Y-23738024D01*
X12729923Y-23738024D02*
X12710876Y-23747548D01*
X12710876Y-23747548D02*
X12701352Y-23757072D01*
X12701352Y-23757072D02*
X12691828Y-23776119D01*
X12882304Y-23661834D02*
X12882304Y-23699929D01*
X12958495Y-23661834D02*
X12958495Y-23699929D01*
X13253733Y-23938024D02*
X13244209Y-23928500D01*
X13244209Y-23928500D02*
X13225161Y-23899929D01*
X13225161Y-23899929D02*
X13215638Y-23880881D01*
X13215638Y-23880881D02*
X13206114Y-23852310D01*
X13206114Y-23852310D02*
X13196590Y-23804691D01*
X13196590Y-23804691D02*
X13196590Y-23766596D01*
X13196590Y-23766596D02*
X13206114Y-23718977D01*
X13206114Y-23718977D02*
X13215638Y-23690405D01*
X13215638Y-23690405D02*
X13225161Y-23671358D01*
X13225161Y-23671358D02*
X13244209Y-23642786D01*
X13244209Y-23642786D02*
X13253733Y-23633262D01*
X13434685Y-23861834D02*
X13320399Y-23861834D01*
X13377542Y-23861834D02*
X13377542Y-23661834D01*
X13377542Y-23661834D02*
X13358495Y-23690405D01*
X13358495Y-23690405D02*
X13339447Y-23709453D01*
X13339447Y-23709453D02*
X13320399Y-23718977D01*
X13672780Y-23861834D02*
X13672780Y-23661834D01*
X13758495Y-23861834D02*
X13758495Y-23757072D01*
X13758495Y-23757072D02*
X13748971Y-23738024D01*
X13748971Y-23738024D02*
X13729923Y-23728500D01*
X13729923Y-23728500D02*
X13701352Y-23728500D01*
X13701352Y-23728500D02*
X13682304Y-23738024D01*
X13682304Y-23738024D02*
X13672780Y-23747548D01*
X13882304Y-23861834D02*
X13863257Y-23852310D01*
X13863257Y-23852310D02*
X13853733Y-23842786D01*
X13853733Y-23842786D02*
X13844209Y-23823738D01*
X13844209Y-23823738D02*
X13844209Y-23766596D01*
X13844209Y-23766596D02*
X13853733Y-23747548D01*
X13853733Y-23747548D02*
X13863257Y-23738024D01*
X13863257Y-23738024D02*
X13882304Y-23728500D01*
X13882304Y-23728500D02*
X13910876Y-23728500D01*
X13910876Y-23728500D02*
X13929923Y-23738024D01*
X13929923Y-23738024D02*
X13939447Y-23747548D01*
X13939447Y-23747548D02*
X13948971Y-23766596D01*
X13948971Y-23766596D02*
X13948971Y-23823738D01*
X13948971Y-23823738D02*
X13939447Y-23842786D01*
X13939447Y-23842786D02*
X13929923Y-23852310D01*
X13929923Y-23852310D02*
X13910876Y-23861834D01*
X13910876Y-23861834D02*
X13882304Y-23861834D01*
X14063257Y-23861834D02*
X14044209Y-23852310D01*
X14044209Y-23852310D02*
X14034685Y-23833262D01*
X14034685Y-23833262D02*
X14034685Y-23661834D01*
X14215638Y-23852310D02*
X14196590Y-23861834D01*
X14196590Y-23861834D02*
X14158495Y-23861834D01*
X14158495Y-23861834D02*
X14139447Y-23852310D01*
X14139447Y-23852310D02*
X14129923Y-23833262D01*
X14129923Y-23833262D02*
X14129923Y-23757072D01*
X14129923Y-23757072D02*
X14139447Y-23738024D01*
X14139447Y-23738024D02*
X14158495Y-23728500D01*
X14158495Y-23728500D02*
X14196590Y-23728500D01*
X14196590Y-23728500D02*
X14215638Y-23738024D01*
X14215638Y-23738024D02*
X14225161Y-23757072D01*
X14225161Y-23757072D02*
X14225161Y-23776119D01*
X14225161Y-23776119D02*
X14129923Y-23795167D01*
X14291828Y-23938024D02*
X14301352Y-23928500D01*
X14301352Y-23928500D02*
X14320400Y-23899929D01*
X14320400Y-23899929D02*
X14329923Y-23880881D01*
X14329923Y-23880881D02*
X14339447Y-23852310D01*
X14339447Y-23852310D02*
X14348971Y-23804691D01*
X14348971Y-23804691D02*
X14348971Y-23766596D01*
X14348971Y-23766596D02*
X14339447Y-23718977D01*
X14339447Y-23718977D02*
X14329923Y-23690405D01*
X14329923Y-23690405D02*
X14320400Y-23671358D01*
X14320400Y-23671358D02*
X14301352Y-23642786D01*
X14301352Y-23642786D02*
X14291828Y-23633262D01*
X14653733Y-23938024D02*
X14644209Y-23928500D01*
X14644209Y-23928500D02*
X14625161Y-23899929D01*
X14625161Y-23899929D02*
X14615638Y-23880881D01*
X14615638Y-23880881D02*
X14606114Y-23852310D01*
X14606114Y-23852310D02*
X14596590Y-23804691D01*
X14596590Y-23804691D02*
X14596590Y-23766596D01*
X14596590Y-23766596D02*
X14606114Y-23718977D01*
X14606114Y-23718977D02*
X14615638Y-23690405D01*
X14615638Y-23690405D02*
X14625161Y-23671358D01*
X14625161Y-23671358D02*
X14644209Y-23642786D01*
X14644209Y-23642786D02*
X14653733Y-23633262D01*
X14729923Y-23728500D02*
X14729923Y-23861834D01*
X14729923Y-23747548D02*
X14739447Y-23738024D01*
X14739447Y-23738024D02*
X14758495Y-23728500D01*
X14758495Y-23728500D02*
X14787066Y-23728500D01*
X14787066Y-23728500D02*
X14806114Y-23738024D01*
X14806114Y-23738024D02*
X14815638Y-23757072D01*
X14815638Y-23757072D02*
X14815638Y-23861834D01*
X14939447Y-23861834D02*
X14920400Y-23852310D01*
X14920400Y-23852310D02*
X14910876Y-23842786D01*
X14910876Y-23842786D02*
X14901352Y-23823738D01*
X14901352Y-23823738D02*
X14901352Y-23766596D01*
X14901352Y-23766596D02*
X14910876Y-23747548D01*
X14910876Y-23747548D02*
X14920400Y-23738024D01*
X14920400Y-23738024D02*
X14939447Y-23728500D01*
X14939447Y-23728500D02*
X14968019Y-23728500D01*
X14968019Y-23728500D02*
X14987066Y-23738024D01*
X14987066Y-23738024D02*
X14996590Y-23747548D01*
X14996590Y-23747548D02*
X15006114Y-23766596D01*
X15006114Y-23766596D02*
X15006114Y-23823738D01*
X15006114Y-23823738D02*
X14996590Y-23842786D01*
X14996590Y-23842786D02*
X14987066Y-23852310D01*
X14987066Y-23852310D02*
X14968019Y-23861834D01*
X14968019Y-23861834D02*
X14939447Y-23861834D01*
X15063257Y-23728500D02*
X15139447Y-23728500D01*
X15091828Y-23661834D02*
X15091828Y-23833262D01*
X15091828Y-23833262D02*
X15101352Y-23852310D01*
X15101352Y-23852310D02*
X15120400Y-23861834D01*
X15120400Y-23861834D02*
X15139447Y-23861834D01*
X15358495Y-23728500D02*
X15358495Y-23928500D01*
X15358495Y-23738024D02*
X15377542Y-23728500D01*
X15377542Y-23728500D02*
X15415638Y-23728500D01*
X15415638Y-23728500D02*
X15434685Y-23738024D01*
X15434685Y-23738024D02*
X15444209Y-23747548D01*
X15444209Y-23747548D02*
X15453733Y-23766596D01*
X15453733Y-23766596D02*
X15453733Y-23823738D01*
X15453733Y-23823738D02*
X15444209Y-23842786D01*
X15444209Y-23842786D02*
X15434685Y-23852310D01*
X15434685Y-23852310D02*
X15415638Y-23861834D01*
X15415638Y-23861834D02*
X15377542Y-23861834D01*
X15377542Y-23861834D02*
X15358495Y-23852310D01*
X15568019Y-23861834D02*
X15548971Y-23852310D01*
X15548971Y-23852310D02*
X15539447Y-23833262D01*
X15539447Y-23833262D02*
X15539447Y-23661834D01*
X15729923Y-23861834D02*
X15729923Y-23757072D01*
X15729923Y-23757072D02*
X15720400Y-23738024D01*
X15720400Y-23738024D02*
X15701352Y-23728500D01*
X15701352Y-23728500D02*
X15663257Y-23728500D01*
X15663257Y-23728500D02*
X15644209Y-23738024D01*
X15729923Y-23852310D02*
X15710876Y-23861834D01*
X15710876Y-23861834D02*
X15663257Y-23861834D01*
X15663257Y-23861834D02*
X15644209Y-23852310D01*
X15644209Y-23852310D02*
X15634685Y-23833262D01*
X15634685Y-23833262D02*
X15634685Y-23814215D01*
X15634685Y-23814215D02*
X15644209Y-23795167D01*
X15644209Y-23795167D02*
X15663257Y-23785643D01*
X15663257Y-23785643D02*
X15710876Y-23785643D01*
X15710876Y-23785643D02*
X15729923Y-23776119D01*
X15796590Y-23728500D02*
X15872781Y-23728500D01*
X15825162Y-23661834D02*
X15825162Y-23833262D01*
X15825162Y-23833262D02*
X15834685Y-23852310D01*
X15834685Y-23852310D02*
X15853733Y-23861834D01*
X15853733Y-23861834D02*
X15872781Y-23861834D01*
X16015638Y-23852310D02*
X15996590Y-23861834D01*
X15996590Y-23861834D02*
X15958495Y-23861834D01*
X15958495Y-23861834D02*
X15939447Y-23852310D01*
X15939447Y-23852310D02*
X15929923Y-23833262D01*
X15929923Y-23833262D02*
X15929923Y-23757072D01*
X15929923Y-23757072D02*
X15939447Y-23738024D01*
X15939447Y-23738024D02*
X15958495Y-23728500D01*
X15958495Y-23728500D02*
X15996590Y-23728500D01*
X15996590Y-23728500D02*
X16015638Y-23738024D01*
X16015638Y-23738024D02*
X16025162Y-23757072D01*
X16025162Y-23757072D02*
X16025162Y-23776119D01*
X16025162Y-23776119D02*
X15929923Y-23795167D01*
X16196590Y-23861834D02*
X16196590Y-23661834D01*
X16196590Y-23852310D02*
X16177543Y-23861834D01*
X16177543Y-23861834D02*
X16139447Y-23861834D01*
X16139447Y-23861834D02*
X16120400Y-23852310D01*
X16120400Y-23852310D02*
X16110876Y-23842786D01*
X16110876Y-23842786D02*
X16101352Y-23823738D01*
X16101352Y-23823738D02*
X16101352Y-23766596D01*
X16101352Y-23766596D02*
X16110876Y-23747548D01*
X16110876Y-23747548D02*
X16120400Y-23738024D01*
X16120400Y-23738024D02*
X16139447Y-23728500D01*
X16139447Y-23728500D02*
X16177543Y-23728500D01*
X16177543Y-23728500D02*
X16196590Y-23738024D01*
X16272781Y-23938024D02*
X16282304Y-23928500D01*
X16282304Y-23928500D02*
X16301352Y-23899929D01*
X16301352Y-23899929D02*
X16310876Y-23880881D01*
X16310876Y-23880881D02*
X16320400Y-23852310D01*
X16320400Y-23852310D02*
X16329923Y-23804691D01*
X16329923Y-23804691D02*
X16329923Y-23766596D01*
X16329923Y-23766596D02*
X16320400Y-23718977D01*
X16320400Y-23718977D02*
X16310876Y-23690405D01*
X16310876Y-23690405D02*
X16301352Y-23671358D01*
X16301352Y-23671358D02*
X16282304Y-23642786D01*
X16282304Y-23642786D02*
X16272781Y-23633262D01*
X9578670Y-23990350D02*
X9578670Y-24190350D01*
X9478670Y-24090350D02*
X9678670Y-24090350D01*
X9929923Y-24000881D02*
X9939447Y-23991358D01*
X9939447Y-23991358D02*
X9958494Y-23981834D01*
X9958494Y-23981834D02*
X10006114Y-23981834D01*
X10006114Y-23981834D02*
X10025161Y-23991358D01*
X10025161Y-23991358D02*
X10034685Y-24000881D01*
X10034685Y-24000881D02*
X10044209Y-24019929D01*
X10044209Y-24019929D02*
X10044209Y-24038977D01*
X10044209Y-24038977D02*
X10034685Y-24067548D01*
X10034685Y-24067548D02*
X9920399Y-24181834D01*
X9920399Y-24181834D02*
X10044209Y-24181834D01*
X10129923Y-24162786D02*
X10139447Y-24172310D01*
X10139447Y-24172310D02*
X10129923Y-24181834D01*
X10129923Y-24181834D02*
X10120399Y-24172310D01*
X10120399Y-24172310D02*
X10129923Y-24162786D01*
X10129923Y-24162786D02*
X10129923Y-24181834D01*
X10310875Y-23981834D02*
X10272780Y-23981834D01*
X10272780Y-23981834D02*
X10253733Y-23991358D01*
X10253733Y-23991358D02*
X10244209Y-24000881D01*
X10244209Y-24000881D02*
X10225161Y-24029453D01*
X10225161Y-24029453D02*
X10215637Y-24067548D01*
X10215637Y-24067548D02*
X10215637Y-24143738D01*
X10215637Y-24143738D02*
X10225161Y-24162786D01*
X10225161Y-24162786D02*
X10234685Y-24172310D01*
X10234685Y-24172310D02*
X10253733Y-24181834D01*
X10253733Y-24181834D02*
X10291828Y-24181834D01*
X10291828Y-24181834D02*
X10310875Y-24172310D01*
X10310875Y-24172310D02*
X10320399Y-24162786D01*
X10320399Y-24162786D02*
X10329923Y-24143738D01*
X10329923Y-24143738D02*
X10329923Y-24096119D01*
X10329923Y-24096119D02*
X10320399Y-24077072D01*
X10320399Y-24077072D02*
X10310875Y-24067548D01*
X10310875Y-24067548D02*
X10291828Y-24058024D01*
X10291828Y-24058024D02*
X10253733Y-24058024D01*
X10253733Y-24058024D02*
X10234685Y-24067548D01*
X10234685Y-24067548D02*
X10225161Y-24077072D01*
X10225161Y-24077072D02*
X10215637Y-24096119D01*
X10453733Y-23981834D02*
X10472780Y-23981834D01*
X10472780Y-23981834D02*
X10491828Y-23991358D01*
X10491828Y-23991358D02*
X10501352Y-24000881D01*
X10501352Y-24000881D02*
X10510875Y-24019929D01*
X10510875Y-24019929D02*
X10520399Y-24058024D01*
X10520399Y-24058024D02*
X10520399Y-24105643D01*
X10520399Y-24105643D02*
X10510875Y-24143738D01*
X10510875Y-24143738D02*
X10501352Y-24162786D01*
X10501352Y-24162786D02*
X10491828Y-24172310D01*
X10491828Y-24172310D02*
X10472780Y-24181834D01*
X10472780Y-24181834D02*
X10453733Y-24181834D01*
X10453733Y-24181834D02*
X10434685Y-24172310D01*
X10434685Y-24172310D02*
X10425161Y-24162786D01*
X10425161Y-24162786D02*
X10415637Y-24143738D01*
X10415637Y-24143738D02*
X10406114Y-24105643D01*
X10406114Y-24105643D02*
X10406114Y-24058024D01*
X10406114Y-24058024D02*
X10415637Y-24019929D01*
X10415637Y-24019929D02*
X10425161Y-24000881D01*
X10425161Y-24000881D02*
X10434685Y-23991358D01*
X10434685Y-23991358D02*
X10453733Y-23981834D01*
X10644209Y-23981834D02*
X10663256Y-23981834D01*
X10663256Y-23981834D02*
X10682304Y-23991358D01*
X10682304Y-23991358D02*
X10691828Y-24000881D01*
X10691828Y-24000881D02*
X10701352Y-24019929D01*
X10701352Y-24019929D02*
X10710875Y-24058024D01*
X10710875Y-24058024D02*
X10710875Y-24105643D01*
X10710875Y-24105643D02*
X10701352Y-24143738D01*
X10701352Y-24143738D02*
X10691828Y-24162786D01*
X10691828Y-24162786D02*
X10682304Y-24172310D01*
X10682304Y-24172310D02*
X10663256Y-24181834D01*
X10663256Y-24181834D02*
X10644209Y-24181834D01*
X10644209Y-24181834D02*
X10625161Y-24172310D01*
X10625161Y-24172310D02*
X10615637Y-24162786D01*
X10615637Y-24162786D02*
X10606114Y-24143738D01*
X10606114Y-24143738D02*
X10596590Y-24105643D01*
X10596590Y-24105643D02*
X10596590Y-24058024D01*
X10596590Y-24058024D02*
X10606114Y-24019929D01*
X10606114Y-24019929D02*
X10615637Y-24000881D01*
X10615637Y-24000881D02*
X10625161Y-23991358D01*
X10625161Y-23991358D02*
X10644209Y-23981834D01*
X10796590Y-24181834D02*
X10796590Y-24048500D01*
X10796590Y-24067548D02*
X10806114Y-24058024D01*
X10806114Y-24058024D02*
X10825161Y-24048500D01*
X10825161Y-24048500D02*
X10853733Y-24048500D01*
X10853733Y-24048500D02*
X10872780Y-24058024D01*
X10872780Y-24058024D02*
X10882304Y-24077072D01*
X10882304Y-24077072D02*
X10882304Y-24181834D01*
X10882304Y-24077072D02*
X10891828Y-24058024D01*
X10891828Y-24058024D02*
X10910875Y-24048500D01*
X10910875Y-24048500D02*
X10939447Y-24048500D01*
X10939447Y-24048500D02*
X10958495Y-24058024D01*
X10958495Y-24058024D02*
X10968018Y-24077072D01*
X10968018Y-24077072D02*
X10968018Y-24181834D01*
X11063256Y-24181834D02*
X11063256Y-24048500D01*
X11063256Y-24067548D02*
X11072780Y-24058024D01*
X11072780Y-24058024D02*
X11091828Y-24048500D01*
X11091828Y-24048500D02*
X11120399Y-24048500D01*
X11120399Y-24048500D02*
X11139447Y-24058024D01*
X11139447Y-24058024D02*
X11148971Y-24077072D01*
X11148971Y-24077072D02*
X11148971Y-24181834D01*
X11148971Y-24077072D02*
X11158495Y-24058024D01*
X11158495Y-24058024D02*
X11177542Y-24048500D01*
X11177542Y-24048500D02*
X11206113Y-24048500D01*
X11206113Y-24048500D02*
X11225161Y-24058024D01*
X11225161Y-24058024D02*
X11234685Y-24077072D01*
X11234685Y-24077072D02*
X11234685Y-24181834D01*
X11625161Y-23972310D02*
X11453733Y-24229453D01*
X11882304Y-23981834D02*
X11901352Y-23981834D01*
X11901352Y-23981834D02*
X11920399Y-23991358D01*
X11920399Y-23991358D02*
X11929923Y-24000881D01*
X11929923Y-24000881D02*
X11939447Y-24019929D01*
X11939447Y-24019929D02*
X11948971Y-24058024D01*
X11948971Y-24058024D02*
X11948971Y-24105643D01*
X11948971Y-24105643D02*
X11939447Y-24143738D01*
X11939447Y-24143738D02*
X11929923Y-24162786D01*
X11929923Y-24162786D02*
X11920399Y-24172310D01*
X11920399Y-24172310D02*
X11901352Y-24181834D01*
X11901352Y-24181834D02*
X11882304Y-24181834D01*
X11882304Y-24181834D02*
X11863256Y-24172310D01*
X11863256Y-24172310D02*
X11853733Y-24162786D01*
X11853733Y-24162786D02*
X11844209Y-24143738D01*
X11844209Y-24143738D02*
X11834685Y-24105643D01*
X11834685Y-24105643D02*
X11834685Y-24058024D01*
X11834685Y-24058024D02*
X11844209Y-24019929D01*
X11844209Y-24019929D02*
X11853733Y-24000881D01*
X11853733Y-24000881D02*
X11863256Y-23991358D01*
X11863256Y-23991358D02*
X11882304Y-23981834D01*
X12034685Y-24162786D02*
X12044209Y-24172310D01*
X12044209Y-24172310D02*
X12034685Y-24181834D01*
X12034685Y-24181834D02*
X12025161Y-24172310D01*
X12025161Y-24172310D02*
X12034685Y-24162786D01*
X12034685Y-24162786D02*
X12034685Y-24181834D01*
X12234685Y-24181834D02*
X12120399Y-24181834D01*
X12177542Y-24181834D02*
X12177542Y-23981834D01*
X12177542Y-23981834D02*
X12158495Y-24010405D01*
X12158495Y-24010405D02*
X12139447Y-24029453D01*
X12139447Y-24029453D02*
X12120399Y-24038977D01*
X12358495Y-23981834D02*
X12377542Y-23981834D01*
X12377542Y-23981834D02*
X12396590Y-23991358D01*
X12396590Y-23991358D02*
X12406114Y-24000881D01*
X12406114Y-24000881D02*
X12415637Y-24019929D01*
X12415637Y-24019929D02*
X12425161Y-24058024D01*
X12425161Y-24058024D02*
X12425161Y-24105643D01*
X12425161Y-24105643D02*
X12415637Y-24143738D01*
X12415637Y-24143738D02*
X12406114Y-24162786D01*
X12406114Y-24162786D02*
X12396590Y-24172310D01*
X12396590Y-24172310D02*
X12377542Y-24181834D01*
X12377542Y-24181834D02*
X12358495Y-24181834D01*
X12358495Y-24181834D02*
X12339447Y-24172310D01*
X12339447Y-24172310D02*
X12329923Y-24162786D01*
X12329923Y-24162786D02*
X12320399Y-24143738D01*
X12320399Y-24143738D02*
X12310876Y-24105643D01*
X12310876Y-24105643D02*
X12310876Y-24058024D01*
X12310876Y-24058024D02*
X12320399Y-24019929D01*
X12320399Y-24019929D02*
X12329923Y-24000881D01*
X12329923Y-24000881D02*
X12339447Y-23991358D01*
X12339447Y-23991358D02*
X12358495Y-23981834D01*
X12501352Y-24000881D02*
X12510876Y-23991358D01*
X12510876Y-23991358D02*
X12529923Y-23981834D01*
X12529923Y-23981834D02*
X12577542Y-23981834D01*
X12577542Y-23981834D02*
X12596590Y-23991358D01*
X12596590Y-23991358D02*
X12606114Y-24000881D01*
X12606114Y-24000881D02*
X12615637Y-24019929D01*
X12615637Y-24019929D02*
X12615637Y-24038977D01*
X12615637Y-24038977D02*
X12606114Y-24067548D01*
X12606114Y-24067548D02*
X12491828Y-24181834D01*
X12491828Y-24181834D02*
X12615637Y-24181834D01*
X12787066Y-24048500D02*
X12787066Y-24181834D01*
X12739447Y-23972310D02*
X12691828Y-24115167D01*
X12691828Y-24115167D02*
X12815637Y-24115167D01*
X12882304Y-23981834D02*
X12882304Y-24019929D01*
X12958495Y-23981834D02*
X12958495Y-24019929D01*
X13253733Y-24258024D02*
X13244209Y-24248500D01*
X13244209Y-24248500D02*
X13225161Y-24219929D01*
X13225161Y-24219929D02*
X13215638Y-24200881D01*
X13215638Y-24200881D02*
X13206114Y-24172310D01*
X13206114Y-24172310D02*
X13196590Y-24124691D01*
X13196590Y-24124691D02*
X13196590Y-24086596D01*
X13196590Y-24086596D02*
X13206114Y-24038977D01*
X13206114Y-24038977D02*
X13215638Y-24010405D01*
X13215638Y-24010405D02*
X13225161Y-23991358D01*
X13225161Y-23991358D02*
X13244209Y-23962786D01*
X13244209Y-23962786D02*
X13253733Y-23953262D01*
X13434685Y-24181834D02*
X13320399Y-24181834D01*
X13377542Y-24181834D02*
X13377542Y-23981834D01*
X13377542Y-23981834D02*
X13358495Y-24010405D01*
X13358495Y-24010405D02*
X13339447Y-24029453D01*
X13339447Y-24029453D02*
X13320399Y-24038977D01*
X13672780Y-24181834D02*
X13672780Y-23981834D01*
X13758495Y-24181834D02*
X13758495Y-24077072D01*
X13758495Y-24077072D02*
X13748971Y-24058024D01*
X13748971Y-24058024D02*
X13729923Y-24048500D01*
X13729923Y-24048500D02*
X13701352Y-24048500D01*
X13701352Y-24048500D02*
X13682304Y-24058024D01*
X13682304Y-24058024D02*
X13672780Y-24067548D01*
X13882304Y-24181834D02*
X13863257Y-24172310D01*
X13863257Y-24172310D02*
X13853733Y-24162786D01*
X13853733Y-24162786D02*
X13844209Y-24143738D01*
X13844209Y-24143738D02*
X13844209Y-24086596D01*
X13844209Y-24086596D02*
X13853733Y-24067548D01*
X13853733Y-24067548D02*
X13863257Y-24058024D01*
X13863257Y-24058024D02*
X13882304Y-24048500D01*
X13882304Y-24048500D02*
X13910876Y-24048500D01*
X13910876Y-24048500D02*
X13929923Y-24058024D01*
X13929923Y-24058024D02*
X13939447Y-24067548D01*
X13939447Y-24067548D02*
X13948971Y-24086596D01*
X13948971Y-24086596D02*
X13948971Y-24143738D01*
X13948971Y-24143738D02*
X13939447Y-24162786D01*
X13939447Y-24162786D02*
X13929923Y-24172310D01*
X13929923Y-24172310D02*
X13910876Y-24181834D01*
X13910876Y-24181834D02*
X13882304Y-24181834D01*
X14063257Y-24181834D02*
X14044209Y-24172310D01*
X14044209Y-24172310D02*
X14034685Y-24153262D01*
X14034685Y-24153262D02*
X14034685Y-23981834D01*
X14215638Y-24172310D02*
X14196590Y-24181834D01*
X14196590Y-24181834D02*
X14158495Y-24181834D01*
X14158495Y-24181834D02*
X14139447Y-24172310D01*
X14139447Y-24172310D02*
X14129923Y-24153262D01*
X14129923Y-24153262D02*
X14129923Y-24077072D01*
X14129923Y-24077072D02*
X14139447Y-24058024D01*
X14139447Y-24058024D02*
X14158495Y-24048500D01*
X14158495Y-24048500D02*
X14196590Y-24048500D01*
X14196590Y-24048500D02*
X14215638Y-24058024D01*
X14215638Y-24058024D02*
X14225161Y-24077072D01*
X14225161Y-24077072D02*
X14225161Y-24096119D01*
X14225161Y-24096119D02*
X14129923Y-24115167D01*
X14291828Y-24258024D02*
X14301352Y-24248500D01*
X14301352Y-24248500D02*
X14320400Y-24219929D01*
X14320400Y-24219929D02*
X14329923Y-24200881D01*
X14329923Y-24200881D02*
X14339447Y-24172310D01*
X14339447Y-24172310D02*
X14348971Y-24124691D01*
X14348971Y-24124691D02*
X14348971Y-24086596D01*
X14348971Y-24086596D02*
X14339447Y-24038977D01*
X14339447Y-24038977D02*
X14329923Y-24010405D01*
X14329923Y-24010405D02*
X14320400Y-23991358D01*
X14320400Y-23991358D02*
X14301352Y-23962786D01*
X14301352Y-23962786D02*
X14291828Y-23953262D01*
X14653733Y-24258024D02*
X14644209Y-24248500D01*
X14644209Y-24248500D02*
X14625161Y-24219929D01*
X14625161Y-24219929D02*
X14615638Y-24200881D01*
X14615638Y-24200881D02*
X14606114Y-24172310D01*
X14606114Y-24172310D02*
X14596590Y-24124691D01*
X14596590Y-24124691D02*
X14596590Y-24086596D01*
X14596590Y-24086596D02*
X14606114Y-24038977D01*
X14606114Y-24038977D02*
X14615638Y-24010405D01*
X14615638Y-24010405D02*
X14625161Y-23991358D01*
X14625161Y-23991358D02*
X14644209Y-23962786D01*
X14644209Y-23962786D02*
X14653733Y-23953262D01*
X14729923Y-24048500D02*
X14729923Y-24181834D01*
X14729923Y-24067548D02*
X14739447Y-24058024D01*
X14739447Y-24058024D02*
X14758495Y-24048500D01*
X14758495Y-24048500D02*
X14787066Y-24048500D01*
X14787066Y-24048500D02*
X14806114Y-24058024D01*
X14806114Y-24058024D02*
X14815638Y-24077072D01*
X14815638Y-24077072D02*
X14815638Y-24181834D01*
X14939447Y-24181834D02*
X14920400Y-24172310D01*
X14920400Y-24172310D02*
X14910876Y-24162786D01*
X14910876Y-24162786D02*
X14901352Y-24143738D01*
X14901352Y-24143738D02*
X14901352Y-24086596D01*
X14901352Y-24086596D02*
X14910876Y-24067548D01*
X14910876Y-24067548D02*
X14920400Y-24058024D01*
X14920400Y-24058024D02*
X14939447Y-24048500D01*
X14939447Y-24048500D02*
X14968019Y-24048500D01*
X14968019Y-24048500D02*
X14987066Y-24058024D01*
X14987066Y-24058024D02*
X14996590Y-24067548D01*
X14996590Y-24067548D02*
X15006114Y-24086596D01*
X15006114Y-24086596D02*
X15006114Y-24143738D01*
X15006114Y-24143738D02*
X14996590Y-24162786D01*
X14996590Y-24162786D02*
X14987066Y-24172310D01*
X14987066Y-24172310D02*
X14968019Y-24181834D01*
X14968019Y-24181834D02*
X14939447Y-24181834D01*
X15063257Y-24048500D02*
X15139447Y-24048500D01*
X15091828Y-23981834D02*
X15091828Y-24153262D01*
X15091828Y-24153262D02*
X15101352Y-24172310D01*
X15101352Y-24172310D02*
X15120400Y-24181834D01*
X15120400Y-24181834D02*
X15139447Y-24181834D01*
X15358495Y-24048500D02*
X15358495Y-24248500D01*
X15358495Y-24058024D02*
X15377542Y-24048500D01*
X15377542Y-24048500D02*
X15415638Y-24048500D01*
X15415638Y-24048500D02*
X15434685Y-24058024D01*
X15434685Y-24058024D02*
X15444209Y-24067548D01*
X15444209Y-24067548D02*
X15453733Y-24086596D01*
X15453733Y-24086596D02*
X15453733Y-24143738D01*
X15453733Y-24143738D02*
X15444209Y-24162786D01*
X15444209Y-24162786D02*
X15434685Y-24172310D01*
X15434685Y-24172310D02*
X15415638Y-24181834D01*
X15415638Y-24181834D02*
X15377542Y-24181834D01*
X15377542Y-24181834D02*
X15358495Y-24172310D01*
X15568019Y-24181834D02*
X15548971Y-24172310D01*
X15548971Y-24172310D02*
X15539447Y-24153262D01*
X15539447Y-24153262D02*
X15539447Y-23981834D01*
X15729923Y-24181834D02*
X15729923Y-24077072D01*
X15729923Y-24077072D02*
X15720400Y-24058024D01*
X15720400Y-24058024D02*
X15701352Y-24048500D01*
X15701352Y-24048500D02*
X15663257Y-24048500D01*
X15663257Y-24048500D02*
X15644209Y-24058024D01*
X15729923Y-24172310D02*
X15710876Y-24181834D01*
X15710876Y-24181834D02*
X15663257Y-24181834D01*
X15663257Y-24181834D02*
X15644209Y-24172310D01*
X15644209Y-24172310D02*
X15634685Y-24153262D01*
X15634685Y-24153262D02*
X15634685Y-24134215D01*
X15634685Y-24134215D02*
X15644209Y-24115167D01*
X15644209Y-24115167D02*
X15663257Y-24105643D01*
X15663257Y-24105643D02*
X15710876Y-24105643D01*
X15710876Y-24105643D02*
X15729923Y-24096119D01*
X15796590Y-24048500D02*
X15872781Y-24048500D01*
X15825162Y-23981834D02*
X15825162Y-24153262D01*
X15825162Y-24153262D02*
X15834685Y-24172310D01*
X15834685Y-24172310D02*
X15853733Y-24181834D01*
X15853733Y-24181834D02*
X15872781Y-24181834D01*
X16015638Y-24172310D02*
X15996590Y-24181834D01*
X15996590Y-24181834D02*
X15958495Y-24181834D01*
X15958495Y-24181834D02*
X15939447Y-24172310D01*
X15939447Y-24172310D02*
X15929923Y-24153262D01*
X15929923Y-24153262D02*
X15929923Y-24077072D01*
X15929923Y-24077072D02*
X15939447Y-24058024D01*
X15939447Y-24058024D02*
X15958495Y-24048500D01*
X15958495Y-24048500D02*
X15996590Y-24048500D01*
X15996590Y-24048500D02*
X16015638Y-24058024D01*
X16015638Y-24058024D02*
X16025162Y-24077072D01*
X16025162Y-24077072D02*
X16025162Y-24096119D01*
X16025162Y-24096119D02*
X15929923Y-24115167D01*
X16196590Y-24181834D02*
X16196590Y-23981834D01*
X16196590Y-24172310D02*
X16177543Y-24181834D01*
X16177543Y-24181834D02*
X16139447Y-24181834D01*
X16139447Y-24181834D02*
X16120400Y-24172310D01*
X16120400Y-24172310D02*
X16110876Y-24162786D01*
X16110876Y-24162786D02*
X16101352Y-24143738D01*
X16101352Y-24143738D02*
X16101352Y-24086596D01*
X16101352Y-24086596D02*
X16110876Y-24067548D01*
X16110876Y-24067548D02*
X16120400Y-24058024D01*
X16120400Y-24058024D02*
X16139447Y-24048500D01*
X16139447Y-24048500D02*
X16177543Y-24048500D01*
X16177543Y-24048500D02*
X16196590Y-24058024D01*
X16272781Y-24258024D02*
X16282304Y-24248500D01*
X16282304Y-24248500D02*
X16301352Y-24219929D01*
X16301352Y-24219929D02*
X16310876Y-24200881D01*
X16310876Y-24200881D02*
X16320400Y-24172310D01*
X16320400Y-24172310D02*
X16329923Y-24124691D01*
X16329923Y-24124691D02*
X16329923Y-24086596D01*
X16329923Y-24086596D02*
X16320400Y-24038977D01*
X16320400Y-24038977D02*
X16310876Y-24010405D01*
X16310876Y-24010405D02*
X16301352Y-23991358D01*
X16301352Y-23991358D02*
X16282304Y-23962786D01*
X16282304Y-23962786D02*
X16272781Y-23953262D01*
M02*
