G04 #@! TF.GenerationSoftware,KiCad,Pcbnew,8.0.4-rc2*
G04 #@! TF.CreationDate,2024-08-04T20:40:04-05:00*
G04 #@! TF.ProjectId,backplane_tracer_driver,6261636b-706c-4616-9e65-5f7472616365,rev?*
G04 #@! TF.SameCoordinates,Original*
G04 #@! TF.FileFunction,Soldermask,Top*
G04 #@! TF.FilePolarity,Negative*
%FSLAX46Y46*%
G04 Gerber Fmt 4.6, Leading zero omitted, Abs format (unit mm)*
G04 Created by KiCad (PCBNEW 8.0.4-rc2) date 2024-08-04 20:40:04*
%MOMM*%
%LPD*%
G01*
G04 APERTURE LIST*
G04 Aperture macros list*
%AMRoundRect*
0 Rectangle with rounded corners*
0 $1 Rounding radius*
0 $2 $3 $4 $5 $6 $7 $8 $9 X,Y pos of 4 corners*
0 Add a 4 corners polygon primitive as box body*
4,1,4,$2,$3,$4,$5,$6,$7,$8,$9,$2,$3,0*
0 Add four circle primitives for the rounded corners*
1,1,$1+$1,$2,$3*
1,1,$1+$1,$4,$5*
1,1,$1+$1,$6,$7*
1,1,$1+$1,$8,$9*
0 Add four rect primitives between the rounded corners*
20,1,$1+$1,$2,$3,$4,$5,0*
20,1,$1+$1,$4,$5,$6,$7,0*
20,1,$1+$1,$6,$7,$8,$9,0*
20,1,$1+$1,$8,$9,$2,$3,0*%
G04 Aperture macros list end*
%ADD10R,1.700000X1.700000*%
%ADD11O,1.700000X1.700000*%
%ADD12R,1.400000X1.400000*%
%ADD13C,1.400000*%
%ADD14RoundRect,0.250000X-0.600000X-0.600000X0.600000X-0.600000X0.600000X0.600000X-0.600000X0.600000X0*%
%ADD15C,1.700000*%
%ADD16C,0.800000*%
%ADD17C,7.400000*%
%ADD18RoundRect,0.150000X-0.512500X-0.150000X0.512500X-0.150000X0.512500X0.150000X-0.512500X0.150000X0*%
%ADD19RoundRect,0.250000X-0.262500X-0.450000X0.262500X-0.450000X0.262500X0.450000X-0.262500X0.450000X0*%
%ADD20RoundRect,0.250000X0.262500X0.450000X-0.262500X0.450000X-0.262500X-0.450000X0.262500X-0.450000X0*%
%ADD21RoundRect,0.237500X0.237500X-0.300000X0.237500X0.300000X-0.237500X0.300000X-0.237500X-0.300000X0*%
%ADD22RoundRect,0.237500X-0.237500X0.300000X-0.237500X-0.300000X0.237500X-0.300000X0.237500X0.300000X0*%
%ADD23R,2.000000X1.905000*%
%ADD24O,2.000000X1.905000*%
%ADD25O,1.400000X1.400000*%
%ADD26C,1.600000*%
%ADD27O,1.600000X1.600000*%
%ADD28C,2.540000*%
%ADD29C,2.800000*%
%ADD30O,2.800000X2.800000*%
%ADD31RoundRect,0.150000X-0.825000X-0.150000X0.825000X-0.150000X0.825000X0.150000X-0.825000X0.150000X0*%
%ADD32RoundRect,0.250000X-0.450000X0.262500X-0.450000X-0.262500X0.450000X-0.262500X0.450000X0.262500X0*%
%ADD33R,1.600000X1.600000*%
%ADD34R,1.300000X1.300000*%
%ADD35C,1.300000*%
%ADD36RoundRect,0.100000X0.100000X-0.637500X0.100000X0.637500X-0.100000X0.637500X-0.100000X-0.637500X0*%
%ADD37C,3.000000*%
%ADD38R,2.000000X2.000000*%
%ADD39C,2.000000*%
%ADD40R,1.800000X1.800000*%
%ADD41C,1.800000*%
%ADD42RoundRect,0.150000X0.150000X-0.825000X0.150000X0.825000X-0.150000X0.825000X-0.150000X-0.825000X0*%
%ADD43RoundRect,0.237500X0.300000X0.237500X-0.300000X0.237500X-0.300000X-0.237500X0.300000X-0.237500X0*%
G04 APERTURE END LIST*
D10*
X93599000Y-108331000D03*
D11*
X93599000Y-110871000D03*
X93599000Y-113411000D03*
X93599000Y-115951000D03*
X93599000Y-118491000D03*
X93599000Y-121031000D03*
D10*
X20320000Y8514000D03*
D11*
X20320000Y5974000D03*
D10*
X104775000Y-120762000D03*
D11*
X104775000Y-118222000D03*
X104775000Y-115682000D03*
D10*
X108458000Y-120762000D03*
D11*
X108458000Y-118222000D03*
X108458000Y-115682000D03*
D10*
X101092000Y-120762000D03*
D11*
X101092000Y-118222000D03*
X101092000Y-115682000D03*
D10*
X97409000Y-120762000D03*
D11*
X97409000Y-118222000D03*
X97409000Y-115682000D03*
D10*
X23622000Y-101839000D03*
D11*
X23622000Y-99299000D03*
X23622000Y-96759000D03*
D12*
X91694000Y-127254000D03*
D13*
X84074000Y-127254000D03*
X78994000Y-127254000D03*
X73914000Y-127254000D03*
X73914000Y-134874000D03*
X78994000Y-134874000D03*
X84074000Y-134874000D03*
X91694000Y-134874000D03*
D12*
X45974000Y-127254000D03*
D13*
X38354000Y-127254000D03*
X33274000Y-127254000D03*
X28194000Y-127254000D03*
X28194000Y-134874000D03*
X33274000Y-134874000D03*
X38354000Y-134874000D03*
X45974000Y-134874000D03*
D12*
X114554000Y-127254000D03*
D13*
X106934000Y-127254000D03*
X101854000Y-127254000D03*
X96774000Y-127254000D03*
X96774000Y-134874000D03*
X101854000Y-134874000D03*
X106934000Y-134874000D03*
X114554000Y-134874000D03*
D12*
X68834000Y-127254000D03*
D13*
X61214000Y-127254000D03*
X56134000Y-127254000D03*
X51054000Y-127254000D03*
X51054000Y-134874000D03*
X56134000Y-134874000D03*
X61214000Y-134874000D03*
X68834000Y-134874000D03*
D12*
X66802000Y17272000D03*
D13*
X66802000Y9652000D03*
X66802000Y4572000D03*
X66802000Y-508000D03*
X74422000Y-508000D03*
X74422000Y4572000D03*
X74422000Y9652000D03*
X74422000Y17272000D03*
D12*
X78232000Y17272000D03*
D13*
X78232000Y9652000D03*
X78232000Y4572000D03*
X78232000Y-508000D03*
X85852000Y-508000D03*
X85852000Y4572000D03*
X85852000Y9652000D03*
X85852000Y17272000D03*
D12*
X55372000Y17272000D03*
D13*
X55372000Y9652000D03*
X55372000Y4572000D03*
X55372000Y-508000D03*
X62992000Y-508000D03*
X62992000Y4572000D03*
X62992000Y9652000D03*
X62992000Y17272000D03*
D12*
X89662000Y17272000D03*
D13*
X89662000Y9652000D03*
X89662000Y4572000D03*
X89662000Y-508000D03*
X97282000Y-508000D03*
X97282000Y4572000D03*
X97282000Y9652000D03*
X97282000Y17272000D03*
D12*
X32512000Y17272000D03*
D13*
X32512000Y9652000D03*
X32512000Y4572000D03*
X32512000Y-508000D03*
X40132000Y-508000D03*
X40132000Y4572000D03*
X40132000Y9652000D03*
X40132000Y17272000D03*
D12*
X43942000Y17272000D03*
D13*
X43942000Y9652000D03*
X43942000Y4572000D03*
X43942000Y-508000D03*
X51562000Y-508000D03*
X51562000Y4572000D03*
X51562000Y9652000D03*
X51562000Y17272000D03*
D14*
X97155000Y-20320000D03*
D15*
X99695000Y-20320000D03*
X97155000Y-22860000D03*
X99695000Y-22860000D03*
X97155000Y-25400000D03*
X99695000Y-25400000D03*
X97155000Y-27940000D03*
X99695000Y-27940000D03*
X97155000Y-30480000D03*
X99695000Y-30480000D03*
X97155000Y-33020000D03*
X99695000Y-33020000D03*
X97155000Y-35560000D03*
X99695000Y-35560000D03*
X97155000Y-38100000D03*
X99695000Y-38100000D03*
X97155000Y-40640000D03*
X99695000Y-40640000D03*
X97155000Y-43180000D03*
X99695000Y-43180000D03*
D14*
X97155000Y-55880000D03*
D15*
X99695000Y-55880000D03*
X97155000Y-58420000D03*
X99695000Y-58420000D03*
X97155000Y-60960000D03*
X99695000Y-60960000D03*
X97155000Y-63500000D03*
X99695000Y-63500000D03*
X97155000Y-66040000D03*
X99695000Y-66040000D03*
X97155000Y-68580000D03*
X99695000Y-68580000D03*
X97155000Y-71120000D03*
X99695000Y-71120000D03*
X97155000Y-73660000D03*
X99695000Y-73660000D03*
X97155000Y-76200000D03*
X99695000Y-76200000D03*
X97155000Y-78740000D03*
X99695000Y-78740000D03*
D14*
X86995000Y-20320000D03*
D15*
X89535000Y-20320000D03*
X86995000Y-22860000D03*
X89535000Y-22860000D03*
X86995000Y-25400000D03*
X89535000Y-25400000D03*
X86995000Y-27940000D03*
X89535000Y-27940000D03*
X86995000Y-30480000D03*
X89535000Y-30480000D03*
X86995000Y-33020000D03*
X89535000Y-33020000D03*
X86995000Y-35560000D03*
X89535000Y-35560000D03*
X86995000Y-38100000D03*
X89535000Y-38100000D03*
X86995000Y-40640000D03*
X89535000Y-40640000D03*
X86995000Y-43180000D03*
X89535000Y-43180000D03*
D14*
X86995000Y-55880000D03*
D15*
X89535000Y-55880000D03*
X86995000Y-58420000D03*
X89535000Y-58420000D03*
X86995000Y-60960000D03*
X89535000Y-60960000D03*
X86995000Y-63500000D03*
X89535000Y-63500000D03*
X86995000Y-66040000D03*
X89535000Y-66040000D03*
X86995000Y-68580000D03*
X89535000Y-68580000D03*
X86995000Y-71120000D03*
X89535000Y-71120000D03*
X86995000Y-73660000D03*
X89535000Y-73660000D03*
X86995000Y-76200000D03*
X89535000Y-76200000D03*
X86995000Y-78740000D03*
X89535000Y-78740000D03*
D14*
X76835000Y-20320000D03*
D15*
X79375000Y-20320000D03*
X76835000Y-22860000D03*
X79375000Y-22860000D03*
X76835000Y-25400000D03*
X79375000Y-25400000D03*
X76835000Y-27940000D03*
X79375000Y-27940000D03*
X76835000Y-30480000D03*
X79375000Y-30480000D03*
X76835000Y-33020000D03*
X79375000Y-33020000D03*
X76835000Y-35560000D03*
X79375000Y-35560000D03*
X76835000Y-38100000D03*
X79375000Y-38100000D03*
X76835000Y-40640000D03*
X79375000Y-40640000D03*
X76835000Y-43180000D03*
X79375000Y-43180000D03*
D14*
X76835000Y-55880000D03*
D15*
X79375000Y-55880000D03*
X76835000Y-58420000D03*
X79375000Y-58420000D03*
X76835000Y-60960000D03*
X79375000Y-60960000D03*
X76835000Y-63500000D03*
X79375000Y-63500000D03*
X76835000Y-66040000D03*
X79375000Y-66040000D03*
X76835000Y-68580000D03*
X79375000Y-68580000D03*
X76835000Y-71120000D03*
X79375000Y-71120000D03*
X76835000Y-73660000D03*
X79375000Y-73660000D03*
X76835000Y-76200000D03*
X79375000Y-76200000D03*
X76835000Y-78740000D03*
X79375000Y-78740000D03*
D14*
X66675000Y-20320000D03*
D15*
X69215000Y-20320000D03*
X66675000Y-22860000D03*
X69215000Y-22860000D03*
X66675000Y-25400000D03*
X69215000Y-25400000D03*
X66675000Y-27940000D03*
X69215000Y-27940000D03*
X66675000Y-30480000D03*
X69215000Y-30480000D03*
X66675000Y-33020000D03*
X69215000Y-33020000D03*
X66675000Y-35560000D03*
X69215000Y-35560000D03*
X66675000Y-38100000D03*
X69215000Y-38100000D03*
X66675000Y-40640000D03*
X69215000Y-40640000D03*
X66675000Y-43180000D03*
X69215000Y-43180000D03*
D14*
X66675000Y-55880000D03*
D15*
X69215000Y-55880000D03*
X66675000Y-58420000D03*
X69215000Y-58420000D03*
X66675000Y-60960000D03*
X69215000Y-60960000D03*
X66675000Y-63500000D03*
X69215000Y-63500000D03*
X66675000Y-66040000D03*
X69215000Y-66040000D03*
X66675000Y-68580000D03*
X69215000Y-68580000D03*
X66675000Y-71120000D03*
X69215000Y-71120000D03*
X66675000Y-73660000D03*
X69215000Y-73660000D03*
X66675000Y-76200000D03*
X69215000Y-76200000D03*
X66675000Y-78740000D03*
X69215000Y-78740000D03*
D14*
X56515000Y-20320000D03*
D15*
X59055000Y-20320000D03*
X56515000Y-22860000D03*
X59055000Y-22860000D03*
X56515000Y-25400000D03*
X59055000Y-25400000D03*
X56515000Y-27940000D03*
X59055000Y-27940000D03*
X56515000Y-30480000D03*
X59055000Y-30480000D03*
X56515000Y-33020000D03*
X59055000Y-33020000D03*
X56515000Y-35560000D03*
X59055000Y-35560000D03*
X56515000Y-38100000D03*
X59055000Y-38100000D03*
X56515000Y-40640000D03*
X59055000Y-40640000D03*
X56515000Y-43180000D03*
X59055000Y-43180000D03*
D14*
X56515000Y-55880000D03*
D15*
X59055000Y-55880000D03*
X56515000Y-58420000D03*
X59055000Y-58420000D03*
X56515000Y-60960000D03*
X59055000Y-60960000D03*
X56515000Y-63500000D03*
X59055000Y-63500000D03*
X56515000Y-66040000D03*
X59055000Y-66040000D03*
X56515000Y-68580000D03*
X59055000Y-68580000D03*
X56515000Y-71120000D03*
X59055000Y-71120000D03*
X56515000Y-73660000D03*
X59055000Y-73660000D03*
X56515000Y-76200000D03*
X59055000Y-76200000D03*
X56515000Y-78740000D03*
X59055000Y-78740000D03*
D14*
X46355000Y-20320000D03*
D15*
X48895000Y-20320000D03*
X46355000Y-22860000D03*
X48895000Y-22860000D03*
X46355000Y-25400000D03*
X48895000Y-25400000D03*
X46355000Y-27940000D03*
X48895000Y-27940000D03*
X46355000Y-30480000D03*
X48895000Y-30480000D03*
X46355000Y-33020000D03*
X48895000Y-33020000D03*
X46355000Y-35560000D03*
X48895000Y-35560000D03*
X46355000Y-38100000D03*
X48895000Y-38100000D03*
X46355000Y-40640000D03*
X48895000Y-40640000D03*
X46355000Y-43180000D03*
X48895000Y-43180000D03*
D14*
X46355000Y-55880000D03*
D15*
X48895000Y-55880000D03*
X46355000Y-58420000D03*
X48895000Y-58420000D03*
X46355000Y-60960000D03*
X48895000Y-60960000D03*
X46355000Y-63500000D03*
X48895000Y-63500000D03*
X46355000Y-66040000D03*
X48895000Y-66040000D03*
X46355000Y-68580000D03*
X48895000Y-68580000D03*
X46355000Y-71120000D03*
X48895000Y-71120000D03*
X46355000Y-73660000D03*
X48895000Y-73660000D03*
X46355000Y-76200000D03*
X48895000Y-76200000D03*
X46355000Y-78740000D03*
X48895000Y-78740000D03*
D14*
X36195000Y-20320000D03*
D15*
X38735000Y-20320000D03*
X36195000Y-22860000D03*
X38735000Y-22860000D03*
X36195000Y-25400000D03*
X38735000Y-25400000D03*
X36195000Y-27940000D03*
X38735000Y-27940000D03*
X36195000Y-30480000D03*
X38735000Y-30480000D03*
X36195000Y-33020000D03*
X38735000Y-33020000D03*
X36195000Y-35560000D03*
X38735000Y-35560000D03*
X36195000Y-38100000D03*
X38735000Y-38100000D03*
X36195000Y-40640000D03*
X38735000Y-40640000D03*
X36195000Y-43180000D03*
X38735000Y-43180000D03*
D14*
X36195000Y-55880000D03*
D15*
X38735000Y-55880000D03*
X36195000Y-58420000D03*
X38735000Y-58420000D03*
X36195000Y-60960000D03*
X38735000Y-60960000D03*
X36195000Y-63500000D03*
X38735000Y-63500000D03*
X36195000Y-66040000D03*
X38735000Y-66040000D03*
X36195000Y-68580000D03*
X38735000Y-68580000D03*
X36195000Y-71120000D03*
X38735000Y-71120000D03*
X36195000Y-73660000D03*
X38735000Y-73660000D03*
X36195000Y-76200000D03*
X38735000Y-76200000D03*
X36195000Y-78740000D03*
X38735000Y-78740000D03*
D14*
X26035000Y-20320000D03*
D15*
X28575000Y-20320000D03*
X26035000Y-22860000D03*
X28575000Y-22860000D03*
X26035000Y-25400000D03*
X28575000Y-25400000D03*
X26035000Y-27940000D03*
X28575000Y-27940000D03*
X26035000Y-30480000D03*
X28575000Y-30480000D03*
X26035000Y-33020000D03*
X28575000Y-33020000D03*
X26035000Y-35560000D03*
X28575000Y-35560000D03*
X26035000Y-38100000D03*
X28575000Y-38100000D03*
X26035000Y-40640000D03*
X28575000Y-40640000D03*
X26035000Y-43180000D03*
X28575000Y-43180000D03*
D14*
X26035000Y-55880000D03*
D15*
X28575000Y-55880000D03*
X26035000Y-58420000D03*
X28575000Y-58420000D03*
X26035000Y-60960000D03*
X28575000Y-60960000D03*
X26035000Y-63500000D03*
X28575000Y-63500000D03*
X26035000Y-66040000D03*
X28575000Y-66040000D03*
X26035000Y-68580000D03*
X28575000Y-68580000D03*
X26035000Y-71120000D03*
X28575000Y-71120000D03*
X26035000Y-73660000D03*
X28575000Y-73660000D03*
X26035000Y-76200000D03*
X28575000Y-76200000D03*
X26035000Y-78740000D03*
X28575000Y-78740000D03*
D16*
X19069000Y-142240000D03*
X19881779Y-140277779D03*
X19881779Y-144202221D03*
X21844000Y-139465000D03*
D17*
X21844000Y-142240000D03*
D16*
X21844000Y-145015000D03*
X23806221Y-140277779D03*
X23806221Y-144202221D03*
X24619000Y-142240000D03*
X108477000Y-142240000D03*
X109289779Y-140277779D03*
X109289779Y-144202221D03*
X111252000Y-139465000D03*
D17*
X111252000Y-142240000D03*
D16*
X111252000Y-145015000D03*
X113214221Y-140277779D03*
X113214221Y-144202221D03*
X114027000Y-142240000D03*
X108477000Y14986000D03*
X109289779Y16948221D03*
X109289779Y13023779D03*
X111252000Y17761000D03*
D17*
X111252000Y14986000D03*
D16*
X111252000Y12211000D03*
X113214221Y16948221D03*
X113214221Y13023779D03*
X114027000Y14986000D03*
X19069000Y14986000D03*
X19881779Y16948221D03*
X19881779Y13023779D03*
X21844000Y17761000D03*
D17*
X21844000Y14986000D03*
D16*
X21844000Y12211000D03*
X23806221Y16948221D03*
X23806221Y13023779D03*
X24619000Y14986000D03*
D18*
X110622500Y-88585000D03*
X110622500Y-89535000D03*
X110622500Y-90485000D03*
X112897500Y-90485000D03*
X112897500Y-88585000D03*
D19*
X106656500Y-86995000D03*
X108481500Y-86995000D03*
D20*
X108481500Y-84934000D03*
X106656500Y-84934000D03*
D21*
X108458000Y-90524500D03*
X108458000Y-88799500D03*
D22*
X30200600Y-101092000D03*
X30200600Y-102817000D03*
D23*
X107823000Y-24003000D03*
D24*
X107823000Y-21463000D03*
X107823000Y-18923000D03*
D23*
X107823000Y-79883000D03*
D24*
X107823000Y-77343000D03*
X107823000Y-74803000D03*
D13*
X38100000Y-12573000D03*
D25*
X38100000Y-4953000D03*
D26*
X107569000Y-3175000D03*
D27*
X107569000Y6985000D03*
D13*
X30480000Y-12573000D03*
D25*
X30480000Y-4953000D03*
D13*
X53340000Y-12573000D03*
D25*
X53340000Y-4953000D03*
D13*
X45720000Y-12573000D03*
D25*
X45720000Y-4953000D03*
D26*
X87122000Y-4318000D03*
D27*
X97282000Y-4318000D03*
D28*
X109982000Y-9652000D03*
X89662000Y-9652000D03*
D13*
X41910000Y-12573000D03*
D25*
X41910000Y-4953000D03*
D13*
X34290000Y-12573000D03*
D25*
X34290000Y-4953000D03*
D13*
X57150000Y-12573000D03*
D25*
X57150000Y-4953000D03*
D13*
X49530000Y-12573000D03*
D25*
X49530000Y-4953000D03*
D29*
X102362000Y17018000D03*
D30*
X102362000Y-3302000D03*
D21*
X63119000Y-9117500D03*
X63119000Y-7392500D03*
D31*
X85282000Y-108331000D03*
X85282000Y-109601000D03*
X85282000Y-110871000D03*
X85282000Y-112141000D03*
X85282000Y-113411000D03*
X85282000Y-114681000D03*
X85282000Y-115951000D03*
X85282000Y-117221000D03*
X90232000Y-117221000D03*
X90232000Y-115951000D03*
X90232000Y-114681000D03*
X90232000Y-113411000D03*
X90232000Y-112141000D03*
X90232000Y-110871000D03*
X90232000Y-109601000D03*
X90232000Y-108331000D03*
D18*
X52329500Y-95341400D03*
X52329500Y-96291400D03*
X52329500Y-97241400D03*
X54604500Y-97241400D03*
X54604500Y-95341400D03*
D22*
X110129200Y-74753300D03*
X110129200Y-76478300D03*
D21*
X33782000Y-91413500D03*
X33782000Y-89688500D03*
D20*
X34694500Y-94234000D03*
X32869500Y-94234000D03*
X31138500Y-94234000D03*
X29313500Y-94234000D03*
D32*
X107188000Y-107418500D03*
X107188000Y-109243500D03*
D22*
X64262000Y-85624500D03*
X64262000Y-87349500D03*
D26*
X25400000Y-107950000D03*
X39319200Y-117599200D03*
X36779200Y-117599200D03*
X34239200Y-117599200D03*
X31699200Y-117599200D03*
D33*
X29159200Y-117599200D03*
D26*
X22860000Y-105410000D03*
X25400000Y-105410000D03*
X27940000Y-105410000D03*
X30480000Y-105410000D03*
X33020000Y-105410000D03*
X35560000Y-105410000D03*
X38100000Y-105410000D03*
X40640000Y-105410000D03*
X43180000Y-105410000D03*
X45720000Y-105410000D03*
X48260000Y-105410000D03*
X50800000Y-105410000D03*
X53340000Y-105410000D03*
X55880000Y-105410000D03*
D33*
X22860000Y-120650000D03*
D26*
X25400000Y-120650000D03*
X27940000Y-120650000D03*
X30480000Y-120650000D03*
X33020000Y-120650000D03*
X35560000Y-120650000D03*
X38100000Y-120650000D03*
X40640000Y-120650000D03*
X43180000Y-120650000D03*
X45720000Y-120650000D03*
X48260000Y-120650000D03*
X50800000Y-120650000D03*
X53340000Y-120650000D03*
X58420000Y-105410000D03*
X60960000Y-105410000D03*
X63500000Y-105410000D03*
X66040000Y-105410000D03*
X68580000Y-105410000D03*
X71120000Y-105410000D03*
X73660000Y-105410000D03*
X76200000Y-105410000D03*
X78740000Y-105410000D03*
X81280000Y-105410000D03*
X81280000Y-120650000D03*
X78740000Y-120650000D03*
X76200000Y-120650000D03*
X73660000Y-120650000D03*
X55880000Y-120650000D03*
X58420000Y-120650000D03*
X60960000Y-120650000D03*
X71120000Y-120650000D03*
X68580000Y-120650000D03*
X66040000Y-120650000D03*
X63500000Y-120650000D03*
D34*
X35830000Y-107848400D03*
D35*
X37830000Y-107848400D03*
X35830000Y-109848400D03*
X37830000Y-109848400D03*
X37830000Y-111848400D03*
X35830000Y-111848400D03*
D26*
X68580000Y-118110000D03*
X68580000Y-115570000D03*
X68580000Y-113030000D03*
X68580000Y-110490000D03*
X68580000Y-107950000D03*
D35*
X23590000Y-114300000D03*
X23590000Y-111760000D03*
D22*
X94742000Y-85624500D03*
X94742000Y-87349500D03*
D21*
X54102000Y-91413500D03*
X54102000Y-89688500D03*
D36*
X96475000Y-91381500D03*
X97125000Y-91381500D03*
X97775000Y-91381500D03*
X98425000Y-91381500D03*
X99075000Y-91381500D03*
X99725000Y-91381500D03*
X100375000Y-91381500D03*
X100375000Y-85656500D03*
X99725000Y-85656500D03*
X99075000Y-85656500D03*
X98425000Y-85656500D03*
X97775000Y-85656500D03*
X97125000Y-85656500D03*
X96475000Y-85656500D03*
D37*
X69236500Y-141994500D03*
X74236500Y-141994500D03*
X79236500Y-141994500D03*
X84236500Y-141894500D03*
X89236500Y-141994500D03*
X94236500Y-141994500D03*
X99236500Y-141994500D03*
X104236500Y-141994500D03*
D18*
X31120500Y-97348000D03*
X31120500Y-98298000D03*
X31120500Y-99248000D03*
X33395500Y-99248000D03*
X33395500Y-97348000D03*
D19*
X105513500Y-94234000D03*
X107338500Y-94234000D03*
D32*
X107188000Y-99925500D03*
X107188000Y-101750500D03*
D36*
X55835000Y-91381500D03*
X56485000Y-91381500D03*
X57135000Y-91381500D03*
X57785000Y-91381500D03*
X58435000Y-91381500D03*
X59085000Y-91381500D03*
X59735000Y-91381500D03*
X59735000Y-85656500D03*
X59085000Y-85656500D03*
X58435000Y-85656500D03*
X57785000Y-85656500D03*
X57135000Y-85656500D03*
X56485000Y-85656500D03*
X55835000Y-85656500D03*
X45675000Y-91381500D03*
X46325000Y-91381500D03*
X46975000Y-91381500D03*
X47625000Y-91381500D03*
X48275000Y-91381500D03*
X48925000Y-91381500D03*
X49575000Y-91381500D03*
X49575000Y-85656500D03*
X48925000Y-85656500D03*
X48275000Y-85656500D03*
X47625000Y-85656500D03*
X46975000Y-85656500D03*
X46325000Y-85656500D03*
X45675000Y-85656500D03*
D10*
X101600000Y-97932000D03*
D11*
X101600000Y-100472000D03*
X101600000Y-103012000D03*
D21*
X110129200Y-79831100D03*
X110129200Y-78106100D03*
D22*
X23622000Y-85624500D03*
X23622000Y-87349500D03*
D38*
X87513000Y-100203000D03*
D39*
X95113000Y-100203000D03*
D40*
X111506000Y-96767000D03*
D41*
X111506000Y-94227000D03*
D36*
X76155000Y-91381500D03*
X76805000Y-91381500D03*
X77455000Y-91381500D03*
X78105000Y-91381500D03*
X78755000Y-91381500D03*
X79405000Y-91381500D03*
X80055000Y-91381500D03*
X80055000Y-85656500D03*
X79405000Y-85656500D03*
X78755000Y-85656500D03*
X78105000Y-85656500D03*
X77455000Y-85656500D03*
X76805000Y-85656500D03*
X76155000Y-85656500D03*
D40*
X111506000Y-104267000D03*
D41*
X111506000Y-101727000D03*
D22*
X54102000Y-85624500D03*
X54102000Y-87349500D03*
D21*
X23622000Y-91413500D03*
X23622000Y-89688500D03*
D22*
X33782000Y-85624500D03*
X33782000Y-87349500D03*
D21*
X43942000Y-91413500D03*
X43942000Y-89688500D03*
D22*
X111678600Y-18974900D03*
X111678600Y-20699900D03*
X110154600Y-18974900D03*
X110154600Y-20699900D03*
D36*
X65995000Y-91381500D03*
X66645000Y-91381500D03*
X67295000Y-91381500D03*
X67945000Y-91381500D03*
X68595000Y-91381500D03*
X69245000Y-91381500D03*
X69895000Y-91381500D03*
X69895000Y-85656500D03*
X69245000Y-85656500D03*
X68595000Y-85656500D03*
X67945000Y-85656500D03*
X67295000Y-85656500D03*
X66645000Y-85656500D03*
X65995000Y-85656500D03*
X86315000Y-91381500D03*
X86965000Y-91381500D03*
X87615000Y-91381500D03*
X88265000Y-91381500D03*
X88915000Y-91381500D03*
X89565000Y-91381500D03*
X90215000Y-91381500D03*
X90215000Y-85656500D03*
X89565000Y-85656500D03*
X88915000Y-85656500D03*
X88265000Y-85656500D03*
X87615000Y-85656500D03*
X86965000Y-85656500D03*
X86315000Y-85656500D03*
D22*
X43942000Y-85624500D03*
X43942000Y-87349500D03*
D20*
X63671500Y-11168200D03*
X61846500Y-11168200D03*
X67333500Y-11176000D03*
X65508500Y-11176000D03*
D21*
X74422000Y-91413500D03*
X74422000Y-89688500D03*
D37*
X107958000Y-67030000D03*
X107958000Y-62030000D03*
X107958000Y-57030000D03*
X107858000Y-52030000D03*
X107958000Y-47030000D03*
X107958000Y-42030000D03*
X107958000Y-37030000D03*
X107958000Y-32030000D03*
D18*
X65029500Y-7305000D03*
X65029500Y-8255000D03*
X65029500Y-9205000D03*
X67304500Y-9205000D03*
X67304500Y-7305000D03*
D21*
X64262000Y-91413500D03*
X64262000Y-89688500D03*
X110154600Y-24052700D03*
X110154600Y-22327700D03*
D22*
X84582000Y-85624500D03*
X84582000Y-87349500D03*
D40*
X111506000Y-111767000D03*
D41*
X111506000Y-109227000D03*
D22*
X74422000Y-85624500D03*
X74422000Y-87349500D03*
D42*
X20955000Y-2094000D03*
X22225000Y-2094000D03*
X23495000Y-2094000D03*
X24765000Y-2094000D03*
X26035000Y-2094000D03*
X27305000Y-2094000D03*
X28575000Y-2094000D03*
X29845000Y-2094000D03*
X29845000Y2856000D03*
X28575000Y2856000D03*
X27305000Y2856000D03*
X26035000Y2856000D03*
X24765000Y2856000D03*
X23495000Y2856000D03*
X22225000Y2856000D03*
X20955000Y2856000D03*
D36*
X25355000Y-91381500D03*
X26005000Y-91381500D03*
X26655000Y-91381500D03*
X27305000Y-91381500D03*
X27955000Y-91381500D03*
X28605000Y-91381500D03*
X29255000Y-91381500D03*
X29255000Y-85656500D03*
X28605000Y-85656500D03*
X27955000Y-85656500D03*
X27305000Y-85656500D03*
X26655000Y-85656500D03*
X26005000Y-85656500D03*
X25355000Y-85656500D03*
X35515000Y-91381500D03*
X36165000Y-91381500D03*
X36815000Y-91381500D03*
X37465000Y-91381500D03*
X38115000Y-91381500D03*
X38765000Y-91381500D03*
X39415000Y-91381500D03*
X39415000Y-85656500D03*
X38765000Y-85656500D03*
X38115000Y-85656500D03*
X37465000Y-85656500D03*
X36815000Y-85656500D03*
X36165000Y-85656500D03*
X35515000Y-85656500D03*
D21*
X84582000Y-91413500D03*
X84582000Y-89688500D03*
D37*
X29104500Y-141994500D03*
X34104500Y-141994500D03*
X39104500Y-141994500D03*
X44104500Y-141894500D03*
X49104500Y-141994500D03*
X54104500Y-141994500D03*
X59104500Y-141994500D03*
X64104500Y-141994500D03*
D21*
X94742000Y-91413500D03*
X94742000Y-89688500D03*
D22*
X111653200Y-74753300D03*
X111653200Y-76478300D03*
D43*
X52043500Y-93345000D03*
X50318500Y-93345000D03*
M02*
