M48
; DRILL file {KiCad 8.0.4-rc2} date 2024-08-04T20:40:49-0500
; FORMAT={-:-/ absolute / metric / decimal}
; #@! TF.CreationDate,2024-08-04T20:40:49-05:00
; #@! TF.GenerationSoftware,Kicad,Pcbnew,8.0.4-rc2
; #@! TF.FileFunction,Plated,1,4,PTH
FMAT,2
METRIC
; #@! TA.AperFunction,Plated,PTH,ViaDrill
T1C0.300
; #@! TA.AperFunction,Plated,PTH,ComponentDrill
T2C0.500
; #@! TA.AperFunction,Plated,PTH,ComponentDrill
T3C0.700
; #@! TA.AperFunction,Plated,PTH,ComponentDrill
T4C0.800
; #@! TA.AperFunction,Plated,PTH,ComponentDrill
T5C0.900
; #@! TA.AperFunction,Plated,PTH,ComponentDrill
T6C1.000
; #@! TA.AperFunction,Plated,PTH,ComponentDrill
T7C1.100
; #@! TA.AperFunction,Plated,PTH,ComponentDrill
T8C1.168
; #@! TA.AperFunction,Plated,PTH,ComponentDrill
T9C1.300
; #@! TA.AperFunction,Plated,PTH,ComponentDrill
T10C1.400
; #@! TA.AperFunction,Plated,PTH,ComponentDrill
T11C3.700
%
G90
G05
T1
X22.631Y-91.415
X23.622Y-84.582
X23.622Y-88.519
X26.416Y-102.362
X27.051Y-101.727
X27.686Y-101.092
X28.321Y-100.457
X28.575Y-102.362
X29.312Y-93.04
X29.845Y4.51
X29.845Y-3.556
X29.921Y-98.298
X29.972Y-91.389
X30.201Y-103.834
X30.48Y-86.36
X30.632Y-2.083
X30.658Y-0.61
X32.791Y-91.415
X33.782Y-84.582
X33.782Y-88.519
X34.569Y-97.358
X36.576Y-99.822
X37.211Y-99.187
X37.846Y-98.552
X38.481Y-97.917
X40.132Y-91.389
X40.64Y-86.36
X41.91Y-100.457
X42.951Y-91.415
X43.942Y-84.582
X43.942Y-88.519
X44.45Y-101.727
X45.72Y-99.187
X46.736Y-94.742
X47.371Y-94.107
X48.006Y-93.472
X48.26Y-97.917
X48.641Y-92.837
X48.895Y-94.742
X50.292Y-91.389
X50.8Y-86.36
X50.8Y-98.552
X51.156Y-96.291
X51.308Y-91.897
X51.841Y-99.822
X53.111Y-91.415
X54.102Y-84.582
X54.102Y-88.519
X55.55Y-95.91
X56.896Y-97.282
X57.531Y-96.647
X58.166Y-96.012
X58.801Y-95.377
X59.69Y-94.107
X60.452Y-91.389
X60.96Y-86.36
X62.154Y-7.391
X62.154Y-9.119
X62.23Y-92.845
X63.271Y-91.415
X64.262Y-84.582
X64.262Y-88.519
X67.056Y-102.362
X67.691Y-101.727
X68.326Y-101.092
X68.961Y-100.457
X70.358Y-13.97
X70.612Y-91.389
X71.12Y-86.36
X71.603Y-96.012
X72.288Y-87.02
X72.39Y-97.282
X73.431Y-91.415
X74.422Y-84.582
X74.422Y-88.519
X75.184Y-96.647
X77.216Y-99.822
X77.851Y-99.187
X78.486Y-98.552
X79.121Y-97.917
X80.01Y-95.377
X80.772Y-91.389
X81.28Y-86.36
X83.591Y-91.415
X83.82Y-117.221
X84.582Y-84.582
X84.582Y-88.519
X85.268Y-118.008
X86.792Y-118.085
X87.376Y-94.742
X88.011Y-94.107
X88.646Y-93.472
X89.281Y-92.837
X90.246Y-118.008
X90.932Y-91.389
X91.44Y-86.36
X93.751Y-91.415
X94.742Y-84.582
X94.742Y-88.519
X97.536Y-97.282
X98.171Y-96.647
X98.806Y-96.012
X99.441Y-95.377
X101.092Y-91.389
X101.6Y-86.36
X102.235Y-87.02
X104.267Y-94.234
X107.188Y-98.679
X107.188Y-106.172
X107.493Y-88.798
X114.046Y-88.57
T2
X19.069Y14.986
X19.069Y-142.24
X19.882Y16.948
X19.882Y13.024
X19.882Y-140.278
X19.882Y-144.202
X21.844Y17.761
X21.844Y12.211
X21.844Y-139.465
X21.844Y-145.015
X23.806Y16.948
X23.806Y13.024
X23.806Y-140.278
X23.806Y-144.202
X24.619Y14.986
X24.619Y-142.24
X108.477Y14.986
X108.477Y-142.24
X109.29Y16.948
X109.29Y13.024
X109.29Y-140.278
X109.29Y-144.202
X111.252Y17.761
X111.252Y12.211
X111.252Y-139.465
X111.252Y-145.015
X113.214Y16.948
X113.214Y13.024
X113.214Y-140.278
X113.214Y-144.202
X114.027Y14.986
X114.027Y-142.24
T3
X28.194Y-127.254
X28.194Y-134.874
X30.48Y-4.953
X30.48Y-12.573
X32.512Y17.272
X32.512Y9.652
X32.512Y4.572
X32.512Y-0.508
X33.274Y-127.254
X33.274Y-134.874
X34.29Y-4.953
X34.29Y-12.573
X38.1Y-4.953
X38.1Y-12.573
X38.354Y-127.254
X38.354Y-134.874
X40.132Y17.272
X40.132Y9.652
X40.132Y4.572
X40.132Y-0.508
X41.91Y-4.953
X41.91Y-12.573
X43.942Y17.272
X43.942Y9.652
X43.942Y4.572
X43.942Y-0.508
X45.72Y-4.953
X45.72Y-12.573
X45.974Y-127.254
X45.974Y-134.874
X49.53Y-4.953
X49.53Y-12.573
X51.054Y-127.254
X51.054Y-134.874
X51.562Y17.272
X51.562Y9.652
X51.562Y4.572
X51.562Y-0.508
X53.34Y-4.953
X53.34Y-12.573
X55.372Y17.272
X55.372Y9.652
X55.372Y4.572
X55.372Y-0.508
X56.134Y-127.254
X56.134Y-134.874
X57.15Y-4.953
X57.15Y-12.573
X61.214Y-127.254
X61.214Y-134.874
X62.992Y17.272
X62.992Y9.652
X62.992Y4.572
X62.992Y-0.508
X66.802Y17.272
X66.802Y9.652
X66.802Y4.572
X66.802Y-0.508
X68.834Y-127.254
X68.834Y-134.874
X73.914Y-127.254
X73.914Y-134.874
X74.422Y17.272
X74.422Y9.652
X74.422Y4.572
X74.422Y-0.508
X78.232Y17.272
X78.232Y9.652
X78.232Y4.572
X78.232Y-0.508
X78.994Y-127.254
X78.994Y-134.874
X84.074Y-127.254
X84.074Y-134.874
X85.852Y17.272
X85.852Y9.652
X85.852Y4.572
X85.852Y-0.508
X89.662Y17.272
X89.662Y9.652
X89.662Y4.572
X89.662Y-0.508
X91.694Y-127.254
X91.694Y-134.874
X96.774Y-127.254
X96.774Y-134.874
X97.282Y17.272
X97.282Y9.652
X97.282Y4.572
X97.282Y-0.508
X101.854Y-127.254
X101.854Y-134.874
X106.934Y-127.254
X106.934Y-134.874
X114.554Y-127.254
X114.554Y-134.874
T4
X23.59Y-111.76
X23.59Y-114.3
X35.83Y-107.848
X35.83Y-109.848
X35.83Y-111.848
X37.83Y-107.848
X37.83Y-109.848
X37.83Y-111.848
X87.122Y-4.318
X97.282Y-4.318
X107.569Y6.985
X107.569Y-3.175
T5
X111.506Y-94.227
X111.506Y-96.767
X111.506Y-101.727
X111.506Y-104.267
X111.506Y-109.227
X111.506Y-111.767
T6
X20.32Y8.514
X20.32Y5.974
X23.622Y-96.759
X23.622Y-99.299
X23.622Y-101.839
X26.035Y-20.32
X26.035Y-22.86
X26.035Y-25.4
X26.035Y-27.94
X26.035Y-30.48
X26.035Y-33.02
X26.035Y-35.56
X26.035Y-38.1
X26.035Y-40.64
X26.035Y-43.18
X26.035Y-55.88
X26.035Y-58.42
X26.035Y-60.96
X26.035Y-63.5
X26.035Y-66.04
X26.035Y-68.58
X26.035Y-71.12
X26.035Y-73.66
X26.035Y-76.2
X26.035Y-78.74
X28.575Y-20.32
X28.575Y-22.86
X28.575Y-25.4
X28.575Y-27.94
X28.575Y-30.48
X28.575Y-33.02
X28.575Y-35.56
X28.575Y-38.1
X28.575Y-40.64
X28.575Y-43.18
X28.575Y-55.88
X28.575Y-58.42
X28.575Y-60.96
X28.575Y-63.5
X28.575Y-66.04
X28.575Y-68.58
X28.575Y-71.12
X28.575Y-73.66
X28.575Y-76.2
X28.575Y-78.74
X36.195Y-20.32
X36.195Y-22.86
X36.195Y-25.4
X36.195Y-27.94
X36.195Y-30.48
X36.195Y-33.02
X36.195Y-35.56
X36.195Y-38.1
X36.195Y-40.64
X36.195Y-43.18
X36.195Y-55.88
X36.195Y-58.42
X36.195Y-60.96
X36.195Y-63.5
X36.195Y-66.04
X36.195Y-68.58
X36.195Y-71.12
X36.195Y-73.66
X36.195Y-76.2
X36.195Y-78.74
X38.735Y-20.32
X38.735Y-22.86
X38.735Y-25.4
X38.735Y-27.94
X38.735Y-30.48
X38.735Y-33.02
X38.735Y-35.56
X38.735Y-38.1
X38.735Y-40.64
X38.735Y-43.18
X38.735Y-55.88
X38.735Y-58.42
X38.735Y-60.96
X38.735Y-63.5
X38.735Y-66.04
X38.735Y-68.58
X38.735Y-71.12
X38.735Y-73.66
X38.735Y-76.2
X38.735Y-78.74
X46.355Y-20.32
X46.355Y-22.86
X46.355Y-25.4
X46.355Y-27.94
X46.355Y-30.48
X46.355Y-33.02
X46.355Y-35.56
X46.355Y-38.1
X46.355Y-40.64
X46.355Y-43.18
X46.355Y-55.88
X46.355Y-58.42
X46.355Y-60.96
X46.355Y-63.5
X46.355Y-66.04
X46.355Y-68.58
X46.355Y-71.12
X46.355Y-73.66
X46.355Y-76.2
X46.355Y-78.74
X48.895Y-20.32
X48.895Y-22.86
X48.895Y-25.4
X48.895Y-27.94
X48.895Y-30.48
X48.895Y-33.02
X48.895Y-35.56
X48.895Y-38.1
X48.895Y-40.64
X48.895Y-43.18
X48.895Y-55.88
X48.895Y-58.42
X48.895Y-60.96
X48.895Y-63.5
X48.895Y-66.04
X48.895Y-68.58
X48.895Y-71.12
X48.895Y-73.66
X48.895Y-76.2
X48.895Y-78.74
X56.515Y-20.32
X56.515Y-22.86
X56.515Y-25.4
X56.515Y-27.94
X56.515Y-30.48
X56.515Y-33.02
X56.515Y-35.56
X56.515Y-38.1
X56.515Y-40.64
X56.515Y-43.18
X56.515Y-55.88
X56.515Y-58.42
X56.515Y-60.96
X56.515Y-63.5
X56.515Y-66.04
X56.515Y-68.58
X56.515Y-71.12
X56.515Y-73.66
X56.515Y-76.2
X56.515Y-78.74
X59.055Y-20.32
X59.055Y-22.86
X59.055Y-25.4
X59.055Y-27.94
X59.055Y-30.48
X59.055Y-33.02
X59.055Y-35.56
X59.055Y-38.1
X59.055Y-40.64
X59.055Y-43.18
X59.055Y-55.88
X59.055Y-58.42
X59.055Y-60.96
X59.055Y-63.5
X59.055Y-66.04
X59.055Y-68.58
X59.055Y-71.12
X59.055Y-73.66
X59.055Y-76.2
X59.055Y-78.74
X66.675Y-20.32
X66.675Y-22.86
X66.675Y-25.4
X66.675Y-27.94
X66.675Y-30.48
X66.675Y-33.02
X66.675Y-35.56
X66.675Y-38.1
X66.675Y-40.64
X66.675Y-43.18
X66.675Y-55.88
X66.675Y-58.42
X66.675Y-60.96
X66.675Y-63.5
X66.675Y-66.04
X66.675Y-68.58
X66.675Y-71.12
X66.675Y-73.66
X66.675Y-76.2
X66.675Y-78.74
X69.215Y-20.32
X69.215Y-22.86
X69.215Y-25.4
X69.215Y-27.94
X69.215Y-30.48
X69.215Y-33.02
X69.215Y-35.56
X69.215Y-38.1
X69.215Y-40.64
X69.215Y-43.18
X69.215Y-55.88
X69.215Y-58.42
X69.215Y-60.96
X69.215Y-63.5
X69.215Y-66.04
X69.215Y-68.58
X69.215Y-71.12
X69.215Y-73.66
X69.215Y-76.2
X69.215Y-78.74
X76.835Y-20.32
X76.835Y-22.86
X76.835Y-25.4
X76.835Y-27.94
X76.835Y-30.48
X76.835Y-33.02
X76.835Y-35.56
X76.835Y-38.1
X76.835Y-40.64
X76.835Y-43.18
X76.835Y-55.88
X76.835Y-58.42
X76.835Y-60.96
X76.835Y-63.5
X76.835Y-66.04
X76.835Y-68.58
X76.835Y-71.12
X76.835Y-73.66
X76.835Y-76.2
X76.835Y-78.74
X79.375Y-20.32
X79.375Y-22.86
X79.375Y-25.4
X79.375Y-27.94
X79.375Y-30.48
X79.375Y-33.02
X79.375Y-35.56
X79.375Y-38.1
X79.375Y-40.64
X79.375Y-43.18
X79.375Y-55.88
X79.375Y-58.42
X79.375Y-60.96
X79.375Y-63.5
X79.375Y-66.04
X79.375Y-68.58
X79.375Y-71.12
X79.375Y-73.66
X79.375Y-76.2
X79.375Y-78.74
X86.995Y-20.32
X86.995Y-22.86
X86.995Y-25.4
X86.995Y-27.94
X86.995Y-30.48
X86.995Y-33.02
X86.995Y-35.56
X86.995Y-38.1
X86.995Y-40.64
X86.995Y-43.18
X86.995Y-55.88
X86.995Y-58.42
X86.995Y-60.96
X86.995Y-63.5
X86.995Y-66.04
X86.995Y-68.58
X86.995Y-71.12
X86.995Y-73.66
X86.995Y-76.2
X86.995Y-78.74
X87.513Y-100.203
X89.535Y-20.32
X89.535Y-22.86
X89.535Y-25.4
X89.535Y-27.94
X89.535Y-30.48
X89.535Y-33.02
X89.535Y-35.56
X89.535Y-38.1
X89.535Y-40.64
X89.535Y-43.18
X89.535Y-55.88
X89.535Y-58.42
X89.535Y-60.96
X89.535Y-63.5
X89.535Y-66.04
X89.535Y-68.58
X89.535Y-71.12
X89.535Y-73.66
X89.535Y-76.2
X89.535Y-78.74
X93.599Y-108.331
X93.599Y-110.871
X93.599Y-113.411
X93.599Y-115.951
X93.599Y-118.491
X93.599Y-121.031
X95.113Y-100.203
X97.155Y-20.32
X97.155Y-22.86
X97.155Y-25.4
X97.155Y-27.94
X97.155Y-30.48
X97.155Y-33.02
X97.155Y-35.56
X97.155Y-38.1
X97.155Y-40.64
X97.155Y-43.18
X97.155Y-55.88
X97.155Y-58.42
X97.155Y-60.96
X97.155Y-63.5
X97.155Y-66.04
X97.155Y-68.58
X97.155Y-71.12
X97.155Y-73.66
X97.155Y-76.2
X97.155Y-78.74
X97.409Y-115.682
X97.409Y-118.222
X97.409Y-120.762
X99.695Y-20.32
X99.695Y-22.86
X99.695Y-25.4
X99.695Y-27.94
X99.695Y-30.48
X99.695Y-33.02
X99.695Y-35.56
X99.695Y-38.1
X99.695Y-40.64
X99.695Y-43.18
X99.695Y-55.88
X99.695Y-58.42
X99.695Y-60.96
X99.695Y-63.5
X99.695Y-66.04
X99.695Y-68.58
X99.695Y-71.12
X99.695Y-73.66
X99.695Y-76.2
X99.695Y-78.74
X101.092Y-115.682
X101.092Y-118.222
X101.092Y-120.762
X101.6Y-97.932
X101.6Y-100.472
X101.6Y-103.012
X104.775Y-115.682
X104.775Y-118.222
X104.775Y-120.762
X108.458Y-115.682
X108.458Y-118.222
X108.458Y-120.762
T7
X22.86Y-105.41
X22.86Y-120.65
X25.4Y-105.41
X25.4Y-107.95
X25.4Y-120.65
X27.94Y-105.41
X27.94Y-120.65
X29.159Y-117.599
X30.48Y-105.41
X30.48Y-120.65
X31.699Y-117.599
X33.02Y-105.41
X33.02Y-120.65
X34.239Y-117.599
X35.56Y-105.41
X35.56Y-120.65
X36.779Y-117.599
X38.1Y-105.41
X38.1Y-120.65
X39.319Y-117.599
X40.64Y-105.41
X40.64Y-120.65
X43.18Y-105.41
X43.18Y-120.65
X45.72Y-105.41
X45.72Y-120.65
X48.26Y-105.41
X48.26Y-120.65
X50.8Y-105.41
X50.8Y-120.65
X53.34Y-105.41
X53.34Y-120.65
X55.88Y-105.41
X55.88Y-120.65
X58.42Y-105.41
X58.42Y-120.65
X60.96Y-105.41
X60.96Y-120.65
X63.5Y-105.41
X63.5Y-120.65
X66.04Y-105.41
X66.04Y-120.65
X68.58Y-105.41
X68.58Y-107.95
X68.58Y-110.49
X68.58Y-113.03
X68.58Y-115.57
X68.58Y-118.11
X68.58Y-120.65
X71.12Y-105.41
X71.12Y-120.65
X73.66Y-105.41
X73.66Y-120.65
X76.2Y-105.41
X76.2Y-120.65
X78.74Y-105.41
X78.74Y-120.65
X81.28Y-105.41
X81.28Y-120.65
X107.823Y-18.923
X107.823Y-21.463
X107.823Y-24.003
X107.823Y-74.803
X107.823Y-77.343
X107.823Y-79.883
T8
X89.662Y-9.652
X109.982Y-9.652
T9
X29.104Y-141.994
X34.105Y-141.994
X39.105Y-141.994
X44.104Y-141.894
X49.104Y-141.994
X54.104Y-141.994
X59.104Y-141.994
X64.105Y-141.994
X69.236Y-141.994
X74.236Y-141.994
X79.236Y-141.994
X84.236Y-141.894
X89.236Y-141.994
X94.236Y-141.994
X99.236Y-141.994
X104.236Y-141.994
X107.858Y-52.03
X107.958Y-32.03
X107.958Y-37.03
X107.958Y-42.03
X107.958Y-47.03
X107.958Y-57.03
X107.958Y-62.03
X107.958Y-67.03
T10
X102.362Y17.018
X102.362Y-3.302
T11
X21.844Y14.986
X21.844Y-142.24
X111.252Y14.986
X111.252Y-142.24
M30
