G04 #@! TF.GenerationSoftware,KiCad,Pcbnew,8.0.4-rc2*
G04 #@! TF.CreationDate,2024-08-04T20:39:43-05:00*
G04 #@! TF.ProjectId,backplane_tracer_driver,6261636b-706c-4616-9e65-5f7472616365,rev?*
G04 #@! TF.SameCoordinates,Original*
G04 #@! TF.FileFunction,Copper,L1,Top*
G04 #@! TF.FilePolarity,Positive*
%FSLAX46Y46*%
G04 Gerber Fmt 4.6, Leading zero omitted, Abs format (unit mm)*
G04 Created by KiCad (PCBNEW 8.0.4-rc2) date 2024-08-04 20:39:43*
%MOMM*%
%LPD*%
G01*
G04 APERTURE LIST*
G04 Aperture macros list*
%AMRoundRect*
0 Rectangle with rounded corners*
0 $1 Rounding radius*
0 $2 $3 $4 $5 $6 $7 $8 $9 X,Y pos of 4 corners*
0 Add a 4 corners polygon primitive as box body*
4,1,4,$2,$3,$4,$5,$6,$7,$8,$9,$2,$3,0*
0 Add four circle primitives for the rounded corners*
1,1,$1+$1,$2,$3*
1,1,$1+$1,$4,$5*
1,1,$1+$1,$6,$7*
1,1,$1+$1,$8,$9*
0 Add four rect primitives between the rounded corners*
20,1,$1+$1,$2,$3,$4,$5,0*
20,1,$1+$1,$4,$5,$6,$7,0*
20,1,$1+$1,$6,$7,$8,$9,0*
20,1,$1+$1,$8,$9,$2,$3,0*%
G04 Aperture macros list end*
G04 #@! TA.AperFunction,ComponentPad*
%ADD10R,1.700000X1.700000*%
G04 #@! TD*
G04 #@! TA.AperFunction,ComponentPad*
%ADD11O,1.700000X1.700000*%
G04 #@! TD*
G04 #@! TA.AperFunction,ComponentPad*
%ADD12R,1.400000X1.400000*%
G04 #@! TD*
G04 #@! TA.AperFunction,ComponentPad*
%ADD13C,1.400000*%
G04 #@! TD*
G04 #@! TA.AperFunction,ComponentPad*
%ADD14RoundRect,0.250000X-0.600000X-0.600000X0.600000X-0.600000X0.600000X0.600000X-0.600000X0.600000X0*%
G04 #@! TD*
G04 #@! TA.AperFunction,ComponentPad*
%ADD15C,1.700000*%
G04 #@! TD*
G04 #@! TA.AperFunction,ComponentPad*
%ADD16C,0.800000*%
G04 #@! TD*
G04 #@! TA.AperFunction,ComponentPad*
%ADD17C,7.400000*%
G04 #@! TD*
G04 #@! TA.AperFunction,SMDPad,CuDef*
%ADD18RoundRect,0.150000X-0.512500X-0.150000X0.512500X-0.150000X0.512500X0.150000X-0.512500X0.150000X0*%
G04 #@! TD*
G04 #@! TA.AperFunction,SMDPad,CuDef*
%ADD19RoundRect,0.250000X-0.262500X-0.450000X0.262500X-0.450000X0.262500X0.450000X-0.262500X0.450000X0*%
G04 #@! TD*
G04 #@! TA.AperFunction,SMDPad,CuDef*
%ADD20RoundRect,0.250000X0.262500X0.450000X-0.262500X0.450000X-0.262500X-0.450000X0.262500X-0.450000X0*%
G04 #@! TD*
G04 #@! TA.AperFunction,SMDPad,CuDef*
%ADD21RoundRect,0.237500X0.237500X-0.300000X0.237500X0.300000X-0.237500X0.300000X-0.237500X-0.300000X0*%
G04 #@! TD*
G04 #@! TA.AperFunction,SMDPad,CuDef*
%ADD22RoundRect,0.237500X-0.237500X0.300000X-0.237500X-0.300000X0.237500X-0.300000X0.237500X0.300000X0*%
G04 #@! TD*
G04 #@! TA.AperFunction,ComponentPad*
%ADD23R,2.000000X1.905000*%
G04 #@! TD*
G04 #@! TA.AperFunction,ComponentPad*
%ADD24O,2.000000X1.905000*%
G04 #@! TD*
G04 #@! TA.AperFunction,ComponentPad*
%ADD25O,1.400000X1.400000*%
G04 #@! TD*
G04 #@! TA.AperFunction,ComponentPad*
%ADD26C,1.600000*%
G04 #@! TD*
G04 #@! TA.AperFunction,ComponentPad*
%ADD27O,1.600000X1.600000*%
G04 #@! TD*
G04 #@! TA.AperFunction,ComponentPad*
%ADD28C,2.540000*%
G04 #@! TD*
G04 #@! TA.AperFunction,ComponentPad*
%ADD29C,2.800000*%
G04 #@! TD*
G04 #@! TA.AperFunction,ComponentPad*
%ADD30O,2.800000X2.800000*%
G04 #@! TD*
G04 #@! TA.AperFunction,SMDPad,CuDef*
%ADD31RoundRect,0.150000X-0.825000X-0.150000X0.825000X-0.150000X0.825000X0.150000X-0.825000X0.150000X0*%
G04 #@! TD*
G04 #@! TA.AperFunction,SMDPad,CuDef*
%ADD32RoundRect,0.250000X-0.450000X0.262500X-0.450000X-0.262500X0.450000X-0.262500X0.450000X0.262500X0*%
G04 #@! TD*
G04 #@! TA.AperFunction,ComponentPad*
%ADD33R,1.600000X1.600000*%
G04 #@! TD*
G04 #@! TA.AperFunction,ComponentPad*
%ADD34R,1.300000X1.300000*%
G04 #@! TD*
G04 #@! TA.AperFunction,ComponentPad*
%ADD35C,1.300000*%
G04 #@! TD*
G04 #@! TA.AperFunction,SMDPad,CuDef*
%ADD36RoundRect,0.100000X0.100000X-0.637500X0.100000X0.637500X-0.100000X0.637500X-0.100000X-0.637500X0*%
G04 #@! TD*
G04 #@! TA.AperFunction,ComponentPad*
%ADD37C,3.000000*%
G04 #@! TD*
G04 #@! TA.AperFunction,ComponentPad*
%ADD38R,2.000000X2.000000*%
G04 #@! TD*
G04 #@! TA.AperFunction,ComponentPad*
%ADD39C,2.000000*%
G04 #@! TD*
G04 #@! TA.AperFunction,ComponentPad*
%ADD40R,1.800000X1.800000*%
G04 #@! TD*
G04 #@! TA.AperFunction,ComponentPad*
%ADD41C,1.800000*%
G04 #@! TD*
G04 #@! TA.AperFunction,SMDPad,CuDef*
%ADD42RoundRect,0.150000X0.150000X-0.825000X0.150000X0.825000X-0.150000X0.825000X-0.150000X-0.825000X0*%
G04 #@! TD*
G04 #@! TA.AperFunction,SMDPad,CuDef*
%ADD43RoundRect,0.237500X0.300000X0.237500X-0.300000X0.237500X-0.300000X-0.237500X0.300000X-0.237500X0*%
G04 #@! TD*
G04 #@! TA.AperFunction,ViaPad*
%ADD44C,0.600000*%
G04 #@! TD*
G04 #@! TA.AperFunction,Conductor*
%ADD45C,0.254000*%
G04 #@! TD*
G04 #@! TA.AperFunction,Conductor*
%ADD46C,0.457200*%
G04 #@! TD*
G04 #@! TA.AperFunction,Conductor*
%ADD47C,0.431800*%
G04 #@! TD*
G04 #@! TA.AperFunction,Conductor*
%ADD48C,1.270000*%
G04 #@! TD*
G04 APERTURE END LIST*
D10*
X93599000Y-108331000D03*
D11*
X93599000Y-110871000D03*
X93599000Y-113411000D03*
X93599000Y-115951000D03*
X93599000Y-118491000D03*
X93599000Y-121031000D03*
D10*
X20320000Y8514000D03*
D11*
X20320000Y5974000D03*
D10*
X104775000Y-120762000D03*
D11*
X104775000Y-118222000D03*
X104775000Y-115682000D03*
D10*
X108458000Y-120762000D03*
D11*
X108458000Y-118222000D03*
X108458000Y-115682000D03*
D10*
X101092000Y-120762000D03*
D11*
X101092000Y-118222000D03*
X101092000Y-115682000D03*
D10*
X97409000Y-120762000D03*
D11*
X97409000Y-118222000D03*
X97409000Y-115682000D03*
D10*
X23622000Y-101839000D03*
D11*
X23622000Y-99299000D03*
X23622000Y-96759000D03*
D12*
X91694000Y-127254000D03*
D13*
X84074000Y-127254000D03*
X78994000Y-127254000D03*
X73914000Y-127254000D03*
X73914000Y-134874000D03*
X78994000Y-134874000D03*
X84074000Y-134874000D03*
X91694000Y-134874000D03*
D12*
X45974000Y-127254000D03*
D13*
X38354000Y-127254000D03*
X33274000Y-127254000D03*
X28194000Y-127254000D03*
X28194000Y-134874000D03*
X33274000Y-134874000D03*
X38354000Y-134874000D03*
X45974000Y-134874000D03*
D12*
X114554000Y-127254000D03*
D13*
X106934000Y-127254000D03*
X101854000Y-127254000D03*
X96774000Y-127254000D03*
X96774000Y-134874000D03*
X101854000Y-134874000D03*
X106934000Y-134874000D03*
X114554000Y-134874000D03*
D12*
X68834000Y-127254000D03*
D13*
X61214000Y-127254000D03*
X56134000Y-127254000D03*
X51054000Y-127254000D03*
X51054000Y-134874000D03*
X56134000Y-134874000D03*
X61214000Y-134874000D03*
X68834000Y-134874000D03*
D12*
X66802000Y17272000D03*
D13*
X66802000Y9652000D03*
X66802000Y4572000D03*
X66802000Y-508000D03*
X74422000Y-508000D03*
X74422000Y4572000D03*
X74422000Y9652000D03*
X74422000Y17272000D03*
D12*
X78232000Y17272000D03*
D13*
X78232000Y9652000D03*
X78232000Y4572000D03*
X78232000Y-508000D03*
X85852000Y-508000D03*
X85852000Y4572000D03*
X85852000Y9652000D03*
X85852000Y17272000D03*
D12*
X55372000Y17272000D03*
D13*
X55372000Y9652000D03*
X55372000Y4572000D03*
X55372000Y-508000D03*
X62992000Y-508000D03*
X62992000Y4572000D03*
X62992000Y9652000D03*
X62992000Y17272000D03*
D12*
X89662000Y17272000D03*
D13*
X89662000Y9652000D03*
X89662000Y4572000D03*
X89662000Y-508000D03*
X97282000Y-508000D03*
X97282000Y4572000D03*
X97282000Y9652000D03*
X97282000Y17272000D03*
D12*
X32512000Y17272000D03*
D13*
X32512000Y9652000D03*
X32512000Y4572000D03*
X32512000Y-508000D03*
X40132000Y-508000D03*
X40132000Y4572000D03*
X40132000Y9652000D03*
X40132000Y17272000D03*
D12*
X43942000Y17272000D03*
D13*
X43942000Y9652000D03*
X43942000Y4572000D03*
X43942000Y-508000D03*
X51562000Y-508000D03*
X51562000Y4572000D03*
X51562000Y9652000D03*
X51562000Y17272000D03*
D14*
X97155000Y-20320000D03*
D15*
X99695000Y-20320000D03*
X97155000Y-22860000D03*
X99695000Y-22860000D03*
X97155000Y-25400000D03*
X99695000Y-25400000D03*
X97155000Y-27940000D03*
X99695000Y-27940000D03*
X97155000Y-30480000D03*
X99695000Y-30480000D03*
X97155000Y-33020000D03*
X99695000Y-33020000D03*
X97155000Y-35560000D03*
X99695000Y-35560000D03*
X97155000Y-38100000D03*
X99695000Y-38100000D03*
X97155000Y-40640000D03*
X99695000Y-40640000D03*
X97155000Y-43180000D03*
X99695000Y-43180000D03*
D14*
X97155000Y-55880000D03*
D15*
X99695000Y-55880000D03*
X97155000Y-58420000D03*
X99695000Y-58420000D03*
X97155000Y-60960000D03*
X99695000Y-60960000D03*
X97155000Y-63500000D03*
X99695000Y-63500000D03*
X97155000Y-66040000D03*
X99695000Y-66040000D03*
X97155000Y-68580000D03*
X99695000Y-68580000D03*
X97155000Y-71120000D03*
X99695000Y-71120000D03*
X97155000Y-73660000D03*
X99695000Y-73660000D03*
X97155000Y-76200000D03*
X99695000Y-76200000D03*
X97155000Y-78740000D03*
X99695000Y-78740000D03*
D14*
X86995000Y-20320000D03*
D15*
X89535000Y-20320000D03*
X86995000Y-22860000D03*
X89535000Y-22860000D03*
X86995000Y-25400000D03*
X89535000Y-25400000D03*
X86995000Y-27940000D03*
X89535000Y-27940000D03*
X86995000Y-30480000D03*
X89535000Y-30480000D03*
X86995000Y-33020000D03*
X89535000Y-33020000D03*
X86995000Y-35560000D03*
X89535000Y-35560000D03*
X86995000Y-38100000D03*
X89535000Y-38100000D03*
X86995000Y-40640000D03*
X89535000Y-40640000D03*
X86995000Y-43180000D03*
X89535000Y-43180000D03*
D14*
X86995000Y-55880000D03*
D15*
X89535000Y-55880000D03*
X86995000Y-58420000D03*
X89535000Y-58420000D03*
X86995000Y-60960000D03*
X89535000Y-60960000D03*
X86995000Y-63500000D03*
X89535000Y-63500000D03*
X86995000Y-66040000D03*
X89535000Y-66040000D03*
X86995000Y-68580000D03*
X89535000Y-68580000D03*
X86995000Y-71120000D03*
X89535000Y-71120000D03*
X86995000Y-73660000D03*
X89535000Y-73660000D03*
X86995000Y-76200000D03*
X89535000Y-76200000D03*
X86995000Y-78740000D03*
X89535000Y-78740000D03*
D14*
X76835000Y-20320000D03*
D15*
X79375000Y-20320000D03*
X76835000Y-22860000D03*
X79375000Y-22860000D03*
X76835000Y-25400000D03*
X79375000Y-25400000D03*
X76835000Y-27940000D03*
X79375000Y-27940000D03*
X76835000Y-30480000D03*
X79375000Y-30480000D03*
X76835000Y-33020000D03*
X79375000Y-33020000D03*
X76835000Y-35560000D03*
X79375000Y-35560000D03*
X76835000Y-38100000D03*
X79375000Y-38100000D03*
X76835000Y-40640000D03*
X79375000Y-40640000D03*
X76835000Y-43180000D03*
X79375000Y-43180000D03*
D14*
X76835000Y-55880000D03*
D15*
X79375000Y-55880000D03*
X76835000Y-58420000D03*
X79375000Y-58420000D03*
X76835000Y-60960000D03*
X79375000Y-60960000D03*
X76835000Y-63500000D03*
X79375000Y-63500000D03*
X76835000Y-66040000D03*
X79375000Y-66040000D03*
X76835000Y-68580000D03*
X79375000Y-68580000D03*
X76835000Y-71120000D03*
X79375000Y-71120000D03*
X76835000Y-73660000D03*
X79375000Y-73660000D03*
X76835000Y-76200000D03*
X79375000Y-76200000D03*
X76835000Y-78740000D03*
X79375000Y-78740000D03*
D14*
X66675000Y-20320000D03*
D15*
X69215000Y-20320000D03*
X66675000Y-22860000D03*
X69215000Y-22860000D03*
X66675000Y-25400000D03*
X69215000Y-25400000D03*
X66675000Y-27940000D03*
X69215000Y-27940000D03*
X66675000Y-30480000D03*
X69215000Y-30480000D03*
X66675000Y-33020000D03*
X69215000Y-33020000D03*
X66675000Y-35560000D03*
X69215000Y-35560000D03*
X66675000Y-38100000D03*
X69215000Y-38100000D03*
X66675000Y-40640000D03*
X69215000Y-40640000D03*
X66675000Y-43180000D03*
X69215000Y-43180000D03*
D14*
X66675000Y-55880000D03*
D15*
X69215000Y-55880000D03*
X66675000Y-58420000D03*
X69215000Y-58420000D03*
X66675000Y-60960000D03*
X69215000Y-60960000D03*
X66675000Y-63500000D03*
X69215000Y-63500000D03*
X66675000Y-66040000D03*
X69215000Y-66040000D03*
X66675000Y-68580000D03*
X69215000Y-68580000D03*
X66675000Y-71120000D03*
X69215000Y-71120000D03*
X66675000Y-73660000D03*
X69215000Y-73660000D03*
X66675000Y-76200000D03*
X69215000Y-76200000D03*
X66675000Y-78740000D03*
X69215000Y-78740000D03*
D14*
X56515000Y-20320000D03*
D15*
X59055000Y-20320000D03*
X56515000Y-22860000D03*
X59055000Y-22860000D03*
X56515000Y-25400000D03*
X59055000Y-25400000D03*
X56515000Y-27940000D03*
X59055000Y-27940000D03*
X56515000Y-30480000D03*
X59055000Y-30480000D03*
X56515000Y-33020000D03*
X59055000Y-33020000D03*
X56515000Y-35560000D03*
X59055000Y-35560000D03*
X56515000Y-38100000D03*
X59055000Y-38100000D03*
X56515000Y-40640000D03*
X59055000Y-40640000D03*
X56515000Y-43180000D03*
X59055000Y-43180000D03*
D14*
X56515000Y-55880000D03*
D15*
X59055000Y-55880000D03*
X56515000Y-58420000D03*
X59055000Y-58420000D03*
X56515000Y-60960000D03*
X59055000Y-60960000D03*
X56515000Y-63500000D03*
X59055000Y-63500000D03*
X56515000Y-66040000D03*
X59055000Y-66040000D03*
X56515000Y-68580000D03*
X59055000Y-68580000D03*
X56515000Y-71120000D03*
X59055000Y-71120000D03*
X56515000Y-73660000D03*
X59055000Y-73660000D03*
X56515000Y-76200000D03*
X59055000Y-76200000D03*
X56515000Y-78740000D03*
X59055000Y-78740000D03*
D14*
X46355000Y-20320000D03*
D15*
X48895000Y-20320000D03*
X46355000Y-22860000D03*
X48895000Y-22860000D03*
X46355000Y-25400000D03*
X48895000Y-25400000D03*
X46355000Y-27940000D03*
X48895000Y-27940000D03*
X46355000Y-30480000D03*
X48895000Y-30480000D03*
X46355000Y-33020000D03*
X48895000Y-33020000D03*
X46355000Y-35560000D03*
X48895000Y-35560000D03*
X46355000Y-38100000D03*
X48895000Y-38100000D03*
X46355000Y-40640000D03*
X48895000Y-40640000D03*
X46355000Y-43180000D03*
X48895000Y-43180000D03*
D14*
X46355000Y-55880000D03*
D15*
X48895000Y-55880000D03*
X46355000Y-58420000D03*
X48895000Y-58420000D03*
X46355000Y-60960000D03*
X48895000Y-60960000D03*
X46355000Y-63500000D03*
X48895000Y-63500000D03*
X46355000Y-66040000D03*
X48895000Y-66040000D03*
X46355000Y-68580000D03*
X48895000Y-68580000D03*
X46355000Y-71120000D03*
X48895000Y-71120000D03*
X46355000Y-73660000D03*
X48895000Y-73660000D03*
X46355000Y-76200000D03*
X48895000Y-76200000D03*
X46355000Y-78740000D03*
X48895000Y-78740000D03*
D14*
X36195000Y-20320000D03*
D15*
X38735000Y-20320000D03*
X36195000Y-22860000D03*
X38735000Y-22860000D03*
X36195000Y-25400000D03*
X38735000Y-25400000D03*
X36195000Y-27940000D03*
X38735000Y-27940000D03*
X36195000Y-30480000D03*
X38735000Y-30480000D03*
X36195000Y-33020000D03*
X38735000Y-33020000D03*
X36195000Y-35560000D03*
X38735000Y-35560000D03*
X36195000Y-38100000D03*
X38735000Y-38100000D03*
X36195000Y-40640000D03*
X38735000Y-40640000D03*
X36195000Y-43180000D03*
X38735000Y-43180000D03*
D14*
X36195000Y-55880000D03*
D15*
X38735000Y-55880000D03*
X36195000Y-58420000D03*
X38735000Y-58420000D03*
X36195000Y-60960000D03*
X38735000Y-60960000D03*
X36195000Y-63500000D03*
X38735000Y-63500000D03*
X36195000Y-66040000D03*
X38735000Y-66040000D03*
X36195000Y-68580000D03*
X38735000Y-68580000D03*
X36195000Y-71120000D03*
X38735000Y-71120000D03*
X36195000Y-73660000D03*
X38735000Y-73660000D03*
X36195000Y-76200000D03*
X38735000Y-76200000D03*
X36195000Y-78740000D03*
X38735000Y-78740000D03*
D14*
X26035000Y-20320000D03*
D15*
X28575000Y-20320000D03*
X26035000Y-22860000D03*
X28575000Y-22860000D03*
X26035000Y-25400000D03*
X28575000Y-25400000D03*
X26035000Y-27940000D03*
X28575000Y-27940000D03*
X26035000Y-30480000D03*
X28575000Y-30480000D03*
X26035000Y-33020000D03*
X28575000Y-33020000D03*
X26035000Y-35560000D03*
X28575000Y-35560000D03*
X26035000Y-38100000D03*
X28575000Y-38100000D03*
X26035000Y-40640000D03*
X28575000Y-40640000D03*
X26035000Y-43180000D03*
X28575000Y-43180000D03*
D14*
X26035000Y-55880000D03*
D15*
X28575000Y-55880000D03*
X26035000Y-58420000D03*
X28575000Y-58420000D03*
X26035000Y-60960000D03*
X28575000Y-60960000D03*
X26035000Y-63500000D03*
X28575000Y-63500000D03*
X26035000Y-66040000D03*
X28575000Y-66040000D03*
X26035000Y-68580000D03*
X28575000Y-68580000D03*
X26035000Y-71120000D03*
X28575000Y-71120000D03*
X26035000Y-73660000D03*
X28575000Y-73660000D03*
X26035000Y-76200000D03*
X28575000Y-76200000D03*
X26035000Y-78740000D03*
X28575000Y-78740000D03*
D16*
X19069000Y-142240000D03*
X19881779Y-140277779D03*
X19881779Y-144202221D03*
X21844000Y-139465000D03*
D17*
X21844000Y-142240000D03*
D16*
X21844000Y-145015000D03*
X23806221Y-140277779D03*
X23806221Y-144202221D03*
X24619000Y-142240000D03*
X108477000Y-142240000D03*
X109289779Y-140277779D03*
X109289779Y-144202221D03*
X111252000Y-139465000D03*
D17*
X111252000Y-142240000D03*
D16*
X111252000Y-145015000D03*
X113214221Y-140277779D03*
X113214221Y-144202221D03*
X114027000Y-142240000D03*
X108477000Y14986000D03*
X109289779Y16948221D03*
X109289779Y13023779D03*
X111252000Y17761000D03*
D17*
X111252000Y14986000D03*
D16*
X111252000Y12211000D03*
X113214221Y16948221D03*
X113214221Y13023779D03*
X114027000Y14986000D03*
X19069000Y14986000D03*
X19881779Y16948221D03*
X19881779Y13023779D03*
X21844000Y17761000D03*
D17*
X21844000Y14986000D03*
D16*
X21844000Y12211000D03*
X23806221Y16948221D03*
X23806221Y13023779D03*
X24619000Y14986000D03*
D18*
X110622500Y-88585000D03*
X110622500Y-89535000D03*
X110622500Y-90485000D03*
X112897500Y-90485000D03*
X112897500Y-88585000D03*
D19*
X106656500Y-86995000D03*
X108481500Y-86995000D03*
D20*
X108481500Y-84934000D03*
X106656500Y-84934000D03*
D21*
X108458000Y-90524500D03*
X108458000Y-88799500D03*
D22*
X30200600Y-101092000D03*
X30200600Y-102817000D03*
D23*
X107823000Y-24003000D03*
D24*
X107823000Y-21463000D03*
X107823000Y-18923000D03*
D23*
X107823000Y-79883000D03*
D24*
X107823000Y-77343000D03*
X107823000Y-74803000D03*
D13*
X38100000Y-12573000D03*
D25*
X38100000Y-4953000D03*
D26*
X107569000Y-3175000D03*
D27*
X107569000Y6985000D03*
D13*
X30480000Y-12573000D03*
D25*
X30480000Y-4953000D03*
D13*
X53340000Y-12573000D03*
D25*
X53340000Y-4953000D03*
D13*
X45720000Y-12573000D03*
D25*
X45720000Y-4953000D03*
D26*
X87122000Y-4318000D03*
D27*
X97282000Y-4318000D03*
D28*
X109982000Y-9652000D03*
X89662000Y-9652000D03*
D13*
X41910000Y-12573000D03*
D25*
X41910000Y-4953000D03*
D13*
X34290000Y-12573000D03*
D25*
X34290000Y-4953000D03*
D13*
X57150000Y-12573000D03*
D25*
X57150000Y-4953000D03*
D13*
X49530000Y-12573000D03*
D25*
X49530000Y-4953000D03*
D29*
X102362000Y17018000D03*
D30*
X102362000Y-3302000D03*
D21*
X63119000Y-9117500D03*
X63119000Y-7392500D03*
D31*
X85282000Y-108331000D03*
X85282000Y-109601000D03*
X85282000Y-110871000D03*
X85282000Y-112141000D03*
X85282000Y-113411000D03*
X85282000Y-114681000D03*
X85282000Y-115951000D03*
X85282000Y-117221000D03*
X90232000Y-117221000D03*
X90232000Y-115951000D03*
X90232000Y-114681000D03*
X90232000Y-113411000D03*
X90232000Y-112141000D03*
X90232000Y-110871000D03*
X90232000Y-109601000D03*
X90232000Y-108331000D03*
D18*
X52329500Y-95341400D03*
X52329500Y-96291400D03*
X52329500Y-97241400D03*
X54604500Y-97241400D03*
X54604500Y-95341400D03*
D22*
X110129200Y-74753300D03*
X110129200Y-76478300D03*
D21*
X33782000Y-91413500D03*
X33782000Y-89688500D03*
D20*
X34694500Y-94234000D03*
X32869500Y-94234000D03*
X31138500Y-94234000D03*
X29313500Y-94234000D03*
D32*
X107188000Y-107418500D03*
X107188000Y-109243500D03*
D22*
X64262000Y-85624500D03*
X64262000Y-87349500D03*
D26*
X25400000Y-107950000D03*
X39319200Y-117599200D03*
X36779200Y-117599200D03*
X34239200Y-117599200D03*
X31699200Y-117599200D03*
D33*
X29159200Y-117599200D03*
D26*
X22860000Y-105410000D03*
X25400000Y-105410000D03*
X27940000Y-105410000D03*
X30480000Y-105410000D03*
X33020000Y-105410000D03*
X35560000Y-105410000D03*
X38100000Y-105410000D03*
X40640000Y-105410000D03*
X43180000Y-105410000D03*
X45720000Y-105410000D03*
X48260000Y-105410000D03*
X50800000Y-105410000D03*
X53340000Y-105410000D03*
X55880000Y-105410000D03*
D33*
X22860000Y-120650000D03*
D26*
X25400000Y-120650000D03*
X27940000Y-120650000D03*
X30480000Y-120650000D03*
X33020000Y-120650000D03*
X35560000Y-120650000D03*
X38100000Y-120650000D03*
X40640000Y-120650000D03*
X43180000Y-120650000D03*
X45720000Y-120650000D03*
X48260000Y-120650000D03*
X50800000Y-120650000D03*
X53340000Y-120650000D03*
X58420000Y-105410000D03*
X60960000Y-105410000D03*
X63500000Y-105410000D03*
X66040000Y-105410000D03*
X68580000Y-105410000D03*
X71120000Y-105410000D03*
X73660000Y-105410000D03*
X76200000Y-105410000D03*
X78740000Y-105410000D03*
X81280000Y-105410000D03*
X81280000Y-120650000D03*
X78740000Y-120650000D03*
X76200000Y-120650000D03*
X73660000Y-120650000D03*
X55880000Y-120650000D03*
X58420000Y-120650000D03*
X60960000Y-120650000D03*
X71120000Y-120650000D03*
X68580000Y-120650000D03*
X66040000Y-120650000D03*
X63500000Y-120650000D03*
D34*
X35830000Y-107848400D03*
D35*
X37830000Y-107848400D03*
X35830000Y-109848400D03*
X37830000Y-109848400D03*
X37830000Y-111848400D03*
X35830000Y-111848400D03*
D26*
X68580000Y-118110000D03*
X68580000Y-115570000D03*
X68580000Y-113030000D03*
X68580000Y-110490000D03*
X68580000Y-107950000D03*
D35*
X23590000Y-114300000D03*
X23590000Y-111760000D03*
D22*
X94742000Y-85624500D03*
X94742000Y-87349500D03*
D21*
X54102000Y-91413500D03*
X54102000Y-89688500D03*
D36*
X96475000Y-91381500D03*
X97125000Y-91381500D03*
X97775000Y-91381500D03*
X98425000Y-91381500D03*
X99075000Y-91381500D03*
X99725000Y-91381500D03*
X100375000Y-91381500D03*
X100375000Y-85656500D03*
X99725000Y-85656500D03*
X99075000Y-85656500D03*
X98425000Y-85656500D03*
X97775000Y-85656500D03*
X97125000Y-85656500D03*
X96475000Y-85656500D03*
D37*
X69236500Y-141994500D03*
X74236500Y-141994500D03*
X79236500Y-141994500D03*
X84236500Y-141894500D03*
X89236500Y-141994500D03*
X94236500Y-141994500D03*
X99236500Y-141994500D03*
X104236500Y-141994500D03*
D18*
X31120500Y-97348000D03*
X31120500Y-98298000D03*
X31120500Y-99248000D03*
X33395500Y-99248000D03*
X33395500Y-97348000D03*
D19*
X105513500Y-94234000D03*
X107338500Y-94234000D03*
D32*
X107188000Y-99925500D03*
X107188000Y-101750500D03*
D36*
X55835000Y-91381500D03*
X56485000Y-91381500D03*
X57135000Y-91381500D03*
X57785000Y-91381500D03*
X58435000Y-91381500D03*
X59085000Y-91381500D03*
X59735000Y-91381500D03*
X59735000Y-85656500D03*
X59085000Y-85656500D03*
X58435000Y-85656500D03*
X57785000Y-85656500D03*
X57135000Y-85656500D03*
X56485000Y-85656500D03*
X55835000Y-85656500D03*
X45675000Y-91381500D03*
X46325000Y-91381500D03*
X46975000Y-91381500D03*
X47625000Y-91381500D03*
X48275000Y-91381500D03*
X48925000Y-91381500D03*
X49575000Y-91381500D03*
X49575000Y-85656500D03*
X48925000Y-85656500D03*
X48275000Y-85656500D03*
X47625000Y-85656500D03*
X46975000Y-85656500D03*
X46325000Y-85656500D03*
X45675000Y-85656500D03*
D10*
X101600000Y-97932000D03*
D11*
X101600000Y-100472000D03*
X101600000Y-103012000D03*
D21*
X110129200Y-79831100D03*
X110129200Y-78106100D03*
D22*
X23622000Y-85624500D03*
X23622000Y-87349500D03*
D38*
X87513000Y-100203000D03*
D39*
X95113000Y-100203000D03*
D40*
X111506000Y-96767000D03*
D41*
X111506000Y-94227000D03*
D36*
X76155000Y-91381500D03*
X76805000Y-91381500D03*
X77455000Y-91381500D03*
X78105000Y-91381500D03*
X78755000Y-91381500D03*
X79405000Y-91381500D03*
X80055000Y-91381500D03*
X80055000Y-85656500D03*
X79405000Y-85656500D03*
X78755000Y-85656500D03*
X78105000Y-85656500D03*
X77455000Y-85656500D03*
X76805000Y-85656500D03*
X76155000Y-85656500D03*
D40*
X111506000Y-104267000D03*
D41*
X111506000Y-101727000D03*
D22*
X54102000Y-85624500D03*
X54102000Y-87349500D03*
D21*
X23622000Y-91413500D03*
X23622000Y-89688500D03*
D22*
X33782000Y-85624500D03*
X33782000Y-87349500D03*
D21*
X43942000Y-91413500D03*
X43942000Y-89688500D03*
D22*
X111678600Y-18974900D03*
X111678600Y-20699900D03*
X110154600Y-18974900D03*
X110154600Y-20699900D03*
D36*
X65995000Y-91381500D03*
X66645000Y-91381500D03*
X67295000Y-91381500D03*
X67945000Y-91381500D03*
X68595000Y-91381500D03*
X69245000Y-91381500D03*
X69895000Y-91381500D03*
X69895000Y-85656500D03*
X69245000Y-85656500D03*
X68595000Y-85656500D03*
X67945000Y-85656500D03*
X67295000Y-85656500D03*
X66645000Y-85656500D03*
X65995000Y-85656500D03*
X86315000Y-91381500D03*
X86965000Y-91381500D03*
X87615000Y-91381500D03*
X88265000Y-91381500D03*
X88915000Y-91381500D03*
X89565000Y-91381500D03*
X90215000Y-91381500D03*
X90215000Y-85656500D03*
X89565000Y-85656500D03*
X88915000Y-85656500D03*
X88265000Y-85656500D03*
X87615000Y-85656500D03*
X86965000Y-85656500D03*
X86315000Y-85656500D03*
D22*
X43942000Y-85624500D03*
X43942000Y-87349500D03*
D20*
X63671500Y-11168200D03*
X61846500Y-11168200D03*
X67333500Y-11176000D03*
X65508500Y-11176000D03*
D21*
X74422000Y-91413500D03*
X74422000Y-89688500D03*
D37*
X107958000Y-67030000D03*
X107958000Y-62030000D03*
X107958000Y-57030000D03*
X107858000Y-52030000D03*
X107958000Y-47030000D03*
X107958000Y-42030000D03*
X107958000Y-37030000D03*
X107958000Y-32030000D03*
D18*
X65029500Y-7305000D03*
X65029500Y-8255000D03*
X65029500Y-9205000D03*
X67304500Y-9205000D03*
X67304500Y-7305000D03*
D21*
X64262000Y-91413500D03*
X64262000Y-89688500D03*
X110154600Y-24052700D03*
X110154600Y-22327700D03*
D22*
X84582000Y-85624500D03*
X84582000Y-87349500D03*
D40*
X111506000Y-111767000D03*
D41*
X111506000Y-109227000D03*
D22*
X74422000Y-85624500D03*
X74422000Y-87349500D03*
D42*
X20955000Y-2094000D03*
X22225000Y-2094000D03*
X23495000Y-2094000D03*
X24765000Y-2094000D03*
X26035000Y-2094000D03*
X27305000Y-2094000D03*
X28575000Y-2094000D03*
X29845000Y-2094000D03*
X29845000Y2856000D03*
X28575000Y2856000D03*
X27305000Y2856000D03*
X26035000Y2856000D03*
X24765000Y2856000D03*
X23495000Y2856000D03*
X22225000Y2856000D03*
X20955000Y2856000D03*
D36*
X25355000Y-91381500D03*
X26005000Y-91381500D03*
X26655000Y-91381500D03*
X27305000Y-91381500D03*
X27955000Y-91381500D03*
X28605000Y-91381500D03*
X29255000Y-91381500D03*
X29255000Y-85656500D03*
X28605000Y-85656500D03*
X27955000Y-85656500D03*
X27305000Y-85656500D03*
X26655000Y-85656500D03*
X26005000Y-85656500D03*
X25355000Y-85656500D03*
X35515000Y-91381500D03*
X36165000Y-91381500D03*
X36815000Y-91381500D03*
X37465000Y-91381500D03*
X38115000Y-91381500D03*
X38765000Y-91381500D03*
X39415000Y-91381500D03*
X39415000Y-85656500D03*
X38765000Y-85656500D03*
X38115000Y-85656500D03*
X37465000Y-85656500D03*
X36815000Y-85656500D03*
X36165000Y-85656500D03*
X35515000Y-85656500D03*
D21*
X84582000Y-91413500D03*
X84582000Y-89688500D03*
D37*
X29104500Y-141994500D03*
X34104500Y-141994500D03*
X39104500Y-141994500D03*
X44104500Y-141894500D03*
X49104500Y-141994500D03*
X54104500Y-141994500D03*
X59104500Y-141994500D03*
X64104500Y-141994500D03*
D21*
X94742000Y-91413500D03*
X94742000Y-89688500D03*
D22*
X111653200Y-74753300D03*
X111653200Y-76478300D03*
D43*
X52043500Y-93345000D03*
X50318500Y-93345000D03*
D44*
X62153800Y-9118600D03*
X51308000Y-91897200D03*
X72288400Y-87020400D03*
X102235000Y-87020400D03*
X114046000Y-88569800D03*
X107492800Y-88798400D03*
X62230000Y-92845000D03*
X59690000Y-94107000D03*
X48895000Y-94742000D03*
X28575000Y-102362000D03*
X41910000Y-100457000D03*
X44450000Y-101727000D03*
X90246200Y-118008400D03*
X70358000Y-13970000D03*
X30657800Y-609600D03*
X86791800Y-118084600D03*
X85267800Y-118008400D03*
X83820000Y-117221000D03*
X30632400Y-2082800D03*
X29845000Y-3556000D03*
X29845000Y4510000D03*
X55549800Y-95910400D03*
X30200600Y-103834100D03*
X34569400Y-97358200D03*
X29921200Y-98298000D03*
X29311600Y-93040200D03*
X51155600Y-96291400D03*
X62153800Y-7391400D03*
X80010000Y-95377000D03*
X75184000Y-96647000D03*
X40132000Y-91389200D03*
X54102000Y-88519000D03*
X80772000Y-91389200D03*
X94742000Y-88519000D03*
X60452000Y-91389200D03*
X84582000Y-88519000D03*
X101092000Y-91389200D03*
X23622000Y-88519000D03*
X33782000Y-88519000D03*
X43942000Y-88519000D03*
X70612000Y-91389200D03*
X64262000Y-88519000D03*
X90932000Y-91389200D03*
X74422000Y-88519000D03*
X50292000Y-91389200D03*
X29972000Y-91389200D03*
X94742000Y-84582000D03*
X43942000Y-84582000D03*
X64262000Y-84582000D03*
X74422000Y-84582000D03*
X33782000Y-84582000D03*
X54102000Y-84582000D03*
X84582000Y-84582000D03*
X23622000Y-84582000D03*
X107188000Y-106172000D03*
X104267000Y-94234000D03*
X107188000Y-98679000D03*
X45720000Y-99187000D03*
X37211000Y-99187000D03*
X77851000Y-99187000D03*
X67691000Y-101727000D03*
X27051000Y-101727000D03*
X36576000Y-99822000D03*
X51841400Y-99822000D03*
X77216000Y-99822000D03*
X48006000Y-93472000D03*
X88646000Y-93472000D03*
X47371000Y-94107000D03*
X88011000Y-94107000D03*
X26416000Y-102362000D03*
X67056000Y-102362000D03*
X28321000Y-100457000D03*
X68961000Y-100457000D03*
X46736000Y-94742000D03*
X87376000Y-94742000D03*
X32791400Y-91414600D03*
X42951400Y-91414600D03*
X93751400Y-91414600D03*
X22631400Y-91414600D03*
X83591400Y-91414600D03*
X53111400Y-91414600D03*
X63271400Y-91414600D03*
X73431400Y-91414600D03*
X48641000Y-92837000D03*
X89281000Y-92837000D03*
X38481000Y-97917000D03*
X48260000Y-97917000D03*
X79121000Y-97917000D03*
X98806000Y-96012000D03*
X71602600Y-96012000D03*
X58166000Y-96012000D03*
X98171000Y-96647000D03*
X57531000Y-96647000D03*
X68326000Y-101092000D03*
X27686000Y-101092000D03*
X99441000Y-95377000D03*
X58801000Y-95377000D03*
X56896000Y-97282000D03*
X97536000Y-97282000D03*
X72390000Y-97282000D03*
X37846000Y-98552000D03*
X50800000Y-98552000D03*
X78486000Y-98552000D03*
X30480000Y-86360000D03*
X50800000Y-86360000D03*
X40640000Y-86360000D03*
X60960000Y-86360000D03*
X71120000Y-86360000D03*
X101600000Y-86360000D03*
X81280000Y-86360000D03*
X91440000Y-86360000D03*
D45*
X34694500Y-94234000D02*
X34694500Y-94028900D01*
X34694500Y-94028900D02*
X33350200Y-92684600D01*
X32004000Y-92100400D02*
X32004000Y-14097000D01*
X33350200Y-92684600D02*
X32588200Y-92684600D01*
X32588200Y-92684600D02*
X32004000Y-92100400D01*
X32004000Y-14097000D02*
X30480000Y-12573000D01*
D46*
X27305000Y2856000D02*
X27305000Y6731000D01*
X27305000Y6731000D02*
X33020000Y12446000D01*
X33020000Y12446000D02*
X78105000Y12446000D01*
X78105000Y12446000D02*
X82931000Y17272000D01*
X82931000Y17272000D02*
X85852000Y17272000D01*
X28575000Y2856000D02*
X28575000Y5588000D01*
X28575000Y5588000D02*
X30607000Y7620000D01*
X30607000Y7620000D02*
X33401000Y7620000D01*
X33401000Y7620000D02*
X37465000Y11684000D01*
X37465000Y11684000D02*
X81661000Y11684000D01*
X81661000Y11684000D02*
X84582000Y14605000D01*
X84582000Y14605000D02*
X94615000Y14605000D01*
X94615000Y14605000D02*
X97282000Y17272000D01*
X22225000Y2856000D02*
X22225000Y7239000D01*
X22225000Y7239000D02*
X30480000Y15494000D01*
X38354000Y15494000D02*
X40132000Y17272000D01*
X30480000Y15494000D02*
X38354000Y15494000D01*
X23495000Y2856000D02*
X23495000Y7112000D01*
X23495000Y7112000D02*
X31115000Y14732000D01*
X31115000Y14732000D02*
X49022000Y14732000D01*
X49022000Y14732000D02*
X51562000Y17272000D01*
X24765000Y2856000D02*
X24765000Y6985000D01*
X24765000Y6985000D02*
X31750000Y13970000D01*
X31750000Y13970000D02*
X59690000Y13970000D01*
X59690000Y13970000D02*
X62992000Y17272000D01*
X26035000Y2856000D02*
X26035000Y6858000D01*
X26035000Y6858000D02*
X32385000Y13208000D01*
X32385000Y13208000D02*
X70358000Y13208000D01*
X70358000Y13208000D02*
X74422000Y17272000D01*
X49530000Y-4953000D02*
X49530000Y-2921000D01*
X49530000Y-2921000D02*
X43942000Y2667000D01*
X43942000Y2667000D02*
X43942000Y4572000D01*
X41910000Y-4953000D02*
X41910000Y2794000D01*
X41910000Y2794000D02*
X40132000Y4572000D01*
X34290000Y-4953000D02*
X34290000Y1143000D01*
X34290000Y1143000D02*
X32512000Y2921000D01*
X32512000Y2921000D02*
X32512000Y4572000D01*
X53340000Y-4318000D02*
X51562000Y-2540000D01*
X43942000Y-1016000D02*
X43942000Y-508000D01*
X38100000Y-4953000D02*
X40132000Y-2921000D01*
X32512000Y-2921000D02*
X32512000Y-508000D01*
X57150000Y-4953000D02*
X57023000Y-4953000D01*
X57023000Y-4953000D02*
X53467000Y-1397000D01*
X53467000Y-1397000D02*
X53467000Y2667000D01*
X53467000Y2667000D02*
X51562000Y4572000D01*
X40132000Y-2921000D02*
X40132000Y-508000D01*
X53340000Y-4953000D02*
X53340000Y-4318000D01*
X51562000Y-2540000D02*
X51562000Y-508000D01*
X30480000Y-4953000D02*
X32512000Y-2921000D01*
X45720000Y-4953000D02*
X45720000Y-2794000D01*
X45720000Y-2794000D02*
X43942000Y-1016000D01*
X101092000Y-120762000D02*
X99172000Y-122682000D01*
X89408000Y-122682000D02*
X88265000Y-123825000D01*
X99172000Y-122682000D02*
X89408000Y-122682000D01*
X88265000Y-123825000D02*
X69088000Y-123825000D01*
X69088000Y-123825000D02*
X67183000Y-125730000D01*
X67183000Y-125730000D02*
X67183000Y-133223000D01*
X67183000Y-133223000D02*
X68834000Y-134874000D01*
D47*
X97409000Y-120762000D02*
X96124000Y-120762000D01*
X88646000Y-119761000D02*
X85725000Y-122682000D01*
X96124000Y-120762000D02*
X95123000Y-119761000D01*
X95123000Y-119761000D02*
X88646000Y-119761000D01*
X85725000Y-122682000D02*
X46482000Y-122682000D01*
X46482000Y-122682000D02*
X44196000Y-124968000D01*
X44196000Y-124968000D02*
X44196000Y-133096000D01*
X44196000Y-133096000D02*
X45974000Y-134874000D01*
X90232000Y-115951000D02*
X91440000Y-115951000D01*
X91440000Y-115951000D02*
X92710000Y-117221000D01*
X92710000Y-117221000D02*
X94361000Y-117221000D01*
X94361000Y-117221000D02*
X95900000Y-115682000D01*
X95900000Y-115682000D02*
X97409000Y-115682000D01*
X90232000Y-114681000D02*
X94932500Y-114681000D01*
X94932500Y-114681000D02*
X95821500Y-113792000D01*
X95821500Y-113792000D02*
X99202000Y-113792000D01*
X99202000Y-113792000D02*
X101092000Y-115682000D01*
D45*
X90232000Y-110871000D02*
X88773000Y-110871000D01*
X88392000Y-110490000D02*
X88392000Y-107569000D01*
X88392000Y-107569000D02*
X90043000Y-105918000D01*
X88773000Y-110871000D02*
X88392000Y-110490000D01*
X104521000Y-105918000D02*
X106172000Y-104267000D01*
X90043000Y-105918000D02*
X104521000Y-105918000D01*
X106172000Y-104267000D02*
X111506000Y-104267000D01*
X90232000Y-108331000D02*
X91883000Y-106680000D01*
X91883000Y-106680000D02*
X102108000Y-106680000D01*
X102108000Y-106680000D02*
X107195000Y-111767000D01*
X107195000Y-111767000D02*
X111506000Y-111767000D01*
X40640000Y-120650000D02*
X36957000Y-124333000D01*
X36957000Y-124333000D02*
X19685000Y-124333000D01*
X19685000Y-124333000D02*
X19304000Y-123952000D01*
X19304000Y-123952000D02*
X19304000Y-6858000D01*
X19304000Y-6858000D02*
X20955000Y-5207000D01*
X20955000Y-5207000D02*
X20955000Y-2094000D01*
X38100000Y-120650000D02*
X34925000Y-123825000D01*
X23495000Y-4699000D02*
X23495000Y-2094000D01*
X34925000Y-123825000D02*
X20193000Y-123825000D01*
X20193000Y-123825000D02*
X19812000Y-123444000D01*
X19812000Y-123444000D02*
X19812000Y-8382000D01*
X19812000Y-8382000D02*
X23495000Y-4699000D01*
X35560000Y-120650000D02*
X32893000Y-123317000D01*
X20320000Y-9779000D02*
X24765000Y-5334000D01*
X32893000Y-123317000D02*
X20701000Y-123317000D01*
X20701000Y-123317000D02*
X20320000Y-122936000D01*
X20320000Y-122936000D02*
X20320000Y-9779000D01*
X24765000Y-5334000D02*
X24765000Y-2094000D01*
X33020000Y-120650000D02*
X30861000Y-122809000D01*
X30861000Y-122809000D02*
X21209000Y-122809000D01*
X21209000Y-122809000D02*
X20828000Y-122428000D01*
X20828000Y-122428000D02*
X20828000Y-11239500D01*
X20828000Y-11239500D02*
X26035000Y-6032500D01*
X26035000Y-6032500D02*
X26035000Y-2094000D01*
X30480000Y-120650000D02*
X28829000Y-122301000D01*
X28829000Y-122301000D02*
X21717000Y-122301000D01*
X27305000Y-6731000D02*
X27305000Y-2094000D01*
X21717000Y-122301000D02*
X21336000Y-121920000D01*
X21336000Y-121920000D02*
X21336000Y-12700000D01*
X21336000Y-12700000D02*
X27305000Y-6731000D01*
X24765000Y-2094000D02*
X24765000Y-508000D01*
X24765000Y-508000D02*
X25527000Y254000D01*
X25527000Y254000D02*
X27813000Y254000D01*
X27813000Y254000D02*
X28575000Y-508000D01*
X28575000Y-508000D02*
X28575000Y-2094000D01*
X22225000Y-2094000D02*
X23495000Y-2094000D01*
D46*
X20955000Y2856000D02*
X20955000Y5339000D01*
X20955000Y5339000D02*
X20320000Y5974000D01*
D45*
X29845000Y4510000D02*
X29845000Y2856000D01*
D46*
X104775000Y-120762000D02*
X101585000Y-123952000D01*
X101585000Y-123952000D02*
X91694000Y-123952000D01*
X91694000Y-123952000D02*
X90043000Y-125603000D01*
X90043000Y-125603000D02*
X90043000Y-133223000D01*
X90043000Y-133223000D02*
X91694000Y-134874000D01*
D45*
X90232000Y-113411000D02*
X88519000Y-113411000D01*
X88519000Y-113411000D02*
X87757000Y-112649000D01*
X87757000Y-112649000D02*
X87757000Y-106680000D01*
X87757000Y-106680000D02*
X89281000Y-105156000D01*
X89281000Y-105156000D02*
X103124000Y-105156000D01*
X103124000Y-105156000D02*
X104648000Y-103632000D01*
X104648000Y-103632000D02*
X104648000Y-99060000D01*
X104648000Y-99060000D02*
X106941000Y-96767000D01*
X106941000Y-96767000D02*
X111506000Y-96767000D01*
X90232000Y-115951000D02*
X88392000Y-115951000D01*
X88392000Y-115951000D02*
X87122000Y-114681000D01*
X87122000Y-114681000D02*
X87122000Y-105664000D01*
X87122000Y-105664000D02*
X89774000Y-103012000D01*
X89774000Y-103012000D02*
X101600000Y-103012000D01*
D47*
X90232000Y-112141000D02*
X101234000Y-112141000D01*
X101234000Y-112141000D02*
X104775000Y-115682000D01*
X90232000Y-109601000D02*
X102377000Y-109601000D01*
X102377000Y-109601000D02*
X108458000Y-115682000D01*
D45*
X85282000Y-115951000D02*
X83058000Y-115951000D01*
X83058000Y-115951000D02*
X81280000Y-117729000D01*
X81280000Y-117729000D02*
X81280000Y-120650000D01*
X85282000Y-113411000D02*
X81788000Y-113411000D01*
X81788000Y-113411000D02*
X78740000Y-116459000D01*
X78740000Y-116459000D02*
X78740000Y-120650000D01*
X85282000Y-110871000D02*
X79883000Y-110871000D01*
X79883000Y-110871000D02*
X76200000Y-114554000D01*
X76200000Y-114554000D02*
X76200000Y-120650000D01*
X85282000Y-108331000D02*
X76581000Y-108331000D01*
X76581000Y-108331000D02*
X73660000Y-105410000D01*
D48*
X22860000Y-105410000D02*
X22860000Y-102601000D01*
X22860000Y-102601000D02*
X23622000Y-101839000D01*
D45*
X95113000Y-100203000D02*
X99329000Y-100203000D01*
X99329000Y-100203000D02*
X101600000Y-97932000D01*
X101600000Y-103012000D02*
X101600000Y-100472000D01*
D46*
X108458000Y-120762000D02*
X112903000Y-125207000D01*
X112903000Y-125207000D02*
X112903000Y-133223000D01*
X112903000Y-133223000D02*
X114554000Y-134874000D01*
X97409000Y-118222000D02*
X97409000Y-115682000D01*
X101092000Y-118222000D02*
X101092000Y-115682000D01*
X104775000Y-118222000D02*
X104775000Y-115682000D01*
X108458000Y-118222000D02*
X108458000Y-115682000D01*
D45*
X111506000Y-109227000D02*
X107204500Y-109227000D01*
X107204500Y-109227000D02*
X107188000Y-109243500D01*
X111506000Y-101727000D02*
X107211500Y-101727000D01*
X107211500Y-101727000D02*
X107188000Y-101750500D01*
X111506000Y-94227000D02*
X107345500Y-94227000D01*
X107345500Y-94227000D02*
X107338500Y-94234000D01*
D48*
X28194000Y-134874000D02*
X28194000Y-127254000D01*
X33274000Y-134874000D02*
X33274000Y-127254000D01*
X38354000Y-134874000D02*
X38354000Y-127254000D01*
X73914000Y-134874000D02*
X73914000Y-127254000D01*
X78994000Y-134874000D02*
X78994000Y-127254000D01*
X84074000Y-134874000D02*
X84074000Y-127254000D01*
X106934000Y-134874000D02*
X106934000Y-127254000D01*
X101854000Y-134874000D02*
X101854000Y-127254000D01*
X96774000Y-134874000D02*
X96774000Y-127254000D01*
X104236500Y-141994500D02*
X104236500Y-137571500D01*
X104236500Y-137571500D02*
X106934000Y-134874000D01*
X99236500Y-141994500D02*
X99236500Y-137491500D01*
X99236500Y-137491500D02*
X101854000Y-134874000D01*
X94236500Y-141994500D02*
X94236500Y-137411500D01*
X94236500Y-137411500D02*
X96774000Y-134874000D01*
X84236500Y-141894500D02*
X84236500Y-135036500D01*
X84236500Y-135036500D02*
X84074000Y-134874000D01*
X79236500Y-141994500D02*
X79236500Y-135116500D01*
X79236500Y-135116500D02*
X78994000Y-134874000D01*
X74236500Y-141994500D02*
X74236500Y-135196500D01*
X74236500Y-135196500D02*
X73914000Y-134874000D01*
X64104500Y-141994500D02*
X64104500Y-137764500D01*
X64104500Y-137764500D02*
X61214000Y-134874000D01*
X59104500Y-141994500D02*
X59104500Y-137844500D01*
X59104500Y-137844500D02*
X56134000Y-134874000D01*
X54104500Y-141994500D02*
X54104500Y-137924500D01*
X54104500Y-137924500D02*
X51054000Y-134874000D01*
X44104500Y-141894500D02*
X38354000Y-136144000D01*
X38354000Y-136144000D02*
X38354000Y-134874000D01*
X39104500Y-141994500D02*
X33274000Y-136164000D01*
X33274000Y-136164000D02*
X33274000Y-134874000D01*
X34104500Y-141994500D02*
X28194000Y-136084000D01*
X28194000Y-136084000D02*
X28194000Y-134874000D01*
D45*
X102235000Y-87020400D02*
X106959400Y-91744800D01*
X106959400Y-91744800D02*
X112344200Y-91744800D01*
X112344200Y-91744800D02*
X112897500Y-91191500D01*
X112897500Y-91191500D02*
X112897500Y-90485000D01*
D48*
X107823000Y-79883000D02*
X106045000Y-79883000D01*
X106045000Y-79883000D02*
X104521000Y-78359000D01*
X104521000Y-78359000D02*
X104521000Y-65467000D01*
X104521000Y-65467000D02*
X107958000Y-62030000D01*
D45*
X108481500Y-84934000D02*
X108481500Y-82954500D01*
X108481500Y-82954500D02*
X107823000Y-82296000D01*
X107823000Y-82296000D02*
X107823000Y-79883000D01*
D48*
X102362000Y-3302000D02*
X102362000Y-508000D01*
X102362000Y-508000D02*
X97282000Y4572000D01*
X107569000Y6985000D02*
X97155000Y6985000D01*
X97155000Y6985000D02*
X94742000Y4572000D01*
X94742000Y4572000D02*
X89662000Y4572000D01*
X97282000Y-4318000D02*
X97282000Y-508000D01*
X89662000Y-9652000D02*
X89662000Y-508000D01*
X78232000Y-508000D02*
X85884500Y7144500D01*
X94774500Y7144500D02*
X97282000Y9652000D01*
X85884500Y7144500D02*
X94774500Y7144500D01*
X78232000Y4572000D02*
X85122500Y11462500D01*
X85122500Y11462500D02*
X87851500Y11462500D01*
X87851500Y11462500D02*
X89662000Y9652000D01*
D46*
X55372000Y9652000D02*
X59515500Y5508500D01*
X59515500Y286500D02*
X63071500Y-3269500D01*
X59515500Y5508500D02*
X59515500Y286500D01*
X63071500Y-3269500D02*
X78010500Y-3269500D01*
X78010500Y-3269500D02*
X85852000Y4572000D01*
X51562000Y9652000D02*
X53815500Y7398500D01*
X53815500Y7398500D02*
X55705500Y7398500D01*
X57102500Y6001500D02*
X57102500Y1222500D01*
X55705500Y7398500D02*
X57102500Y6001500D01*
X57102500Y1222500D02*
X55372000Y-508000D01*
D48*
X74422000Y-508000D02*
X75692000Y-508000D01*
X75692000Y-508000D02*
X85852000Y9652000D01*
X66802000Y-508000D02*
X74422000Y-508000D01*
X74422000Y4572000D02*
X74422000Y5842000D01*
X74422000Y5842000D02*
X78232000Y9652000D01*
X74422000Y4572000D02*
X66802000Y4572000D01*
X66802000Y9652000D02*
X74422000Y9652000D01*
D45*
X67304500Y-9205000D02*
X67304500Y-11147000D01*
X67304500Y-11147000D02*
X67333500Y-11176000D01*
X61846500Y-11168200D02*
X61468000Y-10789700D01*
X61468000Y-8077200D02*
X62153800Y-7391400D01*
X61468000Y-10789700D02*
X61468000Y-8077200D01*
X62154900Y-9117500D02*
X62153800Y-9118600D01*
X63119000Y-9117500D02*
X62154900Y-9117500D01*
X70358000Y-13970000D02*
X70358000Y-9144000D01*
X70358000Y-9144000D02*
X68519000Y-7305000D01*
X68519000Y-7305000D02*
X67304500Y-7305000D01*
X52329500Y-97241400D02*
X51038800Y-97241400D01*
X52044600Y-18567400D02*
X55880000Y-14732000D01*
X51038800Y-97241400D02*
X50444400Y-96647000D01*
X50444400Y-96647000D02*
X50444400Y-94907100D01*
X50444400Y-94907100D02*
X52044600Y-93306900D01*
X52044600Y-93306900D02*
X52044600Y-18567400D01*
X63671500Y-12528500D02*
X63671500Y-11168200D01*
X55880000Y-14732000D02*
X61468000Y-14732000D01*
X61468000Y-14732000D02*
X63671500Y-12528500D01*
X63500000Y-105410000D02*
X65532000Y-103378000D01*
X65532000Y-103378000D02*
X68199000Y-103378000D01*
X68199000Y-103378000D02*
X70231000Y-101346000D01*
X70231000Y-101346000D02*
X70231000Y-94488000D01*
X70231000Y-94488000D02*
X72288400Y-92430600D01*
X72288400Y-92430600D02*
X72288400Y-87020400D01*
X62230000Y-92845000D02*
X62230000Y-107315000D01*
X62230000Y-107315000D02*
X63500000Y-108585000D01*
X63500000Y-108585000D02*
X63500000Y-120650000D01*
X59690000Y-94107000D02*
X59690000Y-106680000D01*
X59690000Y-106680000D02*
X60960000Y-107950000D01*
X60960000Y-107950000D02*
X60960000Y-120650000D01*
X54604500Y-97241400D02*
X54604500Y-97795500D01*
X54604500Y-97795500D02*
X54025800Y-98374200D01*
X45796200Y-97078800D02*
X43180000Y-99695000D01*
X54025800Y-98374200D02*
X51689000Y-98374200D01*
X51689000Y-98374200D02*
X51104800Y-97790000D01*
X51104800Y-97790000D02*
X49809400Y-97790000D01*
X49809400Y-97790000D02*
X49098200Y-97078800D01*
X43180000Y-99695000D02*
X43180000Y-105410000D01*
X49098200Y-97078800D02*
X45796200Y-97078800D01*
X50318500Y-93345000D02*
X50393600Y-93345000D01*
X50393600Y-93345000D02*
X51308000Y-92430600D01*
X51308000Y-92430600D02*
X51308000Y-91897200D01*
X35560000Y-105410000D02*
X35560000Y-104267000D01*
X35560000Y-104267000D02*
X44196000Y-95631000D01*
X44196000Y-95631000D02*
X47193200Y-95631000D01*
X47193200Y-95631000D02*
X48006000Y-94818200D01*
X48006000Y-94818200D02*
X48006000Y-93472000D01*
X38100000Y-105410000D02*
X38100000Y-103124000D01*
X38100000Y-103124000D02*
X44856400Y-96367600D01*
X44856400Y-96367600D02*
X47752000Y-96367600D01*
X47752000Y-96367600D02*
X48895000Y-95224600D01*
X48895000Y-95224600D02*
X48895000Y-94742000D01*
X110622500Y-88585000D02*
X111445000Y-88585000D01*
X111445000Y-88585000D02*
X111785400Y-88925400D01*
X111785400Y-88925400D02*
X111785400Y-89738200D01*
X111785400Y-89738200D02*
X112532200Y-90485000D01*
X112532200Y-90485000D02*
X112897500Y-90485000D01*
X114030800Y-88585000D02*
X114046000Y-88569800D01*
X112897500Y-88585000D02*
X114030800Y-88585000D01*
X108458000Y-90524500D02*
X107567900Y-90524500D01*
X107567900Y-90524500D02*
X106656500Y-89613100D01*
X106656500Y-89613100D02*
X106656500Y-86995000D01*
X107493900Y-88799500D02*
X107492800Y-88798400D01*
X108458000Y-88799500D02*
X107493900Y-88799500D01*
X106656500Y-86995000D02*
X106656500Y-84934000D01*
X108458000Y-88799500D02*
X108458000Y-87018500D01*
X108458000Y-87018500D02*
X108481500Y-86995000D01*
X110622500Y-89535000D02*
X109143250Y-89535000D01*
X109143250Y-89535000D02*
X108458000Y-88849750D01*
X108458000Y-88849750D02*
X108458000Y-88799500D01*
X110622500Y-90485000D02*
X108497500Y-90485000D01*
X108497500Y-90485000D02*
X108458000Y-90524500D01*
X25400000Y-120650000D02*
X25400000Y-110617000D01*
X25400000Y-110617000D02*
X26670000Y-109347000D01*
X26670000Y-109347000D02*
X26670000Y-103886000D01*
X26670000Y-103886000D02*
X27686000Y-102870000D01*
X27686000Y-102870000D02*
X27686000Y-101092000D01*
X27940000Y-120650000D02*
X27940000Y-119507000D01*
X27940000Y-119507000D02*
X27178000Y-118745000D01*
X27178000Y-118745000D02*
X27178000Y-115824000D01*
X27178000Y-115824000D02*
X29210000Y-113792000D01*
X29210000Y-113792000D02*
X29210000Y-104013000D01*
X29210000Y-104013000D02*
X28575000Y-103378000D01*
X28575000Y-103378000D02*
X28575000Y-102362000D01*
X45720000Y-107950000D02*
X44450000Y-106680000D01*
X45720000Y-120650000D02*
X45720000Y-107950000D01*
X44450000Y-106680000D02*
X44450000Y-101727000D01*
X97155000Y-40640000D02*
X98425000Y-41910000D01*
X99075000Y-82916000D02*
X99075000Y-85656500D01*
X98425000Y-41910000D02*
X98425000Y-44450000D01*
X97775000Y-85656500D02*
X97775000Y-82027000D01*
X97775000Y-82027000D02*
X95504000Y-79756000D01*
X95504000Y-79756000D02*
X95504000Y-60198000D01*
X95504000Y-60198000D02*
X96012000Y-59690000D01*
X97917000Y-59690000D02*
X98425000Y-59182000D01*
X96012000Y-59690000D02*
X97917000Y-59690000D01*
X98425000Y-59182000D02*
X98425000Y-50673000D01*
X98425000Y-50673000D02*
X94615000Y-46863000D01*
X94615000Y-46863000D02*
X94615000Y-22860000D01*
X94615000Y-22860000D02*
X97155000Y-20320000D01*
X97155000Y-55880000D02*
X95758000Y-55880000D01*
X95758000Y-55880000D02*
X94488000Y-57150000D01*
X94488000Y-57150000D02*
X94488000Y-81305400D01*
X97125000Y-83942400D02*
X97125000Y-85656500D01*
X94488000Y-81305400D02*
X97125000Y-83942400D01*
X98425000Y-44450000D02*
X102362000Y-48387000D01*
X102362000Y-48387000D02*
X102362000Y-79629000D01*
X102362000Y-79629000D02*
X99075000Y-82916000D01*
X97155000Y-76200000D02*
X98425000Y-77470000D01*
X98425000Y-77470000D02*
X98425000Y-85656500D01*
X86995000Y-40640000D02*
X88265000Y-41910000D01*
X88915000Y-82916000D02*
X88915000Y-85656500D01*
X88265000Y-41910000D02*
X88265000Y-44450000D01*
X87615000Y-85656500D02*
X87615000Y-82027000D01*
X87615000Y-82027000D02*
X85344000Y-79756000D01*
X85344000Y-79756000D02*
X85344000Y-60198000D01*
X85344000Y-60198000D02*
X85852000Y-59690000D01*
X87757000Y-59690000D02*
X88265000Y-59182000D01*
X85852000Y-59690000D02*
X87757000Y-59690000D01*
X88265000Y-59182000D02*
X88265000Y-50673000D01*
X88265000Y-50673000D02*
X84455000Y-46863000D01*
X84455000Y-46863000D02*
X84455000Y-22860000D01*
X84455000Y-22860000D02*
X86995000Y-20320000D01*
X86995000Y-55880000D02*
X85598000Y-55880000D01*
X85598000Y-55880000D02*
X84328000Y-57150000D01*
X84328000Y-57150000D02*
X84328000Y-81305400D01*
X86965000Y-83942400D02*
X86965000Y-85656500D01*
X84328000Y-81305400D02*
X86965000Y-83942400D01*
X88265000Y-44450000D02*
X92202000Y-48387000D01*
X92202000Y-48387000D02*
X92202000Y-79629000D01*
X92202000Y-79629000D02*
X88915000Y-82916000D01*
X86995000Y-76200000D02*
X88265000Y-77470000D01*
X88265000Y-77470000D02*
X88265000Y-85656500D01*
X76835000Y-40640000D02*
X78105000Y-41910000D01*
X78755000Y-82916000D02*
X78755000Y-85656500D01*
X78105000Y-41910000D02*
X78105000Y-44450000D01*
X77455000Y-85656500D02*
X77455000Y-82027000D01*
X77455000Y-82027000D02*
X75184000Y-79756000D01*
X75184000Y-79756000D02*
X75184000Y-60198000D01*
X75184000Y-60198000D02*
X75692000Y-59690000D01*
X77597000Y-59690000D02*
X78105000Y-59182000D01*
X75692000Y-59690000D02*
X77597000Y-59690000D01*
X78105000Y-59182000D02*
X78105000Y-50673000D01*
X78105000Y-50673000D02*
X74295000Y-46863000D01*
X74295000Y-46863000D02*
X74295000Y-22860000D01*
X74295000Y-22860000D02*
X76835000Y-20320000D01*
X76835000Y-55880000D02*
X75438000Y-55880000D01*
X75438000Y-55880000D02*
X74168000Y-57150000D01*
X74168000Y-57150000D02*
X74168000Y-81305400D01*
X76805000Y-83942400D02*
X76805000Y-85656500D01*
X74168000Y-81305400D02*
X76805000Y-83942400D01*
X78105000Y-44450000D02*
X82042000Y-48387000D01*
X82042000Y-48387000D02*
X82042000Y-79629000D01*
X82042000Y-79629000D02*
X78755000Y-82916000D01*
X76835000Y-76200000D02*
X78105000Y-77470000D01*
X78105000Y-77470000D02*
X78105000Y-85656500D01*
X66675000Y-40640000D02*
X67945000Y-41910000D01*
X68595000Y-82916000D02*
X68595000Y-85656500D01*
X67945000Y-41910000D02*
X67945000Y-44450000D01*
X67295000Y-85656500D02*
X67295000Y-82027000D01*
X67295000Y-82027000D02*
X65024000Y-79756000D01*
X65024000Y-79756000D02*
X65024000Y-60198000D01*
X65024000Y-60198000D02*
X65532000Y-59690000D01*
X67437000Y-59690000D02*
X67945000Y-59182000D01*
X65532000Y-59690000D02*
X67437000Y-59690000D01*
X67945000Y-59182000D02*
X67945000Y-50673000D01*
X67945000Y-50673000D02*
X64135000Y-46863000D01*
X64135000Y-46863000D02*
X64135000Y-22860000D01*
X64135000Y-22860000D02*
X66675000Y-20320000D01*
X66675000Y-55880000D02*
X65278000Y-55880000D01*
X65278000Y-55880000D02*
X64008000Y-57150000D01*
X64008000Y-57150000D02*
X64008000Y-81305400D01*
X66645000Y-83942400D02*
X66645000Y-85656500D01*
X64008000Y-81305400D02*
X66645000Y-83942400D01*
X67945000Y-44450000D02*
X71882000Y-48387000D01*
X71882000Y-48387000D02*
X71882000Y-79629000D01*
X71882000Y-79629000D02*
X68595000Y-82916000D01*
X66675000Y-76200000D02*
X67945000Y-77470000D01*
X67945000Y-77470000D02*
X67945000Y-85656500D01*
X56515000Y-40640000D02*
X57785000Y-41910000D01*
X58435000Y-82916000D02*
X58435000Y-85656500D01*
X57785000Y-41910000D02*
X57785000Y-44450000D01*
X57135000Y-85656500D02*
X57135000Y-82027000D01*
X57135000Y-82027000D02*
X54864000Y-79756000D01*
X54864000Y-79756000D02*
X54864000Y-60198000D01*
X54864000Y-60198000D02*
X55372000Y-59690000D01*
X57277000Y-59690000D02*
X57785000Y-59182000D01*
X55372000Y-59690000D02*
X57277000Y-59690000D01*
X57785000Y-59182000D02*
X57785000Y-50673000D01*
X57785000Y-50673000D02*
X53975000Y-46863000D01*
X53975000Y-46863000D02*
X53975000Y-22860000D01*
X53975000Y-22860000D02*
X56515000Y-20320000D01*
X56515000Y-55880000D02*
X55118000Y-55880000D01*
X55118000Y-55880000D02*
X53848000Y-57150000D01*
X53848000Y-57150000D02*
X53848000Y-81305400D01*
X56485000Y-83942400D02*
X56485000Y-85656500D01*
X53848000Y-81305400D02*
X56485000Y-83942400D01*
X57785000Y-44450000D02*
X61722000Y-48387000D01*
X61722000Y-48387000D02*
X61722000Y-79629000D01*
X61722000Y-79629000D02*
X58435000Y-82916000D01*
X56515000Y-76200000D02*
X57785000Y-77470000D01*
X57785000Y-77470000D02*
X57785000Y-85656500D01*
X46355000Y-40640000D02*
X47625000Y-41910000D01*
X47625000Y-41910000D02*
X47625000Y-44450000D01*
X47625000Y-44450000D02*
X50419000Y-47244000D01*
X50419000Y-47244000D02*
X50419000Y-80772000D01*
X50419000Y-80772000D02*
X48275000Y-82916000D01*
X48275000Y-82916000D02*
X48275000Y-85656500D01*
X46975000Y-85656500D02*
X46975000Y-82027000D01*
X46975000Y-82027000D02*
X44704000Y-79756000D01*
X44704000Y-79756000D02*
X44704000Y-60198000D01*
X44704000Y-60198000D02*
X45212000Y-59690000D01*
X47117000Y-59690000D02*
X47625000Y-59182000D01*
X45212000Y-59690000D02*
X47117000Y-59690000D01*
X47625000Y-59182000D02*
X47625000Y-50673000D01*
X47625000Y-50673000D02*
X43815000Y-46863000D01*
X43815000Y-46863000D02*
X43815000Y-22860000D01*
X43815000Y-22860000D02*
X46355000Y-20320000D01*
X46355000Y-55880000D02*
X44958000Y-55880000D01*
X44958000Y-55880000D02*
X43688000Y-57150000D01*
X43688000Y-57150000D02*
X43688000Y-81305400D01*
X46325000Y-83942400D02*
X46325000Y-85656500D01*
X43688000Y-81305400D02*
X46325000Y-83942400D01*
X46355000Y-76200000D02*
X47625000Y-77470000D01*
X47625000Y-77470000D02*
X47625000Y-85656500D01*
X26035000Y-40640000D02*
X27305000Y-41910000D01*
X27305000Y-41910000D02*
X27305000Y-44450000D01*
X30480000Y-80391000D02*
X27955000Y-82916000D01*
X27305000Y-44450000D02*
X30480000Y-47625000D01*
X27955000Y-82916000D02*
X27955000Y-85656500D01*
X30480000Y-47625000D02*
X30480000Y-80391000D01*
X26655000Y-85656500D02*
X26655000Y-82027000D01*
X26655000Y-82027000D02*
X24384000Y-79756000D01*
X24384000Y-79756000D02*
X24384000Y-60198000D01*
X24384000Y-60198000D02*
X24892000Y-59690000D01*
X26797000Y-59690000D02*
X27305000Y-59182000D01*
X24892000Y-59690000D02*
X26797000Y-59690000D01*
X27305000Y-59182000D02*
X27305000Y-50673000D01*
X27305000Y-50673000D02*
X23495000Y-46863000D01*
X23495000Y-46863000D02*
X23495000Y-22860000D01*
X23495000Y-22860000D02*
X26035000Y-20320000D01*
X26035000Y-55880000D02*
X24638000Y-55880000D01*
X24638000Y-55880000D02*
X23368000Y-57150000D01*
X23368000Y-57150000D02*
X23368000Y-81305400D01*
X26005000Y-83942400D02*
X26005000Y-85656500D01*
X23368000Y-81305400D02*
X26005000Y-83942400D01*
X26035000Y-76200000D02*
X27305000Y-77470000D01*
X27305000Y-77470000D02*
X27305000Y-85656500D01*
X36195000Y-40640000D02*
X37465000Y-41910000D01*
X38115000Y-82916000D02*
X38115000Y-85656500D01*
X37465000Y-41910000D02*
X37465000Y-44450000D01*
X37465000Y-44450000D02*
X41402000Y-48387000D01*
X41402000Y-48387000D02*
X41402000Y-79629000D01*
X41402000Y-79629000D02*
X38115000Y-82916000D01*
X36815000Y-85656500D02*
X36815000Y-82027000D01*
X36815000Y-82027000D02*
X34544000Y-79756000D01*
X34544000Y-79756000D02*
X34544000Y-60198000D01*
X34544000Y-60198000D02*
X35052000Y-59690000D01*
X36957000Y-59690000D02*
X37465000Y-59182000D01*
X35052000Y-59690000D02*
X36957000Y-59690000D01*
X37465000Y-59182000D02*
X37465000Y-50673000D01*
X37465000Y-50673000D02*
X33655000Y-46863000D01*
X33655000Y-46863000D02*
X33655000Y-22860000D01*
X33655000Y-22860000D02*
X36195000Y-20320000D01*
X36195000Y-55880000D02*
X34798000Y-55880000D01*
X34798000Y-55880000D02*
X33528000Y-57150000D01*
X33528000Y-57150000D02*
X33528000Y-81305400D01*
X36165000Y-83942400D02*
X36165000Y-85656500D01*
X33528000Y-81305400D02*
X36165000Y-83942400D01*
X110129200Y-76478300D02*
X111653200Y-76478300D01*
X110129200Y-74753300D02*
X111653200Y-74753300D01*
X90232000Y-117994200D02*
X90246200Y-118008400D01*
X90232000Y-117221000D02*
X90232000Y-117994200D01*
X30200600Y-101092000D02*
X30200600Y-101044375D01*
X30200600Y-101044375D02*
X31120500Y-100124475D01*
X31120500Y-100124475D02*
X31120500Y-99248000D01*
X29845000Y-1422400D02*
X30657800Y-609600D01*
X29845000Y-2094000D02*
X29845000Y-1422400D01*
X86791800Y-118084600D02*
X85928200Y-117221000D01*
X85928200Y-117221000D02*
X85282000Y-117221000D01*
X85282000Y-117994200D02*
X85267800Y-118008400D01*
X85282000Y-117221000D02*
X85282000Y-117994200D01*
X85282000Y-117221000D02*
X83820000Y-117221000D01*
X30621200Y-2094000D02*
X30632400Y-2082800D01*
X29845000Y-2094000D02*
X30621200Y-2094000D01*
X29845000Y-2094000D02*
X29845000Y-3556000D01*
X107823000Y-79883000D02*
X110077300Y-79883000D01*
X110077300Y-79883000D02*
X110129200Y-79831100D01*
X107823000Y-77343000D02*
X108687700Y-76478300D01*
X108687700Y-76478300D02*
X110129200Y-76478300D01*
X107823000Y-74803000D02*
X110079500Y-74803000D01*
X110079500Y-74803000D02*
X110129200Y-74753300D01*
X110129200Y-78106100D02*
X110129200Y-76478300D01*
X107823000Y-18923000D02*
X110102700Y-18923000D01*
X110102700Y-18923000D02*
X110154600Y-18974900D01*
X107823000Y-24003000D02*
X110104900Y-24003000D01*
X110104900Y-24003000D02*
X110154600Y-24052700D01*
X107823000Y-21463000D02*
X108586100Y-20699900D01*
X108586100Y-20699900D02*
X110154600Y-20699900D01*
X110154600Y-22327700D02*
X110154600Y-20699900D01*
X110154600Y-20699900D02*
X111678600Y-20699900D01*
X110154600Y-18974900D02*
X111678600Y-18974900D01*
X63671500Y-11168200D02*
X65500700Y-11168200D01*
X54980800Y-95341400D02*
X55549800Y-95910400D01*
X54604500Y-95341400D02*
X54980800Y-95341400D01*
X33020000Y-105410000D02*
X41681400Y-96748600D01*
X41681400Y-96748600D02*
X41681400Y-87401400D01*
X41681400Y-87401400D02*
X40640000Y-86360000D01*
X30200600Y-102817000D02*
X30200600Y-103834100D01*
X30480000Y-105410000D02*
X33395500Y-102494500D01*
X33395500Y-102494500D02*
X33395500Y-99248000D01*
X34559200Y-97348000D02*
X34569400Y-97358200D01*
X33395500Y-97348000D02*
X34559200Y-97348000D01*
X31120500Y-98298000D02*
X29921200Y-98298000D01*
X31138500Y-94234000D02*
X31138500Y-94464500D01*
X29448800Y-99248000D02*
X31120500Y-99248000D01*
X31138500Y-94464500D02*
X29083000Y-96520000D01*
X29083000Y-96520000D02*
X29083000Y-98882200D01*
X29083000Y-98882200D02*
X29448800Y-99248000D01*
X29313500Y-93042100D02*
X29311600Y-93040200D01*
X29313500Y-94234000D02*
X29313500Y-93042100D01*
X31138500Y-94234000D02*
X32869500Y-94234000D01*
X53340000Y-105410000D02*
X51841400Y-103911400D01*
X51841400Y-103911400D02*
X51841400Y-99822000D01*
X54604500Y-97241400D02*
X54239200Y-97241400D01*
X54239200Y-97241400D02*
X53492400Y-96494600D01*
X53492400Y-96494600D02*
X53492400Y-95707200D01*
X53492400Y-95707200D02*
X53126600Y-95341400D01*
X53126600Y-95341400D02*
X52329500Y-95341400D01*
X31120500Y-97348000D02*
X31917600Y-97348000D01*
X31917600Y-97348000D02*
X32334200Y-97764600D01*
X32334200Y-97764600D02*
X32334200Y-98526600D01*
X32334200Y-98526600D02*
X33055600Y-99248000D01*
X33055600Y-99248000D02*
X33395500Y-99248000D01*
X52329500Y-96291400D02*
X51155600Y-96291400D01*
X62154900Y-7392500D02*
X62153800Y-7391400D01*
X63119000Y-7392500D02*
X62154900Y-7392500D01*
X65029500Y-9205000D02*
X63206500Y-9205000D01*
X63206500Y-9205000D02*
X63119000Y-9117500D01*
X65029500Y-8255000D02*
X63981500Y-8255000D01*
X63981500Y-8255000D02*
X63119000Y-7392500D01*
X65029500Y-7305000D02*
X65852000Y-7305000D01*
X65852000Y-7305000D02*
X66294000Y-7747000D01*
X66294000Y-7747000D02*
X66294000Y-8509000D01*
X66294000Y-8509000D02*
X66990000Y-9205000D01*
X66990000Y-9205000D02*
X67304500Y-9205000D01*
X78740000Y-105410000D02*
X78740000Y-101473000D01*
X78740000Y-101473000D02*
X80010000Y-100203000D01*
X80010000Y-100203000D02*
X80010000Y-95377000D01*
X59735000Y-91381500D02*
X60444300Y-91381500D01*
X33782000Y-89688500D02*
X33782000Y-88519000D01*
X94742000Y-89688500D02*
X94742000Y-88519000D01*
X23622000Y-89688500D02*
X23622000Y-88519000D01*
X84582000Y-89688500D02*
X84582000Y-88519000D01*
X90215000Y-91381500D02*
X90924300Y-91381500D01*
X40124300Y-91381500D02*
X40132000Y-91389200D01*
X60444300Y-91381500D02*
X60452000Y-91389200D01*
X74422000Y-87349500D02*
X74422000Y-88519000D01*
X100375000Y-91381500D02*
X101084300Y-91381500D01*
X43942000Y-87349500D02*
X43942000Y-88519000D01*
X90924300Y-91381500D02*
X90932000Y-91389200D01*
X54102000Y-87349500D02*
X54102000Y-88519000D01*
X64262000Y-87349500D02*
X64262000Y-88519000D01*
X84582000Y-87349500D02*
X84582000Y-88519000D01*
X94742000Y-87349500D02*
X94742000Y-88519000D01*
X70604300Y-91381500D02*
X70612000Y-91389200D01*
X29255000Y-91381500D02*
X29964300Y-91381500D01*
X49575000Y-91381500D02*
X50284300Y-91381500D01*
X29964300Y-91381500D02*
X29972000Y-91389200D01*
X23622000Y-87349500D02*
X23622000Y-88519000D01*
X54102000Y-89688500D02*
X54102000Y-88519000D01*
X69895000Y-91381500D02*
X70604300Y-91381500D01*
X80764300Y-91381500D02*
X80772000Y-91389200D01*
X33782000Y-87349500D02*
X33782000Y-88519000D01*
X43942000Y-89688500D02*
X43942000Y-88519000D01*
X50284300Y-91381500D02*
X50292000Y-91389200D01*
X101084300Y-91381500D02*
X101092000Y-91389200D01*
X39415000Y-91381500D02*
X40124300Y-91381500D01*
X64262000Y-89688500D02*
X64262000Y-88519000D01*
X74422000Y-89688500D02*
X74422000Y-88519000D01*
X80055000Y-91381500D02*
X80764300Y-91381500D01*
X35515000Y-85656500D02*
X33814000Y-85656500D01*
X25355000Y-85656500D02*
X23654000Y-85656500D01*
X65995000Y-85656500D02*
X64294000Y-85656500D01*
X43942000Y-85624500D02*
X43942000Y-84582000D01*
X94774000Y-85656500D02*
X94742000Y-85624500D01*
X54102000Y-85624500D02*
X54102000Y-84582000D01*
X84614000Y-85656500D02*
X84582000Y-85624500D01*
X64294000Y-85656500D02*
X64262000Y-85624500D01*
X94742000Y-85624500D02*
X94742000Y-84582000D01*
X45675000Y-85656500D02*
X43974000Y-85656500D01*
X76155000Y-85656500D02*
X74454000Y-85656500D01*
X84582000Y-85624500D02*
X84582000Y-84582000D01*
X23622000Y-85624500D02*
X23622000Y-84582000D01*
X74454000Y-85656500D02*
X74422000Y-85624500D01*
X33814000Y-85656500D02*
X33782000Y-85624500D01*
X96475000Y-85656500D02*
X94774000Y-85656500D01*
X43974000Y-85656500D02*
X43942000Y-85624500D01*
X74422000Y-85624500D02*
X74422000Y-84582000D01*
X64262000Y-85624500D02*
X64262000Y-84582000D01*
X86315000Y-85656500D02*
X84614000Y-85656500D01*
X33782000Y-85624500D02*
X33782000Y-84582000D01*
X54134000Y-85656500D02*
X54102000Y-85624500D01*
X23654000Y-85656500D02*
X23622000Y-85624500D01*
X55835000Y-85656500D02*
X54134000Y-85656500D01*
X36195000Y-76200000D02*
X37465000Y-77470000D01*
X37465000Y-77470000D02*
X37465000Y-85656500D01*
X107188000Y-99925500D02*
X107188000Y-98679000D01*
X107188000Y-107418500D02*
X107188000Y-106172000D01*
X105513500Y-94234000D02*
X104267000Y-94234000D01*
X36815000Y-91381500D02*
X36815000Y-98791000D01*
X77455000Y-98791000D02*
X77851000Y-99187000D01*
X77455000Y-91381500D02*
X77455000Y-98791000D01*
X45720000Y-105410000D02*
X45720000Y-99187000D01*
X36815000Y-98791000D02*
X37211000Y-99187000D01*
X67295000Y-91381500D02*
X67295000Y-101331000D01*
X67295000Y-101331000D02*
X67691000Y-101727000D01*
X26655000Y-101331000D02*
X27051000Y-101727000D01*
X26655000Y-91381500D02*
X26655000Y-101331000D01*
X36165000Y-99411000D02*
X36576000Y-99822000D01*
X76805000Y-99411000D02*
X77216000Y-99822000D01*
X76805000Y-91381500D02*
X76805000Y-99411000D01*
X36165000Y-91381500D02*
X36165000Y-99411000D01*
X88265000Y-91381500D02*
X88265000Y-93091000D01*
X47625000Y-93091000D02*
X48006000Y-93472000D01*
X88265000Y-93091000D02*
X88646000Y-93472000D01*
X47625000Y-91381500D02*
X47625000Y-93091000D01*
X46975000Y-91381500D02*
X46975000Y-93711000D01*
X87615000Y-91381500D02*
X87615000Y-93711000D01*
X46975000Y-93711000D02*
X47371000Y-94107000D01*
X87615000Y-93711000D02*
X88011000Y-94107000D01*
X26005000Y-91381500D02*
X26005000Y-101951000D01*
X26005000Y-101951000D02*
X26416000Y-102362000D01*
X66645000Y-101951000D02*
X67056000Y-102362000D01*
X66645000Y-91381500D02*
X66645000Y-101951000D01*
X85282000Y-112141000D02*
X85282000Y-110871000D01*
X68595000Y-100091000D02*
X68961000Y-100457000D01*
X68595000Y-91381500D02*
X68595000Y-100091000D01*
X27955000Y-100091000D02*
X28321000Y-100457000D01*
X27955000Y-91381500D02*
X27955000Y-100091000D01*
X46325000Y-94331000D02*
X46736000Y-94742000D01*
X46325000Y-91381500D02*
X46325000Y-94331000D01*
X86965000Y-94331000D02*
X87376000Y-94742000D01*
X86965000Y-91381500D02*
X86965000Y-94331000D01*
X85282000Y-109601000D02*
X85282000Y-108331000D01*
X74422000Y-91413500D02*
X73432500Y-91413500D01*
X54102000Y-91413500D02*
X53112500Y-91413500D01*
X43974000Y-91381500D02*
X43942000Y-91413500D01*
X76155000Y-91381500D02*
X74454000Y-91381500D01*
X55835000Y-91381500D02*
X54134000Y-91381500D01*
X64294000Y-91381500D02*
X64262000Y-91413500D01*
X43942000Y-91413500D02*
X42952500Y-91413500D01*
X65995000Y-91381500D02*
X64294000Y-91381500D01*
X84614000Y-91381500D02*
X84582000Y-91413500D01*
X53112500Y-91413500D02*
X53111400Y-91414600D01*
X33814000Y-91381500D02*
X33782000Y-91413500D01*
X73432500Y-91413500D02*
X73431400Y-91414600D01*
X74454000Y-91381500D02*
X74422000Y-91413500D01*
X96475000Y-91381500D02*
X94774000Y-91381500D01*
X54134000Y-91381500D02*
X54102000Y-91413500D01*
X22632500Y-91413500D02*
X22631400Y-91414600D01*
X93752500Y-91413500D02*
X93751400Y-91414600D01*
X83592500Y-91413500D02*
X83591400Y-91414600D01*
X64262000Y-91413500D02*
X63272500Y-91413500D01*
X23654000Y-91381500D02*
X23622000Y-91413500D01*
X33782000Y-91413500D02*
X32792500Y-91413500D01*
X94742000Y-91413500D02*
X93752500Y-91413500D01*
X84582000Y-91413500D02*
X83592500Y-91413500D01*
X23622000Y-91413500D02*
X22632500Y-91413500D01*
X45675000Y-91381500D02*
X43974000Y-91381500D01*
X42952500Y-91413500D02*
X42951400Y-91414600D01*
X25355000Y-91381500D02*
X23654000Y-91381500D01*
X86315000Y-91381500D02*
X84614000Y-91381500D01*
X32792500Y-91413500D02*
X32791400Y-91414600D01*
X35515000Y-91381500D02*
X33814000Y-91381500D01*
X63272500Y-91413500D02*
X63271400Y-91414600D01*
X94774000Y-91381500D02*
X94742000Y-91413500D01*
X48275000Y-92471000D02*
X48641000Y-92837000D01*
X88915000Y-91381500D02*
X88915000Y-92471000D01*
X88915000Y-92471000D02*
X89281000Y-92837000D01*
X48275000Y-91381500D02*
X48275000Y-92471000D01*
X85282000Y-114681000D02*
X85282000Y-113411000D01*
X78755000Y-91381500D02*
X78755000Y-97551000D01*
X38115000Y-97551000D02*
X38481000Y-97917000D01*
X38115000Y-91381500D02*
X38115000Y-97551000D01*
X78755000Y-97551000D02*
X79121000Y-97917000D01*
X48260000Y-105410000D02*
X48260000Y-97917000D01*
X98806000Y-96012000D02*
X98425000Y-95631000D01*
X58166000Y-96012000D02*
X57785000Y-95631000D01*
X98425000Y-95631000D02*
X98425000Y-91381500D01*
X57785000Y-95631000D02*
X57785000Y-91381500D01*
X57135000Y-96251000D02*
X57135000Y-91381500D01*
X98171000Y-96647000D02*
X97775000Y-96251000D01*
X57531000Y-96647000D02*
X57135000Y-96251000D01*
X97775000Y-96251000D02*
X97775000Y-91381500D01*
X67945000Y-91381500D02*
X67945000Y-100711000D01*
X27305000Y-100711000D02*
X27686000Y-101092000D01*
X67945000Y-100711000D02*
X68326000Y-101092000D01*
X27305000Y-91381500D02*
X27305000Y-100711000D01*
X99075000Y-95011000D02*
X99075000Y-91381500D01*
X58435000Y-95011000D02*
X58435000Y-91381500D01*
X58801000Y-95377000D02*
X58435000Y-95011000D01*
X99441000Y-95377000D02*
X99075000Y-95011000D01*
X56896000Y-97282000D02*
X56485000Y-96871000D01*
X97125000Y-96871000D02*
X97125000Y-91381500D01*
X72390000Y-106680000D02*
X72390000Y-97282000D01*
X97536000Y-97282000D02*
X97125000Y-96871000D01*
X73660000Y-120650000D02*
X73660000Y-107950000D01*
X56485000Y-96871000D02*
X56485000Y-91381500D01*
X73660000Y-107950000D02*
X72390000Y-106680000D01*
X37465000Y-91381500D02*
X37465000Y-98171000D01*
X78105000Y-91381500D02*
X78105000Y-98171000D01*
X78105000Y-98171000D02*
X78486000Y-98552000D01*
X50800000Y-105410000D02*
X50800000Y-98552000D01*
X37465000Y-98171000D02*
X37846000Y-98552000D01*
X50096500Y-85656500D02*
X50800000Y-86360000D01*
X29255000Y-85656500D02*
X29776500Y-85656500D01*
X39936500Y-85656500D02*
X40640000Y-86360000D01*
X49575000Y-85656500D02*
X50096500Y-85656500D01*
X60256500Y-85656500D02*
X60960000Y-86360000D01*
X59735000Y-85656500D02*
X60256500Y-85656500D01*
X39415000Y-85656500D02*
X39936500Y-85656500D01*
X29776500Y-85656500D02*
X30480000Y-86360000D01*
X81280000Y-94538800D02*
X82118200Y-93700600D01*
X70416500Y-85656500D02*
X71120000Y-86360000D01*
X82118200Y-93700600D02*
X82118200Y-87198200D01*
X82118200Y-87198200D02*
X81280000Y-86360000D01*
X90215000Y-85656500D02*
X90736500Y-85656500D01*
X81280000Y-105410000D02*
X81280000Y-94538800D01*
X69895000Y-85656500D02*
X70416500Y-85656500D01*
X80576500Y-85656500D02*
X81280000Y-86360000D01*
X100896500Y-85656500D02*
X101600000Y-86360000D01*
X90736500Y-85656500D02*
X91440000Y-86360000D01*
X80055000Y-85656500D02*
X80576500Y-85656500D01*
X100375000Y-85656500D02*
X100896500Y-85656500D01*
X41910000Y-106680000D02*
X41910000Y-100457000D01*
X43180000Y-107950000D02*
X41910000Y-106680000D01*
X43180000Y-120650000D02*
X43180000Y-107950000D01*
X75184000Y-101092000D02*
X75184000Y-96647000D01*
X76200000Y-102108000D02*
X75184000Y-101092000D01*
X76200000Y-105410000D02*
X76200000Y-102108000D01*
X69850000Y-104267000D02*
X69850000Y-106680000D01*
X71602600Y-96012000D02*
X71602600Y-102514400D01*
X71602600Y-102514400D02*
X69850000Y-104267000D01*
X69850000Y-106680000D02*
X71120000Y-107950000D01*
X71120000Y-107950000D02*
X71120000Y-120650000D01*
D48*
X61214000Y-134874000D02*
X61214000Y-127254000D01*
X56134000Y-134874000D02*
X56134000Y-127254000D01*
X51054000Y-134874000D02*
X51054000Y-127254000D01*
M02*
