%TF.GenerationSoftware,KiCad,Pcbnew,6.0.11+dfsg-1*%
%TF.CreationDate,2024-06-30T22:37:57-05:00*%
%TF.ProjectId,backplane_tracer,6261636b-706c-4616-9e65-5f7472616365,rev?*%
%TF.SameCoordinates,Original*%
%TF.FileFunction,Soldermask,Top*%
%TF.FilePolarity,Negative*%
%FSLAX46Y46*%
G04 Gerber Fmt 4.6, Leading zero omitted, Abs format (unit mm)*
G04 Created by KiCad (PCBNEW 6.0.11+dfsg-1) date 2024-06-30 22:37:57*
%MOMM*%
%LPD*%
G01*
G04 APERTURE LIST*
G04 Aperture macros list*
%AMRoundRect*
0 Rectangle with rounded corners*
0 $1 Rounding radius*
0 $2 $3 $4 $5 $6 $7 $8 $9 X,Y pos of 4 corners*
0 Add a 4 corners polygon primitive as box body*
4,1,4,$2,$3,$4,$5,$6,$7,$8,$9,$2,$3,0*
0 Add four circle primitives for the rounded corners*
1,1,$1+$1,$2,$3*
1,1,$1+$1,$4,$5*
1,1,$1+$1,$6,$7*
1,1,$1+$1,$8,$9*
0 Add four rect primitives between the rounded corners*
20,1,$1+$1,$2,$3,$4,$5,0*
20,1,$1+$1,$4,$5,$6,$7,0*
20,1,$1+$1,$6,$7,$8,$9,0*
20,1,$1+$1,$8,$9,$2,$3,0*%
%AMFreePoly0*
4,1,22,0.500000,-0.750000,0.000000,-0.750000,0.000000,-0.745033,-0.079941,-0.743568,-0.215256,-0.701293,-0.333266,-0.622738,-0.424486,-0.514219,-0.481581,-0.384460,-0.499164,-0.250000,-0.500000,-0.250000,-0.500000,0.250000,-0.499164,0.250000,-0.499963,0.256109,-0.478152,0.396186,-0.417904,0.524511,-0.324060,0.630769,-0.204165,0.706417,-0.067858,0.745374,0.000000,0.744959,0.000000,0.750000,
0.500000,0.750000,0.500000,-0.750000,0.500000,-0.750000,$1*%
%AMFreePoly1*
4,1,20,0.000000,0.744959,0.073905,0.744508,0.209726,0.703889,0.328688,0.626782,0.421226,0.519385,0.479903,0.390333,0.500000,0.250000,0.500000,-0.250000,0.499851,-0.262216,0.476331,-0.402017,0.414519,-0.529596,0.319384,-0.634700,0.198574,-0.708877,0.061801,-0.746166,0.000000,-0.745033,0.000000,-0.750000,-0.500000,-0.750000,-0.500000,0.750000,0.000000,0.750000,0.000000,0.744959,
0.000000,0.744959,$1*%
G04 Aperture macros list end*
%ADD10RoundRect,0.200000X0.200000X0.275000X-0.200000X0.275000X-0.200000X-0.275000X0.200000X-0.275000X0*%
%ADD11RoundRect,0.200000X-0.200000X-0.275000X0.200000X-0.275000X0.200000X0.275000X-0.200000X0.275000X0*%
%ADD12RoundRect,0.200000X0.275000X-0.200000X0.275000X0.200000X-0.275000X0.200000X-0.275000X-0.200000X0*%
%ADD13RoundRect,0.225000X0.225000X0.250000X-0.225000X0.250000X-0.225000X-0.250000X0.225000X-0.250000X0*%
%ADD14R,0.800000X0.500000*%
%ADD15R,0.800000X0.400000*%
%ADD16C,3.700000*%
%ADD17RoundRect,0.225000X0.250000X-0.225000X0.250000X0.225000X-0.250000X0.225000X-0.250000X-0.225000X0*%
%ADD18RoundRect,0.100000X-0.637500X-0.100000X0.637500X-0.100000X0.637500X0.100000X-0.637500X0.100000X0*%
%ADD19FreePoly0,0.000000*%
%ADD20FreePoly1,0.000000*%
%ADD21FreePoly0,90.000000*%
%ADD22FreePoly1,90.000000*%
%ADD23RoundRect,0.250000X-0.600000X0.600000X-0.600000X-0.600000X0.600000X-0.600000X0.600000X0.600000X0*%
%ADD24C,1.700000*%
%ADD25C,3.500000*%
%ADD26RoundRect,0.250000X0.600000X-0.600000X0.600000X0.600000X-0.600000X0.600000X-0.600000X-0.600000X0*%
%ADD27R,2.032000X13.208000*%
G04 APERTURE END LIST*
D10*
%TO.C,R13*%
X79541500Y-72136000D03*
X77891500Y-72136000D03*
%TD*%
D11*
%TO.C,R12*%
X77891500Y-74168000D03*
X79541500Y-74168000D03*
%TD*%
D10*
%TO.C,R11*%
X93511500Y-72136000D03*
X91861500Y-72136000D03*
%TD*%
D11*
%TO.C,R10*%
X91861500Y-74168000D03*
X93511500Y-74168000D03*
%TD*%
D10*
%TO.C,R9*%
X107481500Y-72136000D03*
X105831500Y-72136000D03*
%TD*%
D11*
%TO.C,R8*%
X105831500Y-74168000D03*
X107481500Y-74168000D03*
%TD*%
D10*
%TO.C,R7*%
X121475000Y-72136000D03*
X119825000Y-72136000D03*
%TD*%
D11*
%TO.C,R6*%
X119825000Y-74168000D03*
X121475000Y-74168000D03*
%TD*%
D10*
%TO.C,R5*%
X135445000Y-72136000D03*
X133795000Y-72136000D03*
%TD*%
D11*
%TO.C,R4*%
X133795000Y-74168000D03*
X135445000Y-74168000D03*
%TD*%
D10*
%TO.C,R3*%
X149415000Y-72136000D03*
X147765000Y-72136000D03*
%TD*%
D11*
%TO.C,R2*%
X147765000Y-74168000D03*
X149415000Y-74168000D03*
%TD*%
D12*
%TO.C,R1*%
X158496000Y-68365500D03*
X158496000Y-66715500D03*
%TD*%
D13*
%TO.C,C26*%
X81633000Y-91354000D03*
X80083000Y-91354000D03*
%TD*%
D14*
%TO.C,RN13*%
X101727000Y-80588000D03*
D15*
X101727000Y-81388000D03*
X101727000Y-82188000D03*
D14*
X101727000Y-82988000D03*
X103527000Y-82988000D03*
D15*
X103527000Y-82188000D03*
X103527000Y-81388000D03*
D14*
X103527000Y-80588000D03*
%TD*%
D16*
%TO.C,H3*%
X151384000Y-63500000D03*
%TD*%
D17*
%TO.C,C21*%
X111963200Y-80785000D03*
X111963200Y-79235000D03*
%TD*%
%TO.C,C1*%
X190500000Y-79134000D03*
X190500000Y-77584000D03*
%TD*%
D18*
%TO.C,U1*%
X190050500Y-82688000D03*
X190050500Y-83338000D03*
X190050500Y-83988000D03*
X190050500Y-84638000D03*
X190050500Y-85288000D03*
X190050500Y-85938000D03*
X190050500Y-86588000D03*
X190050500Y-87238000D03*
X195775500Y-87238000D03*
X195775500Y-86588000D03*
X195775500Y-85938000D03*
X195775500Y-85288000D03*
X195775500Y-84638000D03*
X195775500Y-83988000D03*
X195775500Y-83338000D03*
X195775500Y-82688000D03*
%TD*%
D19*
%TO.C,JP6*%
X151980500Y-73152000D03*
D20*
X153280500Y-73152000D03*
%TD*%
D17*
%TO.C,C25*%
X78740000Y-79134000D03*
X78740000Y-77584000D03*
%TD*%
D18*
%TO.C,U9*%
X134170500Y-82688000D03*
X134170500Y-83338000D03*
X134170500Y-83988000D03*
X134170500Y-84638000D03*
X134170500Y-85288000D03*
X134170500Y-85938000D03*
X134170500Y-86588000D03*
X134170500Y-87238000D03*
X139895500Y-87238000D03*
X139895500Y-86588000D03*
X139895500Y-85938000D03*
X139895500Y-85288000D03*
X139895500Y-84638000D03*
X139895500Y-83988000D03*
X139895500Y-83338000D03*
X139895500Y-82688000D03*
%TD*%
D14*
%TO.C,RN10*%
X129667000Y-85668000D03*
D15*
X129667000Y-86468000D03*
X129667000Y-87268000D03*
D14*
X129667000Y-88068000D03*
X131467000Y-88068000D03*
D15*
X131467000Y-87268000D03*
X131467000Y-86468000D03*
D14*
X131467000Y-85668000D03*
%TD*%
D18*
%TO.C,U18*%
X76004500Y-94118000D03*
X76004500Y-94768000D03*
X76004500Y-95418000D03*
X76004500Y-96068000D03*
X76004500Y-96718000D03*
X76004500Y-97368000D03*
X76004500Y-98018000D03*
X76004500Y-98668000D03*
X81729500Y-98668000D03*
X81729500Y-98018000D03*
X81729500Y-97368000D03*
X81729500Y-96718000D03*
X81729500Y-96068000D03*
X81729500Y-95418000D03*
X81729500Y-94768000D03*
X81729500Y-94118000D03*
%TD*%
D13*
%TO.C,C8*%
X165453000Y-91354000D03*
X163903000Y-91354000D03*
%TD*%
%TO.C,C2*%
X193393000Y-91354000D03*
X191843000Y-91354000D03*
%TD*%
D14*
%TO.C,RN7*%
X143637000Y-80588000D03*
D15*
X143637000Y-81388000D03*
X143637000Y-82188000D03*
D14*
X143637000Y-82988000D03*
X145437000Y-82988000D03*
D15*
X145437000Y-82188000D03*
X145437000Y-81388000D03*
D14*
X145437000Y-80588000D03*
%TD*%
D13*
%TO.C,C14*%
X137513000Y-91354000D03*
X135963000Y-91354000D03*
%TD*%
D17*
%TO.C,C15*%
X139903200Y-80785000D03*
X139903200Y-79235000D03*
%TD*%
D18*
%TO.C,U14*%
X103944500Y-94118000D03*
X103944500Y-94768000D03*
X103944500Y-95418000D03*
X103944500Y-96068000D03*
X103944500Y-96718000D03*
X103944500Y-97368000D03*
X103944500Y-98018000D03*
X103944500Y-98668000D03*
X109669500Y-98668000D03*
X109669500Y-98018000D03*
X109669500Y-97368000D03*
X109669500Y-96718000D03*
X109669500Y-96068000D03*
X109669500Y-95418000D03*
X109669500Y-94768000D03*
X109669500Y-94118000D03*
%TD*%
%TO.C,U7*%
X148140500Y-82688000D03*
X148140500Y-83338000D03*
X148140500Y-83988000D03*
X148140500Y-84638000D03*
X148140500Y-85288000D03*
X148140500Y-85938000D03*
X148140500Y-86588000D03*
X148140500Y-87238000D03*
X153865500Y-87238000D03*
X153865500Y-86588000D03*
X153865500Y-85938000D03*
X153865500Y-85288000D03*
X153865500Y-84638000D03*
X153865500Y-83988000D03*
X153865500Y-83338000D03*
X153865500Y-82688000D03*
%TD*%
D14*
%TO.C,RN16*%
X87757000Y-85668000D03*
D15*
X87757000Y-86468000D03*
X87757000Y-87268000D03*
D14*
X87757000Y-88068000D03*
X89557000Y-88068000D03*
D15*
X89557000Y-87268000D03*
X89557000Y-86468000D03*
D14*
X89557000Y-85668000D03*
%TD*%
D21*
%TO.C,JP12*%
X149529800Y-117363000D03*
D22*
X149529800Y-116063000D03*
%TD*%
D18*
%TO.C,U16*%
X89974500Y-94118000D03*
X89974500Y-94768000D03*
X89974500Y-95418000D03*
X89974500Y-96068000D03*
X89974500Y-96718000D03*
X89974500Y-97368000D03*
X89974500Y-98018000D03*
X89974500Y-98668000D03*
X95699500Y-98668000D03*
X95699500Y-98018000D03*
X95699500Y-97368000D03*
X95699500Y-96718000D03*
X95699500Y-96068000D03*
X95699500Y-95418000D03*
X95699500Y-94768000D03*
X95699500Y-94118000D03*
%TD*%
D16*
%TO.C,H6*%
X132588000Y-119888000D03*
%TD*%
D18*
%TO.C,U8*%
X145854500Y-94118000D03*
X145854500Y-94768000D03*
X145854500Y-95418000D03*
X145854500Y-96068000D03*
X145854500Y-96718000D03*
X145854500Y-97368000D03*
X145854500Y-98018000D03*
X145854500Y-98668000D03*
X151579500Y-98668000D03*
X151579500Y-98018000D03*
X151579500Y-97368000D03*
X151579500Y-96718000D03*
X151579500Y-96068000D03*
X151579500Y-95418000D03*
X151579500Y-94768000D03*
X151579500Y-94118000D03*
%TD*%
%TO.C,U4*%
X173794500Y-94118000D03*
X173794500Y-94768000D03*
X173794500Y-95418000D03*
X173794500Y-96068000D03*
X173794500Y-96718000D03*
X173794500Y-97368000D03*
X173794500Y-98018000D03*
X173794500Y-98668000D03*
X179519500Y-98668000D03*
X179519500Y-98018000D03*
X179519500Y-97368000D03*
X179519500Y-96718000D03*
X179519500Y-96068000D03*
X179519500Y-95418000D03*
X179519500Y-94768000D03*
X179519500Y-94118000D03*
%TD*%
D13*
%TO.C,C17*%
X123543000Y-91354000D03*
X121993000Y-91354000D03*
%TD*%
D14*
%TO.C,RN14*%
X101727000Y-85668000D03*
D15*
X101727000Y-86468000D03*
X101727000Y-87268000D03*
D14*
X101727000Y-88068000D03*
X103527000Y-88068000D03*
D15*
X103527000Y-87268000D03*
X103527000Y-86468000D03*
D14*
X103527000Y-85668000D03*
%TD*%
D23*
%TO.C,J2*%
X187198000Y-107070500D03*
D24*
X187198000Y-109610500D03*
X184658000Y-107070500D03*
X184658000Y-109610500D03*
X182118000Y-107070500D03*
X182118000Y-109610500D03*
X179578000Y-107070500D03*
X179578000Y-109610500D03*
X177038000Y-107070500D03*
X177038000Y-109610500D03*
X174498000Y-107070500D03*
X174498000Y-109610500D03*
X171958000Y-107070500D03*
X171958000Y-109610500D03*
X169418000Y-107070500D03*
X169418000Y-109610500D03*
X166878000Y-107070500D03*
X166878000Y-109610500D03*
X164338000Y-107070500D03*
X164338000Y-109610500D03*
X161798000Y-107070500D03*
X161798000Y-109610500D03*
X159258000Y-107070500D03*
X159258000Y-109610500D03*
X156718000Y-107070500D03*
X156718000Y-109610500D03*
X154178000Y-107070500D03*
X154178000Y-109610500D03*
X151638000Y-107070500D03*
X151638000Y-109610500D03*
X149098000Y-107070500D03*
X149098000Y-109610500D03*
X146558000Y-107070500D03*
X146558000Y-109610500D03*
X144018000Y-107070500D03*
X144018000Y-109610500D03*
X141478000Y-107070500D03*
X141478000Y-109610500D03*
X138938000Y-107070500D03*
X138938000Y-109610500D03*
%TD*%
D17*
%TO.C,C13*%
X134620000Y-79134000D03*
X134620000Y-77584000D03*
%TD*%
%TO.C,C3*%
X195783200Y-80785000D03*
X195783200Y-79235000D03*
%TD*%
%TO.C,C27*%
X84023200Y-80785000D03*
X84023200Y-79235000D03*
%TD*%
%TO.C,C19*%
X106680000Y-79134000D03*
X106680000Y-77584000D03*
%TD*%
D14*
%TO.C,RN4*%
X171577000Y-85668000D03*
D15*
X171577000Y-86468000D03*
X171577000Y-87268000D03*
D14*
X171577000Y-88068000D03*
X173377000Y-88068000D03*
D15*
X173377000Y-87268000D03*
X173377000Y-86468000D03*
D14*
X173377000Y-85668000D03*
%TD*%
D18*
%TO.C,U2*%
X187764500Y-94118000D03*
X187764500Y-94768000D03*
X187764500Y-95418000D03*
X187764500Y-96068000D03*
X187764500Y-96718000D03*
X187764500Y-97368000D03*
X187764500Y-98018000D03*
X187764500Y-98668000D03*
X193489500Y-98668000D03*
X193489500Y-98018000D03*
X193489500Y-97368000D03*
X193489500Y-96718000D03*
X193489500Y-96068000D03*
X193489500Y-95418000D03*
X193489500Y-94768000D03*
X193489500Y-94118000D03*
%TD*%
D14*
%TO.C,RN11*%
X115697000Y-80588000D03*
D15*
X115697000Y-81388000D03*
X115697000Y-82188000D03*
D14*
X115697000Y-82988000D03*
X117497000Y-82988000D03*
D15*
X117497000Y-82188000D03*
X117497000Y-81388000D03*
D14*
X117497000Y-80588000D03*
%TD*%
%TO.C,RN17*%
X73787000Y-80588000D03*
D15*
X73787000Y-81388000D03*
X73787000Y-82188000D03*
D14*
X73787000Y-82988000D03*
X75587000Y-82988000D03*
D15*
X75587000Y-82188000D03*
X75587000Y-81388000D03*
D14*
X75587000Y-80588000D03*
%TD*%
D17*
%TO.C,C12*%
X153873200Y-80785000D03*
X153873200Y-79235000D03*
%TD*%
D25*
%TO.C,H1*%
X138430000Y-62839600D03*
%TD*%
D14*
%TO.C,RN2*%
X185547000Y-85668000D03*
D15*
X185547000Y-86468000D03*
X185547000Y-87268000D03*
D14*
X185547000Y-88068000D03*
X187347000Y-88068000D03*
D15*
X187347000Y-87268000D03*
X187347000Y-86468000D03*
D14*
X187347000Y-85668000D03*
%TD*%
D13*
%TO.C,C20*%
X109573000Y-91354000D03*
X108023000Y-91354000D03*
%TD*%
D19*
%TO.C,JP7*%
X138010500Y-73152000D03*
D20*
X139310500Y-73152000D03*
%TD*%
D17*
%TO.C,C6*%
X181813200Y-80785000D03*
X181813200Y-79235000D03*
%TD*%
%TO.C,C22*%
X92710000Y-79134000D03*
X92710000Y-77584000D03*
%TD*%
D18*
%TO.C,U6*%
X159824500Y-94118000D03*
X159824500Y-94768000D03*
X159824500Y-95418000D03*
X159824500Y-96068000D03*
X159824500Y-96718000D03*
X159824500Y-97368000D03*
X159824500Y-98018000D03*
X159824500Y-98668000D03*
X165549500Y-98668000D03*
X165549500Y-98018000D03*
X165549500Y-97368000D03*
X165549500Y-96718000D03*
X165549500Y-96068000D03*
X165549500Y-95418000D03*
X165549500Y-94768000D03*
X165549500Y-94118000D03*
%TD*%
D17*
%TO.C,C7*%
X162560000Y-79134000D03*
X162560000Y-77584000D03*
%TD*%
D18*
%TO.C,U12*%
X117914500Y-94118000D03*
X117914500Y-94768000D03*
X117914500Y-95418000D03*
X117914500Y-96068000D03*
X117914500Y-96718000D03*
X117914500Y-97368000D03*
X117914500Y-98018000D03*
X117914500Y-98668000D03*
X123639500Y-98668000D03*
X123639500Y-98018000D03*
X123639500Y-97368000D03*
X123639500Y-96718000D03*
X123639500Y-96068000D03*
X123639500Y-95418000D03*
X123639500Y-94768000D03*
X123639500Y-94118000D03*
%TD*%
D14*
%TO.C,RN1*%
X185547000Y-80588000D03*
D15*
X185547000Y-81388000D03*
X185547000Y-82188000D03*
D14*
X185547000Y-82988000D03*
X187347000Y-82988000D03*
D15*
X187347000Y-82188000D03*
X187347000Y-81388000D03*
D14*
X187347000Y-80588000D03*
%TD*%
D23*
%TO.C,J3*%
X126238000Y-107070500D03*
D24*
X126238000Y-109610500D03*
X123698000Y-107070500D03*
X123698000Y-109610500D03*
X121158000Y-107070500D03*
X121158000Y-109610500D03*
X118618000Y-107070500D03*
X118618000Y-109610500D03*
X116078000Y-107070500D03*
X116078000Y-109610500D03*
X113538000Y-107070500D03*
X113538000Y-109610500D03*
X110998000Y-107070500D03*
X110998000Y-109610500D03*
X108458000Y-107070500D03*
X108458000Y-109610500D03*
X105918000Y-107070500D03*
X105918000Y-109610500D03*
X103378000Y-107070500D03*
X103378000Y-109610500D03*
X100838000Y-107070500D03*
X100838000Y-109610500D03*
X98298000Y-107070500D03*
X98298000Y-109610500D03*
X95758000Y-107070500D03*
X95758000Y-109610500D03*
X93218000Y-107070500D03*
X93218000Y-109610500D03*
X90678000Y-107070500D03*
X90678000Y-109610500D03*
X88138000Y-107070500D03*
X88138000Y-109610500D03*
X85598000Y-107070500D03*
X85598000Y-109610500D03*
X83058000Y-107070500D03*
X83058000Y-109610500D03*
X80518000Y-107070500D03*
X80518000Y-109610500D03*
X77978000Y-107070500D03*
X77978000Y-109610500D03*
%TD*%
D19*
%TO.C,JP10*%
X96100500Y-73152000D03*
D20*
X97400500Y-73152000D03*
%TD*%
D18*
%TO.C,U17*%
X78290500Y-82688000D03*
X78290500Y-83338000D03*
X78290500Y-83988000D03*
X78290500Y-84638000D03*
X78290500Y-85288000D03*
X78290500Y-85938000D03*
X78290500Y-86588000D03*
X78290500Y-87238000D03*
X84015500Y-87238000D03*
X84015500Y-86588000D03*
X84015500Y-85938000D03*
X84015500Y-85288000D03*
X84015500Y-84638000D03*
X84015500Y-83988000D03*
X84015500Y-83338000D03*
X84015500Y-82688000D03*
%TD*%
D26*
%TO.C,J1*%
X167894000Y-71755000D03*
D24*
X167894000Y-69215000D03*
X170434000Y-71755000D03*
X170434000Y-69215000D03*
X172974000Y-71755000D03*
X172974000Y-69215000D03*
X175514000Y-71755000D03*
X175514000Y-69215000D03*
X178054000Y-71755000D03*
X178054000Y-69215000D03*
X180594000Y-71755000D03*
X180594000Y-69215000D03*
X183134000Y-71755000D03*
X183134000Y-69215000D03*
X185674000Y-71755000D03*
X185674000Y-69215000D03*
X188214000Y-71755000D03*
X188214000Y-69215000D03*
X190754000Y-71755000D03*
X190754000Y-69215000D03*
%TD*%
D19*
%TO.C,JP9*%
X110070500Y-73152000D03*
D20*
X111370500Y-73152000D03*
%TD*%
D14*
%TO.C,RN12*%
X115697000Y-85668000D03*
D15*
X115697000Y-86468000D03*
X115697000Y-87268000D03*
D14*
X115697000Y-88068000D03*
X117497000Y-88068000D03*
D15*
X117497000Y-87268000D03*
X117497000Y-86468000D03*
D14*
X117497000Y-85668000D03*
%TD*%
D13*
%TO.C,C23*%
X95603000Y-91354000D03*
X94053000Y-91354000D03*
%TD*%
D16*
%TO.C,H5*%
X75184000Y-63500000D03*
%TD*%
D13*
%TO.C,C11*%
X151483000Y-91354000D03*
X149933000Y-91354000D03*
%TD*%
D18*
%TO.C,U3*%
X176080500Y-82688000D03*
X176080500Y-83338000D03*
X176080500Y-83988000D03*
X176080500Y-84638000D03*
X176080500Y-85288000D03*
X176080500Y-85938000D03*
X176080500Y-86588000D03*
X176080500Y-87238000D03*
X181805500Y-87238000D03*
X181805500Y-86588000D03*
X181805500Y-85938000D03*
X181805500Y-85288000D03*
X181805500Y-84638000D03*
X181805500Y-83988000D03*
X181805500Y-83338000D03*
X181805500Y-82688000D03*
%TD*%
D17*
%TO.C,C16*%
X120650000Y-79134000D03*
X120650000Y-77584000D03*
%TD*%
D18*
%TO.C,U13*%
X106230500Y-82688000D03*
X106230500Y-83338000D03*
X106230500Y-83988000D03*
X106230500Y-84638000D03*
X106230500Y-85288000D03*
X106230500Y-85938000D03*
X106230500Y-86588000D03*
X106230500Y-87238000D03*
X111955500Y-87238000D03*
X111955500Y-86588000D03*
X111955500Y-85938000D03*
X111955500Y-85288000D03*
X111955500Y-84638000D03*
X111955500Y-83988000D03*
X111955500Y-83338000D03*
X111955500Y-82688000D03*
%TD*%
%TO.C,U10*%
X131884500Y-94118000D03*
X131884500Y-94768000D03*
X131884500Y-95418000D03*
X131884500Y-96068000D03*
X131884500Y-96718000D03*
X131884500Y-97368000D03*
X131884500Y-98018000D03*
X131884500Y-98668000D03*
X137609500Y-98668000D03*
X137609500Y-98018000D03*
X137609500Y-97368000D03*
X137609500Y-96718000D03*
X137609500Y-96068000D03*
X137609500Y-95418000D03*
X137609500Y-94768000D03*
X137609500Y-94118000D03*
%TD*%
D17*
%TO.C,C18*%
X125933200Y-80785000D03*
X125933200Y-79235000D03*
%TD*%
D25*
%TO.C,H2*%
X88138000Y-62839600D03*
%TD*%
D17*
%TO.C,C9*%
X167843200Y-80785000D03*
X167843200Y-79235000D03*
%TD*%
D27*
%TO.C,J4*%
X197154800Y-133223000D03*
X193979800Y-133223000D03*
X190804800Y-133223000D03*
X187629800Y-133223000D03*
X184454800Y-133223000D03*
X181279800Y-133223000D03*
X178104800Y-133223000D03*
X174929800Y-133223000D03*
X171754800Y-133223000D03*
X168579800Y-133223000D03*
X165404800Y-133223000D03*
X162229800Y-133223000D03*
X159054800Y-133223000D03*
X155879800Y-133223000D03*
X152704800Y-133223000D03*
X149529800Y-133223000D03*
X146354800Y-133223000D03*
X143179800Y-133223000D03*
X127304800Y-133223000D03*
X124129800Y-133223000D03*
X120954800Y-133223000D03*
X117779800Y-133223000D03*
X114604800Y-133223000D03*
X111429800Y-133223000D03*
X108254800Y-133223000D03*
X105079800Y-133223000D03*
X101904800Y-133223000D03*
X98729800Y-133223000D03*
X95554800Y-133223000D03*
X92379800Y-133223000D03*
X89204800Y-133223000D03*
X86029800Y-133223000D03*
X82854800Y-133223000D03*
X79679800Y-133223000D03*
X76504800Y-133223000D03*
X73329800Y-133223000D03*
%TD*%
D14*
%TO.C,RN3*%
X171577000Y-80588000D03*
D15*
X171577000Y-81388000D03*
X171577000Y-82188000D03*
D14*
X171577000Y-82988000D03*
X173377000Y-82988000D03*
D15*
X173377000Y-82188000D03*
X173377000Y-81388000D03*
D14*
X173377000Y-80588000D03*
%TD*%
D21*
%TO.C,JP13*%
X79679800Y-117363000D03*
D22*
X79679800Y-116063000D03*
%TD*%
D14*
%TO.C,RN9*%
X129667000Y-80588000D03*
D15*
X129667000Y-81388000D03*
X129667000Y-82188000D03*
D14*
X129667000Y-82988000D03*
X131467000Y-82988000D03*
D15*
X131467000Y-82188000D03*
X131467000Y-81388000D03*
D14*
X131467000Y-80588000D03*
%TD*%
D18*
%TO.C,U5*%
X162110500Y-82688000D03*
X162110500Y-83338000D03*
X162110500Y-83988000D03*
X162110500Y-84638000D03*
X162110500Y-85288000D03*
X162110500Y-85938000D03*
X162110500Y-86588000D03*
X162110500Y-87238000D03*
X167835500Y-87238000D03*
X167835500Y-86588000D03*
X167835500Y-85938000D03*
X167835500Y-85288000D03*
X167835500Y-84638000D03*
X167835500Y-83988000D03*
X167835500Y-83338000D03*
X167835500Y-82688000D03*
%TD*%
D14*
%TO.C,RN18*%
X73787000Y-85668000D03*
D15*
X73787000Y-86468000D03*
X73787000Y-87268000D03*
D14*
X73787000Y-88068000D03*
X75587000Y-88068000D03*
D15*
X75587000Y-87268000D03*
X75587000Y-86468000D03*
D14*
X75587000Y-85668000D03*
%TD*%
%TO.C,RN8*%
X143637000Y-85668000D03*
D15*
X143637000Y-86468000D03*
X143637000Y-87268000D03*
D14*
X143637000Y-88068000D03*
X145437000Y-88068000D03*
D15*
X145437000Y-87268000D03*
X145437000Y-86468000D03*
D14*
X145437000Y-85668000D03*
%TD*%
D19*
%TO.C,JP11*%
X82130500Y-73152000D03*
D20*
X83430500Y-73152000D03*
%TD*%
D17*
%TO.C,C24*%
X97993200Y-80785000D03*
X97993200Y-79235000D03*
%TD*%
%TO.C,C10*%
X148590000Y-79134000D03*
X148590000Y-77584000D03*
%TD*%
D19*
%TO.C,JP8*%
X124040500Y-73152000D03*
D20*
X125340500Y-73152000D03*
%TD*%
D14*
%TO.C,RN6*%
X157607000Y-85668000D03*
D15*
X157607000Y-86468000D03*
X157607000Y-87268000D03*
D14*
X157607000Y-88068000D03*
X159407000Y-88068000D03*
D15*
X159407000Y-87268000D03*
X159407000Y-86468000D03*
D14*
X159407000Y-85668000D03*
%TD*%
D16*
%TO.C,H4*%
X196875400Y-108508800D03*
%TD*%
D14*
%TO.C,RN5*%
X157607000Y-80588000D03*
D15*
X157607000Y-81388000D03*
X157607000Y-82188000D03*
D14*
X157607000Y-82988000D03*
X159407000Y-82988000D03*
D15*
X159407000Y-82188000D03*
X159407000Y-81388000D03*
D14*
X159407000Y-80588000D03*
%TD*%
D13*
%TO.C,C5*%
X179423000Y-91354000D03*
X177873000Y-91354000D03*
%TD*%
D14*
%TO.C,RN15*%
X87757000Y-80588000D03*
D15*
X87757000Y-81388000D03*
X87757000Y-82188000D03*
D14*
X87757000Y-82988000D03*
X89557000Y-82988000D03*
D15*
X89557000Y-82188000D03*
X89557000Y-81388000D03*
D14*
X89557000Y-80588000D03*
%TD*%
D21*
%TO.C,JP5*%
X158496000Y-63261000D03*
D22*
X158496000Y-61961000D03*
%TD*%
D18*
%TO.C,U11*%
X120200500Y-82688000D03*
X120200500Y-83338000D03*
X120200500Y-83988000D03*
X120200500Y-84638000D03*
X120200500Y-85288000D03*
X120200500Y-85938000D03*
X120200500Y-86588000D03*
X120200500Y-87238000D03*
X125925500Y-87238000D03*
X125925500Y-86588000D03*
X125925500Y-85938000D03*
X125925500Y-85288000D03*
X125925500Y-84638000D03*
X125925500Y-83988000D03*
X125925500Y-83338000D03*
X125925500Y-82688000D03*
%TD*%
D17*
%TO.C,C4*%
X176530000Y-79134000D03*
X176530000Y-77584000D03*
%TD*%
D18*
%TO.C,U15*%
X92260500Y-82688000D03*
X92260500Y-83338000D03*
X92260500Y-83988000D03*
X92260500Y-84638000D03*
X92260500Y-85288000D03*
X92260500Y-85938000D03*
X92260500Y-86588000D03*
X92260500Y-87238000D03*
X97985500Y-87238000D03*
X97985500Y-86588000D03*
X97985500Y-85938000D03*
X97985500Y-85288000D03*
X97985500Y-84638000D03*
X97985500Y-83988000D03*
X97985500Y-83338000D03*
X97985500Y-82688000D03*
%TD*%
M02*
