%TF.GenerationSoftware,KiCad,Pcbnew,6.0.11+dfsg-1*%
%TF.CreationDate,2024-06-30T22:37:57-05:00*%
%TF.ProjectId,backplane_tracer,6261636b-706c-4616-9e65-5f7472616365,rev?*%
%TF.SameCoordinates,Original*%
%TF.FileFunction,Legend,Top*%
%TF.FilePolarity,Positive*%
%FSLAX46Y46*%
G04 Gerber Fmt 4.6, Leading zero omitted, Abs format (unit mm)*
G04 Created by KiCad (PCBNEW 6.0.11+dfsg-1) date 2024-06-30 22:37:57*
%MOMM*%
%LPD*%
G01*
G04 APERTURE LIST*
%ADD10C,0.150000*%
%ADD11C,0.203200*%
%ADD12C,0.120000*%
G04 APERTURE END LIST*
D10*
X80518000Y-113411000D02*
X80518000Y-114427000D01*
X80518000Y-114427000D02*
X81534000Y-115443000D01*
X127690666Y-113847571D02*
X127833523Y-113895190D01*
X127881142Y-113942809D01*
X127928761Y-114038047D01*
X127928761Y-114180904D01*
X127881142Y-114276142D01*
X127833523Y-114323761D01*
X127738285Y-114371380D01*
X127357333Y-114371380D01*
X127357333Y-113371380D01*
X127690666Y-113371380D01*
X127785904Y-113419000D01*
X127833523Y-113466619D01*
X127881142Y-113561857D01*
X127881142Y-113657095D01*
X127833523Y-113752333D01*
X127785904Y-113799952D01*
X127690666Y-113847571D01*
X127357333Y-113847571D01*
X128309714Y-114085666D02*
X128785904Y-114085666D01*
X128214476Y-114371380D02*
X128547809Y-113371380D01*
X128881142Y-114371380D01*
X129738285Y-114371380D02*
X129166857Y-114371380D01*
X129452571Y-114371380D02*
X129452571Y-113371380D01*
X129357333Y-113514238D01*
X129262095Y-113609476D01*
X129166857Y-113657095D01*
X119243647Y-99401380D02*
X119148409Y-99591857D01*
X120196028Y-100401380D02*
X119624600Y-100401380D01*
X119910314Y-100401380D02*
X119910314Y-99401380D01*
X119815076Y-99544238D01*
X119719838Y-99639476D01*
X119624600Y-99687095D01*
X121053171Y-99401380D02*
X120862695Y-99401380D01*
X120767457Y-99449000D01*
X120719838Y-99496619D01*
X120624600Y-99639476D01*
X120576980Y-99829952D01*
X120576980Y-100210904D01*
X120624600Y-100306142D01*
X120672219Y-100353761D01*
X120767457Y-100401380D01*
X120957933Y-100401380D01*
X121053171Y-100353761D01*
X121100790Y-100306142D01*
X121148409Y-100210904D01*
X121148409Y-99972809D01*
X121100790Y-99877571D01*
X121053171Y-99829952D01*
X120957933Y-99782333D01*
X120767457Y-99782333D01*
X120672219Y-99829952D01*
X120624600Y-99877571D01*
X120576980Y-99972809D01*
X122053171Y-99401380D02*
X121576980Y-99401380D01*
X121529361Y-99877571D01*
X121576980Y-99829952D01*
X121672219Y-99782333D01*
X121910314Y-99782333D01*
X122005552Y-99829952D01*
X122053171Y-99877571D01*
X122100790Y-99972809D01*
X122100790Y-100210904D01*
X122053171Y-100306142D01*
X122005552Y-100353761D01*
X121910314Y-100401380D01*
X121672219Y-100401380D01*
X121576980Y-100353761D01*
X121529361Y-100306142D01*
X82224666Y-113847571D02*
X82367523Y-113895190D01*
X82415142Y-113942809D01*
X82462761Y-114038047D01*
X82462761Y-114180904D01*
X82415142Y-114276142D01*
X82367523Y-114323761D01*
X82272285Y-114371380D01*
X81891333Y-114371380D01*
X81891333Y-113371380D01*
X82224666Y-113371380D01*
X82319904Y-113419000D01*
X82367523Y-113466619D01*
X82415142Y-113561857D01*
X82415142Y-113657095D01*
X82367523Y-113752333D01*
X82319904Y-113799952D01*
X82224666Y-113847571D01*
X81891333Y-113847571D01*
X82748476Y-113371380D02*
X83081809Y-114371380D01*
X83415142Y-113371380D01*
X84272285Y-114371380D02*
X83700857Y-114371380D01*
X83986571Y-114371380D02*
X83986571Y-113371380D01*
X83891333Y-113514238D01*
X83796095Y-113609476D01*
X83700857Y-113657095D01*
X107559647Y-87996780D02*
X107464409Y-88187257D01*
X108464409Y-87996780D02*
X107988219Y-87996780D01*
X107940600Y-88472971D01*
X107988219Y-88425352D01*
X108083457Y-88377733D01*
X108321552Y-88377733D01*
X108416790Y-88425352D01*
X108464409Y-88472971D01*
X108512028Y-88568209D01*
X108512028Y-88806304D01*
X108464409Y-88901542D01*
X108416790Y-88949161D01*
X108321552Y-88996780D01*
X108083457Y-88996780D01*
X107988219Y-88949161D01*
X107940600Y-88901542D01*
X108988219Y-88996780D02*
X109178695Y-88996780D01*
X109273933Y-88949161D01*
X109321552Y-88901542D01*
X109416790Y-88758685D01*
X109464409Y-88568209D01*
X109464409Y-88187257D01*
X109416790Y-88092019D01*
X109369171Y-88044400D01*
X109273933Y-87996780D01*
X109083457Y-87996780D01*
X108988219Y-88044400D01*
X108940600Y-88092019D01*
X108892980Y-88187257D01*
X108892980Y-88425352D01*
X108940600Y-88520590D01*
X108988219Y-88568209D01*
X109083457Y-88615828D01*
X109273933Y-88615828D01*
X109369171Y-88568209D01*
X109416790Y-88520590D01*
X109464409Y-88425352D01*
X110321552Y-87996780D02*
X110131076Y-87996780D01*
X110035838Y-88044400D01*
X109988219Y-88092019D01*
X109892980Y-88234876D01*
X109845361Y-88425352D01*
X109845361Y-88806304D01*
X109892980Y-88901542D01*
X109940600Y-88949161D01*
X110035838Y-88996780D01*
X110226314Y-88996780D01*
X110321552Y-88949161D01*
X110369171Y-88901542D01*
X110416790Y-88806304D01*
X110416790Y-88568209D01*
X110369171Y-88472971D01*
X110321552Y-88425352D01*
X110226314Y-88377733D01*
X110035838Y-88377733D01*
X109940600Y-88425352D01*
X109892980Y-88472971D01*
X109845361Y-88568209D01*
X127690666Y-102925571D02*
X127833523Y-102973190D01*
X127881142Y-103020809D01*
X127928761Y-103116047D01*
X127928761Y-103258904D01*
X127881142Y-103354142D01*
X127833523Y-103401761D01*
X127738285Y-103449380D01*
X127357333Y-103449380D01*
X127357333Y-102449380D01*
X127690666Y-102449380D01*
X127785904Y-102497000D01*
X127833523Y-102544619D01*
X127881142Y-102639857D01*
X127881142Y-102735095D01*
X127833523Y-102830333D01*
X127785904Y-102877952D01*
X127690666Y-102925571D01*
X127357333Y-102925571D01*
X128309714Y-103163666D02*
X128785904Y-103163666D01*
X128214476Y-103449380D02*
X128547809Y-102449380D01*
X128881142Y-103449380D01*
X129166857Y-102544619D02*
X129214476Y-102497000D01*
X129309714Y-102449380D01*
X129547809Y-102449380D01*
X129643047Y-102497000D01*
X129690666Y-102544619D01*
X129738285Y-102639857D01*
X129738285Y-102735095D01*
X129690666Y-102877952D01*
X129119238Y-103449380D01*
X129738285Y-103449380D01*
X91303647Y-99401380D02*
X91208409Y-99591857D01*
X92256028Y-100401380D02*
X91684600Y-100401380D01*
X91970314Y-100401380D02*
X91970314Y-99401380D01*
X91875076Y-99544238D01*
X91779838Y-99639476D01*
X91684600Y-99687095D01*
X93113171Y-99401380D02*
X92922695Y-99401380D01*
X92827457Y-99449000D01*
X92779838Y-99496619D01*
X92684600Y-99639476D01*
X92636980Y-99829952D01*
X92636980Y-100210904D01*
X92684600Y-100306142D01*
X92732219Y-100353761D01*
X92827457Y-100401380D01*
X93017933Y-100401380D01*
X93113171Y-100353761D01*
X93160790Y-100306142D01*
X93208409Y-100210904D01*
X93208409Y-99972809D01*
X93160790Y-99877571D01*
X93113171Y-99829952D01*
X93017933Y-99782333D01*
X92827457Y-99782333D01*
X92732219Y-99829952D01*
X92684600Y-99877571D01*
X92636980Y-99972809D01*
X94113171Y-99401380D02*
X93636980Y-99401380D01*
X93589361Y-99877571D01*
X93636980Y-99829952D01*
X93732219Y-99782333D01*
X93970314Y-99782333D01*
X94065552Y-99829952D01*
X94113171Y-99877571D01*
X94160790Y-99972809D01*
X94160790Y-100210904D01*
X94113171Y-100306142D01*
X94065552Y-100353761D01*
X93970314Y-100401380D01*
X93732219Y-100401380D01*
X93636980Y-100353761D01*
X93589361Y-100306142D01*
X77333647Y-99401380D02*
X77238409Y-99591857D01*
X78286028Y-100401380D02*
X77714600Y-100401380D01*
X78000314Y-100401380D02*
X78000314Y-99401380D01*
X77905076Y-99544238D01*
X77809838Y-99639476D01*
X77714600Y-99687095D01*
X79143171Y-99401380D02*
X78952695Y-99401380D01*
X78857457Y-99449000D01*
X78809838Y-99496619D01*
X78714600Y-99639476D01*
X78666980Y-99829952D01*
X78666980Y-100210904D01*
X78714600Y-100306142D01*
X78762219Y-100353761D01*
X78857457Y-100401380D01*
X79047933Y-100401380D01*
X79143171Y-100353761D01*
X79190790Y-100306142D01*
X79238409Y-100210904D01*
X79238409Y-99972809D01*
X79190790Y-99877571D01*
X79143171Y-99829952D01*
X79047933Y-99782333D01*
X78857457Y-99782333D01*
X78762219Y-99829952D01*
X78714600Y-99877571D01*
X78666980Y-99972809D01*
X80143171Y-99401380D02*
X79666980Y-99401380D01*
X79619361Y-99877571D01*
X79666980Y-99829952D01*
X79762219Y-99782333D01*
X80000314Y-99782333D01*
X80095552Y-99829952D01*
X80143171Y-99877571D01*
X80190790Y-99972809D01*
X80190790Y-100210904D01*
X80143171Y-100306142D01*
X80095552Y-100353761D01*
X80000314Y-100401380D01*
X79762219Y-100401380D01*
X79666980Y-100353761D01*
X79619361Y-100306142D01*
X103759523Y-70175380D02*
X103759523Y-69175380D01*
X103997619Y-69175380D01*
X104140476Y-69223000D01*
X104235714Y-69318238D01*
X104283333Y-69413476D01*
X104330952Y-69603952D01*
X104330952Y-69746809D01*
X104283333Y-69937285D01*
X104235714Y-70032523D01*
X104140476Y-70127761D01*
X103997619Y-70175380D01*
X103759523Y-70175380D01*
X105330952Y-70175380D02*
X104997619Y-69699190D01*
X104759523Y-70175380D02*
X104759523Y-69175380D01*
X105140476Y-69175380D01*
X105235714Y-69223000D01*
X105283333Y-69270619D01*
X105330952Y-69365857D01*
X105330952Y-69508714D01*
X105283333Y-69603952D01*
X105235714Y-69651571D01*
X105140476Y-69699190D01*
X104759523Y-69699190D01*
X105759523Y-70175380D02*
X105759523Y-69175380D01*
X106092857Y-69175380D02*
X106426190Y-70175380D01*
X106759523Y-69175380D01*
X107092857Y-69651571D02*
X107426190Y-69651571D01*
X107569047Y-70175380D02*
X107092857Y-70175380D01*
X107092857Y-69175380D01*
X107569047Y-69175380D01*
X108569047Y-70175380D02*
X108235714Y-69699190D01*
X107997619Y-70175380D02*
X107997619Y-69175380D01*
X108378571Y-69175380D01*
X108473809Y-69223000D01*
X108521428Y-69270619D01*
X108569047Y-69365857D01*
X108569047Y-69508714D01*
X108521428Y-69603952D01*
X108473809Y-69651571D01*
X108378571Y-69699190D01*
X107997619Y-69699190D01*
X108759523Y-70270619D02*
X109521428Y-70270619D01*
X109950000Y-69175380D02*
X110140476Y-69175380D01*
X110235714Y-69223000D01*
X110330952Y-69318238D01*
X110378571Y-69508714D01*
X110378571Y-69842047D01*
X110330952Y-70032523D01*
X110235714Y-70127761D01*
X110140476Y-70175380D01*
X109950000Y-70175380D01*
X109854761Y-70127761D01*
X109759523Y-70032523D01*
X109711904Y-69842047D01*
X109711904Y-69508714D01*
X109759523Y-69318238D01*
X109854761Y-69223000D01*
X109950000Y-69175380D01*
X110807142Y-69651571D02*
X111140476Y-69651571D01*
X111283333Y-70175380D02*
X110807142Y-70175380D01*
X110807142Y-69175380D01*
X111283333Y-69175380D01*
X111711904Y-69508714D02*
X111711904Y-70175380D01*
X111711904Y-69603952D02*
X111759523Y-69556333D01*
X111854761Y-69508714D01*
X111997619Y-69508714D01*
X112092857Y-69556333D01*
X112140476Y-69651571D01*
X112140476Y-70175380D01*
X175123647Y-99401380D02*
X175028409Y-99591857D01*
X176076028Y-100401380D02*
X175504600Y-100401380D01*
X175790314Y-100401380D02*
X175790314Y-99401380D01*
X175695076Y-99544238D01*
X175599838Y-99639476D01*
X175504600Y-99687095D01*
X176933171Y-99401380D02*
X176742695Y-99401380D01*
X176647457Y-99449000D01*
X176599838Y-99496619D01*
X176504600Y-99639476D01*
X176456980Y-99829952D01*
X176456980Y-100210904D01*
X176504600Y-100306142D01*
X176552219Y-100353761D01*
X176647457Y-100401380D01*
X176837933Y-100401380D01*
X176933171Y-100353761D01*
X176980790Y-100306142D01*
X177028409Y-100210904D01*
X177028409Y-99972809D01*
X176980790Y-99877571D01*
X176933171Y-99829952D01*
X176837933Y-99782333D01*
X176647457Y-99782333D01*
X176552219Y-99829952D01*
X176504600Y-99877571D01*
X176456980Y-99972809D01*
X177933171Y-99401380D02*
X177456980Y-99401380D01*
X177409361Y-99877571D01*
X177456980Y-99829952D01*
X177552219Y-99782333D01*
X177790314Y-99782333D01*
X177885552Y-99829952D01*
X177933171Y-99877571D01*
X177980790Y-99972809D01*
X177980790Y-100210904D01*
X177933171Y-100306142D01*
X177885552Y-100353761D01*
X177790314Y-100401380D01*
X177552219Y-100401380D01*
X177456980Y-100353761D01*
X177409361Y-100306142D01*
X149469647Y-87996780D02*
X149374409Y-88187257D01*
X150374409Y-87996780D02*
X149898219Y-87996780D01*
X149850600Y-88472971D01*
X149898219Y-88425352D01*
X149993457Y-88377733D01*
X150231552Y-88377733D01*
X150326790Y-88425352D01*
X150374409Y-88472971D01*
X150422028Y-88568209D01*
X150422028Y-88806304D01*
X150374409Y-88901542D01*
X150326790Y-88949161D01*
X150231552Y-88996780D01*
X149993457Y-88996780D01*
X149898219Y-88949161D01*
X149850600Y-88901542D01*
X150898219Y-88996780D02*
X151088695Y-88996780D01*
X151183933Y-88949161D01*
X151231552Y-88901542D01*
X151326790Y-88758685D01*
X151374409Y-88568209D01*
X151374409Y-88187257D01*
X151326790Y-88092019D01*
X151279171Y-88044400D01*
X151183933Y-87996780D01*
X150993457Y-87996780D01*
X150898219Y-88044400D01*
X150850600Y-88092019D01*
X150802980Y-88187257D01*
X150802980Y-88425352D01*
X150850600Y-88520590D01*
X150898219Y-88568209D01*
X150993457Y-88615828D01*
X151183933Y-88615828D01*
X151279171Y-88568209D01*
X151326790Y-88520590D01*
X151374409Y-88425352D01*
X152231552Y-87996780D02*
X152041076Y-87996780D01*
X151945838Y-88044400D01*
X151898219Y-88092019D01*
X151802980Y-88234876D01*
X151755361Y-88425352D01*
X151755361Y-88806304D01*
X151802980Y-88901542D01*
X151850600Y-88949161D01*
X151945838Y-88996780D01*
X152136314Y-88996780D01*
X152231552Y-88949161D01*
X152279171Y-88901542D01*
X152326790Y-88806304D01*
X152326790Y-88568209D01*
X152279171Y-88472971D01*
X152231552Y-88425352D01*
X152136314Y-88377733D01*
X151945838Y-88377733D01*
X151850600Y-88425352D01*
X151802980Y-88472971D01*
X151755361Y-88568209D01*
X93589647Y-87996780D02*
X93494409Y-88187257D01*
X94494409Y-87996780D02*
X94018219Y-87996780D01*
X93970600Y-88472971D01*
X94018219Y-88425352D01*
X94113457Y-88377733D01*
X94351552Y-88377733D01*
X94446790Y-88425352D01*
X94494409Y-88472971D01*
X94542028Y-88568209D01*
X94542028Y-88806304D01*
X94494409Y-88901542D01*
X94446790Y-88949161D01*
X94351552Y-88996780D01*
X94113457Y-88996780D01*
X94018219Y-88949161D01*
X93970600Y-88901542D01*
X95018219Y-88996780D02*
X95208695Y-88996780D01*
X95303933Y-88949161D01*
X95351552Y-88901542D01*
X95446790Y-88758685D01*
X95494409Y-88568209D01*
X95494409Y-88187257D01*
X95446790Y-88092019D01*
X95399171Y-88044400D01*
X95303933Y-87996780D01*
X95113457Y-87996780D01*
X95018219Y-88044400D01*
X94970600Y-88092019D01*
X94922980Y-88187257D01*
X94922980Y-88425352D01*
X94970600Y-88520590D01*
X95018219Y-88568209D01*
X95113457Y-88615828D01*
X95303933Y-88615828D01*
X95399171Y-88568209D01*
X95446790Y-88520590D01*
X95494409Y-88425352D01*
X96351552Y-87996780D02*
X96161076Y-87996780D01*
X96065838Y-88044400D01*
X96018219Y-88092019D01*
X95922980Y-88234876D01*
X95875361Y-88425352D01*
X95875361Y-88806304D01*
X95922980Y-88901542D01*
X95970600Y-88949161D01*
X96065838Y-88996780D01*
X96256314Y-88996780D01*
X96351552Y-88949161D01*
X96399171Y-88901542D01*
X96446790Y-88806304D01*
X96446790Y-88568209D01*
X96399171Y-88472971D01*
X96351552Y-88425352D01*
X96256314Y-88377733D01*
X96065838Y-88377733D01*
X95970600Y-88425352D01*
X95922980Y-88472971D01*
X95875361Y-88568209D01*
X189093647Y-99401380D02*
X188998409Y-99591857D01*
X190046028Y-100401380D02*
X189474600Y-100401380D01*
X189760314Y-100401380D02*
X189760314Y-99401380D01*
X189665076Y-99544238D01*
X189569838Y-99639476D01*
X189474600Y-99687095D01*
X190903171Y-99401380D02*
X190712695Y-99401380D01*
X190617457Y-99449000D01*
X190569838Y-99496619D01*
X190474600Y-99639476D01*
X190426980Y-99829952D01*
X190426980Y-100210904D01*
X190474600Y-100306142D01*
X190522219Y-100353761D01*
X190617457Y-100401380D01*
X190807933Y-100401380D01*
X190903171Y-100353761D01*
X190950790Y-100306142D01*
X190998409Y-100210904D01*
X190998409Y-99972809D01*
X190950790Y-99877571D01*
X190903171Y-99829952D01*
X190807933Y-99782333D01*
X190617457Y-99782333D01*
X190522219Y-99829952D01*
X190474600Y-99877571D01*
X190426980Y-99972809D01*
X191903171Y-99401380D02*
X191426980Y-99401380D01*
X191379361Y-99877571D01*
X191426980Y-99829952D01*
X191522219Y-99782333D01*
X191760314Y-99782333D01*
X191855552Y-99829952D01*
X191903171Y-99877571D01*
X191950790Y-99972809D01*
X191950790Y-100210904D01*
X191903171Y-100306142D01*
X191855552Y-100353761D01*
X191760314Y-100401380D01*
X191522219Y-100401380D01*
X191426980Y-100353761D01*
X191379361Y-100306142D01*
X163439647Y-87996780D02*
X163344409Y-88187257D01*
X164344409Y-87996780D02*
X163868219Y-87996780D01*
X163820600Y-88472971D01*
X163868219Y-88425352D01*
X163963457Y-88377733D01*
X164201552Y-88377733D01*
X164296790Y-88425352D01*
X164344409Y-88472971D01*
X164392028Y-88568209D01*
X164392028Y-88806304D01*
X164344409Y-88901542D01*
X164296790Y-88949161D01*
X164201552Y-88996780D01*
X163963457Y-88996780D01*
X163868219Y-88949161D01*
X163820600Y-88901542D01*
X164868219Y-88996780D02*
X165058695Y-88996780D01*
X165153933Y-88949161D01*
X165201552Y-88901542D01*
X165296790Y-88758685D01*
X165344409Y-88568209D01*
X165344409Y-88187257D01*
X165296790Y-88092019D01*
X165249171Y-88044400D01*
X165153933Y-87996780D01*
X164963457Y-87996780D01*
X164868219Y-88044400D01*
X164820600Y-88092019D01*
X164772980Y-88187257D01*
X164772980Y-88425352D01*
X164820600Y-88520590D01*
X164868219Y-88568209D01*
X164963457Y-88615828D01*
X165153933Y-88615828D01*
X165249171Y-88568209D01*
X165296790Y-88520590D01*
X165344409Y-88425352D01*
X166201552Y-87996780D02*
X166011076Y-87996780D01*
X165915838Y-88044400D01*
X165868219Y-88092019D01*
X165772980Y-88234876D01*
X165725361Y-88425352D01*
X165725361Y-88806304D01*
X165772980Y-88901542D01*
X165820600Y-88949161D01*
X165915838Y-88996780D01*
X166106314Y-88996780D01*
X166201552Y-88949161D01*
X166249171Y-88901542D01*
X166296790Y-88806304D01*
X166296790Y-88568209D01*
X166249171Y-88472971D01*
X166201552Y-88425352D01*
X166106314Y-88377733D01*
X165915838Y-88377733D01*
X165820600Y-88425352D01*
X165772980Y-88472971D01*
X165725361Y-88568209D01*
X188341142Y-103163666D02*
X188817333Y-103163666D01*
X188245904Y-103449380D02*
X188579238Y-102449380D01*
X188912571Y-103449380D01*
X189198285Y-103163666D02*
X189674476Y-103163666D01*
X189103047Y-103449380D02*
X189436380Y-102449380D01*
X189769714Y-103449380D01*
X190055428Y-102544619D02*
X190103047Y-102497000D01*
X190198285Y-102449380D01*
X190436380Y-102449380D01*
X190531619Y-102497000D01*
X190579238Y-102544619D01*
X190626857Y-102639857D01*
X190626857Y-102735095D01*
X190579238Y-102877952D01*
X190007809Y-103449380D01*
X190626857Y-103449380D01*
X82224666Y-102925571D02*
X82367523Y-102973190D01*
X82415142Y-103020809D01*
X82462761Y-103116047D01*
X82462761Y-103258904D01*
X82415142Y-103354142D01*
X82367523Y-103401761D01*
X82272285Y-103449380D01*
X81891333Y-103449380D01*
X81891333Y-102449380D01*
X82224666Y-102449380D01*
X82319904Y-102497000D01*
X82367523Y-102544619D01*
X82415142Y-102639857D01*
X82415142Y-102735095D01*
X82367523Y-102830333D01*
X82319904Y-102877952D01*
X82224666Y-102925571D01*
X81891333Y-102925571D01*
X82748476Y-102449380D02*
X83081809Y-103449380D01*
X83415142Y-102449380D01*
X83700857Y-102544619D02*
X83748476Y-102497000D01*
X83843714Y-102449380D01*
X84081809Y-102449380D01*
X84177047Y-102497000D01*
X84224666Y-102544619D01*
X84272285Y-102639857D01*
X84272285Y-102735095D01*
X84224666Y-102877952D01*
X83653238Y-103449380D01*
X84272285Y-103449380D01*
X102387285Y-66635380D02*
X102387285Y-67349666D01*
X102339666Y-67492523D01*
X102244428Y-67587761D01*
X102101571Y-67635380D01*
X102006333Y-67635380D01*
X102863476Y-67635380D02*
X102863476Y-66635380D01*
X103244428Y-66635380D01*
X103339666Y-66683000D01*
X103387285Y-66730619D01*
X103434904Y-66825857D01*
X103434904Y-66968714D01*
X103387285Y-67063952D01*
X103339666Y-67111571D01*
X103244428Y-67159190D01*
X102863476Y-67159190D01*
X104292047Y-66635380D02*
X104101571Y-66635380D01*
X104006333Y-66683000D01*
X103958714Y-66730619D01*
X103863476Y-66873476D01*
X103815857Y-67063952D01*
X103815857Y-67444904D01*
X103863476Y-67540142D01*
X103911095Y-67587761D01*
X104006333Y-67635380D01*
X104196809Y-67635380D01*
X104292047Y-67587761D01*
X104339666Y-67540142D01*
X104387285Y-67444904D01*
X104387285Y-67206809D01*
X104339666Y-67111571D01*
X104292047Y-67063952D01*
X104196809Y-67016333D01*
X104006333Y-67016333D01*
X103911095Y-67063952D01*
X103863476Y-67111571D01*
X103815857Y-67206809D01*
X105577761Y-67254428D02*
X106339666Y-67254428D01*
X107863476Y-66635380D02*
X107863476Y-67349666D01*
X107815857Y-67492523D01*
X107720619Y-67587761D01*
X107577761Y-67635380D01*
X107482523Y-67635380D01*
X108339666Y-67635380D02*
X108339666Y-66635380D01*
X108720619Y-66635380D01*
X108815857Y-66683000D01*
X108863476Y-66730619D01*
X108911095Y-66825857D01*
X108911095Y-66968714D01*
X108863476Y-67063952D01*
X108815857Y-67111571D01*
X108720619Y-67159190D01*
X108339666Y-67159190D01*
X109863476Y-67635380D02*
X109292047Y-67635380D01*
X109577761Y-67635380D02*
X109577761Y-66635380D01*
X109482523Y-66778238D01*
X109387285Y-66873476D01*
X109292047Y-66921095D01*
X110815857Y-67635380D02*
X110244428Y-67635380D01*
X110530142Y-67635380D02*
X110530142Y-66635380D01*
X110434904Y-66778238D01*
X110339666Y-66873476D01*
X110244428Y-66921095D01*
X111244428Y-67540142D02*
X111292047Y-67587761D01*
X111244428Y-67635380D01*
X111196809Y-67587761D01*
X111244428Y-67540142D01*
X111244428Y-67635380D01*
X111244428Y-67016333D02*
X111292047Y-67063952D01*
X111244428Y-67111571D01*
X111196809Y-67063952D01*
X111244428Y-67016333D01*
X111244428Y-67111571D01*
X112339666Y-66968714D02*
X112720619Y-66968714D01*
X112482523Y-66635380D02*
X112482523Y-67492523D01*
X112530142Y-67587761D01*
X112625380Y-67635380D01*
X112720619Y-67635380D01*
X113434904Y-67587761D02*
X113339666Y-67635380D01*
X113149190Y-67635380D01*
X113053952Y-67587761D01*
X113006333Y-67492523D01*
X113006333Y-67111571D01*
X113053952Y-67016333D01*
X113149190Y-66968714D01*
X113339666Y-66968714D01*
X113434904Y-67016333D01*
X113482523Y-67111571D01*
X113482523Y-67206809D01*
X113006333Y-67302047D01*
X113911095Y-67635380D02*
X113911095Y-66968714D01*
X113911095Y-67159190D02*
X113958714Y-67063952D01*
X114006333Y-67016333D01*
X114101571Y-66968714D01*
X114196809Y-66968714D01*
X114530142Y-67635380D02*
X114530142Y-66968714D01*
X114530142Y-67063952D02*
X114577761Y-67016333D01*
X114673000Y-66968714D01*
X114815857Y-66968714D01*
X114911095Y-67016333D01*
X114958714Y-67111571D01*
X114958714Y-67635380D01*
X114958714Y-67111571D02*
X115006333Y-67016333D01*
X115101571Y-66968714D01*
X115244428Y-66968714D01*
X115339666Y-67016333D01*
X115387285Y-67111571D01*
X115387285Y-67635380D01*
X115863476Y-67635380D02*
X115863476Y-66968714D01*
X115863476Y-66635380D02*
X115815857Y-66683000D01*
X115863476Y-66730619D01*
X115911095Y-66683000D01*
X115863476Y-66635380D01*
X115863476Y-66730619D01*
X116339666Y-66968714D02*
X116339666Y-67635380D01*
X116339666Y-67063952D02*
X116387285Y-67016333D01*
X116482523Y-66968714D01*
X116625380Y-66968714D01*
X116720619Y-67016333D01*
X116768238Y-67111571D01*
X116768238Y-67635380D01*
X117673000Y-67635380D02*
X117673000Y-67111571D01*
X117625380Y-67016333D01*
X117530142Y-66968714D01*
X117339666Y-66968714D01*
X117244428Y-67016333D01*
X117673000Y-67587761D02*
X117577761Y-67635380D01*
X117339666Y-67635380D01*
X117244428Y-67587761D01*
X117196809Y-67492523D01*
X117196809Y-67397285D01*
X117244428Y-67302047D01*
X117339666Y-67254428D01*
X117577761Y-67254428D01*
X117673000Y-67206809D01*
X118006333Y-66968714D02*
X118387285Y-66968714D01*
X118149190Y-66635380D02*
X118149190Y-67492523D01*
X118196809Y-67587761D01*
X118292047Y-67635380D01*
X118387285Y-67635380D01*
X118720619Y-67635380D02*
X118720619Y-66968714D01*
X118720619Y-66635380D02*
X118673000Y-66683000D01*
X118720619Y-66730619D01*
X118768238Y-66683000D01*
X118720619Y-66635380D01*
X118720619Y-66730619D01*
X119339666Y-67635380D02*
X119244428Y-67587761D01*
X119196809Y-67540142D01*
X119149190Y-67444904D01*
X119149190Y-67159190D01*
X119196809Y-67063952D01*
X119244428Y-67016333D01*
X119339666Y-66968714D01*
X119482523Y-66968714D01*
X119577761Y-67016333D01*
X119625380Y-67063952D01*
X119673000Y-67159190D01*
X119673000Y-67444904D01*
X119625380Y-67540142D01*
X119577761Y-67587761D01*
X119482523Y-67635380D01*
X119339666Y-67635380D01*
X120101571Y-66968714D02*
X120101571Y-67635380D01*
X120101571Y-67063952D02*
X120149190Y-67016333D01*
X120244428Y-66968714D01*
X120387285Y-66968714D01*
X120482523Y-67016333D01*
X120530142Y-67111571D01*
X120530142Y-67635380D01*
X122149190Y-67587761D02*
X122053952Y-67635380D01*
X121863476Y-67635380D01*
X121768238Y-67587761D01*
X121720619Y-67492523D01*
X121720619Y-67111571D01*
X121768238Y-67016333D01*
X121863476Y-66968714D01*
X122053952Y-66968714D01*
X122149190Y-67016333D01*
X122196809Y-67111571D01*
X122196809Y-67206809D01*
X121720619Y-67302047D01*
X122625380Y-66968714D02*
X122625380Y-67635380D01*
X122625380Y-67063952D02*
X122673000Y-67016333D01*
X122768238Y-66968714D01*
X122911095Y-66968714D01*
X123006333Y-67016333D01*
X123053952Y-67111571D01*
X123053952Y-67635380D01*
X123958714Y-67635380D02*
X123958714Y-67111571D01*
X123911095Y-67016333D01*
X123815857Y-66968714D01*
X123625380Y-66968714D01*
X123530142Y-67016333D01*
X123958714Y-67587761D02*
X123863476Y-67635380D01*
X123625380Y-67635380D01*
X123530142Y-67587761D01*
X123482523Y-67492523D01*
X123482523Y-67397285D01*
X123530142Y-67302047D01*
X123625380Y-67254428D01*
X123863476Y-67254428D01*
X123958714Y-67206809D01*
X124434904Y-67635380D02*
X124434904Y-66635380D01*
X124434904Y-67016333D02*
X124530142Y-66968714D01*
X124720619Y-66968714D01*
X124815857Y-67016333D01*
X124863476Y-67063952D01*
X124911095Y-67159190D01*
X124911095Y-67444904D01*
X124863476Y-67540142D01*
X124815857Y-67587761D01*
X124720619Y-67635380D01*
X124530142Y-67635380D01*
X124434904Y-67587761D01*
X125482523Y-67635380D02*
X125387285Y-67587761D01*
X125339666Y-67492523D01*
X125339666Y-66635380D01*
X126244428Y-67587761D02*
X126149190Y-67635380D01*
X125958714Y-67635380D01*
X125863476Y-67587761D01*
X125815857Y-67492523D01*
X125815857Y-67111571D01*
X125863476Y-67016333D01*
X125958714Y-66968714D01*
X126149190Y-66968714D01*
X126244428Y-67016333D01*
X126292047Y-67111571D01*
X126292047Y-67206809D01*
X125815857Y-67302047D01*
X75946476Y-70175380D02*
X75613142Y-69699190D01*
X75375047Y-70175380D02*
X75375047Y-69175380D01*
X75756000Y-69175380D01*
X75851238Y-69223000D01*
X75898857Y-69270619D01*
X75946476Y-69365857D01*
X75946476Y-69508714D01*
X75898857Y-69603952D01*
X75851238Y-69651571D01*
X75756000Y-69699190D01*
X75375047Y-69699190D01*
X76375047Y-69651571D02*
X76708380Y-69651571D01*
X76851238Y-70175380D02*
X76375047Y-70175380D01*
X76375047Y-69175380D01*
X76851238Y-69175380D01*
X77232190Y-69889666D02*
X77708380Y-69889666D01*
X77136952Y-70175380D02*
X77470285Y-69175380D01*
X77803619Y-70175380D01*
X78136952Y-70175380D02*
X78136952Y-69175380D01*
X78375047Y-69175380D01*
X78517904Y-69223000D01*
X78613142Y-69318238D01*
X78660761Y-69413476D01*
X78708380Y-69603952D01*
X78708380Y-69746809D01*
X78660761Y-69937285D01*
X78613142Y-70032523D01*
X78517904Y-70127761D01*
X78375047Y-70175380D01*
X78136952Y-70175380D01*
X79136952Y-69651571D02*
X79470285Y-69651571D01*
X79613142Y-70175380D02*
X79136952Y-70175380D01*
X79136952Y-69175380D01*
X79613142Y-69175380D01*
X80613142Y-70175380D02*
X80279809Y-69699190D01*
X80041714Y-70175380D02*
X80041714Y-69175380D01*
X80422666Y-69175380D01*
X80517904Y-69223000D01*
X80565523Y-69270619D01*
X80613142Y-69365857D01*
X80613142Y-69508714D01*
X80565523Y-69603952D01*
X80517904Y-69651571D01*
X80422666Y-69699190D01*
X80041714Y-69699190D01*
X80803619Y-70270619D02*
X81565523Y-70270619D01*
X82375047Y-70080142D02*
X82327428Y-70127761D01*
X82184571Y-70175380D01*
X82089333Y-70175380D01*
X81946476Y-70127761D01*
X81851238Y-70032523D01*
X81803619Y-69937285D01*
X81756000Y-69746809D01*
X81756000Y-69603952D01*
X81803619Y-69413476D01*
X81851238Y-69318238D01*
X81946476Y-69223000D01*
X82089333Y-69175380D01*
X82184571Y-69175380D01*
X82327428Y-69223000D01*
X82375047Y-69270619D01*
X83279809Y-70175380D02*
X82803619Y-70175380D01*
X82803619Y-69175380D01*
X83613142Y-70175380D02*
X83613142Y-69175380D01*
X84184571Y-70175380D02*
X83756000Y-69603952D01*
X84184571Y-69175380D02*
X83613142Y-69746809D01*
X99541085Y-61801180D02*
X99541085Y-60801180D01*
X99779180Y-60801180D01*
X99922038Y-60848800D01*
X100017276Y-60944038D01*
X100064895Y-61039276D01*
X100112514Y-61229752D01*
X100112514Y-61372609D01*
X100064895Y-61563085D01*
X100017276Y-61658323D01*
X99922038Y-61753561D01*
X99779180Y-61801180D01*
X99541085Y-61801180D01*
X100541085Y-61277371D02*
X100874419Y-61277371D01*
X101017276Y-61801180D02*
X100541085Y-61801180D01*
X100541085Y-60801180D01*
X101017276Y-60801180D01*
X102017276Y-61705942D02*
X101969657Y-61753561D01*
X101826800Y-61801180D01*
X101731561Y-61801180D01*
X101588704Y-61753561D01*
X101493466Y-61658323D01*
X101445847Y-61563085D01*
X101398228Y-61372609D01*
X101398228Y-61229752D01*
X101445847Y-61039276D01*
X101493466Y-60944038D01*
X101588704Y-60848800D01*
X101731561Y-60801180D01*
X101826800Y-60801180D01*
X101969657Y-60848800D01*
X102017276Y-60896419D01*
X103541085Y-61277371D02*
X103683942Y-61324990D01*
X103731561Y-61372609D01*
X103779180Y-61467847D01*
X103779180Y-61610704D01*
X103731561Y-61705942D01*
X103683942Y-61753561D01*
X103588704Y-61801180D01*
X103207752Y-61801180D01*
X103207752Y-60801180D01*
X103541085Y-60801180D01*
X103636323Y-60848800D01*
X103683942Y-60896419D01*
X103731561Y-60991657D01*
X103731561Y-61086895D01*
X103683942Y-61182133D01*
X103636323Y-61229752D01*
X103541085Y-61277371D01*
X103207752Y-61277371D01*
X104636323Y-61801180D02*
X104636323Y-61277371D01*
X104588704Y-61182133D01*
X104493466Y-61134514D01*
X104302990Y-61134514D01*
X104207752Y-61182133D01*
X104636323Y-61753561D02*
X104541085Y-61801180D01*
X104302990Y-61801180D01*
X104207752Y-61753561D01*
X104160133Y-61658323D01*
X104160133Y-61563085D01*
X104207752Y-61467847D01*
X104302990Y-61420228D01*
X104541085Y-61420228D01*
X104636323Y-61372609D01*
X105541085Y-61753561D02*
X105445847Y-61801180D01*
X105255371Y-61801180D01*
X105160133Y-61753561D01*
X105112514Y-61705942D01*
X105064895Y-61610704D01*
X105064895Y-61324990D01*
X105112514Y-61229752D01*
X105160133Y-61182133D01*
X105255371Y-61134514D01*
X105445847Y-61134514D01*
X105541085Y-61182133D01*
X105969657Y-61801180D02*
X105969657Y-60801180D01*
X106064895Y-61420228D02*
X106350609Y-61801180D01*
X106350609Y-61134514D02*
X105969657Y-61515466D01*
X106779180Y-61134514D02*
X106779180Y-62134514D01*
X106779180Y-61182133D02*
X106874419Y-61134514D01*
X107064895Y-61134514D01*
X107160133Y-61182133D01*
X107207752Y-61229752D01*
X107255371Y-61324990D01*
X107255371Y-61610704D01*
X107207752Y-61705942D01*
X107160133Y-61753561D01*
X107064895Y-61801180D01*
X106874419Y-61801180D01*
X106779180Y-61753561D01*
X107826800Y-61801180D02*
X107731561Y-61753561D01*
X107683942Y-61658323D01*
X107683942Y-60801180D01*
X108636323Y-61801180D02*
X108636323Y-61277371D01*
X108588704Y-61182133D01*
X108493466Y-61134514D01*
X108302990Y-61134514D01*
X108207752Y-61182133D01*
X108636323Y-61753561D02*
X108541085Y-61801180D01*
X108302990Y-61801180D01*
X108207752Y-61753561D01*
X108160133Y-61658323D01*
X108160133Y-61563085D01*
X108207752Y-61467847D01*
X108302990Y-61420228D01*
X108541085Y-61420228D01*
X108636323Y-61372609D01*
X109112514Y-61134514D02*
X109112514Y-61801180D01*
X109112514Y-61229752D02*
X109160133Y-61182133D01*
X109255371Y-61134514D01*
X109398228Y-61134514D01*
X109493466Y-61182133D01*
X109541085Y-61277371D01*
X109541085Y-61801180D01*
X110398228Y-61753561D02*
X110302990Y-61801180D01*
X110112514Y-61801180D01*
X110017276Y-61753561D01*
X109969657Y-61658323D01*
X109969657Y-61277371D01*
X110017276Y-61182133D01*
X110112514Y-61134514D01*
X110302990Y-61134514D01*
X110398228Y-61182133D01*
X110445847Y-61277371D01*
X110445847Y-61372609D01*
X109969657Y-61467847D01*
X111493466Y-60801180D02*
X112064895Y-60801180D01*
X111779180Y-61801180D02*
X111779180Y-60801180D01*
X112398228Y-61801180D02*
X112398228Y-61134514D01*
X112398228Y-61324990D02*
X112445847Y-61229752D01*
X112493466Y-61182133D01*
X112588704Y-61134514D01*
X112683942Y-61134514D01*
X113445847Y-61801180D02*
X113445847Y-61277371D01*
X113398228Y-61182133D01*
X113302990Y-61134514D01*
X113112514Y-61134514D01*
X113017276Y-61182133D01*
X113445847Y-61753561D02*
X113350609Y-61801180D01*
X113112514Y-61801180D01*
X113017276Y-61753561D01*
X112969657Y-61658323D01*
X112969657Y-61563085D01*
X113017276Y-61467847D01*
X113112514Y-61420228D01*
X113350609Y-61420228D01*
X113445847Y-61372609D01*
X114350609Y-61753561D02*
X114255371Y-61801180D01*
X114064895Y-61801180D01*
X113969657Y-61753561D01*
X113922038Y-61705942D01*
X113874419Y-61610704D01*
X113874419Y-61324990D01*
X113922038Y-61229752D01*
X113969657Y-61182133D01*
X114064895Y-61134514D01*
X114255371Y-61134514D01*
X114350609Y-61182133D01*
X114779180Y-61801180D02*
X114779180Y-61134514D01*
X114779180Y-60801180D02*
X114731561Y-60848800D01*
X114779180Y-60896419D01*
X114826800Y-60848800D01*
X114779180Y-60801180D01*
X114779180Y-60896419D01*
X115255371Y-61134514D02*
X115255371Y-61801180D01*
X115255371Y-61229752D02*
X115302990Y-61182133D01*
X115398228Y-61134514D01*
X115541085Y-61134514D01*
X115636323Y-61182133D01*
X115683942Y-61277371D01*
X115683942Y-61801180D01*
X116588704Y-61134514D02*
X116588704Y-61944038D01*
X116541085Y-62039276D01*
X116493466Y-62086895D01*
X116398228Y-62134514D01*
X116255371Y-62134514D01*
X116160133Y-62086895D01*
X116588704Y-61753561D02*
X116493466Y-61801180D01*
X116302990Y-61801180D01*
X116207752Y-61753561D01*
X116160133Y-61705942D01*
X116112514Y-61610704D01*
X116112514Y-61324990D01*
X116160133Y-61229752D01*
X116207752Y-61182133D01*
X116302990Y-61134514D01*
X116493466Y-61134514D01*
X116588704Y-61182133D01*
X117683942Y-60801180D02*
X118255371Y-60801180D01*
X117969657Y-61801180D02*
X117969657Y-60801180D01*
X118731561Y-61801180D02*
X118636323Y-61753561D01*
X118588704Y-61705942D01*
X118541085Y-61610704D01*
X118541085Y-61324990D01*
X118588704Y-61229752D01*
X118636323Y-61182133D01*
X118731561Y-61134514D01*
X118874419Y-61134514D01*
X118969657Y-61182133D01*
X119017276Y-61229752D01*
X119064895Y-61324990D01*
X119064895Y-61610704D01*
X119017276Y-61705942D01*
X118969657Y-61753561D01*
X118874419Y-61801180D01*
X118731561Y-61801180D01*
X119636323Y-61801180D02*
X119541085Y-61753561D01*
X119493466Y-61705942D01*
X119445847Y-61610704D01*
X119445847Y-61324990D01*
X119493466Y-61229752D01*
X119541085Y-61182133D01*
X119636323Y-61134514D01*
X119779180Y-61134514D01*
X119874419Y-61182133D01*
X119922038Y-61229752D01*
X119969657Y-61324990D01*
X119969657Y-61610704D01*
X119922038Y-61705942D01*
X119874419Y-61753561D01*
X119779180Y-61801180D01*
X119636323Y-61801180D01*
X120541085Y-61801180D02*
X120445847Y-61753561D01*
X120398228Y-61658323D01*
X120398228Y-60801180D01*
X120969657Y-61753561D02*
X120969657Y-61801180D01*
X120922038Y-61896419D01*
X120874419Y-61944038D01*
X122160133Y-61801180D02*
X122160133Y-61134514D01*
X122160133Y-61324990D02*
X122207752Y-61229752D01*
X122255371Y-61182133D01*
X122350609Y-61134514D01*
X122445847Y-61134514D01*
X123160133Y-61753561D02*
X123064895Y-61801180D01*
X122874419Y-61801180D01*
X122779180Y-61753561D01*
X122731561Y-61658323D01*
X122731561Y-61277371D01*
X122779180Y-61182133D01*
X122874419Y-61134514D01*
X123064895Y-61134514D01*
X123160133Y-61182133D01*
X123207752Y-61277371D01*
X123207752Y-61372609D01*
X122731561Y-61467847D01*
X123541085Y-61134514D02*
X123779180Y-61801180D01*
X124017276Y-61134514D01*
X124398228Y-61705942D02*
X124445847Y-61753561D01*
X124398228Y-61801180D01*
X124350609Y-61753561D01*
X124398228Y-61705942D01*
X124398228Y-61801180D01*
X126160133Y-61801180D02*
X125588704Y-61801180D01*
X125874419Y-61801180D02*
X125874419Y-60801180D01*
X125779180Y-60944038D01*
X125683942Y-61039276D01*
X125588704Y-61086895D01*
X103802990Y-63411180D02*
X103802990Y-62411180D01*
X104374419Y-63411180D02*
X103945847Y-62839752D01*
X104374419Y-62411180D02*
X103802990Y-62982609D01*
X104707752Y-62744514D02*
X104945847Y-63411180D01*
X105183942Y-62744514D02*
X104945847Y-63411180D01*
X104850609Y-63649276D01*
X104802990Y-63696895D01*
X104707752Y-63744514D01*
X105707752Y-63411180D02*
X105612514Y-63363561D01*
X105564895Y-63268323D01*
X105564895Y-62411180D01*
X106469657Y-63363561D02*
X106374419Y-63411180D01*
X106183942Y-63411180D01*
X106088704Y-63363561D01*
X106041085Y-63268323D01*
X106041085Y-62887371D01*
X106088704Y-62792133D01*
X106183942Y-62744514D01*
X106374419Y-62744514D01*
X106469657Y-62792133D01*
X106517276Y-62887371D01*
X106517276Y-62982609D01*
X106041085Y-63077847D01*
X107898228Y-62411180D02*
X108088704Y-62411180D01*
X108183942Y-62458800D01*
X108279180Y-62554038D01*
X108326800Y-62744514D01*
X108326800Y-63077847D01*
X108279180Y-63268323D01*
X108183942Y-63363561D01*
X108088704Y-63411180D01*
X107898228Y-63411180D01*
X107802990Y-63363561D01*
X107707752Y-63268323D01*
X107660133Y-63077847D01*
X107660133Y-62744514D01*
X107707752Y-62554038D01*
X107802990Y-62458800D01*
X107898228Y-62411180D01*
X108660133Y-62744514D02*
X108850609Y-63411180D01*
X109041085Y-62934990D01*
X109231561Y-63411180D01*
X109422038Y-62744514D01*
X110183942Y-63363561D02*
X110088704Y-63411180D01*
X109898228Y-63411180D01*
X109802990Y-63363561D01*
X109755371Y-63268323D01*
X109755371Y-62887371D01*
X109802990Y-62792133D01*
X109898228Y-62744514D01*
X110088704Y-62744514D01*
X110183942Y-62792133D01*
X110231561Y-62887371D01*
X110231561Y-62982609D01*
X109755371Y-63077847D01*
X110660133Y-62744514D02*
X110660133Y-63411180D01*
X110660133Y-62839752D02*
X110707752Y-62792133D01*
X110802990Y-62744514D01*
X110945847Y-62744514D01*
X111041085Y-62792133D01*
X111088704Y-62887371D01*
X111088704Y-63411180D01*
X112326800Y-63030228D02*
X113088704Y-63030228D01*
X114612514Y-62411180D02*
X114612514Y-63125466D01*
X114564895Y-63268323D01*
X114469657Y-63363561D01*
X114326800Y-63411180D01*
X114231561Y-63411180D01*
X115517276Y-62744514D02*
X115517276Y-63411180D01*
X115088704Y-62744514D02*
X115088704Y-63268323D01*
X115136323Y-63363561D01*
X115231561Y-63411180D01*
X115374419Y-63411180D01*
X115469657Y-63363561D01*
X115517276Y-63315942D01*
X115993466Y-62744514D02*
X115993466Y-63411180D01*
X115993466Y-62839752D02*
X116041085Y-62792133D01*
X116136323Y-62744514D01*
X116279180Y-62744514D01*
X116374419Y-62792133D01*
X116422038Y-62887371D01*
X116422038Y-63411180D01*
X117279180Y-63363561D02*
X117183942Y-63411180D01*
X116993466Y-63411180D01*
X116898228Y-63363561D01*
X116850609Y-63268323D01*
X116850609Y-62887371D01*
X116898228Y-62792133D01*
X116993466Y-62744514D01*
X117183942Y-62744514D01*
X117279180Y-62792133D01*
X117326800Y-62887371D01*
X117326800Y-62982609D01*
X116850609Y-63077847D01*
X118469657Y-62506419D02*
X118517276Y-62458800D01*
X118612514Y-62411180D01*
X118850609Y-62411180D01*
X118945847Y-62458800D01*
X118993466Y-62506419D01*
X119041085Y-62601657D01*
X119041085Y-62696895D01*
X118993466Y-62839752D01*
X118422038Y-63411180D01*
X119041085Y-63411180D01*
X119660133Y-62411180D02*
X119755371Y-62411180D01*
X119850609Y-62458800D01*
X119898228Y-62506419D01*
X119945847Y-62601657D01*
X119993466Y-62792133D01*
X119993466Y-63030228D01*
X119945847Y-63220704D01*
X119898228Y-63315942D01*
X119850609Y-63363561D01*
X119755371Y-63411180D01*
X119660133Y-63411180D01*
X119564895Y-63363561D01*
X119517276Y-63315942D01*
X119469657Y-63220704D01*
X119422038Y-63030228D01*
X119422038Y-62792133D01*
X119469657Y-62601657D01*
X119517276Y-62506419D01*
X119564895Y-62458800D01*
X119660133Y-62411180D01*
X120374419Y-62506419D02*
X120422038Y-62458800D01*
X120517276Y-62411180D01*
X120755371Y-62411180D01*
X120850609Y-62458800D01*
X120898228Y-62506419D01*
X120945847Y-62601657D01*
X120945847Y-62696895D01*
X120898228Y-62839752D01*
X120326800Y-63411180D01*
X120945847Y-63411180D01*
X121802990Y-62744514D02*
X121802990Y-63411180D01*
X121564895Y-62363561D02*
X121326800Y-63077847D01*
X121945847Y-63077847D01*
X137604666Y-113371380D02*
X137938000Y-114371380D01*
X138271333Y-113371380D01*
X139176095Y-114276142D02*
X139128476Y-114323761D01*
X138985619Y-114371380D01*
X138890380Y-114371380D01*
X138747523Y-114323761D01*
X138652285Y-114228523D01*
X138604666Y-114133285D01*
X138557047Y-113942809D01*
X138557047Y-113799952D01*
X138604666Y-113609476D01*
X138652285Y-113514238D01*
X138747523Y-113419000D01*
X138890380Y-113371380D01*
X138985619Y-113371380D01*
X139128476Y-113419000D01*
X139176095Y-113466619D01*
X140176095Y-114276142D02*
X140128476Y-114323761D01*
X139985619Y-114371380D01*
X139890380Y-114371380D01*
X139747523Y-114323761D01*
X139652285Y-114228523D01*
X139604666Y-114133285D01*
X139557047Y-113942809D01*
X139557047Y-113799952D01*
X139604666Y-113609476D01*
X139652285Y-113514238D01*
X139747523Y-113419000D01*
X139890380Y-113371380D01*
X139985619Y-113371380D01*
X140128476Y-113419000D01*
X140176095Y-113466619D01*
X79619647Y-87996780D02*
X79524409Y-88187257D01*
X80524409Y-87996780D02*
X80048219Y-87996780D01*
X80000600Y-88472971D01*
X80048219Y-88425352D01*
X80143457Y-88377733D01*
X80381552Y-88377733D01*
X80476790Y-88425352D01*
X80524409Y-88472971D01*
X80572028Y-88568209D01*
X80572028Y-88806304D01*
X80524409Y-88901542D01*
X80476790Y-88949161D01*
X80381552Y-88996780D01*
X80143457Y-88996780D01*
X80048219Y-88949161D01*
X80000600Y-88901542D01*
X81048219Y-88996780D02*
X81238695Y-88996780D01*
X81333933Y-88949161D01*
X81381552Y-88901542D01*
X81476790Y-88758685D01*
X81524409Y-88568209D01*
X81524409Y-88187257D01*
X81476790Y-88092019D01*
X81429171Y-88044400D01*
X81333933Y-87996780D01*
X81143457Y-87996780D01*
X81048219Y-88044400D01*
X81000600Y-88092019D01*
X80952980Y-88187257D01*
X80952980Y-88425352D01*
X81000600Y-88520590D01*
X81048219Y-88568209D01*
X81143457Y-88615828D01*
X81333933Y-88615828D01*
X81429171Y-88568209D01*
X81476790Y-88520590D01*
X81524409Y-88425352D01*
X82381552Y-87996780D02*
X82191076Y-87996780D01*
X82095838Y-88044400D01*
X82048219Y-88092019D01*
X81952980Y-88234876D01*
X81905361Y-88425352D01*
X81905361Y-88806304D01*
X81952980Y-88901542D01*
X82000600Y-88949161D01*
X82095838Y-88996780D01*
X82286314Y-88996780D01*
X82381552Y-88949161D01*
X82429171Y-88901542D01*
X82476790Y-88806304D01*
X82476790Y-88568209D01*
X82429171Y-88472971D01*
X82381552Y-88425352D01*
X82286314Y-88377733D01*
X82095838Y-88377733D01*
X82000600Y-88425352D01*
X81952980Y-88472971D01*
X81905361Y-88568209D01*
X188341142Y-114085666D02*
X188817333Y-114085666D01*
X188245904Y-114371380D02*
X188579238Y-113371380D01*
X188912571Y-114371380D01*
X189198285Y-114085666D02*
X189674476Y-114085666D01*
X189103047Y-114371380D02*
X189436380Y-113371380D01*
X189769714Y-114371380D01*
X190626857Y-114371380D02*
X190055428Y-114371380D01*
X190341142Y-114371380D02*
X190341142Y-113371380D01*
X190245904Y-113514238D01*
X190150666Y-113609476D01*
X190055428Y-113657095D01*
X141847180Y-69972180D02*
X141847180Y-68972180D01*
X142085276Y-68972180D01*
X142228133Y-69019800D01*
X142323371Y-69115038D01*
X142370990Y-69210276D01*
X142418609Y-69400752D01*
X142418609Y-69543609D01*
X142370990Y-69734085D01*
X142323371Y-69829323D01*
X142228133Y-69924561D01*
X142085276Y-69972180D01*
X141847180Y-69972180D01*
X143418609Y-69972180D02*
X143085276Y-69495990D01*
X142847180Y-69972180D02*
X142847180Y-68972180D01*
X143228133Y-68972180D01*
X143323371Y-69019800D01*
X143370990Y-69067419D01*
X143418609Y-69162657D01*
X143418609Y-69305514D01*
X143370990Y-69400752D01*
X143323371Y-69448371D01*
X143228133Y-69495990D01*
X142847180Y-69495990D01*
X143847180Y-69972180D02*
X143847180Y-68972180D01*
X144180514Y-68972180D02*
X144513847Y-69972180D01*
X144847180Y-68972180D01*
X145180514Y-69448371D02*
X145513847Y-69448371D01*
X145656704Y-69972180D02*
X145180514Y-69972180D01*
X145180514Y-68972180D01*
X145656704Y-68972180D01*
X146656704Y-69972180D02*
X146323371Y-69495990D01*
X146085276Y-69972180D02*
X146085276Y-68972180D01*
X146466228Y-68972180D01*
X146561466Y-69019800D01*
X146609085Y-69067419D01*
X146656704Y-69162657D01*
X146656704Y-69305514D01*
X146609085Y-69400752D01*
X146561466Y-69448371D01*
X146466228Y-69495990D01*
X146085276Y-69495990D01*
X146847180Y-70067419D02*
X147609085Y-70067419D01*
X147799561Y-69924561D02*
X147942419Y-69972180D01*
X148180514Y-69972180D01*
X148275752Y-69924561D01*
X148323371Y-69876942D01*
X148370990Y-69781704D01*
X148370990Y-69686466D01*
X148323371Y-69591228D01*
X148275752Y-69543609D01*
X148180514Y-69495990D01*
X147990038Y-69448371D01*
X147894800Y-69400752D01*
X147847180Y-69353133D01*
X147799561Y-69257895D01*
X147799561Y-69162657D01*
X147847180Y-69067419D01*
X147894800Y-69019800D01*
X147990038Y-68972180D01*
X148228133Y-68972180D01*
X148370990Y-69019800D01*
X148799561Y-69972180D02*
X148799561Y-68972180D01*
X148799561Y-69448371D02*
X149370990Y-69448371D01*
X149370990Y-69972180D02*
X149370990Y-68972180D01*
X149847180Y-69972180D02*
X149847180Y-68972180D01*
X150656704Y-69448371D02*
X150323371Y-69448371D01*
X150323371Y-69972180D02*
X150323371Y-68972180D01*
X150799561Y-68972180D01*
X151037657Y-68972180D02*
X151609085Y-68972180D01*
X151323371Y-69972180D02*
X151323371Y-68972180D01*
X151704323Y-70067419D02*
X152466228Y-70067419D01*
X153275752Y-69876942D02*
X153228133Y-69924561D01*
X153085276Y-69972180D01*
X152990038Y-69972180D01*
X152847180Y-69924561D01*
X152751942Y-69829323D01*
X152704323Y-69734085D01*
X152656704Y-69543609D01*
X152656704Y-69400752D01*
X152704323Y-69210276D01*
X152751942Y-69115038D01*
X152847180Y-69019800D01*
X152990038Y-68972180D01*
X153085276Y-68972180D01*
X153228133Y-69019800D01*
X153275752Y-69067419D01*
X154180514Y-69972180D02*
X153704323Y-69972180D01*
X153704323Y-68972180D01*
X155085276Y-69972180D02*
X154751942Y-69495990D01*
X154513847Y-69972180D02*
X154513847Y-68972180D01*
X154894800Y-68972180D01*
X154990038Y-69019800D01*
X155037657Y-69067419D01*
X155085276Y-69162657D01*
X155085276Y-69305514D01*
X155037657Y-69400752D01*
X154990038Y-69448371D01*
X154894800Y-69495990D01*
X154513847Y-69495990D01*
X155513847Y-69305514D02*
X155513847Y-69972180D01*
X155513847Y-69400752D02*
X155561466Y-69353133D01*
X155656704Y-69305514D01*
X155799561Y-69305514D01*
X155894800Y-69353133D01*
X155942419Y-69448371D01*
X155942419Y-69972180D01*
X114539047Y-70175380D02*
X114539047Y-69175380D01*
X114777142Y-69175380D01*
X114919999Y-69223000D01*
X115015238Y-69318238D01*
X115062857Y-69413476D01*
X115110476Y-69603952D01*
X115110476Y-69746809D01*
X115062857Y-69937285D01*
X115015238Y-70032523D01*
X114919999Y-70127761D01*
X114777142Y-70175380D01*
X114539047Y-70175380D01*
X116110476Y-70175380D02*
X115777142Y-69699190D01*
X115539047Y-70175380D02*
X115539047Y-69175380D01*
X115919999Y-69175380D01*
X116015238Y-69223000D01*
X116062857Y-69270619D01*
X116110476Y-69365857D01*
X116110476Y-69508714D01*
X116062857Y-69603952D01*
X116015238Y-69651571D01*
X115919999Y-69699190D01*
X115539047Y-69699190D01*
X116539047Y-70175380D02*
X116539047Y-69175380D01*
X116872380Y-69175380D02*
X117205714Y-70175380D01*
X117539047Y-69175380D01*
X117872380Y-69651571D02*
X118205714Y-69651571D01*
X118348571Y-70175380D02*
X117872380Y-70175380D01*
X117872380Y-69175380D01*
X118348571Y-69175380D01*
X119348571Y-70175380D02*
X119015238Y-69699190D01*
X118777142Y-70175380D02*
X118777142Y-69175380D01*
X119158095Y-69175380D01*
X119253333Y-69223000D01*
X119300952Y-69270619D01*
X119348571Y-69365857D01*
X119348571Y-69508714D01*
X119300952Y-69603952D01*
X119253333Y-69651571D01*
X119158095Y-69699190D01*
X118777142Y-69699190D01*
X119539047Y-70270619D02*
X120300952Y-70270619D01*
X120729523Y-69175380D02*
X120920000Y-69175380D01*
X121015238Y-69223000D01*
X121110476Y-69318238D01*
X121158095Y-69508714D01*
X121158095Y-69842047D01*
X121110476Y-70032523D01*
X121015238Y-70127761D01*
X120920000Y-70175380D01*
X120729523Y-70175380D01*
X120634285Y-70127761D01*
X120539047Y-70032523D01*
X120491428Y-69842047D01*
X120491428Y-69508714D01*
X120539047Y-69318238D01*
X120634285Y-69223000D01*
X120729523Y-69175380D01*
X121586666Y-69175380D02*
X121586666Y-69984904D01*
X121634285Y-70080142D01*
X121681904Y-70127761D01*
X121777142Y-70175380D01*
X121967619Y-70175380D01*
X122062857Y-70127761D01*
X122110476Y-70080142D01*
X122158095Y-69984904D01*
X122158095Y-69175380D01*
X122491428Y-69175380D02*
X123062857Y-69175380D01*
X122777142Y-70175380D02*
X122777142Y-69175380D01*
X123396190Y-70175380D02*
X123396190Y-69175380D01*
X123777142Y-69175380D01*
X123872380Y-69223000D01*
X123919999Y-69270619D01*
X123967619Y-69365857D01*
X123967619Y-69508714D01*
X123919999Y-69603952D01*
X123872380Y-69651571D01*
X123777142Y-69699190D01*
X123396190Y-69699190D01*
X124396190Y-69175380D02*
X124396190Y-69984904D01*
X124443809Y-70080142D01*
X124491428Y-70127761D01*
X124586666Y-70175380D01*
X124777142Y-70175380D01*
X124872380Y-70127761D01*
X124919999Y-70080142D01*
X124967619Y-69984904D01*
X124967619Y-69175380D01*
X125300952Y-69175380D02*
X125872380Y-69175380D01*
X125586666Y-70175380D02*
X125586666Y-69175380D01*
X125967619Y-70270619D02*
X126729523Y-70270619D01*
X127539047Y-70080142D02*
X127491428Y-70127761D01*
X127348571Y-70175380D01*
X127253333Y-70175380D01*
X127110476Y-70127761D01*
X127015238Y-70032523D01*
X126967619Y-69937285D01*
X126919999Y-69746809D01*
X126919999Y-69603952D01*
X126967619Y-69413476D01*
X127015238Y-69318238D01*
X127110476Y-69223000D01*
X127253333Y-69175380D01*
X127348571Y-69175380D01*
X127491428Y-69223000D01*
X127539047Y-69270619D01*
X128443809Y-70175380D02*
X127967619Y-70175380D01*
X127967619Y-69175380D01*
X128777142Y-70175380D02*
X128777142Y-69175380D01*
X129348571Y-70175380D02*
X128919999Y-69603952D01*
X129348571Y-69175380D02*
X128777142Y-69746809D01*
X163555033Y-68530580D02*
X163555033Y-69244866D01*
X163507414Y-69387723D01*
X163412176Y-69482961D01*
X163269319Y-69530580D01*
X163174080Y-69530580D01*
X164031223Y-69530580D02*
X164031223Y-68530580D01*
X164412176Y-68530580D01*
X164507414Y-68578200D01*
X164555033Y-68625819D01*
X164602652Y-68721057D01*
X164602652Y-68863914D01*
X164555033Y-68959152D01*
X164507414Y-69006771D01*
X164412176Y-69054390D01*
X164031223Y-69054390D01*
X165507414Y-68530580D02*
X165031223Y-68530580D01*
X164983604Y-69006771D01*
X165031223Y-68959152D01*
X165126461Y-68911533D01*
X165364557Y-68911533D01*
X165459795Y-68959152D01*
X165507414Y-69006771D01*
X165555033Y-69102009D01*
X165555033Y-69340104D01*
X165507414Y-69435342D01*
X165459795Y-69482961D01*
X165364557Y-69530580D01*
X165126461Y-69530580D01*
X165031223Y-69482961D01*
X164983604Y-69435342D01*
X165983604Y-69435342D02*
X166031223Y-69482961D01*
X165983604Y-69530580D01*
X165935985Y-69482961D01*
X165983604Y-69435342D01*
X165983604Y-69530580D01*
X165983604Y-68911533D02*
X166031223Y-68959152D01*
X165983604Y-69006771D01*
X165935985Y-68959152D01*
X165983604Y-68911533D01*
X165983604Y-69006771D01*
X158935985Y-71140580D02*
X158935985Y-70140580D01*
X159174080Y-70140580D01*
X159316938Y-70188200D01*
X159412176Y-70283438D01*
X159459795Y-70378676D01*
X159507414Y-70569152D01*
X159507414Y-70712009D01*
X159459795Y-70902485D01*
X159412176Y-70997723D01*
X159316938Y-71092961D01*
X159174080Y-71140580D01*
X158935985Y-71140580D01*
X160507414Y-71140580D02*
X160174080Y-70664390D01*
X159935985Y-71140580D02*
X159935985Y-70140580D01*
X160316938Y-70140580D01*
X160412176Y-70188200D01*
X160459795Y-70235819D01*
X160507414Y-70331057D01*
X160507414Y-70473914D01*
X160459795Y-70569152D01*
X160412176Y-70616771D01*
X160316938Y-70664390D01*
X159935985Y-70664390D01*
X160935985Y-71140580D02*
X160935985Y-70140580D01*
X161269319Y-70140580D02*
X161602652Y-71140580D01*
X161935985Y-70140580D01*
X162269319Y-70616771D02*
X162602652Y-70616771D01*
X162745509Y-71140580D02*
X162269319Y-71140580D01*
X162269319Y-70140580D01*
X162745509Y-70140580D01*
X163745509Y-71140580D02*
X163412176Y-70664390D01*
X163174080Y-71140580D02*
X163174080Y-70140580D01*
X163555033Y-70140580D01*
X163650271Y-70188200D01*
X163697890Y-70235819D01*
X163745509Y-70331057D01*
X163745509Y-70473914D01*
X163697890Y-70569152D01*
X163650271Y-70616771D01*
X163555033Y-70664390D01*
X163174080Y-70664390D01*
X163935985Y-71235819D02*
X164697890Y-71235819D01*
X164935985Y-71140580D02*
X164935985Y-70140580D01*
X165412176Y-71140580D02*
X165412176Y-70140580D01*
X165983604Y-71140580D01*
X165983604Y-70140580D01*
X154840747Y-72083914D02*
X154840747Y-73083914D01*
X154840747Y-72131533D02*
X154935985Y-72083914D01*
X155126461Y-72083914D01*
X155221700Y-72131533D01*
X155269319Y-72179152D01*
X155316938Y-72274390D01*
X155316938Y-72560104D01*
X155269319Y-72655342D01*
X155221700Y-72702961D01*
X155126461Y-72750580D01*
X154935985Y-72750580D01*
X154840747Y-72702961D01*
X156174080Y-72083914D02*
X156174080Y-72750580D01*
X155745509Y-72083914D02*
X155745509Y-72607723D01*
X155793128Y-72702961D01*
X155888366Y-72750580D01*
X156031223Y-72750580D01*
X156126461Y-72702961D01*
X156174080Y-72655342D01*
X156793128Y-72750580D02*
X156697890Y-72702961D01*
X156650271Y-72607723D01*
X156650271Y-71750580D01*
X157316938Y-72750580D02*
X157221700Y-72702961D01*
X157174080Y-72607723D01*
X157174080Y-71750580D01*
X157697890Y-72369628D02*
X158459795Y-72369628D01*
X159364557Y-72083914D02*
X159364557Y-72750580D01*
X158935985Y-72083914D02*
X158935985Y-72607723D01*
X158983604Y-72702961D01*
X159078842Y-72750580D01*
X159221700Y-72750580D01*
X159316938Y-72702961D01*
X159364557Y-72655342D01*
X159840747Y-72083914D02*
X159840747Y-73083914D01*
X159840747Y-72131533D02*
X159935985Y-72083914D01*
X160126461Y-72083914D01*
X160221700Y-72131533D01*
X160269319Y-72179152D01*
X160316938Y-72274390D01*
X160316938Y-72560104D01*
X160269319Y-72655342D01*
X160221700Y-72702961D01*
X160126461Y-72750580D01*
X159935985Y-72750580D01*
X159840747Y-72702961D01*
X161888366Y-72702961D02*
X161793128Y-72750580D01*
X161602652Y-72750580D01*
X161507414Y-72702961D01*
X161459795Y-72607723D01*
X161459795Y-72226771D01*
X161507414Y-72131533D01*
X161602652Y-72083914D01*
X161793128Y-72083914D01*
X161888366Y-72131533D01*
X161935985Y-72226771D01*
X161935985Y-72322009D01*
X161459795Y-72417247D01*
X162364557Y-72083914D02*
X162364557Y-72750580D01*
X162364557Y-72179152D02*
X162412176Y-72131533D01*
X162507414Y-72083914D01*
X162650271Y-72083914D01*
X162745509Y-72131533D01*
X162793128Y-72226771D01*
X162793128Y-72750580D01*
X163697890Y-72750580D02*
X163697890Y-72226771D01*
X163650271Y-72131533D01*
X163555033Y-72083914D01*
X163364557Y-72083914D01*
X163269319Y-72131533D01*
X163697890Y-72702961D02*
X163602652Y-72750580D01*
X163364557Y-72750580D01*
X163269319Y-72702961D01*
X163221700Y-72607723D01*
X163221700Y-72512485D01*
X163269319Y-72417247D01*
X163364557Y-72369628D01*
X163602652Y-72369628D01*
X163697890Y-72322009D01*
X164174080Y-72750580D02*
X164174080Y-71750580D01*
X164174080Y-72131533D02*
X164269319Y-72083914D01*
X164459795Y-72083914D01*
X164555033Y-72131533D01*
X164602652Y-72179152D01*
X164650271Y-72274390D01*
X164650271Y-72560104D01*
X164602652Y-72655342D01*
X164555033Y-72702961D01*
X164459795Y-72750580D01*
X164269319Y-72750580D01*
X164174080Y-72702961D01*
X165221700Y-72750580D02*
X165126461Y-72702961D01*
X165078842Y-72607723D01*
X165078842Y-71750580D01*
X165983604Y-72702961D02*
X165888366Y-72750580D01*
X165697890Y-72750580D01*
X165602652Y-72702961D01*
X165555033Y-72607723D01*
X165555033Y-72226771D01*
X165602652Y-72131533D01*
X165697890Y-72083914D01*
X165888366Y-72083914D01*
X165983604Y-72131533D01*
X166031223Y-72226771D01*
X166031223Y-72322009D01*
X165555033Y-72417247D01*
X121529647Y-87996780D02*
X121434409Y-88187257D01*
X122434409Y-87996780D02*
X121958219Y-87996780D01*
X121910600Y-88472971D01*
X121958219Y-88425352D01*
X122053457Y-88377733D01*
X122291552Y-88377733D01*
X122386790Y-88425352D01*
X122434409Y-88472971D01*
X122482028Y-88568209D01*
X122482028Y-88806304D01*
X122434409Y-88901542D01*
X122386790Y-88949161D01*
X122291552Y-88996780D01*
X122053457Y-88996780D01*
X121958219Y-88949161D01*
X121910600Y-88901542D01*
X122958219Y-88996780D02*
X123148695Y-88996780D01*
X123243933Y-88949161D01*
X123291552Y-88901542D01*
X123386790Y-88758685D01*
X123434409Y-88568209D01*
X123434409Y-88187257D01*
X123386790Y-88092019D01*
X123339171Y-88044400D01*
X123243933Y-87996780D01*
X123053457Y-87996780D01*
X122958219Y-88044400D01*
X122910600Y-88092019D01*
X122862980Y-88187257D01*
X122862980Y-88425352D01*
X122910600Y-88520590D01*
X122958219Y-88568209D01*
X123053457Y-88615828D01*
X123243933Y-88615828D01*
X123339171Y-88568209D01*
X123386790Y-88520590D01*
X123434409Y-88425352D01*
X124291552Y-87996780D02*
X124101076Y-87996780D01*
X124005838Y-88044400D01*
X123958219Y-88092019D01*
X123862980Y-88234876D01*
X123815361Y-88425352D01*
X123815361Y-88806304D01*
X123862980Y-88901542D01*
X123910600Y-88949161D01*
X124005838Y-88996780D01*
X124196314Y-88996780D01*
X124291552Y-88949161D01*
X124339171Y-88901542D01*
X124386790Y-88806304D01*
X124386790Y-88568209D01*
X124339171Y-88472971D01*
X124291552Y-88425352D01*
X124196314Y-88377733D01*
X124005838Y-88377733D01*
X123910600Y-88425352D01*
X123862980Y-88472971D01*
X123815361Y-88568209D01*
X191379647Y-87996780D02*
X191284409Y-88187257D01*
X192284409Y-87996780D02*
X191808219Y-87996780D01*
X191760600Y-88472971D01*
X191808219Y-88425352D01*
X191903457Y-88377733D01*
X192141552Y-88377733D01*
X192236790Y-88425352D01*
X192284409Y-88472971D01*
X192332028Y-88568209D01*
X192332028Y-88806304D01*
X192284409Y-88901542D01*
X192236790Y-88949161D01*
X192141552Y-88996780D01*
X191903457Y-88996780D01*
X191808219Y-88949161D01*
X191760600Y-88901542D01*
X192808219Y-88996780D02*
X192998695Y-88996780D01*
X193093933Y-88949161D01*
X193141552Y-88901542D01*
X193236790Y-88758685D01*
X193284409Y-88568209D01*
X193284409Y-88187257D01*
X193236790Y-88092019D01*
X193189171Y-88044400D01*
X193093933Y-87996780D01*
X192903457Y-87996780D01*
X192808219Y-88044400D01*
X192760600Y-88092019D01*
X192712980Y-88187257D01*
X192712980Y-88425352D01*
X192760600Y-88520590D01*
X192808219Y-88568209D01*
X192903457Y-88615828D01*
X193093933Y-88615828D01*
X193189171Y-88568209D01*
X193236790Y-88520590D01*
X193284409Y-88425352D01*
X194141552Y-87996780D02*
X193951076Y-87996780D01*
X193855838Y-88044400D01*
X193808219Y-88092019D01*
X193712980Y-88234876D01*
X193665361Y-88425352D01*
X193665361Y-88806304D01*
X193712980Y-88901542D01*
X193760600Y-88949161D01*
X193855838Y-88996780D01*
X194046314Y-88996780D01*
X194141552Y-88949161D01*
X194189171Y-88901542D01*
X194236790Y-88806304D01*
X194236790Y-88568209D01*
X194189171Y-88472971D01*
X194141552Y-88425352D01*
X194046314Y-88377733D01*
X193855838Y-88377733D01*
X193760600Y-88425352D01*
X193712980Y-88472971D01*
X193665361Y-88568209D01*
X137604666Y-102449380D02*
X137938000Y-103449380D01*
X138271333Y-102449380D01*
X139176095Y-103354142D02*
X139128476Y-103401761D01*
X138985619Y-103449380D01*
X138890380Y-103449380D01*
X138747523Y-103401761D01*
X138652285Y-103306523D01*
X138604666Y-103211285D01*
X138557047Y-103020809D01*
X138557047Y-102877952D01*
X138604666Y-102687476D01*
X138652285Y-102592238D01*
X138747523Y-102497000D01*
X138890380Y-102449380D01*
X138985619Y-102449380D01*
X139128476Y-102497000D01*
X139176095Y-102544619D01*
X140176095Y-103354142D02*
X140128476Y-103401761D01*
X139985619Y-103449380D01*
X139890380Y-103449380D01*
X139747523Y-103401761D01*
X139652285Y-103306523D01*
X139604666Y-103211285D01*
X139557047Y-103020809D01*
X139557047Y-102877952D01*
X139604666Y-102687476D01*
X139652285Y-102592238D01*
X139747523Y-102497000D01*
X139890380Y-102449380D01*
X139985619Y-102449380D01*
X140128476Y-102497000D01*
X140176095Y-102544619D01*
X89265714Y-70175380D02*
X88932380Y-69699190D01*
X88694285Y-70175380D02*
X88694285Y-69175380D01*
X89075238Y-69175380D01*
X89170476Y-69223000D01*
X89218095Y-69270619D01*
X89265714Y-69365857D01*
X89265714Y-69508714D01*
X89218095Y-69603952D01*
X89170476Y-69651571D01*
X89075238Y-69699190D01*
X88694285Y-69699190D01*
X89694285Y-69651571D02*
X90027619Y-69651571D01*
X90170476Y-70175380D02*
X89694285Y-70175380D01*
X89694285Y-69175380D01*
X90170476Y-69175380D01*
X90551428Y-69889666D02*
X91027619Y-69889666D01*
X90456190Y-70175380D02*
X90789523Y-69175380D01*
X91122857Y-70175380D01*
X91456190Y-70175380D02*
X91456190Y-69175380D01*
X91694285Y-69175380D01*
X91837142Y-69223000D01*
X91932380Y-69318238D01*
X91980000Y-69413476D01*
X92027619Y-69603952D01*
X92027619Y-69746809D01*
X91980000Y-69937285D01*
X91932380Y-70032523D01*
X91837142Y-70127761D01*
X91694285Y-70175380D01*
X91456190Y-70175380D01*
X92456190Y-69651571D02*
X92789523Y-69651571D01*
X92932380Y-70175380D02*
X92456190Y-70175380D01*
X92456190Y-69175380D01*
X92932380Y-69175380D01*
X93932380Y-70175380D02*
X93599047Y-69699190D01*
X93360952Y-70175380D02*
X93360952Y-69175380D01*
X93741904Y-69175380D01*
X93837142Y-69223000D01*
X93884761Y-69270619D01*
X93932380Y-69365857D01*
X93932380Y-69508714D01*
X93884761Y-69603952D01*
X93837142Y-69651571D01*
X93741904Y-69699190D01*
X93360952Y-69699190D01*
X94122857Y-70270619D02*
X94884761Y-70270619D01*
X95599047Y-70175380D02*
X95122857Y-70175380D01*
X95122857Y-69175380D01*
X96122857Y-69175380D02*
X96313333Y-69175380D01*
X96408571Y-69223000D01*
X96503809Y-69318238D01*
X96551428Y-69508714D01*
X96551428Y-69842047D01*
X96503809Y-70032523D01*
X96408571Y-70127761D01*
X96313333Y-70175380D01*
X96122857Y-70175380D01*
X96027619Y-70127761D01*
X95932380Y-70032523D01*
X95884761Y-69842047D01*
X95884761Y-69508714D01*
X95932380Y-69318238D01*
X96027619Y-69223000D01*
X96122857Y-69175380D01*
X96932380Y-69889666D02*
X97408571Y-69889666D01*
X96837142Y-70175380D02*
X97170476Y-69175380D01*
X97503809Y-70175380D01*
X97837142Y-70175380D02*
X97837142Y-69175380D01*
X98075238Y-69175380D01*
X98218095Y-69223000D01*
X98313333Y-69318238D01*
X98360952Y-69413476D01*
X98408571Y-69603952D01*
X98408571Y-69746809D01*
X98360952Y-69937285D01*
X98313333Y-70032523D01*
X98218095Y-70127761D01*
X98075238Y-70175380D01*
X97837142Y-70175380D01*
X98837142Y-69508714D02*
X98837142Y-70175380D01*
X98837142Y-69603952D02*
X98884761Y-69556333D01*
X98980000Y-69508714D01*
X99122857Y-69508714D01*
X99218095Y-69556333D01*
X99265714Y-69651571D01*
X99265714Y-70175380D01*
X177409647Y-87996780D02*
X177314409Y-88187257D01*
X178314409Y-87996780D02*
X177838219Y-87996780D01*
X177790600Y-88472971D01*
X177838219Y-88425352D01*
X177933457Y-88377733D01*
X178171552Y-88377733D01*
X178266790Y-88425352D01*
X178314409Y-88472971D01*
X178362028Y-88568209D01*
X178362028Y-88806304D01*
X178314409Y-88901542D01*
X178266790Y-88949161D01*
X178171552Y-88996780D01*
X177933457Y-88996780D01*
X177838219Y-88949161D01*
X177790600Y-88901542D01*
X178838219Y-88996780D02*
X179028695Y-88996780D01*
X179123933Y-88949161D01*
X179171552Y-88901542D01*
X179266790Y-88758685D01*
X179314409Y-88568209D01*
X179314409Y-88187257D01*
X179266790Y-88092019D01*
X179219171Y-88044400D01*
X179123933Y-87996780D01*
X178933457Y-87996780D01*
X178838219Y-88044400D01*
X178790600Y-88092019D01*
X178742980Y-88187257D01*
X178742980Y-88425352D01*
X178790600Y-88520590D01*
X178838219Y-88568209D01*
X178933457Y-88615828D01*
X179123933Y-88615828D01*
X179219171Y-88568209D01*
X179266790Y-88520590D01*
X179314409Y-88425352D01*
X180171552Y-87996780D02*
X179981076Y-87996780D01*
X179885838Y-88044400D01*
X179838219Y-88092019D01*
X179742980Y-88234876D01*
X179695361Y-88425352D01*
X179695361Y-88806304D01*
X179742980Y-88901542D01*
X179790600Y-88949161D01*
X179885838Y-88996780D01*
X180076314Y-88996780D01*
X180171552Y-88949161D01*
X180219171Y-88901542D01*
X180266790Y-88806304D01*
X180266790Y-88568209D01*
X180219171Y-88472971D01*
X180171552Y-88425352D01*
X180076314Y-88377733D01*
X179885838Y-88377733D01*
X179790600Y-88425352D01*
X179742980Y-88472971D01*
X179695361Y-88568209D01*
X76644666Y-102449380D02*
X76978000Y-103449380D01*
X77311333Y-102449380D01*
X78216095Y-103354142D02*
X78168476Y-103401761D01*
X78025619Y-103449380D01*
X77930380Y-103449380D01*
X77787523Y-103401761D01*
X77692285Y-103306523D01*
X77644666Y-103211285D01*
X77597047Y-103020809D01*
X77597047Y-102877952D01*
X77644666Y-102687476D01*
X77692285Y-102592238D01*
X77787523Y-102497000D01*
X77930380Y-102449380D01*
X78025619Y-102449380D01*
X78168476Y-102497000D01*
X78216095Y-102544619D01*
X79216095Y-103354142D02*
X79168476Y-103401761D01*
X79025619Y-103449380D01*
X78930380Y-103449380D01*
X78787523Y-103401761D01*
X78692285Y-103306523D01*
X78644666Y-103211285D01*
X78597047Y-103020809D01*
X78597047Y-102877952D01*
X78644666Y-102687476D01*
X78692285Y-102592238D01*
X78787523Y-102497000D01*
X78930380Y-102449380D01*
X79025619Y-102449380D01*
X79168476Y-102497000D01*
X79216095Y-102544619D01*
X142875142Y-103163666D02*
X143351333Y-103163666D01*
X142779904Y-103449380D02*
X143113238Y-102449380D01*
X143446571Y-103449380D01*
X143637047Y-102449380D02*
X143970380Y-103449380D01*
X144303714Y-102449380D01*
X144589428Y-102544619D02*
X144637047Y-102497000D01*
X144732285Y-102449380D01*
X144970380Y-102449380D01*
X145065619Y-102497000D01*
X145113238Y-102544619D01*
X145160857Y-102639857D01*
X145160857Y-102735095D01*
X145113238Y-102877952D01*
X144541809Y-103449380D01*
X145160857Y-103449380D01*
X140716095Y-114943000D02*
X140620857Y-114895380D01*
X140478000Y-114895380D01*
X140335142Y-114943000D01*
X140239904Y-115038238D01*
X140192285Y-115133476D01*
X140144666Y-115323952D01*
X140144666Y-115466809D01*
X140192285Y-115657285D01*
X140239904Y-115752523D01*
X140335142Y-115847761D01*
X140478000Y-115895380D01*
X140573238Y-115895380D01*
X140716095Y-115847761D01*
X140763714Y-115800142D01*
X140763714Y-115466809D01*
X140573238Y-115466809D01*
X141192285Y-115895380D02*
X141192285Y-114895380D01*
X141763714Y-115895380D01*
X141763714Y-114895380D01*
X142239904Y-115895380D02*
X142239904Y-114895380D01*
X142478000Y-114895380D01*
X142620857Y-114943000D01*
X142716095Y-115038238D01*
X142763714Y-115133476D01*
X142811333Y-115323952D01*
X142811333Y-115466809D01*
X142763714Y-115657285D01*
X142716095Y-115752523D01*
X142620857Y-115847761D01*
X142478000Y-115895380D01*
X142239904Y-115895380D01*
X142875142Y-114085666D02*
X143351333Y-114085666D01*
X142779904Y-114371380D02*
X143113238Y-113371380D01*
X143446571Y-114371380D01*
X143637047Y-113371380D02*
X143970380Y-114371380D01*
X144303714Y-113371380D01*
X145160857Y-114371380D02*
X144589428Y-114371380D01*
X144875142Y-114371380D02*
X144875142Y-113371380D01*
X144779904Y-113514238D01*
X144684666Y-113609476D01*
X144589428Y-113657095D01*
X140716095Y-101227000D02*
X140620857Y-101179380D01*
X140478000Y-101179380D01*
X140335142Y-101227000D01*
X140239904Y-101322238D01*
X140192285Y-101417476D01*
X140144666Y-101607952D01*
X140144666Y-101750809D01*
X140192285Y-101941285D01*
X140239904Y-102036523D01*
X140335142Y-102131761D01*
X140478000Y-102179380D01*
X140573238Y-102179380D01*
X140716095Y-102131761D01*
X140763714Y-102084142D01*
X140763714Y-101750809D01*
X140573238Y-101750809D01*
X141192285Y-102179380D02*
X141192285Y-101179380D01*
X141763714Y-102179380D01*
X141763714Y-101179380D01*
X142239904Y-102179380D02*
X142239904Y-101179380D01*
X142478000Y-101179380D01*
X142620857Y-101227000D01*
X142716095Y-101322238D01*
X142763714Y-101417476D01*
X142811333Y-101607952D01*
X142811333Y-101750809D01*
X142763714Y-101941285D01*
X142716095Y-102036523D01*
X142620857Y-102131761D01*
X142478000Y-102179380D01*
X142239904Y-102179380D01*
X133213647Y-99401380D02*
X133118409Y-99591857D01*
X134166028Y-100401380D02*
X133594600Y-100401380D01*
X133880314Y-100401380D02*
X133880314Y-99401380D01*
X133785076Y-99544238D01*
X133689838Y-99639476D01*
X133594600Y-99687095D01*
X135023171Y-99401380D02*
X134832695Y-99401380D01*
X134737457Y-99449000D01*
X134689838Y-99496619D01*
X134594600Y-99639476D01*
X134546980Y-99829952D01*
X134546980Y-100210904D01*
X134594600Y-100306142D01*
X134642219Y-100353761D01*
X134737457Y-100401380D01*
X134927933Y-100401380D01*
X135023171Y-100353761D01*
X135070790Y-100306142D01*
X135118409Y-100210904D01*
X135118409Y-99972809D01*
X135070790Y-99877571D01*
X135023171Y-99829952D01*
X134927933Y-99782333D01*
X134737457Y-99782333D01*
X134642219Y-99829952D01*
X134594600Y-99877571D01*
X134546980Y-99972809D01*
X136023171Y-99401380D02*
X135546980Y-99401380D01*
X135499361Y-99877571D01*
X135546980Y-99829952D01*
X135642219Y-99782333D01*
X135880314Y-99782333D01*
X135975552Y-99829952D01*
X136023171Y-99877571D01*
X136070790Y-99972809D01*
X136070790Y-100210904D01*
X136023171Y-100306142D01*
X135975552Y-100353761D01*
X135880314Y-100401380D01*
X135642219Y-100401380D01*
X135546980Y-100353761D01*
X135499361Y-100306142D01*
X79756095Y-101227000D02*
X79660857Y-101179380D01*
X79518000Y-101179380D01*
X79375142Y-101227000D01*
X79279904Y-101322238D01*
X79232285Y-101417476D01*
X79184666Y-101607952D01*
X79184666Y-101750809D01*
X79232285Y-101941285D01*
X79279904Y-102036523D01*
X79375142Y-102131761D01*
X79518000Y-102179380D01*
X79613238Y-102179380D01*
X79756095Y-102131761D01*
X79803714Y-102084142D01*
X79803714Y-101750809D01*
X79613238Y-101750809D01*
X80232285Y-102179380D02*
X80232285Y-101179380D01*
X80803714Y-102179380D01*
X80803714Y-101179380D01*
X81279904Y-102179380D02*
X81279904Y-101179380D01*
X81518000Y-101179380D01*
X81660857Y-101227000D01*
X81756095Y-101322238D01*
X81803714Y-101417476D01*
X81851333Y-101607952D01*
X81851333Y-101750809D01*
X81803714Y-101941285D01*
X81756095Y-102036523D01*
X81660857Y-102131761D01*
X81518000Y-102179380D01*
X81279904Y-102179380D01*
X105273647Y-99401380D02*
X105178409Y-99591857D01*
X106226028Y-100401380D02*
X105654600Y-100401380D01*
X105940314Y-100401380D02*
X105940314Y-99401380D01*
X105845076Y-99544238D01*
X105749838Y-99639476D01*
X105654600Y-99687095D01*
X107083171Y-99401380D02*
X106892695Y-99401380D01*
X106797457Y-99449000D01*
X106749838Y-99496619D01*
X106654600Y-99639476D01*
X106606980Y-99829952D01*
X106606980Y-100210904D01*
X106654600Y-100306142D01*
X106702219Y-100353761D01*
X106797457Y-100401380D01*
X106987933Y-100401380D01*
X107083171Y-100353761D01*
X107130790Y-100306142D01*
X107178409Y-100210904D01*
X107178409Y-99972809D01*
X107130790Y-99877571D01*
X107083171Y-99829952D01*
X106987933Y-99782333D01*
X106797457Y-99782333D01*
X106702219Y-99829952D01*
X106654600Y-99877571D01*
X106606980Y-99972809D01*
X108083171Y-99401380D02*
X107606980Y-99401380D01*
X107559361Y-99877571D01*
X107606980Y-99829952D01*
X107702219Y-99782333D01*
X107940314Y-99782333D01*
X108035552Y-99829952D01*
X108083171Y-99877571D01*
X108130790Y-99972809D01*
X108130790Y-100210904D01*
X108083171Y-100306142D01*
X108035552Y-100353761D01*
X107940314Y-100401380D01*
X107702219Y-100401380D01*
X107606980Y-100353761D01*
X107559361Y-100306142D01*
X135499647Y-87996780D02*
X135404409Y-88187257D01*
X136404409Y-87996780D02*
X135928219Y-87996780D01*
X135880600Y-88472971D01*
X135928219Y-88425352D01*
X136023457Y-88377733D01*
X136261552Y-88377733D01*
X136356790Y-88425352D01*
X136404409Y-88472971D01*
X136452028Y-88568209D01*
X136452028Y-88806304D01*
X136404409Y-88901542D01*
X136356790Y-88949161D01*
X136261552Y-88996780D01*
X136023457Y-88996780D01*
X135928219Y-88949161D01*
X135880600Y-88901542D01*
X136928219Y-88996780D02*
X137118695Y-88996780D01*
X137213933Y-88949161D01*
X137261552Y-88901542D01*
X137356790Y-88758685D01*
X137404409Y-88568209D01*
X137404409Y-88187257D01*
X137356790Y-88092019D01*
X137309171Y-88044400D01*
X137213933Y-87996780D01*
X137023457Y-87996780D01*
X136928219Y-88044400D01*
X136880600Y-88092019D01*
X136832980Y-88187257D01*
X136832980Y-88425352D01*
X136880600Y-88520590D01*
X136928219Y-88568209D01*
X137023457Y-88615828D01*
X137213933Y-88615828D01*
X137309171Y-88568209D01*
X137356790Y-88520590D01*
X137404409Y-88425352D01*
X138261552Y-87996780D02*
X138071076Y-87996780D01*
X137975838Y-88044400D01*
X137928219Y-88092019D01*
X137832980Y-88234876D01*
X137785361Y-88425352D01*
X137785361Y-88806304D01*
X137832980Y-88901542D01*
X137880600Y-88949161D01*
X137975838Y-88996780D01*
X138166314Y-88996780D01*
X138261552Y-88949161D01*
X138309171Y-88901542D01*
X138356790Y-88806304D01*
X138356790Y-88568209D01*
X138309171Y-88472971D01*
X138261552Y-88425352D01*
X138166314Y-88377733D01*
X137975838Y-88377733D01*
X137880600Y-88425352D01*
X137832980Y-88472971D01*
X137785361Y-88568209D01*
X161153647Y-99401380D02*
X161058409Y-99591857D01*
X162106028Y-100401380D02*
X161534600Y-100401380D01*
X161820314Y-100401380D02*
X161820314Y-99401380D01*
X161725076Y-99544238D01*
X161629838Y-99639476D01*
X161534600Y-99687095D01*
X162963171Y-99401380D02*
X162772695Y-99401380D01*
X162677457Y-99449000D01*
X162629838Y-99496619D01*
X162534600Y-99639476D01*
X162486980Y-99829952D01*
X162486980Y-100210904D01*
X162534600Y-100306142D01*
X162582219Y-100353761D01*
X162677457Y-100401380D01*
X162867933Y-100401380D01*
X162963171Y-100353761D01*
X163010790Y-100306142D01*
X163058409Y-100210904D01*
X163058409Y-99972809D01*
X163010790Y-99877571D01*
X162963171Y-99829952D01*
X162867933Y-99782333D01*
X162677457Y-99782333D01*
X162582219Y-99829952D01*
X162534600Y-99877571D01*
X162486980Y-99972809D01*
X163963171Y-99401380D02*
X163486980Y-99401380D01*
X163439361Y-99877571D01*
X163486980Y-99829952D01*
X163582219Y-99782333D01*
X163820314Y-99782333D01*
X163915552Y-99829952D01*
X163963171Y-99877571D01*
X164010790Y-99972809D01*
X164010790Y-100210904D01*
X163963171Y-100306142D01*
X163915552Y-100353761D01*
X163820314Y-100401380D01*
X163582219Y-100401380D01*
X163486980Y-100353761D01*
X163439361Y-100306142D01*
X76644666Y-113371380D02*
X76978000Y-114371380D01*
X77311333Y-113371380D01*
X78216095Y-114276142D02*
X78168476Y-114323761D01*
X78025619Y-114371380D01*
X77930380Y-114371380D01*
X77787523Y-114323761D01*
X77692285Y-114228523D01*
X77644666Y-114133285D01*
X77597047Y-113942809D01*
X77597047Y-113799952D01*
X77644666Y-113609476D01*
X77692285Y-113514238D01*
X77787523Y-113419000D01*
X77930380Y-113371380D01*
X78025619Y-113371380D01*
X78168476Y-113419000D01*
X78216095Y-113466619D01*
X79216095Y-114276142D02*
X79168476Y-114323761D01*
X79025619Y-114371380D01*
X78930380Y-114371380D01*
X78787523Y-114323761D01*
X78692285Y-114228523D01*
X78644666Y-114133285D01*
X78597047Y-113942809D01*
X78597047Y-113799952D01*
X78644666Y-113609476D01*
X78692285Y-113514238D01*
X78787523Y-113419000D01*
X78930380Y-113371380D01*
X79025619Y-113371380D01*
X79168476Y-113419000D01*
X79216095Y-113466619D01*
X128532761Y-68397380D02*
X128532761Y-67397380D01*
X128770857Y-67397380D01*
X128913714Y-67445000D01*
X129008952Y-67540238D01*
X129056571Y-67635476D01*
X129104190Y-67825952D01*
X129104190Y-67968809D01*
X129056571Y-68159285D01*
X129008952Y-68254523D01*
X128913714Y-68349761D01*
X128770857Y-68397380D01*
X128532761Y-68397380D01*
X130104190Y-68397380D02*
X129770857Y-67921190D01*
X129532761Y-68397380D02*
X129532761Y-67397380D01*
X129913714Y-67397380D01*
X130008952Y-67445000D01*
X130056571Y-67492619D01*
X130104190Y-67587857D01*
X130104190Y-67730714D01*
X130056571Y-67825952D01*
X130008952Y-67873571D01*
X129913714Y-67921190D01*
X129532761Y-67921190D01*
X130532761Y-68397380D02*
X130532761Y-67397380D01*
X130866095Y-67397380D02*
X131199428Y-68397380D01*
X131532761Y-67397380D01*
X131866095Y-67873571D02*
X132199428Y-67873571D01*
X132342285Y-68397380D02*
X131866095Y-68397380D01*
X131866095Y-67397380D01*
X132342285Y-67397380D01*
X133342285Y-68397380D02*
X133008952Y-67921190D01*
X132770857Y-68397380D02*
X132770857Y-67397380D01*
X133151809Y-67397380D01*
X133247047Y-67445000D01*
X133294666Y-67492619D01*
X133342285Y-67587857D01*
X133342285Y-67730714D01*
X133294666Y-67825952D01*
X133247047Y-67873571D01*
X133151809Y-67921190D01*
X132770857Y-67921190D01*
X133532761Y-68492619D02*
X134294666Y-68492619D01*
X134485142Y-68349761D02*
X134628000Y-68397380D01*
X134866095Y-68397380D01*
X134961333Y-68349761D01*
X135008952Y-68302142D01*
X135056571Y-68206904D01*
X135056571Y-68111666D01*
X135008952Y-68016428D01*
X134961333Y-67968809D01*
X134866095Y-67921190D01*
X134675619Y-67873571D01*
X134580380Y-67825952D01*
X134532761Y-67778333D01*
X134485142Y-67683095D01*
X134485142Y-67587857D01*
X134532761Y-67492619D01*
X134580380Y-67445000D01*
X134675619Y-67397380D01*
X134913714Y-67397380D01*
X135056571Y-67445000D01*
X135485142Y-68397380D02*
X135485142Y-67397380D01*
X135485142Y-67873571D02*
X136056571Y-67873571D01*
X136056571Y-68397380D02*
X136056571Y-67397380D01*
X136532761Y-68397380D02*
X136532761Y-67397380D01*
X137342285Y-67873571D02*
X137008952Y-67873571D01*
X137008952Y-68397380D02*
X137008952Y-67397380D01*
X137485142Y-67397380D01*
X137723238Y-67397380D02*
X138294666Y-67397380D01*
X138008952Y-68397380D02*
X138008952Y-67397380D01*
X138389904Y-68492619D02*
X139151809Y-68492619D01*
X139961333Y-68302142D02*
X139913714Y-68349761D01*
X139770857Y-68397380D01*
X139675619Y-68397380D01*
X139532761Y-68349761D01*
X139437523Y-68254523D01*
X139389904Y-68159285D01*
X139342285Y-67968809D01*
X139342285Y-67825952D01*
X139389904Y-67635476D01*
X139437523Y-67540238D01*
X139532761Y-67445000D01*
X139675619Y-67397380D01*
X139770857Y-67397380D01*
X139913714Y-67445000D01*
X139961333Y-67492619D01*
X140866095Y-68397380D02*
X140389904Y-68397380D01*
X140389904Y-67397380D01*
X141199428Y-68397380D02*
X141199428Y-67397380D01*
X141770857Y-68397380D02*
X141342285Y-67825952D01*
X141770857Y-67397380D02*
X141199428Y-67968809D01*
X82296095Y-115451000D02*
X82200857Y-115403380D01*
X82058000Y-115403380D01*
X81915142Y-115451000D01*
X81819904Y-115546238D01*
X81772285Y-115641476D01*
X81724666Y-115831952D01*
X81724666Y-115974809D01*
X81772285Y-116165285D01*
X81819904Y-116260523D01*
X81915142Y-116355761D01*
X82058000Y-116403380D01*
X82153238Y-116403380D01*
X82296095Y-116355761D01*
X82343714Y-116308142D01*
X82343714Y-115974809D01*
X82153238Y-115974809D01*
X82772285Y-116403380D02*
X82772285Y-115403380D01*
X83343714Y-116403380D01*
X83343714Y-115403380D01*
X83819904Y-116403380D02*
X83819904Y-115403380D01*
X84058000Y-115403380D01*
X84200857Y-115451000D01*
X84296095Y-115546238D01*
X84343714Y-115641476D01*
X84391333Y-115831952D01*
X84391333Y-115974809D01*
X84343714Y-116165285D01*
X84296095Y-116260523D01*
X84200857Y-116355761D01*
X84058000Y-116403380D01*
X83819904Y-116403380D01*
X147183647Y-99401380D02*
X147088409Y-99591857D01*
X148136028Y-100401380D02*
X147564600Y-100401380D01*
X147850314Y-100401380D02*
X147850314Y-99401380D01*
X147755076Y-99544238D01*
X147659838Y-99639476D01*
X147564600Y-99687095D01*
X148993171Y-99401380D02*
X148802695Y-99401380D01*
X148707457Y-99449000D01*
X148659838Y-99496619D01*
X148564600Y-99639476D01*
X148516980Y-99829952D01*
X148516980Y-100210904D01*
X148564600Y-100306142D01*
X148612219Y-100353761D01*
X148707457Y-100401380D01*
X148897933Y-100401380D01*
X148993171Y-100353761D01*
X149040790Y-100306142D01*
X149088409Y-100210904D01*
X149088409Y-99972809D01*
X149040790Y-99877571D01*
X148993171Y-99829952D01*
X148897933Y-99782333D01*
X148707457Y-99782333D01*
X148612219Y-99829952D01*
X148564600Y-99877571D01*
X148516980Y-99972809D01*
X149993171Y-99401380D02*
X149516980Y-99401380D01*
X149469361Y-99877571D01*
X149516980Y-99829952D01*
X149612219Y-99782333D01*
X149850314Y-99782333D01*
X149945552Y-99829952D01*
X149993171Y-99877571D01*
X150040790Y-99972809D01*
X150040790Y-100210904D01*
X149993171Y-100306142D01*
X149945552Y-100353761D01*
X149850314Y-100401380D01*
X149612219Y-100401380D01*
X149516980Y-100353761D01*
X149469361Y-100306142D01*
%TO.C,R13*%
X73779142Y-72588380D02*
X73445809Y-72112190D01*
X73207714Y-72588380D02*
X73207714Y-71588380D01*
X73588666Y-71588380D01*
X73683904Y-71636000D01*
X73731523Y-71683619D01*
X73779142Y-71778857D01*
X73779142Y-71921714D01*
X73731523Y-72016952D01*
X73683904Y-72064571D01*
X73588666Y-72112190D01*
X73207714Y-72112190D01*
X74731523Y-72588380D02*
X74160095Y-72588380D01*
X74445809Y-72588380D02*
X74445809Y-71588380D01*
X74350571Y-71731238D01*
X74255333Y-71826476D01*
X74160095Y-71874095D01*
X75064857Y-71588380D02*
X75683904Y-71588380D01*
X75350571Y-71969333D01*
X75493428Y-71969333D01*
X75588666Y-72016952D01*
X75636285Y-72064571D01*
X75683904Y-72159809D01*
X75683904Y-72397904D01*
X75636285Y-72493142D01*
X75588666Y-72540761D01*
X75493428Y-72588380D01*
X75207714Y-72588380D01*
X75112476Y-72540761D01*
X75064857Y-72493142D01*
%TO.C,R12*%
X73779142Y-74620380D02*
X73445809Y-74144190D01*
X73207714Y-74620380D02*
X73207714Y-73620380D01*
X73588666Y-73620380D01*
X73683904Y-73668000D01*
X73731523Y-73715619D01*
X73779142Y-73810857D01*
X73779142Y-73953714D01*
X73731523Y-74048952D01*
X73683904Y-74096571D01*
X73588666Y-74144190D01*
X73207714Y-74144190D01*
X74731523Y-74620380D02*
X74160095Y-74620380D01*
X74445809Y-74620380D02*
X74445809Y-73620380D01*
X74350571Y-73763238D01*
X74255333Y-73858476D01*
X74160095Y-73906095D01*
X75112476Y-73715619D02*
X75160095Y-73668000D01*
X75255333Y-73620380D01*
X75493428Y-73620380D01*
X75588666Y-73668000D01*
X75636285Y-73715619D01*
X75683904Y-73810857D01*
X75683904Y-73906095D01*
X75636285Y-74048952D01*
X75064857Y-74620380D01*
X75683904Y-74620380D01*
%TO.C,R11*%
X87749142Y-72588380D02*
X87415809Y-72112190D01*
X87177714Y-72588380D02*
X87177714Y-71588380D01*
X87558666Y-71588380D01*
X87653904Y-71636000D01*
X87701523Y-71683619D01*
X87749142Y-71778857D01*
X87749142Y-71921714D01*
X87701523Y-72016952D01*
X87653904Y-72064571D01*
X87558666Y-72112190D01*
X87177714Y-72112190D01*
X88701523Y-72588380D02*
X88130095Y-72588380D01*
X88415809Y-72588380D02*
X88415809Y-71588380D01*
X88320571Y-71731238D01*
X88225333Y-71826476D01*
X88130095Y-71874095D01*
X89653904Y-72588380D02*
X89082476Y-72588380D01*
X89368190Y-72588380D02*
X89368190Y-71588380D01*
X89272952Y-71731238D01*
X89177714Y-71826476D01*
X89082476Y-71874095D01*
%TO.C,R10*%
X87749142Y-74620380D02*
X87415809Y-74144190D01*
X87177714Y-74620380D02*
X87177714Y-73620380D01*
X87558666Y-73620380D01*
X87653904Y-73668000D01*
X87701523Y-73715619D01*
X87749142Y-73810857D01*
X87749142Y-73953714D01*
X87701523Y-74048952D01*
X87653904Y-74096571D01*
X87558666Y-74144190D01*
X87177714Y-74144190D01*
X88701523Y-74620380D02*
X88130095Y-74620380D01*
X88415809Y-74620380D02*
X88415809Y-73620380D01*
X88320571Y-73763238D01*
X88225333Y-73858476D01*
X88130095Y-73906095D01*
X89320571Y-73620380D02*
X89415809Y-73620380D01*
X89511047Y-73668000D01*
X89558666Y-73715619D01*
X89606285Y-73810857D01*
X89653904Y-74001333D01*
X89653904Y-74239428D01*
X89606285Y-74429904D01*
X89558666Y-74525142D01*
X89511047Y-74572761D01*
X89415809Y-74620380D01*
X89320571Y-74620380D01*
X89225333Y-74572761D01*
X89177714Y-74525142D01*
X89130095Y-74429904D01*
X89082476Y-74239428D01*
X89082476Y-74001333D01*
X89130095Y-73810857D01*
X89177714Y-73715619D01*
X89225333Y-73668000D01*
X89320571Y-73620380D01*
%TO.C,R9*%
X102679833Y-72588380D02*
X102346500Y-72112190D01*
X102108404Y-72588380D02*
X102108404Y-71588380D01*
X102489357Y-71588380D01*
X102584595Y-71636000D01*
X102632214Y-71683619D01*
X102679833Y-71778857D01*
X102679833Y-71921714D01*
X102632214Y-72016952D01*
X102584595Y-72064571D01*
X102489357Y-72112190D01*
X102108404Y-72112190D01*
X103156023Y-72588380D02*
X103346500Y-72588380D01*
X103441738Y-72540761D01*
X103489357Y-72493142D01*
X103584595Y-72350285D01*
X103632214Y-72159809D01*
X103632214Y-71778857D01*
X103584595Y-71683619D01*
X103536976Y-71636000D01*
X103441738Y-71588380D01*
X103251261Y-71588380D01*
X103156023Y-71636000D01*
X103108404Y-71683619D01*
X103060785Y-71778857D01*
X103060785Y-72016952D01*
X103108404Y-72112190D01*
X103156023Y-72159809D01*
X103251261Y-72207428D01*
X103441738Y-72207428D01*
X103536976Y-72159809D01*
X103584595Y-72112190D01*
X103632214Y-72016952D01*
%TO.C,R8*%
X102679833Y-74620380D02*
X102346500Y-74144190D01*
X102108404Y-74620380D02*
X102108404Y-73620380D01*
X102489357Y-73620380D01*
X102584595Y-73668000D01*
X102632214Y-73715619D01*
X102679833Y-73810857D01*
X102679833Y-73953714D01*
X102632214Y-74048952D01*
X102584595Y-74096571D01*
X102489357Y-74144190D01*
X102108404Y-74144190D01*
X103251261Y-74048952D02*
X103156023Y-74001333D01*
X103108404Y-73953714D01*
X103060785Y-73858476D01*
X103060785Y-73810857D01*
X103108404Y-73715619D01*
X103156023Y-73668000D01*
X103251261Y-73620380D01*
X103441738Y-73620380D01*
X103536976Y-73668000D01*
X103584595Y-73715619D01*
X103632214Y-73810857D01*
X103632214Y-73858476D01*
X103584595Y-73953714D01*
X103536976Y-74001333D01*
X103441738Y-74048952D01*
X103251261Y-74048952D01*
X103156023Y-74096571D01*
X103108404Y-74144190D01*
X103060785Y-74239428D01*
X103060785Y-74429904D01*
X103108404Y-74525142D01*
X103156023Y-74572761D01*
X103251261Y-74620380D01*
X103441738Y-74620380D01*
X103536976Y-74572761D01*
X103584595Y-74525142D01*
X103632214Y-74429904D01*
X103632214Y-74239428D01*
X103584595Y-74144190D01*
X103536976Y-74096571D01*
X103441738Y-74048952D01*
%TO.C,R7*%
X116673333Y-72588380D02*
X116340000Y-72112190D01*
X116101904Y-72588380D02*
X116101904Y-71588380D01*
X116482857Y-71588380D01*
X116578095Y-71636000D01*
X116625714Y-71683619D01*
X116673333Y-71778857D01*
X116673333Y-71921714D01*
X116625714Y-72016952D01*
X116578095Y-72064571D01*
X116482857Y-72112190D01*
X116101904Y-72112190D01*
X117006666Y-71588380D02*
X117673333Y-71588380D01*
X117244761Y-72588380D01*
%TO.C,R6*%
X116673333Y-74620380D02*
X116340000Y-74144190D01*
X116101904Y-74620380D02*
X116101904Y-73620380D01*
X116482857Y-73620380D01*
X116578095Y-73668000D01*
X116625714Y-73715619D01*
X116673333Y-73810857D01*
X116673333Y-73953714D01*
X116625714Y-74048952D01*
X116578095Y-74096571D01*
X116482857Y-74144190D01*
X116101904Y-74144190D01*
X117530476Y-73620380D02*
X117340000Y-73620380D01*
X117244761Y-73668000D01*
X117197142Y-73715619D01*
X117101904Y-73858476D01*
X117054285Y-74048952D01*
X117054285Y-74429904D01*
X117101904Y-74525142D01*
X117149523Y-74572761D01*
X117244761Y-74620380D01*
X117435238Y-74620380D01*
X117530476Y-74572761D01*
X117578095Y-74525142D01*
X117625714Y-74429904D01*
X117625714Y-74191809D01*
X117578095Y-74096571D01*
X117530476Y-74048952D01*
X117435238Y-74001333D01*
X117244761Y-74001333D01*
X117149523Y-74048952D01*
X117101904Y-74096571D01*
X117054285Y-74191809D01*
%TO.C,R5*%
X130643333Y-72588380D02*
X130310000Y-72112190D01*
X130071904Y-72588380D02*
X130071904Y-71588380D01*
X130452857Y-71588380D01*
X130548095Y-71636000D01*
X130595714Y-71683619D01*
X130643333Y-71778857D01*
X130643333Y-71921714D01*
X130595714Y-72016952D01*
X130548095Y-72064571D01*
X130452857Y-72112190D01*
X130071904Y-72112190D01*
X131548095Y-71588380D02*
X131071904Y-71588380D01*
X131024285Y-72064571D01*
X131071904Y-72016952D01*
X131167142Y-71969333D01*
X131405238Y-71969333D01*
X131500476Y-72016952D01*
X131548095Y-72064571D01*
X131595714Y-72159809D01*
X131595714Y-72397904D01*
X131548095Y-72493142D01*
X131500476Y-72540761D01*
X131405238Y-72588380D01*
X131167142Y-72588380D01*
X131071904Y-72540761D01*
X131024285Y-72493142D01*
%TO.C,R4*%
X130643333Y-74620380D02*
X130310000Y-74144190D01*
X130071904Y-74620380D02*
X130071904Y-73620380D01*
X130452857Y-73620380D01*
X130548095Y-73668000D01*
X130595714Y-73715619D01*
X130643333Y-73810857D01*
X130643333Y-73953714D01*
X130595714Y-74048952D01*
X130548095Y-74096571D01*
X130452857Y-74144190D01*
X130071904Y-74144190D01*
X131500476Y-73953714D02*
X131500476Y-74620380D01*
X131262380Y-73572761D02*
X131024285Y-74287047D01*
X131643333Y-74287047D01*
%TO.C,R3*%
X144613333Y-72588380D02*
X144280000Y-72112190D01*
X144041904Y-72588380D02*
X144041904Y-71588380D01*
X144422857Y-71588380D01*
X144518095Y-71636000D01*
X144565714Y-71683619D01*
X144613333Y-71778857D01*
X144613333Y-71921714D01*
X144565714Y-72016952D01*
X144518095Y-72064571D01*
X144422857Y-72112190D01*
X144041904Y-72112190D01*
X144946666Y-71588380D02*
X145565714Y-71588380D01*
X145232380Y-71969333D01*
X145375238Y-71969333D01*
X145470476Y-72016952D01*
X145518095Y-72064571D01*
X145565714Y-72159809D01*
X145565714Y-72397904D01*
X145518095Y-72493142D01*
X145470476Y-72540761D01*
X145375238Y-72588380D01*
X145089523Y-72588380D01*
X144994285Y-72540761D01*
X144946666Y-72493142D01*
%TO.C,R2*%
X144613333Y-74620380D02*
X144280000Y-74144190D01*
X144041904Y-74620380D02*
X144041904Y-73620380D01*
X144422857Y-73620380D01*
X144518095Y-73668000D01*
X144565714Y-73715619D01*
X144613333Y-73810857D01*
X144613333Y-73953714D01*
X144565714Y-74048952D01*
X144518095Y-74096571D01*
X144422857Y-74144190D01*
X144041904Y-74144190D01*
X144994285Y-73715619D02*
X145041904Y-73668000D01*
X145137142Y-73620380D01*
X145375238Y-73620380D01*
X145470476Y-73668000D01*
X145518095Y-73715619D01*
X145565714Y-73810857D01*
X145565714Y-73906095D01*
X145518095Y-74048952D01*
X144946666Y-74620380D01*
X145565714Y-74620380D01*
%TO.C,R1*%
X156424333Y-68016380D02*
X156091000Y-67540190D01*
X155852904Y-68016380D02*
X155852904Y-67016380D01*
X156233857Y-67016380D01*
X156329095Y-67064000D01*
X156376714Y-67111619D01*
X156424333Y-67206857D01*
X156424333Y-67349714D01*
X156376714Y-67444952D01*
X156329095Y-67492571D01*
X156233857Y-67540190D01*
X155852904Y-67540190D01*
X157376714Y-68016380D02*
X156805285Y-68016380D01*
X157091000Y-68016380D02*
X157091000Y-67016380D01*
X156995761Y-67159238D01*
X156900523Y-67254476D01*
X156805285Y-67302095D01*
%TO.C,C26*%
X83263142Y-91711142D02*
X83215523Y-91758761D01*
X83072666Y-91806380D01*
X82977428Y-91806380D01*
X82834571Y-91758761D01*
X82739333Y-91663523D01*
X82691714Y-91568285D01*
X82644095Y-91377809D01*
X82644095Y-91234952D01*
X82691714Y-91044476D01*
X82739333Y-90949238D01*
X82834571Y-90854000D01*
X82977428Y-90806380D01*
X83072666Y-90806380D01*
X83215523Y-90854000D01*
X83263142Y-90901619D01*
X83644095Y-90901619D02*
X83691714Y-90854000D01*
X83786952Y-90806380D01*
X84025047Y-90806380D01*
X84120285Y-90854000D01*
X84167904Y-90901619D01*
X84215523Y-90996857D01*
X84215523Y-91092095D01*
X84167904Y-91234952D01*
X83596476Y-91806380D01*
X84215523Y-91806380D01*
X85072666Y-90806380D02*
X84882190Y-90806380D01*
X84786952Y-90854000D01*
X84739333Y-90901619D01*
X84644095Y-91044476D01*
X84596476Y-91234952D01*
X84596476Y-91615904D01*
X84644095Y-91711142D01*
X84691714Y-91758761D01*
X84786952Y-91806380D01*
X84977428Y-91806380D01*
X85072666Y-91758761D01*
X85120285Y-91711142D01*
X85167904Y-91615904D01*
X85167904Y-91377809D01*
X85120285Y-91282571D01*
X85072666Y-91234952D01*
X84977428Y-91187333D01*
X84786952Y-91187333D01*
X84691714Y-91234952D01*
X84644095Y-91282571D01*
X84596476Y-91377809D01*
%TO.C,RN13*%
X101449333Y-79522580D02*
X101116000Y-79046390D01*
X100877904Y-79522580D02*
X100877904Y-78522580D01*
X101258857Y-78522580D01*
X101354095Y-78570200D01*
X101401714Y-78617819D01*
X101449333Y-78713057D01*
X101449333Y-78855914D01*
X101401714Y-78951152D01*
X101354095Y-78998771D01*
X101258857Y-79046390D01*
X100877904Y-79046390D01*
X101877904Y-79522580D02*
X101877904Y-78522580D01*
X102449333Y-79522580D01*
X102449333Y-78522580D01*
X103449333Y-79522580D02*
X102877904Y-79522580D01*
X103163619Y-79522580D02*
X103163619Y-78522580D01*
X103068380Y-78665438D01*
X102973142Y-78760676D01*
X102877904Y-78808295D01*
X103782666Y-78522580D02*
X104401714Y-78522580D01*
X104068380Y-78903533D01*
X104211238Y-78903533D01*
X104306476Y-78951152D01*
X104354095Y-78998771D01*
X104401714Y-79094009D01*
X104401714Y-79332104D01*
X104354095Y-79427342D01*
X104306476Y-79474961D01*
X104211238Y-79522580D01*
X103925523Y-79522580D01*
X103830285Y-79474961D01*
X103782666Y-79427342D01*
%TO.C,C21*%
X111294942Y-77192142D02*
X111247323Y-77239761D01*
X111104466Y-77287380D01*
X111009228Y-77287380D01*
X110866371Y-77239761D01*
X110771133Y-77144523D01*
X110723514Y-77049285D01*
X110675895Y-76858809D01*
X110675895Y-76715952D01*
X110723514Y-76525476D01*
X110771133Y-76430238D01*
X110866371Y-76335000D01*
X111009228Y-76287380D01*
X111104466Y-76287380D01*
X111247323Y-76335000D01*
X111294942Y-76382619D01*
X111675895Y-76382619D02*
X111723514Y-76335000D01*
X111818752Y-76287380D01*
X112056847Y-76287380D01*
X112152085Y-76335000D01*
X112199704Y-76382619D01*
X112247323Y-76477857D01*
X112247323Y-76573095D01*
X112199704Y-76715952D01*
X111628276Y-77287380D01*
X112247323Y-77287380D01*
X113199704Y-77287380D02*
X112628276Y-77287380D01*
X112913990Y-77287380D02*
X112913990Y-76287380D01*
X112818752Y-76430238D01*
X112723514Y-76525476D01*
X112628276Y-76573095D01*
%TO.C,C1*%
X188555333Y-77954142D02*
X188507714Y-78001761D01*
X188364857Y-78049380D01*
X188269619Y-78049380D01*
X188126761Y-78001761D01*
X188031523Y-77906523D01*
X187983904Y-77811285D01*
X187936285Y-77620809D01*
X187936285Y-77477952D01*
X187983904Y-77287476D01*
X188031523Y-77192238D01*
X188126761Y-77097000D01*
X188269619Y-77049380D01*
X188364857Y-77049380D01*
X188507714Y-77097000D01*
X188555333Y-77144619D01*
X189507714Y-78049380D02*
X188936285Y-78049380D01*
X189222000Y-78049380D02*
X189222000Y-77049380D01*
X189126761Y-77192238D01*
X189031523Y-77287476D01*
X188936285Y-77335095D01*
%TO.C,U1*%
X192872095Y-81006380D02*
X192872095Y-81815904D01*
X192919714Y-81911142D01*
X192967333Y-81958761D01*
X193062571Y-82006380D01*
X193253047Y-82006380D01*
X193348285Y-81958761D01*
X193395904Y-81911142D01*
X193443523Y-81815904D01*
X193443523Y-81006380D01*
X194443523Y-82006380D02*
X193872095Y-82006380D01*
X194157809Y-82006380D02*
X194157809Y-81006380D01*
X194062571Y-81149238D01*
X193967333Y-81244476D01*
X193872095Y-81292095D01*
%TO.C,JP6*%
X151797166Y-70804380D02*
X151797166Y-71518666D01*
X151749547Y-71661523D01*
X151654309Y-71756761D01*
X151511452Y-71804380D01*
X151416214Y-71804380D01*
X152273357Y-71804380D02*
X152273357Y-70804380D01*
X152654309Y-70804380D01*
X152749547Y-70852000D01*
X152797166Y-70899619D01*
X152844785Y-70994857D01*
X152844785Y-71137714D01*
X152797166Y-71232952D01*
X152749547Y-71280571D01*
X152654309Y-71328190D01*
X152273357Y-71328190D01*
X153701928Y-70804380D02*
X153511452Y-70804380D01*
X153416214Y-70852000D01*
X153368595Y-70899619D01*
X153273357Y-71042476D01*
X153225738Y-71232952D01*
X153225738Y-71613904D01*
X153273357Y-71709142D01*
X153320976Y-71756761D01*
X153416214Y-71804380D01*
X153606690Y-71804380D01*
X153701928Y-71756761D01*
X153749547Y-71709142D01*
X153797166Y-71613904D01*
X153797166Y-71375809D01*
X153749547Y-71280571D01*
X153701928Y-71232952D01*
X153606690Y-71185333D01*
X153416214Y-71185333D01*
X153320976Y-71232952D01*
X153273357Y-71280571D01*
X153225738Y-71375809D01*
%TO.C,C25*%
X75811142Y-77954142D02*
X75763523Y-78001761D01*
X75620666Y-78049380D01*
X75525428Y-78049380D01*
X75382571Y-78001761D01*
X75287333Y-77906523D01*
X75239714Y-77811285D01*
X75192095Y-77620809D01*
X75192095Y-77477952D01*
X75239714Y-77287476D01*
X75287333Y-77192238D01*
X75382571Y-77097000D01*
X75525428Y-77049380D01*
X75620666Y-77049380D01*
X75763523Y-77097000D01*
X75811142Y-77144619D01*
X76192095Y-77144619D02*
X76239714Y-77097000D01*
X76334952Y-77049380D01*
X76573047Y-77049380D01*
X76668285Y-77097000D01*
X76715904Y-77144619D01*
X76763523Y-77239857D01*
X76763523Y-77335095D01*
X76715904Y-77477952D01*
X76144476Y-78049380D01*
X76763523Y-78049380D01*
X77668285Y-77049380D02*
X77192095Y-77049380D01*
X77144476Y-77525571D01*
X77192095Y-77477952D01*
X77287333Y-77430333D01*
X77525428Y-77430333D01*
X77620666Y-77477952D01*
X77668285Y-77525571D01*
X77715904Y-77620809D01*
X77715904Y-77858904D01*
X77668285Y-77954142D01*
X77620666Y-78001761D01*
X77525428Y-78049380D01*
X77287333Y-78049380D01*
X77192095Y-78001761D01*
X77144476Y-77954142D01*
%TO.C,U9*%
X136992095Y-81006380D02*
X136992095Y-81815904D01*
X137039714Y-81911142D01*
X137087333Y-81958761D01*
X137182571Y-82006380D01*
X137373047Y-82006380D01*
X137468285Y-81958761D01*
X137515904Y-81911142D01*
X137563523Y-81815904D01*
X137563523Y-81006380D01*
X138087333Y-82006380D02*
X138277809Y-82006380D01*
X138373047Y-81958761D01*
X138420666Y-81911142D01*
X138515904Y-81768285D01*
X138563523Y-81577809D01*
X138563523Y-81196857D01*
X138515904Y-81101619D01*
X138468285Y-81054000D01*
X138373047Y-81006380D01*
X138182571Y-81006380D01*
X138087333Y-81054000D01*
X138039714Y-81101619D01*
X137992095Y-81196857D01*
X137992095Y-81434952D01*
X138039714Y-81530190D01*
X138087333Y-81577809D01*
X138182571Y-81625428D01*
X138373047Y-81625428D01*
X138468285Y-81577809D01*
X138515904Y-81530190D01*
X138563523Y-81434952D01*
%TO.C,RN10*%
X129338533Y-90139780D02*
X129005200Y-89663590D01*
X128767104Y-90139780D02*
X128767104Y-89139780D01*
X129148057Y-89139780D01*
X129243295Y-89187400D01*
X129290914Y-89235019D01*
X129338533Y-89330257D01*
X129338533Y-89473114D01*
X129290914Y-89568352D01*
X129243295Y-89615971D01*
X129148057Y-89663590D01*
X128767104Y-89663590D01*
X129767104Y-90139780D02*
X129767104Y-89139780D01*
X130338533Y-90139780D01*
X130338533Y-89139780D01*
X131338533Y-90139780D02*
X130767104Y-90139780D01*
X131052819Y-90139780D02*
X131052819Y-89139780D01*
X130957580Y-89282638D01*
X130862342Y-89377876D01*
X130767104Y-89425495D01*
X131957580Y-89139780D02*
X132052819Y-89139780D01*
X132148057Y-89187400D01*
X132195676Y-89235019D01*
X132243295Y-89330257D01*
X132290914Y-89520733D01*
X132290914Y-89758828D01*
X132243295Y-89949304D01*
X132195676Y-90044542D01*
X132148057Y-90092161D01*
X132052819Y-90139780D01*
X131957580Y-90139780D01*
X131862342Y-90092161D01*
X131814723Y-90044542D01*
X131767104Y-89949304D01*
X131719485Y-89758828D01*
X131719485Y-89520733D01*
X131767104Y-89330257D01*
X131814723Y-89235019D01*
X131862342Y-89187400D01*
X131957580Y-89139780D01*
%TO.C,U18*%
X77628904Y-92395380D02*
X77628904Y-93204904D01*
X77676523Y-93300142D01*
X77724142Y-93347761D01*
X77819380Y-93395380D01*
X78009857Y-93395380D01*
X78105095Y-93347761D01*
X78152714Y-93300142D01*
X78200333Y-93204904D01*
X78200333Y-92395380D01*
X79200333Y-93395380D02*
X78628904Y-93395380D01*
X78914619Y-93395380D02*
X78914619Y-92395380D01*
X78819380Y-92538238D01*
X78724142Y-92633476D01*
X78628904Y-92681095D01*
X79771761Y-92823952D02*
X79676523Y-92776333D01*
X79628904Y-92728714D01*
X79581285Y-92633476D01*
X79581285Y-92585857D01*
X79628904Y-92490619D01*
X79676523Y-92443000D01*
X79771761Y-92395380D01*
X79962238Y-92395380D01*
X80057476Y-92443000D01*
X80105095Y-92490619D01*
X80152714Y-92585857D01*
X80152714Y-92633476D01*
X80105095Y-92728714D01*
X80057476Y-92776333D01*
X79962238Y-92823952D01*
X79771761Y-92823952D01*
X79676523Y-92871571D01*
X79628904Y-92919190D01*
X79581285Y-93014428D01*
X79581285Y-93204904D01*
X79628904Y-93300142D01*
X79676523Y-93347761D01*
X79771761Y-93395380D01*
X79962238Y-93395380D01*
X80057476Y-93347761D01*
X80105095Y-93300142D01*
X80152714Y-93204904D01*
X80152714Y-93014428D01*
X80105095Y-92919190D01*
X80057476Y-92871571D01*
X79962238Y-92823952D01*
%TO.C,C8*%
X167559333Y-91711142D02*
X167511714Y-91758761D01*
X167368857Y-91806380D01*
X167273619Y-91806380D01*
X167130761Y-91758761D01*
X167035523Y-91663523D01*
X166987904Y-91568285D01*
X166940285Y-91377809D01*
X166940285Y-91234952D01*
X166987904Y-91044476D01*
X167035523Y-90949238D01*
X167130761Y-90854000D01*
X167273619Y-90806380D01*
X167368857Y-90806380D01*
X167511714Y-90854000D01*
X167559333Y-90901619D01*
X168130761Y-91234952D02*
X168035523Y-91187333D01*
X167987904Y-91139714D01*
X167940285Y-91044476D01*
X167940285Y-90996857D01*
X167987904Y-90901619D01*
X168035523Y-90854000D01*
X168130761Y-90806380D01*
X168321238Y-90806380D01*
X168416476Y-90854000D01*
X168464095Y-90901619D01*
X168511714Y-90996857D01*
X168511714Y-91044476D01*
X168464095Y-91139714D01*
X168416476Y-91187333D01*
X168321238Y-91234952D01*
X168130761Y-91234952D01*
X168035523Y-91282571D01*
X167987904Y-91330190D01*
X167940285Y-91425428D01*
X167940285Y-91615904D01*
X167987904Y-91711142D01*
X168035523Y-91758761D01*
X168130761Y-91806380D01*
X168321238Y-91806380D01*
X168416476Y-91758761D01*
X168464095Y-91711142D01*
X168511714Y-91615904D01*
X168511714Y-91425428D01*
X168464095Y-91330190D01*
X168416476Y-91282571D01*
X168321238Y-91234952D01*
%TO.C,C2*%
X195499333Y-91711142D02*
X195451714Y-91758761D01*
X195308857Y-91806380D01*
X195213619Y-91806380D01*
X195070761Y-91758761D01*
X194975523Y-91663523D01*
X194927904Y-91568285D01*
X194880285Y-91377809D01*
X194880285Y-91234952D01*
X194927904Y-91044476D01*
X194975523Y-90949238D01*
X195070761Y-90854000D01*
X195213619Y-90806380D01*
X195308857Y-90806380D01*
X195451714Y-90854000D01*
X195499333Y-90901619D01*
X195880285Y-90901619D02*
X195927904Y-90854000D01*
X196023142Y-90806380D01*
X196261238Y-90806380D01*
X196356476Y-90854000D01*
X196404095Y-90901619D01*
X196451714Y-90996857D01*
X196451714Y-91092095D01*
X196404095Y-91234952D01*
X195832666Y-91806380D01*
X196451714Y-91806380D01*
%TO.C,RN7*%
X143835523Y-79522580D02*
X143502190Y-79046390D01*
X143264095Y-79522580D02*
X143264095Y-78522580D01*
X143645047Y-78522580D01*
X143740285Y-78570200D01*
X143787904Y-78617819D01*
X143835523Y-78713057D01*
X143835523Y-78855914D01*
X143787904Y-78951152D01*
X143740285Y-78998771D01*
X143645047Y-79046390D01*
X143264095Y-79046390D01*
X144264095Y-79522580D02*
X144264095Y-78522580D01*
X144835523Y-79522580D01*
X144835523Y-78522580D01*
X145216476Y-78522580D02*
X145883142Y-78522580D01*
X145454571Y-79522580D01*
%TO.C,C14*%
X139143142Y-91711142D02*
X139095523Y-91758761D01*
X138952666Y-91806380D01*
X138857428Y-91806380D01*
X138714571Y-91758761D01*
X138619333Y-91663523D01*
X138571714Y-91568285D01*
X138524095Y-91377809D01*
X138524095Y-91234952D01*
X138571714Y-91044476D01*
X138619333Y-90949238D01*
X138714571Y-90854000D01*
X138857428Y-90806380D01*
X138952666Y-90806380D01*
X139095523Y-90854000D01*
X139143142Y-90901619D01*
X140095523Y-91806380D02*
X139524095Y-91806380D01*
X139809809Y-91806380D02*
X139809809Y-90806380D01*
X139714571Y-90949238D01*
X139619333Y-91044476D01*
X139524095Y-91092095D01*
X140952666Y-91139714D02*
X140952666Y-91806380D01*
X140714571Y-90758761D02*
X140476476Y-91473047D01*
X141095523Y-91473047D01*
%TO.C,C15*%
X139234942Y-77192142D02*
X139187323Y-77239761D01*
X139044466Y-77287380D01*
X138949228Y-77287380D01*
X138806371Y-77239761D01*
X138711133Y-77144523D01*
X138663514Y-77049285D01*
X138615895Y-76858809D01*
X138615895Y-76715952D01*
X138663514Y-76525476D01*
X138711133Y-76430238D01*
X138806371Y-76335000D01*
X138949228Y-76287380D01*
X139044466Y-76287380D01*
X139187323Y-76335000D01*
X139234942Y-76382619D01*
X140187323Y-77287380D02*
X139615895Y-77287380D01*
X139901609Y-77287380D02*
X139901609Y-76287380D01*
X139806371Y-76430238D01*
X139711133Y-76525476D01*
X139615895Y-76573095D01*
X141092085Y-76287380D02*
X140615895Y-76287380D01*
X140568276Y-76763571D01*
X140615895Y-76715952D01*
X140711133Y-76668333D01*
X140949228Y-76668333D01*
X141044466Y-76715952D01*
X141092085Y-76763571D01*
X141139704Y-76858809D01*
X141139704Y-77096904D01*
X141092085Y-77192142D01*
X141044466Y-77239761D01*
X140949228Y-77287380D01*
X140711133Y-77287380D01*
X140615895Y-77239761D01*
X140568276Y-77192142D01*
%TO.C,U14*%
X105568904Y-92395380D02*
X105568904Y-93204904D01*
X105616523Y-93300142D01*
X105664142Y-93347761D01*
X105759380Y-93395380D01*
X105949857Y-93395380D01*
X106045095Y-93347761D01*
X106092714Y-93300142D01*
X106140333Y-93204904D01*
X106140333Y-92395380D01*
X107140333Y-93395380D02*
X106568904Y-93395380D01*
X106854619Y-93395380D02*
X106854619Y-92395380D01*
X106759380Y-92538238D01*
X106664142Y-92633476D01*
X106568904Y-92681095D01*
X107997476Y-92728714D02*
X107997476Y-93395380D01*
X107759380Y-92347761D02*
X107521285Y-93062047D01*
X108140333Y-93062047D01*
%TO.C,U7*%
X150962095Y-81006380D02*
X150962095Y-81815904D01*
X151009714Y-81911142D01*
X151057333Y-81958761D01*
X151152571Y-82006380D01*
X151343047Y-82006380D01*
X151438285Y-81958761D01*
X151485904Y-81911142D01*
X151533523Y-81815904D01*
X151533523Y-81006380D01*
X151914476Y-81006380D02*
X152581142Y-81006380D01*
X152152571Y-82006380D01*
%TO.C,RN16*%
X87428533Y-90139780D02*
X87095200Y-89663590D01*
X86857104Y-90139780D02*
X86857104Y-89139780D01*
X87238057Y-89139780D01*
X87333295Y-89187400D01*
X87380914Y-89235019D01*
X87428533Y-89330257D01*
X87428533Y-89473114D01*
X87380914Y-89568352D01*
X87333295Y-89615971D01*
X87238057Y-89663590D01*
X86857104Y-89663590D01*
X87857104Y-90139780D02*
X87857104Y-89139780D01*
X88428533Y-90139780D01*
X88428533Y-89139780D01*
X89428533Y-90139780D02*
X88857104Y-90139780D01*
X89142819Y-90139780D02*
X89142819Y-89139780D01*
X89047580Y-89282638D01*
X88952342Y-89377876D01*
X88857104Y-89425495D01*
X90285676Y-89139780D02*
X90095200Y-89139780D01*
X89999961Y-89187400D01*
X89952342Y-89235019D01*
X89857104Y-89377876D01*
X89809485Y-89568352D01*
X89809485Y-89949304D01*
X89857104Y-90044542D01*
X89904723Y-90092161D01*
X89999961Y-90139780D01*
X90190438Y-90139780D01*
X90285676Y-90092161D01*
X90333295Y-90044542D01*
X90380914Y-89949304D01*
X90380914Y-89711209D01*
X90333295Y-89615971D01*
X90285676Y-89568352D01*
X90190438Y-89520733D01*
X89999961Y-89520733D01*
X89904723Y-89568352D01*
X89857104Y-89615971D01*
X89809485Y-89711209D01*
%TO.C,JP12*%
X145045276Y-116190780D02*
X145045276Y-116905066D01*
X144997657Y-117047923D01*
X144902419Y-117143161D01*
X144759561Y-117190780D01*
X144664323Y-117190780D01*
X145521466Y-117190780D02*
X145521466Y-116190780D01*
X145902419Y-116190780D01*
X145997657Y-116238400D01*
X146045276Y-116286019D01*
X146092895Y-116381257D01*
X146092895Y-116524114D01*
X146045276Y-116619352D01*
X145997657Y-116666971D01*
X145902419Y-116714590D01*
X145521466Y-116714590D01*
X147045276Y-117190780D02*
X146473847Y-117190780D01*
X146759561Y-117190780D02*
X146759561Y-116190780D01*
X146664323Y-116333638D01*
X146569085Y-116428876D01*
X146473847Y-116476495D01*
X147426228Y-116286019D02*
X147473847Y-116238400D01*
X147569085Y-116190780D01*
X147807180Y-116190780D01*
X147902419Y-116238400D01*
X147950038Y-116286019D01*
X147997657Y-116381257D01*
X147997657Y-116476495D01*
X147950038Y-116619352D01*
X147378609Y-117190780D01*
X147997657Y-117190780D01*
%TO.C,U16*%
X91598904Y-92395380D02*
X91598904Y-93204904D01*
X91646523Y-93300142D01*
X91694142Y-93347761D01*
X91789380Y-93395380D01*
X91979857Y-93395380D01*
X92075095Y-93347761D01*
X92122714Y-93300142D01*
X92170333Y-93204904D01*
X92170333Y-92395380D01*
X93170333Y-93395380D02*
X92598904Y-93395380D01*
X92884619Y-93395380D02*
X92884619Y-92395380D01*
X92789380Y-92538238D01*
X92694142Y-92633476D01*
X92598904Y-92681095D01*
X94027476Y-92395380D02*
X93837000Y-92395380D01*
X93741761Y-92443000D01*
X93694142Y-92490619D01*
X93598904Y-92633476D01*
X93551285Y-92823952D01*
X93551285Y-93204904D01*
X93598904Y-93300142D01*
X93646523Y-93347761D01*
X93741761Y-93395380D01*
X93932238Y-93395380D01*
X94027476Y-93347761D01*
X94075095Y-93300142D01*
X94122714Y-93204904D01*
X94122714Y-92966809D01*
X94075095Y-92871571D01*
X94027476Y-92823952D01*
X93932238Y-92776333D01*
X93741761Y-92776333D01*
X93646523Y-92823952D01*
X93598904Y-92871571D01*
X93551285Y-92966809D01*
%TO.C,U8*%
X147955095Y-92395380D02*
X147955095Y-93204904D01*
X148002714Y-93300142D01*
X148050333Y-93347761D01*
X148145571Y-93395380D01*
X148336047Y-93395380D01*
X148431285Y-93347761D01*
X148478904Y-93300142D01*
X148526523Y-93204904D01*
X148526523Y-92395380D01*
X149145571Y-92823952D02*
X149050333Y-92776333D01*
X149002714Y-92728714D01*
X148955095Y-92633476D01*
X148955095Y-92585857D01*
X149002714Y-92490619D01*
X149050333Y-92443000D01*
X149145571Y-92395380D01*
X149336047Y-92395380D01*
X149431285Y-92443000D01*
X149478904Y-92490619D01*
X149526523Y-92585857D01*
X149526523Y-92633476D01*
X149478904Y-92728714D01*
X149431285Y-92776333D01*
X149336047Y-92823952D01*
X149145571Y-92823952D01*
X149050333Y-92871571D01*
X149002714Y-92919190D01*
X148955095Y-93014428D01*
X148955095Y-93204904D01*
X149002714Y-93300142D01*
X149050333Y-93347761D01*
X149145571Y-93395380D01*
X149336047Y-93395380D01*
X149431285Y-93347761D01*
X149478904Y-93300142D01*
X149526523Y-93204904D01*
X149526523Y-93014428D01*
X149478904Y-92919190D01*
X149431285Y-92871571D01*
X149336047Y-92823952D01*
%TO.C,U4*%
X175895095Y-92395380D02*
X175895095Y-93204904D01*
X175942714Y-93300142D01*
X175990333Y-93347761D01*
X176085571Y-93395380D01*
X176276047Y-93395380D01*
X176371285Y-93347761D01*
X176418904Y-93300142D01*
X176466523Y-93204904D01*
X176466523Y-92395380D01*
X177371285Y-92728714D02*
X177371285Y-93395380D01*
X177133190Y-92347761D02*
X176895095Y-93062047D01*
X177514142Y-93062047D01*
%TO.C,C17*%
X125173142Y-91711142D02*
X125125523Y-91758761D01*
X124982666Y-91806380D01*
X124887428Y-91806380D01*
X124744571Y-91758761D01*
X124649333Y-91663523D01*
X124601714Y-91568285D01*
X124554095Y-91377809D01*
X124554095Y-91234952D01*
X124601714Y-91044476D01*
X124649333Y-90949238D01*
X124744571Y-90854000D01*
X124887428Y-90806380D01*
X124982666Y-90806380D01*
X125125523Y-90854000D01*
X125173142Y-90901619D01*
X126125523Y-91806380D02*
X125554095Y-91806380D01*
X125839809Y-91806380D02*
X125839809Y-90806380D01*
X125744571Y-90949238D01*
X125649333Y-91044476D01*
X125554095Y-91092095D01*
X126458857Y-90806380D02*
X127125523Y-90806380D01*
X126696952Y-91806380D01*
%TO.C,RN14*%
X101398533Y-90139780D02*
X101065200Y-89663590D01*
X100827104Y-90139780D02*
X100827104Y-89139780D01*
X101208057Y-89139780D01*
X101303295Y-89187400D01*
X101350914Y-89235019D01*
X101398533Y-89330257D01*
X101398533Y-89473114D01*
X101350914Y-89568352D01*
X101303295Y-89615971D01*
X101208057Y-89663590D01*
X100827104Y-89663590D01*
X101827104Y-90139780D02*
X101827104Y-89139780D01*
X102398533Y-90139780D01*
X102398533Y-89139780D01*
X103398533Y-90139780D02*
X102827104Y-90139780D01*
X103112819Y-90139780D02*
X103112819Y-89139780D01*
X103017580Y-89282638D01*
X102922342Y-89377876D01*
X102827104Y-89425495D01*
X104255676Y-89473114D02*
X104255676Y-90139780D01*
X104017580Y-89092161D02*
X103779485Y-89806447D01*
X104398533Y-89806447D01*
%TO.C,J2*%
X192630466Y-113345980D02*
X192630466Y-114060266D01*
X192582847Y-114203123D01*
X192487609Y-114298361D01*
X192344752Y-114345980D01*
X192249514Y-114345980D01*
X193059038Y-113441219D02*
X193106657Y-113393600D01*
X193201895Y-113345980D01*
X193439990Y-113345980D01*
X193535228Y-113393600D01*
X193582847Y-113441219D01*
X193630466Y-113536457D01*
X193630466Y-113631695D01*
X193582847Y-113774552D01*
X193011419Y-114345980D01*
X193630466Y-114345980D01*
%TO.C,C13*%
X131691142Y-77954142D02*
X131643523Y-78001761D01*
X131500666Y-78049380D01*
X131405428Y-78049380D01*
X131262571Y-78001761D01*
X131167333Y-77906523D01*
X131119714Y-77811285D01*
X131072095Y-77620809D01*
X131072095Y-77477952D01*
X131119714Y-77287476D01*
X131167333Y-77192238D01*
X131262571Y-77097000D01*
X131405428Y-77049380D01*
X131500666Y-77049380D01*
X131643523Y-77097000D01*
X131691142Y-77144619D01*
X132643523Y-78049380D02*
X132072095Y-78049380D01*
X132357809Y-78049380D02*
X132357809Y-77049380D01*
X132262571Y-77192238D01*
X132167333Y-77287476D01*
X132072095Y-77335095D01*
X132976857Y-77049380D02*
X133595904Y-77049380D01*
X133262571Y-77430333D01*
X133405428Y-77430333D01*
X133500666Y-77477952D01*
X133548285Y-77525571D01*
X133595904Y-77620809D01*
X133595904Y-77858904D01*
X133548285Y-77954142D01*
X133500666Y-78001761D01*
X133405428Y-78049380D01*
X133119714Y-78049380D01*
X133024476Y-78001761D01*
X132976857Y-77954142D01*
%TO.C,C3*%
X195591133Y-77192142D02*
X195543514Y-77239761D01*
X195400657Y-77287380D01*
X195305419Y-77287380D01*
X195162561Y-77239761D01*
X195067323Y-77144523D01*
X195019704Y-77049285D01*
X194972085Y-76858809D01*
X194972085Y-76715952D01*
X195019704Y-76525476D01*
X195067323Y-76430238D01*
X195162561Y-76335000D01*
X195305419Y-76287380D01*
X195400657Y-76287380D01*
X195543514Y-76335000D01*
X195591133Y-76382619D01*
X195924466Y-76287380D02*
X196543514Y-76287380D01*
X196210180Y-76668333D01*
X196353038Y-76668333D01*
X196448276Y-76715952D01*
X196495895Y-76763571D01*
X196543514Y-76858809D01*
X196543514Y-77096904D01*
X196495895Y-77192142D01*
X196448276Y-77239761D01*
X196353038Y-77287380D01*
X196067323Y-77287380D01*
X195972085Y-77239761D01*
X195924466Y-77192142D01*
%TO.C,C27*%
X83354942Y-77192142D02*
X83307323Y-77239761D01*
X83164466Y-77287380D01*
X83069228Y-77287380D01*
X82926371Y-77239761D01*
X82831133Y-77144523D01*
X82783514Y-77049285D01*
X82735895Y-76858809D01*
X82735895Y-76715952D01*
X82783514Y-76525476D01*
X82831133Y-76430238D01*
X82926371Y-76335000D01*
X83069228Y-76287380D01*
X83164466Y-76287380D01*
X83307323Y-76335000D01*
X83354942Y-76382619D01*
X83735895Y-76382619D02*
X83783514Y-76335000D01*
X83878752Y-76287380D01*
X84116847Y-76287380D01*
X84212085Y-76335000D01*
X84259704Y-76382619D01*
X84307323Y-76477857D01*
X84307323Y-76573095D01*
X84259704Y-76715952D01*
X83688276Y-77287380D01*
X84307323Y-77287380D01*
X84640657Y-76287380D02*
X85307323Y-76287380D01*
X84878752Y-77287380D01*
%TO.C,C19*%
X103751142Y-77954142D02*
X103703523Y-78001761D01*
X103560666Y-78049380D01*
X103465428Y-78049380D01*
X103322571Y-78001761D01*
X103227333Y-77906523D01*
X103179714Y-77811285D01*
X103132095Y-77620809D01*
X103132095Y-77477952D01*
X103179714Y-77287476D01*
X103227333Y-77192238D01*
X103322571Y-77097000D01*
X103465428Y-77049380D01*
X103560666Y-77049380D01*
X103703523Y-77097000D01*
X103751142Y-77144619D01*
X104703523Y-78049380D02*
X104132095Y-78049380D01*
X104417809Y-78049380D02*
X104417809Y-77049380D01*
X104322571Y-77192238D01*
X104227333Y-77287476D01*
X104132095Y-77335095D01*
X105179714Y-78049380D02*
X105370190Y-78049380D01*
X105465428Y-78001761D01*
X105513047Y-77954142D01*
X105608285Y-77811285D01*
X105655904Y-77620809D01*
X105655904Y-77239857D01*
X105608285Y-77144619D01*
X105560666Y-77097000D01*
X105465428Y-77049380D01*
X105274952Y-77049380D01*
X105179714Y-77097000D01*
X105132095Y-77144619D01*
X105084476Y-77239857D01*
X105084476Y-77477952D01*
X105132095Y-77573190D01*
X105179714Y-77620809D01*
X105274952Y-77668428D01*
X105465428Y-77668428D01*
X105560666Y-77620809D01*
X105608285Y-77573190D01*
X105655904Y-77477952D01*
%TO.C,RN4*%
X171724723Y-90139780D02*
X171391390Y-89663590D01*
X171153295Y-90139780D02*
X171153295Y-89139780D01*
X171534247Y-89139780D01*
X171629485Y-89187400D01*
X171677104Y-89235019D01*
X171724723Y-89330257D01*
X171724723Y-89473114D01*
X171677104Y-89568352D01*
X171629485Y-89615971D01*
X171534247Y-89663590D01*
X171153295Y-89663590D01*
X172153295Y-90139780D02*
X172153295Y-89139780D01*
X172724723Y-90139780D01*
X172724723Y-89139780D01*
X173629485Y-89473114D02*
X173629485Y-90139780D01*
X173391390Y-89092161D02*
X173153295Y-89806447D01*
X173772342Y-89806447D01*
%TO.C,U2*%
X189865095Y-92395380D02*
X189865095Y-93204904D01*
X189912714Y-93300142D01*
X189960333Y-93347761D01*
X190055571Y-93395380D01*
X190246047Y-93395380D01*
X190341285Y-93347761D01*
X190388904Y-93300142D01*
X190436523Y-93204904D01*
X190436523Y-92395380D01*
X190865095Y-92490619D02*
X190912714Y-92443000D01*
X191007952Y-92395380D01*
X191246047Y-92395380D01*
X191341285Y-92443000D01*
X191388904Y-92490619D01*
X191436523Y-92585857D01*
X191436523Y-92681095D01*
X191388904Y-92823952D01*
X190817476Y-93395380D01*
X191436523Y-93395380D01*
%TO.C,RN11*%
X115419333Y-79522580D02*
X115086000Y-79046390D01*
X114847904Y-79522580D02*
X114847904Y-78522580D01*
X115228857Y-78522580D01*
X115324095Y-78570200D01*
X115371714Y-78617819D01*
X115419333Y-78713057D01*
X115419333Y-78855914D01*
X115371714Y-78951152D01*
X115324095Y-78998771D01*
X115228857Y-79046390D01*
X114847904Y-79046390D01*
X115847904Y-79522580D02*
X115847904Y-78522580D01*
X116419333Y-79522580D01*
X116419333Y-78522580D01*
X117419333Y-79522580D02*
X116847904Y-79522580D01*
X117133619Y-79522580D02*
X117133619Y-78522580D01*
X117038380Y-78665438D01*
X116943142Y-78760676D01*
X116847904Y-78808295D01*
X118371714Y-79522580D02*
X117800285Y-79522580D01*
X118086000Y-79522580D02*
X118086000Y-78522580D01*
X117990761Y-78665438D01*
X117895523Y-78760676D01*
X117800285Y-78808295D01*
%TO.C,RN17*%
X73509333Y-79522580D02*
X73176000Y-79046390D01*
X72937904Y-79522580D02*
X72937904Y-78522580D01*
X73318857Y-78522580D01*
X73414095Y-78570200D01*
X73461714Y-78617819D01*
X73509333Y-78713057D01*
X73509333Y-78855914D01*
X73461714Y-78951152D01*
X73414095Y-78998771D01*
X73318857Y-79046390D01*
X72937904Y-79046390D01*
X73937904Y-79522580D02*
X73937904Y-78522580D01*
X74509333Y-79522580D01*
X74509333Y-78522580D01*
X75509333Y-79522580D02*
X74937904Y-79522580D01*
X75223619Y-79522580D02*
X75223619Y-78522580D01*
X75128380Y-78665438D01*
X75033142Y-78760676D01*
X74937904Y-78808295D01*
X75842666Y-78522580D02*
X76509333Y-78522580D01*
X76080761Y-79522580D01*
%TO.C,C12*%
X153204942Y-77192142D02*
X153157323Y-77239761D01*
X153014466Y-77287380D01*
X152919228Y-77287380D01*
X152776371Y-77239761D01*
X152681133Y-77144523D01*
X152633514Y-77049285D01*
X152585895Y-76858809D01*
X152585895Y-76715952D01*
X152633514Y-76525476D01*
X152681133Y-76430238D01*
X152776371Y-76335000D01*
X152919228Y-76287380D01*
X153014466Y-76287380D01*
X153157323Y-76335000D01*
X153204942Y-76382619D01*
X154157323Y-77287380D02*
X153585895Y-77287380D01*
X153871609Y-77287380D02*
X153871609Y-76287380D01*
X153776371Y-76430238D01*
X153681133Y-76525476D01*
X153585895Y-76573095D01*
X154538276Y-76382619D02*
X154585895Y-76335000D01*
X154681133Y-76287380D01*
X154919228Y-76287380D01*
X155014466Y-76335000D01*
X155062085Y-76382619D01*
X155109704Y-76477857D01*
X155109704Y-76573095D01*
X155062085Y-76715952D01*
X154490657Y-77287380D01*
X155109704Y-77287380D01*
%TO.C,RN2*%
X185694723Y-90139780D02*
X185361390Y-89663590D01*
X185123295Y-90139780D02*
X185123295Y-89139780D01*
X185504247Y-89139780D01*
X185599485Y-89187400D01*
X185647104Y-89235019D01*
X185694723Y-89330257D01*
X185694723Y-89473114D01*
X185647104Y-89568352D01*
X185599485Y-89615971D01*
X185504247Y-89663590D01*
X185123295Y-89663590D01*
X186123295Y-90139780D02*
X186123295Y-89139780D01*
X186694723Y-90139780D01*
X186694723Y-89139780D01*
X187123295Y-89235019D02*
X187170914Y-89187400D01*
X187266152Y-89139780D01*
X187504247Y-89139780D01*
X187599485Y-89187400D01*
X187647104Y-89235019D01*
X187694723Y-89330257D01*
X187694723Y-89425495D01*
X187647104Y-89568352D01*
X187075676Y-90139780D01*
X187694723Y-90139780D01*
%TO.C,C20*%
X111203142Y-91711142D02*
X111155523Y-91758761D01*
X111012666Y-91806380D01*
X110917428Y-91806380D01*
X110774571Y-91758761D01*
X110679333Y-91663523D01*
X110631714Y-91568285D01*
X110584095Y-91377809D01*
X110584095Y-91234952D01*
X110631714Y-91044476D01*
X110679333Y-90949238D01*
X110774571Y-90854000D01*
X110917428Y-90806380D01*
X111012666Y-90806380D01*
X111155523Y-90854000D01*
X111203142Y-90901619D01*
X111584095Y-90901619D02*
X111631714Y-90854000D01*
X111726952Y-90806380D01*
X111965047Y-90806380D01*
X112060285Y-90854000D01*
X112107904Y-90901619D01*
X112155523Y-90996857D01*
X112155523Y-91092095D01*
X112107904Y-91234952D01*
X111536476Y-91806380D01*
X112155523Y-91806380D01*
X112774571Y-90806380D02*
X112869809Y-90806380D01*
X112965047Y-90854000D01*
X113012666Y-90901619D01*
X113060285Y-90996857D01*
X113107904Y-91187333D01*
X113107904Y-91425428D01*
X113060285Y-91615904D01*
X113012666Y-91711142D01*
X112965047Y-91758761D01*
X112869809Y-91806380D01*
X112774571Y-91806380D01*
X112679333Y-91758761D01*
X112631714Y-91711142D01*
X112584095Y-91615904D01*
X112536476Y-91425428D01*
X112536476Y-91187333D01*
X112584095Y-90996857D01*
X112631714Y-90901619D01*
X112679333Y-90854000D01*
X112774571Y-90806380D01*
%TO.C,JP7*%
X137827166Y-70804380D02*
X137827166Y-71518666D01*
X137779547Y-71661523D01*
X137684309Y-71756761D01*
X137541452Y-71804380D01*
X137446214Y-71804380D01*
X138303357Y-71804380D02*
X138303357Y-70804380D01*
X138684309Y-70804380D01*
X138779547Y-70852000D01*
X138827166Y-70899619D01*
X138874785Y-70994857D01*
X138874785Y-71137714D01*
X138827166Y-71232952D01*
X138779547Y-71280571D01*
X138684309Y-71328190D01*
X138303357Y-71328190D01*
X139208119Y-70804380D02*
X139874785Y-70804380D01*
X139446214Y-71804380D01*
%TO.C,C6*%
X181621133Y-77192142D02*
X181573514Y-77239761D01*
X181430657Y-77287380D01*
X181335419Y-77287380D01*
X181192561Y-77239761D01*
X181097323Y-77144523D01*
X181049704Y-77049285D01*
X181002085Y-76858809D01*
X181002085Y-76715952D01*
X181049704Y-76525476D01*
X181097323Y-76430238D01*
X181192561Y-76335000D01*
X181335419Y-76287380D01*
X181430657Y-76287380D01*
X181573514Y-76335000D01*
X181621133Y-76382619D01*
X182478276Y-76287380D02*
X182287800Y-76287380D01*
X182192561Y-76335000D01*
X182144942Y-76382619D01*
X182049704Y-76525476D01*
X182002085Y-76715952D01*
X182002085Y-77096904D01*
X182049704Y-77192142D01*
X182097323Y-77239761D01*
X182192561Y-77287380D01*
X182383038Y-77287380D01*
X182478276Y-77239761D01*
X182525895Y-77192142D01*
X182573514Y-77096904D01*
X182573514Y-76858809D01*
X182525895Y-76763571D01*
X182478276Y-76715952D01*
X182383038Y-76668333D01*
X182192561Y-76668333D01*
X182097323Y-76715952D01*
X182049704Y-76763571D01*
X182002085Y-76858809D01*
%TO.C,C22*%
X89781142Y-77954142D02*
X89733523Y-78001761D01*
X89590666Y-78049380D01*
X89495428Y-78049380D01*
X89352571Y-78001761D01*
X89257333Y-77906523D01*
X89209714Y-77811285D01*
X89162095Y-77620809D01*
X89162095Y-77477952D01*
X89209714Y-77287476D01*
X89257333Y-77192238D01*
X89352571Y-77097000D01*
X89495428Y-77049380D01*
X89590666Y-77049380D01*
X89733523Y-77097000D01*
X89781142Y-77144619D01*
X90162095Y-77144619D02*
X90209714Y-77097000D01*
X90304952Y-77049380D01*
X90543047Y-77049380D01*
X90638285Y-77097000D01*
X90685904Y-77144619D01*
X90733523Y-77239857D01*
X90733523Y-77335095D01*
X90685904Y-77477952D01*
X90114476Y-78049380D01*
X90733523Y-78049380D01*
X91114476Y-77144619D02*
X91162095Y-77097000D01*
X91257333Y-77049380D01*
X91495428Y-77049380D01*
X91590666Y-77097000D01*
X91638285Y-77144619D01*
X91685904Y-77239857D01*
X91685904Y-77335095D01*
X91638285Y-77477952D01*
X91066857Y-78049380D01*
X91685904Y-78049380D01*
%TO.C,U6*%
X161925095Y-92395380D02*
X161925095Y-93204904D01*
X161972714Y-93300142D01*
X162020333Y-93347761D01*
X162115571Y-93395380D01*
X162306047Y-93395380D01*
X162401285Y-93347761D01*
X162448904Y-93300142D01*
X162496523Y-93204904D01*
X162496523Y-92395380D01*
X163401285Y-92395380D02*
X163210809Y-92395380D01*
X163115571Y-92443000D01*
X163067952Y-92490619D01*
X162972714Y-92633476D01*
X162925095Y-92823952D01*
X162925095Y-93204904D01*
X162972714Y-93300142D01*
X163020333Y-93347761D01*
X163115571Y-93395380D01*
X163306047Y-93395380D01*
X163401285Y-93347761D01*
X163448904Y-93300142D01*
X163496523Y-93204904D01*
X163496523Y-92966809D01*
X163448904Y-92871571D01*
X163401285Y-92823952D01*
X163306047Y-92776333D01*
X163115571Y-92776333D01*
X163020333Y-92823952D01*
X162972714Y-92871571D01*
X162925095Y-92966809D01*
%TO.C,C7*%
X160615333Y-77954142D02*
X160567714Y-78001761D01*
X160424857Y-78049380D01*
X160329619Y-78049380D01*
X160186761Y-78001761D01*
X160091523Y-77906523D01*
X160043904Y-77811285D01*
X159996285Y-77620809D01*
X159996285Y-77477952D01*
X160043904Y-77287476D01*
X160091523Y-77192238D01*
X160186761Y-77097000D01*
X160329619Y-77049380D01*
X160424857Y-77049380D01*
X160567714Y-77097000D01*
X160615333Y-77144619D01*
X160948666Y-77049380D02*
X161615333Y-77049380D01*
X161186761Y-78049380D01*
%TO.C,U12*%
X119538904Y-92395380D02*
X119538904Y-93204904D01*
X119586523Y-93300142D01*
X119634142Y-93347761D01*
X119729380Y-93395380D01*
X119919857Y-93395380D01*
X120015095Y-93347761D01*
X120062714Y-93300142D01*
X120110333Y-93204904D01*
X120110333Y-92395380D01*
X121110333Y-93395380D02*
X120538904Y-93395380D01*
X120824619Y-93395380D02*
X120824619Y-92395380D01*
X120729380Y-92538238D01*
X120634142Y-92633476D01*
X120538904Y-92681095D01*
X121491285Y-92490619D02*
X121538904Y-92443000D01*
X121634142Y-92395380D01*
X121872238Y-92395380D01*
X121967476Y-92443000D01*
X122015095Y-92490619D01*
X122062714Y-92585857D01*
X122062714Y-92681095D01*
X122015095Y-92823952D01*
X121443666Y-93395380D01*
X122062714Y-93395380D01*
%TO.C,RN1*%
X185745523Y-79522580D02*
X185412190Y-79046390D01*
X185174095Y-79522580D02*
X185174095Y-78522580D01*
X185555047Y-78522580D01*
X185650285Y-78570200D01*
X185697904Y-78617819D01*
X185745523Y-78713057D01*
X185745523Y-78855914D01*
X185697904Y-78951152D01*
X185650285Y-78998771D01*
X185555047Y-79046390D01*
X185174095Y-79046390D01*
X186174095Y-79522580D02*
X186174095Y-78522580D01*
X186745523Y-79522580D01*
X186745523Y-78522580D01*
X187745523Y-79522580D02*
X187174095Y-79522580D01*
X187459809Y-79522580D02*
X187459809Y-78522580D01*
X187364571Y-78665438D01*
X187269333Y-78760676D01*
X187174095Y-78808295D01*
%TO.C,J3*%
X131670466Y-113345980D02*
X131670466Y-114060266D01*
X131622847Y-114203123D01*
X131527609Y-114298361D01*
X131384752Y-114345980D01*
X131289514Y-114345980D01*
X132051419Y-113345980D02*
X132670466Y-113345980D01*
X132337133Y-113726933D01*
X132479990Y-113726933D01*
X132575228Y-113774552D01*
X132622847Y-113822171D01*
X132670466Y-113917409D01*
X132670466Y-114155504D01*
X132622847Y-114250742D01*
X132575228Y-114298361D01*
X132479990Y-114345980D01*
X132194276Y-114345980D01*
X132099038Y-114298361D01*
X132051419Y-114250742D01*
%TO.C,JP10*%
X95440976Y-70804380D02*
X95440976Y-71518666D01*
X95393357Y-71661523D01*
X95298119Y-71756761D01*
X95155261Y-71804380D01*
X95060023Y-71804380D01*
X95917166Y-71804380D02*
X95917166Y-70804380D01*
X96298119Y-70804380D01*
X96393357Y-70852000D01*
X96440976Y-70899619D01*
X96488595Y-70994857D01*
X96488595Y-71137714D01*
X96440976Y-71232952D01*
X96393357Y-71280571D01*
X96298119Y-71328190D01*
X95917166Y-71328190D01*
X97440976Y-71804380D02*
X96869547Y-71804380D01*
X97155261Y-71804380D02*
X97155261Y-70804380D01*
X97060023Y-70947238D01*
X96964785Y-71042476D01*
X96869547Y-71090095D01*
X98060023Y-70804380D02*
X98155261Y-70804380D01*
X98250500Y-70852000D01*
X98298119Y-70899619D01*
X98345738Y-70994857D01*
X98393357Y-71185333D01*
X98393357Y-71423428D01*
X98345738Y-71613904D01*
X98298119Y-71709142D01*
X98250500Y-71756761D01*
X98155261Y-71804380D01*
X98060023Y-71804380D01*
X97964785Y-71756761D01*
X97917166Y-71709142D01*
X97869547Y-71613904D01*
X97821928Y-71423428D01*
X97821928Y-71185333D01*
X97869547Y-70994857D01*
X97917166Y-70899619D01*
X97964785Y-70852000D01*
X98060023Y-70804380D01*
%TO.C,U17*%
X80635904Y-81006380D02*
X80635904Y-81815904D01*
X80683523Y-81911142D01*
X80731142Y-81958761D01*
X80826380Y-82006380D01*
X81016857Y-82006380D01*
X81112095Y-81958761D01*
X81159714Y-81911142D01*
X81207333Y-81815904D01*
X81207333Y-81006380D01*
X82207333Y-82006380D02*
X81635904Y-82006380D01*
X81921619Y-82006380D02*
X81921619Y-81006380D01*
X81826380Y-81149238D01*
X81731142Y-81244476D01*
X81635904Y-81292095D01*
X82540666Y-81006380D02*
X83207333Y-81006380D01*
X82778761Y-82006380D01*
%TO.C,J1*%
X165706466Y-73671180D02*
X165706466Y-74385466D01*
X165658847Y-74528323D01*
X165563609Y-74623561D01*
X165420752Y-74671180D01*
X165325514Y-74671180D01*
X166706466Y-74671180D02*
X166135038Y-74671180D01*
X166420752Y-74671180D02*
X166420752Y-73671180D01*
X166325514Y-73814038D01*
X166230276Y-73909276D01*
X166135038Y-73956895D01*
%TO.C,JP9*%
X109887166Y-70804380D02*
X109887166Y-71518666D01*
X109839547Y-71661523D01*
X109744309Y-71756761D01*
X109601452Y-71804380D01*
X109506214Y-71804380D01*
X110363357Y-71804380D02*
X110363357Y-70804380D01*
X110744309Y-70804380D01*
X110839547Y-70852000D01*
X110887166Y-70899619D01*
X110934785Y-70994857D01*
X110934785Y-71137714D01*
X110887166Y-71232952D01*
X110839547Y-71280571D01*
X110744309Y-71328190D01*
X110363357Y-71328190D01*
X111410976Y-71804380D02*
X111601452Y-71804380D01*
X111696690Y-71756761D01*
X111744309Y-71709142D01*
X111839547Y-71566285D01*
X111887166Y-71375809D01*
X111887166Y-70994857D01*
X111839547Y-70899619D01*
X111791928Y-70852000D01*
X111696690Y-70804380D01*
X111506214Y-70804380D01*
X111410976Y-70852000D01*
X111363357Y-70899619D01*
X111315738Y-70994857D01*
X111315738Y-71232952D01*
X111363357Y-71328190D01*
X111410976Y-71375809D01*
X111506214Y-71423428D01*
X111696690Y-71423428D01*
X111791928Y-71375809D01*
X111839547Y-71328190D01*
X111887166Y-71232952D01*
%TO.C,RN12*%
X115368533Y-90139780D02*
X115035200Y-89663590D01*
X114797104Y-90139780D02*
X114797104Y-89139780D01*
X115178057Y-89139780D01*
X115273295Y-89187400D01*
X115320914Y-89235019D01*
X115368533Y-89330257D01*
X115368533Y-89473114D01*
X115320914Y-89568352D01*
X115273295Y-89615971D01*
X115178057Y-89663590D01*
X114797104Y-89663590D01*
X115797104Y-90139780D02*
X115797104Y-89139780D01*
X116368533Y-90139780D01*
X116368533Y-89139780D01*
X117368533Y-90139780D02*
X116797104Y-90139780D01*
X117082819Y-90139780D02*
X117082819Y-89139780D01*
X116987580Y-89282638D01*
X116892342Y-89377876D01*
X116797104Y-89425495D01*
X117749485Y-89235019D02*
X117797104Y-89187400D01*
X117892342Y-89139780D01*
X118130438Y-89139780D01*
X118225676Y-89187400D01*
X118273295Y-89235019D01*
X118320914Y-89330257D01*
X118320914Y-89425495D01*
X118273295Y-89568352D01*
X117701866Y-90139780D01*
X118320914Y-90139780D01*
%TO.C,C23*%
X97233142Y-91711142D02*
X97185523Y-91758761D01*
X97042666Y-91806380D01*
X96947428Y-91806380D01*
X96804571Y-91758761D01*
X96709333Y-91663523D01*
X96661714Y-91568285D01*
X96614095Y-91377809D01*
X96614095Y-91234952D01*
X96661714Y-91044476D01*
X96709333Y-90949238D01*
X96804571Y-90854000D01*
X96947428Y-90806380D01*
X97042666Y-90806380D01*
X97185523Y-90854000D01*
X97233142Y-90901619D01*
X97614095Y-90901619D02*
X97661714Y-90854000D01*
X97756952Y-90806380D01*
X97995047Y-90806380D01*
X98090285Y-90854000D01*
X98137904Y-90901619D01*
X98185523Y-90996857D01*
X98185523Y-91092095D01*
X98137904Y-91234952D01*
X97566476Y-91806380D01*
X98185523Y-91806380D01*
X98518857Y-90806380D02*
X99137904Y-90806380D01*
X98804571Y-91187333D01*
X98947428Y-91187333D01*
X99042666Y-91234952D01*
X99090285Y-91282571D01*
X99137904Y-91377809D01*
X99137904Y-91615904D01*
X99090285Y-91711142D01*
X99042666Y-91758761D01*
X98947428Y-91806380D01*
X98661714Y-91806380D01*
X98566476Y-91758761D01*
X98518857Y-91711142D01*
%TO.C,C11*%
X153113142Y-91711142D02*
X153065523Y-91758761D01*
X152922666Y-91806380D01*
X152827428Y-91806380D01*
X152684571Y-91758761D01*
X152589333Y-91663523D01*
X152541714Y-91568285D01*
X152494095Y-91377809D01*
X152494095Y-91234952D01*
X152541714Y-91044476D01*
X152589333Y-90949238D01*
X152684571Y-90854000D01*
X152827428Y-90806380D01*
X152922666Y-90806380D01*
X153065523Y-90854000D01*
X153113142Y-90901619D01*
X154065523Y-91806380D02*
X153494095Y-91806380D01*
X153779809Y-91806380D02*
X153779809Y-90806380D01*
X153684571Y-90949238D01*
X153589333Y-91044476D01*
X153494095Y-91092095D01*
X155017904Y-91806380D02*
X154446476Y-91806380D01*
X154732190Y-91806380D02*
X154732190Y-90806380D01*
X154636952Y-90949238D01*
X154541714Y-91044476D01*
X154446476Y-91092095D01*
%TO.C,U3*%
X178902095Y-81006380D02*
X178902095Y-81815904D01*
X178949714Y-81911142D01*
X178997333Y-81958761D01*
X179092571Y-82006380D01*
X179283047Y-82006380D01*
X179378285Y-81958761D01*
X179425904Y-81911142D01*
X179473523Y-81815904D01*
X179473523Y-81006380D01*
X179854476Y-81006380D02*
X180473523Y-81006380D01*
X180140190Y-81387333D01*
X180283047Y-81387333D01*
X180378285Y-81434952D01*
X180425904Y-81482571D01*
X180473523Y-81577809D01*
X180473523Y-81815904D01*
X180425904Y-81911142D01*
X180378285Y-81958761D01*
X180283047Y-82006380D01*
X179997333Y-82006380D01*
X179902095Y-81958761D01*
X179854476Y-81911142D01*
%TO.C,C16*%
X117721142Y-77954142D02*
X117673523Y-78001761D01*
X117530666Y-78049380D01*
X117435428Y-78049380D01*
X117292571Y-78001761D01*
X117197333Y-77906523D01*
X117149714Y-77811285D01*
X117102095Y-77620809D01*
X117102095Y-77477952D01*
X117149714Y-77287476D01*
X117197333Y-77192238D01*
X117292571Y-77097000D01*
X117435428Y-77049380D01*
X117530666Y-77049380D01*
X117673523Y-77097000D01*
X117721142Y-77144619D01*
X118673523Y-78049380D02*
X118102095Y-78049380D01*
X118387809Y-78049380D02*
X118387809Y-77049380D01*
X118292571Y-77192238D01*
X118197333Y-77287476D01*
X118102095Y-77335095D01*
X119530666Y-77049380D02*
X119340190Y-77049380D01*
X119244952Y-77097000D01*
X119197333Y-77144619D01*
X119102095Y-77287476D01*
X119054476Y-77477952D01*
X119054476Y-77858904D01*
X119102095Y-77954142D01*
X119149714Y-78001761D01*
X119244952Y-78049380D01*
X119435428Y-78049380D01*
X119530666Y-78001761D01*
X119578285Y-77954142D01*
X119625904Y-77858904D01*
X119625904Y-77620809D01*
X119578285Y-77525571D01*
X119530666Y-77477952D01*
X119435428Y-77430333D01*
X119244952Y-77430333D01*
X119149714Y-77477952D01*
X119102095Y-77525571D01*
X119054476Y-77620809D01*
%TO.C,U13*%
X108575904Y-81006380D02*
X108575904Y-81815904D01*
X108623523Y-81911142D01*
X108671142Y-81958761D01*
X108766380Y-82006380D01*
X108956857Y-82006380D01*
X109052095Y-81958761D01*
X109099714Y-81911142D01*
X109147333Y-81815904D01*
X109147333Y-81006380D01*
X110147333Y-82006380D02*
X109575904Y-82006380D01*
X109861619Y-82006380D02*
X109861619Y-81006380D01*
X109766380Y-81149238D01*
X109671142Y-81244476D01*
X109575904Y-81292095D01*
X110480666Y-81006380D02*
X111099714Y-81006380D01*
X110766380Y-81387333D01*
X110909238Y-81387333D01*
X111004476Y-81434952D01*
X111052095Y-81482571D01*
X111099714Y-81577809D01*
X111099714Y-81815904D01*
X111052095Y-81911142D01*
X111004476Y-81958761D01*
X110909238Y-82006380D01*
X110623523Y-82006380D01*
X110528285Y-81958761D01*
X110480666Y-81911142D01*
%TO.C,U10*%
X133508904Y-92395380D02*
X133508904Y-93204904D01*
X133556523Y-93300142D01*
X133604142Y-93347761D01*
X133699380Y-93395380D01*
X133889857Y-93395380D01*
X133985095Y-93347761D01*
X134032714Y-93300142D01*
X134080333Y-93204904D01*
X134080333Y-92395380D01*
X135080333Y-93395380D02*
X134508904Y-93395380D01*
X134794619Y-93395380D02*
X134794619Y-92395380D01*
X134699380Y-92538238D01*
X134604142Y-92633476D01*
X134508904Y-92681095D01*
X135699380Y-92395380D02*
X135794619Y-92395380D01*
X135889857Y-92443000D01*
X135937476Y-92490619D01*
X135985095Y-92585857D01*
X136032714Y-92776333D01*
X136032714Y-93014428D01*
X135985095Y-93204904D01*
X135937476Y-93300142D01*
X135889857Y-93347761D01*
X135794619Y-93395380D01*
X135699380Y-93395380D01*
X135604142Y-93347761D01*
X135556523Y-93300142D01*
X135508904Y-93204904D01*
X135461285Y-93014428D01*
X135461285Y-92776333D01*
X135508904Y-92585857D01*
X135556523Y-92490619D01*
X135604142Y-92443000D01*
X135699380Y-92395380D01*
%TO.C,C18*%
X125264942Y-77192142D02*
X125217323Y-77239761D01*
X125074466Y-77287380D01*
X124979228Y-77287380D01*
X124836371Y-77239761D01*
X124741133Y-77144523D01*
X124693514Y-77049285D01*
X124645895Y-76858809D01*
X124645895Y-76715952D01*
X124693514Y-76525476D01*
X124741133Y-76430238D01*
X124836371Y-76335000D01*
X124979228Y-76287380D01*
X125074466Y-76287380D01*
X125217323Y-76335000D01*
X125264942Y-76382619D01*
X126217323Y-77287380D02*
X125645895Y-77287380D01*
X125931609Y-77287380D02*
X125931609Y-76287380D01*
X125836371Y-76430238D01*
X125741133Y-76525476D01*
X125645895Y-76573095D01*
X126788752Y-76715952D02*
X126693514Y-76668333D01*
X126645895Y-76620714D01*
X126598276Y-76525476D01*
X126598276Y-76477857D01*
X126645895Y-76382619D01*
X126693514Y-76335000D01*
X126788752Y-76287380D01*
X126979228Y-76287380D01*
X127074466Y-76335000D01*
X127122085Y-76382619D01*
X127169704Y-76477857D01*
X127169704Y-76525476D01*
X127122085Y-76620714D01*
X127074466Y-76668333D01*
X126979228Y-76715952D01*
X126788752Y-76715952D01*
X126693514Y-76763571D01*
X126645895Y-76811190D01*
X126598276Y-76906428D01*
X126598276Y-77096904D01*
X126645895Y-77192142D01*
X126693514Y-77239761D01*
X126788752Y-77287380D01*
X126979228Y-77287380D01*
X127074466Y-77239761D01*
X127122085Y-77192142D01*
X127169704Y-77096904D01*
X127169704Y-76906428D01*
X127122085Y-76811190D01*
X127074466Y-76763571D01*
X126979228Y-76715952D01*
%TO.C,C9*%
X167651133Y-77192142D02*
X167603514Y-77239761D01*
X167460657Y-77287380D01*
X167365419Y-77287380D01*
X167222561Y-77239761D01*
X167127323Y-77144523D01*
X167079704Y-77049285D01*
X167032085Y-76858809D01*
X167032085Y-76715952D01*
X167079704Y-76525476D01*
X167127323Y-76430238D01*
X167222561Y-76335000D01*
X167365419Y-76287380D01*
X167460657Y-76287380D01*
X167603514Y-76335000D01*
X167651133Y-76382619D01*
X168127323Y-77287380D02*
X168317800Y-77287380D01*
X168413038Y-77239761D01*
X168460657Y-77192142D01*
X168555895Y-77049285D01*
X168603514Y-76858809D01*
X168603514Y-76477857D01*
X168555895Y-76382619D01*
X168508276Y-76335000D01*
X168413038Y-76287380D01*
X168222561Y-76287380D01*
X168127323Y-76335000D01*
X168079704Y-76382619D01*
X168032085Y-76477857D01*
X168032085Y-76715952D01*
X168079704Y-76811190D01*
X168127323Y-76858809D01*
X168222561Y-76906428D01*
X168413038Y-76906428D01*
X168508276Y-76858809D01*
X168555895Y-76811190D01*
X168603514Y-76715952D01*
D11*
%TO.C,J4*%
X168791466Y-125754190D02*
X168791466Y-125149428D01*
X169154323Y-125875142D02*
X167884323Y-125451809D01*
X169154323Y-125028476D01*
X169154323Y-124000380D02*
X169154323Y-124605142D01*
X167884323Y-124605142D01*
X169154323Y-122911809D02*
X169154323Y-123637523D01*
X169154323Y-123274666D02*
X167884323Y-123274666D01*
X168065752Y-123395619D01*
X168186704Y-123516571D01*
X168247180Y-123637523D01*
X197366466Y-125784428D02*
X197366466Y-125179666D01*
X197729323Y-125905380D02*
X196459323Y-125482047D01*
X197729323Y-125058714D01*
X197366466Y-124695857D02*
X197366466Y-124091095D01*
X197729323Y-124816809D02*
X196459323Y-124393476D01*
X197729323Y-123970142D01*
X197729323Y-122881571D02*
X197729323Y-123607285D01*
X197729323Y-123244428D02*
X196459323Y-123244428D01*
X196640752Y-123365380D01*
X196761704Y-123486333D01*
X196822180Y-123607285D01*
X175141466Y-125723952D02*
X175141466Y-125119190D01*
X175504323Y-125844904D02*
X174234323Y-125421571D01*
X175504323Y-124998238D01*
X174234323Y-124212047D02*
X175141466Y-124212047D01*
X175322895Y-124272523D01*
X175443847Y-124393476D01*
X175504323Y-124574904D01*
X175504323Y-124695857D01*
X175504323Y-122942047D02*
X175504323Y-123667761D01*
X175504323Y-123304904D02*
X174234323Y-123304904D01*
X174415752Y-123425857D01*
X174536704Y-123546809D01*
X174597180Y-123667761D01*
X111339085Y-125391333D02*
X111399561Y-125209904D01*
X111460038Y-125149428D01*
X111580990Y-125088952D01*
X111762419Y-125088952D01*
X111883371Y-125149428D01*
X111943847Y-125209904D01*
X112004323Y-125330857D01*
X112004323Y-125814666D01*
X110734323Y-125814666D01*
X110734323Y-125391333D01*
X110794800Y-125270380D01*
X110855276Y-125209904D01*
X110976228Y-125149428D01*
X111097180Y-125149428D01*
X111218133Y-125209904D01*
X111278609Y-125270380D01*
X111339085Y-125391333D01*
X111339085Y-125814666D01*
X111339085Y-124121333D02*
X111339085Y-124544666D01*
X112004323Y-124544666D02*
X110734323Y-124544666D01*
X110734323Y-123939904D01*
X112004323Y-122790857D02*
X112004323Y-123516571D01*
X112004323Y-123153714D02*
X110734323Y-123153714D01*
X110915752Y-123274666D01*
X111036704Y-123395619D01*
X111097180Y-123516571D01*
X162441466Y-125905380D02*
X162441466Y-125300619D01*
X162804323Y-126026333D02*
X161534323Y-125603000D01*
X162804323Y-125179666D01*
X162804323Y-124756333D02*
X161534323Y-124756333D01*
X162804323Y-124030619D01*
X161534323Y-124030619D01*
X162804323Y-122760619D02*
X162804323Y-123486333D01*
X162804323Y-123123476D02*
X161534323Y-123123476D01*
X161715752Y-123244428D01*
X161836704Y-123365380D01*
X161897180Y-123486333D01*
X95464085Y-125572761D02*
X95524561Y-125391333D01*
X95585038Y-125330857D01*
X95705990Y-125270380D01*
X95887419Y-125270380D01*
X96008371Y-125330857D01*
X96068847Y-125391333D01*
X96129323Y-125512285D01*
X96129323Y-125996095D01*
X94859323Y-125996095D01*
X94859323Y-125572761D01*
X94919800Y-125451809D01*
X94980276Y-125391333D01*
X95101228Y-125330857D01*
X95222180Y-125330857D01*
X95343133Y-125391333D01*
X95403609Y-125451809D01*
X95464085Y-125572761D01*
X95464085Y-125996095D01*
X96129323Y-124726095D02*
X94859323Y-124726095D01*
X95766466Y-124302761D01*
X94859323Y-123879428D01*
X96129323Y-123879428D01*
X96129323Y-122609428D02*
X96129323Y-123335142D01*
X96129323Y-122972285D02*
X94859323Y-122972285D01*
X95040752Y-123093238D01*
X95161704Y-123214190D01*
X95222180Y-123335142D01*
X184666466Y-125814666D02*
X184666466Y-125209904D01*
X185029323Y-125935619D02*
X183759323Y-125512285D01*
X185029323Y-125088952D01*
X184364085Y-124665619D02*
X184364085Y-124242285D01*
X185029323Y-124060857D02*
X185029323Y-124665619D01*
X183759323Y-124665619D01*
X183759323Y-124060857D01*
X185029323Y-122851333D02*
X185029323Y-123577047D01*
X185029323Y-123214190D02*
X183759323Y-123214190D01*
X183940752Y-123335142D01*
X184061704Y-123456095D01*
X184122180Y-123577047D01*
X165616466Y-125965857D02*
X165616466Y-125361095D01*
X165979323Y-126086809D02*
X164709323Y-125663476D01*
X165979323Y-125240142D01*
X165979323Y-124816809D02*
X164709323Y-124816809D01*
X165616466Y-124393476D01*
X164709323Y-123970142D01*
X165979323Y-123970142D01*
X165979323Y-122700142D02*
X165979323Y-123425857D01*
X165979323Y-123063000D02*
X164709323Y-123063000D01*
X164890752Y-123183952D01*
X165011704Y-123304904D01*
X165072180Y-123425857D01*
X108164085Y-125512285D02*
X108224561Y-125330857D01*
X108285038Y-125270380D01*
X108405990Y-125209904D01*
X108587419Y-125209904D01*
X108708371Y-125270380D01*
X108768847Y-125330857D01*
X108829323Y-125451809D01*
X108829323Y-125935619D01*
X107559323Y-125935619D01*
X107559323Y-125512285D01*
X107619800Y-125391333D01*
X107680276Y-125330857D01*
X107801228Y-125270380D01*
X107922180Y-125270380D01*
X108043133Y-125330857D01*
X108103609Y-125391333D01*
X108164085Y-125512285D01*
X108164085Y-125935619D01*
X108829323Y-124665619D02*
X107559323Y-124665619D01*
X108164085Y-124665619D02*
X108164085Y-123939904D01*
X108829323Y-123939904D02*
X107559323Y-123939904D01*
X108829323Y-122669904D02*
X108829323Y-123395619D01*
X108829323Y-123032761D02*
X107559323Y-123032761D01*
X107740752Y-123153714D01*
X107861704Y-123274666D01*
X107922180Y-123395619D01*
X146566466Y-125905380D02*
X146566466Y-125300619D01*
X146929323Y-126026333D02*
X145659323Y-125603000D01*
X146929323Y-125179666D01*
X145659323Y-124756333D02*
X146687419Y-124756333D01*
X146808371Y-124695857D01*
X146868847Y-124635380D01*
X146929323Y-124514428D01*
X146929323Y-124272523D01*
X146868847Y-124151571D01*
X146808371Y-124091095D01*
X146687419Y-124030619D01*
X145659323Y-124030619D01*
X146929323Y-122760619D02*
X146929323Y-123486333D01*
X146929323Y-123123476D02*
X145659323Y-123123476D01*
X145840752Y-123244428D01*
X145961704Y-123365380D01*
X146022180Y-123486333D01*
X187841466Y-125875142D02*
X187841466Y-125270380D01*
X188204323Y-125996095D02*
X186934323Y-125572761D01*
X188204323Y-125149428D01*
X188204323Y-124726095D02*
X186934323Y-124726095D01*
X186934323Y-124423714D01*
X186994800Y-124242285D01*
X187115752Y-124121333D01*
X187236704Y-124060857D01*
X187478609Y-124000380D01*
X187660038Y-124000380D01*
X187901942Y-124060857D01*
X188022895Y-124121333D01*
X188143847Y-124242285D01*
X188204323Y-124423714D01*
X188204323Y-124726095D01*
X188204323Y-122790857D02*
X188204323Y-123516571D01*
X188204323Y-123153714D02*
X186934323Y-123153714D01*
X187115752Y-123274666D01*
X187236704Y-123395619D01*
X187297180Y-123516571D01*
X171966466Y-125875142D02*
X171966466Y-125270380D01*
X172329323Y-125996095D02*
X171059323Y-125572761D01*
X172329323Y-125149428D01*
X172329323Y-124726095D02*
X171059323Y-124726095D01*
X172329323Y-124000380D02*
X171603609Y-124544666D01*
X171059323Y-124000380D02*
X171785038Y-124726095D01*
X172329323Y-122790857D02*
X172329323Y-123516571D01*
X172329323Y-123153714D02*
X171059323Y-123153714D01*
X171240752Y-123274666D01*
X171361704Y-123395619D01*
X171422180Y-123516571D01*
X104989085Y-125330857D02*
X105049561Y-125149428D01*
X105110038Y-125088952D01*
X105230990Y-125028476D01*
X105412419Y-125028476D01*
X105533371Y-125088952D01*
X105593847Y-125149428D01*
X105654323Y-125270380D01*
X105654323Y-125754190D01*
X104384323Y-125754190D01*
X104384323Y-125330857D01*
X104444800Y-125209904D01*
X104505276Y-125149428D01*
X104626228Y-125088952D01*
X104747180Y-125088952D01*
X104868133Y-125149428D01*
X104928609Y-125209904D01*
X104989085Y-125330857D01*
X104989085Y-125754190D01*
X104384323Y-124121333D02*
X105291466Y-124121333D01*
X105472895Y-124181809D01*
X105593847Y-124302761D01*
X105654323Y-124484190D01*
X105654323Y-124605142D01*
X105654323Y-122851333D02*
X105654323Y-123577047D01*
X105654323Y-123214190D02*
X104384323Y-123214190D01*
X104565752Y-123335142D01*
X104686704Y-123456095D01*
X104747180Y-123577047D01*
X127214085Y-125391333D02*
X127274561Y-125209904D01*
X127335038Y-125149428D01*
X127455990Y-125088952D01*
X127637419Y-125088952D01*
X127758371Y-125149428D01*
X127818847Y-125209904D01*
X127879323Y-125330857D01*
X127879323Y-125814666D01*
X126609323Y-125814666D01*
X126609323Y-125391333D01*
X126669800Y-125270380D01*
X126730276Y-125209904D01*
X126851228Y-125149428D01*
X126972180Y-125149428D01*
X127093133Y-125209904D01*
X127153609Y-125270380D01*
X127214085Y-125391333D01*
X127214085Y-125814666D01*
X127516466Y-124605142D02*
X127516466Y-124000380D01*
X127879323Y-124726095D02*
X126609323Y-124302761D01*
X127879323Y-123879428D01*
X127879323Y-122790857D02*
X127879323Y-123516571D01*
X127879323Y-123153714D02*
X126609323Y-123153714D01*
X126790752Y-123274666D01*
X126911704Y-123395619D01*
X126972180Y-123516571D01*
X114514085Y-125421571D02*
X114574561Y-125240142D01*
X114635038Y-125179666D01*
X114755990Y-125119190D01*
X114937419Y-125119190D01*
X115058371Y-125179666D01*
X115118847Y-125240142D01*
X115179323Y-125361095D01*
X115179323Y-125844904D01*
X113909323Y-125844904D01*
X113909323Y-125421571D01*
X113969800Y-125300619D01*
X114030276Y-125240142D01*
X114151228Y-125179666D01*
X114272180Y-125179666D01*
X114393133Y-125240142D01*
X114453609Y-125300619D01*
X114514085Y-125421571D01*
X114514085Y-125844904D01*
X114514085Y-124574904D02*
X114514085Y-124151571D01*
X115179323Y-123970142D02*
X115179323Y-124574904D01*
X113909323Y-124574904D01*
X113909323Y-123970142D01*
X115179323Y-122760619D02*
X115179323Y-123486333D01*
X115179323Y-123123476D02*
X113909323Y-123123476D01*
X114090752Y-123244428D01*
X114211704Y-123365380D01*
X114272180Y-123486333D01*
X194191466Y-125875142D02*
X194191466Y-125270380D01*
X194554323Y-125996095D02*
X193284323Y-125572761D01*
X194554323Y-125149428D01*
X193889085Y-124302761D02*
X193949561Y-124121333D01*
X194010038Y-124060857D01*
X194130990Y-124000380D01*
X194312419Y-124000380D01*
X194433371Y-124060857D01*
X194493847Y-124121333D01*
X194554323Y-124242285D01*
X194554323Y-124726095D01*
X193284323Y-124726095D01*
X193284323Y-124302761D01*
X193344800Y-124181809D01*
X193405276Y-124121333D01*
X193526228Y-124060857D01*
X193647180Y-124060857D01*
X193768133Y-124121333D01*
X193828609Y-124181809D01*
X193889085Y-124302761D01*
X193889085Y-124726095D01*
X194554323Y-122790857D02*
X194554323Y-123516571D01*
X194554323Y-123153714D02*
X193284323Y-123153714D01*
X193465752Y-123274666D01*
X193586704Y-123395619D01*
X193647180Y-123516571D01*
X149741466Y-125723952D02*
X149741466Y-125119190D01*
X150104323Y-125844904D02*
X148834323Y-125421571D01*
X150104323Y-124998238D01*
X148834323Y-124756333D02*
X148834323Y-124030619D01*
X150104323Y-124393476D02*
X148834323Y-124393476D01*
X150104323Y-122942047D02*
X150104323Y-123667761D01*
X150104323Y-123304904D02*
X148834323Y-123304904D01*
X149015752Y-123425857D01*
X149136704Y-123546809D01*
X149197180Y-123667761D01*
X73239085Y-125391333D02*
X73299561Y-125209904D01*
X73360038Y-125149428D01*
X73480990Y-125088952D01*
X73662419Y-125088952D01*
X73783371Y-125149428D01*
X73843847Y-125209904D01*
X73904323Y-125330857D01*
X73904323Y-125814666D01*
X72634323Y-125814666D01*
X72634323Y-125391333D01*
X72694800Y-125270380D01*
X72755276Y-125209904D01*
X72876228Y-125149428D01*
X72997180Y-125149428D01*
X73118133Y-125209904D01*
X73178609Y-125270380D01*
X73239085Y-125391333D01*
X73239085Y-125814666D01*
X72634323Y-124726095D02*
X73904323Y-124302761D01*
X72634323Y-123879428D01*
X73904323Y-122790857D02*
X73904323Y-123516571D01*
X73904323Y-123153714D02*
X72634323Y-123153714D01*
X72815752Y-123274666D01*
X72936704Y-123395619D01*
X72997180Y-123516571D01*
X89114085Y-125482047D02*
X89174561Y-125300619D01*
X89235038Y-125240142D01*
X89355990Y-125179666D01*
X89537419Y-125179666D01*
X89658371Y-125240142D01*
X89718847Y-125300619D01*
X89779323Y-125421571D01*
X89779323Y-125905380D01*
X88509323Y-125905380D01*
X88509323Y-125482047D01*
X88569800Y-125361095D01*
X88630276Y-125300619D01*
X88751228Y-125240142D01*
X88872180Y-125240142D01*
X88993133Y-125300619D01*
X89053609Y-125361095D01*
X89114085Y-125482047D01*
X89114085Y-125905380D01*
X89779323Y-124635380D02*
X88509323Y-124635380D01*
X88509323Y-124151571D01*
X88569800Y-124030619D01*
X88630276Y-123970142D01*
X88751228Y-123909666D01*
X88932657Y-123909666D01*
X89053609Y-123970142D01*
X89114085Y-124030619D01*
X89174561Y-124151571D01*
X89174561Y-124635380D01*
X89779323Y-122700142D02*
X89779323Y-123425857D01*
X89779323Y-123063000D02*
X88509323Y-123063000D01*
X88690752Y-123183952D01*
X88811704Y-123304904D01*
X88872180Y-123425857D01*
X191016466Y-125875142D02*
X191016466Y-125270380D01*
X191379323Y-125996095D02*
X190109323Y-125572761D01*
X191379323Y-125149428D01*
X191258371Y-124000380D02*
X191318847Y-124060857D01*
X191379323Y-124242285D01*
X191379323Y-124363238D01*
X191318847Y-124544666D01*
X191197895Y-124665619D01*
X191076942Y-124726095D01*
X190835038Y-124786571D01*
X190653609Y-124786571D01*
X190411704Y-124726095D01*
X190290752Y-124665619D01*
X190169800Y-124544666D01*
X190109323Y-124363238D01*
X190109323Y-124242285D01*
X190169800Y-124060857D01*
X190230276Y-124000380D01*
X191379323Y-122790857D02*
X191379323Y-123516571D01*
X191379323Y-123153714D02*
X190109323Y-123153714D01*
X190290752Y-123274666D01*
X190411704Y-123395619D01*
X190472180Y-123516571D01*
X181491466Y-125784428D02*
X181491466Y-125179666D01*
X181854323Y-125905380D02*
X180584323Y-125482047D01*
X181854323Y-125058714D01*
X181189085Y-124212047D02*
X181189085Y-124635380D01*
X181854323Y-124635380D02*
X180584323Y-124635380D01*
X180584323Y-124030619D01*
X181854323Y-122881571D02*
X181854323Y-123607285D01*
X181854323Y-123244428D02*
X180584323Y-123244428D01*
X180765752Y-123365380D01*
X180886704Y-123486333D01*
X180947180Y-123607285D01*
X85939085Y-125482047D02*
X85999561Y-125300619D01*
X86060038Y-125240142D01*
X86180990Y-125179666D01*
X86362419Y-125179666D01*
X86483371Y-125240142D01*
X86543847Y-125300619D01*
X86604323Y-125421571D01*
X86604323Y-125905380D01*
X85334323Y-125905380D01*
X85334323Y-125482047D01*
X85394800Y-125361095D01*
X85455276Y-125300619D01*
X85576228Y-125240142D01*
X85697180Y-125240142D01*
X85818133Y-125300619D01*
X85878609Y-125361095D01*
X85939085Y-125482047D01*
X85939085Y-125905380D01*
X86604323Y-123909666D02*
X85999561Y-124333000D01*
X86604323Y-124635380D02*
X85334323Y-124635380D01*
X85334323Y-124151571D01*
X85394800Y-124030619D01*
X85455276Y-123970142D01*
X85576228Y-123909666D01*
X85757657Y-123909666D01*
X85878609Y-123970142D01*
X85939085Y-124030619D01*
X85999561Y-124151571D01*
X85999561Y-124635380D01*
X86604323Y-122700142D02*
X86604323Y-123425857D01*
X86604323Y-123063000D02*
X85334323Y-123063000D01*
X85515752Y-123183952D01*
X85636704Y-123304904D01*
X85697180Y-123425857D01*
X76414085Y-125512285D02*
X76474561Y-125330857D01*
X76535038Y-125270380D01*
X76655990Y-125209904D01*
X76837419Y-125209904D01*
X76958371Y-125270380D01*
X77018847Y-125330857D01*
X77079323Y-125451809D01*
X77079323Y-125935619D01*
X75809323Y-125935619D01*
X75809323Y-125512285D01*
X75869800Y-125391333D01*
X75930276Y-125330857D01*
X76051228Y-125270380D01*
X76172180Y-125270380D01*
X76293133Y-125330857D01*
X76353609Y-125391333D01*
X76414085Y-125512285D01*
X76414085Y-125935619D01*
X75809323Y-124665619D02*
X76837419Y-124665619D01*
X76958371Y-124605142D01*
X77018847Y-124544666D01*
X77079323Y-124423714D01*
X77079323Y-124181809D01*
X77018847Y-124060857D01*
X76958371Y-124000380D01*
X76837419Y-123939904D01*
X75809323Y-123939904D01*
X77079323Y-122669904D02*
X77079323Y-123395619D01*
X77079323Y-123032761D02*
X75809323Y-123032761D01*
X75990752Y-123153714D01*
X76111704Y-123274666D01*
X76172180Y-123395619D01*
X143391466Y-125784428D02*
X143391466Y-125179666D01*
X143754323Y-125905380D02*
X142484323Y-125482047D01*
X143754323Y-125058714D01*
X142484323Y-124816809D02*
X143754323Y-124393476D01*
X142484323Y-123970142D01*
X143754323Y-122881571D02*
X143754323Y-123607285D01*
X143754323Y-123244428D02*
X142484323Y-123244428D01*
X142665752Y-123365380D01*
X142786704Y-123486333D01*
X142847180Y-123607285D01*
X159266466Y-125875142D02*
X159266466Y-125270380D01*
X159629323Y-125996095D02*
X158359323Y-125572761D01*
X159629323Y-125149428D01*
X159629323Y-124726095D02*
X158359323Y-124726095D01*
X158359323Y-124242285D01*
X158419800Y-124121333D01*
X158480276Y-124060857D01*
X158601228Y-124000380D01*
X158782657Y-124000380D01*
X158903609Y-124060857D01*
X158964085Y-124121333D01*
X159024561Y-124242285D01*
X159024561Y-124726095D01*
X159629323Y-122790857D02*
X159629323Y-123516571D01*
X159629323Y-123153714D02*
X158359323Y-123153714D01*
X158540752Y-123274666D01*
X158661704Y-123395619D01*
X158722180Y-123516571D01*
X124039085Y-125482047D02*
X124099561Y-125300619D01*
X124160038Y-125240142D01*
X124280990Y-125179666D01*
X124462419Y-125179666D01*
X124583371Y-125240142D01*
X124643847Y-125300619D01*
X124704323Y-125421571D01*
X124704323Y-125905380D01*
X123434323Y-125905380D01*
X123434323Y-125482047D01*
X123494800Y-125361095D01*
X123555276Y-125300619D01*
X123676228Y-125240142D01*
X123797180Y-125240142D01*
X123918133Y-125300619D01*
X123978609Y-125361095D01*
X124039085Y-125482047D01*
X124039085Y-125905380D01*
X124039085Y-124212047D02*
X124099561Y-124030619D01*
X124160038Y-123970142D01*
X124280990Y-123909666D01*
X124462419Y-123909666D01*
X124583371Y-123970142D01*
X124643847Y-124030619D01*
X124704323Y-124151571D01*
X124704323Y-124635380D01*
X123434323Y-124635380D01*
X123434323Y-124212047D01*
X123494800Y-124091095D01*
X123555276Y-124030619D01*
X123676228Y-123970142D01*
X123797180Y-123970142D01*
X123918133Y-124030619D01*
X123978609Y-124091095D01*
X124039085Y-124212047D01*
X124039085Y-124635380D01*
X124704323Y-122700142D02*
X124704323Y-123425857D01*
X124704323Y-123063000D02*
X123434323Y-123063000D01*
X123615752Y-123183952D01*
X123736704Y-123304904D01*
X123797180Y-123425857D01*
X79589085Y-125330857D02*
X79649561Y-125149428D01*
X79710038Y-125088952D01*
X79830990Y-125028476D01*
X80012419Y-125028476D01*
X80133371Y-125088952D01*
X80193847Y-125149428D01*
X80254323Y-125270380D01*
X80254323Y-125754190D01*
X78984323Y-125754190D01*
X78984323Y-125330857D01*
X79044800Y-125209904D01*
X79105276Y-125149428D01*
X79226228Y-125088952D01*
X79347180Y-125088952D01*
X79468133Y-125149428D01*
X79528609Y-125209904D01*
X79589085Y-125330857D01*
X79589085Y-125754190D01*
X78984323Y-124665619D02*
X78984323Y-123939904D01*
X80254323Y-124302761D02*
X78984323Y-124302761D01*
X80254323Y-122851333D02*
X80254323Y-123577047D01*
X80254323Y-123214190D02*
X78984323Y-123214190D01*
X79165752Y-123335142D01*
X79286704Y-123456095D01*
X79347180Y-123577047D01*
X117689085Y-125482047D02*
X117749561Y-125300619D01*
X117810038Y-125240142D01*
X117930990Y-125179666D01*
X118112419Y-125179666D01*
X118233371Y-125240142D01*
X118293847Y-125300619D01*
X118354323Y-125421571D01*
X118354323Y-125905380D01*
X117084323Y-125905380D01*
X117084323Y-125482047D01*
X117144800Y-125361095D01*
X117205276Y-125300619D01*
X117326228Y-125240142D01*
X117447180Y-125240142D01*
X117568133Y-125300619D01*
X117628609Y-125361095D01*
X117689085Y-125482047D01*
X117689085Y-125905380D01*
X118354323Y-124635380D02*
X117084323Y-124635380D01*
X117084323Y-124333000D01*
X117144800Y-124151571D01*
X117265752Y-124030619D01*
X117386704Y-123970142D01*
X117628609Y-123909666D01*
X117810038Y-123909666D01*
X118051942Y-123970142D01*
X118172895Y-124030619D01*
X118293847Y-124151571D01*
X118354323Y-124333000D01*
X118354323Y-124635380D01*
X118354323Y-122700142D02*
X118354323Y-123425857D01*
X118354323Y-123063000D02*
X117084323Y-123063000D01*
X117265752Y-123183952D01*
X117386704Y-123304904D01*
X117447180Y-123425857D01*
X156091466Y-125875142D02*
X156091466Y-125270380D01*
X156454323Y-125996095D02*
X155184323Y-125572761D01*
X156454323Y-125149428D01*
X156454323Y-124000380D02*
X155849561Y-124423714D01*
X156454323Y-124726095D02*
X155184323Y-124726095D01*
X155184323Y-124242285D01*
X155244800Y-124121333D01*
X155305276Y-124060857D01*
X155426228Y-124000380D01*
X155607657Y-124000380D01*
X155728609Y-124060857D01*
X155789085Y-124121333D01*
X155849561Y-124242285D01*
X155849561Y-124726095D01*
X156454323Y-122790857D02*
X156454323Y-123516571D01*
X156454323Y-123153714D02*
X155184323Y-123153714D01*
X155365752Y-123274666D01*
X155486704Y-123395619D01*
X155547180Y-123516571D01*
X92289085Y-125512285D02*
X92349561Y-125330857D01*
X92410038Y-125270380D01*
X92530990Y-125209904D01*
X92712419Y-125209904D01*
X92833371Y-125270380D01*
X92893847Y-125330857D01*
X92954323Y-125451809D01*
X92954323Y-125935619D01*
X91684323Y-125935619D01*
X91684323Y-125512285D01*
X91744800Y-125391333D01*
X91805276Y-125330857D01*
X91926228Y-125270380D01*
X92047180Y-125270380D01*
X92168133Y-125330857D01*
X92228609Y-125391333D01*
X92289085Y-125512285D01*
X92289085Y-125935619D01*
X92954323Y-124665619D02*
X91684323Y-124665619D01*
X92954323Y-123939904D01*
X91684323Y-123939904D01*
X92954323Y-122669904D02*
X92954323Y-123395619D01*
X92954323Y-123032761D02*
X91684323Y-123032761D01*
X91865752Y-123153714D01*
X91986704Y-123274666D01*
X92047180Y-123395619D01*
X98639085Y-125361095D02*
X98699561Y-125179666D01*
X98760038Y-125119190D01*
X98880990Y-125058714D01*
X99062419Y-125058714D01*
X99183371Y-125119190D01*
X99243847Y-125179666D01*
X99304323Y-125300619D01*
X99304323Y-125784428D01*
X98034323Y-125784428D01*
X98034323Y-125361095D01*
X98094800Y-125240142D01*
X98155276Y-125179666D01*
X98276228Y-125119190D01*
X98397180Y-125119190D01*
X98518133Y-125179666D01*
X98578609Y-125240142D01*
X98639085Y-125361095D01*
X98639085Y-125784428D01*
X99304323Y-123909666D02*
X99304323Y-124514428D01*
X98034323Y-124514428D01*
X99304323Y-122821095D02*
X99304323Y-123546809D01*
X99304323Y-123183952D02*
X98034323Y-123183952D01*
X98215752Y-123304904D01*
X98336704Y-123425857D01*
X98397180Y-123546809D01*
X101814085Y-125482047D02*
X101874561Y-125300619D01*
X101935038Y-125240142D01*
X102055990Y-125179666D01*
X102237419Y-125179666D01*
X102358371Y-125240142D01*
X102418847Y-125300619D01*
X102479323Y-125421571D01*
X102479323Y-125905380D01*
X101209323Y-125905380D01*
X101209323Y-125482047D01*
X101269800Y-125361095D01*
X101330276Y-125300619D01*
X101451228Y-125240142D01*
X101572180Y-125240142D01*
X101693133Y-125300619D01*
X101753609Y-125361095D01*
X101814085Y-125482047D01*
X101814085Y-125905380D01*
X102479323Y-124635380D02*
X101209323Y-124635380D01*
X102479323Y-123909666D02*
X101753609Y-124453952D01*
X101209323Y-123909666D02*
X101935038Y-124635380D01*
X102479323Y-122700142D02*
X102479323Y-123425857D01*
X102479323Y-123063000D02*
X101209323Y-123063000D01*
X101390752Y-123183952D01*
X101511704Y-123304904D01*
X101572180Y-123425857D01*
X82764085Y-125451809D02*
X82824561Y-125270380D01*
X82885038Y-125209904D01*
X83005990Y-125149428D01*
X83187419Y-125149428D01*
X83308371Y-125209904D01*
X83368847Y-125270380D01*
X83429323Y-125391333D01*
X83429323Y-125875142D01*
X82159323Y-125875142D01*
X82159323Y-125451809D01*
X82219800Y-125330857D01*
X82280276Y-125270380D01*
X82401228Y-125209904D01*
X82522180Y-125209904D01*
X82643133Y-125270380D01*
X82703609Y-125330857D01*
X82764085Y-125451809D01*
X82764085Y-125875142D01*
X83368847Y-124665619D02*
X83429323Y-124484190D01*
X83429323Y-124181809D01*
X83368847Y-124060857D01*
X83308371Y-124000380D01*
X83187419Y-123939904D01*
X83066466Y-123939904D01*
X82945514Y-124000380D01*
X82885038Y-124060857D01*
X82824561Y-124181809D01*
X82764085Y-124423714D01*
X82703609Y-124544666D01*
X82643133Y-124605142D01*
X82522180Y-124665619D01*
X82401228Y-124665619D01*
X82280276Y-124605142D01*
X82219800Y-124544666D01*
X82159323Y-124423714D01*
X82159323Y-124121333D01*
X82219800Y-123939904D01*
X83429323Y-122730380D02*
X83429323Y-123456095D01*
X83429323Y-123093238D02*
X82159323Y-123093238D01*
X82340752Y-123214190D01*
X82461704Y-123335142D01*
X82522180Y-123456095D01*
X120864085Y-125482047D02*
X120924561Y-125300619D01*
X120985038Y-125240142D01*
X121105990Y-125179666D01*
X121287419Y-125179666D01*
X121408371Y-125240142D01*
X121468847Y-125300619D01*
X121529323Y-125421571D01*
X121529323Y-125905380D01*
X120259323Y-125905380D01*
X120259323Y-125482047D01*
X120319800Y-125361095D01*
X120380276Y-125300619D01*
X120501228Y-125240142D01*
X120622180Y-125240142D01*
X120743133Y-125300619D01*
X120803609Y-125361095D01*
X120864085Y-125482047D01*
X120864085Y-125905380D01*
X121408371Y-123909666D02*
X121468847Y-123970142D01*
X121529323Y-124151571D01*
X121529323Y-124272523D01*
X121468847Y-124453952D01*
X121347895Y-124574904D01*
X121226942Y-124635380D01*
X120985038Y-124695857D01*
X120803609Y-124695857D01*
X120561704Y-124635380D01*
X120440752Y-124574904D01*
X120319800Y-124453952D01*
X120259323Y-124272523D01*
X120259323Y-124151571D01*
X120319800Y-123970142D01*
X120380276Y-123909666D01*
X121529323Y-122700142D02*
X121529323Y-123425857D01*
X121529323Y-123063000D02*
X120259323Y-123063000D01*
X120440752Y-123183952D01*
X120561704Y-123304904D01*
X120622180Y-123425857D01*
X178316466Y-125905380D02*
X178316466Y-125300619D01*
X178679323Y-126026333D02*
X177409323Y-125603000D01*
X178679323Y-125179666D01*
X178679323Y-124756333D02*
X177409323Y-124756333D01*
X178014085Y-124756333D02*
X178014085Y-124030619D01*
X178679323Y-124030619D02*
X177409323Y-124030619D01*
X178679323Y-122760619D02*
X178679323Y-123486333D01*
X178679323Y-123123476D02*
X177409323Y-123123476D01*
X177590752Y-123244428D01*
X177711704Y-123365380D01*
X177772180Y-123486333D01*
X152916466Y-125844904D02*
X152916466Y-125240142D01*
X153279323Y-125965857D02*
X152009323Y-125542523D01*
X153279323Y-125119190D01*
X153218847Y-124756333D02*
X153279323Y-124574904D01*
X153279323Y-124272523D01*
X153218847Y-124151571D01*
X153158371Y-124091095D01*
X153037419Y-124030619D01*
X152916466Y-124030619D01*
X152795514Y-124091095D01*
X152735038Y-124151571D01*
X152674561Y-124272523D01*
X152614085Y-124514428D01*
X152553609Y-124635380D01*
X152493133Y-124695857D01*
X152372180Y-124756333D01*
X152251228Y-124756333D01*
X152130276Y-124695857D01*
X152069800Y-124635380D01*
X152009323Y-124514428D01*
X152009323Y-124212047D01*
X152069800Y-124030619D01*
X153279323Y-122821095D02*
X153279323Y-123546809D01*
X153279323Y-123183952D02*
X152009323Y-123183952D01*
X152190752Y-123304904D01*
X152311704Y-123425857D01*
X152372180Y-123546809D01*
D10*
%TO.C,RN3*%
X171775523Y-79522580D02*
X171442190Y-79046390D01*
X171204095Y-79522580D02*
X171204095Y-78522580D01*
X171585047Y-78522580D01*
X171680285Y-78570200D01*
X171727904Y-78617819D01*
X171775523Y-78713057D01*
X171775523Y-78855914D01*
X171727904Y-78951152D01*
X171680285Y-78998771D01*
X171585047Y-79046390D01*
X171204095Y-79046390D01*
X172204095Y-79522580D02*
X172204095Y-78522580D01*
X172775523Y-79522580D01*
X172775523Y-78522580D01*
X173156476Y-78522580D02*
X173775523Y-78522580D01*
X173442190Y-78903533D01*
X173585047Y-78903533D01*
X173680285Y-78951152D01*
X173727904Y-78998771D01*
X173775523Y-79094009D01*
X173775523Y-79332104D01*
X173727904Y-79427342D01*
X173680285Y-79474961D01*
X173585047Y-79522580D01*
X173299333Y-79522580D01*
X173204095Y-79474961D01*
X173156476Y-79427342D01*
%TO.C,JP13*%
X75195276Y-116190780D02*
X75195276Y-116905066D01*
X75147657Y-117047923D01*
X75052419Y-117143161D01*
X74909561Y-117190780D01*
X74814323Y-117190780D01*
X75671466Y-117190780D02*
X75671466Y-116190780D01*
X76052419Y-116190780D01*
X76147657Y-116238400D01*
X76195276Y-116286019D01*
X76242895Y-116381257D01*
X76242895Y-116524114D01*
X76195276Y-116619352D01*
X76147657Y-116666971D01*
X76052419Y-116714590D01*
X75671466Y-116714590D01*
X77195276Y-117190780D02*
X76623847Y-117190780D01*
X76909561Y-117190780D02*
X76909561Y-116190780D01*
X76814323Y-116333638D01*
X76719085Y-116428876D01*
X76623847Y-116476495D01*
X77528609Y-116190780D02*
X78147657Y-116190780D01*
X77814323Y-116571733D01*
X77957180Y-116571733D01*
X78052419Y-116619352D01*
X78100038Y-116666971D01*
X78147657Y-116762209D01*
X78147657Y-117000304D01*
X78100038Y-117095542D01*
X78052419Y-117143161D01*
X77957180Y-117190780D01*
X77671466Y-117190780D01*
X77576228Y-117143161D01*
X77528609Y-117095542D01*
%TO.C,RN9*%
X129865523Y-79522580D02*
X129532190Y-79046390D01*
X129294095Y-79522580D02*
X129294095Y-78522580D01*
X129675047Y-78522580D01*
X129770285Y-78570200D01*
X129817904Y-78617819D01*
X129865523Y-78713057D01*
X129865523Y-78855914D01*
X129817904Y-78951152D01*
X129770285Y-78998771D01*
X129675047Y-79046390D01*
X129294095Y-79046390D01*
X130294095Y-79522580D02*
X130294095Y-78522580D01*
X130865523Y-79522580D01*
X130865523Y-78522580D01*
X131389333Y-79522580D02*
X131579809Y-79522580D01*
X131675047Y-79474961D01*
X131722666Y-79427342D01*
X131817904Y-79284485D01*
X131865523Y-79094009D01*
X131865523Y-78713057D01*
X131817904Y-78617819D01*
X131770285Y-78570200D01*
X131675047Y-78522580D01*
X131484571Y-78522580D01*
X131389333Y-78570200D01*
X131341714Y-78617819D01*
X131294095Y-78713057D01*
X131294095Y-78951152D01*
X131341714Y-79046390D01*
X131389333Y-79094009D01*
X131484571Y-79141628D01*
X131675047Y-79141628D01*
X131770285Y-79094009D01*
X131817904Y-79046390D01*
X131865523Y-78951152D01*
%TO.C,U5*%
X164932095Y-81006380D02*
X164932095Y-81815904D01*
X164979714Y-81911142D01*
X165027333Y-81958761D01*
X165122571Y-82006380D01*
X165313047Y-82006380D01*
X165408285Y-81958761D01*
X165455904Y-81911142D01*
X165503523Y-81815904D01*
X165503523Y-81006380D01*
X166455904Y-81006380D02*
X165979714Y-81006380D01*
X165932095Y-81482571D01*
X165979714Y-81434952D01*
X166074952Y-81387333D01*
X166313047Y-81387333D01*
X166408285Y-81434952D01*
X166455904Y-81482571D01*
X166503523Y-81577809D01*
X166503523Y-81815904D01*
X166455904Y-81911142D01*
X166408285Y-81958761D01*
X166313047Y-82006380D01*
X166074952Y-82006380D01*
X165979714Y-81958761D01*
X165932095Y-81911142D01*
%TO.C,RN18*%
X73458533Y-90139780D02*
X73125200Y-89663590D01*
X72887104Y-90139780D02*
X72887104Y-89139780D01*
X73268057Y-89139780D01*
X73363295Y-89187400D01*
X73410914Y-89235019D01*
X73458533Y-89330257D01*
X73458533Y-89473114D01*
X73410914Y-89568352D01*
X73363295Y-89615971D01*
X73268057Y-89663590D01*
X72887104Y-89663590D01*
X73887104Y-90139780D02*
X73887104Y-89139780D01*
X74458533Y-90139780D01*
X74458533Y-89139780D01*
X75458533Y-90139780D02*
X74887104Y-90139780D01*
X75172819Y-90139780D02*
X75172819Y-89139780D01*
X75077580Y-89282638D01*
X74982342Y-89377876D01*
X74887104Y-89425495D01*
X76029961Y-89568352D02*
X75934723Y-89520733D01*
X75887104Y-89473114D01*
X75839485Y-89377876D01*
X75839485Y-89330257D01*
X75887104Y-89235019D01*
X75934723Y-89187400D01*
X76029961Y-89139780D01*
X76220438Y-89139780D01*
X76315676Y-89187400D01*
X76363295Y-89235019D01*
X76410914Y-89330257D01*
X76410914Y-89377876D01*
X76363295Y-89473114D01*
X76315676Y-89520733D01*
X76220438Y-89568352D01*
X76029961Y-89568352D01*
X75934723Y-89615971D01*
X75887104Y-89663590D01*
X75839485Y-89758828D01*
X75839485Y-89949304D01*
X75887104Y-90044542D01*
X75934723Y-90092161D01*
X76029961Y-90139780D01*
X76220438Y-90139780D01*
X76315676Y-90092161D01*
X76363295Y-90044542D01*
X76410914Y-89949304D01*
X76410914Y-89758828D01*
X76363295Y-89663590D01*
X76315676Y-89615971D01*
X76220438Y-89568352D01*
%TO.C,RN8*%
X143784723Y-90139780D02*
X143451390Y-89663590D01*
X143213295Y-90139780D02*
X143213295Y-89139780D01*
X143594247Y-89139780D01*
X143689485Y-89187400D01*
X143737104Y-89235019D01*
X143784723Y-89330257D01*
X143784723Y-89473114D01*
X143737104Y-89568352D01*
X143689485Y-89615971D01*
X143594247Y-89663590D01*
X143213295Y-89663590D01*
X144213295Y-90139780D02*
X144213295Y-89139780D01*
X144784723Y-90139780D01*
X144784723Y-89139780D01*
X145403771Y-89568352D02*
X145308533Y-89520733D01*
X145260914Y-89473114D01*
X145213295Y-89377876D01*
X145213295Y-89330257D01*
X145260914Y-89235019D01*
X145308533Y-89187400D01*
X145403771Y-89139780D01*
X145594247Y-89139780D01*
X145689485Y-89187400D01*
X145737104Y-89235019D01*
X145784723Y-89330257D01*
X145784723Y-89377876D01*
X145737104Y-89473114D01*
X145689485Y-89520733D01*
X145594247Y-89568352D01*
X145403771Y-89568352D01*
X145308533Y-89615971D01*
X145260914Y-89663590D01*
X145213295Y-89758828D01*
X145213295Y-89949304D01*
X145260914Y-90044542D01*
X145308533Y-90092161D01*
X145403771Y-90139780D01*
X145594247Y-90139780D01*
X145689485Y-90092161D01*
X145737104Y-90044542D01*
X145784723Y-89949304D01*
X145784723Y-89758828D01*
X145737104Y-89663590D01*
X145689485Y-89615971D01*
X145594247Y-89568352D01*
%TO.C,JP11*%
X81470976Y-70804380D02*
X81470976Y-71518666D01*
X81423357Y-71661523D01*
X81328119Y-71756761D01*
X81185261Y-71804380D01*
X81090023Y-71804380D01*
X81947166Y-71804380D02*
X81947166Y-70804380D01*
X82328119Y-70804380D01*
X82423357Y-70852000D01*
X82470976Y-70899619D01*
X82518595Y-70994857D01*
X82518595Y-71137714D01*
X82470976Y-71232952D01*
X82423357Y-71280571D01*
X82328119Y-71328190D01*
X81947166Y-71328190D01*
X83470976Y-71804380D02*
X82899547Y-71804380D01*
X83185261Y-71804380D02*
X83185261Y-70804380D01*
X83090023Y-70947238D01*
X82994785Y-71042476D01*
X82899547Y-71090095D01*
X84423357Y-71804380D02*
X83851928Y-71804380D01*
X84137642Y-71804380D02*
X84137642Y-70804380D01*
X84042404Y-70947238D01*
X83947166Y-71042476D01*
X83851928Y-71090095D01*
%TO.C,C24*%
X97324942Y-77192142D02*
X97277323Y-77239761D01*
X97134466Y-77287380D01*
X97039228Y-77287380D01*
X96896371Y-77239761D01*
X96801133Y-77144523D01*
X96753514Y-77049285D01*
X96705895Y-76858809D01*
X96705895Y-76715952D01*
X96753514Y-76525476D01*
X96801133Y-76430238D01*
X96896371Y-76335000D01*
X97039228Y-76287380D01*
X97134466Y-76287380D01*
X97277323Y-76335000D01*
X97324942Y-76382619D01*
X97705895Y-76382619D02*
X97753514Y-76335000D01*
X97848752Y-76287380D01*
X98086847Y-76287380D01*
X98182085Y-76335000D01*
X98229704Y-76382619D01*
X98277323Y-76477857D01*
X98277323Y-76573095D01*
X98229704Y-76715952D01*
X97658276Y-77287380D01*
X98277323Y-77287380D01*
X99134466Y-76620714D02*
X99134466Y-77287380D01*
X98896371Y-76239761D02*
X98658276Y-76954047D01*
X99277323Y-76954047D01*
%TO.C,C10*%
X145661142Y-77954142D02*
X145613523Y-78001761D01*
X145470666Y-78049380D01*
X145375428Y-78049380D01*
X145232571Y-78001761D01*
X145137333Y-77906523D01*
X145089714Y-77811285D01*
X145042095Y-77620809D01*
X145042095Y-77477952D01*
X145089714Y-77287476D01*
X145137333Y-77192238D01*
X145232571Y-77097000D01*
X145375428Y-77049380D01*
X145470666Y-77049380D01*
X145613523Y-77097000D01*
X145661142Y-77144619D01*
X146613523Y-78049380D02*
X146042095Y-78049380D01*
X146327809Y-78049380D02*
X146327809Y-77049380D01*
X146232571Y-77192238D01*
X146137333Y-77287476D01*
X146042095Y-77335095D01*
X147232571Y-77049380D02*
X147327809Y-77049380D01*
X147423047Y-77097000D01*
X147470666Y-77144619D01*
X147518285Y-77239857D01*
X147565904Y-77430333D01*
X147565904Y-77668428D01*
X147518285Y-77858904D01*
X147470666Y-77954142D01*
X147423047Y-78001761D01*
X147327809Y-78049380D01*
X147232571Y-78049380D01*
X147137333Y-78001761D01*
X147089714Y-77954142D01*
X147042095Y-77858904D01*
X146994476Y-77668428D01*
X146994476Y-77430333D01*
X147042095Y-77239857D01*
X147089714Y-77144619D01*
X147137333Y-77097000D01*
X147232571Y-77049380D01*
%TO.C,JP8*%
X123857166Y-70804380D02*
X123857166Y-71518666D01*
X123809547Y-71661523D01*
X123714309Y-71756761D01*
X123571452Y-71804380D01*
X123476214Y-71804380D01*
X124333357Y-71804380D02*
X124333357Y-70804380D01*
X124714309Y-70804380D01*
X124809547Y-70852000D01*
X124857166Y-70899619D01*
X124904785Y-70994857D01*
X124904785Y-71137714D01*
X124857166Y-71232952D01*
X124809547Y-71280571D01*
X124714309Y-71328190D01*
X124333357Y-71328190D01*
X125476214Y-71232952D02*
X125380976Y-71185333D01*
X125333357Y-71137714D01*
X125285738Y-71042476D01*
X125285738Y-70994857D01*
X125333357Y-70899619D01*
X125380976Y-70852000D01*
X125476214Y-70804380D01*
X125666690Y-70804380D01*
X125761928Y-70852000D01*
X125809547Y-70899619D01*
X125857166Y-70994857D01*
X125857166Y-71042476D01*
X125809547Y-71137714D01*
X125761928Y-71185333D01*
X125666690Y-71232952D01*
X125476214Y-71232952D01*
X125380976Y-71280571D01*
X125333357Y-71328190D01*
X125285738Y-71423428D01*
X125285738Y-71613904D01*
X125333357Y-71709142D01*
X125380976Y-71756761D01*
X125476214Y-71804380D01*
X125666690Y-71804380D01*
X125761928Y-71756761D01*
X125809547Y-71709142D01*
X125857166Y-71613904D01*
X125857166Y-71423428D01*
X125809547Y-71328190D01*
X125761928Y-71280571D01*
X125666690Y-71232952D01*
%TO.C,RN6*%
X157754723Y-90139780D02*
X157421390Y-89663590D01*
X157183295Y-90139780D02*
X157183295Y-89139780D01*
X157564247Y-89139780D01*
X157659485Y-89187400D01*
X157707104Y-89235019D01*
X157754723Y-89330257D01*
X157754723Y-89473114D01*
X157707104Y-89568352D01*
X157659485Y-89615971D01*
X157564247Y-89663590D01*
X157183295Y-89663590D01*
X158183295Y-90139780D02*
X158183295Y-89139780D01*
X158754723Y-90139780D01*
X158754723Y-89139780D01*
X159659485Y-89139780D02*
X159469009Y-89139780D01*
X159373771Y-89187400D01*
X159326152Y-89235019D01*
X159230914Y-89377876D01*
X159183295Y-89568352D01*
X159183295Y-89949304D01*
X159230914Y-90044542D01*
X159278533Y-90092161D01*
X159373771Y-90139780D01*
X159564247Y-90139780D01*
X159659485Y-90092161D01*
X159707104Y-90044542D01*
X159754723Y-89949304D01*
X159754723Y-89711209D01*
X159707104Y-89615971D01*
X159659485Y-89568352D01*
X159564247Y-89520733D01*
X159373771Y-89520733D01*
X159278533Y-89568352D01*
X159230914Y-89615971D01*
X159183295Y-89711209D01*
%TO.C,RN5*%
X157805523Y-79522580D02*
X157472190Y-79046390D01*
X157234095Y-79522580D02*
X157234095Y-78522580D01*
X157615047Y-78522580D01*
X157710285Y-78570200D01*
X157757904Y-78617819D01*
X157805523Y-78713057D01*
X157805523Y-78855914D01*
X157757904Y-78951152D01*
X157710285Y-78998771D01*
X157615047Y-79046390D01*
X157234095Y-79046390D01*
X158234095Y-79522580D02*
X158234095Y-78522580D01*
X158805523Y-79522580D01*
X158805523Y-78522580D01*
X159757904Y-78522580D02*
X159281714Y-78522580D01*
X159234095Y-78998771D01*
X159281714Y-78951152D01*
X159376952Y-78903533D01*
X159615047Y-78903533D01*
X159710285Y-78951152D01*
X159757904Y-78998771D01*
X159805523Y-79094009D01*
X159805523Y-79332104D01*
X159757904Y-79427342D01*
X159710285Y-79474961D01*
X159615047Y-79522580D01*
X159376952Y-79522580D01*
X159281714Y-79474961D01*
X159234095Y-79427342D01*
%TO.C,C5*%
X181529333Y-91711142D02*
X181481714Y-91758761D01*
X181338857Y-91806380D01*
X181243619Y-91806380D01*
X181100761Y-91758761D01*
X181005523Y-91663523D01*
X180957904Y-91568285D01*
X180910285Y-91377809D01*
X180910285Y-91234952D01*
X180957904Y-91044476D01*
X181005523Y-90949238D01*
X181100761Y-90854000D01*
X181243619Y-90806380D01*
X181338857Y-90806380D01*
X181481714Y-90854000D01*
X181529333Y-90901619D01*
X182434095Y-90806380D02*
X181957904Y-90806380D01*
X181910285Y-91282571D01*
X181957904Y-91234952D01*
X182053142Y-91187333D01*
X182291238Y-91187333D01*
X182386476Y-91234952D01*
X182434095Y-91282571D01*
X182481714Y-91377809D01*
X182481714Y-91615904D01*
X182434095Y-91711142D01*
X182386476Y-91758761D01*
X182291238Y-91806380D01*
X182053142Y-91806380D01*
X181957904Y-91758761D01*
X181910285Y-91711142D01*
%TO.C,RN15*%
X87479333Y-79522580D02*
X87146000Y-79046390D01*
X86907904Y-79522580D02*
X86907904Y-78522580D01*
X87288857Y-78522580D01*
X87384095Y-78570200D01*
X87431714Y-78617819D01*
X87479333Y-78713057D01*
X87479333Y-78855914D01*
X87431714Y-78951152D01*
X87384095Y-78998771D01*
X87288857Y-79046390D01*
X86907904Y-79046390D01*
X87907904Y-79522580D02*
X87907904Y-78522580D01*
X88479333Y-79522580D01*
X88479333Y-78522580D01*
X89479333Y-79522580D02*
X88907904Y-79522580D01*
X89193619Y-79522580D02*
X89193619Y-78522580D01*
X89098380Y-78665438D01*
X89003142Y-78760676D01*
X88907904Y-78808295D01*
X90384095Y-78522580D02*
X89907904Y-78522580D01*
X89860285Y-78998771D01*
X89907904Y-78951152D01*
X90003142Y-78903533D01*
X90241238Y-78903533D01*
X90336476Y-78951152D01*
X90384095Y-78998771D01*
X90431714Y-79094009D01*
X90431714Y-79332104D01*
X90384095Y-79427342D01*
X90336476Y-79474961D01*
X90241238Y-79522580D01*
X90003142Y-79522580D01*
X89907904Y-79474961D01*
X89860285Y-79427342D01*
%TO.C,JP5*%
X157637266Y-59751980D02*
X157637266Y-60466266D01*
X157589647Y-60609123D01*
X157494409Y-60704361D01*
X157351552Y-60751980D01*
X157256314Y-60751980D01*
X158113457Y-60751980D02*
X158113457Y-59751980D01*
X158494409Y-59751980D01*
X158589647Y-59799600D01*
X158637266Y-59847219D01*
X158684885Y-59942457D01*
X158684885Y-60085314D01*
X158637266Y-60180552D01*
X158589647Y-60228171D01*
X158494409Y-60275790D01*
X158113457Y-60275790D01*
X159589647Y-59751980D02*
X159113457Y-59751980D01*
X159065838Y-60228171D01*
X159113457Y-60180552D01*
X159208695Y-60132933D01*
X159446790Y-60132933D01*
X159542028Y-60180552D01*
X159589647Y-60228171D01*
X159637266Y-60323409D01*
X159637266Y-60561504D01*
X159589647Y-60656742D01*
X159542028Y-60704361D01*
X159446790Y-60751980D01*
X159208695Y-60751980D01*
X159113457Y-60704361D01*
X159065838Y-60656742D01*
%TO.C,U11*%
X122545904Y-81006380D02*
X122545904Y-81815904D01*
X122593523Y-81911142D01*
X122641142Y-81958761D01*
X122736380Y-82006380D01*
X122926857Y-82006380D01*
X123022095Y-81958761D01*
X123069714Y-81911142D01*
X123117333Y-81815904D01*
X123117333Y-81006380D01*
X124117333Y-82006380D02*
X123545904Y-82006380D01*
X123831619Y-82006380D02*
X123831619Y-81006380D01*
X123736380Y-81149238D01*
X123641142Y-81244476D01*
X123545904Y-81292095D01*
X125069714Y-82006380D02*
X124498285Y-82006380D01*
X124784000Y-82006380D02*
X124784000Y-81006380D01*
X124688761Y-81149238D01*
X124593523Y-81244476D01*
X124498285Y-81292095D01*
%TO.C,C4*%
X174585333Y-77954142D02*
X174537714Y-78001761D01*
X174394857Y-78049380D01*
X174299619Y-78049380D01*
X174156761Y-78001761D01*
X174061523Y-77906523D01*
X174013904Y-77811285D01*
X173966285Y-77620809D01*
X173966285Y-77477952D01*
X174013904Y-77287476D01*
X174061523Y-77192238D01*
X174156761Y-77097000D01*
X174299619Y-77049380D01*
X174394857Y-77049380D01*
X174537714Y-77097000D01*
X174585333Y-77144619D01*
X175442476Y-77382714D02*
X175442476Y-78049380D01*
X175204380Y-77001761D02*
X174966285Y-77716047D01*
X175585333Y-77716047D01*
%TO.C,U15*%
X94605904Y-81006380D02*
X94605904Y-81815904D01*
X94653523Y-81911142D01*
X94701142Y-81958761D01*
X94796380Y-82006380D01*
X94986857Y-82006380D01*
X95082095Y-81958761D01*
X95129714Y-81911142D01*
X95177333Y-81815904D01*
X95177333Y-81006380D01*
X96177333Y-82006380D02*
X95605904Y-82006380D01*
X95891619Y-82006380D02*
X95891619Y-81006380D01*
X95796380Y-81149238D01*
X95701142Y-81244476D01*
X95605904Y-81292095D01*
X97082095Y-81006380D02*
X96605904Y-81006380D01*
X96558285Y-81482571D01*
X96605904Y-81434952D01*
X96701142Y-81387333D01*
X96939238Y-81387333D01*
X97034476Y-81434952D01*
X97082095Y-81482571D01*
X97129714Y-81577809D01*
X97129714Y-81815904D01*
X97082095Y-81911142D01*
X97034476Y-81958761D01*
X96939238Y-82006380D01*
X96701142Y-82006380D01*
X96605904Y-81958761D01*
X96558285Y-81911142D01*
D12*
%TO.C,R13*%
X78953758Y-71613500D02*
X78479242Y-71613500D01*
X78953758Y-72658500D02*
X78479242Y-72658500D01*
%TO.C,R12*%
X78479242Y-74690500D02*
X78953758Y-74690500D01*
X78479242Y-73645500D02*
X78953758Y-73645500D01*
%TO.C,R11*%
X92923758Y-71613500D02*
X92449242Y-71613500D01*
X92923758Y-72658500D02*
X92449242Y-72658500D01*
%TO.C,R10*%
X92449242Y-74690500D02*
X92923758Y-74690500D01*
X92449242Y-73645500D02*
X92923758Y-73645500D01*
%TO.C,R9*%
X106893758Y-71613500D02*
X106419242Y-71613500D01*
X106893758Y-72658500D02*
X106419242Y-72658500D01*
%TO.C,R8*%
X106419242Y-74690500D02*
X106893758Y-74690500D01*
X106419242Y-73645500D02*
X106893758Y-73645500D01*
%TO.C,R7*%
X120887258Y-71613500D02*
X120412742Y-71613500D01*
X120887258Y-72658500D02*
X120412742Y-72658500D01*
%TO.C,R6*%
X120412742Y-74690500D02*
X120887258Y-74690500D01*
X120412742Y-73645500D02*
X120887258Y-73645500D01*
%TO.C,R5*%
X134857258Y-71613500D02*
X134382742Y-71613500D01*
X134857258Y-72658500D02*
X134382742Y-72658500D01*
%TO.C,R4*%
X134382742Y-74690500D02*
X134857258Y-74690500D01*
X134382742Y-73645500D02*
X134857258Y-73645500D01*
%TO.C,R3*%
X148827258Y-71613500D02*
X148352742Y-71613500D01*
X148827258Y-72658500D02*
X148352742Y-72658500D01*
%TO.C,R2*%
X148352742Y-74690500D02*
X148827258Y-74690500D01*
X148352742Y-73645500D02*
X148827258Y-73645500D01*
%TO.C,R1*%
X159018500Y-67777758D02*
X159018500Y-67303242D01*
X157973500Y-67777758D02*
X157973500Y-67303242D01*
%TO.C,C26*%
X80998580Y-90844000D02*
X80717420Y-90844000D01*
X80998580Y-91864000D02*
X80717420Y-91864000D01*
%TO.C,RN13*%
X103127000Y-80108000D02*
X102127000Y-80108000D01*
X103127000Y-83468000D02*
X102127000Y-83468000D01*
%TO.C,C21*%
X111453200Y-80150580D02*
X111453200Y-79869420D01*
X112473200Y-80150580D02*
X112473200Y-79869420D01*
%TO.C,C1*%
X189990000Y-78499580D02*
X189990000Y-78218420D01*
X191010000Y-78499580D02*
X191010000Y-78218420D01*
%TO.C,U1*%
X192913000Y-87698000D02*
X190713000Y-87698000D01*
X192913000Y-82228000D02*
X189313000Y-82228000D01*
X192913000Y-82228000D02*
X195113000Y-82228000D01*
X192913000Y-87698000D02*
X195113000Y-87698000D01*
%TO.C,JP6*%
X153330500Y-74152000D02*
X151930500Y-74152000D01*
X154030500Y-72852000D02*
X154030500Y-73452000D01*
X151230500Y-73452000D02*
X151230500Y-72852000D01*
X151930500Y-72152000D02*
X153330500Y-72152000D01*
X154030500Y-72852000D02*
G75*
G03*
X153330500Y-72152000I-700000J0D01*
G01*
X153330500Y-74152000D02*
G75*
G03*
X154030500Y-73452000I0J700000D01*
G01*
X151930500Y-72152000D02*
G75*
G03*
X151230500Y-72852000I-1J-699999D01*
G01*
X151230500Y-73452000D02*
G75*
G03*
X151930500Y-74152000I699999J-1D01*
G01*
%TO.C,C25*%
X78230000Y-78499580D02*
X78230000Y-78218420D01*
X79250000Y-78499580D02*
X79250000Y-78218420D01*
%TO.C,U9*%
X137033000Y-87698000D02*
X139233000Y-87698000D01*
X137033000Y-82228000D02*
X139233000Y-82228000D01*
X137033000Y-87698000D02*
X134833000Y-87698000D01*
X137033000Y-82228000D02*
X133433000Y-82228000D01*
%TO.C,RN10*%
X131067000Y-85188000D02*
X130067000Y-85188000D01*
X131067000Y-88548000D02*
X130067000Y-88548000D01*
%TO.C,U18*%
X78867000Y-93658000D02*
X81067000Y-93658000D01*
X78867000Y-93658000D02*
X75267000Y-93658000D01*
X78867000Y-99128000D02*
X76667000Y-99128000D01*
X78867000Y-99128000D02*
X81067000Y-99128000D01*
%TO.C,C8*%
X164818580Y-91864000D02*
X164537420Y-91864000D01*
X164818580Y-90844000D02*
X164537420Y-90844000D01*
%TO.C,C2*%
X192758580Y-91864000D02*
X192477420Y-91864000D01*
X192758580Y-90844000D02*
X192477420Y-90844000D01*
%TO.C,RN7*%
X145037000Y-80108000D02*
X144037000Y-80108000D01*
X145037000Y-83468000D02*
X144037000Y-83468000D01*
%TO.C,C14*%
X136878580Y-90844000D02*
X136597420Y-90844000D01*
X136878580Y-91864000D02*
X136597420Y-91864000D01*
%TO.C,C15*%
X140413200Y-80150580D02*
X140413200Y-79869420D01*
X139393200Y-80150580D02*
X139393200Y-79869420D01*
%TO.C,U14*%
X106807000Y-99128000D02*
X104607000Y-99128000D01*
X106807000Y-93658000D02*
X109007000Y-93658000D01*
X106807000Y-93658000D02*
X103207000Y-93658000D01*
X106807000Y-99128000D02*
X109007000Y-99128000D01*
%TO.C,U7*%
X151003000Y-82228000D02*
X153203000Y-82228000D01*
X151003000Y-87698000D02*
X153203000Y-87698000D01*
X151003000Y-87698000D02*
X148803000Y-87698000D01*
X151003000Y-82228000D02*
X147403000Y-82228000D01*
%TO.C,RN16*%
X89157000Y-85188000D02*
X88157000Y-85188000D01*
X89157000Y-88548000D02*
X88157000Y-88548000D01*
%TO.C,JP12*%
X150529800Y-116013000D02*
X150529800Y-117413000D01*
X148529800Y-117413000D02*
X148529800Y-116013000D01*
X149229800Y-115313000D02*
X149829800Y-115313000D01*
X149829800Y-118113000D02*
X149229800Y-118113000D01*
X148529800Y-117413000D02*
G75*
G03*
X149229800Y-118113000I699999J-1D01*
G01*
X150529800Y-116013000D02*
G75*
G03*
X149829800Y-115313000I-700000J0D01*
G01*
X149229800Y-115313000D02*
G75*
G03*
X148529800Y-116013000I0J-700000D01*
G01*
X149829800Y-118113000D02*
G75*
G03*
X150529800Y-117413000I1J699999D01*
G01*
%TO.C,U16*%
X92837000Y-93658000D02*
X95037000Y-93658000D01*
X92837000Y-93658000D02*
X89237000Y-93658000D01*
X92837000Y-99128000D02*
X95037000Y-99128000D01*
X92837000Y-99128000D02*
X90637000Y-99128000D01*
%TO.C,U8*%
X148717000Y-99128000D02*
X150917000Y-99128000D01*
X148717000Y-99128000D02*
X146517000Y-99128000D01*
X148717000Y-93658000D02*
X150917000Y-93658000D01*
X148717000Y-93658000D02*
X145117000Y-93658000D01*
%TO.C,U4*%
X176657000Y-99128000D02*
X178857000Y-99128000D01*
X176657000Y-93658000D02*
X178857000Y-93658000D01*
X176657000Y-93658000D02*
X173057000Y-93658000D01*
X176657000Y-99128000D02*
X174457000Y-99128000D01*
%TO.C,C17*%
X122908580Y-90844000D02*
X122627420Y-90844000D01*
X122908580Y-91864000D02*
X122627420Y-91864000D01*
%TO.C,RN14*%
X103127000Y-85188000D02*
X102127000Y-85188000D01*
X103127000Y-88548000D02*
X102127000Y-88548000D01*
%TO.C,J2*%
X186698000Y-102390500D02*
X187198000Y-103390500D01*
X165118000Y-105090500D02*
X191108000Y-105090500D01*
X133728000Y-103780500D02*
X192408000Y-103780500D01*
X135028000Y-111590500D02*
X135028000Y-105090500D01*
X192408000Y-103780500D02*
X192408000Y-112900500D01*
X161018000Y-105090500D02*
X161018000Y-105090500D01*
X187698000Y-102390500D02*
X186698000Y-102390500D01*
X187198000Y-103390500D02*
X187698000Y-102390500D01*
X191108000Y-105090500D02*
X191108000Y-111590500D01*
X191108000Y-111590500D02*
X135028000Y-111590500D01*
X192408000Y-112900500D02*
X133728000Y-112900500D01*
X161018000Y-105090500D02*
X161018000Y-103780500D01*
X135028000Y-105090500D02*
X161018000Y-105090500D01*
X133728000Y-112900500D02*
X133728000Y-103780500D01*
X165118000Y-103780500D02*
X165118000Y-105090500D01*
%TO.C,C13*%
X135130000Y-78499580D02*
X135130000Y-78218420D01*
X134110000Y-78499580D02*
X134110000Y-78218420D01*
%TO.C,C3*%
X196293200Y-80150580D02*
X196293200Y-79869420D01*
X195273200Y-80150580D02*
X195273200Y-79869420D01*
%TO.C,C27*%
X83513200Y-80150580D02*
X83513200Y-79869420D01*
X84533200Y-80150580D02*
X84533200Y-79869420D01*
%TO.C,C19*%
X106170000Y-78499580D02*
X106170000Y-78218420D01*
X107190000Y-78499580D02*
X107190000Y-78218420D01*
%TO.C,RN4*%
X172977000Y-85188000D02*
X171977000Y-85188000D01*
X172977000Y-88548000D02*
X171977000Y-88548000D01*
%TO.C,U2*%
X190627000Y-93658000D02*
X192827000Y-93658000D01*
X190627000Y-99128000D02*
X192827000Y-99128000D01*
X190627000Y-93658000D02*
X187027000Y-93658000D01*
X190627000Y-99128000D02*
X188427000Y-99128000D01*
%TO.C,RN11*%
X117097000Y-80108000D02*
X116097000Y-80108000D01*
X117097000Y-83468000D02*
X116097000Y-83468000D01*
%TO.C,RN17*%
X75187000Y-83468000D02*
X74187000Y-83468000D01*
X75187000Y-80108000D02*
X74187000Y-80108000D01*
%TO.C,C12*%
X154383200Y-80150580D02*
X154383200Y-79869420D01*
X153363200Y-80150580D02*
X153363200Y-79869420D01*
%TO.C,RN2*%
X186947000Y-88548000D02*
X185947000Y-88548000D01*
X186947000Y-85188000D02*
X185947000Y-85188000D01*
%TO.C,C20*%
X108938580Y-90844000D02*
X108657420Y-90844000D01*
X108938580Y-91864000D02*
X108657420Y-91864000D01*
%TO.C,JP7*%
X137260500Y-73452000D02*
X137260500Y-72852000D01*
X140060500Y-72852000D02*
X140060500Y-73452000D01*
X139360500Y-74152000D02*
X137960500Y-74152000D01*
X137960500Y-72152000D02*
X139360500Y-72152000D01*
X140060500Y-72852000D02*
G75*
G03*
X139360500Y-72152000I-700000J0D01*
G01*
X137960500Y-72152000D02*
G75*
G03*
X137260500Y-72852000I-1J-699999D01*
G01*
X137260500Y-73452000D02*
G75*
G03*
X137960500Y-74152000I699999J-1D01*
G01*
X139360500Y-74152000D02*
G75*
G03*
X140060500Y-73452000I0J700000D01*
G01*
%TO.C,C6*%
X181303200Y-80150580D02*
X181303200Y-79869420D01*
X182323200Y-80150580D02*
X182323200Y-79869420D01*
%TO.C,C22*%
X93220000Y-78499580D02*
X93220000Y-78218420D01*
X92200000Y-78499580D02*
X92200000Y-78218420D01*
%TO.C,U6*%
X162687000Y-99128000D02*
X164887000Y-99128000D01*
X162687000Y-93658000D02*
X159087000Y-93658000D01*
X162687000Y-93658000D02*
X164887000Y-93658000D01*
X162687000Y-99128000D02*
X160487000Y-99128000D01*
%TO.C,C7*%
X162050000Y-78499580D02*
X162050000Y-78218420D01*
X163070000Y-78499580D02*
X163070000Y-78218420D01*
%TO.C,U12*%
X120777000Y-93658000D02*
X122977000Y-93658000D01*
X120777000Y-99128000D02*
X118577000Y-99128000D01*
X120777000Y-99128000D02*
X122977000Y-99128000D01*
X120777000Y-93658000D02*
X117177000Y-93658000D01*
%TO.C,RN1*%
X186947000Y-80108000D02*
X185947000Y-80108000D01*
X186947000Y-83468000D02*
X185947000Y-83468000D01*
%TO.C,J3*%
X104158000Y-103780500D02*
X104158000Y-105090500D01*
X100058000Y-105090500D02*
X100058000Y-103780500D01*
X131448000Y-103780500D02*
X131448000Y-112900500D01*
X74068000Y-111590500D02*
X74068000Y-105090500D01*
X130148000Y-105090500D02*
X130148000Y-111590500D01*
X125738000Y-102390500D02*
X126238000Y-103390500D01*
X126238000Y-103390500D02*
X126738000Y-102390500D01*
X72768000Y-112900500D02*
X72768000Y-103780500D01*
X130148000Y-111590500D02*
X74068000Y-111590500D01*
X126738000Y-102390500D02*
X125738000Y-102390500D01*
X72768000Y-103780500D02*
X131448000Y-103780500D01*
X104158000Y-105090500D02*
X130148000Y-105090500D01*
X74068000Y-105090500D02*
X100058000Y-105090500D01*
X100058000Y-105090500D02*
X100058000Y-105090500D01*
X131448000Y-112900500D02*
X72768000Y-112900500D01*
%TO.C,JP10*%
X95350500Y-73452000D02*
X95350500Y-72852000D01*
X98150500Y-72852000D02*
X98150500Y-73452000D01*
X97450500Y-74152000D02*
X96050500Y-74152000D01*
X96050500Y-72152000D02*
X97450500Y-72152000D01*
X97450500Y-74152000D02*
G75*
G03*
X98150500Y-73452000I0J700000D01*
G01*
X96050500Y-72152000D02*
G75*
G03*
X95350500Y-72852000I-1J-699999D01*
G01*
X95350500Y-73452000D02*
G75*
G03*
X96050500Y-74152000I699999J-1D01*
G01*
X98150500Y-72852000D02*
G75*
G03*
X97450500Y-72152000I-700000J0D01*
G01*
%TO.C,U17*%
X81153000Y-82228000D02*
X77553000Y-82228000D01*
X81153000Y-87698000D02*
X78953000Y-87698000D01*
X81153000Y-82228000D02*
X83353000Y-82228000D01*
X81153000Y-87698000D02*
X83353000Y-87698000D01*
%TO.C,J1*%
X177274000Y-67485000D02*
X177274000Y-58365000D01*
X162684000Y-58365000D02*
X195964000Y-58365000D01*
X167894000Y-73105000D02*
X167394000Y-74105000D01*
X195964000Y-67485000D02*
X162684000Y-67485000D01*
X195964000Y-58365000D02*
X195964000Y-67485000D01*
X181374000Y-67485000D02*
X181374000Y-58365000D01*
X167394000Y-74105000D02*
X168394000Y-74105000D01*
X168394000Y-74105000D02*
X167894000Y-73105000D01*
X162684000Y-67485000D02*
X162684000Y-58365000D01*
%TO.C,JP9*%
X109320500Y-73452000D02*
X109320500Y-72852000D01*
X111420500Y-74152000D02*
X110020500Y-74152000D01*
X112120500Y-72852000D02*
X112120500Y-73452000D01*
X110020500Y-72152000D02*
X111420500Y-72152000D01*
X112120500Y-72852000D02*
G75*
G03*
X111420500Y-72152000I-700000J0D01*
G01*
X110020500Y-72152000D02*
G75*
G03*
X109320500Y-72852000I-1J-699999D01*
G01*
X111420500Y-74152000D02*
G75*
G03*
X112120500Y-73452000I0J700000D01*
G01*
X109320500Y-73452000D02*
G75*
G03*
X110020500Y-74152000I699999J-1D01*
G01*
%TO.C,RN12*%
X117097000Y-88548000D02*
X116097000Y-88548000D01*
X117097000Y-85188000D02*
X116097000Y-85188000D01*
%TO.C,C23*%
X94968580Y-90844000D02*
X94687420Y-90844000D01*
X94968580Y-91864000D02*
X94687420Y-91864000D01*
%TO.C,C11*%
X150848580Y-91864000D02*
X150567420Y-91864000D01*
X150848580Y-90844000D02*
X150567420Y-90844000D01*
%TO.C,U3*%
X178943000Y-87698000D02*
X176743000Y-87698000D01*
X178943000Y-82228000D02*
X175343000Y-82228000D01*
X178943000Y-87698000D02*
X181143000Y-87698000D01*
X178943000Y-82228000D02*
X181143000Y-82228000D01*
%TO.C,C16*%
X121160000Y-78499580D02*
X121160000Y-78218420D01*
X120140000Y-78499580D02*
X120140000Y-78218420D01*
%TO.C,U13*%
X109093000Y-87698000D02*
X106893000Y-87698000D01*
X109093000Y-82228000D02*
X105493000Y-82228000D01*
X109093000Y-87698000D02*
X111293000Y-87698000D01*
X109093000Y-82228000D02*
X111293000Y-82228000D01*
%TO.C,U10*%
X134747000Y-93658000D02*
X131147000Y-93658000D01*
X134747000Y-99128000D02*
X132547000Y-99128000D01*
X134747000Y-93658000D02*
X136947000Y-93658000D01*
X134747000Y-99128000D02*
X136947000Y-99128000D01*
%TO.C,C18*%
X125423200Y-80150580D02*
X125423200Y-79869420D01*
X126443200Y-80150580D02*
X126443200Y-79869420D01*
%TO.C,C9*%
X168353200Y-80150580D02*
X168353200Y-79869420D01*
X167333200Y-80150580D02*
X167333200Y-79869420D01*
%TO.C,RN3*%
X172977000Y-80108000D02*
X171977000Y-80108000D01*
X172977000Y-83468000D02*
X171977000Y-83468000D01*
%TO.C,JP13*%
X79979800Y-118113000D02*
X79379800Y-118113000D01*
X79379800Y-115313000D02*
X79979800Y-115313000D01*
X80679800Y-116013000D02*
X80679800Y-117413000D01*
X78679800Y-117413000D02*
X78679800Y-116013000D01*
X78679800Y-117413000D02*
G75*
G03*
X79379800Y-118113000I699999J-1D01*
G01*
X79379800Y-115313000D02*
G75*
G03*
X78679800Y-116013000I0J-700000D01*
G01*
X80679800Y-116013000D02*
G75*
G03*
X79979800Y-115313000I-700000J0D01*
G01*
X79979800Y-118113000D02*
G75*
G03*
X80679800Y-117413000I1J699999D01*
G01*
%TO.C,RN9*%
X131067000Y-80108000D02*
X130067000Y-80108000D01*
X131067000Y-83468000D02*
X130067000Y-83468000D01*
%TO.C,U5*%
X164973000Y-82228000D02*
X167173000Y-82228000D01*
X164973000Y-82228000D02*
X161373000Y-82228000D01*
X164973000Y-87698000D02*
X167173000Y-87698000D01*
X164973000Y-87698000D02*
X162773000Y-87698000D01*
%TO.C,RN18*%
X75187000Y-85188000D02*
X74187000Y-85188000D01*
X75187000Y-88548000D02*
X74187000Y-88548000D01*
%TO.C,RN8*%
X145037000Y-88548000D02*
X144037000Y-88548000D01*
X145037000Y-85188000D02*
X144037000Y-85188000D01*
%TO.C,JP11*%
X82080500Y-72152000D02*
X83480500Y-72152000D01*
X81380500Y-73452000D02*
X81380500Y-72852000D01*
X83480500Y-74152000D02*
X82080500Y-74152000D01*
X84180500Y-72852000D02*
X84180500Y-73452000D01*
X81380500Y-73452000D02*
G75*
G03*
X82080500Y-74152000I699999J-1D01*
G01*
X84180500Y-72852000D02*
G75*
G03*
X83480500Y-72152000I-700000J0D01*
G01*
X83480500Y-74152000D02*
G75*
G03*
X84180500Y-73452000I0J700000D01*
G01*
X82080500Y-72152000D02*
G75*
G03*
X81380500Y-72852000I-1J-699999D01*
G01*
%TO.C,C24*%
X97483200Y-80150580D02*
X97483200Y-79869420D01*
X98503200Y-80150580D02*
X98503200Y-79869420D01*
%TO.C,C10*%
X148080000Y-78499580D02*
X148080000Y-78218420D01*
X149100000Y-78499580D02*
X149100000Y-78218420D01*
%TO.C,JP8*%
X125390500Y-74152000D02*
X123990500Y-74152000D01*
X126090500Y-72852000D02*
X126090500Y-73452000D01*
X123990500Y-72152000D02*
X125390500Y-72152000D01*
X123290500Y-73452000D02*
X123290500Y-72852000D01*
X126090500Y-72852000D02*
G75*
G03*
X125390500Y-72152000I-700000J0D01*
G01*
X123290500Y-73452000D02*
G75*
G03*
X123990500Y-74152000I699999J-1D01*
G01*
X125390500Y-74152000D02*
G75*
G03*
X126090500Y-73452000I0J700000D01*
G01*
X123990500Y-72152000D02*
G75*
G03*
X123290500Y-72852000I-1J-699999D01*
G01*
%TO.C,RN6*%
X159007000Y-88548000D02*
X158007000Y-88548000D01*
X159007000Y-85188000D02*
X158007000Y-85188000D01*
%TO.C,RN5*%
X159007000Y-83468000D02*
X158007000Y-83468000D01*
X159007000Y-80108000D02*
X158007000Y-80108000D01*
%TO.C,C5*%
X178788580Y-90844000D02*
X178507420Y-90844000D01*
X178788580Y-91864000D02*
X178507420Y-91864000D01*
%TO.C,RN15*%
X89157000Y-83468000D02*
X88157000Y-83468000D01*
X89157000Y-80108000D02*
X88157000Y-80108000D01*
%TO.C,JP5*%
X158796000Y-64011000D02*
X158196000Y-64011000D01*
X157496000Y-63311000D02*
X157496000Y-61911000D01*
X159496000Y-61911000D02*
X159496000Y-63311000D01*
X158196000Y-61211000D02*
X158796000Y-61211000D01*
X158196000Y-61211000D02*
G75*
G03*
X157496000Y-61911000I0J-700000D01*
G01*
X159496000Y-61911000D02*
G75*
G03*
X158796000Y-61211000I-700000J0D01*
G01*
X158796000Y-64011000D02*
G75*
G03*
X159496000Y-63311000I1J699999D01*
G01*
X157496000Y-63311000D02*
G75*
G03*
X158196000Y-64011000I699999J-1D01*
G01*
%TO.C,U11*%
X123063000Y-82228000D02*
X125263000Y-82228000D01*
X123063000Y-82228000D02*
X119463000Y-82228000D01*
X123063000Y-87698000D02*
X125263000Y-87698000D01*
X123063000Y-87698000D02*
X120863000Y-87698000D01*
%TO.C,C4*%
X176020000Y-78499580D02*
X176020000Y-78218420D01*
X177040000Y-78499580D02*
X177040000Y-78218420D01*
%TO.C,U15*%
X95123000Y-87698000D02*
X97323000Y-87698000D01*
X95123000Y-82228000D02*
X97323000Y-82228000D01*
X95123000Y-82228000D02*
X91523000Y-82228000D01*
X95123000Y-87698000D02*
X92923000Y-87698000D01*
%TD*%
M02*
