M48
; DRILL file {KiCad 6.0.11+dfsg-1} date Sun 30 Jun 2024 10:38:20 PM CDT
; FORMAT={-:-/ absolute / metric / decimal}
; #@! TF.CreationDate,2024-06-30T22:38:20-05:00
; #@! TF.GenerationSoftware,Kicad,Pcbnew,6.0.11+dfsg-1
; #@! TF.FileFunction,Plated,1,4,PTH
FMAT,2
METRIC
; #@! TA.AperFunction,Plated,PTH,ViaDrill
T1C0.400
; #@! TA.AperFunction,Plated,PTH,ComponentDrill
T2C1.000
%
G90
G05
T1
X71.806Y-89.129
X71.984Y-78.892
X72.034Y-98.069
X72.441Y-114.884
X73.457Y-69.19
X74.447Y-107.315
X74.508Y-98.668
X74.879Y-119.812
X75.895Y-102.006
X76.43Y-72.136
X76.43Y-74.168
X77.203Y-79.134
X77.259Y-91.708
X77.318Y-93.523
X77.724Y-88.265
X78.054Y-119.812
X78.74Y-76.352
X80.01Y-77.572
X80.086Y-90.119
X81.229Y-119.812
X81.28Y-99.695
X81.579Y-90.125
X81.991Y-80.34
X83.693Y-99.568
X84.023Y-77.927
X84.328Y-88.265
X84.404Y-119.812
X84.912Y-100.584
X84.963Y-73.152
X85.395Y-81.915
X86.106Y-95.377
X86.258Y-83.668
X86.276Y-85.58
X86.284Y-87.503
X87.122Y-90.043
X87.579Y-119.812
X88.478Y-98.668
X90.17Y-101.473
X90.4Y-72.136
X90.4Y-74.168
X90.754Y-119.812
X91.173Y-79.134
X91.229Y-91.708
X91.288Y-93.523
X91.694Y-88.265
X92.71Y-76.352
X93.929Y-119.812
X93.98Y-77.572
X94.056Y-90.119
X95.549Y-90.125
X95.631Y-99.568
X95.961Y-80.34
X97.104Y-119.812
X97.663Y-99.568
X97.993Y-77.927
X98.298Y-88.265
X99.06Y-73.152
X99.365Y-81.915
X100.076Y-95.377
X100.076Y-101.727
X100.228Y-83.668
X100.246Y-85.58
X100.254Y-87.503
X100.279Y-119.812
X101.092Y-90.043
X102.448Y-98.668
X103.124Y-102.743
X103.454Y-119.812
X104.37Y-72.136
X104.37Y-74.168
X105.143Y-79.134
X105.199Y-91.708
X105.258Y-93.523
X105.664Y-88.265
X106.629Y-119.812
X106.68Y-76.352
X107.95Y-77.572
X108.026Y-90.119
X109.519Y-90.125
X109.601Y-99.568
X109.804Y-119.812
X109.931Y-80.34
X110.744Y-101.219
X111.633Y-99.568
X111.963Y-77.927
X112.268Y-88.265
X112.979Y-119.812
X113.335Y-81.915
X114.046Y-95.377
X114.198Y-83.668
X114.216Y-85.58
X114.224Y-87.503
X114.808Y-101.727
X115.062Y-90.043
X116.154Y-119.812
X116.418Y-98.668
X118.34Y-72.136
X118.34Y-74.168
X119.113Y-79.134
X119.169Y-91.708
X119.228Y-93.523
X119.329Y-119.812
X119.634Y-88.265
X120.65Y-76.352
X121.92Y-77.572
X121.996Y-90.119
X122.504Y-119.812
X123.444Y-101.473
X123.489Y-90.125
X123.571Y-99.568
X123.901Y-80.34
X124.46Y-103.759
X125.603Y-99.568
X125.679Y-119.812
X125.933Y-77.927
X126.238Y-88.265
X127.305Y-81.915
X127.787Y-103.937
X128.016Y-95.377
X128.168Y-83.668
X128.186Y-85.58
X128.194Y-87.503
X128.854Y-119.812
X129.032Y-90.043
X129.083Y-110.363
X129.667Y-113.97
X130.388Y-98.668
X130.835Y-107.036
X132.31Y-72.136
X132.31Y-74.168
X133.083Y-79.134
X133.139Y-91.708
X133.198Y-93.523
X133.604Y-88.265
X134.366Y-104.775
X134.62Y-76.352
X135.128Y-111.379
X135.382Y-107.823
X135.89Y-77.572
X135.966Y-90.119
X137.459Y-90.125
X137.541Y-99.568
X137.871Y-80.34
X139.522Y-101.498
X139.573Y-99.568
X139.903Y-77.927
X140.208Y-88.265
X141.275Y-81.915
X141.427Y-113.081
X141.554Y-119.812
X141.986Y-95.377
X142.138Y-83.668
X142.156Y-85.58
X142.164Y-87.503
X143.002Y-90.043
X144.358Y-98.668
X144.729Y-119.812
X146.05Y-101.219
X146.28Y-72.136
X146.28Y-74.168
X147.053Y-79.134
X147.109Y-91.708
X147.168Y-93.523
X147.574Y-88.265
X147.904Y-119.812
X148.59Y-76.352
X149.86Y-77.572
X149.936Y-90.119
X151.079Y-119.812
X151.429Y-90.125
X151.511Y-99.568
X151.841Y-80.34
X153.162Y-101.727
X153.543Y-99.568
X153.873Y-77.927
X154.178Y-88.265
X154.254Y-119.812
X155.245Y-81.915
X155.956Y-95.377
X155.956Y-102.489
X156.108Y-83.668
X156.126Y-85.58
X156.134Y-87.503
X156.972Y-90.043
X157.429Y-119.812
X158.328Y-98.668
X158.496Y-69.826
X159.258Y-103.251
X160.604Y-119.812
X161.023Y-79.134
X161.079Y-91.708
X161.138Y-93.523
X161.544Y-88.265
X162.56Y-76.352
X163.779Y-119.812
X163.83Y-77.572
X163.906Y-90.119
X165.399Y-90.125
X165.481Y-99.568
X165.811Y-80.34
X166.624Y-101.981
X166.954Y-119.812
X167.513Y-99.568
X167.843Y-77.927
X168.148Y-88.265
X169.215Y-81.915
X169.926Y-95.377
X170.078Y-83.668
X170.096Y-85.58
X170.104Y-87.503
X170.129Y-119.812
X170.688Y-101.981
X170.942Y-90.043
X171.734Y-62.103
X172.298Y-98.668
X173.304Y-119.812
X174.528Y-63.881
X174.993Y-79.134
X175.006Y-67.183
X175.049Y-91.708
X175.108Y-93.523
X175.514Y-88.265
X176.479Y-119.812
X176.53Y-76.352
X177.8Y-77.572
X177.876Y-90.119
X179.354Y-62.103
X179.369Y-90.125
X179.451Y-99.568
X179.578Y-102.235
X179.654Y-119.812
X179.781Y-80.34
X181.483Y-99.568
X181.813Y-77.927
X182.118Y-88.265
X182.829Y-119.812
X183.185Y-81.915
X183.413Y-90.043
X183.896Y-95.377
X184.048Y-83.668
X184.066Y-85.58
X184.074Y-87.503
X184.517Y-91.708
X185.42Y-100.457
X186.004Y-119.812
X186.268Y-98.668
X186.466Y-62.103
X188.963Y-79.134
X189.019Y-91.708
X189.078Y-93.523
X189.179Y-119.812
X189.484Y-88.265
X190.449Y-110.769
X190.5Y-76.352
X191.313Y-107.493
X191.317Y-63.813
X191.77Y-77.572
X191.846Y-90.119
X192.354Y-119.812
X193.294Y-101.727
X193.339Y-90.125
X193.421Y-99.568
X193.751Y-80.34
X194.361Y-104.496
X195.529Y-119.812
X195.58Y-98.679
X195.783Y-77.927
X196.088Y-70.231
X196.088Y-88.265
X197.155Y-81.915
X197.866Y-94.361
X198.018Y-83.668
X198.036Y-85.58
X198.044Y-87.503
X198.069Y-101.625
X198.628Y-98.425
X198.907Y-119.812
T2
X77.978Y-107.07
X77.978Y-109.611
X80.518Y-107.07
X80.518Y-109.611
X83.058Y-107.07
X83.058Y-109.611
X85.598Y-107.07
X85.598Y-109.611
X88.138Y-107.07
X88.138Y-109.611
X90.678Y-107.07
X90.678Y-109.611
X93.218Y-107.07
X93.218Y-109.611
X95.758Y-107.07
X95.758Y-109.611
X98.298Y-107.07
X98.298Y-109.611
X100.838Y-107.07
X100.838Y-109.611
X103.378Y-107.07
X103.378Y-109.611
X105.918Y-107.07
X105.918Y-109.611
X108.458Y-107.07
X108.458Y-109.611
X110.998Y-107.07
X110.998Y-109.611
X113.538Y-107.07
X113.538Y-109.611
X116.078Y-107.07
X116.078Y-109.611
X118.618Y-107.07
X118.618Y-109.611
X121.158Y-107.07
X121.158Y-109.611
X123.698Y-107.07
X123.698Y-109.611
X126.238Y-107.07
X126.238Y-109.611
X138.938Y-107.07
X138.938Y-109.611
X141.478Y-107.07
X141.478Y-109.611
X144.018Y-107.07
X144.018Y-109.611
X146.558Y-107.07
X146.558Y-109.611
X149.098Y-107.07
X149.098Y-109.611
X151.638Y-107.07
X151.638Y-109.611
X154.178Y-107.07
X154.178Y-109.611
X156.718Y-107.07
X156.718Y-109.611
X159.258Y-107.07
X159.258Y-109.611
X161.798Y-107.07
X161.798Y-109.611
X164.338Y-107.07
X164.338Y-109.611
X166.878Y-107.07
X166.878Y-109.611
X167.894Y-69.215
X167.894Y-71.755
X169.418Y-107.07
X169.418Y-109.611
X170.434Y-69.215
X170.434Y-71.755
X171.958Y-107.07
X171.958Y-109.611
X172.974Y-69.215
X172.974Y-71.755
X174.498Y-107.07
X174.498Y-109.611
X175.514Y-69.215
X175.514Y-71.755
X177.038Y-107.07
X177.038Y-109.611
X178.054Y-69.215
X178.054Y-71.755
X179.578Y-107.07
X179.578Y-109.611
X180.594Y-69.215
X180.594Y-71.755
X182.118Y-107.07
X182.118Y-109.611
X183.134Y-69.215
X183.134Y-71.755
X184.658Y-107.07
X184.658Y-109.611
X185.674Y-69.215
X185.674Y-71.755
X187.198Y-107.07
X187.198Y-109.611
X188.214Y-69.215
X188.214Y-71.755
X190.754Y-69.215
X190.754Y-71.755
T0
M30
