%TF.GenerationSoftware,KiCad,Pcbnew,6.0.11+dfsg-1*%
%TF.CreationDate,2024-06-30T22:37:57-05:00*%
%TF.ProjectId,backplane_tracer,6261636b-706c-4616-9e65-5f7472616365,rev?*%
%TF.SameCoordinates,Original*%
%TF.FileFunction,Paste,Top*%
%TF.FilePolarity,Positive*%
%FSLAX46Y46*%
G04 Gerber Fmt 4.6, Leading zero omitted, Abs format (unit mm)*
G04 Created by KiCad (PCBNEW 6.0.11+dfsg-1) date 2024-06-30 22:37:57*
%MOMM*%
%LPD*%
G01*
G04 APERTURE LIST*
G04 Aperture macros list*
%AMRoundRect*
0 Rectangle with rounded corners*
0 $1 Rounding radius*
0 $2 $3 $4 $5 $6 $7 $8 $9 X,Y pos of 4 corners*
0 Add a 4 corners polygon primitive as box body*
4,1,4,$2,$3,$4,$5,$6,$7,$8,$9,$2,$3,0*
0 Add four circle primitives for the rounded corners*
1,1,$1+$1,$2,$3*
1,1,$1+$1,$4,$5*
1,1,$1+$1,$6,$7*
1,1,$1+$1,$8,$9*
0 Add four rect primitives between the rounded corners*
20,1,$1+$1,$2,$3,$4,$5,0*
20,1,$1+$1,$4,$5,$6,$7,0*
20,1,$1+$1,$6,$7,$8,$9,0*
20,1,$1+$1,$8,$9,$2,$3,0*%
G04 Aperture macros list end*
%ADD10RoundRect,0.200000X0.200000X0.275000X-0.200000X0.275000X-0.200000X-0.275000X0.200000X-0.275000X0*%
%ADD11RoundRect,0.200000X-0.200000X-0.275000X0.200000X-0.275000X0.200000X0.275000X-0.200000X0.275000X0*%
%ADD12RoundRect,0.200000X0.275000X-0.200000X0.275000X0.200000X-0.275000X0.200000X-0.275000X-0.200000X0*%
%ADD13RoundRect,0.225000X0.225000X0.250000X-0.225000X0.250000X-0.225000X-0.250000X0.225000X-0.250000X0*%
%ADD14R,0.800000X0.500000*%
%ADD15R,0.800000X0.400000*%
%ADD16RoundRect,0.225000X0.250000X-0.225000X0.250000X0.225000X-0.250000X0.225000X-0.250000X-0.225000X0*%
%ADD17RoundRect,0.100000X-0.637500X-0.100000X0.637500X-0.100000X0.637500X0.100000X-0.637500X0.100000X0*%
G04 APERTURE END LIST*
D10*
%TO.C,R13*%
X79541500Y-72136000D03*
X77891500Y-72136000D03*
%TD*%
D11*
%TO.C,R12*%
X77891500Y-74168000D03*
X79541500Y-74168000D03*
%TD*%
D10*
%TO.C,R11*%
X93511500Y-72136000D03*
X91861500Y-72136000D03*
%TD*%
D11*
%TO.C,R10*%
X91861500Y-74168000D03*
X93511500Y-74168000D03*
%TD*%
D10*
%TO.C,R9*%
X107481500Y-72136000D03*
X105831500Y-72136000D03*
%TD*%
D11*
%TO.C,R8*%
X105831500Y-74168000D03*
X107481500Y-74168000D03*
%TD*%
D10*
%TO.C,R7*%
X121475000Y-72136000D03*
X119825000Y-72136000D03*
%TD*%
D11*
%TO.C,R6*%
X119825000Y-74168000D03*
X121475000Y-74168000D03*
%TD*%
D10*
%TO.C,R5*%
X135445000Y-72136000D03*
X133795000Y-72136000D03*
%TD*%
D11*
%TO.C,R4*%
X133795000Y-74168000D03*
X135445000Y-74168000D03*
%TD*%
D10*
%TO.C,R3*%
X149415000Y-72136000D03*
X147765000Y-72136000D03*
%TD*%
D11*
%TO.C,R2*%
X147765000Y-74168000D03*
X149415000Y-74168000D03*
%TD*%
D12*
%TO.C,R1*%
X158496000Y-68365500D03*
X158496000Y-66715500D03*
%TD*%
D13*
%TO.C,C26*%
X81633000Y-91354000D03*
X80083000Y-91354000D03*
%TD*%
D14*
%TO.C,RN13*%
X101727000Y-80588000D03*
D15*
X101727000Y-81388000D03*
X101727000Y-82188000D03*
D14*
X101727000Y-82988000D03*
X103527000Y-82988000D03*
D15*
X103527000Y-82188000D03*
X103527000Y-81388000D03*
D14*
X103527000Y-80588000D03*
%TD*%
D16*
%TO.C,C21*%
X111963200Y-80785000D03*
X111963200Y-79235000D03*
%TD*%
%TO.C,C1*%
X190500000Y-79134000D03*
X190500000Y-77584000D03*
%TD*%
D17*
%TO.C,U1*%
X190050500Y-82688000D03*
X190050500Y-83338000D03*
X190050500Y-83988000D03*
X190050500Y-84638000D03*
X190050500Y-85288000D03*
X190050500Y-85938000D03*
X190050500Y-86588000D03*
X190050500Y-87238000D03*
X195775500Y-87238000D03*
X195775500Y-86588000D03*
X195775500Y-85938000D03*
X195775500Y-85288000D03*
X195775500Y-84638000D03*
X195775500Y-83988000D03*
X195775500Y-83338000D03*
X195775500Y-82688000D03*
%TD*%
D16*
%TO.C,C25*%
X78740000Y-79134000D03*
X78740000Y-77584000D03*
%TD*%
D17*
%TO.C,U9*%
X134170500Y-82688000D03*
X134170500Y-83338000D03*
X134170500Y-83988000D03*
X134170500Y-84638000D03*
X134170500Y-85288000D03*
X134170500Y-85938000D03*
X134170500Y-86588000D03*
X134170500Y-87238000D03*
X139895500Y-87238000D03*
X139895500Y-86588000D03*
X139895500Y-85938000D03*
X139895500Y-85288000D03*
X139895500Y-84638000D03*
X139895500Y-83988000D03*
X139895500Y-83338000D03*
X139895500Y-82688000D03*
%TD*%
D14*
%TO.C,RN10*%
X129667000Y-85668000D03*
D15*
X129667000Y-86468000D03*
X129667000Y-87268000D03*
D14*
X129667000Y-88068000D03*
X131467000Y-88068000D03*
D15*
X131467000Y-87268000D03*
X131467000Y-86468000D03*
D14*
X131467000Y-85668000D03*
%TD*%
D17*
%TO.C,U18*%
X76004500Y-94118000D03*
X76004500Y-94768000D03*
X76004500Y-95418000D03*
X76004500Y-96068000D03*
X76004500Y-96718000D03*
X76004500Y-97368000D03*
X76004500Y-98018000D03*
X76004500Y-98668000D03*
X81729500Y-98668000D03*
X81729500Y-98018000D03*
X81729500Y-97368000D03*
X81729500Y-96718000D03*
X81729500Y-96068000D03*
X81729500Y-95418000D03*
X81729500Y-94768000D03*
X81729500Y-94118000D03*
%TD*%
D13*
%TO.C,C8*%
X165453000Y-91354000D03*
X163903000Y-91354000D03*
%TD*%
%TO.C,C2*%
X193393000Y-91354000D03*
X191843000Y-91354000D03*
%TD*%
D14*
%TO.C,RN7*%
X143637000Y-80588000D03*
D15*
X143637000Y-81388000D03*
X143637000Y-82188000D03*
D14*
X143637000Y-82988000D03*
X145437000Y-82988000D03*
D15*
X145437000Y-82188000D03*
X145437000Y-81388000D03*
D14*
X145437000Y-80588000D03*
%TD*%
D13*
%TO.C,C14*%
X137513000Y-91354000D03*
X135963000Y-91354000D03*
%TD*%
D16*
%TO.C,C15*%
X139903200Y-80785000D03*
X139903200Y-79235000D03*
%TD*%
D17*
%TO.C,U14*%
X103944500Y-94118000D03*
X103944500Y-94768000D03*
X103944500Y-95418000D03*
X103944500Y-96068000D03*
X103944500Y-96718000D03*
X103944500Y-97368000D03*
X103944500Y-98018000D03*
X103944500Y-98668000D03*
X109669500Y-98668000D03*
X109669500Y-98018000D03*
X109669500Y-97368000D03*
X109669500Y-96718000D03*
X109669500Y-96068000D03*
X109669500Y-95418000D03*
X109669500Y-94768000D03*
X109669500Y-94118000D03*
%TD*%
%TO.C,U7*%
X148140500Y-82688000D03*
X148140500Y-83338000D03*
X148140500Y-83988000D03*
X148140500Y-84638000D03*
X148140500Y-85288000D03*
X148140500Y-85938000D03*
X148140500Y-86588000D03*
X148140500Y-87238000D03*
X153865500Y-87238000D03*
X153865500Y-86588000D03*
X153865500Y-85938000D03*
X153865500Y-85288000D03*
X153865500Y-84638000D03*
X153865500Y-83988000D03*
X153865500Y-83338000D03*
X153865500Y-82688000D03*
%TD*%
D14*
%TO.C,RN16*%
X87757000Y-85668000D03*
D15*
X87757000Y-86468000D03*
X87757000Y-87268000D03*
D14*
X87757000Y-88068000D03*
X89557000Y-88068000D03*
D15*
X89557000Y-87268000D03*
X89557000Y-86468000D03*
D14*
X89557000Y-85668000D03*
%TD*%
D17*
%TO.C,U16*%
X89974500Y-94118000D03*
X89974500Y-94768000D03*
X89974500Y-95418000D03*
X89974500Y-96068000D03*
X89974500Y-96718000D03*
X89974500Y-97368000D03*
X89974500Y-98018000D03*
X89974500Y-98668000D03*
X95699500Y-98668000D03*
X95699500Y-98018000D03*
X95699500Y-97368000D03*
X95699500Y-96718000D03*
X95699500Y-96068000D03*
X95699500Y-95418000D03*
X95699500Y-94768000D03*
X95699500Y-94118000D03*
%TD*%
%TO.C,U8*%
X145854500Y-94118000D03*
X145854500Y-94768000D03*
X145854500Y-95418000D03*
X145854500Y-96068000D03*
X145854500Y-96718000D03*
X145854500Y-97368000D03*
X145854500Y-98018000D03*
X145854500Y-98668000D03*
X151579500Y-98668000D03*
X151579500Y-98018000D03*
X151579500Y-97368000D03*
X151579500Y-96718000D03*
X151579500Y-96068000D03*
X151579500Y-95418000D03*
X151579500Y-94768000D03*
X151579500Y-94118000D03*
%TD*%
%TO.C,U4*%
X173794500Y-94118000D03*
X173794500Y-94768000D03*
X173794500Y-95418000D03*
X173794500Y-96068000D03*
X173794500Y-96718000D03*
X173794500Y-97368000D03*
X173794500Y-98018000D03*
X173794500Y-98668000D03*
X179519500Y-98668000D03*
X179519500Y-98018000D03*
X179519500Y-97368000D03*
X179519500Y-96718000D03*
X179519500Y-96068000D03*
X179519500Y-95418000D03*
X179519500Y-94768000D03*
X179519500Y-94118000D03*
%TD*%
D13*
%TO.C,C17*%
X123543000Y-91354000D03*
X121993000Y-91354000D03*
%TD*%
D14*
%TO.C,RN14*%
X101727000Y-85668000D03*
D15*
X101727000Y-86468000D03*
X101727000Y-87268000D03*
D14*
X101727000Y-88068000D03*
X103527000Y-88068000D03*
D15*
X103527000Y-87268000D03*
X103527000Y-86468000D03*
D14*
X103527000Y-85668000D03*
%TD*%
D16*
%TO.C,C13*%
X134620000Y-79134000D03*
X134620000Y-77584000D03*
%TD*%
%TO.C,C3*%
X195783200Y-80785000D03*
X195783200Y-79235000D03*
%TD*%
%TO.C,C27*%
X84023200Y-80785000D03*
X84023200Y-79235000D03*
%TD*%
%TO.C,C19*%
X106680000Y-79134000D03*
X106680000Y-77584000D03*
%TD*%
D14*
%TO.C,RN4*%
X171577000Y-85668000D03*
D15*
X171577000Y-86468000D03*
X171577000Y-87268000D03*
D14*
X171577000Y-88068000D03*
X173377000Y-88068000D03*
D15*
X173377000Y-87268000D03*
X173377000Y-86468000D03*
D14*
X173377000Y-85668000D03*
%TD*%
D17*
%TO.C,U2*%
X187764500Y-94118000D03*
X187764500Y-94768000D03*
X187764500Y-95418000D03*
X187764500Y-96068000D03*
X187764500Y-96718000D03*
X187764500Y-97368000D03*
X187764500Y-98018000D03*
X187764500Y-98668000D03*
X193489500Y-98668000D03*
X193489500Y-98018000D03*
X193489500Y-97368000D03*
X193489500Y-96718000D03*
X193489500Y-96068000D03*
X193489500Y-95418000D03*
X193489500Y-94768000D03*
X193489500Y-94118000D03*
%TD*%
D14*
%TO.C,RN11*%
X115697000Y-80588000D03*
D15*
X115697000Y-81388000D03*
X115697000Y-82188000D03*
D14*
X115697000Y-82988000D03*
X117497000Y-82988000D03*
D15*
X117497000Y-82188000D03*
X117497000Y-81388000D03*
D14*
X117497000Y-80588000D03*
%TD*%
%TO.C,RN17*%
X73787000Y-80588000D03*
D15*
X73787000Y-81388000D03*
X73787000Y-82188000D03*
D14*
X73787000Y-82988000D03*
X75587000Y-82988000D03*
D15*
X75587000Y-82188000D03*
X75587000Y-81388000D03*
D14*
X75587000Y-80588000D03*
%TD*%
D16*
%TO.C,C12*%
X153873200Y-80785000D03*
X153873200Y-79235000D03*
%TD*%
D14*
%TO.C,RN2*%
X185547000Y-85668000D03*
D15*
X185547000Y-86468000D03*
X185547000Y-87268000D03*
D14*
X185547000Y-88068000D03*
X187347000Y-88068000D03*
D15*
X187347000Y-87268000D03*
X187347000Y-86468000D03*
D14*
X187347000Y-85668000D03*
%TD*%
D13*
%TO.C,C20*%
X109573000Y-91354000D03*
X108023000Y-91354000D03*
%TD*%
D16*
%TO.C,C6*%
X181813200Y-80785000D03*
X181813200Y-79235000D03*
%TD*%
%TO.C,C22*%
X92710000Y-79134000D03*
X92710000Y-77584000D03*
%TD*%
D17*
%TO.C,U6*%
X159824500Y-94118000D03*
X159824500Y-94768000D03*
X159824500Y-95418000D03*
X159824500Y-96068000D03*
X159824500Y-96718000D03*
X159824500Y-97368000D03*
X159824500Y-98018000D03*
X159824500Y-98668000D03*
X165549500Y-98668000D03*
X165549500Y-98018000D03*
X165549500Y-97368000D03*
X165549500Y-96718000D03*
X165549500Y-96068000D03*
X165549500Y-95418000D03*
X165549500Y-94768000D03*
X165549500Y-94118000D03*
%TD*%
D16*
%TO.C,C7*%
X162560000Y-79134000D03*
X162560000Y-77584000D03*
%TD*%
D17*
%TO.C,U12*%
X117914500Y-94118000D03*
X117914500Y-94768000D03*
X117914500Y-95418000D03*
X117914500Y-96068000D03*
X117914500Y-96718000D03*
X117914500Y-97368000D03*
X117914500Y-98018000D03*
X117914500Y-98668000D03*
X123639500Y-98668000D03*
X123639500Y-98018000D03*
X123639500Y-97368000D03*
X123639500Y-96718000D03*
X123639500Y-96068000D03*
X123639500Y-95418000D03*
X123639500Y-94768000D03*
X123639500Y-94118000D03*
%TD*%
D14*
%TO.C,RN1*%
X185547000Y-80588000D03*
D15*
X185547000Y-81388000D03*
X185547000Y-82188000D03*
D14*
X185547000Y-82988000D03*
X187347000Y-82988000D03*
D15*
X187347000Y-82188000D03*
X187347000Y-81388000D03*
D14*
X187347000Y-80588000D03*
%TD*%
D17*
%TO.C,U17*%
X78290500Y-82688000D03*
X78290500Y-83338000D03*
X78290500Y-83988000D03*
X78290500Y-84638000D03*
X78290500Y-85288000D03*
X78290500Y-85938000D03*
X78290500Y-86588000D03*
X78290500Y-87238000D03*
X84015500Y-87238000D03*
X84015500Y-86588000D03*
X84015500Y-85938000D03*
X84015500Y-85288000D03*
X84015500Y-84638000D03*
X84015500Y-83988000D03*
X84015500Y-83338000D03*
X84015500Y-82688000D03*
%TD*%
D14*
%TO.C,RN12*%
X115697000Y-85668000D03*
D15*
X115697000Y-86468000D03*
X115697000Y-87268000D03*
D14*
X115697000Y-88068000D03*
X117497000Y-88068000D03*
D15*
X117497000Y-87268000D03*
X117497000Y-86468000D03*
D14*
X117497000Y-85668000D03*
%TD*%
D13*
%TO.C,C23*%
X95603000Y-91354000D03*
X94053000Y-91354000D03*
%TD*%
%TO.C,C11*%
X151483000Y-91354000D03*
X149933000Y-91354000D03*
%TD*%
D17*
%TO.C,U3*%
X176080500Y-82688000D03*
X176080500Y-83338000D03*
X176080500Y-83988000D03*
X176080500Y-84638000D03*
X176080500Y-85288000D03*
X176080500Y-85938000D03*
X176080500Y-86588000D03*
X176080500Y-87238000D03*
X181805500Y-87238000D03*
X181805500Y-86588000D03*
X181805500Y-85938000D03*
X181805500Y-85288000D03*
X181805500Y-84638000D03*
X181805500Y-83988000D03*
X181805500Y-83338000D03*
X181805500Y-82688000D03*
%TD*%
D16*
%TO.C,C16*%
X120650000Y-79134000D03*
X120650000Y-77584000D03*
%TD*%
D17*
%TO.C,U13*%
X106230500Y-82688000D03*
X106230500Y-83338000D03*
X106230500Y-83988000D03*
X106230500Y-84638000D03*
X106230500Y-85288000D03*
X106230500Y-85938000D03*
X106230500Y-86588000D03*
X106230500Y-87238000D03*
X111955500Y-87238000D03*
X111955500Y-86588000D03*
X111955500Y-85938000D03*
X111955500Y-85288000D03*
X111955500Y-84638000D03*
X111955500Y-83988000D03*
X111955500Y-83338000D03*
X111955500Y-82688000D03*
%TD*%
%TO.C,U10*%
X131884500Y-94118000D03*
X131884500Y-94768000D03*
X131884500Y-95418000D03*
X131884500Y-96068000D03*
X131884500Y-96718000D03*
X131884500Y-97368000D03*
X131884500Y-98018000D03*
X131884500Y-98668000D03*
X137609500Y-98668000D03*
X137609500Y-98018000D03*
X137609500Y-97368000D03*
X137609500Y-96718000D03*
X137609500Y-96068000D03*
X137609500Y-95418000D03*
X137609500Y-94768000D03*
X137609500Y-94118000D03*
%TD*%
D16*
%TO.C,C18*%
X125933200Y-80785000D03*
X125933200Y-79235000D03*
%TD*%
%TO.C,C9*%
X167843200Y-80785000D03*
X167843200Y-79235000D03*
%TD*%
D14*
%TO.C,RN3*%
X171577000Y-80588000D03*
D15*
X171577000Y-81388000D03*
X171577000Y-82188000D03*
D14*
X171577000Y-82988000D03*
X173377000Y-82988000D03*
D15*
X173377000Y-82188000D03*
X173377000Y-81388000D03*
D14*
X173377000Y-80588000D03*
%TD*%
%TO.C,RN9*%
X129667000Y-80588000D03*
D15*
X129667000Y-81388000D03*
X129667000Y-82188000D03*
D14*
X129667000Y-82988000D03*
X131467000Y-82988000D03*
D15*
X131467000Y-82188000D03*
X131467000Y-81388000D03*
D14*
X131467000Y-80588000D03*
%TD*%
D17*
%TO.C,U5*%
X162110500Y-82688000D03*
X162110500Y-83338000D03*
X162110500Y-83988000D03*
X162110500Y-84638000D03*
X162110500Y-85288000D03*
X162110500Y-85938000D03*
X162110500Y-86588000D03*
X162110500Y-87238000D03*
X167835500Y-87238000D03*
X167835500Y-86588000D03*
X167835500Y-85938000D03*
X167835500Y-85288000D03*
X167835500Y-84638000D03*
X167835500Y-83988000D03*
X167835500Y-83338000D03*
X167835500Y-82688000D03*
%TD*%
D14*
%TO.C,RN18*%
X73787000Y-85668000D03*
D15*
X73787000Y-86468000D03*
X73787000Y-87268000D03*
D14*
X73787000Y-88068000D03*
X75587000Y-88068000D03*
D15*
X75587000Y-87268000D03*
X75587000Y-86468000D03*
D14*
X75587000Y-85668000D03*
%TD*%
%TO.C,RN8*%
X143637000Y-85668000D03*
D15*
X143637000Y-86468000D03*
X143637000Y-87268000D03*
D14*
X143637000Y-88068000D03*
X145437000Y-88068000D03*
D15*
X145437000Y-87268000D03*
X145437000Y-86468000D03*
D14*
X145437000Y-85668000D03*
%TD*%
D16*
%TO.C,C24*%
X97993200Y-80785000D03*
X97993200Y-79235000D03*
%TD*%
%TO.C,C10*%
X148590000Y-79134000D03*
X148590000Y-77584000D03*
%TD*%
D14*
%TO.C,RN6*%
X157607000Y-85668000D03*
D15*
X157607000Y-86468000D03*
X157607000Y-87268000D03*
D14*
X157607000Y-88068000D03*
X159407000Y-88068000D03*
D15*
X159407000Y-87268000D03*
X159407000Y-86468000D03*
D14*
X159407000Y-85668000D03*
%TD*%
%TO.C,RN5*%
X157607000Y-80588000D03*
D15*
X157607000Y-81388000D03*
X157607000Y-82188000D03*
D14*
X157607000Y-82988000D03*
X159407000Y-82988000D03*
D15*
X159407000Y-82188000D03*
X159407000Y-81388000D03*
D14*
X159407000Y-80588000D03*
%TD*%
D13*
%TO.C,C5*%
X179423000Y-91354000D03*
X177873000Y-91354000D03*
%TD*%
D14*
%TO.C,RN15*%
X87757000Y-80588000D03*
D15*
X87757000Y-81388000D03*
X87757000Y-82188000D03*
D14*
X87757000Y-82988000D03*
X89557000Y-82988000D03*
D15*
X89557000Y-82188000D03*
X89557000Y-81388000D03*
D14*
X89557000Y-80588000D03*
%TD*%
D17*
%TO.C,U11*%
X120200500Y-82688000D03*
X120200500Y-83338000D03*
X120200500Y-83988000D03*
X120200500Y-84638000D03*
X120200500Y-85288000D03*
X120200500Y-85938000D03*
X120200500Y-86588000D03*
X120200500Y-87238000D03*
X125925500Y-87238000D03*
X125925500Y-86588000D03*
X125925500Y-85938000D03*
X125925500Y-85288000D03*
X125925500Y-84638000D03*
X125925500Y-83988000D03*
X125925500Y-83338000D03*
X125925500Y-82688000D03*
%TD*%
D16*
%TO.C,C4*%
X176530000Y-79134000D03*
X176530000Y-77584000D03*
%TD*%
D17*
%TO.C,U15*%
X92260500Y-82688000D03*
X92260500Y-83338000D03*
X92260500Y-83988000D03*
X92260500Y-84638000D03*
X92260500Y-85288000D03*
X92260500Y-85938000D03*
X92260500Y-86588000D03*
X92260500Y-87238000D03*
X97985500Y-87238000D03*
X97985500Y-86588000D03*
X97985500Y-85938000D03*
X97985500Y-85288000D03*
X97985500Y-84638000D03*
X97985500Y-83988000D03*
X97985500Y-83338000D03*
X97985500Y-82688000D03*
%TD*%
M02*
