%TF.GenerationSoftware,KiCad,Pcbnew,6.0.11+dfsg-1*%
%TF.CreationDate,2024-06-30T22:37:57-05:00*%
%TF.ProjectId,backplane_tracer,6261636b-706c-4616-9e65-5f7472616365,rev?*%
%TF.SameCoordinates,Original*%
%TF.FileFunction,Legend,Bot*%
%TF.FilePolarity,Positive*%
%FSLAX46Y46*%
G04 Gerber Fmt 4.6, Leading zero omitted, Abs format (unit mm)*
G04 Created by KiCad (PCBNEW 6.0.11+dfsg-1) date 2024-06-30 22:37:57*
%MOMM*%
%LPD*%
G01*
G04 APERTURE LIST*
%ADD10C,0.150000*%
%ADD11C,0.203200*%
%ADD12C,0.120000*%
G04 APERTURE END LIST*
D10*
X126112514Y-61801180D02*
X126112514Y-60801180D01*
X125874419Y-60801180D01*
X125731561Y-60848800D01*
X125636323Y-60944038D01*
X125588704Y-61039276D01*
X125541085Y-61229752D01*
X125541085Y-61372609D01*
X125588704Y-61563085D01*
X125636323Y-61658323D01*
X125731561Y-61753561D01*
X125874419Y-61801180D01*
X126112514Y-61801180D01*
X125112514Y-61277371D02*
X124779180Y-61277371D01*
X124636323Y-61801180D02*
X125112514Y-61801180D01*
X125112514Y-60801180D01*
X124636323Y-60801180D01*
X123636323Y-61705942D02*
X123683942Y-61753561D01*
X123826800Y-61801180D01*
X123922038Y-61801180D01*
X124064895Y-61753561D01*
X124160133Y-61658323D01*
X124207752Y-61563085D01*
X124255371Y-61372609D01*
X124255371Y-61229752D01*
X124207752Y-61039276D01*
X124160133Y-60944038D01*
X124064895Y-60848800D01*
X123922038Y-60801180D01*
X123826800Y-60801180D01*
X123683942Y-60848800D01*
X123636323Y-60896419D01*
X122112514Y-61277371D02*
X121969657Y-61324990D01*
X121922038Y-61372609D01*
X121874419Y-61467847D01*
X121874419Y-61610704D01*
X121922038Y-61705942D01*
X121969657Y-61753561D01*
X122064895Y-61801180D01*
X122445847Y-61801180D01*
X122445847Y-60801180D01*
X122112514Y-60801180D01*
X122017276Y-60848800D01*
X121969657Y-60896419D01*
X121922038Y-60991657D01*
X121922038Y-61086895D01*
X121969657Y-61182133D01*
X122017276Y-61229752D01*
X122112514Y-61277371D01*
X122445847Y-61277371D01*
X121017276Y-61801180D02*
X121017276Y-61277371D01*
X121064895Y-61182133D01*
X121160133Y-61134514D01*
X121350609Y-61134514D01*
X121445847Y-61182133D01*
X121017276Y-61753561D02*
X121112514Y-61801180D01*
X121350609Y-61801180D01*
X121445847Y-61753561D01*
X121493466Y-61658323D01*
X121493466Y-61563085D01*
X121445847Y-61467847D01*
X121350609Y-61420228D01*
X121112514Y-61420228D01*
X121017276Y-61372609D01*
X120112514Y-61753561D02*
X120207752Y-61801180D01*
X120398228Y-61801180D01*
X120493466Y-61753561D01*
X120541085Y-61705942D01*
X120588704Y-61610704D01*
X120588704Y-61324990D01*
X120541085Y-61229752D01*
X120493466Y-61182133D01*
X120398228Y-61134514D01*
X120207752Y-61134514D01*
X120112514Y-61182133D01*
X119683942Y-61801180D02*
X119683942Y-60801180D01*
X119588704Y-61420228D02*
X119302990Y-61801180D01*
X119302990Y-61134514D02*
X119683942Y-61515466D01*
X118874419Y-61134514D02*
X118874419Y-62134514D01*
X118874419Y-61182133D02*
X118779180Y-61134514D01*
X118588704Y-61134514D01*
X118493466Y-61182133D01*
X118445847Y-61229752D01*
X118398228Y-61324990D01*
X118398228Y-61610704D01*
X118445847Y-61705942D01*
X118493466Y-61753561D01*
X118588704Y-61801180D01*
X118779180Y-61801180D01*
X118874419Y-61753561D01*
X117826800Y-61801180D02*
X117922038Y-61753561D01*
X117969657Y-61658323D01*
X117969657Y-60801180D01*
X117017276Y-61801180D02*
X117017276Y-61277371D01*
X117064895Y-61182133D01*
X117160133Y-61134514D01*
X117350609Y-61134514D01*
X117445847Y-61182133D01*
X117017276Y-61753561D02*
X117112514Y-61801180D01*
X117350609Y-61801180D01*
X117445847Y-61753561D01*
X117493466Y-61658323D01*
X117493466Y-61563085D01*
X117445847Y-61467847D01*
X117350609Y-61420228D01*
X117112514Y-61420228D01*
X117017276Y-61372609D01*
X116541085Y-61134514D02*
X116541085Y-61801180D01*
X116541085Y-61229752D02*
X116493466Y-61182133D01*
X116398228Y-61134514D01*
X116255371Y-61134514D01*
X116160133Y-61182133D01*
X116112514Y-61277371D01*
X116112514Y-61801180D01*
X115255371Y-61753561D02*
X115350609Y-61801180D01*
X115541085Y-61801180D01*
X115636323Y-61753561D01*
X115683942Y-61658323D01*
X115683942Y-61277371D01*
X115636323Y-61182133D01*
X115541085Y-61134514D01*
X115350609Y-61134514D01*
X115255371Y-61182133D01*
X115207752Y-61277371D01*
X115207752Y-61372609D01*
X115683942Y-61467847D01*
X114160133Y-60801180D02*
X113588704Y-60801180D01*
X113874419Y-61801180D02*
X113874419Y-60801180D01*
X113255371Y-61801180D02*
X113255371Y-61134514D01*
X113255371Y-61324990D02*
X113207752Y-61229752D01*
X113160133Y-61182133D01*
X113064895Y-61134514D01*
X112969657Y-61134514D01*
X112207752Y-61801180D02*
X112207752Y-61277371D01*
X112255371Y-61182133D01*
X112350609Y-61134514D01*
X112541085Y-61134514D01*
X112636323Y-61182133D01*
X112207752Y-61753561D02*
X112302990Y-61801180D01*
X112541085Y-61801180D01*
X112636323Y-61753561D01*
X112683942Y-61658323D01*
X112683942Y-61563085D01*
X112636323Y-61467847D01*
X112541085Y-61420228D01*
X112302990Y-61420228D01*
X112207752Y-61372609D01*
X111302990Y-61753561D02*
X111398228Y-61801180D01*
X111588704Y-61801180D01*
X111683942Y-61753561D01*
X111731561Y-61705942D01*
X111779180Y-61610704D01*
X111779180Y-61324990D01*
X111731561Y-61229752D01*
X111683942Y-61182133D01*
X111588704Y-61134514D01*
X111398228Y-61134514D01*
X111302990Y-61182133D01*
X110874419Y-61801180D02*
X110874419Y-61134514D01*
X110874419Y-60801180D02*
X110922038Y-60848800D01*
X110874419Y-60896419D01*
X110826800Y-60848800D01*
X110874419Y-60801180D01*
X110874419Y-60896419D01*
X110398228Y-61134514D02*
X110398228Y-61801180D01*
X110398228Y-61229752D02*
X110350609Y-61182133D01*
X110255371Y-61134514D01*
X110112514Y-61134514D01*
X110017276Y-61182133D01*
X109969657Y-61277371D01*
X109969657Y-61801180D01*
X109064895Y-61134514D02*
X109064895Y-61944038D01*
X109112514Y-62039276D01*
X109160133Y-62086895D01*
X109255371Y-62134514D01*
X109398228Y-62134514D01*
X109493466Y-62086895D01*
X109064895Y-61753561D02*
X109160133Y-61801180D01*
X109350609Y-61801180D01*
X109445847Y-61753561D01*
X109493466Y-61705942D01*
X109541085Y-61610704D01*
X109541085Y-61324990D01*
X109493466Y-61229752D01*
X109445847Y-61182133D01*
X109350609Y-61134514D01*
X109160133Y-61134514D01*
X109064895Y-61182133D01*
X107969657Y-60801180D02*
X107398228Y-60801180D01*
X107683942Y-61801180D02*
X107683942Y-60801180D01*
X106922038Y-61801180D02*
X107017276Y-61753561D01*
X107064895Y-61705942D01*
X107112514Y-61610704D01*
X107112514Y-61324990D01*
X107064895Y-61229752D01*
X107017276Y-61182133D01*
X106922038Y-61134514D01*
X106779180Y-61134514D01*
X106683942Y-61182133D01*
X106636323Y-61229752D01*
X106588704Y-61324990D01*
X106588704Y-61610704D01*
X106636323Y-61705942D01*
X106683942Y-61753561D01*
X106779180Y-61801180D01*
X106922038Y-61801180D01*
X106017276Y-61801180D02*
X106112514Y-61753561D01*
X106160133Y-61705942D01*
X106207752Y-61610704D01*
X106207752Y-61324990D01*
X106160133Y-61229752D01*
X106112514Y-61182133D01*
X106017276Y-61134514D01*
X105874419Y-61134514D01*
X105779180Y-61182133D01*
X105731561Y-61229752D01*
X105683942Y-61324990D01*
X105683942Y-61610704D01*
X105731561Y-61705942D01*
X105779180Y-61753561D01*
X105874419Y-61801180D01*
X106017276Y-61801180D01*
X105112514Y-61801180D02*
X105207752Y-61753561D01*
X105255371Y-61658323D01*
X105255371Y-60801180D01*
X104683942Y-61753561D02*
X104683942Y-61801180D01*
X104731561Y-61896419D01*
X104779180Y-61944038D01*
X103493466Y-61801180D02*
X103493466Y-61134514D01*
X103493466Y-61324990D02*
X103445847Y-61229752D01*
X103398228Y-61182133D01*
X103302990Y-61134514D01*
X103207752Y-61134514D01*
X102493466Y-61753561D02*
X102588704Y-61801180D01*
X102779180Y-61801180D01*
X102874419Y-61753561D01*
X102922038Y-61658323D01*
X102922038Y-61277371D01*
X102874419Y-61182133D01*
X102779180Y-61134514D01*
X102588704Y-61134514D01*
X102493466Y-61182133D01*
X102445847Y-61277371D01*
X102445847Y-61372609D01*
X102922038Y-61467847D01*
X102112514Y-61134514D02*
X101874419Y-61801180D01*
X101636323Y-61134514D01*
X101255371Y-61705942D02*
X101207752Y-61753561D01*
X101255371Y-61801180D01*
X101302990Y-61753561D01*
X101255371Y-61705942D01*
X101255371Y-61801180D01*
X99493466Y-61801180D02*
X100064895Y-61801180D01*
X99779180Y-61801180D02*
X99779180Y-60801180D01*
X99874419Y-60944038D01*
X99969657Y-61039276D01*
X100064895Y-61086895D01*
X121850609Y-63411180D02*
X121850609Y-62411180D01*
X121279180Y-63411180D02*
X121707752Y-62839752D01*
X121279180Y-62411180D02*
X121850609Y-62982609D01*
X120945847Y-62744514D02*
X120707752Y-63411180D01*
X120469657Y-62744514D02*
X120707752Y-63411180D01*
X120802990Y-63649276D01*
X120850609Y-63696895D01*
X120945847Y-63744514D01*
X119945847Y-63411180D02*
X120041085Y-63363561D01*
X120088704Y-63268323D01*
X120088704Y-62411180D01*
X119183942Y-63363561D02*
X119279180Y-63411180D01*
X119469657Y-63411180D01*
X119564895Y-63363561D01*
X119612514Y-63268323D01*
X119612514Y-62887371D01*
X119564895Y-62792133D01*
X119469657Y-62744514D01*
X119279180Y-62744514D01*
X119183942Y-62792133D01*
X119136323Y-62887371D01*
X119136323Y-62982609D01*
X119612514Y-63077847D01*
X117755371Y-62411180D02*
X117564895Y-62411180D01*
X117469657Y-62458800D01*
X117374419Y-62554038D01*
X117326800Y-62744514D01*
X117326800Y-63077847D01*
X117374419Y-63268323D01*
X117469657Y-63363561D01*
X117564895Y-63411180D01*
X117755371Y-63411180D01*
X117850609Y-63363561D01*
X117945847Y-63268323D01*
X117993466Y-63077847D01*
X117993466Y-62744514D01*
X117945847Y-62554038D01*
X117850609Y-62458800D01*
X117755371Y-62411180D01*
X116993466Y-62744514D02*
X116802990Y-63411180D01*
X116612514Y-62934990D01*
X116422038Y-63411180D01*
X116231561Y-62744514D01*
X115469657Y-63363561D02*
X115564895Y-63411180D01*
X115755371Y-63411180D01*
X115850609Y-63363561D01*
X115898228Y-63268323D01*
X115898228Y-62887371D01*
X115850609Y-62792133D01*
X115755371Y-62744514D01*
X115564895Y-62744514D01*
X115469657Y-62792133D01*
X115422038Y-62887371D01*
X115422038Y-62982609D01*
X115898228Y-63077847D01*
X114993466Y-62744514D02*
X114993466Y-63411180D01*
X114993466Y-62839752D02*
X114945847Y-62792133D01*
X114850609Y-62744514D01*
X114707752Y-62744514D01*
X114612514Y-62792133D01*
X114564895Y-62887371D01*
X114564895Y-63411180D01*
X113326800Y-63030228D02*
X112564895Y-63030228D01*
X111041085Y-62411180D02*
X111041085Y-63125466D01*
X111088704Y-63268323D01*
X111183942Y-63363561D01*
X111326800Y-63411180D01*
X111422038Y-63411180D01*
X110136323Y-62744514D02*
X110136323Y-63411180D01*
X110564895Y-62744514D02*
X110564895Y-63268323D01*
X110517276Y-63363561D01*
X110422038Y-63411180D01*
X110279180Y-63411180D01*
X110183942Y-63363561D01*
X110136323Y-63315942D01*
X109660133Y-62744514D02*
X109660133Y-63411180D01*
X109660133Y-62839752D02*
X109612514Y-62792133D01*
X109517276Y-62744514D01*
X109374419Y-62744514D01*
X109279180Y-62792133D01*
X109231561Y-62887371D01*
X109231561Y-63411180D01*
X108374419Y-63363561D02*
X108469657Y-63411180D01*
X108660133Y-63411180D01*
X108755371Y-63363561D01*
X108802990Y-63268323D01*
X108802990Y-62887371D01*
X108755371Y-62792133D01*
X108660133Y-62744514D01*
X108469657Y-62744514D01*
X108374419Y-62792133D01*
X108326800Y-62887371D01*
X108326800Y-62982609D01*
X108802990Y-63077847D01*
X107183942Y-62506419D02*
X107136323Y-62458800D01*
X107041085Y-62411180D01*
X106802990Y-62411180D01*
X106707752Y-62458800D01*
X106660133Y-62506419D01*
X106612514Y-62601657D01*
X106612514Y-62696895D01*
X106660133Y-62839752D01*
X107231561Y-63411180D01*
X106612514Y-63411180D01*
X105993466Y-62411180D02*
X105898228Y-62411180D01*
X105802990Y-62458800D01*
X105755371Y-62506419D01*
X105707752Y-62601657D01*
X105660133Y-62792133D01*
X105660133Y-63030228D01*
X105707752Y-63220704D01*
X105755371Y-63315942D01*
X105802990Y-63363561D01*
X105898228Y-63411180D01*
X105993466Y-63411180D01*
X106088704Y-63363561D01*
X106136323Y-63315942D01*
X106183942Y-63220704D01*
X106231561Y-63030228D01*
X106231561Y-62792133D01*
X106183942Y-62601657D01*
X106136323Y-62506419D01*
X106088704Y-62458800D01*
X105993466Y-62411180D01*
X105279180Y-62506419D02*
X105231561Y-62458800D01*
X105136323Y-62411180D01*
X104898228Y-62411180D01*
X104802990Y-62458800D01*
X104755371Y-62506419D01*
X104707752Y-62601657D01*
X104707752Y-62696895D01*
X104755371Y-62839752D01*
X105326800Y-63411180D01*
X104707752Y-63411180D01*
X103850609Y-62744514D02*
X103850609Y-63411180D01*
X104088704Y-62363561D02*
X104326800Y-63077847D01*
X103707752Y-63077847D01*
X161637071Y-69565571D02*
X161970404Y-69565571D01*
X161970404Y-70089380D02*
X161970404Y-69089380D01*
X161494214Y-69089380D01*
X161113261Y-70089380D02*
X161113261Y-69422714D01*
X161113261Y-69089380D02*
X161160880Y-69137000D01*
X161113261Y-69184619D01*
X161065642Y-69137000D01*
X161113261Y-69089380D01*
X161113261Y-69184619D01*
X160637071Y-70089380D02*
X160637071Y-69422714D01*
X160637071Y-69613190D02*
X160589452Y-69517952D01*
X160541833Y-69470333D01*
X160446595Y-69422714D01*
X160351357Y-69422714D01*
X160065642Y-70041761D02*
X159970404Y-70089380D01*
X159779928Y-70089380D01*
X159684690Y-70041761D01*
X159637071Y-69946523D01*
X159637071Y-69898904D01*
X159684690Y-69803666D01*
X159779928Y-69756047D01*
X159922785Y-69756047D01*
X160018023Y-69708428D01*
X160065642Y-69613190D01*
X160065642Y-69565571D01*
X160018023Y-69470333D01*
X159922785Y-69422714D01*
X159779928Y-69422714D01*
X159684690Y-69470333D01*
X159351357Y-69422714D02*
X158970404Y-69422714D01*
X159208500Y-69089380D02*
X159208500Y-69946523D01*
X159160880Y-70041761D01*
X159065642Y-70089380D01*
X158970404Y-70089380D01*
X157446595Y-70041761D02*
X157541833Y-70089380D01*
X157732309Y-70089380D01*
X157827547Y-70041761D01*
X157875166Y-69994142D01*
X157922785Y-69898904D01*
X157922785Y-69613190D01*
X157875166Y-69517952D01*
X157827547Y-69470333D01*
X157732309Y-69422714D01*
X157541833Y-69422714D01*
X157446595Y-69470333D01*
X156589452Y-70089380D02*
X156589452Y-69565571D01*
X156637071Y-69470333D01*
X156732309Y-69422714D01*
X156922785Y-69422714D01*
X157018023Y-69470333D01*
X156589452Y-70041761D02*
X156684690Y-70089380D01*
X156922785Y-70089380D01*
X157018023Y-70041761D01*
X157065642Y-69946523D01*
X157065642Y-69851285D01*
X157018023Y-69756047D01*
X156922785Y-69708428D01*
X156684690Y-69708428D01*
X156589452Y-69660809D01*
X156113261Y-70089380D02*
X156113261Y-69422714D01*
X156113261Y-69613190D02*
X156065642Y-69517952D01*
X156018023Y-69470333D01*
X155922785Y-69422714D01*
X155827547Y-69422714D01*
X155065642Y-70089380D02*
X155065642Y-69089380D01*
X155065642Y-70041761D02*
X155160880Y-70089380D01*
X155351357Y-70089380D01*
X155446595Y-70041761D01*
X155494214Y-69994142D01*
X155541833Y-69898904D01*
X155541833Y-69613190D01*
X155494214Y-69517952D01*
X155446595Y-69470333D01*
X155351357Y-69422714D01*
X155160880Y-69422714D01*
X155065642Y-69470333D01*
X153827547Y-70089380D02*
X153827547Y-69422714D01*
X153827547Y-69089380D02*
X153875166Y-69137000D01*
X153827547Y-69184619D01*
X153779928Y-69137000D01*
X153827547Y-69089380D01*
X153827547Y-69184619D01*
X153351357Y-69422714D02*
X153351357Y-70089380D01*
X153351357Y-69517952D02*
X153303738Y-69470333D01*
X153208500Y-69422714D01*
X153065642Y-69422714D01*
X152970404Y-69470333D01*
X152922785Y-69565571D01*
X152922785Y-70089380D01*
X151256119Y-70041761D02*
X151351357Y-70089380D01*
X151541833Y-70089380D01*
X151637071Y-70041761D01*
X151684690Y-69994142D01*
X151732309Y-69898904D01*
X151732309Y-69613190D01*
X151684690Y-69517952D01*
X151637071Y-69470333D01*
X151541833Y-69422714D01*
X151351357Y-69422714D01*
X151256119Y-69470333D01*
X150827547Y-70089380D02*
X150827547Y-69089380D01*
X150398976Y-70089380D02*
X150398976Y-69565571D01*
X150446595Y-69470333D01*
X150541833Y-69422714D01*
X150684690Y-69422714D01*
X150779928Y-69470333D01*
X150827547Y-69517952D01*
X149494214Y-70089380D02*
X149494214Y-69565571D01*
X149541833Y-69470333D01*
X149637071Y-69422714D01*
X149827547Y-69422714D01*
X149922785Y-69470333D01*
X149494214Y-70041761D02*
X149589452Y-70089380D01*
X149827547Y-70089380D01*
X149922785Y-70041761D01*
X149970404Y-69946523D01*
X149970404Y-69851285D01*
X149922785Y-69756047D01*
X149827547Y-69708428D01*
X149589452Y-69708428D01*
X149494214Y-69660809D01*
X149018023Y-70089380D02*
X149018023Y-69422714D01*
X149018023Y-69089380D02*
X149065642Y-69137000D01*
X149018023Y-69184619D01*
X148970404Y-69137000D01*
X149018023Y-69089380D01*
X149018023Y-69184619D01*
X148541833Y-69422714D02*
X148541833Y-70089380D01*
X148541833Y-69517952D02*
X148494214Y-69470333D01*
X148398976Y-69422714D01*
X148256119Y-69422714D01*
X148160880Y-69470333D01*
X148113261Y-69565571D01*
X148113261Y-70089380D01*
X147637071Y-69994142D02*
X147589452Y-70041761D01*
X147637071Y-70089380D01*
X147684690Y-70041761D01*
X147637071Y-69994142D01*
X147637071Y-70089380D01*
X147637071Y-69470333D02*
X147589452Y-69517952D01*
X147637071Y-69565571D01*
X147684690Y-69517952D01*
X147637071Y-69470333D01*
X147637071Y-69565571D01*
X145637071Y-69422714D02*
X145637071Y-70279857D01*
X145684690Y-70375095D01*
X145779928Y-70422714D01*
X145827547Y-70422714D01*
X145637071Y-69089380D02*
X145684690Y-69137000D01*
X145637071Y-69184619D01*
X145589452Y-69137000D01*
X145637071Y-69089380D01*
X145637071Y-69184619D01*
X144732309Y-69422714D02*
X144732309Y-70089380D01*
X145160880Y-69422714D02*
X145160880Y-69946523D01*
X145113261Y-70041761D01*
X145018023Y-70089380D01*
X144875166Y-70089380D01*
X144779928Y-70041761D01*
X144732309Y-69994142D01*
X144256119Y-70089380D02*
X144256119Y-69422714D01*
X144256119Y-69517952D02*
X144208500Y-69470333D01*
X144113261Y-69422714D01*
X143970404Y-69422714D01*
X143875166Y-69470333D01*
X143827547Y-69565571D01*
X143827547Y-70089380D01*
X143827547Y-69565571D02*
X143779928Y-69470333D01*
X143684690Y-69422714D01*
X143541833Y-69422714D01*
X143446595Y-69470333D01*
X143398976Y-69565571D01*
X143398976Y-70089380D01*
X142922785Y-69422714D02*
X142922785Y-70422714D01*
X142922785Y-69470333D02*
X142827547Y-69422714D01*
X142637071Y-69422714D01*
X142541833Y-69470333D01*
X142494214Y-69517952D01*
X142446595Y-69613190D01*
X142446595Y-69898904D01*
X142494214Y-69994142D01*
X142541833Y-70041761D01*
X142637071Y-70089380D01*
X142827547Y-70089380D01*
X142922785Y-70041761D01*
X141637071Y-70041761D02*
X141732309Y-70089380D01*
X141922785Y-70089380D01*
X142018023Y-70041761D01*
X142065642Y-69946523D01*
X142065642Y-69565571D01*
X142018023Y-69470333D01*
X141922785Y-69422714D01*
X141732309Y-69422714D01*
X141637071Y-69470333D01*
X141589452Y-69565571D01*
X141589452Y-69660809D01*
X142065642Y-69756047D01*
X141160880Y-70089380D02*
X141160880Y-69422714D01*
X141160880Y-69613190D02*
X141113261Y-69517952D01*
X141065642Y-69470333D01*
X140970404Y-69422714D01*
X140875166Y-69422714D01*
X139494214Y-69089380D02*
X139494214Y-69803666D01*
X139541833Y-69946523D01*
X139637071Y-70041761D01*
X139779928Y-70089380D01*
X139875166Y-70089380D01*
X139018023Y-70089380D02*
X139018023Y-69089380D01*
X138637071Y-69089380D01*
X138541833Y-69137000D01*
X138494214Y-69184619D01*
X138446595Y-69279857D01*
X138446595Y-69422714D01*
X138494214Y-69517952D01*
X138541833Y-69565571D01*
X138637071Y-69613190D01*
X139018023Y-69613190D01*
X137494214Y-70089380D02*
X138065642Y-70089380D01*
X137779928Y-70089380D02*
X137779928Y-69089380D01*
X137875166Y-69232238D01*
X137970404Y-69327476D01*
X138065642Y-69375095D01*
X136446595Y-69422714D02*
X136065642Y-69422714D01*
X136303738Y-69089380D02*
X136303738Y-69946523D01*
X136256119Y-70041761D01*
X136160880Y-70089380D01*
X136065642Y-70089380D01*
X135732309Y-70089380D02*
X135732309Y-69089380D01*
X135303738Y-70089380D02*
X135303738Y-69565571D01*
X135351357Y-69470333D01*
X135446595Y-69422714D01*
X135589452Y-69422714D01*
X135684690Y-69470333D01*
X135732309Y-69517952D01*
X134827547Y-70089380D02*
X134827547Y-69422714D01*
X134827547Y-69613190D02*
X134779928Y-69517952D01*
X134732309Y-69470333D01*
X134637071Y-69422714D01*
X134541833Y-69422714D01*
X134065642Y-70089380D02*
X134160880Y-70041761D01*
X134208500Y-69994142D01*
X134256119Y-69898904D01*
X134256119Y-69613190D01*
X134208500Y-69517952D01*
X134160880Y-69470333D01*
X134065642Y-69422714D01*
X133922785Y-69422714D01*
X133827547Y-69470333D01*
X133779928Y-69517952D01*
X133732309Y-69613190D01*
X133732309Y-69898904D01*
X133779928Y-69994142D01*
X133827547Y-70041761D01*
X133922785Y-70089380D01*
X134065642Y-70089380D01*
X132875166Y-69422714D02*
X132875166Y-70089380D01*
X133303738Y-69422714D02*
X133303738Y-69946523D01*
X133256119Y-70041761D01*
X133160880Y-70089380D01*
X133018023Y-70089380D01*
X132922785Y-70041761D01*
X132875166Y-69994142D01*
X131970404Y-69422714D02*
X131970404Y-70232238D01*
X132018023Y-70327476D01*
X132065642Y-70375095D01*
X132160880Y-70422714D01*
X132303738Y-70422714D01*
X132398976Y-70375095D01*
X131970404Y-70041761D02*
X132065642Y-70089380D01*
X132256119Y-70089380D01*
X132351357Y-70041761D01*
X132398976Y-69994142D01*
X132446595Y-69898904D01*
X132446595Y-69613190D01*
X132398976Y-69517952D01*
X132351357Y-69470333D01*
X132256119Y-69422714D01*
X132065642Y-69422714D01*
X131970404Y-69470333D01*
X131494214Y-70089380D02*
X131494214Y-69089380D01*
X131065642Y-70089380D02*
X131065642Y-69565571D01*
X131113261Y-69470333D01*
X131208500Y-69422714D01*
X131351357Y-69422714D01*
X131446595Y-69470333D01*
X131494214Y-69517952D01*
X129541833Y-69089380D02*
X129541833Y-69803666D01*
X129589452Y-69946523D01*
X129684690Y-70041761D01*
X129827547Y-70089380D01*
X129922785Y-70089380D01*
X129065642Y-70089380D02*
X129065642Y-69089380D01*
X128684690Y-69089380D01*
X128589452Y-69137000D01*
X128541833Y-69184619D01*
X128494214Y-69279857D01*
X128494214Y-69422714D01*
X128541833Y-69517952D01*
X128589452Y-69565571D01*
X128684690Y-69613190D01*
X129065642Y-69613190D01*
X127637071Y-69422714D02*
X127637071Y-70089380D01*
X127875166Y-69041761D02*
X128113261Y-69756047D01*
X127494214Y-69756047D01*
X126494214Y-69422714D02*
X126113261Y-69422714D01*
X126351357Y-70089380D02*
X126351357Y-69232238D01*
X126303738Y-69137000D01*
X126208500Y-69089380D01*
X126113261Y-69089380D01*
X125637071Y-70089380D02*
X125732309Y-70041761D01*
X125779928Y-69994142D01*
X125827547Y-69898904D01*
X125827547Y-69613190D01*
X125779928Y-69517952D01*
X125732309Y-69470333D01*
X125637071Y-69422714D01*
X125494214Y-69422714D01*
X125398976Y-69470333D01*
X125351357Y-69517952D01*
X125303738Y-69613190D01*
X125303738Y-69898904D01*
X125351357Y-69994142D01*
X125398976Y-70041761D01*
X125494214Y-70089380D01*
X125637071Y-70089380D01*
X124875166Y-70089380D02*
X124875166Y-69422714D01*
X124875166Y-69613190D02*
X124827547Y-69517952D01*
X124779928Y-69470333D01*
X124684690Y-69422714D01*
X124589452Y-69422714D01*
X122970404Y-70089380D02*
X123541833Y-70089380D01*
X123256119Y-70089380D02*
X123256119Y-69089380D01*
X123351357Y-69232238D01*
X123446595Y-69327476D01*
X123541833Y-69375095D01*
X122541833Y-69708428D02*
X121779928Y-69708428D01*
X121351357Y-69184619D02*
X121303738Y-69137000D01*
X121208500Y-69089380D01*
X120970404Y-69089380D01*
X120875166Y-69137000D01*
X120827547Y-69184619D01*
X120779928Y-69279857D01*
X120779928Y-69375095D01*
X120827547Y-69517952D01*
X121398976Y-70089380D01*
X120779928Y-70089380D01*
X162018023Y-71651761D02*
X161875166Y-71699380D01*
X161637071Y-71699380D01*
X161541833Y-71651761D01*
X161494214Y-71604142D01*
X161446595Y-71508904D01*
X161446595Y-71413666D01*
X161494214Y-71318428D01*
X161541833Y-71270809D01*
X161637071Y-71223190D01*
X161827547Y-71175571D01*
X161922785Y-71127952D01*
X161970404Y-71080333D01*
X162018023Y-70985095D01*
X162018023Y-70889857D01*
X161970404Y-70794619D01*
X161922785Y-70747000D01*
X161827547Y-70699380D01*
X161589452Y-70699380D01*
X161446595Y-70747000D01*
X160637071Y-71651761D02*
X160732309Y-71699380D01*
X160922785Y-71699380D01*
X161018023Y-71651761D01*
X161065642Y-71556523D01*
X161065642Y-71175571D01*
X161018023Y-71080333D01*
X160922785Y-71032714D01*
X160732309Y-71032714D01*
X160637071Y-71080333D01*
X160589452Y-71175571D01*
X160589452Y-71270809D01*
X161065642Y-71366047D01*
X159732309Y-71651761D02*
X159827547Y-71699380D01*
X160018023Y-71699380D01*
X160113261Y-71651761D01*
X160160880Y-71604142D01*
X160208500Y-71508904D01*
X160208500Y-71223190D01*
X160160880Y-71127952D01*
X160113261Y-71080333D01*
X160018023Y-71032714D01*
X159827547Y-71032714D01*
X159732309Y-71080333D01*
X159160880Y-71699380D02*
X159256119Y-71651761D01*
X159303738Y-71604142D01*
X159351357Y-71508904D01*
X159351357Y-71223190D01*
X159303738Y-71127952D01*
X159256119Y-71080333D01*
X159160880Y-71032714D01*
X159018023Y-71032714D01*
X158922785Y-71080333D01*
X158875166Y-71127952D01*
X158827547Y-71223190D01*
X158827547Y-71508904D01*
X158875166Y-71604142D01*
X158922785Y-71651761D01*
X159018023Y-71699380D01*
X159160880Y-71699380D01*
X158398976Y-71032714D02*
X158398976Y-71699380D01*
X158398976Y-71127952D02*
X158351357Y-71080333D01*
X158256119Y-71032714D01*
X158113261Y-71032714D01*
X158018023Y-71080333D01*
X157970404Y-71175571D01*
X157970404Y-71699380D01*
X157065642Y-71699380D02*
X157065642Y-70699380D01*
X157065642Y-71651761D02*
X157160880Y-71699380D01*
X157351357Y-71699380D01*
X157446595Y-71651761D01*
X157494214Y-71604142D01*
X157541833Y-71508904D01*
X157541833Y-71223190D01*
X157494214Y-71127952D01*
X157446595Y-71080333D01*
X157351357Y-71032714D01*
X157160880Y-71032714D01*
X157065642Y-71080333D01*
X155398976Y-71651761D02*
X155494214Y-71699380D01*
X155684690Y-71699380D01*
X155779928Y-71651761D01*
X155827547Y-71604142D01*
X155875166Y-71508904D01*
X155875166Y-71223190D01*
X155827547Y-71127952D01*
X155779928Y-71080333D01*
X155684690Y-71032714D01*
X155494214Y-71032714D01*
X155398976Y-71080333D01*
X154541833Y-71699380D02*
X154541833Y-71175571D01*
X154589452Y-71080333D01*
X154684690Y-71032714D01*
X154875166Y-71032714D01*
X154970404Y-71080333D01*
X154541833Y-71651761D02*
X154637071Y-71699380D01*
X154875166Y-71699380D01*
X154970404Y-71651761D01*
X155018023Y-71556523D01*
X155018023Y-71461285D01*
X154970404Y-71366047D01*
X154875166Y-71318428D01*
X154637071Y-71318428D01*
X154541833Y-71270809D01*
X154065642Y-71699380D02*
X154065642Y-71032714D01*
X154065642Y-71223190D02*
X154018023Y-71127952D01*
X153970404Y-71080333D01*
X153875166Y-71032714D01*
X153779928Y-71032714D01*
X153018023Y-71699380D02*
X153018023Y-70699380D01*
X153018023Y-71651761D02*
X153113261Y-71699380D01*
X153303738Y-71699380D01*
X153398976Y-71651761D01*
X153446595Y-71604142D01*
X153494214Y-71508904D01*
X153494214Y-71223190D01*
X153446595Y-71127952D01*
X153398976Y-71080333D01*
X153303738Y-71032714D01*
X153113261Y-71032714D01*
X153018023Y-71080333D01*
X151779928Y-71699380D02*
X151779928Y-71032714D01*
X151779928Y-70699380D02*
X151827547Y-70747000D01*
X151779928Y-70794619D01*
X151732309Y-70747000D01*
X151779928Y-70699380D01*
X151779928Y-70794619D01*
X151303738Y-71032714D02*
X151303738Y-71699380D01*
X151303738Y-71127952D02*
X151256119Y-71080333D01*
X151160880Y-71032714D01*
X151018023Y-71032714D01*
X150922785Y-71080333D01*
X150875166Y-71175571D01*
X150875166Y-71699380D01*
X149208500Y-71651761D02*
X149303738Y-71699380D01*
X149494214Y-71699380D01*
X149589452Y-71651761D01*
X149637071Y-71604142D01*
X149684690Y-71508904D01*
X149684690Y-71223190D01*
X149637071Y-71127952D01*
X149589452Y-71080333D01*
X149494214Y-71032714D01*
X149303738Y-71032714D01*
X149208500Y-71080333D01*
X148779928Y-71699380D02*
X148779928Y-70699380D01*
X148351357Y-71699380D02*
X148351357Y-71175571D01*
X148398976Y-71080333D01*
X148494214Y-71032714D01*
X148637071Y-71032714D01*
X148732309Y-71080333D01*
X148779928Y-71127952D01*
X147446595Y-71699380D02*
X147446595Y-71175571D01*
X147494214Y-71080333D01*
X147589452Y-71032714D01*
X147779928Y-71032714D01*
X147875166Y-71080333D01*
X147446595Y-71651761D02*
X147541833Y-71699380D01*
X147779928Y-71699380D01*
X147875166Y-71651761D01*
X147922785Y-71556523D01*
X147922785Y-71461285D01*
X147875166Y-71366047D01*
X147779928Y-71318428D01*
X147541833Y-71318428D01*
X147446595Y-71270809D01*
X146970404Y-71699380D02*
X146970404Y-71032714D01*
X146970404Y-70699380D02*
X147018023Y-70747000D01*
X146970404Y-70794619D01*
X146922785Y-70747000D01*
X146970404Y-70699380D01*
X146970404Y-70794619D01*
X146494214Y-71032714D02*
X146494214Y-71699380D01*
X146494214Y-71127952D02*
X146446595Y-71080333D01*
X146351357Y-71032714D01*
X146208500Y-71032714D01*
X146113261Y-71080333D01*
X146065642Y-71175571D01*
X146065642Y-71699380D01*
X145589452Y-71604142D02*
X145541833Y-71651761D01*
X145589452Y-71699380D01*
X145637071Y-71651761D01*
X145589452Y-71604142D01*
X145589452Y-71699380D01*
X145589452Y-71080333D02*
X145541833Y-71127952D01*
X145589452Y-71175571D01*
X145637071Y-71127952D01*
X145589452Y-71080333D01*
X145589452Y-71175571D01*
X144351357Y-71032714D02*
X144351357Y-71889857D01*
X144398976Y-71985095D01*
X144494214Y-72032714D01*
X144541833Y-72032714D01*
X144351357Y-70699380D02*
X144398976Y-70747000D01*
X144351357Y-70794619D01*
X144303738Y-70747000D01*
X144351357Y-70699380D01*
X144351357Y-70794619D01*
X143446595Y-71032714D02*
X143446595Y-71699380D01*
X143875166Y-71032714D02*
X143875166Y-71556523D01*
X143827547Y-71651761D01*
X143732309Y-71699380D01*
X143589452Y-71699380D01*
X143494214Y-71651761D01*
X143446595Y-71604142D01*
X142970404Y-71699380D02*
X142970404Y-71032714D01*
X142970404Y-71127952D02*
X142922785Y-71080333D01*
X142827547Y-71032714D01*
X142684690Y-71032714D01*
X142589452Y-71080333D01*
X142541833Y-71175571D01*
X142541833Y-71699380D01*
X142541833Y-71175571D02*
X142494214Y-71080333D01*
X142398976Y-71032714D01*
X142256119Y-71032714D01*
X142160880Y-71080333D01*
X142113261Y-71175571D01*
X142113261Y-71699380D01*
X141637071Y-71032714D02*
X141637071Y-72032714D01*
X141637071Y-71080333D02*
X141541833Y-71032714D01*
X141351357Y-71032714D01*
X141256119Y-71080333D01*
X141208500Y-71127952D01*
X141160880Y-71223190D01*
X141160880Y-71508904D01*
X141208500Y-71604142D01*
X141256119Y-71651761D01*
X141351357Y-71699380D01*
X141541833Y-71699380D01*
X141637071Y-71651761D01*
X140351357Y-71651761D02*
X140446595Y-71699380D01*
X140637071Y-71699380D01*
X140732309Y-71651761D01*
X140779928Y-71556523D01*
X140779928Y-71175571D01*
X140732309Y-71080333D01*
X140637071Y-71032714D01*
X140446595Y-71032714D01*
X140351357Y-71080333D01*
X140303738Y-71175571D01*
X140303738Y-71270809D01*
X140779928Y-71366047D01*
X139875166Y-71699380D02*
X139875166Y-71032714D01*
X139875166Y-71223190D02*
X139827547Y-71127952D01*
X139779928Y-71080333D01*
X139684690Y-71032714D01*
X139589452Y-71032714D01*
X138208500Y-70699380D02*
X138208500Y-71413666D01*
X138256119Y-71556523D01*
X138351357Y-71651761D01*
X138494214Y-71699380D01*
X138589452Y-71699380D01*
X137732309Y-71699380D02*
X137732309Y-70699380D01*
X137351357Y-70699380D01*
X137256119Y-70747000D01*
X137208500Y-70794619D01*
X137160880Y-70889857D01*
X137160880Y-71032714D01*
X137208500Y-71127952D01*
X137256119Y-71175571D01*
X137351357Y-71223190D01*
X137732309Y-71223190D01*
X136208500Y-71699380D02*
X136779928Y-71699380D01*
X136494214Y-71699380D02*
X136494214Y-70699380D01*
X136589452Y-70842238D01*
X136684690Y-70937476D01*
X136779928Y-70985095D01*
X135160880Y-71032714D02*
X134779928Y-71032714D01*
X135018023Y-70699380D02*
X135018023Y-71556523D01*
X134970404Y-71651761D01*
X134875166Y-71699380D01*
X134779928Y-71699380D01*
X134446595Y-71699380D02*
X134446595Y-70699380D01*
X134018023Y-71699380D02*
X134018023Y-71175571D01*
X134065642Y-71080333D01*
X134160880Y-71032714D01*
X134303738Y-71032714D01*
X134398976Y-71080333D01*
X134446595Y-71127952D01*
X133541833Y-71699380D02*
X133541833Y-71032714D01*
X133541833Y-71223190D02*
X133494214Y-71127952D01*
X133446595Y-71080333D01*
X133351357Y-71032714D01*
X133256119Y-71032714D01*
X132779928Y-71699380D02*
X132875166Y-71651761D01*
X132922785Y-71604142D01*
X132970404Y-71508904D01*
X132970404Y-71223190D01*
X132922785Y-71127952D01*
X132875166Y-71080333D01*
X132779928Y-71032714D01*
X132637071Y-71032714D01*
X132541833Y-71080333D01*
X132494214Y-71127952D01*
X132446595Y-71223190D01*
X132446595Y-71508904D01*
X132494214Y-71604142D01*
X132541833Y-71651761D01*
X132637071Y-71699380D01*
X132779928Y-71699380D01*
X131589452Y-71032714D02*
X131589452Y-71699380D01*
X132018023Y-71032714D02*
X132018023Y-71556523D01*
X131970404Y-71651761D01*
X131875166Y-71699380D01*
X131732309Y-71699380D01*
X131637071Y-71651761D01*
X131589452Y-71604142D01*
X130684690Y-71032714D02*
X130684690Y-71842238D01*
X130732309Y-71937476D01*
X130779928Y-71985095D01*
X130875166Y-72032714D01*
X131018023Y-72032714D01*
X131113261Y-71985095D01*
X130684690Y-71651761D02*
X130779928Y-71699380D01*
X130970404Y-71699380D01*
X131065642Y-71651761D01*
X131113261Y-71604142D01*
X131160880Y-71508904D01*
X131160880Y-71223190D01*
X131113261Y-71127952D01*
X131065642Y-71080333D01*
X130970404Y-71032714D01*
X130779928Y-71032714D01*
X130684690Y-71080333D01*
X130208500Y-71699380D02*
X130208500Y-70699380D01*
X129779928Y-71699380D02*
X129779928Y-71175571D01*
X129827547Y-71080333D01*
X129922785Y-71032714D01*
X130065642Y-71032714D01*
X130160880Y-71080333D01*
X130208500Y-71127952D01*
X128256119Y-70699380D02*
X128256119Y-71413666D01*
X128303738Y-71556523D01*
X128398976Y-71651761D01*
X128541833Y-71699380D01*
X128637071Y-71699380D01*
X127779928Y-71699380D02*
X127779928Y-70699380D01*
X127398976Y-70699380D01*
X127303738Y-70747000D01*
X127256119Y-70794619D01*
X127208500Y-70889857D01*
X127208500Y-71032714D01*
X127256119Y-71127952D01*
X127303738Y-71175571D01*
X127398976Y-71223190D01*
X127779928Y-71223190D01*
X126351357Y-71032714D02*
X126351357Y-71699380D01*
X126589452Y-70651761D02*
X126827547Y-71366047D01*
X126208500Y-71366047D01*
X125208500Y-71032714D02*
X124827547Y-71032714D01*
X125065642Y-71699380D02*
X125065642Y-70842238D01*
X125018023Y-70747000D01*
X124922785Y-70699380D01*
X124827547Y-70699380D01*
X124351357Y-71699380D02*
X124446595Y-71651761D01*
X124494214Y-71604142D01*
X124541833Y-71508904D01*
X124541833Y-71223190D01*
X124494214Y-71127952D01*
X124446595Y-71080333D01*
X124351357Y-71032714D01*
X124208500Y-71032714D01*
X124113261Y-71080333D01*
X124065642Y-71127952D01*
X124018023Y-71223190D01*
X124018023Y-71508904D01*
X124065642Y-71604142D01*
X124113261Y-71651761D01*
X124208500Y-71699380D01*
X124351357Y-71699380D01*
X123589452Y-71699380D02*
X123589452Y-71032714D01*
X123589452Y-71223190D02*
X123541833Y-71127952D01*
X123494214Y-71080333D01*
X123398976Y-71032714D01*
X123303738Y-71032714D01*
X122256119Y-70794619D02*
X122208500Y-70747000D01*
X122113261Y-70699380D01*
X121875166Y-70699380D01*
X121779928Y-70747000D01*
X121732309Y-70794619D01*
X121684690Y-70889857D01*
X121684690Y-70985095D01*
X121732309Y-71127952D01*
X122303738Y-71699380D01*
X121684690Y-71699380D01*
X121256119Y-71318428D02*
X120494214Y-71318428D01*
X120113261Y-70699380D02*
X119494214Y-70699380D01*
X119827547Y-71080333D01*
X119684690Y-71080333D01*
X119589452Y-71127952D01*
X119541833Y-71175571D01*
X119494214Y-71270809D01*
X119494214Y-71508904D01*
X119541833Y-71604142D01*
X119589452Y-71651761D01*
X119684690Y-71699380D01*
X119970404Y-71699380D01*
X120065642Y-71651761D01*
X120113261Y-71604142D01*
X161398976Y-73309380D02*
X161732309Y-72833190D01*
X161970404Y-73309380D02*
X161970404Y-72309380D01*
X161589452Y-72309380D01*
X161494214Y-72357000D01*
X161446595Y-72404619D01*
X161398976Y-72499857D01*
X161398976Y-72642714D01*
X161446595Y-72737952D01*
X161494214Y-72785571D01*
X161589452Y-72833190D01*
X161970404Y-72833190D01*
X160589452Y-73261761D02*
X160684690Y-73309380D01*
X160875166Y-73309380D01*
X160970404Y-73261761D01*
X161018023Y-73166523D01*
X161018023Y-72785571D01*
X160970404Y-72690333D01*
X160875166Y-72642714D01*
X160684690Y-72642714D01*
X160589452Y-72690333D01*
X160541833Y-72785571D01*
X160541833Y-72880809D01*
X161018023Y-72976047D01*
X160113261Y-72642714D02*
X160113261Y-73642714D01*
X160113261Y-72690333D02*
X160018023Y-72642714D01*
X159827547Y-72642714D01*
X159732309Y-72690333D01*
X159684690Y-72737952D01*
X159637071Y-72833190D01*
X159637071Y-73118904D01*
X159684690Y-73214142D01*
X159732309Y-73261761D01*
X159827547Y-73309380D01*
X160018023Y-73309380D01*
X160113261Y-73261761D01*
X158827547Y-73261761D02*
X158922785Y-73309380D01*
X159113261Y-73309380D01*
X159208500Y-73261761D01*
X159256119Y-73166523D01*
X159256119Y-72785571D01*
X159208500Y-72690333D01*
X159113261Y-72642714D01*
X158922785Y-72642714D01*
X158827547Y-72690333D01*
X158779928Y-72785571D01*
X158779928Y-72880809D01*
X159256119Y-72976047D01*
X157922785Y-73309380D02*
X157922785Y-72785571D01*
X157970404Y-72690333D01*
X158065642Y-72642714D01*
X158256119Y-72642714D01*
X158351357Y-72690333D01*
X157922785Y-73261761D02*
X158018023Y-73309380D01*
X158256119Y-73309380D01*
X158351357Y-73261761D01*
X158398976Y-73166523D01*
X158398976Y-73071285D01*
X158351357Y-72976047D01*
X158256119Y-72928428D01*
X158018023Y-72928428D01*
X157922785Y-72880809D01*
X157589452Y-72642714D02*
X157208500Y-72642714D01*
X157446595Y-72309380D02*
X157446595Y-73166523D01*
X157398976Y-73261761D01*
X157303738Y-73309380D01*
X157208500Y-73309380D01*
X156256119Y-72642714D02*
X155875166Y-72642714D01*
X156113261Y-73309380D02*
X156113261Y-72452238D01*
X156065642Y-72357000D01*
X155970404Y-72309380D01*
X155875166Y-72309380D01*
X155398976Y-73309380D02*
X155494214Y-73261761D01*
X155541833Y-73214142D01*
X155589452Y-73118904D01*
X155589452Y-72833190D01*
X155541833Y-72737952D01*
X155494214Y-72690333D01*
X155398976Y-72642714D01*
X155256119Y-72642714D01*
X155160880Y-72690333D01*
X155113261Y-72737952D01*
X155065642Y-72833190D01*
X155065642Y-73118904D01*
X155113261Y-73214142D01*
X155160880Y-73261761D01*
X155256119Y-73309380D01*
X155398976Y-73309380D01*
X154637071Y-73309380D02*
X154637071Y-72642714D01*
X154637071Y-72833190D02*
X154589452Y-72737952D01*
X154541833Y-72690333D01*
X154446595Y-72642714D01*
X154351357Y-72642714D01*
X153398976Y-72642714D02*
X153018023Y-72642714D01*
X153256119Y-72309380D02*
X153256119Y-73166523D01*
X153208500Y-73261761D01*
X153113261Y-73309380D01*
X153018023Y-73309380D01*
X152684690Y-73309380D02*
X152684690Y-72309380D01*
X152256119Y-73309380D02*
X152256119Y-72785571D01*
X152303738Y-72690333D01*
X152398976Y-72642714D01*
X152541833Y-72642714D01*
X152637071Y-72690333D01*
X152684690Y-72737952D01*
X151779928Y-73309380D02*
X151779928Y-72642714D01*
X151779928Y-72309380D02*
X151827547Y-72357000D01*
X151779928Y-72404619D01*
X151732309Y-72357000D01*
X151779928Y-72309380D01*
X151779928Y-72404619D01*
X151303738Y-73309380D02*
X151303738Y-72642714D01*
X151303738Y-72833190D02*
X151256119Y-72737952D01*
X151208500Y-72690333D01*
X151113261Y-72642714D01*
X151018023Y-72642714D01*
X150256119Y-73309380D02*
X150256119Y-72309380D01*
X150256119Y-73261761D02*
X150351357Y-73309380D01*
X150541833Y-73309380D01*
X150637071Y-73261761D01*
X150684690Y-73214142D01*
X150732309Y-73118904D01*
X150732309Y-72833190D01*
X150684690Y-72737952D01*
X150637071Y-72690333D01*
X150541833Y-72642714D01*
X150351357Y-72642714D01*
X150256119Y-72690333D01*
X148589452Y-73309380D02*
X148589452Y-72785571D01*
X148637071Y-72690333D01*
X148732309Y-72642714D01*
X148922785Y-72642714D01*
X149018023Y-72690333D01*
X148589452Y-73261761D02*
X148684690Y-73309380D01*
X148922785Y-73309380D01*
X149018023Y-73261761D01*
X149065642Y-73166523D01*
X149065642Y-73071285D01*
X149018023Y-72976047D01*
X148922785Y-72928428D01*
X148684690Y-72928428D01*
X148589452Y-72880809D01*
X148113261Y-72642714D02*
X148113261Y-73309380D01*
X148113261Y-72737952D02*
X148065642Y-72690333D01*
X147970404Y-72642714D01*
X147827547Y-72642714D01*
X147732309Y-72690333D01*
X147684690Y-72785571D01*
X147684690Y-73309380D01*
X146779928Y-73309380D02*
X146779928Y-72309380D01*
X146779928Y-73261761D02*
X146875166Y-73309380D01*
X147065642Y-73309380D01*
X147160880Y-73261761D01*
X147208500Y-73214142D01*
X147256119Y-73118904D01*
X147256119Y-72833190D01*
X147208500Y-72737952D01*
X147160880Y-72690333D01*
X147065642Y-72642714D01*
X146875166Y-72642714D01*
X146779928Y-72690333D01*
X145684690Y-72642714D02*
X145303738Y-72642714D01*
X145541833Y-73309380D02*
X145541833Y-72452238D01*
X145494214Y-72357000D01*
X145398976Y-72309380D01*
X145303738Y-72309380D01*
X144827547Y-73309380D02*
X144922785Y-73261761D01*
X144970404Y-73214142D01*
X145018023Y-73118904D01*
X145018023Y-72833190D01*
X144970404Y-72737952D01*
X144922785Y-72690333D01*
X144827547Y-72642714D01*
X144684690Y-72642714D01*
X144589452Y-72690333D01*
X144541833Y-72737952D01*
X144494214Y-72833190D01*
X144494214Y-73118904D01*
X144541833Y-73214142D01*
X144589452Y-73261761D01*
X144684690Y-73309380D01*
X144827547Y-73309380D01*
X143637071Y-72642714D02*
X143637071Y-73309380D01*
X144065642Y-72642714D02*
X144065642Y-73166523D01*
X144018023Y-73261761D01*
X143922785Y-73309380D01*
X143779928Y-73309380D01*
X143684690Y-73261761D01*
X143637071Y-73214142D01*
X143160880Y-73309380D02*
X143160880Y-72642714D01*
X143160880Y-72833190D02*
X143113261Y-72737952D01*
X143065642Y-72690333D01*
X142970404Y-72642714D01*
X142875166Y-72642714D01*
X142684690Y-72642714D02*
X142303738Y-72642714D01*
X142541833Y-72309380D02*
X142541833Y-73166523D01*
X142494214Y-73261761D01*
X142398976Y-73309380D01*
X142303738Y-73309380D01*
X141970404Y-73309380D02*
X141970404Y-72309380D01*
X141541833Y-73309380D02*
X141541833Y-72785571D01*
X141589452Y-72690333D01*
X141684690Y-72642714D01*
X141827547Y-72642714D01*
X141922785Y-72690333D01*
X141970404Y-72737952D01*
X141018023Y-73261761D02*
X141018023Y-73309380D01*
X141065642Y-73404619D01*
X141113261Y-73452238D01*
X139446595Y-73261761D02*
X139541833Y-73309380D01*
X139732309Y-73309380D01*
X139827547Y-73261761D01*
X139875166Y-73166523D01*
X139875166Y-72785571D01*
X139827547Y-72690333D01*
X139732309Y-72642714D01*
X139541833Y-72642714D01*
X139446595Y-72690333D01*
X139398976Y-72785571D01*
X139398976Y-72880809D01*
X139875166Y-72976047D01*
X139113261Y-72642714D02*
X138732309Y-72642714D01*
X138970404Y-72309380D02*
X138970404Y-73166523D01*
X138922785Y-73261761D01*
X138827547Y-73309380D01*
X138732309Y-73309380D01*
X137970404Y-73261761D02*
X138065642Y-73309380D01*
X138256119Y-73309380D01*
X138351357Y-73261761D01*
X138398976Y-73214142D01*
X138446595Y-73118904D01*
X138446595Y-72833190D01*
X138398976Y-72737952D01*
X138351357Y-72690333D01*
X138256119Y-72642714D01*
X138065642Y-72642714D01*
X137970404Y-72690333D01*
X137541833Y-73214142D02*
X137494214Y-73261761D01*
X137541833Y-73309380D01*
X137589452Y-73261761D01*
X137541833Y-73214142D01*
X137541833Y-73309380D01*
D11*
%TO.C,J4*%
X184666466Y-122851333D02*
X184666466Y-123456095D01*
X185029323Y-122730380D02*
X183759323Y-123153714D01*
X185029323Y-123577047D01*
X184364085Y-124000380D02*
X184364085Y-124423714D01*
X185029323Y-124605142D02*
X185029323Y-124000380D01*
X183759323Y-124000380D01*
X183759323Y-124605142D01*
X183880276Y-125088952D02*
X183819800Y-125149428D01*
X183759323Y-125270380D01*
X183759323Y-125572761D01*
X183819800Y-125693714D01*
X183880276Y-125754190D01*
X184001228Y-125814666D01*
X184122180Y-125814666D01*
X184303609Y-125754190D01*
X185029323Y-125028476D01*
X185029323Y-125814666D01*
X197366466Y-122881571D02*
X197366466Y-123486333D01*
X197729323Y-122760619D02*
X196459323Y-123183952D01*
X197729323Y-123607285D01*
X197366466Y-123970142D02*
X197366466Y-124574904D01*
X197729323Y-123849190D02*
X196459323Y-124272523D01*
X197729323Y-124695857D01*
X196580276Y-125058714D02*
X196519800Y-125119190D01*
X196459323Y-125240142D01*
X196459323Y-125542523D01*
X196519800Y-125663476D01*
X196580276Y-125723952D01*
X196701228Y-125784428D01*
X196822180Y-125784428D01*
X197003609Y-125723952D01*
X197729323Y-124998238D01*
X197729323Y-125784428D01*
X187841466Y-122790857D02*
X187841466Y-123395619D01*
X188204323Y-122669904D02*
X186934323Y-123093238D01*
X188204323Y-123516571D01*
X188204323Y-123939904D02*
X186934323Y-123939904D01*
X186934323Y-124242285D01*
X186994800Y-124423714D01*
X187115752Y-124544666D01*
X187236704Y-124605142D01*
X187478609Y-124665619D01*
X187660038Y-124665619D01*
X187901942Y-124605142D01*
X188022895Y-124544666D01*
X188143847Y-124423714D01*
X188204323Y-124242285D01*
X188204323Y-123939904D01*
X187055276Y-125149428D02*
X186994800Y-125209904D01*
X186934323Y-125330857D01*
X186934323Y-125633238D01*
X186994800Y-125754190D01*
X187055276Y-125814666D01*
X187176228Y-125875142D01*
X187297180Y-125875142D01*
X187478609Y-125814666D01*
X188204323Y-125088952D01*
X188204323Y-125875142D01*
X95464085Y-123093238D02*
X95524561Y-123274666D01*
X95585038Y-123335142D01*
X95705990Y-123395619D01*
X95887419Y-123395619D01*
X96008371Y-123335142D01*
X96068847Y-123274666D01*
X96129323Y-123153714D01*
X96129323Y-122669904D01*
X94859323Y-122669904D01*
X94859323Y-123093238D01*
X94919800Y-123214190D01*
X94980276Y-123274666D01*
X95101228Y-123335142D01*
X95222180Y-123335142D01*
X95343133Y-123274666D01*
X95403609Y-123214190D01*
X95464085Y-123093238D01*
X95464085Y-122669904D01*
X96129323Y-123939904D02*
X94859323Y-123939904D01*
X95766466Y-124363238D01*
X94859323Y-124786571D01*
X96129323Y-124786571D01*
X94980276Y-125330857D02*
X94919800Y-125391333D01*
X94859323Y-125512285D01*
X94859323Y-125814666D01*
X94919800Y-125935619D01*
X94980276Y-125996095D01*
X95101228Y-126056571D01*
X95222180Y-126056571D01*
X95403609Y-125996095D01*
X96129323Y-125270380D01*
X96129323Y-126056571D01*
X92289085Y-123153714D02*
X92349561Y-123335142D01*
X92410038Y-123395619D01*
X92530990Y-123456095D01*
X92712419Y-123456095D01*
X92833371Y-123395619D01*
X92893847Y-123335142D01*
X92954323Y-123214190D01*
X92954323Y-122730380D01*
X91684323Y-122730380D01*
X91684323Y-123153714D01*
X91744800Y-123274666D01*
X91805276Y-123335142D01*
X91926228Y-123395619D01*
X92047180Y-123395619D01*
X92168133Y-123335142D01*
X92228609Y-123274666D01*
X92289085Y-123153714D01*
X92289085Y-122730380D01*
X92954323Y-124000380D02*
X91684323Y-124000380D01*
X92954323Y-124726095D01*
X91684323Y-124726095D01*
X91805276Y-125270380D02*
X91744800Y-125330857D01*
X91684323Y-125451809D01*
X91684323Y-125754190D01*
X91744800Y-125875142D01*
X91805276Y-125935619D01*
X91926228Y-125996095D01*
X92047180Y-125996095D01*
X92228609Y-125935619D01*
X92954323Y-125209904D01*
X92954323Y-125996095D01*
X114514085Y-123244428D02*
X114574561Y-123425857D01*
X114635038Y-123486333D01*
X114755990Y-123546809D01*
X114937419Y-123546809D01*
X115058371Y-123486333D01*
X115118847Y-123425857D01*
X115179323Y-123304904D01*
X115179323Y-122821095D01*
X113909323Y-122821095D01*
X113909323Y-123244428D01*
X113969800Y-123365380D01*
X114030276Y-123425857D01*
X114151228Y-123486333D01*
X114272180Y-123486333D01*
X114393133Y-123425857D01*
X114453609Y-123365380D01*
X114514085Y-123244428D01*
X114514085Y-122821095D01*
X114514085Y-124091095D02*
X114514085Y-124514428D01*
X115179323Y-124695857D02*
X115179323Y-124091095D01*
X113909323Y-124091095D01*
X113909323Y-124695857D01*
X114030276Y-125179666D02*
X113969800Y-125240142D01*
X113909323Y-125361095D01*
X113909323Y-125663476D01*
X113969800Y-125784428D01*
X114030276Y-125844904D01*
X114151228Y-125905380D01*
X114272180Y-125905380D01*
X114453609Y-125844904D01*
X115179323Y-125119190D01*
X115179323Y-125905380D01*
X152916466Y-122821095D02*
X152916466Y-123425857D01*
X153279323Y-122700142D02*
X152009323Y-123123476D01*
X153279323Y-123546809D01*
X153218847Y-123909666D02*
X153279323Y-124091095D01*
X153279323Y-124393476D01*
X153218847Y-124514428D01*
X153158371Y-124574904D01*
X153037419Y-124635380D01*
X152916466Y-124635380D01*
X152795514Y-124574904D01*
X152735038Y-124514428D01*
X152674561Y-124393476D01*
X152614085Y-124151571D01*
X152553609Y-124030619D01*
X152493133Y-123970142D01*
X152372180Y-123909666D01*
X152251228Y-123909666D01*
X152130276Y-123970142D01*
X152069800Y-124030619D01*
X152009323Y-124151571D01*
X152009323Y-124453952D01*
X152069800Y-124635380D01*
X152130276Y-125119190D02*
X152069800Y-125179666D01*
X152009323Y-125300619D01*
X152009323Y-125603000D01*
X152069800Y-125723952D01*
X152130276Y-125784428D01*
X152251228Y-125844904D01*
X152372180Y-125844904D01*
X152553609Y-125784428D01*
X153279323Y-125058714D01*
X153279323Y-125844904D01*
X178316466Y-122760619D02*
X178316466Y-123365380D01*
X178679323Y-122639666D02*
X177409323Y-123063000D01*
X178679323Y-123486333D01*
X178679323Y-123909666D02*
X177409323Y-123909666D01*
X178014085Y-123909666D02*
X178014085Y-124635380D01*
X178679323Y-124635380D02*
X177409323Y-124635380D01*
X177530276Y-125179666D02*
X177469800Y-125240142D01*
X177409323Y-125361095D01*
X177409323Y-125663476D01*
X177469800Y-125784428D01*
X177530276Y-125844904D01*
X177651228Y-125905380D01*
X177772180Y-125905380D01*
X177953609Y-125844904D01*
X178679323Y-125119190D01*
X178679323Y-125905380D01*
X98639085Y-123304904D02*
X98699561Y-123486333D01*
X98760038Y-123546809D01*
X98880990Y-123607285D01*
X99062419Y-123607285D01*
X99183371Y-123546809D01*
X99243847Y-123486333D01*
X99304323Y-123365380D01*
X99304323Y-122881571D01*
X98034323Y-122881571D01*
X98034323Y-123304904D01*
X98094800Y-123425857D01*
X98155276Y-123486333D01*
X98276228Y-123546809D01*
X98397180Y-123546809D01*
X98518133Y-123486333D01*
X98578609Y-123425857D01*
X98639085Y-123304904D01*
X98639085Y-122881571D01*
X99304323Y-124756333D02*
X99304323Y-124151571D01*
X98034323Y-124151571D01*
X98155276Y-125119190D02*
X98094800Y-125179666D01*
X98034323Y-125300619D01*
X98034323Y-125603000D01*
X98094800Y-125723952D01*
X98155276Y-125784428D01*
X98276228Y-125844904D01*
X98397180Y-125844904D01*
X98578609Y-125784428D01*
X99304323Y-125058714D01*
X99304323Y-125844904D01*
X76414085Y-123153714D02*
X76474561Y-123335142D01*
X76535038Y-123395619D01*
X76655990Y-123456095D01*
X76837419Y-123456095D01*
X76958371Y-123395619D01*
X77018847Y-123335142D01*
X77079323Y-123214190D01*
X77079323Y-122730380D01*
X75809323Y-122730380D01*
X75809323Y-123153714D01*
X75869800Y-123274666D01*
X75930276Y-123335142D01*
X76051228Y-123395619D01*
X76172180Y-123395619D01*
X76293133Y-123335142D01*
X76353609Y-123274666D01*
X76414085Y-123153714D01*
X76414085Y-122730380D01*
X75809323Y-124000380D02*
X76837419Y-124000380D01*
X76958371Y-124060857D01*
X77018847Y-124121333D01*
X77079323Y-124242285D01*
X77079323Y-124484190D01*
X77018847Y-124605142D01*
X76958371Y-124665619D01*
X76837419Y-124726095D01*
X75809323Y-124726095D01*
X75930276Y-125270380D02*
X75869800Y-125330857D01*
X75809323Y-125451809D01*
X75809323Y-125754190D01*
X75869800Y-125875142D01*
X75930276Y-125935619D01*
X76051228Y-125996095D01*
X76172180Y-125996095D01*
X76353609Y-125935619D01*
X77079323Y-125209904D01*
X77079323Y-125996095D01*
X108164085Y-123153714D02*
X108224561Y-123335142D01*
X108285038Y-123395619D01*
X108405990Y-123456095D01*
X108587419Y-123456095D01*
X108708371Y-123395619D01*
X108768847Y-123335142D01*
X108829323Y-123214190D01*
X108829323Y-122730380D01*
X107559323Y-122730380D01*
X107559323Y-123153714D01*
X107619800Y-123274666D01*
X107680276Y-123335142D01*
X107801228Y-123395619D01*
X107922180Y-123395619D01*
X108043133Y-123335142D01*
X108103609Y-123274666D01*
X108164085Y-123153714D01*
X108164085Y-122730380D01*
X108829323Y-124000380D02*
X107559323Y-124000380D01*
X108164085Y-124000380D02*
X108164085Y-124726095D01*
X108829323Y-124726095D02*
X107559323Y-124726095D01*
X107680276Y-125270380D02*
X107619800Y-125330857D01*
X107559323Y-125451809D01*
X107559323Y-125754190D01*
X107619800Y-125875142D01*
X107680276Y-125935619D01*
X107801228Y-125996095D01*
X107922180Y-125996095D01*
X108103609Y-125935619D01*
X108829323Y-125209904D01*
X108829323Y-125996095D01*
X165616466Y-122700142D02*
X165616466Y-123304904D01*
X165979323Y-122579190D02*
X164709323Y-123002523D01*
X165979323Y-123425857D01*
X165979323Y-123849190D02*
X164709323Y-123849190D01*
X165616466Y-124272523D01*
X164709323Y-124695857D01*
X165979323Y-124695857D01*
X164830276Y-125240142D02*
X164769800Y-125300619D01*
X164709323Y-125421571D01*
X164709323Y-125723952D01*
X164769800Y-125844904D01*
X164830276Y-125905380D01*
X164951228Y-125965857D01*
X165072180Y-125965857D01*
X165253609Y-125905380D01*
X165979323Y-125179666D01*
X165979323Y-125965857D01*
X175141466Y-122942047D02*
X175141466Y-123546809D01*
X175504323Y-122821095D02*
X174234323Y-123244428D01*
X175504323Y-123667761D01*
X174234323Y-124453952D02*
X175141466Y-124453952D01*
X175322895Y-124393476D01*
X175443847Y-124272523D01*
X175504323Y-124091095D01*
X175504323Y-123970142D01*
X174355276Y-124998238D02*
X174294800Y-125058714D01*
X174234323Y-125179666D01*
X174234323Y-125482047D01*
X174294800Y-125603000D01*
X174355276Y-125663476D01*
X174476228Y-125723952D01*
X174597180Y-125723952D01*
X174778609Y-125663476D01*
X175504323Y-124937761D01*
X175504323Y-125723952D01*
X191016466Y-122790857D02*
X191016466Y-123395619D01*
X191379323Y-122669904D02*
X190109323Y-123093238D01*
X191379323Y-123516571D01*
X191258371Y-124665619D02*
X191318847Y-124605142D01*
X191379323Y-124423714D01*
X191379323Y-124302761D01*
X191318847Y-124121333D01*
X191197895Y-124000380D01*
X191076942Y-123939904D01*
X190835038Y-123879428D01*
X190653609Y-123879428D01*
X190411704Y-123939904D01*
X190290752Y-124000380D01*
X190169800Y-124121333D01*
X190109323Y-124302761D01*
X190109323Y-124423714D01*
X190169800Y-124605142D01*
X190230276Y-124665619D01*
X190230276Y-125149428D02*
X190169800Y-125209904D01*
X190109323Y-125330857D01*
X190109323Y-125633238D01*
X190169800Y-125754190D01*
X190230276Y-125814666D01*
X190351228Y-125875142D01*
X190472180Y-125875142D01*
X190653609Y-125814666D01*
X191379323Y-125088952D01*
X191379323Y-125875142D01*
X146566466Y-122760619D02*
X146566466Y-123365380D01*
X146929323Y-122639666D02*
X145659323Y-123063000D01*
X146929323Y-123486333D01*
X145659323Y-123909666D02*
X146687419Y-123909666D01*
X146808371Y-123970142D01*
X146868847Y-124030619D01*
X146929323Y-124151571D01*
X146929323Y-124393476D01*
X146868847Y-124514428D01*
X146808371Y-124574904D01*
X146687419Y-124635380D01*
X145659323Y-124635380D01*
X145780276Y-125179666D02*
X145719800Y-125240142D01*
X145659323Y-125361095D01*
X145659323Y-125663476D01*
X145719800Y-125784428D01*
X145780276Y-125844904D01*
X145901228Y-125905380D01*
X146022180Y-125905380D01*
X146203609Y-125844904D01*
X146929323Y-125119190D01*
X146929323Y-125905380D01*
X168791466Y-122911809D02*
X168791466Y-123516571D01*
X169154323Y-122790857D02*
X167884323Y-123214190D01*
X169154323Y-123637523D01*
X169154323Y-124665619D02*
X169154323Y-124060857D01*
X167884323Y-124060857D01*
X168005276Y-125028476D02*
X167944800Y-125088952D01*
X167884323Y-125209904D01*
X167884323Y-125512285D01*
X167944800Y-125633238D01*
X168005276Y-125693714D01*
X168126228Y-125754190D01*
X168247180Y-125754190D01*
X168428609Y-125693714D01*
X169154323Y-124968000D01*
X169154323Y-125754190D01*
X156091466Y-122790857D02*
X156091466Y-123395619D01*
X156454323Y-122669904D02*
X155184323Y-123093238D01*
X156454323Y-123516571D01*
X156454323Y-124665619D02*
X155849561Y-124242285D01*
X156454323Y-123939904D02*
X155184323Y-123939904D01*
X155184323Y-124423714D01*
X155244800Y-124544666D01*
X155305276Y-124605142D01*
X155426228Y-124665619D01*
X155607657Y-124665619D01*
X155728609Y-124605142D01*
X155789085Y-124544666D01*
X155849561Y-124423714D01*
X155849561Y-123939904D01*
X155305276Y-125149428D02*
X155244800Y-125209904D01*
X155184323Y-125330857D01*
X155184323Y-125633238D01*
X155244800Y-125754190D01*
X155305276Y-125814666D01*
X155426228Y-125875142D01*
X155547180Y-125875142D01*
X155728609Y-125814666D01*
X156454323Y-125088952D01*
X156454323Y-125875142D01*
X162441466Y-122760619D02*
X162441466Y-123365380D01*
X162804323Y-122639666D02*
X161534323Y-123063000D01*
X162804323Y-123486333D01*
X162804323Y-123909666D02*
X161534323Y-123909666D01*
X162804323Y-124635380D01*
X161534323Y-124635380D01*
X161655276Y-125179666D02*
X161594800Y-125240142D01*
X161534323Y-125361095D01*
X161534323Y-125663476D01*
X161594800Y-125784428D01*
X161655276Y-125844904D01*
X161776228Y-125905380D01*
X161897180Y-125905380D01*
X162078609Y-125844904D01*
X162804323Y-125119190D01*
X162804323Y-125905380D01*
X82764085Y-123214190D02*
X82824561Y-123395619D01*
X82885038Y-123456095D01*
X83005990Y-123516571D01*
X83187419Y-123516571D01*
X83308371Y-123456095D01*
X83368847Y-123395619D01*
X83429323Y-123274666D01*
X83429323Y-122790857D01*
X82159323Y-122790857D01*
X82159323Y-123214190D01*
X82219800Y-123335142D01*
X82280276Y-123395619D01*
X82401228Y-123456095D01*
X82522180Y-123456095D01*
X82643133Y-123395619D01*
X82703609Y-123335142D01*
X82764085Y-123214190D01*
X82764085Y-122790857D01*
X83368847Y-124000380D02*
X83429323Y-124181809D01*
X83429323Y-124484190D01*
X83368847Y-124605142D01*
X83308371Y-124665619D01*
X83187419Y-124726095D01*
X83066466Y-124726095D01*
X82945514Y-124665619D01*
X82885038Y-124605142D01*
X82824561Y-124484190D01*
X82764085Y-124242285D01*
X82703609Y-124121333D01*
X82643133Y-124060857D01*
X82522180Y-124000380D01*
X82401228Y-124000380D01*
X82280276Y-124060857D01*
X82219800Y-124121333D01*
X82159323Y-124242285D01*
X82159323Y-124544666D01*
X82219800Y-124726095D01*
X82280276Y-125209904D02*
X82219800Y-125270380D01*
X82159323Y-125391333D01*
X82159323Y-125693714D01*
X82219800Y-125814666D01*
X82280276Y-125875142D01*
X82401228Y-125935619D01*
X82522180Y-125935619D01*
X82703609Y-125875142D01*
X83429323Y-125149428D01*
X83429323Y-125935619D01*
X101814085Y-123183952D02*
X101874561Y-123365380D01*
X101935038Y-123425857D01*
X102055990Y-123486333D01*
X102237419Y-123486333D01*
X102358371Y-123425857D01*
X102418847Y-123365380D01*
X102479323Y-123244428D01*
X102479323Y-122760619D01*
X101209323Y-122760619D01*
X101209323Y-123183952D01*
X101269800Y-123304904D01*
X101330276Y-123365380D01*
X101451228Y-123425857D01*
X101572180Y-123425857D01*
X101693133Y-123365380D01*
X101753609Y-123304904D01*
X101814085Y-123183952D01*
X101814085Y-122760619D01*
X102479323Y-124030619D02*
X101209323Y-124030619D01*
X102479323Y-124756333D02*
X101753609Y-124212047D01*
X101209323Y-124756333D02*
X101935038Y-124030619D01*
X101330276Y-125240142D02*
X101269800Y-125300619D01*
X101209323Y-125421571D01*
X101209323Y-125723952D01*
X101269800Y-125844904D01*
X101330276Y-125905380D01*
X101451228Y-125965857D01*
X101572180Y-125965857D01*
X101753609Y-125905380D01*
X102479323Y-125179666D01*
X102479323Y-125965857D01*
X171966466Y-122790857D02*
X171966466Y-123395619D01*
X172329323Y-122669904D02*
X171059323Y-123093238D01*
X172329323Y-123516571D01*
X172329323Y-123939904D02*
X171059323Y-123939904D01*
X172329323Y-124665619D02*
X171603609Y-124121333D01*
X171059323Y-124665619D02*
X171785038Y-123939904D01*
X171180276Y-125149428D02*
X171119800Y-125209904D01*
X171059323Y-125330857D01*
X171059323Y-125633238D01*
X171119800Y-125754190D01*
X171180276Y-125814666D01*
X171301228Y-125875142D01*
X171422180Y-125875142D01*
X171603609Y-125814666D01*
X172329323Y-125088952D01*
X172329323Y-125875142D01*
X127214085Y-123274666D02*
X127274561Y-123456095D01*
X127335038Y-123516571D01*
X127455990Y-123577047D01*
X127637419Y-123577047D01*
X127758371Y-123516571D01*
X127818847Y-123456095D01*
X127879323Y-123335142D01*
X127879323Y-122851333D01*
X126609323Y-122851333D01*
X126609323Y-123274666D01*
X126669800Y-123395619D01*
X126730276Y-123456095D01*
X126851228Y-123516571D01*
X126972180Y-123516571D01*
X127093133Y-123456095D01*
X127153609Y-123395619D01*
X127214085Y-123274666D01*
X127214085Y-122851333D01*
X127516466Y-124060857D02*
X127516466Y-124665619D01*
X127879323Y-123939904D02*
X126609323Y-124363238D01*
X127879323Y-124786571D01*
X126730276Y-125149428D02*
X126669800Y-125209904D01*
X126609323Y-125330857D01*
X126609323Y-125633238D01*
X126669800Y-125754190D01*
X126730276Y-125814666D01*
X126851228Y-125875142D01*
X126972180Y-125875142D01*
X127153609Y-125814666D01*
X127879323Y-125088952D01*
X127879323Y-125875142D01*
X181491466Y-122881571D02*
X181491466Y-123486333D01*
X181854323Y-122760619D02*
X180584323Y-123183952D01*
X181854323Y-123607285D01*
X181189085Y-124453952D02*
X181189085Y-124030619D01*
X181854323Y-124030619D02*
X180584323Y-124030619D01*
X180584323Y-124635380D01*
X180705276Y-125058714D02*
X180644800Y-125119190D01*
X180584323Y-125240142D01*
X180584323Y-125542523D01*
X180644800Y-125663476D01*
X180705276Y-125723952D01*
X180826228Y-125784428D01*
X180947180Y-125784428D01*
X181128609Y-125723952D01*
X181854323Y-124998238D01*
X181854323Y-125784428D01*
X104989085Y-123335142D02*
X105049561Y-123516571D01*
X105110038Y-123577047D01*
X105230990Y-123637523D01*
X105412419Y-123637523D01*
X105533371Y-123577047D01*
X105593847Y-123516571D01*
X105654323Y-123395619D01*
X105654323Y-122911809D01*
X104384323Y-122911809D01*
X104384323Y-123335142D01*
X104444800Y-123456095D01*
X104505276Y-123516571D01*
X104626228Y-123577047D01*
X104747180Y-123577047D01*
X104868133Y-123516571D01*
X104928609Y-123456095D01*
X104989085Y-123335142D01*
X104989085Y-122911809D01*
X104384323Y-124544666D02*
X105291466Y-124544666D01*
X105472895Y-124484190D01*
X105593847Y-124363238D01*
X105654323Y-124181809D01*
X105654323Y-124060857D01*
X104505276Y-125088952D02*
X104444800Y-125149428D01*
X104384323Y-125270380D01*
X104384323Y-125572761D01*
X104444800Y-125693714D01*
X104505276Y-125754190D01*
X104626228Y-125814666D01*
X104747180Y-125814666D01*
X104928609Y-125754190D01*
X105654323Y-125028476D01*
X105654323Y-125814666D01*
X120864085Y-123183952D02*
X120924561Y-123365380D01*
X120985038Y-123425857D01*
X121105990Y-123486333D01*
X121287419Y-123486333D01*
X121408371Y-123425857D01*
X121468847Y-123365380D01*
X121529323Y-123244428D01*
X121529323Y-122760619D01*
X120259323Y-122760619D01*
X120259323Y-123183952D01*
X120319800Y-123304904D01*
X120380276Y-123365380D01*
X120501228Y-123425857D01*
X120622180Y-123425857D01*
X120743133Y-123365380D01*
X120803609Y-123304904D01*
X120864085Y-123183952D01*
X120864085Y-122760619D01*
X121408371Y-124756333D02*
X121468847Y-124695857D01*
X121529323Y-124514428D01*
X121529323Y-124393476D01*
X121468847Y-124212047D01*
X121347895Y-124091095D01*
X121226942Y-124030619D01*
X120985038Y-123970142D01*
X120803609Y-123970142D01*
X120561704Y-124030619D01*
X120440752Y-124091095D01*
X120319800Y-124212047D01*
X120259323Y-124393476D01*
X120259323Y-124514428D01*
X120319800Y-124695857D01*
X120380276Y-124756333D01*
X120380276Y-125240142D02*
X120319800Y-125300619D01*
X120259323Y-125421571D01*
X120259323Y-125723952D01*
X120319800Y-125844904D01*
X120380276Y-125905380D01*
X120501228Y-125965857D01*
X120622180Y-125965857D01*
X120803609Y-125905380D01*
X121529323Y-125179666D01*
X121529323Y-125965857D01*
X73239085Y-123274666D02*
X73299561Y-123456095D01*
X73360038Y-123516571D01*
X73480990Y-123577047D01*
X73662419Y-123577047D01*
X73783371Y-123516571D01*
X73843847Y-123456095D01*
X73904323Y-123335142D01*
X73904323Y-122851333D01*
X72634323Y-122851333D01*
X72634323Y-123274666D01*
X72694800Y-123395619D01*
X72755276Y-123456095D01*
X72876228Y-123516571D01*
X72997180Y-123516571D01*
X73118133Y-123456095D01*
X73178609Y-123395619D01*
X73239085Y-123274666D01*
X73239085Y-122851333D01*
X72634323Y-123939904D02*
X73904323Y-124363238D01*
X72634323Y-124786571D01*
X72755276Y-125149428D02*
X72694800Y-125209904D01*
X72634323Y-125330857D01*
X72634323Y-125633238D01*
X72694800Y-125754190D01*
X72755276Y-125814666D01*
X72876228Y-125875142D01*
X72997180Y-125875142D01*
X73178609Y-125814666D01*
X73904323Y-125088952D01*
X73904323Y-125875142D01*
X143391466Y-122881571D02*
X143391466Y-123486333D01*
X143754323Y-122760619D02*
X142484323Y-123183952D01*
X143754323Y-123607285D01*
X142484323Y-123849190D02*
X143754323Y-124272523D01*
X142484323Y-124695857D01*
X142605276Y-125058714D02*
X142544800Y-125119190D01*
X142484323Y-125240142D01*
X142484323Y-125542523D01*
X142544800Y-125663476D01*
X142605276Y-125723952D01*
X142726228Y-125784428D01*
X142847180Y-125784428D01*
X143028609Y-125723952D01*
X143754323Y-124998238D01*
X143754323Y-125784428D01*
X85939085Y-123183952D02*
X85999561Y-123365380D01*
X86060038Y-123425857D01*
X86180990Y-123486333D01*
X86362419Y-123486333D01*
X86483371Y-123425857D01*
X86543847Y-123365380D01*
X86604323Y-123244428D01*
X86604323Y-122760619D01*
X85334323Y-122760619D01*
X85334323Y-123183952D01*
X85394800Y-123304904D01*
X85455276Y-123365380D01*
X85576228Y-123425857D01*
X85697180Y-123425857D01*
X85818133Y-123365380D01*
X85878609Y-123304904D01*
X85939085Y-123183952D01*
X85939085Y-122760619D01*
X86604323Y-124756333D02*
X85999561Y-124333000D01*
X86604323Y-124030619D02*
X85334323Y-124030619D01*
X85334323Y-124514428D01*
X85394800Y-124635380D01*
X85455276Y-124695857D01*
X85576228Y-124756333D01*
X85757657Y-124756333D01*
X85878609Y-124695857D01*
X85939085Y-124635380D01*
X85999561Y-124514428D01*
X85999561Y-124030619D01*
X85455276Y-125240142D02*
X85394800Y-125300619D01*
X85334323Y-125421571D01*
X85334323Y-125723952D01*
X85394800Y-125844904D01*
X85455276Y-125905380D01*
X85576228Y-125965857D01*
X85697180Y-125965857D01*
X85878609Y-125905380D01*
X86604323Y-125179666D01*
X86604323Y-125965857D01*
X111339085Y-123274666D02*
X111399561Y-123456095D01*
X111460038Y-123516571D01*
X111580990Y-123577047D01*
X111762419Y-123577047D01*
X111883371Y-123516571D01*
X111943847Y-123456095D01*
X112004323Y-123335142D01*
X112004323Y-122851333D01*
X110734323Y-122851333D01*
X110734323Y-123274666D01*
X110794800Y-123395619D01*
X110855276Y-123456095D01*
X110976228Y-123516571D01*
X111097180Y-123516571D01*
X111218133Y-123456095D01*
X111278609Y-123395619D01*
X111339085Y-123274666D01*
X111339085Y-122851333D01*
X111339085Y-124544666D02*
X111339085Y-124121333D01*
X112004323Y-124121333D02*
X110734323Y-124121333D01*
X110734323Y-124726095D01*
X110855276Y-125149428D02*
X110794800Y-125209904D01*
X110734323Y-125330857D01*
X110734323Y-125633238D01*
X110794800Y-125754190D01*
X110855276Y-125814666D01*
X110976228Y-125875142D01*
X111097180Y-125875142D01*
X111278609Y-125814666D01*
X112004323Y-125088952D01*
X112004323Y-125875142D01*
X124039085Y-123183952D02*
X124099561Y-123365380D01*
X124160038Y-123425857D01*
X124280990Y-123486333D01*
X124462419Y-123486333D01*
X124583371Y-123425857D01*
X124643847Y-123365380D01*
X124704323Y-123244428D01*
X124704323Y-122760619D01*
X123434323Y-122760619D01*
X123434323Y-123183952D01*
X123494800Y-123304904D01*
X123555276Y-123365380D01*
X123676228Y-123425857D01*
X123797180Y-123425857D01*
X123918133Y-123365380D01*
X123978609Y-123304904D01*
X124039085Y-123183952D01*
X124039085Y-122760619D01*
X124039085Y-124453952D02*
X124099561Y-124635380D01*
X124160038Y-124695857D01*
X124280990Y-124756333D01*
X124462419Y-124756333D01*
X124583371Y-124695857D01*
X124643847Y-124635380D01*
X124704323Y-124514428D01*
X124704323Y-124030619D01*
X123434323Y-124030619D01*
X123434323Y-124453952D01*
X123494800Y-124574904D01*
X123555276Y-124635380D01*
X123676228Y-124695857D01*
X123797180Y-124695857D01*
X123918133Y-124635380D01*
X123978609Y-124574904D01*
X124039085Y-124453952D01*
X124039085Y-124030619D01*
X123555276Y-125240142D02*
X123494800Y-125300619D01*
X123434323Y-125421571D01*
X123434323Y-125723952D01*
X123494800Y-125844904D01*
X123555276Y-125905380D01*
X123676228Y-125965857D01*
X123797180Y-125965857D01*
X123978609Y-125905380D01*
X124704323Y-125179666D01*
X124704323Y-125965857D01*
X194191466Y-122790857D02*
X194191466Y-123395619D01*
X194554323Y-122669904D02*
X193284323Y-123093238D01*
X194554323Y-123516571D01*
X193889085Y-124363238D02*
X193949561Y-124544666D01*
X194010038Y-124605142D01*
X194130990Y-124665619D01*
X194312419Y-124665619D01*
X194433371Y-124605142D01*
X194493847Y-124544666D01*
X194554323Y-124423714D01*
X194554323Y-123939904D01*
X193284323Y-123939904D01*
X193284323Y-124363238D01*
X193344800Y-124484190D01*
X193405276Y-124544666D01*
X193526228Y-124605142D01*
X193647180Y-124605142D01*
X193768133Y-124544666D01*
X193828609Y-124484190D01*
X193889085Y-124363238D01*
X193889085Y-123939904D01*
X193405276Y-125149428D02*
X193344800Y-125209904D01*
X193284323Y-125330857D01*
X193284323Y-125633238D01*
X193344800Y-125754190D01*
X193405276Y-125814666D01*
X193526228Y-125875142D01*
X193647180Y-125875142D01*
X193828609Y-125814666D01*
X194554323Y-125088952D01*
X194554323Y-125875142D01*
X79589085Y-123335142D02*
X79649561Y-123516571D01*
X79710038Y-123577047D01*
X79830990Y-123637523D01*
X80012419Y-123637523D01*
X80133371Y-123577047D01*
X80193847Y-123516571D01*
X80254323Y-123395619D01*
X80254323Y-122911809D01*
X78984323Y-122911809D01*
X78984323Y-123335142D01*
X79044800Y-123456095D01*
X79105276Y-123516571D01*
X79226228Y-123577047D01*
X79347180Y-123577047D01*
X79468133Y-123516571D01*
X79528609Y-123456095D01*
X79589085Y-123335142D01*
X79589085Y-122911809D01*
X78984323Y-124000380D02*
X78984323Y-124726095D01*
X80254323Y-124363238D02*
X78984323Y-124363238D01*
X79105276Y-125088952D02*
X79044800Y-125149428D01*
X78984323Y-125270380D01*
X78984323Y-125572761D01*
X79044800Y-125693714D01*
X79105276Y-125754190D01*
X79226228Y-125814666D01*
X79347180Y-125814666D01*
X79528609Y-125754190D01*
X80254323Y-125028476D01*
X80254323Y-125814666D01*
X159266466Y-122790857D02*
X159266466Y-123395619D01*
X159629323Y-122669904D02*
X158359323Y-123093238D01*
X159629323Y-123516571D01*
X159629323Y-123939904D02*
X158359323Y-123939904D01*
X158359323Y-124423714D01*
X158419800Y-124544666D01*
X158480276Y-124605142D01*
X158601228Y-124665619D01*
X158782657Y-124665619D01*
X158903609Y-124605142D01*
X158964085Y-124544666D01*
X159024561Y-124423714D01*
X159024561Y-123939904D01*
X158480276Y-125149428D02*
X158419800Y-125209904D01*
X158359323Y-125330857D01*
X158359323Y-125633238D01*
X158419800Y-125754190D01*
X158480276Y-125814666D01*
X158601228Y-125875142D01*
X158722180Y-125875142D01*
X158903609Y-125814666D01*
X159629323Y-125088952D01*
X159629323Y-125875142D01*
X89114085Y-123183952D02*
X89174561Y-123365380D01*
X89235038Y-123425857D01*
X89355990Y-123486333D01*
X89537419Y-123486333D01*
X89658371Y-123425857D01*
X89718847Y-123365380D01*
X89779323Y-123244428D01*
X89779323Y-122760619D01*
X88509323Y-122760619D01*
X88509323Y-123183952D01*
X88569800Y-123304904D01*
X88630276Y-123365380D01*
X88751228Y-123425857D01*
X88872180Y-123425857D01*
X88993133Y-123365380D01*
X89053609Y-123304904D01*
X89114085Y-123183952D01*
X89114085Y-122760619D01*
X89779323Y-124030619D02*
X88509323Y-124030619D01*
X88509323Y-124514428D01*
X88569800Y-124635380D01*
X88630276Y-124695857D01*
X88751228Y-124756333D01*
X88932657Y-124756333D01*
X89053609Y-124695857D01*
X89114085Y-124635380D01*
X89174561Y-124514428D01*
X89174561Y-124030619D01*
X88630276Y-125240142D02*
X88569800Y-125300619D01*
X88509323Y-125421571D01*
X88509323Y-125723952D01*
X88569800Y-125844904D01*
X88630276Y-125905380D01*
X88751228Y-125965857D01*
X88872180Y-125965857D01*
X89053609Y-125905380D01*
X89779323Y-125179666D01*
X89779323Y-125965857D01*
X117689085Y-123183952D02*
X117749561Y-123365380D01*
X117810038Y-123425857D01*
X117930990Y-123486333D01*
X118112419Y-123486333D01*
X118233371Y-123425857D01*
X118293847Y-123365380D01*
X118354323Y-123244428D01*
X118354323Y-122760619D01*
X117084323Y-122760619D01*
X117084323Y-123183952D01*
X117144800Y-123304904D01*
X117205276Y-123365380D01*
X117326228Y-123425857D01*
X117447180Y-123425857D01*
X117568133Y-123365380D01*
X117628609Y-123304904D01*
X117689085Y-123183952D01*
X117689085Y-122760619D01*
X118354323Y-124030619D02*
X117084323Y-124030619D01*
X117084323Y-124333000D01*
X117144800Y-124514428D01*
X117265752Y-124635380D01*
X117386704Y-124695857D01*
X117628609Y-124756333D01*
X117810038Y-124756333D01*
X118051942Y-124695857D01*
X118172895Y-124635380D01*
X118293847Y-124514428D01*
X118354323Y-124333000D01*
X118354323Y-124030619D01*
X117205276Y-125240142D02*
X117144800Y-125300619D01*
X117084323Y-125421571D01*
X117084323Y-125723952D01*
X117144800Y-125844904D01*
X117205276Y-125905380D01*
X117326228Y-125965857D01*
X117447180Y-125965857D01*
X117628609Y-125905380D01*
X118354323Y-125179666D01*
X118354323Y-125965857D01*
X149741466Y-122942047D02*
X149741466Y-123546809D01*
X150104323Y-122821095D02*
X148834323Y-123244428D01*
X150104323Y-123667761D01*
X148834323Y-123909666D02*
X148834323Y-124635380D01*
X150104323Y-124272523D02*
X148834323Y-124272523D01*
X148955276Y-124998238D02*
X148894800Y-125058714D01*
X148834323Y-125179666D01*
X148834323Y-125482047D01*
X148894800Y-125603000D01*
X148955276Y-125663476D01*
X149076228Y-125723952D01*
X149197180Y-125723952D01*
X149378609Y-125663476D01*
X150104323Y-124937761D01*
X150104323Y-125723952D01*
D10*
%TO.C,JP2*%
X183743333Y-63355380D02*
X183743333Y-64069666D01*
X183790952Y-64212523D01*
X183886190Y-64307761D01*
X184029047Y-64355380D01*
X184124285Y-64355380D01*
X183267142Y-64355380D02*
X183267142Y-63355380D01*
X182886190Y-63355380D01*
X182790952Y-63403000D01*
X182743333Y-63450619D01*
X182695714Y-63545857D01*
X182695714Y-63688714D01*
X182743333Y-63783952D01*
X182790952Y-63831571D01*
X182886190Y-63879190D01*
X183267142Y-63879190D01*
X182314761Y-63450619D02*
X182267142Y-63403000D01*
X182171904Y-63355380D01*
X181933809Y-63355380D01*
X181838571Y-63403000D01*
X181790952Y-63450619D01*
X181743333Y-63545857D01*
X181743333Y-63641095D01*
X181790952Y-63783952D01*
X182362380Y-64355380D01*
X181743333Y-64355380D01*
X185843333Y-61555380D02*
X185224285Y-61555380D01*
X185557619Y-61936333D01*
X185414761Y-61936333D01*
X185319523Y-61983952D01*
X185271904Y-62031571D01*
X185224285Y-62126809D01*
X185224285Y-62364904D01*
X185271904Y-62460142D01*
X185319523Y-62507761D01*
X185414761Y-62555380D01*
X185700476Y-62555380D01*
X185795714Y-62507761D01*
X185843333Y-62460142D01*
X180024285Y-62555380D02*
X180595714Y-62555380D01*
X180310000Y-62555380D02*
X180310000Y-61555380D01*
X180405238Y-61698238D01*
X180500476Y-61793476D01*
X180595714Y-61841095D01*
%TO.C,JP15*%
X193432180Y-112355476D02*
X194146466Y-112355476D01*
X194289323Y-112307857D01*
X194384561Y-112212619D01*
X194432180Y-112069761D01*
X194432180Y-111974523D01*
X194432180Y-112831666D02*
X193432180Y-112831666D01*
X193432180Y-113212619D01*
X193479800Y-113307857D01*
X193527419Y-113355476D01*
X193622657Y-113403095D01*
X193765514Y-113403095D01*
X193860752Y-113355476D01*
X193908371Y-113307857D01*
X193955990Y-113212619D01*
X193955990Y-112831666D01*
X194432180Y-114355476D02*
X194432180Y-113784047D01*
X194432180Y-114069761D02*
X193432180Y-114069761D01*
X193575038Y-113974523D01*
X193670276Y-113879285D01*
X193717895Y-113784047D01*
X193432180Y-115260238D02*
X193432180Y-114784047D01*
X193908371Y-114736428D01*
X193860752Y-114784047D01*
X193813133Y-114879285D01*
X193813133Y-115117380D01*
X193860752Y-115212619D01*
X193908371Y-115260238D01*
X194003609Y-115307857D01*
X194241704Y-115307857D01*
X194336942Y-115260238D01*
X194384561Y-115212619D01*
X194432180Y-115117380D01*
X194432180Y-114879285D01*
X194384561Y-114784047D01*
X194336942Y-114736428D01*
%TO.C,JP17*%
X126757180Y-112330076D02*
X127471466Y-112330076D01*
X127614323Y-112282457D01*
X127709561Y-112187219D01*
X127757180Y-112044361D01*
X127757180Y-111949123D01*
X127757180Y-112806266D02*
X126757180Y-112806266D01*
X126757180Y-113187219D01*
X126804800Y-113282457D01*
X126852419Y-113330076D01*
X126947657Y-113377695D01*
X127090514Y-113377695D01*
X127185752Y-113330076D01*
X127233371Y-113282457D01*
X127280990Y-113187219D01*
X127280990Y-112806266D01*
X127757180Y-114330076D02*
X127757180Y-113758647D01*
X127757180Y-114044361D02*
X126757180Y-114044361D01*
X126900038Y-113949123D01*
X126995276Y-113853885D01*
X127042895Y-113758647D01*
X126757180Y-114663409D02*
X126757180Y-115330076D01*
X127757180Y-114901504D01*
%TO.C,JP1*%
X190855333Y-63355380D02*
X190855333Y-64069666D01*
X190902952Y-64212523D01*
X190998190Y-64307761D01*
X191141047Y-64355380D01*
X191236285Y-64355380D01*
X190379142Y-64355380D02*
X190379142Y-63355380D01*
X189998190Y-63355380D01*
X189902952Y-63403000D01*
X189855333Y-63450619D01*
X189807714Y-63545857D01*
X189807714Y-63688714D01*
X189855333Y-63783952D01*
X189902952Y-63831571D01*
X189998190Y-63879190D01*
X190379142Y-63879190D01*
X188855333Y-64355380D02*
X189426761Y-64355380D01*
X189141047Y-64355380D02*
X189141047Y-63355380D01*
X189236285Y-63498238D01*
X189331523Y-63593476D01*
X189426761Y-63641095D01*
X192955333Y-61555380D02*
X192336285Y-61555380D01*
X192669619Y-61936333D01*
X192526761Y-61936333D01*
X192431523Y-61983952D01*
X192383904Y-62031571D01*
X192336285Y-62126809D01*
X192336285Y-62364904D01*
X192383904Y-62460142D01*
X192431523Y-62507761D01*
X192526761Y-62555380D01*
X192812476Y-62555380D01*
X192907714Y-62507761D01*
X192955333Y-62460142D01*
X187136285Y-62555380D02*
X187707714Y-62555380D01*
X187422000Y-62555380D02*
X187422000Y-61555380D01*
X187517238Y-61698238D01*
X187612476Y-61793476D01*
X187707714Y-61841095D01*
%TO.C,JP18*%
X123582180Y-112279276D02*
X124296466Y-112279276D01*
X124439323Y-112231657D01*
X124534561Y-112136419D01*
X124582180Y-111993561D01*
X124582180Y-111898323D01*
X124582180Y-112755466D02*
X123582180Y-112755466D01*
X123582180Y-113136419D01*
X123629800Y-113231657D01*
X123677419Y-113279276D01*
X123772657Y-113326895D01*
X123915514Y-113326895D01*
X124010752Y-113279276D01*
X124058371Y-113231657D01*
X124105990Y-113136419D01*
X124105990Y-112755466D01*
X124582180Y-114279276D02*
X124582180Y-113707847D01*
X124582180Y-113993561D02*
X123582180Y-113993561D01*
X123725038Y-113898323D01*
X123820276Y-113803085D01*
X123867895Y-113707847D01*
X124010752Y-114850704D02*
X123963133Y-114755466D01*
X123915514Y-114707847D01*
X123820276Y-114660228D01*
X123772657Y-114660228D01*
X123677419Y-114707847D01*
X123629800Y-114755466D01*
X123582180Y-114850704D01*
X123582180Y-115041180D01*
X123629800Y-115136419D01*
X123677419Y-115184038D01*
X123772657Y-115231657D01*
X123820276Y-115231657D01*
X123915514Y-115184038D01*
X123963133Y-115136419D01*
X124010752Y-115041180D01*
X124010752Y-114850704D01*
X124058371Y-114755466D01*
X124105990Y-114707847D01*
X124201228Y-114660228D01*
X124391704Y-114660228D01*
X124486942Y-114707847D01*
X124534561Y-114755466D01*
X124582180Y-114850704D01*
X124582180Y-115041180D01*
X124534561Y-115136419D01*
X124486942Y-115184038D01*
X124391704Y-115231657D01*
X124201228Y-115231657D01*
X124105990Y-115184038D01*
X124058371Y-115136419D01*
X124010752Y-115041180D01*
%TO.C,JP16*%
X190257180Y-112355476D02*
X190971466Y-112355476D01*
X191114323Y-112307857D01*
X191209561Y-112212619D01*
X191257180Y-112069761D01*
X191257180Y-111974523D01*
X191257180Y-112831666D02*
X190257180Y-112831666D01*
X190257180Y-113212619D01*
X190304800Y-113307857D01*
X190352419Y-113355476D01*
X190447657Y-113403095D01*
X190590514Y-113403095D01*
X190685752Y-113355476D01*
X190733371Y-113307857D01*
X190780990Y-113212619D01*
X190780990Y-112831666D01*
X191257180Y-114355476D02*
X191257180Y-113784047D01*
X191257180Y-114069761D02*
X190257180Y-114069761D01*
X190400038Y-113974523D01*
X190495276Y-113879285D01*
X190542895Y-113784047D01*
X190257180Y-115212619D02*
X190257180Y-115022142D01*
X190304800Y-114926904D01*
X190352419Y-114879285D01*
X190495276Y-114784047D01*
X190685752Y-114736428D01*
X191066704Y-114736428D01*
X191161942Y-114784047D01*
X191209561Y-114831666D01*
X191257180Y-114926904D01*
X191257180Y-115117380D01*
X191209561Y-115212619D01*
X191161942Y-115260238D01*
X191066704Y-115307857D01*
X190828609Y-115307857D01*
X190733371Y-115260238D01*
X190685752Y-115212619D01*
X190638133Y-115117380D01*
X190638133Y-114926904D01*
X190685752Y-114831666D01*
X190733371Y-114784047D01*
X190828609Y-114736428D01*
%TO.C,JP4*%
X169519333Y-63355380D02*
X169519333Y-64069666D01*
X169566952Y-64212523D01*
X169662190Y-64307761D01*
X169805047Y-64355380D01*
X169900285Y-64355380D01*
X169043142Y-64355380D02*
X169043142Y-63355380D01*
X168662190Y-63355380D01*
X168566952Y-63403000D01*
X168519333Y-63450619D01*
X168471714Y-63545857D01*
X168471714Y-63688714D01*
X168519333Y-63783952D01*
X168566952Y-63831571D01*
X168662190Y-63879190D01*
X169043142Y-63879190D01*
X167614571Y-63688714D02*
X167614571Y-64355380D01*
X167852666Y-63307761D02*
X168090761Y-64022047D01*
X167471714Y-64022047D01*
X165800285Y-62555380D02*
X166371714Y-62555380D01*
X166086000Y-62555380D02*
X166086000Y-61555380D01*
X166181238Y-61698238D01*
X166276476Y-61793476D01*
X166371714Y-61841095D01*
X171619333Y-61555380D02*
X171000285Y-61555380D01*
X171333619Y-61936333D01*
X171190761Y-61936333D01*
X171095523Y-61983952D01*
X171047904Y-62031571D01*
X171000285Y-62126809D01*
X171000285Y-62364904D01*
X171047904Y-62460142D01*
X171095523Y-62507761D01*
X171190761Y-62555380D01*
X171476476Y-62555380D01*
X171571714Y-62507761D01*
X171619333Y-62460142D01*
%TO.C,JP19*%
X120432580Y-112304676D02*
X121146866Y-112304676D01*
X121289723Y-112257057D01*
X121384961Y-112161819D01*
X121432580Y-112018961D01*
X121432580Y-111923723D01*
X121432580Y-112780866D02*
X120432580Y-112780866D01*
X120432580Y-113161819D01*
X120480200Y-113257057D01*
X120527819Y-113304676D01*
X120623057Y-113352295D01*
X120765914Y-113352295D01*
X120861152Y-113304676D01*
X120908771Y-113257057D01*
X120956390Y-113161819D01*
X120956390Y-112780866D01*
X121432580Y-114304676D02*
X121432580Y-113733247D01*
X121432580Y-114018961D02*
X120432580Y-114018961D01*
X120575438Y-113923723D01*
X120670676Y-113828485D01*
X120718295Y-113733247D01*
X121432580Y-114780866D02*
X121432580Y-114971342D01*
X121384961Y-115066580D01*
X121337342Y-115114200D01*
X121194485Y-115209438D01*
X121004009Y-115257057D01*
X120623057Y-115257057D01*
X120527819Y-115209438D01*
X120480200Y-115161819D01*
X120432580Y-115066580D01*
X120432580Y-114876104D01*
X120480200Y-114780866D01*
X120527819Y-114733247D01*
X120623057Y-114685628D01*
X120861152Y-114685628D01*
X120956390Y-114733247D01*
X121004009Y-114780866D01*
X121051628Y-114876104D01*
X121051628Y-115066580D01*
X121004009Y-115161819D01*
X120956390Y-115209438D01*
X120861152Y-115257057D01*
%TO.C,JP14*%
X196607180Y-112304676D02*
X197321466Y-112304676D01*
X197464323Y-112257057D01*
X197559561Y-112161819D01*
X197607180Y-112018961D01*
X197607180Y-111923723D01*
X197607180Y-112780866D02*
X196607180Y-112780866D01*
X196607180Y-113161819D01*
X196654800Y-113257057D01*
X196702419Y-113304676D01*
X196797657Y-113352295D01*
X196940514Y-113352295D01*
X197035752Y-113304676D01*
X197083371Y-113257057D01*
X197130990Y-113161819D01*
X197130990Y-112780866D01*
X197607180Y-114304676D02*
X197607180Y-113733247D01*
X197607180Y-114018961D02*
X196607180Y-114018961D01*
X196750038Y-113923723D01*
X196845276Y-113828485D01*
X196892895Y-113733247D01*
X196940514Y-115161819D02*
X197607180Y-115161819D01*
X196559561Y-114923723D02*
X197273847Y-114685628D01*
X197273847Y-115304676D01*
%TO.C,JP3*%
X176631333Y-63355380D02*
X176631333Y-64069666D01*
X176678952Y-64212523D01*
X176774190Y-64307761D01*
X176917047Y-64355380D01*
X177012285Y-64355380D01*
X176155142Y-64355380D02*
X176155142Y-63355380D01*
X175774190Y-63355380D01*
X175678952Y-63403000D01*
X175631333Y-63450619D01*
X175583714Y-63545857D01*
X175583714Y-63688714D01*
X175631333Y-63783952D01*
X175678952Y-63831571D01*
X175774190Y-63879190D01*
X176155142Y-63879190D01*
X175250380Y-63355380D02*
X174631333Y-63355380D01*
X174964666Y-63736333D01*
X174821809Y-63736333D01*
X174726571Y-63783952D01*
X174678952Y-63831571D01*
X174631333Y-63926809D01*
X174631333Y-64164904D01*
X174678952Y-64260142D01*
X174726571Y-64307761D01*
X174821809Y-64355380D01*
X175107523Y-64355380D01*
X175202761Y-64307761D01*
X175250380Y-64260142D01*
X178731333Y-61555380D02*
X178112285Y-61555380D01*
X178445619Y-61936333D01*
X178302761Y-61936333D01*
X178207523Y-61983952D01*
X178159904Y-62031571D01*
X178112285Y-62126809D01*
X178112285Y-62364904D01*
X178159904Y-62460142D01*
X178207523Y-62507761D01*
X178302761Y-62555380D01*
X178588476Y-62555380D01*
X178683714Y-62507761D01*
X178731333Y-62460142D01*
X172912285Y-62555380D02*
X173483714Y-62555380D01*
X173198000Y-62555380D02*
X173198000Y-61555380D01*
X173293238Y-61698238D01*
X173388476Y-61793476D01*
X173483714Y-61841095D01*
D12*
%TO.C,JP2*%
X184960000Y-62403000D02*
X184960000Y-61803000D01*
X180860000Y-61803000D02*
X180860000Y-62403000D01*
X181510000Y-63103000D02*
X184310000Y-63103000D01*
X184310000Y-61103000D02*
X181510000Y-61103000D01*
X180860000Y-62403000D02*
G75*
G03*
X181560000Y-63103000I699999J-1D01*
G01*
X184260000Y-63103000D02*
G75*
G03*
X184960000Y-62403000I0J700000D01*
G01*
X184960000Y-61803000D02*
G75*
G03*
X184260000Y-61103000I-700000J0D01*
G01*
X181560000Y-61103000D02*
G75*
G03*
X180860000Y-61803000I-1J-699999D01*
G01*
%TO.C,JP15*%
X194279800Y-115694000D02*
X193679800Y-115694000D01*
X193679800Y-118494000D02*
X194279800Y-118494000D01*
X194979800Y-117794000D02*
X194979800Y-116394000D01*
X192979800Y-116394000D02*
X192979800Y-117794000D01*
X194979800Y-116394000D02*
G75*
G03*
X194279800Y-115694000I-700000J0D01*
G01*
X193679800Y-115694000D02*
G75*
G03*
X192979800Y-116394000I0J-700000D01*
G01*
X192979800Y-117794000D02*
G75*
G03*
X193679800Y-118494000I699999J-1D01*
G01*
X194279800Y-118494000D02*
G75*
G03*
X194979800Y-117794000I1J699999D01*
G01*
%TO.C,JP17*%
X128304800Y-117794000D02*
X128304800Y-116394000D01*
X126304800Y-116394000D02*
X126304800Y-117794000D01*
X127004800Y-118494000D02*
X127604800Y-118494000D01*
X127604800Y-115694000D02*
X127004800Y-115694000D01*
X127604800Y-118494000D02*
G75*
G03*
X128304800Y-117794000I1J699999D01*
G01*
X128304800Y-116394000D02*
G75*
G03*
X127604800Y-115694000I-700000J0D01*
G01*
X126304800Y-117794000D02*
G75*
G03*
X127004800Y-118494000I699999J-1D01*
G01*
X127004800Y-115694000D02*
G75*
G03*
X126304800Y-116394000I0J-700000D01*
G01*
%TO.C,JP1*%
X192072000Y-62403000D02*
X192072000Y-61803000D01*
X191422000Y-61103000D02*
X188622000Y-61103000D01*
X187972000Y-61803000D02*
X187972000Y-62403000D01*
X188622000Y-63103000D02*
X191422000Y-63103000D01*
X188672000Y-61103000D02*
G75*
G03*
X187972000Y-61803000I-1J-699999D01*
G01*
X192072000Y-61803000D02*
G75*
G03*
X191372000Y-61103000I-700000J0D01*
G01*
X187972000Y-62403000D02*
G75*
G03*
X188672000Y-63103000I699999J-1D01*
G01*
X191372000Y-63103000D02*
G75*
G03*
X192072000Y-62403000I0J700000D01*
G01*
%TO.C,JP18*%
X123829800Y-118494000D02*
X124429800Y-118494000D01*
X123129800Y-116394000D02*
X123129800Y-117794000D01*
X125129800Y-117794000D02*
X125129800Y-116394000D01*
X124429800Y-115694000D02*
X123829800Y-115694000D01*
X124429800Y-118494000D02*
G75*
G03*
X125129800Y-117794000I1J699999D01*
G01*
X125129800Y-116394000D02*
G75*
G03*
X124429800Y-115694000I-700000J0D01*
G01*
X123829800Y-115694000D02*
G75*
G03*
X123129800Y-116394000I0J-700000D01*
G01*
X123129800Y-117794000D02*
G75*
G03*
X123829800Y-118494000I699999J-1D01*
G01*
%TO.C,JP16*%
X191104800Y-115694000D02*
X190504800Y-115694000D01*
X189804800Y-116394000D02*
X189804800Y-117794000D01*
X190504800Y-118494000D02*
X191104800Y-118494000D01*
X191804800Y-117794000D02*
X191804800Y-116394000D01*
X191104800Y-118494000D02*
G75*
G03*
X191804800Y-117794000I1J699999D01*
G01*
X191804800Y-116394000D02*
G75*
G03*
X191104800Y-115694000I-700000J0D01*
G01*
X189804800Y-117794000D02*
G75*
G03*
X190504800Y-118494000I699999J-1D01*
G01*
X190504800Y-115694000D02*
G75*
G03*
X189804800Y-116394000I0J-700000D01*
G01*
%TO.C,JP4*%
X170086000Y-61103000D02*
X167286000Y-61103000D01*
X170736000Y-62403000D02*
X170736000Y-61803000D01*
X166636000Y-61803000D02*
X166636000Y-62403000D01*
X167286000Y-63103000D02*
X170086000Y-63103000D01*
X170036000Y-63103000D02*
G75*
G03*
X170736000Y-62403000I0J700000D01*
G01*
X166636000Y-62403000D02*
G75*
G03*
X167336000Y-63103000I699999J-1D01*
G01*
X170736000Y-61803000D02*
G75*
G03*
X170036000Y-61103000I-700000J0D01*
G01*
X167336000Y-61103000D02*
G75*
G03*
X166636000Y-61803000I-1J-699999D01*
G01*
%TO.C,JP19*%
X120654800Y-118494000D02*
X121254800Y-118494000D01*
X119954800Y-116394000D02*
X119954800Y-117794000D01*
X121954800Y-117794000D02*
X121954800Y-116394000D01*
X121254800Y-115694000D02*
X120654800Y-115694000D01*
X120654800Y-115694000D02*
G75*
G03*
X119954800Y-116394000I0J-700000D01*
G01*
X121254800Y-118494000D02*
G75*
G03*
X121954800Y-117794000I1J699999D01*
G01*
X119954800Y-117794000D02*
G75*
G03*
X120654800Y-118494000I699999J-1D01*
G01*
X121954800Y-116394000D02*
G75*
G03*
X121254800Y-115694000I-700000J0D01*
G01*
%TO.C,JP14*%
X197454800Y-115694000D02*
X196854800Y-115694000D01*
X196854800Y-118494000D02*
X197454800Y-118494000D01*
X198154800Y-117794000D02*
X198154800Y-116394000D01*
X196154800Y-116394000D02*
X196154800Y-117794000D01*
X198154800Y-116394000D02*
G75*
G03*
X197454800Y-115694000I-700000J0D01*
G01*
X197454800Y-118494000D02*
G75*
G03*
X198154800Y-117794000I1J699999D01*
G01*
X196854800Y-115694000D02*
G75*
G03*
X196154800Y-116394000I0J-700000D01*
G01*
X196154800Y-117794000D02*
G75*
G03*
X196854800Y-118494000I699999J-1D01*
G01*
%TO.C,JP3*%
X177848000Y-62403000D02*
X177848000Y-61803000D01*
X174398000Y-63103000D02*
X177198000Y-63103000D01*
X177198000Y-61103000D02*
X174398000Y-61103000D01*
X173748000Y-61803000D02*
X173748000Y-62403000D01*
X174448000Y-61103000D02*
G75*
G03*
X173748000Y-61803000I-1J-699999D01*
G01*
X177148000Y-63103000D02*
G75*
G03*
X177848000Y-62403000I0J700000D01*
G01*
X173748000Y-62403000D02*
G75*
G03*
X174448000Y-63103000I699999J-1D01*
G01*
X177848000Y-61803000D02*
G75*
G03*
X177148000Y-61103000I-700000J0D01*
G01*
%TD*%
M02*
